<svg width="1920" height="582" viewBox="0 0 1920 582" fill="none" xmlns="http://www.w3.org/2000/svg">
<g clip-path="url(#clip0_242_2)">
<rect width="1920" height="395" rx="50" fill="#161616"/>
<rect x="-35" y="270" width="1990" height="395" fill="#161616"/>
<path d="M690.487 854.849C690.487 567.138 923.708 333.917 1211.42 333.917" stroke="#2CB4E2" stroke-width="20" stroke-linecap="round" stroke-linejoin="round"/>
<path d="M1211.42 333.917C1499.13 333.917 1732.35 567.138 1732.35 854.849" stroke="#ED362F" stroke-width="20" stroke-linecap="round" stroke-linejoin="round"/>
<path d="M1957.06 576.72C2086.48 923.694 1958.26 1303.7 1668.37 1506.63" stroke="#F7B749" stroke-width="20" stroke-linecap="round" stroke-linejoin="round"/>
<path d="M933.294 109.206C1345.1 -44.4057 1803.45 164.911 1957.06 576.72" stroke="#43B85C" stroke-width="20" stroke-linecap="round" stroke-linejoin="round"/>
<path d="M465.776 1132.97C331.532 773.059 474.507 377.568 787.611 181.084" stroke="black" stroke-width="20" stroke-linecap="round" stroke-linejoin="round"/>
<path d="M142.84 480.343C349.67 -109.817 995.753 -420.579 1585.93 -213.749" stroke="#F7B749" stroke-width="20" stroke-linecap="round" stroke-linejoin="round"/>
<path d="M836.928 1923.43C246.75 1716.6 -63.994 1070.52 142.836 480.358" stroke="#ED362F" stroke-width="20" stroke-linecap="round" stroke-linejoin="round"/>
<g filter="url(#filter0_d_242_2)">
<path d="M794.807 265.846C794.652 266.105 794.549 266.373 794.497 266.663C794.446 266.942 794.477 267.252 794.57 267.583C794.663 267.913 794.838 268.265 795.086 268.637C795.334 269.019 795.675 269.433 796.11 269.887C796.637 270.446 797.112 271.035 797.525 271.644C797.939 272.254 798.259 272.874 798.476 273.515C798.693 274.156 798.786 274.797 798.745 275.437C798.714 276.089 798.497 276.729 798.115 277.36C797.742 277.97 797.267 278.445 796.709 278.786C796.141 279.127 795.52 279.334 794.849 279.406C794.177 279.478 793.464 279.416 792.72 279.23C791.975 279.034 791.242 278.714 790.508 278.269C789.743 277.804 789.123 277.267 788.627 276.667C788.131 276.058 787.779 275.417 787.562 274.745C787.356 274.073 787.283 273.381 787.366 272.678C787.449 271.975 787.686 271.303 788.089 270.642L790.828 272.316C790.642 272.647 790.518 272.988 790.456 273.319C790.394 273.66 790.405 273.98 790.487 274.301C790.57 274.621 790.725 274.931 790.963 275.22C791.2 275.51 791.521 275.789 791.924 276.037C792.296 276.264 792.658 276.419 792.999 276.512C793.34 276.595 793.66 276.626 793.96 276.585C794.26 276.543 794.528 276.44 794.766 276.285C795.004 276.13 795.2 275.913 795.365 275.654C795.531 275.386 795.613 275.096 795.613 274.786C795.613 274.487 795.531 274.166 795.386 273.825C795.241 273.484 795.014 273.133 794.735 272.761C794.456 272.389 794.125 271.996 793.732 271.582C793.185 270.983 792.72 270.373 792.327 269.753C791.934 269.133 791.655 268.503 791.49 267.872C791.324 267.242 791.273 266.611 791.355 265.991C791.428 265.361 791.655 264.751 792.017 264.151C792.41 263.511 792.885 263.025 793.443 262.684C794.001 262.343 794.611 262.136 795.272 262.074C795.934 262.012 796.637 262.074 797.37 262.281C798.104 262.487 798.838 262.818 799.582 263.273C800.037 263.552 800.471 263.872 800.884 264.234C801.287 264.596 801.649 264.989 801.959 265.423C802.269 265.846 802.528 266.301 802.724 266.787C802.92 267.262 803.055 267.758 803.106 268.265C803.158 268.771 803.127 269.288 803.003 269.825C802.889 270.363 802.662 270.89 802.342 271.427L799.582 269.743C799.841 269.298 799.996 268.875 800.047 268.472C800.099 268.068 800.058 267.696 799.934 267.345C799.81 266.994 799.592 266.663 799.303 266.353C799.014 266.043 798.652 265.764 798.228 265.505C797.856 265.278 797.494 265.113 797.153 265.03C796.812 264.937 796.492 264.906 796.203 264.937C795.913 264.968 795.644 265.061 795.407 265.216C795.169 265.371 794.973 265.567 794.807 265.836V265.846Z" fill="white"/>
<path d="M784.585 259.748L789.163 255.48L791.406 257.888L778.932 269.525L774.953 265.257C774.322 264.575 773.847 263.872 773.526 263.138C773.206 262.404 773.051 261.681 773.041 260.968C773.041 260.255 773.175 259.562 773.475 258.901C773.774 258.229 774.219 257.619 774.818 257.061C775.376 256.544 775.996 256.162 776.658 255.924C777.33 255.687 778.012 255.604 778.715 255.666C779.417 255.728 780.12 255.945 780.833 256.307C781.536 256.679 782.208 257.196 782.838 257.878L784.575 259.738L784.585 259.748ZM782.632 261.567L780.895 259.707C780.575 259.366 780.244 259.118 779.913 258.963C779.572 258.808 779.242 258.725 778.911 258.725C778.58 258.725 778.249 258.787 777.95 258.922C777.64 259.056 777.361 259.242 777.113 259.469C776.823 259.738 776.585 260.038 776.41 260.358C776.234 260.678 776.131 261.009 776.1 261.35C776.069 261.691 776.12 262.043 776.244 262.394C776.368 262.746 776.596 263.097 776.916 263.438L778.653 265.298L782.642 261.578L782.632 261.567Z" fill="white"/>
<path d="M769.507 240.577L772.877 246.716L777.104 244.401L773.166 237.218L775.502 235.936L781.031 246.013L766.076 254.209L760.567 244.163L762.924 242.871L766.841 250.023L770.613 247.956L767.244 241.817L769.528 240.566L769.507 240.577Z" fill="white"/>
<path d="M766.075 221.891C766.922 221.736 767.718 221.736 768.462 221.891C769.206 222.036 769.878 222.304 770.467 222.707C771.067 223.111 771.573 223.638 772.007 224.289C772.431 224.94 772.751 225.694 772.968 226.562C773.206 227.544 773.237 228.454 773.061 229.301C772.886 230.149 772.534 230.914 772.018 231.585C771.49 232.257 770.808 232.846 769.961 233.342C769.113 233.838 768.152 234.221 767.057 234.479L764.824 235.027C763.718 235.296 762.685 235.399 761.703 235.327C760.721 235.265 759.843 235.037 759.057 234.665C758.272 234.293 757.61 233.776 757.063 233.105C756.515 232.433 756.132 231.637 755.905 230.697C755.688 229.787 755.616 228.94 755.698 228.175C755.781 227.4 756.008 226.707 756.36 226.087C756.721 225.467 757.207 224.929 757.827 224.475C758.447 224.02 759.181 223.648 760.029 223.359L760.804 226.542C760.318 226.697 759.905 226.872 759.564 227.079C759.223 227.286 758.954 227.534 758.758 227.813C758.561 228.102 758.447 228.423 758.406 228.795C758.365 229.167 758.406 229.58 758.509 230.056C758.633 230.552 758.84 230.955 759.14 231.265C759.44 231.575 759.822 231.802 760.297 231.947C760.763 232.081 761.31 232.143 761.93 232.112C762.551 232.081 763.243 231.978 763.997 231.792L766.25 231.244C767.883 230.852 769.031 230.324 769.702 229.673C770.374 229.022 770.581 228.206 770.343 227.203C770.137 226.366 769.754 225.767 769.196 225.384C768.638 225.002 767.852 224.909 766.84 225.105L766.064 221.901L766.075 221.891Z" fill="white"/>
<path d="M753.869 215.607L754.076 205.747L756.732 205.799L756.66 209.127L768.411 209.375L768.483 206.047L771.129 206.099L770.922 215.958L768.276 215.907L768.349 212.661L756.598 212.413L756.525 215.659L753.869 215.607Z" fill="white"/>
<path d="M770.737 191.919L769.31 196.839L772.452 198.802L771.491 202.13L756.66 192.012L757.487 189.139L775.398 188.622L774.437 191.95L770.737 191.919ZM766.851 195.278L767.832 191.878L761.311 191.805L766.84 195.278H766.851Z" fill="white"/>
<path d="M776.297 181.635L780.441 174.804L782.715 176.178L776.865 185.842L762.272 177.005L763.988 174.184L776.307 181.646L776.297 181.635Z" fill="white"/>
<path d="M799.996 152.097L794.022 155.756L796.533 159.859L803.52 155.58L804.905 157.844L795.107 163.849L786.198 149.307L795.965 143.323L797.371 145.607L790.415 149.865L792.658 153.534L798.631 149.875L799.985 152.097H799.996Z" fill="white"/>
<path d="M808.603 156.242L803.776 139.881L808.014 138.631C809.099 138.31 810.143 138.207 811.125 138.321C812.117 138.435 813.016 138.724 813.843 139.199C814.659 139.675 815.383 140.326 815.993 141.153C816.602 141.969 817.078 142.93 817.398 144.036L817.801 145.38C818.122 146.486 818.256 147.54 818.184 148.563C818.111 149.576 817.874 150.516 817.45 151.353C817.036 152.201 816.447 152.935 815.693 153.555C814.938 154.175 814.039 154.64 812.995 154.95L808.603 156.242ZM807.714 141.504L811.032 152.769L812.241 152.408C812.83 152.232 813.326 151.963 813.729 151.601C814.132 151.24 814.432 150.795 814.628 150.279C814.825 149.752 814.928 149.162 814.918 148.501C814.918 147.839 814.794 147.116 814.566 146.341L814.163 144.966C813.946 144.233 813.667 143.592 813.316 143.034C812.964 142.486 812.561 142.031 812.107 141.7C811.641 141.359 811.135 141.153 810.577 141.049C810.019 140.956 809.409 140.998 808.768 141.194L807.714 141.504Z" fill="white"/>
<path d="M824.189 135.262L834.049 135.003L834.122 137.659L830.794 137.742L831.104 149.493L834.432 149.41L834.504 152.056L824.644 152.315L824.572 149.669L827.817 149.586L827.507 137.835L824.262 137.918L824.189 135.262Z" fill="white"/>
<path d="M855.186 141.421L850.07 140.202L846.742 154.185L843.528 153.42L846.856 139.437L841.802 138.238L842.422 135.623L855.806 138.806L855.186 141.411V141.421Z" fill="white"/>
<path d="M863.575 142.042L872.257 146.734L870.986 149.069L868.061 147.488L862.47 157.823L865.394 159.405L864.134 161.73L855.462 157.038L856.723 154.712L859.576 156.263L865.167 145.928L862.315 144.377L863.575 142.042Z" fill="white"/>
<path d="M882.027 167.61C881.273 168.406 880.477 169.036 879.64 169.512C878.792 169.977 877.945 170.266 877.097 170.38C876.24 170.483 875.402 170.401 874.576 170.132C873.749 169.863 872.984 169.388 872.271 168.716C871.558 168.034 871.051 167.3 870.741 166.504C870.441 165.708 870.328 164.892 870.41 164.044C870.493 163.197 870.741 162.35 871.175 161.502C871.609 160.644 872.198 159.828 872.953 159.032L874.658 157.223C875.413 156.427 876.198 155.797 877.035 155.311C877.872 154.826 878.699 154.526 879.547 154.402C880.384 154.278 881.211 154.34 882.027 154.588C882.833 154.836 883.598 155.301 884.311 155.983C885.035 156.665 885.551 157.409 885.862 158.226C886.172 159.042 886.296 159.869 886.234 160.737C886.172 161.595 885.934 162.463 885.51 163.331C885.086 164.2 884.497 165.026 883.743 165.822L882.038 167.631L882.027 167.61ZM881.324 163.497C881.8 162.99 882.203 162.484 882.523 161.988C882.844 161.481 883.061 160.996 883.174 160.52C883.288 160.045 883.288 159.59 883.174 159.156C883.061 158.722 882.813 158.319 882.42 157.947C882.038 157.585 881.624 157.358 881.2 157.285C880.777 157.213 880.343 157.254 879.888 157.409C879.443 157.564 878.978 157.823 878.513 158.184C878.038 158.546 877.573 158.98 877.087 159.487L875.361 161.306C874.886 161.802 874.483 162.298 874.152 162.794C873.821 163.28 873.583 163.755 873.449 164.22C873.315 164.685 873.294 165.13 873.387 165.543C873.48 165.967 873.728 166.36 874.121 166.732C874.503 167.093 874.917 167.321 875.361 167.403C875.805 167.486 876.26 167.455 876.725 167.31C877.19 167.166 877.666 166.918 878.152 166.577C878.637 166.236 879.123 165.801 879.598 165.305L881.324 163.486V163.497Z" fill="white"/>
<path d="M885.332 185.501L883.606 182.71L890.469 172.892L881.105 178.68L879.358 175.858L893.869 166.898L895.616 169.719L888.774 179.486L898.096 173.739L899.832 176.551L885.322 185.511L885.332 185.501Z" fill="white"/>
<path d="M923.593 194.586C917.175 163.229 894.489 136.905 864.383 125.878L866.874 119.087C899.316 130.962 923.769 159.343 930.683 193.139L923.593 194.586Z" fill="#2CB4E2"/>
<path d="M761.527 152.894L756.028 148.191C775.148 125.826 802.96 113 832.364 113C844.228 113 855.835 115.046 866.873 119.087L864.382 125.878C854.14 122.126 843.371 120.224 832.364 120.224C805.089 120.224 779.272 132.13 761.537 152.883L761.527 152.894Z" fill="#F7B749"/>
<path d="M737.994 247.595C734.015 236.639 732 225.116 732 213.365C732 189.48 740.537 166.34 756.029 148.201L761.528 152.904C747.151 169.719 739.235 191.196 739.235 213.365C739.235 224.278 741.105 234.965 744.795 245.135L737.994 247.605V247.595Z" fill="#43B85C"/>
<path d="M812.449 311.745C778.394 304.893 749.859 280.305 737.984 247.595L744.784 245.125C755.802 275.479 782.27 298.289 813.875 304.645L812.449 311.735V311.745Z" fill="#ED362F"/>
<path d="M812.107 441.722C812.107 457.038 824.572 469.503 839.888 469.503H1161.22C1176.54 469.503 1189 457.038 1189 441.722V387.603H812.107V441.722Z" fill="white"/>
<path d="M958.945 439.021H948.276L946.176 446.443H938.949L950.595 410.896H956.821L968.246 446.443H961.02L958.945 439.021ZM949.96 433.186H957.333L953.696 420.1L949.96 433.186ZM989.95 437.166C989.95 436.531 989.836 435.937 989.609 435.384C989.397 434.83 989.031 434.309 988.51 433.821C987.973 433.349 987.273 432.918 986.41 432.527C985.564 432.12 984.506 431.746 983.237 431.404C981.267 430.867 979.534 430.216 978.036 429.451C976.555 428.686 975.343 427.848 974.399 426.936C973.455 426.025 972.738 425.016 972.25 423.909C971.778 422.802 971.542 421.598 971.542 420.296C971.542 418.798 971.86 417.439 972.494 416.219C973.129 414.998 974.008 413.956 975.131 413.094C976.254 412.231 977.581 411.572 979.111 411.116C980.641 410.644 982.301 410.408 984.091 410.408C985.946 410.408 987.639 410.677 989.169 411.214C990.715 411.751 992.042 412.5 993.149 413.46C994.255 414.436 995.118 415.592 995.737 416.927C996.355 418.261 996.664 419.726 996.664 421.321H989.975C989.942 420.524 989.796 419.791 989.535 419.124C989.291 418.457 988.925 417.879 988.437 417.391C987.932 416.919 987.306 416.552 986.557 416.292C985.824 416.015 984.962 415.877 983.969 415.877C983.057 415.877 982.244 415.991 981.528 416.219C980.828 416.43 980.234 416.731 979.745 417.122C979.257 417.529 978.883 418.009 978.622 418.562C978.378 419.1 978.256 419.685 978.256 420.32C978.256 420.988 978.419 421.59 978.744 422.127C979.086 422.664 979.574 423.144 980.209 423.567C980.844 424.007 981.609 424.406 982.504 424.764C983.416 425.122 984.441 425.455 985.58 425.765C986.801 426.106 987.965 426.521 989.071 427.01C990.178 427.498 991.196 428.059 992.123 428.694C993.523 429.736 994.638 430.948 995.468 432.332C996.298 433.715 996.713 435.31 996.713 437.117C996.713 438.68 996.396 440.071 995.761 441.292C995.142 442.496 994.28 443.514 993.173 444.344C992.066 445.19 990.748 445.833 989.218 446.272C987.688 446.696 986.02 446.907 984.213 446.907C982.439 446.907 980.681 446.647 978.94 446.126C977.214 445.589 975.709 444.808 974.423 443.782C973.202 442.773 972.234 441.585 971.518 440.218C970.818 438.85 970.468 437.247 970.468 435.408H977.206C977.239 436.482 977.426 437.402 977.768 438.167C978.11 438.932 978.59 439.559 979.208 440.047C979.81 440.535 980.535 440.893 981.381 441.121C982.244 441.349 983.188 441.463 984.213 441.463C985.125 441.463 985.93 441.357 986.63 441.145C987.346 440.934 987.948 440.641 988.437 440.267C988.925 439.892 989.299 439.445 989.56 438.924C989.82 438.387 989.95 437.801 989.95 437.166ZM1003.04 410.896H1023.59V416.438H1016.66V440.926H1023.59V446.443H1003.04V440.926H1009.8V416.438H1003.04V410.896ZM1049.03 439.021H1038.36L1036.26 446.443H1029.04L1040.68 410.896H1046.91L1058.33 446.443H1051.11L1049.03 439.021ZM1040.05 433.186H1047.42L1043.78 420.1L1040.05 433.186Z" fill="#161616"/>
<path d="M1189 192.57H839.889C824.573 192.57 812.108 205.035 812.108 220.351V381.456H1188.99V192.57H1189Z" fill="white"/>
<path d="M1045.64 261.093V268.72H1098.01L1045.64 321.088L1051.02 326.473L1116.39 261.093H1045.64Z" fill="#F7B749"/>
<path d="M1124 253.486L1131.63 245.869H1045.64V253.486H1124Z" fill="#ED362F"/>
<path d="M1129.4 258.86V337.242H1137V251.253L1129.4 258.86Z" fill="#43B85C"/>
<path d="M1121.78 337.242V266.488L1056.4 331.858L1061.79 337.242L1114.16 284.874V337.242H1121.78Z" fill="#2CB4E2"/>
<path d="M872.134 331.692H885.012C887.771 331.692 889.952 331.361 891.564 330.679C893.166 329.997 894.313 328.85 894.995 327.248C895.678 325.646 896.008 323.455 896.008 320.695V309.699C896.008 306.96 895.678 304.789 894.995 303.177C894.313 301.575 893.166 300.418 891.564 299.725C889.962 299.033 887.771 298.692 885.012 298.692H872.134V331.692ZM869.416 337.128C867.597 337.128 866.698 336.229 866.698 334.41V295.963C866.698 294.144 867.597 293.245 869.416 293.245H885.012C890.644 293.245 894.789 294.578 897.455 297.245C900.122 299.911 901.455 304.056 901.455 309.688V320.685C901.455 326.318 900.132 330.462 897.486 333.128C894.84 335.795 890.686 337.128 885.012 337.128H869.416Z" fill="#161616"/>
<path d="M919.346 321.47H935.138L927.087 301.854L919.356 321.47H919.346ZM910.385 336.87C908.659 336.198 908.143 335.009 908.835 333.304L924.234 295.374C924.885 293.958 925.898 293.245 927.283 293.245H927.418C928.813 293.307 929.774 294.031 930.27 295.374L945.938 333.304C946.631 335.009 946.135 336.198 944.45 336.87C942.745 337.542 941.556 337.045 940.884 335.382L937.391 326.896H917.227L913.889 335.382C913.217 337.066 912.049 337.562 910.385 336.87Z" fill="#161616"/>
<path d="M964.912 337.129C963.093 337.129 962.194 336.229 962.194 334.41V321.212L947.373 297.597C946.474 296.046 946.743 294.765 948.211 293.783C949.761 292.832 951.011 293.111 951.962 294.62L964.912 315.404L978.503 294.62C978.958 293.907 979.505 293.483 980.156 293.338C980.808 293.194 981.49 293.39 982.193 293.907C983.763 294.878 984.053 296.108 983.03 297.597L967.63 321.212V334.41C967.63 336.229 966.731 337.129 964.912 337.129Z" fill="#161616"/>
<path d="M1000.64 337.128C996.952 337.128 994.079 336.384 992.022 334.896C989.965 333.408 988.673 331.113 988.157 328.002C988.074 327.051 988.27 326.338 988.735 325.863C989.211 325.388 989.903 325.15 990.802 325.15C991.702 325.15 992.373 325.367 992.787 325.801C993.21 326.235 993.5 326.896 993.645 327.806C993.965 329.294 994.657 330.307 995.732 330.855C996.797 331.403 998.43 331.682 1000.63 331.682H1009.95C1012.73 331.682 1014.64 331.186 1015.64 330.183C1016.64 329.181 1017.14 327.31 1017.14 324.571C1017.14 321.832 1016.62 319.879 1015.59 318.856C1014.55 317.832 1012.67 317.316 1009.95 317.316H1001.92C997.841 317.316 994.823 316.324 992.838 314.319C990.864 312.324 989.872 309.285 989.872 305.203C989.872 301.121 990.844 298.144 992.807 296.17C994.75 294.217 997.779 293.224 1001.85 293.224H1009.55C1012.98 293.224 1015.67 293.927 1017.62 295.323C1019.57 296.718 1020.81 298.878 1021.32 301.761C1021.46 302.681 1021.28 303.394 1020.81 303.88C1020.33 304.366 1019.62 304.614 1018.68 304.614C1017.82 304.614 1017.17 304.386 1016.73 303.932C1016.3 303.477 1016.02 302.826 1015.9 301.958C1015.56 300.686 1014.89 299.818 1013.92 299.353C1012.95 298.888 1011.49 298.65 1009.55 298.65H1001.85C999.267 298.65 997.531 299.105 996.642 300.035C995.763 300.945 995.309 302.671 995.309 305.203C995.309 307.735 995.763 309.492 996.673 310.453C997.572 311.404 999.319 311.869 1001.92 311.869H1009.95C1014.2 311.869 1017.37 312.903 1019.45 314.97C1021.53 317.037 1022.57 320.241 1022.57 324.55C1022.57 328.86 1021.54 332.012 1019.47 334.048C1017.41 336.084 1014.22 337.097 1009.95 337.097H1000.63L1000.64 337.128Z" fill="#161616"/>
<path d="M873.963 265.981H877.849C879.007 265.981 879.906 265.836 880.568 265.568C881.229 265.289 881.694 264.823 881.963 264.172C882.242 263.511 882.376 262.612 882.376 261.454V253.992C882.376 252.845 882.231 251.946 881.963 251.284C881.684 250.623 881.219 250.158 880.568 249.879C879.906 249.6 879.007 249.455 877.849 249.455H873.963C872.816 249.455 871.917 249.579 871.256 249.837C870.594 250.096 870.129 250.571 869.85 251.222C869.571 251.884 869.426 252.783 869.426 253.941V261.434C869.426 262.591 869.571 263.49 869.84 264.152C870.119 264.813 870.584 265.278 871.235 265.547C871.896 265.826 872.795 265.96 873.953 265.96V265.981H873.963ZM873.963 268.699C871.483 268.699 869.664 268.11 868.475 266.921C867.287 265.733 866.698 263.904 866.698 261.434V253.941C866.698 251.45 867.297 249.61 868.486 248.442C869.674 247.264 871.504 246.696 873.963 246.716H877.849C880.34 246.716 882.169 247.305 883.348 248.484C884.526 249.662 885.115 251.501 885.115 253.982V261.444C885.115 263.924 884.526 265.743 883.348 266.932C882.169 268.12 880.33 268.709 877.849 268.709H873.963V268.699Z" fill="#161616"/>
<path d="M893.476 265.981H899.77C901.176 265.981 902.147 265.723 902.654 265.216C903.16 264.71 903.408 263.759 903.408 262.343V258.622C903.408 257.207 903.15 256.245 902.654 255.739C902.158 255.233 901.196 254.984 899.77 254.984H898.54C897.186 254.984 896.029 255.15 895.037 255.47C894.055 255.791 893.538 256.307 893.486 257.01V265.971L893.476 265.981ZM892.112 275.179C891.213 275.179 890.748 274.725 890.748 273.815V253.61C890.748 252.711 891.202 252.246 892.112 252.246C893.021 252.246 893.476 252.7 893.476 253.61V254.013C894.065 253.424 894.789 252.99 895.636 252.69C896.494 252.401 897.465 252.246 898.53 252.246H899.76C901.92 252.246 903.522 252.762 904.555 253.796C905.589 254.829 906.106 256.431 906.106 258.591V262.312C906.106 264.462 905.589 266.053 904.555 267.097C903.522 268.141 901.92 268.658 899.76 268.658H893.466V273.784C893.466 274.683 893.011 275.148 892.101 275.148L892.112 275.179Z" fill="#161616"/>
<path d="M917.34 254.974C915.945 254.954 914.973 255.202 914.467 255.708C913.96 256.215 913.702 257.176 913.702 258.612V258.881H923.624V258.612C923.624 257.197 923.365 256.235 922.869 255.729C922.373 255.222 921.412 254.974 919.986 254.974H917.33H917.34ZM913.712 261.589V262.374C913.712 263.759 913.971 264.721 914.477 265.217C914.983 265.713 915.934 265.971 917.35 265.971H920.006C921.112 265.971 921.929 265.868 922.456 265.671C922.983 265.465 923.334 265.103 923.51 264.586C923.634 264.183 923.789 263.863 924.006 263.646C924.223 263.429 924.533 263.325 924.967 263.325C925.401 263.325 925.773 263.449 926.001 263.677C926.228 263.904 926.311 264.255 926.228 264.71C925.99 266.054 925.36 267.056 924.316 267.718C923.283 268.379 921.836 268.7 920.006 268.7H917.35C915.2 268.7 913.609 268.183 912.565 267.149C911.521 266.116 911.004 264.524 911.004 262.385V258.623C911.004 256.432 911.521 254.819 912.565 253.786C913.609 252.752 915.2 252.256 917.35 252.277H920.006C922.166 252.277 923.768 252.794 924.802 253.827C925.835 254.861 926.352 256.463 926.352 258.633V260.256C926.352 261.155 925.897 261.62 924.988 261.62H913.702L913.712 261.589Z" fill="#161616"/>
<path d="M933.359 268.699C932.46 268.699 931.995 268.244 931.995 267.335V253.62C931.995 252.721 932.45 252.256 933.359 252.256C934.269 252.256 934.724 252.711 934.724 253.62V254.158C935.871 252.886 937.555 252.256 939.788 252.256H940.687C942.847 252.256 944.449 252.773 945.482 253.806C946.516 254.84 947.033 256.442 947.033 258.602V267.314C947.033 268.213 946.578 268.679 945.669 268.679C944.759 268.679 944.304 268.224 944.304 267.314V258.602C944.304 257.186 944.046 256.225 943.529 255.718C943.012 255.212 942.062 254.964 940.666 254.964H939.767C938.465 254.964 937.338 255.119 936.377 255.408C935.416 255.698 934.858 256.173 934.703 256.803V267.304C934.703 268.203 934.248 268.668 933.339 268.668L933.359 268.699Z" fill="#161616"/>
<path d="M954.495 268.699C954.03 268.699 953.679 268.586 953.472 268.368C953.255 268.141 953.141 267.8 953.141 267.345V248.122C953.141 247.646 953.255 247.295 953.472 247.088C953.699 246.871 954.04 246.768 954.495 246.768C954.95 246.768 955.322 246.882 955.529 247.088C955.746 247.305 955.849 247.646 955.849 248.122V267.345C955.849 267.81 955.735 268.162 955.529 268.368C955.311 268.596 954.97 268.699 954.495 268.699Z" fill="#161616"/>
<path d="M963.642 268.699C962.732 268.699 962.277 268.244 962.277 267.335V253.62C962.277 252.721 962.732 252.256 963.642 252.256C964.551 252.256 965.006 252.711 965.006 253.62V254.158C966.153 252.886 967.838 252.256 970.06 252.256H970.959C973.119 252.256 974.721 252.773 975.754 253.806C976.788 254.84 977.305 256.442 977.305 258.602V267.314C977.305 268.213 976.85 268.679 975.94 268.679C975.031 268.679 974.576 268.224 974.576 267.314V258.602C974.576 257.186 974.318 256.225 973.801 255.718C973.295 255.212 972.344 254.964 970.938 254.964H970.039C968.737 254.964 967.61 255.119 966.649 255.408C965.688 255.698 965.13 256.173 964.985 256.803V267.304C964.985 268.203 964.53 268.668 963.621 268.668L963.642 268.699Z" fill="#161616"/>
<path d="M985.387 268.699C984.488 268.699 984.023 268.245 984.023 267.335V254.985H982.824C981.925 254.985 981.46 254.53 981.46 253.62C981.46 252.711 981.915 252.256 982.824 252.256H984.023V252.122C984.023 249.993 984.53 248.422 985.563 247.399C986.586 246.375 988.157 245.869 990.276 245.869C991.061 245.869 991.444 246.324 991.444 247.233C991.444 248.143 991.061 248.597 990.276 248.597C988.912 248.597 987.981 248.846 987.485 249.331C986.989 249.817 986.731 250.747 986.731 252.132V252.266H990.069C990.968 252.266 991.433 252.721 991.433 253.631C991.433 254.54 990.979 254.995 990.069 254.995H986.731V267.345C986.731 268.245 986.276 268.71 985.367 268.71L985.387 268.699Z" fill="#161616"/>
<path d="M996.952 268.699C996.042 268.699 995.587 268.244 995.587 267.335V253.62C995.587 252.721 996.042 252.256 996.952 252.256C997.861 252.256 998.316 252.711 998.316 253.62V254.891C998.957 254.034 999.763 253.372 1000.75 252.938C1001.74 252.494 1002.87 252.277 1004.16 252.277C1005.05 252.277 1005.52 252.731 1005.52 253.641C1005.52 254.55 1005.06 255.005 1004.16 255.005C1002.28 255.005 1000.86 255.346 999.876 256.039C998.895 256.731 998.378 257.641 998.326 258.777V267.356C998.326 268.255 997.871 268.72 996.962 268.72L996.952 268.699Z" fill="#161616"/>
<path d="M1013.2 265.981H1015.02C1015.82 265.981 1016.57 265.909 1017.27 265.754C1017.97 265.599 1018.58 265.34 1019.08 264.948C1019.57 264.565 1019.91 264.007 1020.07 263.273V260.648H1013.2C1012.13 260.648 1011.42 260.834 1011.07 261.186C1010.72 261.537 1010.54 262.25 1010.54 263.304C1010.54 264.359 1010.72 265.092 1011.07 265.433C1011.42 265.785 1012.13 265.961 1013.2 265.961V265.981ZM1013.2 268.699C1011.38 268.699 1010.04 268.255 1009.15 267.366C1008.26 266.477 1007.81 265.134 1007.81 263.315C1007.81 261.496 1008.26 260.152 1009.14 259.263C1010.01 258.385 1011.37 257.93 1013.2 257.93H1020.06C1019.99 256.793 1019.7 256.018 1019.17 255.605C1018.64 255.191 1017.74 254.974 1016.45 254.974H1014.57C1013.49 254.974 1012.68 255.047 1012.15 255.202C1011.63 255.346 1011.26 255.605 1011.04 255.987C1010.84 256.442 1010.65 256.762 1010.44 256.928C1010.23 257.103 1009.93 257.196 1009.52 257.196C1009.06 257.196 1008.7 257.062 1008.45 256.814C1008.2 256.556 1008.12 256.225 1008.23 255.801C1008.55 254.582 1009.23 253.693 1010.25 253.124C1011.29 252.556 1012.73 252.277 1014.57 252.277H1016.45C1018.61 252.277 1020.22 252.794 1021.25 253.827C1022.28 254.861 1022.8 256.463 1022.8 258.623V267.335C1022.8 268.234 1022.34 268.699 1021.44 268.699C1020.53 268.699 1020.07 268.245 1020.07 267.335V266.601C1018.91 267.986 1017.23 268.689 1015.02 268.689H1013.18L1013.2 268.699Z" fill="#161616"/>
</g>
<rect x="424" y="198" width="183" height="83.2421" rx="12" fill="#ED362F"/>
<path d="M476.77 255.621H471.34V243.297H463.293V255.621H457.844V227.184H463.293V238.844H471.34V227.184H476.77V255.621ZM496.008 249.684H487.473L485.793 255.621H480.012L489.328 227.184H494.309L503.449 255.621H497.668L496.008 249.684ZM488.82 245.016H494.719L491.809 234.547L488.82 245.016ZM524.797 255.621H519.328L511.418 237.281V255.621H505.891V227.184H511.418L519.27 245.445L519.289 227.184H524.797V255.621ZM549.914 243.492C549.914 244.716 549.803 245.881 549.582 246.988C549.361 248.082 549.042 249.098 548.625 250.035C548.182 250.973 547.635 251.832 546.984 252.613C546.333 253.394 545.591 254.046 544.758 254.566C544.003 255.022 543.169 255.374 542.258 255.621C541.359 255.881 540.389 256.012 539.348 256.012C538.241 256.012 537.219 255.868 536.281 255.582C535.344 255.296 534.491 254.892 533.723 254.371C532.967 253.824 532.29 253.167 531.691 252.398C531.092 251.617 530.591 250.738 530.188 249.762C529.823 248.863 529.543 247.887 529.348 246.832C529.165 245.777 529.074 244.664 529.074 243.492V239.352C529.074 238.102 529.178 236.917 529.387 235.797C529.608 234.677 529.927 233.642 530.344 232.691C530.747 231.793 531.236 230.979 531.809 230.25C532.395 229.521 533.065 228.896 533.82 228.375C534.562 227.867 535.396 227.477 536.32 227.203C537.245 226.93 538.247 226.793 539.328 226.793C540.422 226.793 541.444 226.936 542.395 227.223C543.358 227.496 544.224 227.893 544.992 228.414C545.76 228.909 546.431 229.508 547.004 230.211C547.59 230.914 548.091 231.689 548.508 232.535C548.964 233.499 549.309 234.553 549.543 235.699C549.79 236.845 549.914 238.062 549.914 239.352V243.492ZM544.348 239.312C544.348 238.583 544.309 237.893 544.23 237.242C544.165 236.578 544.055 235.966 543.898 235.406C543.703 234.703 543.443 234.078 543.117 233.531C542.792 232.971 542.408 232.516 541.965 232.164C541.613 231.904 541.216 231.702 540.773 231.559C540.344 231.415 539.862 231.344 539.328 231.344C538.82 231.344 538.358 231.409 537.941 231.539C537.538 231.669 537.173 231.858 536.848 232.105C536.405 232.47 536.027 232.926 535.715 233.473C535.415 234.019 535.181 234.657 535.012 235.387C534.882 235.947 534.784 236.559 534.719 237.223C534.667 237.887 534.641 238.583 534.641 239.312V243.492C534.641 244.182 534.667 244.846 534.719 245.484C534.771 246.122 534.862 246.715 534.992 247.262C535.135 247.952 535.344 248.583 535.617 249.156C535.904 249.716 536.236 250.172 536.613 250.523C536.965 250.836 537.362 251.077 537.805 251.246C538.26 251.415 538.775 251.5 539.348 251.5C539.895 251.5 540.396 251.422 540.852 251.266C541.307 251.109 541.711 250.881 542.062 250.582C542.505 250.217 542.876 249.762 543.176 249.215C543.488 248.655 543.736 248.023 543.918 247.32C544.061 246.773 544.165 246.174 544.23 245.523C544.309 244.872 544.348 244.195 544.348 243.492V239.312ZM555.305 227.184H571.75V231.617H566.203V251.207H571.75V255.621H555.305V251.207H560.715V231.617H555.305V227.184Z" fill="white"/>
<path d="M533.421 280.787L520.232 296.171C518.141 298.61 514.745 298.61 512.655 296.171L499.466 280.787L533.421 280.787Z" fill="#ED362F"/>
<rect x="117" y="368" width="286.594" height="83.2421" rx="12" fill="#2CB4E2"/>
<path d="M185.531 425.621H180.102V413.297H172.055V425.621H166.605V397.184H172.055V408.844H180.102V397.184H185.531V425.621ZM204.77 419.684H196.234L194.555 425.621H188.773L198.09 397.184H203.07L212.211 425.621H206.43L204.77 419.684ZM197.582 415.016H203.48L200.57 404.547L197.582 415.016ZM233.559 425.621H228.09L220.18 407.281V425.621H214.652V397.184H220.18L228.031 415.445L228.051 397.184H233.559V425.621ZM258.383 422.301C258.031 422.73 257.549 423.167 256.938 423.609C256.326 424.052 255.603 424.449 254.77 424.801C253.923 425.165 252.979 425.458 251.938 425.68C250.896 425.901 249.776 426.012 248.578 426.012C247.536 426.012 246.553 425.888 245.629 425.641C244.717 425.406 243.878 425.061 243.109 424.605C242.354 424.137 241.664 423.564 241.039 422.887C240.427 422.21 239.906 421.435 239.477 420.562C238.982 419.599 238.604 418.512 238.344 417.301C238.096 416.09 237.973 414.775 237.973 413.355V409.488C237.973 408.134 238.096 406.878 238.344 405.719C238.591 404.547 238.943 403.486 239.398 402.535C239.828 401.689 240.323 400.927 240.883 400.25C241.456 399.573 242.081 398.987 242.758 398.492C243.552 397.932 244.418 397.509 245.355 397.223C246.293 396.936 247.283 396.793 248.324 396.793C249.926 396.793 251.319 396.995 252.504 397.398C253.702 397.802 254.711 398.381 255.531 399.137C256.352 399.905 256.99 400.836 257.445 401.93C257.914 403.023 258.22 404.254 258.363 405.621H253.012C252.921 404.931 252.777 404.319 252.582 403.785C252.4 403.251 252.146 402.802 251.82 402.437C251.456 402.034 250.993 401.734 250.434 401.539C249.887 401.331 249.229 401.227 248.461 401.227C248.044 401.227 247.641 401.292 247.25 401.422C246.859 401.552 246.495 401.741 246.156 401.988C245.714 402.327 245.31 402.769 244.945 403.316C244.594 403.863 244.301 404.508 244.066 405.25C243.884 405.823 243.741 406.461 243.637 407.164C243.546 407.867 243.5 408.629 243.5 409.449V413.355C243.5 414.384 243.565 415.322 243.695 416.168C243.839 417.014 244.034 417.763 244.281 418.414C244.438 418.792 244.613 419.143 244.809 419.469C245.017 419.781 245.245 420.061 245.492 420.309C245.909 420.725 246.391 421.044 246.938 421.266C247.497 421.474 248.129 421.585 248.832 421.598C249.262 421.598 249.685 421.565 250.102 421.5C250.518 421.435 250.909 421.344 251.273 421.227C251.638 421.109 251.957 420.979 252.23 420.836C252.517 420.68 252.732 420.517 252.875 420.348L252.895 415.191H248.188V411.09H258.363L258.383 422.301ZM268.715 421.187H282.816V425.621H262.035V422.262L275.824 401.656H262.074V397.184H282.465L282.484 400.445L268.715 421.187ZM305.648 425.621H300.219V413.297H292.172V425.621H286.723V397.184H292.172V408.844H300.219V397.184H305.648V425.621ZM330.746 413.492C330.746 414.716 330.635 415.881 330.414 416.988C330.193 418.082 329.874 419.098 329.457 420.035C329.014 420.973 328.467 421.832 327.816 422.613C327.165 423.394 326.423 424.046 325.59 424.566C324.835 425.022 324.001 425.374 323.09 425.621C322.191 425.881 321.221 426.012 320.18 426.012C319.073 426.012 318.051 425.868 317.113 425.582C316.176 425.296 315.323 424.892 314.555 424.371C313.799 423.824 313.122 423.167 312.523 422.398C311.924 421.617 311.423 420.738 311.02 419.762C310.655 418.863 310.375 417.887 310.18 416.832C309.997 415.777 309.906 414.664 309.906 413.492V409.352C309.906 408.102 310.01 406.917 310.219 405.797C310.44 404.677 310.759 403.642 311.176 402.691C311.579 401.793 312.068 400.979 312.641 400.25C313.227 399.521 313.897 398.896 314.652 398.375C315.395 397.867 316.228 397.477 317.152 397.203C318.077 396.93 319.079 396.793 320.16 396.793C321.254 396.793 322.276 396.936 323.227 397.223C324.19 397.496 325.056 397.893 325.824 398.414C326.592 398.909 327.263 399.508 327.836 400.211C328.422 400.914 328.923 401.689 329.34 402.535C329.796 403.499 330.141 404.553 330.375 405.699C330.622 406.845 330.746 408.062 330.746 409.352V413.492ZM325.18 409.312C325.18 408.583 325.141 407.893 325.062 407.242C324.997 406.578 324.887 405.966 324.73 405.406C324.535 404.703 324.275 404.078 323.949 403.531C323.624 402.971 323.24 402.516 322.797 402.164C322.445 401.904 322.048 401.702 321.605 401.559C321.176 401.415 320.694 401.344 320.16 401.344C319.652 401.344 319.19 401.409 318.773 401.539C318.37 401.669 318.005 401.858 317.68 402.105C317.237 402.47 316.859 402.926 316.547 403.473C316.247 404.019 316.013 404.657 315.844 405.387C315.714 405.947 315.616 406.559 315.551 407.223C315.499 407.887 315.473 408.583 315.473 409.312V413.492C315.473 414.182 315.499 414.846 315.551 415.484C315.603 416.122 315.694 416.715 315.824 417.262C315.967 417.952 316.176 418.583 316.449 419.156C316.736 419.716 317.068 420.172 317.445 420.523C317.797 420.836 318.194 421.077 318.637 421.246C319.092 421.415 319.607 421.5 320.18 421.5C320.727 421.5 321.228 421.422 321.684 421.266C322.139 421.109 322.543 420.881 322.895 420.582C323.337 420.217 323.708 419.762 324.008 419.215C324.32 418.655 324.568 418.023 324.75 417.32C324.893 416.773 324.997 416.174 325.062 415.523C325.141 414.872 325.18 414.195 325.18 413.492V409.312ZM353.871 397.184L353.891 416.031C353.891 417.62 353.669 419.032 353.227 420.269C352.797 421.506 352.172 422.548 351.352 423.394C350.518 424.254 349.503 424.905 348.305 425.348C347.12 425.79 345.766 426.012 344.242 426.012C342.81 426.012 341.514 425.79 340.355 425.348C339.21 424.905 338.227 424.26 337.406 423.414C336.586 422.568 335.948 421.526 335.492 420.289C335.049 419.039 334.828 417.62 334.828 416.031L334.848 397.184H340.336L340.355 416.031C340.368 416.982 340.46 417.815 340.629 418.531C340.811 419.247 341.078 419.84 341.43 420.309C341.755 420.738 342.152 421.064 342.621 421.285C343.09 421.493 343.63 421.598 344.242 421.598C344.906 421.598 345.492 421.487 346 421.266C346.521 421.031 346.951 420.686 347.289 420.23C347.654 419.762 347.927 419.176 348.109 418.473C348.292 417.769 348.389 416.956 348.402 416.031L348.422 397.184H353.871Z" fill="#161616"/>
<path d="M288.362 450.787L267.707 466.171C264.433 468.61 259.115 468.61 255.841 466.171L235.186 450.787L288.362 450.787Z" fill="#2CB4E2"/>
<rect x="1533" y="429" width="181" height="83.2421" rx="12" fill="#2CB4E2"/>
<path d="M1580.77 479.199C1580.77 478.691 1580.67 478.216 1580.49 477.773C1580.32 477.331 1580.03 476.914 1579.61 476.523C1579.18 476.146 1578.62 475.801 1577.93 475.488C1577.26 475.163 1576.41 474.863 1575.39 474.59C1573.82 474.16 1572.43 473.639 1571.23 473.027C1570.05 472.415 1569.08 471.745 1568.32 471.016C1567.57 470.286 1567 469.479 1566.61 468.594C1566.23 467.708 1566.04 466.745 1566.04 465.703C1566.04 464.505 1566.29 463.418 1566.8 462.441C1567.31 461.465 1568.01 460.631 1568.91 459.941C1569.81 459.251 1570.87 458.724 1572.09 458.359C1573.32 457.982 1574.65 457.793 1576.08 457.793C1577.56 457.793 1578.92 458.008 1580.14 458.437C1581.38 458.867 1582.44 459.466 1583.32 460.234C1584.21 461.016 1584.9 461.94 1585.39 463.008C1585.89 464.075 1586.14 465.247 1586.14 466.523H1580.79C1580.76 465.885 1580.64 465.299 1580.43 464.766C1580.24 464.232 1579.95 463.769 1579.55 463.379C1579.15 463.001 1578.65 462.708 1578.05 462.5C1577.46 462.279 1576.77 462.168 1575.98 462.168C1575.25 462.168 1574.6 462.259 1574.03 462.441C1573.47 462.611 1572.99 462.852 1572.6 463.164C1572.21 463.49 1571.91 463.874 1571.7 464.316C1571.51 464.746 1571.41 465.215 1571.41 465.723C1571.41 466.256 1571.54 466.738 1571.8 467.168C1572.07 467.598 1572.46 467.982 1572.97 468.32C1573.48 468.672 1574.09 468.991 1574.81 469.277C1575.54 469.564 1576.36 469.831 1577.27 470.078C1578.25 470.352 1579.18 470.684 1580.06 471.074C1580.95 471.465 1581.76 471.914 1582.5 472.422C1583.62 473.255 1584.52 474.225 1585.18 475.332C1585.84 476.439 1586.18 477.715 1586.18 479.16C1586.18 480.41 1585.92 481.523 1585.41 482.5C1584.92 483.463 1584.23 484.277 1583.34 484.941C1582.46 485.618 1581.4 486.133 1580.18 486.484C1578.96 486.823 1577.62 486.992 1576.18 486.992C1574.76 486.992 1573.35 486.784 1571.96 486.367C1570.58 485.937 1569.37 485.312 1568.34 484.492C1567.37 483.685 1566.59 482.734 1566.02 481.641C1565.46 480.547 1565.18 479.264 1565.18 477.793H1570.57C1570.6 478.652 1570.75 479.388 1571.02 480C1571.29 480.612 1571.68 481.113 1572.17 481.504C1572.65 481.894 1573.23 482.181 1573.91 482.363C1574.6 482.546 1575.36 482.637 1576.18 482.637C1576.9 482.637 1577.55 482.552 1578.11 482.383C1578.68 482.213 1579.16 481.979 1579.55 481.68C1579.95 481.38 1580.24 481.022 1580.45 480.605C1580.66 480.176 1580.77 479.707 1580.77 479.199ZM1607.52 474.16H1595.84V482.187H1609.5V486.621H1590.34V458.184H1609.44V462.656H1595.84V469.824H1607.52V474.16ZM1633.89 474.492C1633.89 475.716 1633.78 476.881 1633.56 477.988C1633.34 479.082 1633.02 480.098 1632.6 481.035C1632.16 481.973 1631.61 482.832 1630.96 483.613C1630.31 484.394 1629.57 485.046 1628.73 485.566C1627.98 486.022 1627.15 486.374 1626.23 486.621C1625.34 486.881 1624.37 487.012 1623.32 487.012C1622.22 487.012 1621.2 486.868 1620.26 486.582C1619.32 486.296 1618.47 485.892 1617.7 485.371C1616.94 484.824 1616.27 484.167 1615.67 483.398C1615.07 482.617 1614.57 481.738 1614.16 480.762C1613.8 479.863 1613.52 478.887 1613.32 477.832C1613.14 476.777 1613.05 475.664 1613.05 474.492V470.352C1613.05 469.102 1613.15 467.917 1613.36 466.797C1613.58 465.677 1613.9 464.642 1614.32 463.691C1614.72 462.793 1615.21 461.979 1615.79 461.25C1616.37 460.521 1617.04 459.896 1617.8 459.375C1618.54 458.867 1619.37 458.477 1620.3 458.203C1621.22 457.93 1622.22 457.793 1623.3 457.793C1624.4 457.793 1625.42 457.936 1626.37 458.223C1627.33 458.496 1628.2 458.893 1628.97 459.414C1629.74 459.909 1630.41 460.508 1630.98 461.211C1631.57 461.914 1632.07 462.689 1632.48 463.535C1632.94 464.499 1633.29 465.553 1633.52 466.699C1633.77 467.845 1633.89 469.062 1633.89 470.352V474.492ZM1628.32 470.312C1628.32 469.583 1628.29 468.893 1628.21 468.242C1628.14 467.578 1628.03 466.966 1627.88 466.406C1627.68 465.703 1627.42 465.078 1627.09 464.531C1626.77 463.971 1626.38 463.516 1625.94 463.164C1625.59 462.904 1625.19 462.702 1624.75 462.559C1624.32 462.415 1623.84 462.344 1623.3 462.344C1622.8 462.344 1622.33 462.409 1621.92 462.539C1621.51 462.669 1621.15 462.858 1620.82 463.105C1620.38 463.47 1620 463.926 1619.69 464.473C1619.39 465.019 1619.16 465.657 1618.99 466.387C1618.86 466.947 1618.76 467.559 1618.7 468.223C1618.64 468.887 1618.62 469.583 1618.62 470.312V474.492C1618.62 475.182 1618.64 475.846 1618.7 476.484C1618.75 477.122 1618.84 477.715 1618.97 478.262C1619.11 478.952 1619.32 479.583 1619.59 480.156C1619.88 480.716 1620.21 481.172 1620.59 481.523C1620.94 481.836 1621.34 482.077 1621.78 482.246C1622.24 482.415 1622.75 482.5 1623.32 482.5C1623.87 482.5 1624.37 482.422 1624.83 482.266C1625.28 482.109 1625.69 481.881 1626.04 481.582C1626.48 481.217 1626.85 480.762 1627.15 480.215C1627.46 479.655 1627.71 479.023 1627.89 478.32C1628.04 477.773 1628.14 477.174 1628.21 476.523C1628.29 475.872 1628.32 475.195 1628.32 474.492V470.312ZM1657.02 458.184L1657.04 477.031C1657.04 478.62 1656.81 480.032 1656.37 481.269C1655.94 482.506 1655.32 483.548 1654.5 484.394C1653.66 485.254 1652.65 485.905 1651.45 486.348C1650.26 486.79 1648.91 487.012 1647.39 487.012C1645.95 487.012 1644.66 486.79 1643.5 486.348C1642.35 485.905 1641.37 485.26 1640.55 484.414C1639.73 483.568 1639.09 482.526 1638.64 481.289C1638.19 480.039 1637.97 478.62 1637.97 477.031L1637.99 458.184H1643.48L1643.5 477.031C1643.51 477.982 1643.6 478.815 1643.77 479.531C1643.96 480.247 1644.22 480.84 1644.57 481.309C1644.9 481.738 1645.3 482.064 1645.77 482.285C1646.23 482.493 1646.77 482.598 1647.39 482.598C1648.05 482.598 1648.64 482.487 1649.14 482.266C1649.67 482.031 1650.1 481.686 1650.43 481.23C1650.8 480.762 1651.07 480.176 1651.25 479.473C1651.44 478.769 1651.53 477.956 1651.55 477.031L1651.57 458.184H1657.02ZM1667.97 482.187H1681.29V486.621H1662.46V458.184H1667.97V482.187Z" fill="#161616"/>
<path d="M1641.22 511.787L1628.18 527.171C1626.11 529.61 1622.75 529.61 1620.69 527.171L1607.64 511.787L1641.22 511.787Z" fill="#2CB4E2"/>
<rect x="1443" y="161" width="362.285" height="83.2421" rx="12" fill="#F7B749"/>
<path d="M1516.29 203.289L1521.9 190.184H1527.93L1518.99 208.777L1518.97 218.621H1513.5L1513.48 208.543L1504.67 190.184H1510.69L1516.29 203.289ZM1550.45 206.492C1550.45 207.716 1550.34 208.881 1550.12 209.988C1549.9 211.082 1549.58 212.098 1549.16 213.035C1548.72 213.973 1548.17 214.832 1547.52 215.613C1546.87 216.394 1546.13 217.046 1545.29 217.566C1544.54 218.022 1543.71 218.374 1542.79 218.621C1541.9 218.881 1540.93 219.012 1539.88 219.012C1538.78 219.012 1537.76 218.868 1536.82 218.582C1535.88 218.296 1535.03 217.892 1534.26 217.371C1533.5 216.824 1532.83 216.167 1532.23 215.398C1531.63 214.617 1531.13 213.738 1530.72 212.762C1530.36 211.863 1530.08 210.887 1529.88 209.832C1529.7 208.777 1529.61 207.664 1529.61 206.492V202.352C1529.61 201.102 1529.72 199.917 1529.92 198.797C1530.15 197.677 1530.46 196.642 1530.88 195.691C1531.28 194.793 1531.77 193.979 1532.35 193.25C1532.93 192.521 1533.6 191.896 1534.36 191.375C1535.1 190.867 1535.93 190.477 1536.86 190.203C1537.78 189.93 1538.78 189.793 1539.87 189.793C1540.96 189.793 1541.98 189.936 1542.93 190.223C1543.9 190.496 1544.76 190.893 1545.53 191.414C1546.3 191.909 1546.97 192.508 1547.54 193.211C1548.13 193.914 1548.63 194.689 1549.04 195.535C1549.5 196.499 1549.85 197.553 1550.08 198.699C1550.33 199.845 1550.45 201.062 1550.45 202.352V206.492ZM1544.88 202.312C1544.88 201.583 1544.85 200.893 1544.77 200.242C1544.7 199.578 1544.59 198.966 1544.44 198.406C1544.24 197.703 1543.98 197.078 1543.65 196.531C1543.33 195.971 1542.94 195.516 1542.5 195.164C1542.15 194.904 1541.75 194.702 1541.31 194.559C1540.88 194.415 1540.4 194.344 1539.87 194.344C1539.36 194.344 1538.9 194.409 1538.48 194.539C1538.07 194.669 1537.71 194.858 1537.38 195.105C1536.94 195.47 1536.56 195.926 1536.25 196.473C1535.95 197.019 1535.72 197.657 1535.55 198.387C1535.42 198.947 1535.32 199.559 1535.26 200.223C1535.2 200.887 1535.18 201.583 1535.18 202.312V206.492C1535.18 207.182 1535.2 207.846 1535.26 208.484C1535.31 209.122 1535.4 209.715 1535.53 210.262C1535.67 210.952 1535.88 211.583 1536.15 212.156C1536.44 212.716 1536.77 213.172 1537.15 213.523C1537.5 213.836 1537.9 214.077 1538.34 214.246C1538.8 214.415 1539.31 214.5 1539.88 214.5C1540.43 214.5 1540.93 214.422 1541.39 214.266C1541.84 214.109 1542.25 213.881 1542.6 213.582C1543.04 213.217 1543.41 212.762 1543.71 212.215C1544.03 211.655 1544.27 211.023 1544.46 210.32C1544.6 209.773 1544.7 209.174 1544.77 208.523C1544.85 207.872 1544.88 207.195 1544.88 206.492V202.312ZM1574.18 215.301C1573.83 215.73 1573.35 216.167 1572.74 216.609C1572.12 217.052 1571.4 217.449 1570.57 217.801C1569.72 218.165 1568.78 218.458 1567.74 218.68C1566.69 218.901 1565.57 219.012 1564.38 219.012C1563.34 219.012 1562.35 218.888 1561.43 218.641C1560.52 218.406 1559.68 218.061 1558.91 217.605C1558.15 217.137 1557.46 216.564 1556.84 215.887C1556.23 215.21 1555.71 214.435 1555.28 213.562C1554.78 212.599 1554.4 211.512 1554.14 210.301C1553.9 209.09 1553.77 207.775 1553.77 206.355V202.488C1553.77 201.134 1553.9 199.878 1554.14 198.719C1554.39 197.547 1554.74 196.486 1555.2 195.535C1555.63 194.689 1556.12 193.927 1556.68 193.25C1557.25 192.573 1557.88 191.987 1558.56 191.492C1559.35 190.932 1560.22 190.509 1561.15 190.223C1562.09 189.936 1563.08 189.793 1564.12 189.793C1565.72 189.793 1567.12 189.995 1568.3 190.398C1569.5 190.802 1570.51 191.381 1571.33 192.137C1572.15 192.905 1572.79 193.836 1573.24 194.93C1573.71 196.023 1574.02 197.254 1574.16 198.621H1568.81C1568.72 197.931 1568.58 197.319 1568.38 196.785C1568.2 196.251 1567.94 195.802 1567.62 195.437C1567.25 195.034 1566.79 194.734 1566.23 194.539C1565.69 194.331 1565.03 194.227 1564.26 194.227C1563.84 194.227 1563.44 194.292 1563.05 194.422C1562.66 194.552 1562.29 194.741 1561.96 194.988C1561.51 195.327 1561.11 195.769 1560.74 196.316C1560.39 196.863 1560.1 197.508 1559.87 198.25C1559.68 198.823 1559.54 199.461 1559.44 200.164C1559.34 200.867 1559.3 201.629 1559.3 202.449V206.355C1559.3 207.384 1559.36 208.322 1559.49 209.168C1559.64 210.014 1559.83 210.763 1560.08 211.414C1560.24 211.792 1560.41 212.143 1560.61 212.469C1560.82 212.781 1561.04 213.061 1561.29 213.309C1561.71 213.725 1562.19 214.044 1562.74 214.266C1563.3 214.474 1563.93 214.585 1564.63 214.598C1565.06 214.598 1565.48 214.565 1565.9 214.5C1566.32 214.435 1566.71 214.344 1567.07 214.227C1567.44 214.109 1567.76 213.979 1568.03 213.836C1568.32 213.68 1568.53 213.517 1568.67 213.348L1568.69 208.191H1563.99V204.09H1574.16L1574.18 215.301ZM1588.36 203.289L1593.97 190.184H1600L1591.06 208.777L1591.04 218.621H1585.57L1585.55 208.543L1576.74 190.184H1582.76L1588.36 203.289ZM1616.66 212.684H1608.13L1606.45 218.621H1600.67L1609.98 190.184H1614.96L1624.1 218.621H1618.32L1616.66 212.684ZM1609.47 208.016H1615.37L1612.46 197.547L1609.47 208.016ZM1635.18 206.941L1632.17 210.242V218.621H1626.66V190.184H1632.17V203.211L1634.75 199.734L1641.66 190.184H1648.38L1638.81 202.762L1648.73 218.621H1642.21L1635.18 206.941ZM1664.71 212.684H1656.17L1654.49 218.621H1648.71L1658.03 190.184H1663.01L1672.15 218.621H1666.37L1664.71 212.684ZM1657.52 208.016H1663.42L1660.51 197.547L1657.52 208.016ZM1684.4 207.996H1680.24V218.621H1674.75V190.184H1684.28C1685.85 190.184 1687.28 190.372 1688.56 190.75C1689.83 191.115 1690.93 191.655 1691.84 192.371C1692.74 193.087 1693.43 193.979 1693.91 195.047C1694.4 196.115 1694.65 197.352 1694.65 198.758C1694.65 199.773 1694.53 200.691 1694.28 201.512C1694.04 202.319 1693.71 203.042 1693.26 203.68C1692.81 204.331 1692.26 204.897 1691.62 205.379C1691 205.861 1690.29 206.277 1689.51 206.629L1695.63 218.367V218.621H1689.75L1684.4 207.996ZM1680.24 203.543H1684.3C1685.15 203.543 1685.89 203.426 1686.53 203.191C1687.18 202.944 1687.7 202.592 1688.11 202.137C1688.45 201.772 1688.7 201.336 1688.87 200.828C1689.05 200.32 1689.14 199.754 1689.14 199.129C1689.14 198.374 1689.03 197.71 1688.79 197.137C1688.57 196.551 1688.23 196.069 1687.78 195.691C1687.37 195.353 1686.88 195.092 1686.29 194.91C1685.71 194.728 1685.03 194.637 1684.28 194.637H1680.24V203.543ZM1719.67 194.656H1710.9V218.621H1705.39V194.656H1696.74V190.184H1719.67V194.656ZM1736.78 212.684H1728.24L1726.56 218.621H1720.78L1730.1 190.184H1735.08L1744.22 218.621H1738.44L1736.78 212.684ZM1729.59 208.016H1735.49L1732.58 197.547L1729.59 208.016Z" fill="#161616"/>
<path d="M1656.8 243.787L1632.77 259.171C1628.96 261.61 1622.77 261.61 1618.96 259.171L1594.92 243.787L1656.8 243.787Z" fill="#F7B749"/>
<rect x="1253" y="310" width="279.539" height="83.242" rx="12" fill="#43B85C"/>
<path d="M1356.17 343.656H1347.4V367.621H1341.89V343.656H1333.24V339.184H1356.17V343.656ZM1379.14 355.492C1379.14 356.716 1379.03 357.881 1378.8 358.988C1378.58 360.082 1378.26 361.098 1377.85 362.035C1377.4 362.973 1376.86 363.832 1376.21 364.613C1375.56 365.394 1374.81 366.045 1373.98 366.566C1373.23 367.022 1372.39 367.374 1371.48 367.621C1370.58 367.881 1369.61 368.012 1368.57 368.012C1367.46 368.012 1366.44 367.868 1365.5 367.582C1364.57 367.295 1363.71 366.892 1362.95 366.371C1362.19 365.824 1361.51 365.167 1360.91 364.398C1360.32 363.617 1359.81 362.738 1359.41 361.762C1359.05 360.863 1358.77 359.887 1358.57 358.832C1358.39 357.777 1358.3 356.664 1358.3 355.492V351.351C1358.3 350.101 1358.4 348.917 1358.61 347.797C1358.83 346.677 1359.15 345.642 1359.57 344.691C1359.97 343.793 1360.46 342.979 1361.03 342.25C1361.62 341.521 1362.29 340.896 1363.04 340.375C1363.79 339.867 1364.62 339.476 1365.54 339.203C1366.47 338.93 1367.47 338.793 1368.55 338.793C1369.64 338.793 1370.67 338.936 1371.62 339.223C1372.58 339.496 1373.45 339.893 1374.21 340.414C1374.98 340.909 1375.65 341.508 1376.23 342.211C1376.81 342.914 1377.31 343.689 1377.73 344.535C1378.19 345.499 1378.53 346.553 1378.77 347.699C1379.01 348.845 1379.14 350.062 1379.14 351.351V355.492ZM1373.57 351.312C1373.57 350.583 1373.53 349.893 1373.45 349.242C1373.39 348.578 1373.28 347.966 1373.12 347.406C1372.93 346.703 1372.67 346.078 1372.34 345.531C1372.01 344.971 1371.63 344.516 1371.19 344.164C1370.84 343.904 1370.44 343.702 1370 343.559C1369.57 343.415 1369.08 343.344 1368.55 343.344C1368.04 343.344 1367.58 343.409 1367.16 343.539C1366.76 343.669 1366.4 343.858 1366.07 344.105C1365.63 344.47 1365.25 344.926 1364.94 345.473C1364.64 346.019 1364.4 346.657 1364.23 347.387C1364.1 347.947 1364.01 348.559 1363.94 349.223C1363.89 349.887 1363.86 350.583 1363.86 351.312V355.492C1363.86 356.182 1363.89 356.846 1363.94 357.484C1363.99 358.122 1364.08 358.715 1364.21 359.262C1364.36 359.952 1364.57 360.583 1364.84 361.156C1365.13 361.716 1365.46 362.172 1365.84 362.523C1366.19 362.836 1366.58 363.077 1367.03 363.246C1367.48 363.415 1368 363.5 1368.57 363.5C1369.12 363.5 1369.62 363.422 1370.07 363.266C1370.53 363.109 1370.93 362.881 1371.29 362.582C1371.73 362.217 1372.1 361.762 1372.4 361.215C1372.71 360.655 1372.96 360.023 1373.14 359.32C1373.28 358.773 1373.39 358.174 1373.45 357.523C1373.53 356.872 1373.57 356.195 1373.57 355.492V351.312ZM1391.79 355.941L1388.79 359.242V367.621H1383.28V339.184H1388.79V352.211L1391.36 348.734L1398.28 339.184H1405L1395.43 351.762L1405.35 367.621H1398.82L1391.79 355.941ZM1417.05 352.289L1422.65 339.184H1428.69L1419.74 357.777L1419.72 367.621H1414.25L1414.23 357.543L1405.43 339.184H1411.44L1417.05 352.289ZM1451.21 355.492C1451.21 356.716 1451.1 357.881 1450.88 358.988C1450.65 360.082 1450.33 361.098 1449.92 362.035C1449.48 362.973 1448.93 363.832 1448.28 364.613C1447.63 365.394 1446.88 366.045 1446.05 366.566C1445.3 367.022 1444.46 367.374 1443.55 367.621C1442.65 367.881 1441.68 368.012 1440.64 368.012C1439.53 368.012 1438.51 367.868 1437.57 367.582C1436.64 367.295 1435.78 366.892 1435.02 366.371C1434.26 365.824 1433.58 365.167 1432.98 364.398C1432.39 363.617 1431.88 362.738 1431.48 361.762C1431.12 360.863 1430.84 359.887 1430.64 358.832C1430.46 357.777 1430.37 356.664 1430.37 355.492V351.351C1430.37 350.101 1430.47 348.917 1430.68 347.797C1430.9 346.677 1431.22 345.642 1431.64 344.691C1432.04 343.793 1432.53 342.979 1433.1 342.25C1433.69 341.521 1434.36 340.896 1435.11 340.375C1435.86 339.867 1436.69 339.476 1437.61 339.203C1438.54 338.93 1439.54 338.793 1440.62 338.793C1441.71 338.793 1442.74 338.936 1443.69 339.223C1444.65 339.496 1445.52 339.893 1446.29 340.414C1447.05 340.909 1447.72 341.508 1448.3 342.211C1448.88 342.914 1449.38 343.689 1449.8 344.535C1450.26 345.499 1450.6 346.553 1450.84 347.699C1451.08 348.845 1451.21 350.062 1451.21 351.351V355.492ZM1445.64 351.312C1445.64 350.583 1445.6 349.893 1445.52 349.242C1445.46 348.578 1445.35 347.966 1445.19 347.406C1445 346.703 1444.74 346.078 1444.41 345.531C1444.08 344.971 1443.7 344.516 1443.26 344.164C1442.91 343.904 1442.51 343.702 1442.07 343.559C1441.64 343.415 1441.15 343.344 1440.62 343.344C1440.11 343.344 1439.65 343.409 1439.23 343.539C1438.83 343.669 1438.47 343.858 1438.14 344.105C1437.7 344.47 1437.32 344.926 1437.01 345.473C1436.71 346.019 1436.47 346.657 1436.3 347.387C1436.17 347.947 1436.08 348.559 1436.01 349.223C1435.96 349.887 1435.93 350.583 1435.93 351.312V355.492C1435.93 356.182 1435.96 356.846 1436.01 357.484C1436.06 358.122 1436.15 358.715 1436.29 359.262C1436.43 359.952 1436.64 360.583 1436.91 361.156C1437.2 361.716 1437.53 362.172 1437.91 362.523C1438.26 362.836 1438.65 363.077 1439.1 363.246C1439.55 363.415 1440.07 363.5 1440.64 363.5C1441.19 363.5 1441.69 363.422 1442.14 363.266C1442.6 363.109 1443 362.881 1443.36 362.582C1443.8 362.217 1444.17 361.762 1444.47 361.215C1444.78 360.655 1445.03 360.023 1445.21 359.32C1445.35 358.773 1445.46 358.174 1445.52 357.523C1445.6 356.872 1445.64 356.195 1445.64 355.492V351.312Z" fill="white"/>
<path d="M1420.83 392.787L1400.18 408.171C1396.91 410.61 1391.59 410.61 1388.31 408.171L1367.66 392.787L1420.83 392.787Z" fill="#43B85C"/>
</g>
<defs>
<filter id="filter0_d_242_2" x="730" y="112" width="461" height="360.503" filterUnits="userSpaceOnUse" color-interpolation-filters="sRGB">
<feFlood flood-opacity="0" result="BackgroundImageFix"/>
<feColorMatrix in="SourceAlpha" type="matrix" values="0 0 0 0 0 0 0 0 0 0 0 0 0 0 0 0 0 0 127 0" result="hardAlpha"/>
<feOffset dy="1"/>
<feGaussianBlur stdDeviation="1"/>
<feComposite in2="hardAlpha" operator="out"/>
<feColorMatrix type="matrix" values="0 0 0 0 0 0 0 0 0 0 0 0 0 0 0 0 0 0 0.25 0"/>
<feBlend mode="normal" in2="BackgroundImageFix" result="effect1_dropShadow_242_2"/>
<feBlend mode="normal" in="SourceGraphic" in2="effect1_dropShadow_242_2" result="shape"/>
</filter>
<clipPath id="clip0_242_2">
<rect width="1920" height="582" fill="white"/>
</clipPath>
</defs>
</svg>
