<svg width="24" height="24" viewBox="0 0 24 24" fill="none" xmlns="http://www.w3.org/2000/svg">
    <path d="M3 7.63333C4.62 4.3 8.04 2 12 2C17.52 2 22 6.47333 22 12C22 17.5267 17.52 22 12 22C6.48 22 2 17.52 2 12M12 6V12.6667L16 12.6667M2.66667 3.33333V8H6.66667M12.6667 12.6667C12.6667 13.0349 12.3682 13.3333 12 13.3333C11.6318 13.3333 11.3333 13.0349 11.3333 12.6667C11.3333 12.2985 11.6318 12 12 12C12.3682 12 12.6667 12.2985 12.6667 12.6667Z" stroke="#ED362F" stroke-width="2" stroke-linecap="round" stroke-linejoin="round"/>
</svg>
