<?xml version="1.0" encoding="UTF-8"?><svg id="Layer_2" xmlns="http://www.w3.org/2000/svg" width="170.85" height="170.87" viewBox="0 0 170.85 170.87"><g id="Layer_1-2"><path d="M85.45,170.87c-21.85,0-43.66-8.31-60.33-24.88-33.4-33.24-33.5-87.52-.26-120.87,33.24-33.4,87.52-33.5,120.87-.26,33.4,33.24,33.5,87.52.26,120.87-16.67,16.72-38.63,25.14-60.59,25.14h.05ZM85.45,6.55c-20.26,0-40.53,7.75-55.92,23.19-30.73,30.83-30.63,80.9.21,111.58,30.83,30.73,80.9,30.63,111.58-.21,30.73-30.83,30.63-80.9-.21-111.58-15.39-15.34-35.55-22.98-55.66-22.98Z" fill="#f7b749" stroke-width="0"/><path d="M51.85,155.32c-19.9,0-36.12-16.16-36.17-36.12,0-19.96,16.16-36.22,36.12-36.22h.05c19.9,0,36.12,16.16,36.17,36.12,0,9.64-3.75,18.72-10.57,25.6-6.82,6.82-15.9,10.62-25.55,10.62h-.05ZM51.8,89.55c-16.31,0-29.55,13.34-29.55,29.65s13.29,29.55,29.6,29.55h.05c7.9,0,15.34-3.13,20.93-8.72,5.59-5.59,8.62-13.03,8.62-20.93,0-16.31-13.29-29.55-29.6-29.55h-.05Z" fill="#f7b749" stroke-width="0"/><path d="M68.62,162.25c-33.04,0-59.92-26.83-59.97-59.87,0-16.01,6.16-31.09,17.49-42.43,11.29-11.34,26.37-17.6,42.37-17.65h.1c33.04,0,59.92,26.83,59.97,59.87.05,33.09-26.78,60.02-59.87,60.07h-.1ZM68.62,48.87h-.1c-14.26,0-27.65,5.59-37.71,15.7-10.06,10.11-15.6,23.55-15.54,37.81.05,29.39,24.01,53.3,53.4,53.3h.1c29.45-.05,53.35-24.06,53.3-53.51-.05-29.4-24.01-53.3-53.4-53.3h-.05Z" fill="#f7b749" stroke-width="0"/></g></svg>