<?xml version="1.0" encoding="UTF-8"?><svg id="Layer_2" xmlns="http://www.w3.org/2000/svg" width="171" height="171" viewBox="0 0 171 171"><g id="Layer_1-2"><path d="M167.72,171c-43.3,0-83.99-16.83-114.51-47.41l-5.75-5.75C16.88,87.27.05,46.64.05,3.39.05,1.59,1.54,0,3.34,0c43.2,0,83.83,16.83,114.36,47.3l5.8,5.8c30.63,30.58,47.51,71.26,47.51,114.56,0,1.8-1.49,3.28-3.28,3.28v.05ZM6.62,6.62c.82,40.27,16.88,77.98,45.46,106.56l5.75,5.75c28.58,28.58,66.29,44.64,106.56,45.46-.82-40.28-16.93-78.04-45.51-106.56l-5.8-5.8C84.55,23.55,46.84,7.49,6.67,6.67l-.05-.05Z" fill="#43b85c" stroke-width="0"/><path d="M3.39,171c-1.8,0-3.39-1.49-3.39-3.28,0-43.3,16.88-83.99,47.51-114.56l5.8-5.8C83.88,16.83,124.47.05,167.67.05c1.8,0,3.28,1.49,3.28,3.28,0,43.3-16.83,83.99-47.41,114.51l-5.75,5.75c-30.58,30.58-71.21,47.4-114.46,47.4h.05ZM164.38,6.62c-40.17.82-77.88,16.88-106.41,45.35l-5.8,5.8C23.6,86.35,7.49,124.06,6.67,164.33c40.32-.82,78.03-16.88,106.56-45.46l5.75-5.75c28.58-28.58,44.64-66.29,45.46-106.56l-.05.05Z" fill="#43b85c" stroke-width="0"/></g></svg>