<?xml version="1.0" encoding="UTF-8"?><svg id="Layer_2" xmlns="http://www.w3.org/2000/svg" width="170.85" height="171.05" viewBox="0 0 170.85 171.05"><g id="Layer_1-2"><path d="M101.89,171.05c-.87,0-1.68-.36-2.35-.97l-11.64-11.64c-2.5-2.5-5.77-3.83-9.29-3.83h-26.03c-10.87,0-19.7-8.83-19.7-19.7v-65.75c0-10.87,8.83-19.7,19.7-19.7h98.57c10.87,0,19.7,8.83,19.7,19.7v65.75c0,10.87-8.83,19.7-19.7,19.7h-26.03c-3.52,0-6.79,1.38-9.29,3.83l-11.64,11.64c-.61.61-1.43.97-2.35.97h.05ZM52.58,56.05c-7.25,0-13.17,5.92-13.17,13.17v65.75c0,7.25,5.92,13.17,13.17,13.17h26.03c5.26,0,10.21,2.04,13.93,5.77l9.29,9.29,9.29-9.29c3.73-3.73,8.68-5.77,13.93-5.77h26.03c7.25,0,13.17-5.92,13.17-13.17v-65.75c0-7.25-5.92-13.17-13.17-13.17H52.52h.05Z" fill="#ed362f" stroke-width="0"/><path d="M36.14,105.36h-16.44c-10.87,0-19.7-8.83-19.7-19.7V19.7C0,8.83,8.83,0,19.7,0h98.57c10.87,0,19.7,8.83,19.7,19.7v33.08c0,1.84-1.48,3.27-3.27,3.27s-3.27-1.48-3.27-3.27V19.7c0-7.25-5.92-13.17-13.17-13.17H19.7c-7.25,0-13.17,5.92-13.17,13.17v65.95c0,7.25,5.92,13.17,13.17,13.17h16.44c1.84,0,3.27,1.48,3.27,3.27s-1.48,3.27-3.27,3.27Z" fill="#ed362f" stroke-width="0"/><path d="M77.23,113.57c-6.33,0-11.49-5.15-11.49-11.49s5.16-11.48,11.49-11.48,11.48,5.16,11.48,11.48-5.15,11.49-11.48,11.49ZM77.23,97.14c-2.71,0-4.95,2.2-4.95,4.95s2.2,4.95,4.95,4.95,4.95-2.2,4.95-4.95-2.2-4.95-4.95-4.95Z" fill="#ed362f" stroke-width="0"/><path d="M126.54,113.57c-6.33,0-11.49-5.15-11.49-11.49s5.16-11.48,11.49-11.48,11.48,5.16,11.48,11.48-5.15,11.49-11.48,11.49ZM126.54,97.14c-2.7,0-4.95,2.2-4.95,4.95s2.19,4.95,4.95,4.95,4.95-2.2,4.95-4.95-2.2-4.95-4.95-4.95Z" fill="#ed362f" stroke-width="0"/></g></svg>