<?xml version="1.0" encoding="UTF-8"?><svg id="Layer_2" xmlns="http://www.w3.org/2000/svg" width="171" height="170.95" viewBox="0 0 171 170.95"><g id="Layer_1-2"><path d="M85.53,105.2c-10.89,0-19.72-8.84-19.72-19.73s8.84-19.73,19.72-19.73,19.72,8.83,19.72,19.73-8.84,19.73-19.72,19.73ZM85.53,72.33c-7.24,0-13.15,5.91-13.15,13.15s5.91,13.15,13.15,13.15,13.15-5.91,13.15-13.15-5.91-13.15-13.15-13.15Z" fill="#43b85c" stroke-width="0"/><path d="M167.66,170.95H3.29c-1.8,0-3.29-1.49-3.29-3.29,0-40.53,28.82-75.77,68.47-83.73,1.8-.36,3.49.77,3.85,2.57.36,1.8-.77,3.49-2.57,3.85-35.55,7.19-61.59,38.01-63.13,74.02h157.65c-1.49-36.01-27.58-66.83-63.13-74.02-1.8-.36-2.93-2.11-2.57-3.85.36-1.8,2.11-2.93,3.85-2.57,39.65,8.01,68.47,43.25,68.47,83.73,0,1.8-1.49,3.29-3.29,3.29h.05Z" fill="#43b85c" stroke-width="0"/><path d="M101.86,87.12c-1.54,0-2.93-1.08-3.24-2.62-.36-1.8.77-3.49,2.57-3.85,35.55-7.19,61.59-38.01,63.13-74.02H6.68c1.49,36.01,27.58,66.83,63.13,74.02,1.8.36,2.93,2.11,2.57,3.85-.36,1.8-2.11,2.93-3.85,2.57C28.87,79.05.05,43.82.05,3.34.05,1.54,1.54.05,3.34.05h164.37c1.8,0,3.29,1.49,3.29,3.29,0,40.53-28.82,75.77-68.47,83.73-.21,0-.46.05-.67.05Z" fill="#43b85c" stroke-width="0"/><path d="M85.53,72.33c-1.8,0-3.29-1.49-3.29-3.29V3.29c0-1.8,1.49-3.29,3.29-3.29s3.29,1.49,3.29,3.29v65.75c0,1.8-1.49,3.29-3.29,3.29Z" fill="#43b85c" stroke-width="0"/><path d="M85.53,170.95c-1.8,0-3.29-1.49-3.29-3.29v-65.75c0-1.8,1.49-3.29,3.29-3.29s3.29,1.49,3.29,3.29v65.75c0,1.8-1.49,3.29-3.29,3.29Z" fill="#43b85c" stroke-width="0"/></g></svg>