<?xml version="1.0" encoding="UTF-8"?><svg id="Layer_2" xmlns="http://www.w3.org/2000/svg" width="171" height="171" viewBox="0 0 171 171"><g id="Layer_1-2"><path d="M44.39,88.79C19.94,88.79,0,68.85,0,44.39S19.94,0,44.39,0s44.39,19.94,44.39,44.39-19.94,44.39-44.39,44.39ZM44.39,6.58C23.53,6.58,6.58,23.53,6.58,44.39s16.96,37.82,37.82,37.82,37.82-16.96,37.82-37.82S65.26,6.58,44.39,6.58Z" fill="#f7b749" stroke-width="0"/><path d="M126.61,88.79c-24.46,0-44.39-19.94-44.39-44.39S102.15,0,126.61,0s44.39,19.94,44.39,44.39-19.94,44.39-44.39,44.39ZM126.61,6.58c-20.86,0-37.82,16.96-37.82,37.82s16.96,37.82,37.82,37.82,37.82-16.96,37.82-37.82S147.47,6.58,126.61,6.58Z" fill="#f7b749" stroke-width="0"/><path d="M44.39,171c-24.46,0-44.39-19.94-44.39-44.39s19.94-44.4,44.39-44.4,44.39,19.94,44.39,44.4-19.94,44.39-44.39,44.39ZM44.39,88.79c-20.86,0-37.82,16.96-37.82,37.82s16.96,37.82,37.82,37.82,37.82-16.96,37.82-37.82-16.96-37.82-37.82-37.82Z" fill="#f7b749" stroke-width="0"/><path d="M126.61,171c-24.46,0-44.39-19.94-44.39-44.39s19.94-44.4,44.39-44.4,44.39,19.94,44.39,44.4-19.94,44.39-44.39,44.39ZM126.61,88.79c-20.86,0-37.82,16.96-37.82,37.82s16.96,37.82,37.82,37.82,37.82-16.96,37.82-37.82-16.96-37.82-37.82-37.82Z" fill="#f7b749" stroke-width="0"/></g></svg>