<?xml version="1.0" encoding="UTF-8"?><svg id="Layer_2" xmlns="http://www.w3.org/2000/svg" width="171" height="171" viewBox="0 0 171 171"><g id="Layer_1-2"><path d="M19.73,39.46C8.84,39.46,0,30.62,0,19.73S8.84,0,19.73,0s19.73,8.84,19.73,19.73-8.84,19.73-19.73,19.73ZM19.73,6.58c-7.24,0-13.15,5.91-13.15,13.15s5.91,13.15,13.15,13.15,13.15-5.91,13.15-13.15-5.91-13.15-13.15-13.15Z" fill="#ed362f" stroke-width="0"/><path d="M19.73,105.23c-10.89,0-19.73-8.84-19.73-19.73s8.84-19.73,19.73-19.73,19.73,8.84,19.73,19.73-8.84,19.73-19.73,19.73ZM19.73,72.35c-7.24,0-13.15,5.91-13.15,13.15s5.91,13.15,13.15,13.15,13.15-5.91,13.15-13.15-5.91-13.15-13.15-13.15Z" fill="#ed362f" stroke-width="0"/><path d="M19.73,171c-10.89,0-19.73-8.84-19.73-19.73s8.84-19.73,19.73-19.73,19.73,8.84,19.73,19.73-8.84,19.73-19.73,19.73ZM19.73,138.12c-7.24,0-13.15,5.91-13.15,13.15s5.91,13.15,13.15,13.15,13.15-5.91,13.15-13.15-5.91-13.15-13.15-13.15Z" fill="#ed362f" stroke-width="0"/><path d="M151.27,105.23c-10.89,0-19.73-8.84-19.73-19.73s8.84-19.73,19.73-19.73,19.73,8.84,19.73,19.73-8.84,19.73-19.73,19.73ZM151.27,72.35c-7.24,0-13.15,5.91-13.15,13.15s5.91,13.15,13.15,13.15,13.15-5.91,13.15-13.15-5.91-13.15-13.15-13.15Z" fill="#ed362f" stroke-width="0"/><path d="M151.27,171c-10.89,0-19.73-8.84-19.73-19.73s8.84-19.73,19.73-19.73,19.73,8.84,19.73,19.73-8.84,19.73-19.73,19.73ZM151.27,138.12c-7.24,0-13.15,5.91-13.15,13.15s5.91,13.15,13.15,13.15,13.15-5.91,13.15-13.15-5.91-13.15-13.15-13.15Z" fill="#ed362f" stroke-width="0"/><path d="M151.27,39.46c-10.89,0-19.73-8.84-19.73-19.73S140.38,0,151.27,0s19.73,8.84,19.73,19.73-8.84,19.73-19.73,19.73ZM151.27,6.58c-7.24,0-13.15,5.91-13.15,13.15s5.91,13.15,13.15,13.15,13.15-5.91,13.15-13.15-5.91-13.15-13.15-13.15Z" fill="#ed362f" stroke-width="0"/><path d="M134.83,23.02H36.17c-1.8,0-3.29-1.49-3.29-3.29s1.49-3.29,3.29-3.29h98.65c1.8,0,3.29,1.49,3.29,3.29s-1.49,3.29-3.29,3.29Z" fill="#ed362f" stroke-width="0"/><path d="M134.83,88.79H36.17c-1.8,0-3.29-1.49-3.29-3.29s1.49-3.29,3.29-3.29h98.65c1.8,0,3.29,1.49,3.29,3.29s-1.49,3.29-3.29,3.29Z" fill="#ed362f" stroke-width="0"/><path d="M134.83,153.79H36.17c-1.8,0-3.29-1.49-3.29-3.29s1.49-3.29,3.29-3.29h98.65c1.8,0,3.29,1.49,3.29,3.29s-1.49,3.29-3.29,3.29Z" fill="#ed362f" stroke-width="0"/></g></svg>