<?xml version="1.0" encoding="UTF-8"?><svg id="Layer_2" xmlns="http://www.w3.org/2000/svg" width="171" height="183.95" viewBox="0 0 171 183.95"><g id="Layer_1-2"><path d="M114.5,95.47h-57.89c-4.97,0-9.83-1.79-13.65-4.97L5.38,58.98c-3.41-2.89-5.38-7.11-5.38-11.57s2.02-8.67,5.44-11.51L42.97,4.86c3.82-3.12,8.62-4.86,13.53-4.86h58c4.92,0,9.71,1.73,13.53,4.86l37.53,31.05c3.47,2.83,5.44,7.05,5.44,11.51s-1.97,8.67-5.38,11.57l-37.59,31.52c-3.82,3.18-8.67,4.97-13.65,4.97h.12ZM56.56,7c-3.3,0-6.48,1.16-9.02,3.24L10,41.29c-1.85,1.5-2.89,3.76-2.89,6.13s1.04,4.63,2.83,6.13l37.59,31.52c2.54,2.14,5.78,3.3,9.08,3.3h57.89c3.3,0,6.54-1.16,9.08-3.3l37.59-31.52c1.79-1.5,2.83-3.76,2.83-6.13s-1.04-4.57-2.89-6.13l-37.53-31.05c-2.54-2.08-5.72-3.24-9.02-3.24h-58Z" fill="#2cb4e2" stroke-width="0"/><path d="M114.5,183.95h-57.89c-4.97,0-9.83-1.79-13.65-4.97l-37.59-31.52c-3.41-2.89-5.38-7.11-5.38-11.57s2.02-8.67,5.44-11.51l37.53-31.05c3.82-3.12,8.62-4.86,13.53-4.86h58c4.92,0,9.71,1.73,13.53,4.86l37.53,31.05c3.47,2.83,5.44,7.05,5.44,11.51s-1.97,8.67-5.38,11.57l-37.59,31.52c-3.82,3.18-8.67,4.97-13.65,4.97h.12ZM56.56,95.47c-3.3,0-6.48,1.16-9.02,3.24l-37.53,31.05c-1.85,1.5-2.89,3.76-2.89,6.13s1.04,4.63,2.83,6.13l37.59,31.52c2.54,2.14,5.78,3.3,9.08,3.3h57.89c3.3,0,6.54-1.16,9.08-3.3l37.59-31.52c1.79-1.5,2.83-3.76,2.83-6.13s-1.04-4.57-2.89-6.13l-37.53-31.05c-2.54-2.08-5.72-3.24-9.02-3.24h-58Z" fill="#2cb4e2" stroke-width="0"/></g></svg>