<svg width="171" height="171" viewBox="0 0 171 171" fill="none" xmlns="http://www.w3.org/2000/svg">
<path d="M44.3942 88.7885C19.9363 88.7885 0 68.8522 0 44.3942C0 19.9363 19.9363 0 44.3942 0C68.8522 0 88.7885 19.9363 88.7885 44.3942C88.7885 68.8522 68.8522 88.7885 44.3942 88.7885ZM44.3942 6.57692C23.5331 6.57692 6.57692 23.5331 6.57692 44.3942C6.57692 65.2554 23.5331 82.2115 44.3942 82.2115C65.2554 82.2115 82.2115 65.2554 82.2115 44.3942C82.2115 23.5331 65.2554 6.57692 44.3942 6.57692Z" fill="#F7B749"/>
<path d="M126.606 88.7885C102.148 88.7885 82.2117 68.8522 82.2117 44.3942C82.2117 19.9363 102.148 0 126.606 0C151.064 0 171 19.9363 171 44.3942C171 68.8522 151.064 88.7885 126.606 88.7885ZM126.606 6.57692C105.745 6.57692 88.7886 23.5331 88.7886 44.3942C88.7886 65.2554 105.745 82.2115 126.606 82.2115C147.467 82.2115 164.423 65.2554 164.423 44.3942C164.423 23.5331 147.467 6.57692 126.606 6.57692Z" fill="#F7B749"/>
<path d="M44.3942 171C19.9363 171 0 151.064 0 126.606C0 102.148 19.9363 82.2114 44.3942 82.2114C68.8522 82.2114 88.7885 102.148 88.7885 126.606C88.7885 151.064 68.8522 171 44.3942 171ZM44.3942 88.7884C23.5331 88.7884 6.57692 105.744 6.57692 126.606C6.57692 147.467 23.5331 164.423 44.3942 164.423C65.2554 164.423 82.2115 147.467 82.2115 126.606C82.2115 105.744 65.2554 88.7884 44.3942 88.7884Z" fill="#F7B749"/>
<path d="M126.606 171C102.148 171 82.2117 151.064 82.2117 126.606C82.2117 102.148 102.148 82.2114 126.606 82.2114C151.064 82.2114 171 102.148 171 126.606C171 151.064 151.064 171 126.606 171ZM126.606 88.7884C105.745 88.7884 88.7886 105.744 88.7886 126.606C88.7886 147.467 105.745 164.423 126.606 164.423C147.467 164.423 164.423 147.467 164.423 126.606C164.423 105.744 147.467 88.7884 126.606 88.7884Z" fill="#F7B749"/>
</svg>
