<svg width="170" height="171" viewBox="0 0 170 171" fill="none" xmlns="http://www.w3.org/2000/svg">
<g clip-path="url(#clip0_3744_326)">
<path d="M98.1234 85.5C98.1234 37.5574 113.909 -2.45182e-06 134.069 -1.5706e-06C154.229 -6.89377e-07 170 37.5574 170 85.5C170 133.443 154.214 171 134.069 171C113.923 171 98.1378 133.443 98.1378 85.5L98.1234 85.5ZM163.467 85.5C163.467 38.2961 148.257 6.57581 134.069 6.57581C119.881 6.57581 104.671 38.2816 104.671 85.5C104.671 132.718 119.881 164.424 134.069 164.424C148.257 164.424 163.467 132.704 163.467 85.5Z" fill="#2CB4E2"/>
<path d="M-3.73732e-06 85.5C-1.64169e-06 37.5574 15.7855 -2.45182e-06 35.9455 -1.5706e-06C56.1055 -6.89378e-07 71.8766 37.5574 71.8766 85.5C71.8766 133.443 56.0911 171 35.9455 171C15.7999 171 0.0143832 133.443 0.0143853 85.5L-3.73732e-06 85.5ZM65.3437 85.5C65.3437 38.2961 50.1337 6.57581 35.9455 6.57581C21.7572 6.57581 6.54732 38.2816 6.54731 85.5C6.54731 132.718 21.7572 164.424 35.9455 164.424C50.1337 164.424 65.3437 132.718 65.3437 85.5Z" fill="#2CB4E2"/>
<path d="M49.1264 85.5C49.1264 37.5574 64.912 -2.45119e-06 85.0575 -1.5706e-06C105.203 -6.90006e-07 120.989 37.5574 120.989 85.5C120.989 133.443 105.203 171 85.0575 171C64.9119 171 49.1264 133.443 49.1264 85.5ZM114.47 85.5C114.47 38.2961 99.2602 6.57581 85.0719 6.57581C70.8837 6.57581 55.6738 38.2816 55.6738 85.5C55.6738 132.718 70.8837 164.424 85.0719 164.424C99.2602 164.424 114.47 132.718 114.47 85.5Z" fill="#2CB4E2"/>
</g>
<defs>
<clipPath id="clip0_3744_326">
<rect width="171" height="170" fill="white" transform="translate(170) rotate(90)"/>
</clipPath>
</defs>
</svg>
