<svg width="171" height="172" viewBox="0 0 171 172" fill="none" xmlns="http://www.w3.org/2000/svg">
<path d="M101.885 171.05C101.017 171.05 100.2 170.693 99.5367 170.08L87.8986 158.442C85.3974 155.941 82.1305 154.614 78.6085 154.614H52.5758C41.7033 154.614 32.8726 145.783 32.8726 134.911V69.1653C32.8726 58.2928 41.7033 49.4621 52.5758 49.4621H151.143C162.015 49.4621 170.846 58.2928 170.846 69.1653V134.911C170.846 145.783 162.015 154.614 151.143 154.614H125.11C121.588 154.614 118.321 155.992 115.82 158.442L104.182 170.08C103.569 170.693 102.753 171.05 101.834 171.05H101.885ZM52.5758 56.0468C45.3274 56.0468 39.4063 61.968 39.4063 69.2163V134.962C39.4063 142.21 45.3274 148.131 52.5758 148.131H78.6085C83.8661 148.131 88.8174 150.173 92.5436 153.899L101.834 163.189L111.124 153.899C114.85 150.173 119.801 148.131 125.059 148.131H151.092C158.34 148.131 164.261 142.21 164.261 134.962V69.2163C164.261 61.968 158.34 56.0468 151.092 56.0468H52.5247H52.5758Z" fill="#ED362F"/>
<path d="M36.1395 105.356H19.7032C8.83071 105.356 0 96.5253 0 85.6528V19.7032C0 8.83071 8.83071 0 19.7032 0H118.27C129.143 0 137.973 8.83071 137.973 19.7032V52.7801C137.973 54.6177 136.493 56.0469 134.707 56.0469C132.92 56.0469 131.44 54.5666 131.44 52.7801V19.7032C131.44 12.4549 125.519 6.53372 118.27 6.53372H19.7032C12.4549 6.53372 6.53372 12.4549 6.53372 19.7032V85.6528C6.53372 92.9011 12.4549 98.8223 19.7032 98.8223H36.1395C37.9772 98.8223 39.4064 100.303 39.4064 102.089C39.4064 103.876 37.9261 105.356 36.1395 105.356Z" fill="#ED362F"/>
<path d="M77.2305 113.574C70.901 113.574 65.7455 108.419 65.7455 102.089C65.7455 95.7595 70.901 90.604 77.2305 90.604C83.56 90.604 88.7155 95.7595 88.7155 102.089C88.7155 108.419 83.56 113.574 77.2305 113.574ZM77.2305 97.1377C74.5251 97.1377 72.2792 99.3327 72.2792 102.089C72.2792 104.845 74.4741 107.04 77.2305 107.04C79.9869 107.04 82.1818 104.845 82.1818 102.089C82.1818 99.3327 79.9869 97.1377 77.2305 97.1377Z" fill="#ED362F"/>
<path d="M126.539 113.574C120.21 113.574 115.054 108.419 115.054 102.089C115.054 95.7595 120.21 90.604 126.539 90.604C132.869 90.604 138.024 95.7595 138.024 102.089C138.024 108.419 132.869 113.574 126.539 113.574ZM126.539 97.1377C123.834 97.1377 121.588 99.3327 121.588 102.089C121.588 104.845 123.783 107.04 126.539 107.04C129.296 107.04 131.491 104.845 131.491 102.089C131.491 99.3327 129.296 97.1377 126.539 97.1377Z" fill="#ED362F"/>
</svg>
