<svg width="171" height="171" viewBox="0 0 171 171" fill="none" xmlns="http://www.w3.org/2000/svg">
<path d="M85.5261 105.2C74.6363 105.2 65.8011 96.3644 65.8011 85.4746C65.8011 74.5848 74.6363 65.7497 85.5261 65.7497C96.4159 65.7497 105.251 74.5848 105.251 85.4746C105.251 96.3644 96.4159 105.2 85.5261 105.2ZM85.5261 72.3247C78.2833 72.3247 72.3761 78.2319 72.3761 85.4746C72.3761 92.7174 78.2833 98.6246 85.5261 98.6246C92.7688 98.6246 98.676 92.7174 98.676 85.4746C98.676 78.2319 92.7688 72.3247 85.5261 72.3247Z" fill="#43B85C"/>
<path d="M167.662 170.95H3.28741C1.48956 170.95 0 169.46 0 167.662C0 127.133 28.8168 91.8957 68.4722 83.9338C70.27 83.5742 71.9652 84.7043 72.3247 86.5022C72.6843 88.3 71.5542 89.9951 69.7564 90.3547C34.2104 97.5461 8.16725 128.366 6.62624 164.375H164.272C162.782 128.366 136.688 97.5461 101.142 90.3547C99.3439 89.9951 98.2138 88.2486 98.5734 86.5022C98.9329 84.7043 100.679 83.5742 102.426 83.9338C142.081 91.9471 170.898 127.185 170.898 167.662C170.898 169.46 169.408 170.95 167.611 170.95H167.662Z" fill="#43B85C"/>
<path d="M101.86 87.1177C100.319 87.1177 98.932 86.0391 98.6238 84.498C98.2642 82.7002 99.3943 81.0051 101.192 80.6455C136.738 73.4541 162.781 42.6339 164.322 6.62557H6.67681C8.16645 42.6339 34.261 73.4541 69.8069 80.6455C71.6048 81.0051 72.7349 82.7516 72.3753 84.498C72.0157 86.2959 70.2693 87.426 68.5228 87.0664C28.8674 79.0531 0.050415 43.8153 0.050415 3.33809C0.050415 1.54024 1.54013 0.0505981 3.33798 0.0505981H167.713C169.51 0.0505981 171 1.54024 171 3.33809C171 43.8667 142.183 79.1045 102.528 87.0664C102.322 87.0664 102.065 87.1177 101.86 87.1177Z" fill="#43B85C"/>
<path d="M85.526 72.3248C83.7281 72.3248 82.2384 70.8352 82.2384 69.0373V3.28751C82.2384 1.48966 83.7281 0 85.526 0C87.3238 0 88.8134 1.48966 88.8134 3.28751V69.0373C88.8134 70.8352 87.3238 72.3248 85.526 72.3248Z" fill="#43B85C"/>
<path d="M85.526 170.95C83.7281 170.95 82.2384 169.46 82.2384 167.662V101.912C82.2384 100.114 83.7281 98.6248 85.526 98.6248C87.3238 98.6248 88.8134 100.114 88.8134 101.912V167.662C88.8134 169.46 87.3238 170.95 85.526 170.95Z" fill="#43B85C"/>
</svg>
