<?xml version="1.0" encoding="UTF-8"?><svg id="Layer_1" xmlns="http://www.w3.org/2000/svg" width="154" height="168" viewBox="0 0 154 168"><defs><style>.cls-1{fill:#00013a;}.cls-2{fill:#fff;}.cls-3{fill:#f0f3f5;}.cls-4{fill:#4e4540;}.cls-5{fill:none;stroke:#f0f3f5;stroke-miterlimit:10;stroke-width:2px;}</style></defs><rect class="cls-2" x="5" y="5" width="144" height="158" rx="10" ry="10"/><g><g><path class="cls-3" d="M15,5h124c5.52,0,10,4.48,10,10v22H5V15c0-5.52,4.48-10,10-10Z"/><g><path class="cls-4" d="M31.45,24.59v.97h-4.57v-7.11h1.18v6.14h3.39Z"/><path class="cls-4" d="M34.52,22.37v2.22h3.43v.97h-4.61v-7.11h4.58v.97h-3.41v2h2.94v.95h-2.94Z"/><path class="cls-4" d="M41,23.92l-.48,1.64h-1.22l2.31-7.11h1.04l2.28,7.11h-1.22l-.48-1.64h-2.23Zm1.94-1.01l-.82-2.81-.83,2.81h1.65Z"/><path class="cls-4" d="M47.47,22.8v2.76h-1.17v-7.11h2.26c.37,0,.71,.05,1.02,.14,.31,.09,.58,.22,.8,.4,.22,.18,.39,.4,.52,.67,.12,.27,.19,.58,.19,.93,0,.24-.03,.47-.09,.66s-.15,.38-.27,.54c-.11,.16-.25,.3-.41,.42-.16,.12-.34,.22-.53,.31l1.52,2.97v.06h-1.25l-1.36-2.76h-1.2Zm1.1-.96c.21,0,.4-.04,.56-.1,.17-.06,.31-.15,.43-.26,.1-.1,.19-.22,.24-.36s.09-.31,.09-.49c0-.21-.03-.38-.09-.54s-.16-.28-.28-.39c-.11-.1-.25-.17-.42-.22-.16-.05-.34-.08-.55-.08h-1.08v2.44h1.1Z"/><path class="cls-4" d="M56.2,25.55l-2.31-4.89v4.89h-1.19v-7.11h1.19l2.29,4.87v-4.87h1.19v7.11h-1.18Z"/><path class="cls-4" d="M66.86,21.49l.97-3.04h1.46v7.11h-1.1v-2.41l.07-3.17-1.09,3.39h-.61l-.99-3.28,.06,3.06v2.41h-1.1v-7.11h1.46l.88,3.04Z"/><path class="cls-4" d="M75.83,23.3c-.05,.27-.12,.52-.22,.76-.1,.24-.23,.46-.38,.66-.15,.2-.32,.37-.52,.52-.19,.13-.4,.23-.63,.31s-.48,.11-.75,.11-.54-.04-.78-.12c-.24-.08-.45-.19-.63-.33-.19-.14-.35-.32-.5-.52s-.26-.42-.35-.66c-.09-.23-.16-.48-.21-.74-.04-.26-.07-.53-.07-.81v-.94c0-.29,.02-.57,.07-.84s.12-.53,.22-.77c.09-.23,.21-.44,.35-.64,.14-.19,.3-.36,.49-.51,.18-.14,.39-.25,.62-.32,.23-.08,.49-.11,.77-.11s.54,.04,.78,.12c.24,.08,.45,.19,.64,.33,.19,.14,.35,.3,.49,.49,.14,.19,.26,.4,.35,.62,.1,.24,.18,.5,.23,.77,.05,.27,.08,.56,.08,.86v.94c0,.29-.03,.56-.08,.83Zm-1.14-2.3c-.02-.17-.05-.34-.09-.49-.05-.18-.11-.34-.19-.49-.08-.15-.18-.27-.29-.38-.1-.09-.22-.16-.35-.21-.13-.05-.28-.08-.44-.08s-.3,.03-.43,.08-.24,.12-.33,.21c-.11,.11-.21,.24-.29,.38s-.14,.31-.18,.5c-.04,.16-.07,.32-.08,.5-.02,.17-.03,.35-.03,.52v.95c0,.17,0,.34,.02,.51,.02,.17,.04,.33,.08,.49,.04,.18,.1,.34,.17,.49s.16,.28,.27,.38c.1,.1,.22,.17,.35,.23s.28,.09,.46,.09,.32-.03,.45-.08c.13-.06,.25-.13,.35-.22,.11-.11,.21-.24,.29-.38,.08-.15,.14-.31,.18-.49,.04-.16,.07-.32,.09-.49,.02-.17,.03-.34,.03-.52v-.95c0-.18-.01-.35-.03-.53Z"/><path class="cls-4" d="M78.77,22.8v2.76h-1.17v-7.11h2.26c.37,0,.71,.05,1.02,.14,.31,.09,.58,.22,.8,.4,.22,.18,.39,.4,.52,.67,.12,.27,.19,.58,.19,.93,0,.24-.03,.47-.09,.66s-.15,.38-.27,.54c-.11,.16-.25,.3-.41,.42-.16,.12-.34,.22-.53,.31l1.52,2.97v.06h-1.25l-1.36-2.76h-1.2Zm1.1-.96c.21,0,.4-.04,.56-.1,.17-.06,.31-.15,.43-.26,.1-.1,.19-.22,.24-.36s.09-.31,.09-.49c0-.21-.03-.38-.09-.54s-.16-.28-.28-.39c-.11-.1-.25-.17-.42-.22-.16-.05-.34-.08-.55-.08h-1.08v2.44h1.1Z"/><path class="cls-4" d="M85.33,22.37v2.22h3.43v.97h-4.61v-7.11h4.58v.97h-3.41v2h2.94v.95h-2.94Z"/><path class="cls-4" d="M97.11,23.92l-.48,1.64h-1.22l2.31-7.11h1.04l2.28,7.11h-1.22l-.48-1.64h-2.23Zm1.94-1.01l-.82-2.81-.83,2.81h1.65Z"/><path class="cls-4" d="M102.38,18.45h2.28c.35,0,.67,.04,.97,.11s.57,.19,.79,.35c.22,.16,.39,.36,.52,.6,.12,.24,.19,.53,.19,.86,0,.2-.04,.39-.1,.56-.07,.17-.16,.33-.29,.46-.09,.1-.19,.18-.29,.26-.11,.07-.24,.14-.38,.2h0c.21,.06,.39,.15,.54,.25,.15,.11,.28,.23,.38,.36,.1,.14,.18,.3,.24,.48s.08,.36,.08,.55c0,.34-.06,.64-.18,.89-.12,.26-.29,.47-.51,.64-.22,.18-.48,.31-.78,.4-.3,.09-.63,.13-.98,.13h-2.46v-7.11Zm2.3,3c.19,0,.37-.03,.53-.08s.3-.12,.41-.21c.1-.08,.18-.19,.24-.31s.09-.26,.09-.42c0-.17-.03-.31-.08-.43s-.13-.22-.23-.3c-.11-.1-.25-.17-.42-.21s-.35-.07-.55-.07h-1.11v2.03h1.12Zm-1.12,3.14h1.29c.19,0,.36-.03,.51-.08,.15-.05,.28-.12,.39-.21,.12-.09,.21-.21,.27-.35s.09-.29,.09-.46c0-.18-.03-.34-.08-.48-.05-.14-.13-.26-.23-.35-.1-.1-.23-.17-.38-.23-.15-.05-.32-.08-.51-.09h-1.35v2.25Z"/><path class="cls-4" d="M113.64,23.3c-.05,.27-.12,.52-.22,.76-.1,.24-.23,.46-.38,.66-.15,.2-.32,.37-.52,.52-.19,.13-.4,.23-.63,.31s-.48,.11-.75,.11-.54-.04-.78-.12c-.24-.08-.45-.19-.63-.33-.19-.14-.35-.32-.5-.52s-.26-.42-.35-.66c-.09-.23-.16-.48-.21-.74-.04-.26-.07-.53-.07-.81v-.94c0-.29,.02-.57,.07-.84s.12-.53,.22-.77c.09-.23,.21-.44,.35-.64,.14-.19,.3-.36,.49-.51,.18-.14,.39-.25,.62-.32,.23-.08,.49-.11,.77-.11s.54,.04,.78,.12c.24,.08,.45,.19,.64,.33,.19,.14,.35,.3,.49,.49,.14,.19,.26,.4,.35,.62,.1,.24,.18,.5,.23,.77,.05,.27,.08,.56,.08,.86v.94c0,.29-.03,.56-.08,.83Zm-1.14-2.3c-.02-.17-.05-.34-.09-.49-.05-.18-.11-.34-.19-.49-.08-.15-.18-.27-.29-.38-.1-.09-.22-.16-.35-.21-.13-.05-.28-.08-.44-.08s-.3,.03-.43,.08-.24,.12-.33,.21c-.11,.11-.21,.24-.29,.38s-.14,.31-.18,.5c-.04,.16-.07,.32-.08,.5-.02,.17-.03,.35-.03,.52v.95c0,.17,0,.34,.02,.51,.02,.17,.04,.33,.08,.49,.04,.18,.1,.34,.17,.49s.16,.28,.27,.38c.1,.1,.22,.17,.35,.23s.28,.09,.46,.09,.32-.03,.45-.08c.13-.06,.25-.13,.35-.22,.11-.11,.21-.24,.29-.38,.08-.15,.14-.31,.18-.49,.04-.16,.07-.32,.09-.49,.02-.17,.03-.34,.03-.52v-.95c0-.18-.01-.35-.03-.53Z"/><path class="cls-4" d="M120.02,23.2c0,.37-.06,.7-.17,1s-.27,.56-.48,.77c-.21,.21-.46,.38-.75,.5-.29,.12-.62,.18-.98,.18s-.67-.06-.96-.17c-.29-.12-.53-.28-.73-.5-.21-.21-.36-.47-.48-.78s-.17-.64-.17-1.01v-4.76h1.17v4.76c.01,.22,.04,.43,.09,.62,.05,.19,.13,.35,.23,.48,.1,.12,.22,.22,.36,.29s.31,.1,.5,.1,.36-.04,.51-.1c.15-.07,.27-.17,.37-.3,.1-.13,.18-.29,.23-.48,.05-.18,.08-.39,.09-.61v-4.76h1.17v4.76Z"/><path class="cls-4" d="M124.75,19.42v6.14h-1.17v-6.14h-2.18v-.97h5.54v.97h-2.19Z"/></g></g><rect class="cls-5" x="5" y="5" width="144" height="158" rx="10" ry="10"/><g><path class="cls-1" d="M45.08,109.08H110.92l-14.04-24.33v-8.33l3.88-5.09h-11.62l-11.13-19.27-11.13,19.27h-11.63l3.88,5.09v8.33l-14.04,24.33Zm14.04-3.33h-8.29l8.29-14.35v14.35Zm5.74,0h-2.41v-19.62h2.41v19.62Zm0-22.94h-2.41v-2.41h2.41v2.41Zm11.47,22.94h-8.14v-19.62h8.14v19.62Zm11.47,0h-8.15v-19.62h8.15v19.62Zm0-22.94h-19.62v-2.41h19.62v2.41Zm5.74,22.94h-2.41v-19.62h2.41v19.62Zm0-22.94h-2.41v-2.41h2.41v2.41Zm3.33,8.59l8.29,14.35h-8.29v-14.35Zm-18.87-32.69l7.29,12.62h-14.57l7.29-12.62Zm16.04,15.95l-.49,.64v1.77h-31.09v-1.77l-.49-.64h32.08Z"/><polygon class="cls-1" points="114.76 128.34 107.48 128.34 107.48 115.74 104.15 117.66 104.15 131.66 116.68 131.66 114.76 128.34"/><path class="cls-1" d="M93.05,125.15h0c0,1.98-1.61,3.59-3.59,3.59s-3.59-1.61-3.59-3.59h0s0,0,0,0v-9.41l-3.33,1.92v7.49h0c0,3.82,3.1,6.92,6.92,6.92s6.92-3.1,6.92-6.92h0v-9.41l-3.33,1.92v7.49Z"/><path class="cls-1" d="M71.44,125.15h0c0,1.98-1.61,3.59-3.59,3.59s-3.59-1.61-3.59-3.59h0s0,0,0,0v-9.41l-3.33,1.92v7.49h0c0,3.82,3.1,6.92,6.92,6.92s6.92-3.1,6.92-6.92h0v-9.41l-3.33,1.92v7.49Z"/><polygon class="cls-1" points="52.35 115.74 41.24 115.74 39.32 119.07 46.6 119.07 39.32 131.66 51.23 131.66 53.15 128.34 45.08 128.34 52.35 115.74"/></g></g></svg>