<svg width="451" height="71" viewBox="0 0 451 71" fill="none" xmlns="http://www.w3.org/2000/svg">
<path d="M96.2084 31.0594C92.9456 31.0594 90.5157 30.2756 88.9186 28.6981C87.3215 27.1206 86.5376 24.6906 86.5572 21.4082V11.4631C86.5572 8.14154 87.3509 5.7116 88.9284 4.15369C90.5059 2.59579 92.9358 1.83153 96.2084 1.86092H101.372C104.674 1.86092 107.114 2.64478 108.672 4.20268C110.23 5.76059 111.023 8.20033 111.023 11.5023V21.4082C111.023 24.671 110.239 27.101 108.672 28.6981C107.114 30.2756 104.674 31.0594 101.372 31.0594H96.2084ZM96.2084 27.4439H101.372C102.607 27.4929 103.831 27.3067 104.997 26.8952C105.84 26.5523 106.516 25.8762 106.859 25.0336C107.271 23.8676 107.457 22.6428 107.408 21.4082V11.5023C107.457 10.2775 107.271 9.06256 106.859 7.90638C106.516 7.05394 105.84 6.38767 104.997 6.03494C103.841 5.61362 102.607 5.42745 101.372 5.47644H96.2084C94.9837 5.40785 93.7687 5.58422 92.6125 5.99574C91.7601 6.32888 91.084 6.99516 90.7411 7.84759C90.3197 9.00378 90.1238 10.2285 90.1728 11.4631V21.4082C90.1238 22.6428 90.3099 23.8676 90.7215 25.0336C91.0644 25.886 91.7405 26.5523 92.5929 26.8952C93.7491 27.3067 94.9837 27.4929 96.2084 27.4439Z" fill="white"/>
<path d="M119.351 39.6718C118.479 39.7992 117.666 39.1917 117.539 38.3197C117.519 38.1727 117.519 38.0159 117.539 37.8689V11.0318C117.46 10.0324 118.215 9.16037 119.214 9.09178C120.214 9.0232 121.086 9.76786 121.154 10.7673C121.154 10.8555 121.154 10.9436 121.154 11.0318V11.5707C121.967 10.7673 122.957 10.1696 124.035 9.81685C125.269 9.40532 126.573 9.19956 127.876 9.21916H129.512C132.383 9.21916 134.509 9.91483 135.881 11.2866C137.252 12.6583 137.958 14.7943 137.958 17.6652V22.623C137.958 25.4841 137.262 27.6103 135.881 28.9918C134.499 30.3734 132.373 31.069 129.512 31.069H121.154V37.8787C121.282 38.7508 120.674 39.5542 119.802 39.6718C119.655 39.6914 119.498 39.6914 119.351 39.6718ZM121.154 27.4437H129.512C131.393 27.4437 132.667 27.1008 133.333 26.4639C134 25.827 134.313 24.5043 134.313 22.6426V17.6946C134.313 15.8133 133.99 14.5396 133.333 13.8733C132.677 13.207 131.403 12.8837 129.512 12.8935H127.876C126.298 12.8641 124.73 13.0796 123.222 13.5401C121.918 13.9615 121.262 14.6473 121.154 15.5782V27.4437Z" fill="white"/>
<path d="M147.05 21.6434V22.6232C147.05 24.4751 147.393 25.7293 148.03 26.4053C148.667 27.0814 149.989 27.3851 151.841 27.3851H155.378C156.476 27.4341 157.583 27.297 158.631 26.9736C159.298 26.7385 159.817 26.2094 160.032 25.5333C160.15 25.0728 160.375 24.6417 160.689 24.2791C161.042 23.9656 161.502 23.8088 161.972 23.848C162.472 23.8088 162.972 23.9852 163.344 24.3281C163.677 24.7005 163.795 25.2198 163.648 25.6999C163.423 27.3362 162.502 28.7961 161.11 29.6877C159.356 30.6479 157.377 31.1084 155.378 31.0007H151.871C149.019 31.0007 146.893 30.3148 145.512 28.9333C144.13 27.5517 143.434 25.4451 143.434 22.6036V17.6066C143.434 14.6671 144.13 12.5507 145.512 11.179C146.893 9.80727 149.019 9.13119 151.871 9.16059H155.408C158.279 9.16059 160.395 9.84646 161.776 11.2182C163.158 12.5899 163.844 14.7161 163.854 17.6066V19.7622C163.981 20.6342 163.364 21.4475 162.492 21.565C162.345 21.5846 162.188 21.5846 162.041 21.565L147.05 21.6434ZM151.871 12.8251C150.009 12.8251 148.735 13.119 148.059 13.8049C147.383 14.4908 147.079 15.7645 147.079 17.6556V17.9985H160.258V17.6556C160.258 15.7743 159.934 14.5006 159.278 13.8343C158.621 13.168 157.348 12.8447 155.457 12.8545L151.871 12.8251Z" fill="white"/>
<path d="M171.194 31.0593C170.322 31.1867 169.509 30.589 169.381 29.7072C169.362 29.5504 169.362 29.3936 169.381 29.2467V11.0319C169.381 10.0325 170.194 9.21924 171.194 9.21924C172.193 9.21924 173.006 10.0325 173.006 11.0319V11.7374C174.525 10.0619 176.759 9.22904 179.728 9.21924H180.923C183.794 9.21924 185.92 9.91491 187.302 11.2866C188.684 12.6584 189.369 14.7944 189.369 17.6652V29.2467C189.448 30.2461 188.693 31.1181 187.694 31.1867C186.694 31.2651 185.822 30.5106 185.754 29.5112C185.754 29.423 185.754 29.3348 185.754 29.2467V17.6652C185.754 15.784 185.411 14.5102 184.725 13.844C184.049 13.1777 182.765 12.8641 180.923 12.8641H179.728C178.209 12.8348 176.691 13.0307 175.221 13.452C173.947 13.844 173.202 14.4319 173.006 15.3137V29.2663C173.124 30.1383 172.507 30.9417 171.635 31.0593C171.488 31.0789 171.341 31.0789 171.194 31.0593Z" fill="white"/>
<path d="M198.295 31.0594C197.796 31.0986 197.306 30.9419 196.924 30.6185C196.61 30.2364 196.453 29.7465 196.483 29.2468V3.71279C196.444 3.21309 196.6 2.71338 196.924 2.33125C197.306 2.01771 197.796 1.86094 198.295 1.90013C199.138 1.74336 199.951 2.30186 200.108 3.1543C200.137 3.34046 200.137 3.52663 200.108 3.71279V29.2468C200.147 29.7465 199.99 30.2364 199.677 30.6185C199.295 30.9419 198.795 31.1084 198.295 31.0594Z" fill="white"/>
<path d="M208.475 31.0595C207.603 31.1868 206.79 30.5892 206.663 29.7073C206.643 29.5506 206.643 29.3938 206.663 29.2468V11.0321C206.584 10.0326 207.339 9.16061 208.338 9.09202C209.338 9.01364 210.21 9.76809 210.278 10.7675C210.278 10.8557 210.278 10.9439 210.278 11.0321V11.7375C211.807 10.062 214.041 9.2194 217 9.2194H218.205C221.076 9.2194 223.202 9.91507 224.583 11.2868C225.965 12.6585 226.651 14.7945 226.651 17.6654V29.2468C226.651 30.2462 225.838 31.0595 224.838 31.0595C223.839 31.0595 223.026 30.2462 223.026 29.2468V17.6654C223.026 15.7842 222.692 14.5104 222.046 13.8441C221.399 13.1778 220.086 12.8643 218.244 12.8643H217.039C215.52 12.8349 214.001 13.0309 212.542 13.4522C211.258 13.8441 210.523 14.432 210.317 15.3138V29.2664C210.435 30.1384 209.827 30.9419 208.955 31.0693C208.799 31.0889 208.632 31.0889 208.475 31.0693V31.0595Z" fill="white"/>
<path d="M236.391 31.0595C235.519 31.1868 234.706 30.5696 234.588 29.6975C234.569 29.5506 234.569 29.3938 234.588 29.2468V12.8251H232.991C231.992 12.8251 231.178 12.0119 231.178 11.0125C231.178 10.013 231.992 9.1998 232.991 9.1998H234.588V9.03323C234.588 6.20156 235.264 4.13415 236.636 2.75261C238.008 1.37108 240.085 0.7146 242.897 0.7146C243.936 0.7146 244.445 1.32208 244.445 2.52726C244.445 3.73243 243.936 4.33992 242.897 4.33992C241.084 4.33992 239.85 4.65346 239.193 5.31973C238.537 5.986 238.214 7.21077 238.214 9.05283V9.21939H242.652C243.652 9.21939 244.465 10.0326 244.465 11.0321C244.465 12.0315 243.652 12.8447 242.652 12.8447H238.214V29.2468C238.341 30.1188 237.743 30.9321 236.871 31.0595C236.714 31.0791 236.548 31.0791 236.391 31.0595Z" fill="white"/>
<path d="M250.823 31.0595C249.951 31.1868 249.138 30.5892 249.01 29.7073C248.991 29.5506 248.991 29.3938 249.01 29.2468V11.0321C248.932 10.0326 249.686 9.16061 250.686 9.09202C251.685 9.01364 252.557 9.76809 252.626 10.7675C252.626 10.8557 252.626 10.9439 252.626 11.0321V12.7075C253.468 11.571 254.585 10.6793 255.869 10.1012C257.3 9.49375 258.838 9.19 260.386 9.2194C261.385 9.2194 262.199 10.0326 262.199 11.0321C262.199 12.0315 261.385 12.8447 260.386 12.8447C258.397 12.7173 256.408 13.1876 254.693 14.2165C253.449 15.0199 252.685 16.3818 252.626 17.8614V29.2468C252.753 30.1189 252.146 30.9321 251.274 31.0595C251.127 31.0791 250.97 31.0791 250.823 31.0595Z" fill="white"/>
<path d="M272.378 31.0592C269.968 31.0592 268.165 30.4713 266.989 29.2955C265.814 28.1197 265.226 26.3561 265.226 23.9065C265.226 21.457 265.814 19.7031 266.98 18.5274C268.146 17.3516 269.919 16.7637 272.378 16.7637H281.491C281.55 15.6075 281.118 14.4905 280.305 13.6675C279.218 13.0208 277.944 12.7269 276.68 12.8444H274.181C273.104 12.8052 272.026 12.9032 270.977 13.1286C270.36 13.2658 269.821 13.6381 269.488 14.177C269.321 14.6473 269.047 15.0686 268.694 15.4213C268.342 15.6761 267.911 15.7937 267.479 15.7643C266.96 15.7937 266.441 15.6075 266.059 15.2548C265.706 14.902 265.588 14.3729 265.755 13.9026C266.108 12.3839 267.097 11.0906 268.459 10.3459C270.242 9.50326 272.212 9.11134 274.191 9.20932H276.69C279.561 9.20932 281.687 9.90499 283.068 11.2767C284.45 12.6485 285.116 14.7845 285.116 17.6651V29.2465C285.194 30.2459 284.44 31.118 283.441 31.1866C282.441 31.265 281.569 30.5105 281.501 29.5111C281.501 29.4229 281.501 29.3347 281.501 29.2465V28.2667C279.815 30.1872 277.327 31.216 274.779 31.0494H272.378V31.0592ZM272.378 27.4535H274.789C275.788 27.4535 276.797 27.3653 277.777 27.1595C278.649 26.993 279.472 26.6304 280.188 26.0915C280.883 25.533 281.354 24.7492 281.51 23.8771V20.389H272.378C270.429 20.0461 268.567 21.3492 268.224 23.2991C267.881 25.2489 269.184 27.1105 271.134 27.4535C271.546 27.5221 271.967 27.5221 272.369 27.4535H272.378Z" fill="white"/>
<path d="M63.4729 10.5814V69.9778H69.244V4.8103L63.4729 10.5814Z" fill="#00BA4F"/>
<path d="M0 12.2764V18.0475H39.6923L0 57.7398L4.07603 61.8158L53.6253 12.2764H0Z" fill="#FFB324"/>
<path d="M59.3964 6.505L65.1675 0.733887H0V6.505H59.3964Z" fill="#FF091C"/>
<path d="M57.7114 69.9776V16.3523L8.16211 65.9015L12.2381 69.9776L51.9402 30.2853V69.9776H57.7114Z" fill="#00B6E6"/>
<path d="M94.2096 69.711C92.5929 69.711 91.3388 69.3877 90.4276 68.7312C89.5261 68.0747 88.9578 67.0753 88.7325 65.7133C88.6933 65.3018 88.7815 64.9883 88.9872 64.7825C89.193 64.5768 89.4967 64.469 89.8985 64.469C90.3002 64.469 90.5843 64.567 90.7705 64.7531C90.9567 64.9393 91.084 65.2332 91.1428 65.635C91.2898 66.2914 91.5935 66.7324 92.054 66.9773C92.5244 67.2223 93.2396 67.3398 94.1998 67.3398H98.2857C99.5006 67.3398 100.333 67.1243 100.774 66.6834C101.215 66.2425 101.431 65.4194 101.431 64.224C101.431 63.0287 101.206 62.1664 100.755 61.7255C100.304 61.2748 99.481 61.0494 98.2857 61.0494H94.7681C92.9849 61.0494 91.6523 60.6085 90.7901 59.7365C89.9278 58.8644 89.4967 57.5319 89.4967 55.7486C89.4967 53.9654 89.9278 52.6524 90.7803 51.7902C91.6327 50.9279 92.9555 50.4968 94.7387 50.4968H98.1093C99.6084 50.4968 100.794 50.8006 101.646 51.4179C102.499 52.0351 103.048 52.9758 103.273 54.2397C103.332 54.6414 103.253 54.955 103.048 55.1705C102.842 55.3861 102.528 55.4939 102.117 55.4939C101.735 55.4939 101.45 55.3959 101.264 55.1999C101.078 55.004 100.951 54.71 100.892 54.3377C100.745 53.7792 100.451 53.3971 100.03 53.2011C99.6084 52.9954 98.9617 52.8974 98.1191 52.8974H94.7485C93.6119 52.8974 92.8575 53.0933 92.4656 53.4951C92.0736 53.8968 91.8875 54.6512 91.8875 55.7584C91.8875 56.8656 92.0834 57.6397 92.4852 58.0512C92.8869 58.4627 93.6511 58.6783 94.7779 58.6783H98.2955C100.157 58.6783 101.539 59.129 102.46 60.0402C103.381 60.9515 103.831 62.3428 103.831 64.2338C103.831 66.1249 103.381 67.4966 102.469 68.398C101.558 69.2897 100.177 69.7404 98.3053 69.7404H94.2194L94.2096 69.711Z" fill="white"/>
<path d="M116.578 69.7115C114.413 69.7115 112.816 69.1922 111.777 68.1634C110.739 67.1248 110.229 65.5277 110.229 63.3623V51.6829C110.229 51.2812 110.327 50.9872 110.523 50.7913C110.719 50.5953 111.023 50.4973 111.415 50.4973C111.807 50.4973 112.11 50.5953 112.306 50.7913C112.502 50.9872 112.6 51.291 112.6 51.6829V63.3623C112.6 64.3715 112.718 65.1651 112.963 65.7432C113.208 66.3213 113.609 66.7328 114.187 66.968C114.766 67.213 115.559 67.3305 116.568 67.3305H119.968C120.978 67.3305 121.771 67.213 122.349 66.968C122.927 66.7231 123.339 66.3213 123.574 65.7432C123.809 65.1651 123.937 64.3715 123.937 63.3623V51.6829C123.937 51.2812 124.035 50.9872 124.231 50.7913C124.427 50.5953 124.73 50.4973 125.122 50.4973C125.514 50.4973 125.818 50.5953 126.014 50.7913C126.21 50.9872 126.308 51.291 126.308 51.6829V63.3623C126.308 65.5277 125.788 67.1248 124.76 68.1634C123.731 69.202 122.124 69.7115 119.959 69.7115H116.559H116.578Z" fill="white"/>
<path d="M134.617 69.7113C133.823 69.7113 133.431 69.3096 133.431 68.5159V51.6729C133.431 50.8793 133.833 50.4775 134.617 50.4775C135.136 50.4775 135.567 50.7323 135.92 51.2418L142.612 61.3045L142.103 61.3927L148.853 51.2418C149.177 50.7323 149.657 50.4775 150.304 50.4775C150.95 50.4775 151.264 50.8793 151.264 51.6729V68.5159C151.264 69.3096 150.862 69.7113 150.078 69.7113C149.294 69.7113 148.883 69.3096 148.883 68.5159V54.0539L149.618 54.3086L143.66 63.0682C143.308 63.5777 142.828 63.8324 142.21 63.8324C141.789 63.8324 141.397 63.5777 141.044 63.0682L135.087 54.3086L135.793 54.5046V68.5061C135.793 69.2998 135.391 69.7015 134.597 69.7015L134.617 69.7113Z" fill="white"/>
<path d="M159.68 69.7113C158.887 69.7113 158.495 69.3096 158.495 68.5159V51.6729C158.495 50.8793 158.887 50.4775 159.68 50.4775C160.2 50.4775 160.631 50.7323 160.984 51.2418L167.676 61.3045L167.166 61.3927L173.917 51.2418C174.241 50.7323 174.721 50.4775 175.367 50.4775C176.014 50.4775 176.328 50.8793 176.328 51.6729V68.5159C176.328 69.3096 175.926 69.7113 175.132 69.7113C174.338 69.7113 173.947 69.3096 173.947 68.5159V54.0539L174.681 54.3086L168.724 63.0682C168.371 63.5777 167.891 63.8324 167.274 63.8324C166.853 63.8324 166.461 63.5777 166.108 63.0682L160.151 54.3086L160.856 54.5046V68.5061C160.856 69.2998 160.464 69.7015 159.671 69.7015L159.68 69.7113Z" fill="white"/>
<path d="M184.745 69.7112C184.344 69.7112 184.04 69.6132 183.844 69.4173C183.648 69.2213 183.55 68.9274 183.55 68.5158V51.7022C183.55 51.2907 183.648 50.9869 183.844 50.791C184.04 50.6048 184.334 50.5068 184.745 50.5068C185.157 50.5068 185.461 50.6048 185.657 50.791C185.843 50.9771 185.941 51.2809 185.941 51.7022V68.5158C185.941 68.9176 185.843 69.2213 185.657 69.4173C185.47 69.6132 185.167 69.7112 184.745 69.7112Z" fill="white"/>
<path d="M198.923 69.7116C198.521 69.7116 198.227 69.6136 198.031 69.4177C197.835 69.2217 197.737 68.918 197.737 68.526V52.9078H192.24C191.839 52.9078 191.545 52.8098 191.349 52.6138C191.153 52.4179 191.055 52.1141 191.055 51.7222C191.055 51.3303 191.153 51.0265 191.349 50.8306C191.545 50.6346 191.849 50.5366 192.24 50.5366H205.625C206.026 50.5366 206.32 50.6346 206.516 50.8306C206.712 51.0265 206.81 51.3303 206.81 51.7222C206.81 52.1141 206.712 52.4179 206.516 52.6138C206.32 52.8098 206.017 52.9078 205.625 52.9078H200.128V68.526C200.128 68.9082 200.03 69.2021 199.824 69.4079C199.619 69.6136 199.325 69.7214 198.942 69.7214L198.923 69.7116Z" fill="white"/>
<path d="M216.059 66.548C215.863 66.3521 215.765 66.1169 215.765 65.8524C215.765 65.6956 215.805 65.5486 215.883 65.4212C215.961 65.2939 216.05 65.1861 216.167 65.0881L220.468 61.5314L216.167 57.9746C216.05 57.8669 215.961 57.7493 215.883 57.6219C215.805 57.4945 215.765 57.3574 215.765 57.2006C215.765 56.9262 215.863 56.6911 216.059 56.4951C216.255 56.2992 216.49 56.2012 216.765 56.2012C217.039 56.2012 217.235 56.2796 217.392 56.4265L222.693 60.8161C223.281 61.2864 223.281 61.7665 222.693 62.2368L217.392 66.6264C217.235 66.7832 217.029 66.8518 216.765 66.8518C216.5 66.8518 216.255 66.7538 216.059 66.548Z" fill="#FFB01C"/>
<path d="M239.909 70.0165C239.409 70.0165 239.017 69.7029 238.724 69.0661L231.59 52.174C231.444 51.8409 231.404 51.5372 231.473 51.2726C231.542 51.0081 231.757 50.7925 232.139 50.6161C232.923 50.2242 233.491 50.4202 233.815 51.2236L240.556 67.1946H239.723L246.298 51.2236C246.611 50.43 247.17 50.234 247.973 50.6161C248.306 50.7925 248.522 51.0081 248.6 51.2726C248.678 51.5372 248.659 51.8409 248.522 52.174L241.33 69.0661C241.036 69.7029 240.595 70.0165 240.027 70.0165H239.909Z" fill="#FFB01C"/>
<path d="M250.54 69.8988C249.766 69.6049 249.541 69.0758 249.844 68.3115L256.713 51.3901C256.997 50.7532 257.458 50.4397 258.065 50.4397H258.124C258.751 50.4691 259.172 50.7826 259.398 51.3901L266.384 68.3115C266.687 69.0758 266.472 69.6049 265.717 69.8988C264.953 70.1928 264.424 69.9772 264.13 69.2326L262.572 65.4505H253.578L252.088 69.2326C251.794 69.987 251.275 70.2026 250.53 69.8988H250.54ZM254.538 63.0303H261.583L257.987 54.2806L254.538 63.0303Z" fill="#FFB01C"/>
<path d="M271.91 70.0167C271.097 70.0167 270.695 69.6149 270.695 68.8017V51.6451C270.695 50.8319 271.097 50.4302 271.91 50.4302C272.322 50.4302 272.723 50.6751 273.125 51.1552L284.736 66.117H284.128V51.6549C284.128 50.8417 284.53 50.44 285.343 50.44C286.157 50.44 286.558 50.8417 286.558 51.6549V68.8115C286.558 69.6247 286.157 70.0265 285.343 70.0265C284.912 70.0265 284.51 69.7815 284.128 69.3014L272.518 54.3396H273.125V68.8115C273.125 69.6247 272.723 70.0265 271.91 70.0265V70.0167Z" fill="#FFB01C"/>
<path d="M298.326 70.0165C296.121 70.0165 294.495 69.4874 293.436 68.439C292.378 67.3808 291.859 65.7543 291.859 63.5497V56.9065C291.859 54.6824 292.388 53.0461 293.436 51.9879C294.485 50.9297 296.111 50.4202 298.306 50.4398H301.804C303.617 50.4398 304.998 50.8121 305.949 51.5567C306.899 52.3014 307.458 53.4772 307.605 55.0841C307.663 55.4858 307.585 55.7993 307.369 56.0051C307.154 56.2207 306.85 56.3186 306.448 56.3186C305.713 56.3186 305.292 55.9169 305.175 55.1037C305.077 54.2218 304.773 53.6242 304.254 53.3106C303.734 52.9971 302.921 52.8501 301.794 52.8501H298.296C297.277 52.8501 296.474 52.9579 295.896 53.193C295.318 53.438 294.896 53.8495 294.651 54.4472C294.406 55.0351 294.279 55.8581 294.279 56.8967V63.5399C294.279 64.5687 294.397 65.3819 294.651 65.9698C294.896 66.5577 295.308 66.9692 295.896 67.2142C296.484 67.4591 297.287 67.5865 298.326 67.5865H301.794C302.921 67.5865 303.744 67.4297 304.254 67.1162C304.763 66.8027 305.077 66.205 305.175 65.3329C305.292 64.5197 305.713 64.118 306.448 64.118C306.85 64.118 307.164 64.2257 307.369 64.4315C307.575 64.6373 307.654 64.9508 307.605 65.3525C307.448 66.9692 306.899 68.145 305.949 68.8897C304.998 69.6343 303.617 69.9969 301.804 69.9969H298.335L298.326 70.0165Z" fill="#FFB01C"/>
<path d="M318.422 70.0165C316.218 70.0165 314.591 69.4874 313.533 68.439C312.475 67.3808 311.956 65.7543 311.956 63.5497V56.8771C311.956 54.653 312.485 53.0167 313.543 51.9781C314.601 50.9297 316.228 50.4202 318.422 50.4398H321.891C324.105 50.4398 325.732 50.9689 326.79 52.0173C327.838 53.0657 328.367 54.7019 328.367 56.9163V63.5595C328.367 65.7641 327.838 67.3906 326.79 68.4487C325.742 69.507 324.105 70.0263 321.891 70.0263H318.422V70.0165ZM318.422 67.5865H321.891C322.92 67.5865 323.733 67.4689 324.321 67.2142C324.909 66.9692 325.32 66.5577 325.575 65.9698C325.82 65.3819 325.947 64.5785 325.947 63.5399V56.8967C325.947 55.8777 325.83 55.0743 325.575 54.4864C325.33 53.8985 324.909 53.4772 324.321 53.2322C323.733 52.9775 322.929 52.8599 321.891 52.8599H318.422C317.403 52.8599 316.6 52.9677 316.012 53.2028C315.424 53.4478 315.003 53.8593 314.758 54.4472C314.503 55.0351 314.385 55.8385 314.385 56.8771V63.5497C314.385 64.5785 314.503 65.3917 314.758 65.9796C315.003 66.5675 315.414 66.979 316.002 67.224C316.59 67.4689 317.394 67.5963 318.432 67.5963L318.422 67.5865Z" fill="#FFB01C"/>
<path d="M339.997 70.0164C337.792 70.0164 336.166 69.4873 335.108 68.4389C334.05 67.3905 333.53 65.7542 333.53 63.5496V51.6547C333.53 51.2529 333.628 50.9492 333.834 50.7434C334.04 50.5377 334.344 50.4397 334.745 50.4397C335.147 50.4397 335.451 50.5377 335.656 50.7434C335.862 50.9492 335.96 51.2529 335.96 51.6547V63.5496C335.96 64.5784 336.078 65.3917 336.333 65.9796C336.578 66.5675 336.999 66.979 337.587 67.2239C338.175 67.4689 338.978 67.5963 340.017 67.5963H343.485C344.514 67.5963 345.327 67.4787 345.915 67.2239C346.503 66.979 346.915 66.5675 347.16 65.9796C347.404 65.3917 347.532 64.5882 347.532 63.5496V51.6547C347.532 51.2529 347.63 50.9492 347.836 50.7434C348.041 50.5377 348.345 50.4397 348.747 50.4397C349.149 50.4397 349.452 50.5377 349.658 50.7434C349.864 50.9492 349.962 51.2529 349.962 51.6547V63.5496C349.962 65.7542 349.433 67.3807 348.384 68.4389C347.336 69.4971 345.7 70.0164 343.485 70.0164H340.017H339.997Z" fill="#FFB01C"/>
<path d="M361.935 70.0165C361.435 70.0165 361.043 69.7029 360.749 69.0661L353.616 52.174C353.469 51.8409 353.43 51.5372 353.499 51.2726C353.567 51.0081 353.783 50.7925 354.165 50.6161C354.949 50.2242 355.517 50.4202 355.841 51.2236L362.582 67.1946H361.749L368.323 51.2236C368.637 50.43 369.195 50.234 369.999 50.6161C370.332 50.7925 370.548 51.0081 370.626 51.2726C370.704 51.5372 370.685 51.8409 370.548 52.174L363.356 69.0661C363.062 69.7029 362.621 70.0165 362.053 70.0165H361.935Z" fill="#FFB01C"/>
<path d="M375.565 70.0167C374.751 70.0167 374.35 69.6149 374.35 68.8017V51.6451C374.35 50.8319 374.751 50.4302 375.565 50.4302H385.931C386.744 50.4302 387.146 50.8319 387.146 51.6451C387.146 52.4584 386.744 52.8601 385.931 52.8601H376.78V58.9252H382.531C383.344 58.9252 383.746 59.3269 383.746 60.1401C383.746 60.9534 383.344 61.3551 382.531 61.3551H376.78V67.5965H385.931C386.744 67.5965 387.146 67.9983 387.146 68.8115C387.146 69.6247 386.744 70.0265 385.931 70.0265H375.565V70.0167Z" fill="#FFB01C"/>
<path d="M404.361 70.0657C404.047 70.2714 403.743 70.3302 403.449 70.2518C403.165 70.1734 402.911 69.9775 402.715 69.6639L398.237 62.2173H394.19V68.8017C394.19 69.6149 393.788 70.0167 392.975 70.0167C392.162 70.0167 391.76 69.6149 391.76 68.8017V51.6451C391.76 50.8319 392.162 50.4302 392.975 50.4302H399.736C401.5 50.4302 402.842 50.9005 403.783 51.8411C404.723 52.7817 405.194 54.1339 405.194 55.8877V56.75C405.194 58.2785 404.841 59.5033 404.126 60.4145C403.41 61.3257 402.381 61.894 401.039 62.1096L404.821 68.4196C405.184 69.0956 405.037 69.6443 404.361 70.0657ZM394.2 59.7874H399.746C400.843 59.7874 401.627 59.5523 402.088 59.0917C402.548 58.6312 402.783 57.8474 402.783 56.75V55.8877C402.783 54.8001 402.548 54.0261 402.088 53.5558C401.627 53.0855 400.843 52.8601 399.746 52.8601H394.2V59.7874Z" fill="#FFB01C"/>
<path d="M414.786 53.1735C415.56 53.1735 415.942 53.5557 415.942 54.3297V55.0548C415.942 55.8092 415.56 56.1816 414.786 56.1816H414.091C413.356 56.1816 412.993 55.8092 412.993 55.0548V54.3297C412.993 53.5557 413.356 53.1735 414.091 53.1735H414.786ZM415.482 49.3621C415.776 49.3621 416.06 49.4796 416.325 49.705C416.589 49.9304 416.638 50.2635 416.462 50.6946L414.963 54.6531L413.052 53.8692L414.551 49.9402C414.61 49.7638 414.727 49.6266 414.904 49.5188C415.08 49.4111 415.276 49.3621 415.472 49.3621H415.482Z" fill="#FFB01C"/>
<path d="M432.237 70.0164H421.439C420.616 70.0164 420.195 69.6147 420.195 68.8014C420.195 67.5081 420.401 66.4107 420.812 65.4995C421.224 64.5882 421.743 63.824 422.39 63.1871C423.026 62.56 423.712 62.0211 424.428 61.59C425.153 61.1491 425.819 60.7572 426.436 60.3946C427.504 59.7871 428.396 59.2678 429.111 58.8171C429.826 58.3664 430.365 57.9255 430.718 57.465C431.071 57.0045 431.247 56.4362 431.247 55.7797C431.247 54.6333 431.041 53.8593 430.63 53.4575C430.218 53.0558 429.454 52.8598 428.327 52.8598H425.241C424.339 52.8598 423.663 52.9774 423.232 53.2224C422.801 53.4673 422.527 53.9082 422.409 54.5647C422.341 54.9468 422.213 55.2408 422.017 55.4466C421.821 55.6523 421.527 55.7503 421.135 55.7503C420.743 55.7503 420.42 55.6425 420.214 55.427C419.999 55.2114 419.92 54.8979 419.95 54.4765C420.156 53.1244 420.685 52.1054 421.557 51.4391C422.429 50.7728 423.653 50.4397 425.241 50.4397H428.327C430.14 50.4397 431.482 50.8806 432.354 51.7526C433.226 52.6247 433.667 53.967 433.667 55.7797C433.667 56.9359 433.383 57.8961 432.815 58.6799C432.246 59.454 431.502 60.1399 430.581 60.7278C429.66 61.3156 428.66 61.9133 427.602 62.511C426.828 62.9519 426.103 63.3929 425.417 63.8436C424.731 64.2943 424.143 64.8038 423.653 65.3917C423.164 65.9796 422.85 66.7144 422.693 67.5963H432.227C433.04 67.5963 433.442 67.998 433.442 68.8112C433.442 69.6245 433.04 70.0262 432.227 70.0262L432.237 70.0164Z" fill="#FFB01C"/>
<path d="M442.085 70.0164C440.399 70.0164 439.096 69.6637 438.175 68.9582C437.254 68.2527 436.705 67.1651 436.51 65.6856C436.47 65.2839 436.559 64.9704 436.774 64.745C436.99 64.5196 437.293 64.4119 437.695 64.4119C438.44 64.4119 438.851 64.8136 438.939 65.6268C439.077 66.3813 439.38 66.8908 439.851 67.1749C440.321 67.4591 441.066 67.5963 442.085 67.5963H445.377C446.621 67.5963 447.464 67.3709 447.915 66.9202C448.365 66.4695 448.591 65.6366 448.591 64.4119C448.591 63.1871 448.365 62.364 447.915 61.9133C447.464 61.4626 446.621 61.2373 445.377 61.2373H443.153C442.339 61.2373 441.938 60.8355 441.938 60.0223C441.938 59.209 442.339 58.8073 443.153 58.8073H446.474C447.082 58.8073 447.503 58.533 447.748 57.9941C447.993 57.4552 448.12 56.7105 448.12 55.7797C448.12 54.6333 447.915 53.8593 447.503 53.4575C447.092 53.0558 446.327 52.8598 445.2 52.8598H442.398C441.497 52.8598 440.821 52.9774 440.39 53.2224C439.958 53.4673 439.684 53.9082 439.567 54.5647C439.449 55.3584 439.028 55.7503 438.293 55.7503C437.891 55.7503 437.578 55.6425 437.372 55.427C437.156 55.2114 437.088 54.8979 437.137 54.4765C437.333 53.1244 437.862 52.1054 438.734 51.4391C439.606 50.7728 440.821 50.4397 442.398 50.4397H445.2C447.013 50.4397 448.356 50.8806 449.228 51.7526C450.1 52.6247 450.54 53.967 450.54 55.7797C450.54 57.5923 450.041 58.8171 449.041 59.5618C449.708 59.9929 450.198 60.6102 450.521 61.4136C450.844 62.2171 451.001 63.2165 451.001 64.4119C451.001 66.3225 450.54 67.7236 449.629 68.6447C448.718 69.5657 447.297 70.0164 445.367 70.0164H442.075H442.085Z" fill="#FFB01C"/>
</svg>
