<?xml version="1.0" encoding="UTF-8"?><svg id="Layer_1" xmlns="http://www.w3.org/2000/svg" width="154" height="168" viewBox="0 0 154 168"><defs><style>.cls-1{fill:#ec1944;}.cls-2{fill:#fff;}.cls-3{fill:#f0f3f5;}.cls-4{fill:#4e4540;}.cls-5{fill:none;stroke:#f0f3f5;stroke-miterlimit:10;stroke-width:2px;}.cls-6{opacity:.98;}</style></defs><rect class="cls-2" x="5" y="5" width="144" height="158" rx="10" ry="10"/><g><g><path class="cls-3" d="M15,5h124c5.52,0,10,4.48,10,10v22H5V15c0-5.52,4.48-10,10-10Z"/><g><path class="cls-4" d="M31.45,24.59v.97h-4.57v-7.11h1.18v6.14h3.39Z"/><path class="cls-4" d="M34.52,22.37v2.22h3.43v.97h-4.61v-7.11h4.58v.97h-3.41v2h2.94v.95h-2.94Z"/><path class="cls-4" d="M41,23.92l-.48,1.64h-1.22l2.31-7.11h1.04l2.28,7.11h-1.22l-.48-1.64h-2.23Zm1.94-1.01l-.82-2.81-.83,2.81h1.65Z"/><path class="cls-4" d="M47.47,22.8v2.76h-1.17v-7.11h2.26c.37,0,.71,.05,1.02,.14,.31,.09,.58,.22,.8,.4,.22,.18,.39,.4,.52,.67,.12,.27,.19,.58,.19,.93,0,.24-.03,.47-.09,.66s-.15,.38-.27,.54c-.11,.16-.25,.3-.41,.42-.16,.12-.34,.22-.53,.31l1.52,2.97v.06h-1.25l-1.36-2.76h-1.2Zm1.1-.96c.21,0,.4-.04,.56-.1,.17-.06,.31-.15,.43-.26,.1-.1,.19-.22,.24-.36s.09-.31,.09-.49c0-.21-.03-.38-.09-.54s-.16-.28-.28-.39c-.11-.1-.25-.17-.42-.22-.16-.05-.34-.08-.55-.08h-1.08v2.44h1.1Z"/><path class="cls-4" d="M56.2,25.55l-2.31-4.89v4.89h-1.19v-7.11h1.19l2.29,4.87v-4.87h1.19v7.11h-1.18Z"/><path class="cls-4" d="M66.86,21.49l.97-3.04h1.46v7.11h-1.1v-2.41l.07-3.17-1.09,3.39h-.61l-.99-3.28,.06,3.06v2.41h-1.1v-7.11h1.46l.88,3.04Z"/><path class="cls-4" d="M75.83,23.3c-.05,.27-.12,.52-.22,.76-.1,.24-.23,.46-.38,.66-.15,.2-.32,.37-.52,.52-.19,.13-.4,.23-.63,.31s-.48,.11-.75,.11-.54-.04-.78-.12c-.24-.08-.45-.19-.63-.33-.19-.14-.35-.32-.5-.52s-.26-.42-.35-.66c-.09-.23-.16-.48-.21-.74-.04-.26-.07-.53-.07-.81v-.94c0-.29,.02-.57,.07-.84s.12-.53,.22-.77c.09-.23,.21-.44,.35-.64,.14-.19,.3-.36,.49-.51,.18-.14,.39-.25,.62-.32,.23-.08,.49-.11,.77-.11s.54,.04,.78,.12c.24,.08,.45,.19,.64,.33,.19,.14,.35,.3,.49,.49,.14,.19,.26,.4,.35,.62,.1,.24,.18,.5,.23,.77,.05,.27,.08,.56,.08,.86v.94c0,.29-.03,.56-.08,.83Zm-1.14-2.3c-.02-.17-.05-.34-.09-.49-.05-.18-.11-.34-.19-.49-.08-.15-.18-.27-.29-.38-.1-.09-.22-.16-.35-.21-.13-.05-.28-.08-.44-.08s-.3,.03-.43,.08-.24,.12-.33,.21c-.11,.11-.21,.24-.29,.38s-.14,.31-.18,.5c-.04,.16-.07,.32-.08,.5-.02,.17-.03,.35-.03,.52v.95c0,.17,0,.34,.02,.51,.02,.17,.04,.33,.08,.49,.04,.18,.1,.34,.17,.49s.16,.28,.27,.38c.1,.1,.22,.17,.35,.23s.28,.09,.46,.09,.32-.03,.45-.08c.13-.06,.25-.13,.35-.22,.11-.11,.21-.24,.29-.38,.08-.15,.14-.31,.18-.49,.04-.16,.07-.32,.09-.49,.02-.17,.03-.34,.03-.52v-.95c0-.18-.01-.35-.03-.53Z"/><path class="cls-4" d="M78.77,22.8v2.76h-1.17v-7.11h2.26c.37,0,.71,.05,1.02,.14,.31,.09,.58,.22,.8,.4,.22,.18,.39,.4,.52,.67,.12,.27,.19,.58,.19,.93,0,.24-.03,.47-.09,.66s-.15,.38-.27,.54c-.11,.16-.25,.3-.41,.42-.16,.12-.34,.22-.53,.31l1.52,2.97v.06h-1.25l-1.36-2.76h-1.2Zm1.1-.96c.21,0,.4-.04,.56-.1,.17-.06,.31-.15,.43-.26,.1-.1,.19-.22,.24-.36s.09-.31,.09-.49c0-.21-.03-.38-.09-.54s-.16-.28-.28-.39c-.11-.1-.25-.17-.42-.22-.16-.05-.34-.08-.55-.08h-1.08v2.44h1.1Z"/><path class="cls-4" d="M85.33,22.37v2.22h3.43v.97h-4.61v-7.11h4.58v.97h-3.41v2h2.94v.95h-2.94Z"/><path class="cls-4" d="M97.11,23.92l-.48,1.64h-1.22l2.31-7.11h1.04l2.28,7.11h-1.22l-.48-1.64h-2.23Zm1.94-1.01l-.82-2.81-.83,2.81h1.65Z"/><path class="cls-4" d="M102.38,18.45h2.28c.35,0,.67,.04,.97,.11s.57,.19,.79,.35c.22,.16,.39,.36,.52,.6,.12,.24,.19,.53,.19,.86,0,.2-.04,.39-.1,.56-.07,.17-.16,.33-.29,.46-.09,.1-.19,.18-.29,.26-.11,.07-.24,.14-.38,.2h0c.21,.06,.39,.15,.54,.25,.15,.11,.28,.23,.38,.36,.1,.14,.18,.3,.24,.48s.08,.36,.08,.55c0,.34-.06,.64-.18,.89-.12,.26-.29,.47-.51,.64-.22,.18-.48,.31-.78,.4-.3,.09-.63,.13-.98,.13h-2.46v-7.11Zm2.3,3c.19,0,.37-.03,.53-.08s.3-.12,.41-.21c.1-.08,.18-.19,.24-.31s.09-.26,.09-.42c0-.17-.03-.31-.08-.43s-.13-.22-.23-.3c-.11-.1-.25-.17-.42-.21s-.35-.07-.55-.07h-1.11v2.03h1.12Zm-1.12,3.14h1.29c.19,0,.36-.03,.51-.08,.15-.05,.28-.12,.39-.21,.12-.09,.21-.21,.27-.35s.09-.29,.09-.46c0-.18-.03-.34-.08-.48-.05-.14-.13-.26-.23-.35-.1-.1-.23-.17-.38-.23-.15-.05-.32-.08-.51-.09h-1.35v2.25Z"/><path class="cls-4" d="M113.64,23.3c-.05,.27-.12,.52-.22,.76-.1,.24-.23,.46-.38,.66-.15,.2-.32,.37-.52,.52-.19,.13-.4,.23-.63,.31s-.48,.11-.75,.11-.54-.04-.78-.12c-.24-.08-.45-.19-.63-.33-.19-.14-.35-.32-.5-.52s-.26-.42-.35-.66c-.09-.23-.16-.48-.21-.74-.04-.26-.07-.53-.07-.81v-.94c0-.29,.02-.57,.07-.84s.12-.53,.22-.77c.09-.23,.21-.44,.35-.64,.14-.19,.3-.36,.49-.51,.18-.14,.39-.25,.62-.32,.23-.08,.49-.11,.77-.11s.54,.04,.78,.12c.24,.08,.45,.19,.64,.33,.19,.14,.35,.3,.49,.49,.14,.19,.26,.4,.35,.62,.1,.24,.18,.5,.23,.77,.05,.27,.08,.56,.08,.86v.94c0,.29-.03,.56-.08,.83Zm-1.14-2.3c-.02-.17-.05-.34-.09-.49-.05-.18-.11-.34-.19-.49-.08-.15-.18-.27-.29-.38-.1-.09-.22-.16-.35-.21-.13-.05-.28-.08-.44-.08s-.3,.03-.43,.08-.24,.12-.33,.21c-.11,.11-.21,.24-.29,.38s-.14,.31-.18,.5c-.04,.16-.07,.32-.08,.5-.02,.17-.03,.35-.03,.52v.95c0,.17,0,.34,.02,.51,.02,.17,.04,.33,.08,.49,.04,.18,.1,.34,.17,.49s.16,.28,.27,.38c.1,.1,.22,.17,.35,.23s.28,.09,.46,.09,.32-.03,.45-.08c.13-.06,.25-.13,.35-.22,.11-.11,.21-.24,.29-.38,.08-.15,.14-.31,.18-.49,.04-.16,.07-.32,.09-.49,.02-.17,.03-.34,.03-.52v-.95c0-.18-.01-.35-.03-.53Z"/><path class="cls-4" d="M120.02,23.2c0,.37-.06,.7-.17,1s-.27,.56-.48,.77c-.21,.21-.46,.38-.75,.5-.29,.12-.62,.18-.98,.18s-.67-.06-.96-.17c-.29-.12-.53-.28-.73-.5-.21-.21-.36-.47-.48-.78s-.17-.64-.17-1.01v-4.76h1.17v4.76c.01,.22,.04,.43,.09,.62,.05,.19,.13,.35,.23,.48,.1,.12,.22,.22,.36,.29s.31,.1,.5,.1,.36-.04,.51-.1c.15-.07,.27-.17,.37-.3,.1-.13,.18-.29,.23-.48,.05-.18,.08-.39,.09-.61v-4.76h1.17v4.76Z"/><path class="cls-4" d="M124.75,19.42v6.14h-1.17v-6.14h-2.18v-.97h5.54v.97h-2.19Z"/></g></g><rect class="cls-5" x="5" y="5" width="144" height="158" rx="10" ry="10"/><g><path class="cls-4" d="M137,119.62c0-.97-.8-1.77-1.77-1.77s-1.77,.8-1.77,1.77,.8,1.77,1.77,1.77c.97,0,1.77-.8,1.77-1.77Zm-1.77,1.34c-.74,0-1.34-.6-1.34-1.34s.6-1.34,1.34-1.34,1.34,.6,1.34,1.34-.6,1.34-1.34,1.34Z"/><path class="cls-4" d="M135.88,119.28h0c0-.17-.06-.31-.14-.4-.11-.11-.26-.17-.49-.17h-.66v1.74h.37v-.57h.23l.31,.57h.4l-.37-.66c.23-.09,.34-.23,.34-.51Zm-.37,.03c0,.14-.09,.26-.29,.26h-.26v-.51h.26c.2-.03,.29,.09,.29,.26h0Z"/><path class="cls-4" d="M30.1,114.42v-.23c0-4.2-2.77-7.26-6.52-7.26s-6.58,3.12-6.58,7.29v.23c0,4.2,2.77,7.23,6.52,7.23s6.58-3.09,6.58-7.26Zm-10.06-.06v-.17c0-2.66,1.37-4.6,3.49-4.6s3.55,1.97,3.55,4.63v.17c0,2.66-1.37,4.63-3.49,4.63-2.06,0-3.55-2-3.55-4.66Z"/><path class="cls-4" d="M44.53,114.47v-.37c0-4.8-2.69-7.18-5.52-7.18-2.03,0-3.26,1.17-4.15,2.54v-2.29h-3.03v18.27h3.03v-6.2c.86,1.26,2.09,2.4,4.15,2.4,2.86,0,5.52-2.4,5.52-7.18Zm-9.75-.06v-.26c0-2.8,1.54-4.57,3.37-4.57s3.29,1.74,3.29,4.57v.23c0,2.83-1.46,4.57-3.29,4.57s-3.37-1.74-3.37-4.55Z"/><path class="cls-4" d="M57.66,119.48l-1.57-1.89c-.94,.91-1.94,1.52-3.26,1.52-1.86,0-3.32-1.29-3.6-3.69h8.92c.03-.43,.03-.86,.03-1.06,0-4.26-2.03-7.49-5.89-7.49-3.49,0-6.06,3.06-6.06,7.32v.2c0,4.46,2.83,7.23,6.49,7.23,2.09,.06,3.66-.77,4.95-2.14Zm-5.4-10.04c1.77,0,2.8,1.63,2.94,3.89h-6c.2-2.4,1.37-3.89,3.06-3.89Z"/><path class="cls-4" d="M67.04,106.9c-1.94,0-3.09,1.09-3.89,2.37v-2.09h-3.03v14.21h3.03v-8.61c0-1.97,1.09-3.15,2.69-3.15s2.54,1.09,2.54,3.09v8.66h3.03v-9.52c0-3.03-1.63-4.97-4.37-4.97Z"/><path class="cls-4" d="M83.65,117.33h0c0-2.26-1.66-3.26-3.86-4.26-1.66-.74-2.8-1.23-2.8-2.17v-.06c0-.77,.66-1.4,1.8-1.4s2.32,.54,3.37,1.26l1.29-2.23c-1.34-.97-3.03-1.52-4.6-1.52-2.66,0-4.69,1.6-4.69,4.15v.06c0,2.34,1.77,3.29,3.89,4.2,1.69,.71,2.8,1.17,2.8,2.2v.03c0,.89-.71,1.54-1.97,1.54s-2.63-.63-3.92-1.66l-1.43,2.17c1.63,1.37,3.6,1.97,5.29,1.97,2.72,.03,4.83-1.49,4.83-4.29Z"/><path class="cls-4" d="M93.03,120.99v-2.49c-.51,.26-1.06,.4-1.63,.4-.97,0-1.52-.46-1.52-1.54v-7.58h3.17v-2.6h-3.2v-3.83h-3.03v3.83h-1.54l.49,2.6h1.06v8.18c0,2.77,1.57,3.66,3.69,3.66,1.03-.03,1.83-.26,2.52-.63Z"/><path class="cls-4" d="M104.63,108.47c-.91-.94-2.34-1.46-4.17-1.46s-3.32,.46-4.69,1.12l.86,2.4c.94-.43,2.06-.86,3.43-.86,1.94,0,3.06,1,3.06,2.89v.6c-.97-.31-1.94-.57-3.26-.57-3,0-5.03,1.52-5.03,4.57v.14c0,2.77,1.97,4.35,4.35,4.35,1.86,0,3.12-.8,3.95-2v1.74h2.97v-8.83c-.03-1.77-.51-3.15-1.46-4.09Zm-1.49,8.15c0,1.6-1.34,2.8-3.09,2.77-1.32-.03-2.32-.83-2.32-2.26v-.06c0-1.52,1.03-2.4,2.77-2.4,1.03,0,1.94,.23,2.63,.51v1.43h0Z"/><path class="cls-4" d="M118.96,119.53l-1.63-2c-.83,.83-1.66,1.46-2.89,1.46-2.06,0-3.52-1.86-3.52-4.6v-.17c0-2.69,1.46-4.57,3.43-4.57,1.29,0,2.12,.66,2.86,1.43l1.69-2.23c-1.17-1.17-2.52-1.94-4.57-1.94-3.72,0-6.49,3.06-6.49,7.29v.26c0,4.23,2.69,7.21,6.38,7.21,2.2,.03,3.6-.86,4.75-2.12Z"/><g><polygon class="cls-4" points="128.22 114.02 126.11 116.3 128.97 121.39 132.48 121.39 128.22 114.02"/><polygon class="cls-4" points="128.74 107.18 123.88 113.41 123.88 102.01 120.85 102.01 120.85 121.39 123.88 121.39 123.88 117.27 132.34 107.18 128.74 107.18"/></g><g class="cls-6"><path class="cls-1" d="M87.11,67.52h-24.19c-1.52,0-2.77,1.23-2.77,2.77v6.52h6.72v-1.06c0-.83,.66-1.49,1.49-1.49h13.32c.83,0,1.49,.66,1.49,1.49v1.06h6.72v-6.52c0-1.52-1.26-2.77-2.77-2.77Z"/><path class="cls-1" d="M83.16,88.43c0,.83-.66,1.49-1.49,1.49h-13.32c-.83,0-1.49-.66-1.49-1.49v-1.06h-6.72v6.52c0,1.52,1.23,2.77,2.77,2.77h24.19c1.52,0,2.77-1.23,2.77-2.77v-6.52h-6.72v1.06Z"/><rect class="cls-1" x="60.15" y="78.73" width="6.72" height="6.72"/><rect class="cls-1" x="83.16" y="78.73" width="6.72" height="6.72"/></g></g></g></svg>