<svg width="18" height="20" viewBox="0 0 18 20" fill="none" xmlns="http://www.w3.org/2000/svg">
<g clip-path="url(#clip0)">
<path d="M0 18.125C0 19.1602 0.828937 20 1.85065 20H15.4221C16.4438 20 17.2727 19.1602 17.2727 18.125V7.5H0V18.125ZM12.3377 10.4688C12.3377 10.2109 12.5459 10 12.8003 10H14.3425C14.597 10 14.8052 10.2109 14.8052 10.4688V12.0312C14.8052 12.2891 14.597 12.5 14.3425 12.5H12.8003C12.5459 12.5 12.3377 12.2891 12.3377 12.0312V10.4688ZM12.3377 15.4688C12.3377 15.2109 12.5459 15 12.8003 15H14.3425C14.597 15 14.8052 15.2109 14.8052 15.4688V17.0312C14.8052 17.2891 14.597 17.5 14.3425 17.5H12.8003C12.5459 17.5 12.3377 17.2891 12.3377 17.0312V15.4688ZM7.4026 10.4688C7.4026 10.2109 7.6108 10 7.86526 10H9.40747C9.66193 10 9.87013 10.2109 9.87013 10.4688V12.0312C9.87013 12.2891 9.66193 12.5 9.40747 12.5H7.86526C7.6108 12.5 7.4026 12.2891 7.4026 12.0312V10.4688ZM7.4026 15.4688C7.4026 15.2109 7.6108 15 7.86526 15H9.40747C9.66193 15 9.87013 15.2109 9.87013 15.4688V17.0312C9.87013 17.2891 9.66193 17.5 9.40747 17.5H7.86526C7.6108 17.5 7.4026 17.2891 7.4026 17.0312V15.4688ZM2.46753 10.4688C2.46753 10.2109 2.67573 10 2.9302 10H4.4724C4.72687 10 4.93507 10.2109 4.93507 10.4688V12.0312C4.93507 12.2891 4.72687 12.5 4.4724 12.5H2.9302C2.67573 12.5 2.46753 12.2891 2.46753 12.0312V10.4688ZM2.46753 15.4688C2.46753 15.2109 2.67573 15 2.9302 15H4.4724C4.72687 15 4.93507 15.2109 4.93507 15.4688V17.0312C4.93507 17.2891 4.72687 17.5 4.4724 17.5H2.9302C2.67573 17.5 2.46753 17.2891 2.46753 17.0312V15.4688ZM15.4221 2.5H13.5714V0.625C13.5714 0.28125 13.2938 0 12.9545 0H11.7208C11.3815 0 11.1039 0.28125 11.1039 0.625V2.5H6.16883V0.625C6.16883 0.28125 5.89123 0 5.55195 0H4.31818C3.9789 0 3.7013 0.28125 3.7013 0.625V2.5H1.85065C0.828937 2.5 0 3.33984 0 4.375V6.25H17.2727V4.375C17.2727 3.33984 16.4438 2.5 15.4221 2.5Z" fill="#F7B749"/>
</g>
<defs>
<clipPath id="clip0">
<rect width="17.2727" height="20" fill="white"/>
</clipPath>
</defs>
</svg>
