<?xml version="1.0" encoding="utf-8"?>
<!-- Generator: Adobe Illustrator 26.0.2, SVG Export Plug-In . SVG Version: 6.00 Build 0)  -->
<svg version="1.1" id="Layer_1" xmlns="http://www.w3.org/2000/svg" xmlns:xlink="http://www.w3.org/1999/xlink" x="0px" y="0px"
	 viewBox="0 0 814.6 625.9" style="enable-background:new 0 0 814.6 625.9;" xml:space="preserve">
<style type="text/css">
	.st0{fill:#EC1944;}
	.st1{opacity:0.25;}
	.st2{clip-path:url(#SVGID_00000100371961884151518740000013352731058338188673_);}
	.st3{fill:#830029;}
	.st4{opacity:0.5;fill:#00497B;enable-background:new    ;}
	.st5{fill:#FFFFFF;}
	.st6{clip-path:url(#SVGID_00000154388405582852900940000006242974879982253479_);}
	.st7{opacity:0.5;fill:#1AA5DE;enable-background:new    ;}
	.st8{fill:#1AA5DE;}
	.st9{fill:#00497B;}
	.st10{opacity:0.5;}
	.st11{fill:none;}
	.st12{opacity:0.35;fill:#830029;enable-background:new    ;}
</style>
<polygon class="st0" points="752.3,148.7 10.6,254.4 7.9,221.4 736.3,113.8 "/>
<path class="st0" d="M747.2,144.1c-13.3-32.1-43.7-60.6-75.9-68.6L418.2,12.7c-18.6-4.6-42.5-5.2-67.2-1.7s-47.5,10.8-64.1,20.4
	l-225.6,131C32.6,179,11.4,214.9,7.6,249.5L747.2,144.1z"/>
<path class="st0" d="M40.9,463.6c14.8,28.5,42.6,52.8,71.8,60l253.2,62.8c18.6,4.6,42.5,5.2,67.2,1.7s47.5-10.8,64.1-20.4l225.6-131
	c26.1-15.1,46-46.2,52.2-77.7L40.9,463.6z"/>
<g class="st1">
	<g>
		<defs>
			<path id="SVGID_1_" d="M758.3,172.8c-5.4-13.6-18.2-58-28.9-69.9c-16.8-18.6-37.6-31.7-58.6-36.8L420.4,4.2
				c-19.7-4.9-44.8-5.5-70.7-1.9S300,13.7,282.4,23.9L59.2,153.3c-18.7,10.8-35,29.2-46,51.8c-7,14.3-6.8,60.6-8.2,75.2L758.3,172.8
				z"/>
		</defs>
		<clipPath id="SVGID_00000100376188834676960680000018190374326174868873_">
			<use xlink:href="#SVGID_1_"  style="overflow:visible;"/>
		</clipPath>
		<g style="clip-path:url(#SVGID_00000100376188834676960680000018190374326174868873_);">
			<path class="st3" d="M890.2,240.6L257.1-230.7c-0.9-0.6-2.1-0.4-2.8,0.4c-0.6,0.9-0.4,2.1,0.4,2.7l633.1,471.3
				c0.4,0.3,0.9,0.4,1.5,0.4c0.5-0.1,1-0.4,1.3-0.8C891.3,242.5,891.1,241.3,890.2,240.6z"/>
			<path class="st3" d="M241.4-228.4c-0.9-0.6-2.1-0.4-2.7,0.4c-0.6,0.9-0.5,2.1,0.4,2.8L872.2,246c0.4,0.3,0.9,0.4,1.5,0.4
				c0.5-0.1,1-0.3,1.3-0.8c0.6-0.9,0.5-2.1-0.4-2.8L241.4-228.4z"/>
			<path class="st3" d="M225.7-226.2c-0.9-0.6-2.1-0.5-2.8,0.4c-0.6,0.9-0.5,2.1,0.4,2.8l633.1,471.3c1,0.5,2.2,0,2.7-0.9
				c0.3-0.7,0.2-1.6-0.3-2.2L225.7-226.2z"/>
			<path class="st3" d="M210-224c-0.9-0.6-2.1-0.5-2.8,0.4c-0.6,0.9-0.4,2.1,0.4,2.8l633.1,471.3c0.4,0.3,0.9,0.4,1.5,0.4
				c0.5-0.1,1-0.4,1.3-0.8c0.6-0.9,0.4-2.1-0.4-2.8L210-224z"/>
			<path class="st3" d="M194.3-221.7c-0.9-0.6-2.1-0.4-2.7,0.4c-0.6,0.9-0.5,2.1,0.4,2.8l633.1,471.3c1,0.5,2.2,0.1,2.7-0.9
				c0.4-0.7,0.2-1.6-0.3-2.2L194.3-221.7z"/>
			<path class="st3" d="M178.6-219.5c-0.9-0.6-2.1-0.4-2.8,0.4c-0.6,0.9-0.5,2.1,0.4,2.8L809.4,255c0.9,0.6,2.1,0.4,2.8-0.4
				c0.6-0.9,0.5-2.1-0.4-2.8L178.6-219.5z"/>
			<path class="st3" d="M162.9-217.3c-0.9-0.6-2.1-0.5-2.8,0.4c-0.6,0.9-0.5,2.1,0.4,2.8l633.1,471.3c0.7,0.8,2,0.9,2.8,0.1
				s0.9-2,0.1-2.8c-0.2-0.2-0.4-0.4-0.6-0.5"/>
			<path class="st3" d="M147.2-215c-0.9-0.6-2.1-0.4-2.7,0.4c-0.6,0.9-0.5,2.1,0.4,2.8L778,259.5c0.7,0.8,2,0.9,2.8,0.1
				c0.8-0.7,0.9-2,0.1-2.8c-0.2-0.2-0.4-0.3-0.6-0.4L147.2-215z"/>
			<path class="st3" d="M762.3,261.7c0.9,0.6,2.1,0.5,2.8-0.4c0.6-0.9,0.5-2.1-0.4-2.8L131.5-212.8c-0.9-0.6-2.1-0.4-2.8,0.4
				c-0.6,0.9-0.4,2.1,0.4,2.7"/>
			<path class="st3" d="M115.8-210.5c-0.9-0.6-2.1-0.5-2.8,0.4c-0.6,0.9-0.5,2.1,0.4,2.8l633.1,471.3c0.7,0.8,2,0.9,2.8,0.1
				s0.9-2,0.1-2.8c-0.2-0.2-0.4-0.4-0.6-0.5L115.8-210.5z"/>
			<path class="st3" d="M100.1-208.3c-0.9-0.6-2.1-0.5-2.8,0.4c-0.6,0.9-0.4,2.1,0.4,2.8l633.1,471.3c0.9,0.6,2.1,0.4,2.8-0.4
				c0.6-0.9,0.4-2.1-0.4-2.7"/>
			<path class="st3" d="M84.4-206.1c-0.9-0.6-2.1-0.5-2.8,0.4c-0.6,0.9-0.5,2.1,0.4,2.8l633.1,471.3c0.9,0.6,2.1,0.5,2.8-0.4
				c0.6-0.9,0.5-2.1-0.4-2.8L84.4-206.1z"/>
			<path class="st3" d="M68.8-203.8c-0.9-0.6-2.1-0.5-2.8,0.4c-0.6,0.9-0.5,2.1,0.4,2.8l633.1,471.3c0.4,0.3,0.9,0.4,1.5,0.4
				c1.1-0.2,1.8-1.2,1.6-2.3c-0.1-0.5-0.3-0.9-0.7-1.2"/>
			<path class="st3" d="M53-201.6c-0.9-0.6-2.1-0.4-2.8,0.4c-0.6,0.9-0.4,2.1,0.4,2.8l633.1,471.3c0.9,0.6,2.1,0.4,2.8-0.4
				c0.6-0.9,0.5-2.1-0.4-2.8L53-201.6z"/>
			<path class="st3" d="M37.4-199.4c-0.9-0.6-2.1-0.5-2.8,0.4c-0.6,0.9-0.5,2.1,0.4,2.8l633.1,471.3c0.4,0.3,0.9,0.4,1.5,0.4
				c0.5-0.1,1-0.3,1.3-0.8c0.6-0.9,0.5-2.1-0.4-2.8"/>
			<path class="st3" d="M21.7-197.1c-0.9-0.6-2.1-0.5-2.8,0.4c-0.6,0.9-0.5,2.1,0.4,2.8l633.1,471.3c0.4,0.3,0.9,0.4,1.5,0.4
				c0.5-0.1,1-0.4,1.3-0.8c0.6-0.9,0.4-2.1-0.4-2.8L21.7-197.1z"/>
			<path class="st3" d="M6-194.9c-0.9-0.6-2.1-0.5-2.8,0.4c-0.6,0.9-0.4,2.1,0.4,2.8l633.2,471.3c0.9,0.6,2.1,0.5,2.8-0.4
				c0.6-0.9,0.5-2.1-0.4-2.8"/>
			<path class="st3" d="M-9.7-192.7c-0.9-0.6-2.1-0.5-2.8,0.4c-0.6,0.9-0.5,2.1,0.4,2.8L621,281.8c0.9,0.6,2.1,0.5,2.8-0.4
				c0.6-0.9,0.5-2.1-0.4-2.8L-9.7-192.7z"/>
			<path class="st3" d="M605.3,284.1c0.4,0.3,0.9,0.5,1.4,0.4c0.5-0.1,1-0.4,1.3-0.8c0.6-0.9,0.4-2.1-0.4-2.8L-25.4-190.4
				c-0.9-0.6-2.1-0.4-2.8,0.4c-0.6,0.9-0.5,2.1,0.4,2.8"/>
			<path class="st3" d="M-41.1-188.2c-0.9-0.6-2.1-0.5-2.8,0.4c-0.6,0.9-0.4,2.1,0.4,2.8l633.1,471.3c0.7,0.8,2,0.9,2.8,0.1
				c0.8-0.7,0.9-2,0.1-2.8c-0.2-0.2-0.4-0.3-0.6-0.4L-41.1-188.2z"/>
			<path class="st3" d="M573.9,288.5c0.9,0.6,2.1,0.5,2.8-0.4c0.6-0.9,0.5-2.1-0.4-2.8L-56.8-186c-0.9-0.6-2.1-0.5-2.8,0.4
				c-0.6,0.9-0.5,2.1,0.4,2.8"/>
			<path class="st3" d="M-72.5-183.7c-0.9-0.6-2.1-0.4-2.8,0.4c-0.6,0.9-0.4,2.1,0.4,2.7l633.1,471.3c0.4,0.3,0.9,0.4,1.5,0.4
				c0.5-0.1,1-0.4,1.3-0.8c0.6-0.9,0.4-2.1-0.4-2.8L-72.5-183.7z"/>
			<path class="st3" d="M-88.2-181.5c-0.9-0.6-2.1-0.5-2.8,0.4c-0.6,0.9-0.4,2.1,0.4,2.8L542.5,293c0.7,0.8,2,0.9,2.8,0.1
				c0.8-0.7,0.9-2,0.1-2.8c-0.2-0.2-0.4-0.3-0.6-0.4"/>
			<path class="st3" d="M-103.9-179.2c-0.9-0.6-2.1-0.5-2.8,0.4c-0.6,0.9-0.5,2.1,0.4,2.8l633.1,471.3c0.9,0.6,2.1,0.4,2.8-0.4
				c0.6-0.9,0.4-2.1-0.4-2.7L-103.9-179.2z"/>
			<path class="st3" d="M-119.6-177c-0.9-0.6-2.1-0.5-2.8,0.4c-0.6,0.9-0.5,2.1,0.4,2.8l633.1,471.3c0.4,0.3,0.9,0.4,1.5,0.4
				c0.5-0.1,1-0.4,1.3-0.8c0.6-0.9,0.4-2.1-0.4-2.8"/>
			<path class="st3" d="M-135.3-174.8c-0.9-0.6-2.1-0.5-2.8,0.4c-0.6,0.9-0.4,2.1,0.4,2.8l633.1,471.3c1,0.5,2.2,0.1,2.7-0.9
				c0.4-0.7,0.2-1.6-0.3-2.2L-135.3-174.8z"/>
			<path class="st3" d="M479.8,301.9c0.4,0.3,0.9,0.4,1.5,0.4c0.5-0.1,1-0.3,1.3-0.8c0.6-0.9,0.5-2.1-0.4-2.8L-151-172.5
				c-0.9-0.6-2.1-0.4-2.8,0.4c-0.6,0.9-0.5,2.1,0.4,2.8"/>
			<path class="st3" d="M-166.7-170.3c-0.9-0.6-2.1-0.5-2.8,0.4c-0.6,0.9-0.5,2.1,0.4,2.8l633.1,471.3c0.7,0.8,2,0.9,2.8,0.1
				c0.8-0.7,0.9-2,0.1-2.8c-0.2-0.2-0.4-0.4-0.6-0.5L-166.7-170.3z"/>
			<path class="st3" d="M-182.4-168.1c-0.9-0.6-2.1-0.5-2.8,0.4c-0.6,0.9-0.4,2.1,0.4,2.8l633.1,471.4c0.7,0.8,2,0.9,2.8,0.1
				c0.8-0.7,0.9-2,0.1-2.8c-0.2-0.2-0.4-0.3-0.6-0.4"/>
			<path class="st3" d="M-198.1-165.8c-0.9-0.6-2.1-0.5-2.8,0.4c-0.6,0.9-0.5,2.1,0.4,2.8l633.1,471.3c0.9,0.6,2.1,0.5,2.8-0.4
				c0.6-0.9,0.5-2.1-0.4-2.8L-198.1-165.8z"/>
			<path class="st3" d="M-213.8-163.6c-0.9-0.6-2.1-0.5-2.8,0.4c-0.6,0.9-0.5,2.1,0.4,2.8L417,310.9c0.4,0.3,0.9,0.4,1.5,0.4
				c1.1-0.2,1.8-1.2,1.6-2.3c-0.1-0.5-0.3-0.9-0.7-1.2"/>
			<path class="st3" d="M-229.5-161.4c-0.9-0.6-2.1-0.4-2.8,0.4c-0.6,0.9-0.4,2.1,0.4,2.8l633.1,471.3c0.4,0.3,1,0.4,1.5,0.3
				c0.5-0.1,1-0.4,1.3-0.8c0.6-0.9,0.5-2.1-0.4-2.8L-229.5-161.4z"/>
			<path class="st3" d="M-245.2-159.1c-0.9-0.6-2.1-0.5-2.8,0.4c-0.6,0.9-0.5,2.1,0.4,2.8l633.2,471.3c0.4,0.3,0.9,0.4,1.5,0.4
				c0.5-0.1,1-0.3,1.3-0.8c0.6-0.9,0.5-2.1-0.4-2.8"/>
			<path class="st3" d="M-260.9-156.9c-0.9-0.6-2.1-0.5-2.8,0.4c-0.6,0.9-0.5,2.1,0.4,2.8l633.1,471.3c0.4,0.3,0.9,0.4,1.5,0.4
				c0.5-0.1,1-0.4,1.3-0.8c0.6-0.9,0.4-2.1-0.4-2.8L-260.9-156.9z"/>
			<path class="st3" d="M354.2,319.8c0.4,0.3,0.9,0.4,1.5,0.4c1.1-0.2,1.8-1.2,1.6-2.3c-0.1-0.5-0.3-0.9-0.7-1.2l-633.1-471.3
				c-0.9-0.6-2.1-0.4-2.8,0.4c-0.6,0.9-0.4,2.1,0.4,2.7"/>
			<path class="st3" d="M-292.2-152.4c-0.9-0.6-2.1-0.5-2.8,0.4c-0.6,0.9-0.5,2.1,0.4,2.8l633.1,471.3c0.4,0.3,0.9,0.4,1.5,0.4
				c0.5-0.1,1-0.3,1.3-0.8c0.6-0.9,0.5-2.1-0.4-2.8L-292.2-152.4z"/>
			<path class="st3" d="M322.8,324.3c0.4,0.3,0.9,0.4,1.5,0.4c0.5-0.1,1-0.4,1.3-0.8c0.6-0.9,0.4-2.1-0.4-2.7L-308-150.2
				c-0.9-0.6-2.1-0.5-2.8,0.4c-0.6,0.9-0.5,2.1,0.4,2.8"/>
			<path class="st3" d="M-323.7-147.9c-0.9-0.6-2.1-0.5-2.8,0.4c-0.6,0.9-0.4,2.1,0.4,2.8l633.1,471.3c0.4,0.3,0.9,0.4,1.5,0.4
				c1.1-0.2,1.8-1.2,1.6-2.3c-0.1-0.5-0.3-0.9-0.7-1.2L-323.7-147.9z"/>
			<path class="st3" d="M291.4,328.8c0.9,0.6,2.1,0.5,2.8-0.4c0.6-0.9,0.5-2.1-0.4-2.8l-633.1-471.3c-0.9-0.6-2.1-0.5-2.8,0.4
				c-0.6,0.9-0.5,2.1,0.4,2.8"/>
			<path class="st3" d="M-355.1-143.5c-0.9-0.6-2.1-0.4-2.8,0.4c-0.6,0.9-0.5,2.1,0.4,2.8L275.7,331c1,0.5,2.2,0.1,2.7-0.9
				c0.4-0.7,0.2-1.6-0.3-2.2L-355.1-143.5z"/>
			<path class="st3" d="M260,333.2c1,0.5,2.2,0.1,2.7-0.9c0.4-0.7,0.2-1.6-0.3-2.2l-633.1-471.3c-0.9-0.6-2.1-0.5-2.8,0.4
				c-0.6,0.9-0.4,2.1,0.4,2.8"/>
			<path class="st3" d="M-386.5-139c-0.9-0.6-2.1-0.5-2.8,0.4c-0.6,0.9-0.5,2.1,0.4,2.8l633.1,471.3c0.9,0.6,2.1,0.5,2.8-0.4
				c0.6-0.9,0.5-2.1-0.4-2.8L-386.5-139z"/>
			<path class="st3" d="M-402.2-136.8c-0.9-0.6-2.1-0.5-2.8,0.4c-0.6,0.9-0.5,2.1,0.4,2.8l633.1,471.3c0.4,0.3,0.9,0.4,1.4,0.4
				c0.5-0.1,1-0.4,1.3-0.8c0.6-0.9,0.4-2.1-0.4-2.8L-402.2-136.8z"/>
			<path class="st3" d="M-417.9-134.5c-0.9-0.6-2.1-0.5-2.8,0.4c-0.6,0.9-0.4,2.1,0.4,2.8L212.9,340c0.7,0.8,2,0.9,2.8,0.1
				s0.9-2,0.1-2.8c-0.2-0.2-0.4-0.3-0.6-0.4L-417.9-134.5z"/>
			<path class="st3" d="M-433.5-132.3c-0.9-0.6-2.1-0.4-2.8,0.4c-0.6,0.9-0.5,2.1,0.4,2.8l633.1,471.3c0.9,0.6,2.1,0.4,2.8-0.4
				c0.6-0.9,0.5-2.1-0.4-2.8L-433.5-132.3z"/>
			<path class="st3" d="M-449.2-130.1c-0.9-0.6-2.1-0.5-2.8,0.4c-0.6,0.9-0.5,2.1,0.4,2.7l633.1,471.4c0.7,0.8,2,0.9,2.8,0.1
				c0.8-0.7,0.9-2,0.1-2.8c-0.2-0.2-0.4-0.4-0.6-0.5L-449.2-130.1z"/>
			<path class="st3" d="M-464.9-127.8c-0.9-0.6-2.1-0.5-2.8,0.4c-0.6,0.9-0.4,2.1,0.4,2.8l633.1,471.3c0.4,0.3,0.9,0.4,1.4,0.4
				c0.5-0.1,1-0.4,1.3-0.8c0.6-0.9,0.5-2.1-0.4-2.8L-464.9-127.8z"/>
		</g>
	</g>
</g>
<path class="st4" d="M760.3,133c-6.8-7.6-14.5-14.3-22.8-20.2c12.2,16.3,20.2,34.4,22.7,52.2l22.5,157.8c3,21.4-1.3,45.6-12.2,68.1
	s-27.3,40.9-46,51.8L501.3,572.1c-17.6,10.2-41.5,17.8-67.3,21.5s-50.9,3-70.7-1.9l-250.5-61.9c-12.9-3.3-25-9-35.8-16.7
	c2.5,3.3,5.2,6.6,8.1,9.8c16.8,18.6,37.6,31.7,58.6,36.9l250.5,61.9c19.7,4.9,44.8,5.5,70.7,1.9s49.7-11.3,67.3-21.5l223.2-129.4
	c18.7-10.8,35-29.2,46-51.8s15.3-46.7,12.2-68.1L791.1,195C788.1,173.6,777.1,151.6,760.3,133z"/>
<rect x="5.2" y="193.8" transform="matrix(0.99 -0.1411 0.1411 0.99 -23.9507 55.2472)" class="st5" width="745" height="5.6"/>
<g class="st1">
	<g>
		<defs>
			<path id="SVGID_00000145057545892804649470000014803856340050294406_" d="M37.7,460.8c5.4,13.6,4.9,13.7,15.5,25.5
				c16.8,18.6,37.6,31.7,58.6,36.9l250.5,61.9c19.7,4.9,44.8,5.5,70.7,1.9s49.8-11.3,67.3-21.5L723.6,436c18.7-10.9,35-29.2,46-51.8
				c7-14.3,3.4-13.9,4.8-28.4L37.7,460.8z"/>
		</defs>
		<clipPath id="SVGID_00000160908913066348154260000015103521080565899393_">
			<use xlink:href="#SVGID_00000145057545892804649470000014803856340050294406_"  style="overflow:visible;"/>
		</clipPath>
		<g style="clip-path:url(#SVGID_00000160908913066348154260000015103521080565899393_);">
			<path class="st3" d="M-107.5,348.6L525.6,820c0.7,0.8,2,0.9,2.8,0.1c0.8-0.7,0.9-2,0.1-2.8c-0.2-0.2-0.4-0.3-0.6-0.4
				l-633.1-471.3c-0.4-0.3-0.9-0.4-1.4-0.4c-0.5,0.1-1,0.3-1.3,0.8C-108.5,346.7-108.4,348-107.5,348.6z"/>
			<path class="st3" d="M541.3,817.7c0.7,0.8,2,0.9,2.8,0.1s0.9-2,0.1-2.8c-0.2-0.2-0.4-0.4-0.6-0.5L-89.5,343.2
				c-0.4-0.3-0.9-0.4-1.4-0.4c-0.5,0.1-1,0.4-1.3,0.8c-0.6,0.9-0.4,2.1,0.4,2.7L541.3,817.7z"/>
			<path class="st3" d="M557,815.5c1,0.5,2.2,0,2.7-0.9c0.3-0.7,0.2-1.6-0.3-2.2L-73.8,341c-0.4-0.3-0.9-0.4-1.4-0.4
				c-0.5,0.1-1,0.3-1.3,0.8c-0.6,0.9-0.5,2.1,0.4,2.8L557,815.5z"/>
			<path class="st3" d="M572.7,813.3c0.7,0.8,2,0.9,2.8,0.1c0.8-0.7,0.9-2,0.1-2.8c-0.2-0.2-0.4-0.3-0.6-0.4L-58.1,338.8
				c-0.4-0.3-0.9-0.4-1.5-0.4c-0.5,0.1-1,0.4-1.3,0.8c-0.6,0.9-0.5,2.1,0.4,2.8L572.7,813.3z"/>
			<path class="st3" d="M588.4,811c1,0.5,2.2,0.2,2.7-0.8c0.4-0.8,0.3-1.7-0.3-2.4L-42.4,336.5c-0.4-0.3-0.9-0.4-1.5-0.4
				c-0.5,0.1-1,0.4-1.3,0.8c-0.6,0.9-0.4,2.1,0.4,2.8L588.4,811z"/>
			<path class="st3" d="M604.1,808.8c1,0.5,2.2,0,2.7-0.9c0.3-0.7,0.2-1.6-0.3-2.2L-26.7,334.3c-0.4-0.3-0.9-0.4-1.5-0.4
				c-0.5,0.1-1,0.4-1.3,0.8c-0.6,0.9-0.5,2.1,0.4,2.8L604.1,808.8z"/>
			<path class="st3" d="M619.8,806.5c1,0.5,2.2,0.1,2.7-0.9c0.4-0.7,0.2-1.6-0.3-2.2L-11,332.1c-0.4-0.3-0.9-0.4-1.4-0.4
				c-0.5,0.1-1,0.4-1.3,0.8c-0.6,0.9-0.5,2.1,0.4,2.8"/>
			<path class="st3" d="M635.5,804.3c0.7,0.8,2,0.9,2.8,0.1s0.9-2,0.1-2.8c-0.2-0.2-0.4-0.4-0.6-0.5L4.7,329.8
				c-0.4-0.3-0.9-0.4-1.5-0.4c-1.1,0.2-1.8,1.2-1.6,2.3c0.1,0.5,0.3,0.9,0.7,1.2L635.5,804.3z"/>
			<path class="st3" d="M20.4,327.6c-1-0.5-2.2-0.1-2.7,0.9c-0.4,0.7-0.2,1.6,0.3,2.2l633.1,471.3c1,0.5,2.2,0,2.7-0.9
				c0.3-0.7,0.2-1.6-0.3-2.2"/>
			<path class="st3" d="M666.9,799.8c1,0.5,2.2,0.1,2.7-0.9c0.4-0.7,0.2-1.7-0.3-2.3L36.1,325.4c-1-0.5-2.2,0-2.7,1
				c-0.3,0.7-0.2,1.6,0.3,2.2L666.9,799.8z"/>
			<path class="st3" d="M682.6,797.6c0.7,0.8,2,0.9,2.8,0.1s0.9-2,0.1-2.8c-0.2-0.2-0.4-0.4-0.6-0.5L51.8,323.1
				c-0.7-0.8-2-0.9-2.8-0.1c-0.8,0.7-0.9,2-0.1,2.8c0.2,0.2,0.4,0.4,0.6,0.5"/>
			<path class="st3" d="M698.3,795.4c1,0.5,2.2,0,2.7-0.9c0.3-0.7,0.2-1.6-0.3-2.2L67.5,320.9c-1-0.5-2.2-0.1-2.7,0.9
				c-0.4,0.7-0.2,1.6,0.3,2.2L698.3,795.4z"/>
			<path class="st3" d="M714,793.1c0.9,0.6,2.1,0.4,2.8-0.4c0.6-0.9,0.4-2.1-0.4-2.7L83.2,318.7c-0.9-0.6-2.1-0.4-2.7,0.4
				c-0.6,0.9-0.5,2.1,0.4,2.8"/>
			<path class="st3" d="M729.7,790.9c0.7,0.8,2,0.9,2.8,0.1s0.9-2,0.1-2.8c-0.2-0.2-0.4-0.4-0.6-0.5L98.9,316.5
				c-0.7-0.8-2-0.9-2.8-0.1c-0.8,0.7-0.9,2-0.1,2.8c0.2,0.2,0.4,0.4,0.6,0.5L729.7,790.9z"/>
			<path class="st3" d="M745.4,788.7c1,0.5,2.2,0,2.7-0.9c0.3-0.7,0.2-1.6-0.3-2.2L114.6,314.2c-0.4-0.3-0.9-0.4-1.4-0.4
				c-0.5,0.1-1,0.4-1.3,0.8c-0.6,0.9-0.4,2.1,0.4,2.7"/>
			<path class="st3" d="M761.1,786.5c0.7,0.8,2,0.9,2.8,0.1c0.8-0.7,0.9-2,0.1-2.8c-0.2-0.2-0.4-0.3-0.6-0.4L130.3,311.9
				c-0.9-0.6-2.1-0.4-2.7,0.4c-0.6,0.9-0.5,2.1,0.4,2.8L761.1,786.5z"/>
			<path class="st3" d="M776.8,784.2c0.7,0.8,2,0.9,2.8,0.1s0.9-2,0.1-2.8c-0.2-0.2-0.4-0.4-0.6-0.5L146,309.7
				c-0.4-0.3-0.9-0.4-1.4-0.4c-0.5,0.1-1,0.4-1.3,0.8c-0.6,0.9-0.4,2.1,0.4,2.8"/>
			<path class="st3" d="M792.5,782c1,0.5,2.2,0.1,2.7-0.9c0.4-0.7,0.2-1.6-0.3-2.2L161.7,307.5c-0.9-0.6-2.1-0.4-2.8,0.4
				c-0.6,0.9-0.5,2.1,0.4,2.8L792.5,782z"/>
			<path class="st3" d="M177.4,305.2c-0.4-0.3-0.9-0.4-1.4-0.4c-0.5,0.1-1,0.3-1.3,0.8c-0.6,0.9-0.5,2.1,0.4,2.8l633.1,471.3
				c0.7,0.8,2,0.9,2.8,0.1c0.8-0.7,0.9-2,0.1-2.8c-0.2-0.2-0.4-0.3-0.6-0.4"/>
			<path class="st3" d="M823.8,777.5c0.7,0.8,2,0.9,2.8,0.1s0.9-2,0.1-2.8c-0.2-0.2-0.4-0.4-0.6-0.5L193.1,303
				c-0.4-0.3-0.9-0.4-1.4-0.4c-0.5,0.1-1,0.4-1.3,0.8c-0.6,0.9-0.4,2.1,0.4,2.8L823.8,777.5z"/>
			<path class="st3" d="M208.8,300.8c-0.4-0.3-0.9-0.4-1.4-0.4c-1.1,0.2-1.8,1.2-1.6,2.3c0.1,0.5,0.3,0.9,0.7,1.2l633.1,471.3
				c1,0.5,2.2,0,2.7-0.9c0.3-0.7,0.2-1.6-0.3-2.2"/>
			<path class="st3" d="M855.2,773c0.7,0.8,2,0.9,2.8,0.1c0.8-0.7,0.9-2,0.1-2.8c-0.2-0.2-0.4-0.3-0.6-0.4L224.5,298.5
				c-1-0.5-2.2,0-2.7,0.9c-0.3,0.7-0.2,1.6,0.3,2.2L855.2,773z"/>
			<path class="st3" d="M870.9,770.8c0.8,0.8,2,0.9,2.8,0.1c0.8-0.8,0.9-2,0.1-2.8c-0.2-0.2-0.4-0.3-0.6-0.4L240.2,296.3
				c-0.4-0.3-0.9-0.4-1.4-0.4c-0.5,0.1-1,0.4-1.3,0.8c-0.6,0.9-0.4,2.1,0.4,2.8"/>
			<path class="st3" d="M886.6,768.5c1,0.5,2.2,0,2.7-0.9c0.3-0.7,0.2-1.6-0.3-2.2L255.9,294.1c-1-0.5-2.2-0.1-2.7,0.9
				c-0.4,0.7-0.2,1.6,0.3,2.2L886.6,768.5z"/>
			<path class="st3" d="M902.3,766.3c0.7,0.8,2,0.9,2.8,0.1c0.8-0.7,0.9-2,0.1-2.8c-0.2-0.2-0.4-0.3-0.6-0.4L271.6,291.8
				c-1-0.5-2.2,0-2.7,0.9c-0.3,0.7-0.2,1.6,0.3,2.2"/>
			<path class="st3" d="M918,764.1c0.9,0.6,2.1,0.4,2.8-0.4c0.6-0.9,0.5-2.1-0.4-2.7c0,0,0,0,0,0L287.3,289.6
				c-0.4-0.3-0.9-0.4-1.5-0.4c-0.5,0.1-1,0.4-1.3,0.8c-0.6,0.9-0.4,2.1,0.4,2.8L918,764.1z"/>
			<path class="st3" d="M303,287.3c-1-0.5-2.2-0.1-2.7,0.9c-0.4,0.7-0.2,1.6,0.3,2.2l633.2,471.3c1,0.5,2.2,0,2.7-0.9
				c0.3-0.7,0.2-1.6-0.3-2.2"/>
			<path class="st3" d="M949.4,759.6c0.7,0.8,2,0.9,2.8,0.2c0.8-0.7,0.9-2,0.2-2.8c-0.2-0.2-0.4-0.4-0.7-0.5L318.6,285.1
				c-1-0.5-2.2,0-2.7,0.9c-0.3,0.7-0.2,1.6,0.3,2.2L949.4,759.6z"/>
			<path class="st3" d="M965.1,757.4c0.7,0.8,2,0.9,2.8,0.1s0.9-2,0.1-2.8c-0.2-0.2-0.4-0.4-0.6-0.5L334.3,282.9
				c-0.4-0.3-0.9-0.4-1.5-0.4c-0.5,0.1-1,0.4-1.3,0.8c-0.6,0.9-0.4,2.1,0.4,2.8"/>
			<path class="st3" d="M980.8,755.1c1,0.5,2.2,0,2.7-0.9c0.3-0.7,0.2-1.6-0.3-2.2L350,280.6c-0.7-0.8-2-0.9-2.8-0.1
				c-0.8,0.7-0.9,2-0.1,2.8c0.2,0.2,0.4,0.3,0.6,0.4L980.8,755.1z"/>
			<path class="st3" d="M996.5,752.9c1,0.5,2.2,0.1,2.7-0.9c0.4-0.7,0.2-1.7-0.3-2.3L365.8,278.4c-0.4-0.3-0.9-0.4-1.5-0.4
				c-0.5,0.1-1,0.3-1.3,0.8c-0.6,0.9-0.5,2.1,0.4,2.8"/>
			<path class="st3" d="M1012.2,750.6c0.7,0.8,2,0.9,2.8,0.1c0.8-0.7,0.9-2,0.1-2.8c-0.2-0.2-0.4-0.3-0.6-0.4L381.4,276.2
				c-0.7-0.8-2-0.9-2.8-0.1c-0.8,0.7-0.9,2-0.1,2.8c0.2,0.2,0.4,0.4,0.6,0.5L1012.2,750.6z"/>
			<path class="st3" d="M1027.9,748.4c1,0.5,2.2,0,2.7-0.9c0.3-0.7,0.2-1.6-0.3-2.2L397.1,273.9c-0.9-0.6-2.1-0.4-2.8,0.4
				c-0.6,0.9-0.4,2.1,0.4,2.7"/>
			<path class="st3" d="M1043.6,746.2c0.7,0.8,2,0.9,2.8,0.1c0.8-0.7,0.9-2,0.1-2.8c-0.2-0.2-0.4-0.3-0.6-0.4L412.8,271.7
				c-0.9-0.6-2.1-0.5-2.8,0.4c-0.6,0.9-0.5,2.1,0.4,2.8L1043.6,746.2z"/>
			<path class="st3" d="M428.5,269.5c-0.4-0.3-0.9-0.4-1.5-0.4c-1.1,0.2-1.8,1.2-1.6,2.3c0.1,0.5,0.3,0.9,0.7,1.2l633.1,471.3
				c0.7,0.8,2,0.9,2.8,0.1c0.8-0.7,0.9-2,0.1-2.8c-0.2-0.2-0.4-0.3-0.6-0.4"/>
			<path class="st3" d="M1075,741.7c1,0.5,2.2,0.1,2.7-0.9c0.4-0.7,0.2-1.6-0.3-2.2L444.2,267.2c-0.4-0.3-0.9-0.4-1.5-0.4
				c-0.5,0.1-1,0.4-1.3,0.8c-0.6,0.9-0.5,2.1,0.4,2.8L1075,741.7z"/>
			<path class="st3" d="M459.9,265c-0.4-0.3-0.9-0.4-1.5-0.4c-0.5,0.1-1,0.3-1.3,0.8c-0.6,0.9-0.5,2.1,0.4,2.8l633.1,471.3
				c0.7,0.8,2,0.9,2.8,0.1c0.8-0.7,0.9-2,0.1-2.8c-0.2-0.2-0.4-0.3-0.6-0.4"/>
			<path class="st3" d="M1106.4,737.2c0.7,0.8,2,0.9,2.8,0.1c0.8-0.7,0.9-2,0.1-2.8c-0.2-0.2-0.4-0.3-0.6-0.4L475.6,262.7
				c-0.4-0.3-0.9-0.4-1.5-0.4c-0.5,0.1-1,0.4-1.3,0.8c-0.6,0.9-0.4,2.1,0.4,2.8L1106.4,737.2z"/>
			<path class="st3" d="M491.3,260.5c-0.4-0.3-0.9-0.4-1.5-0.4c-1.1,0.2-1.8,1.2-1.6,2.3c0.1,0.5,0.3,0.9,0.7,1.2L1122.1,735
				c1,0.5,2.2,0,2.7-0.9c0.3-0.7,0.2-1.6-0.3-2.2"/>
			<path class="st3" d="M1137.8,732.8c0.7,0.8,2,0.9,2.8,0.1c0.8-0.7,0.9-2,0.1-2.8c-0.2-0.2-0.4-0.3-0.6-0.4L507,258.3
				c-0.4-0.3-0.9-0.4-1.5-0.4c-0.5,0.1-1,0.3-1.3,0.8c-0.6,0.9-0.5,2.1,0.4,2.8L1137.8,732.8z"/>
			<path class="st3" d="M522.7,256c-0.4-0.3-0.9-0.4-1.5-0.4c-0.5,0.1-1,0.4-1.3,0.8c-0.6,0.9-0.4,2.1,0.4,2.7l633.1,471.3
				c1,0.5,2.2,0.1,2.7-0.9c0.4-0.7,0.2-1.7-0.3-2.3"/>
			<path class="st3" d="M1169.2,728.3c1,0.5,2.2,0,2.7-0.9c0.3-0.7,0.2-1.6-0.3-2.2L538.4,253.8c-0.4-0.3-0.9-0.4-1.5-0.4
				c-1.1,0.2-1.8,1.2-1.6,2.3c0.1,0.5,0.3,0.9,0.7,1.2L1169.2,728.3z"/>
			<path class="st3" d="M1184.9,726c0.7,0.8,2,0.9,2.8,0.1c0.8-0.7,0.9-2,0.1-2.8c-0.2-0.2-0.4-0.3-0.6-0.4L554.1,251.6
				c-0.9-0.6-2.1-0.5-2.8,0.4c-0.6,0.9-0.5,2.1,0.4,2.8L1184.9,726z"/>
			<path class="st3" d="M1200.6,723.8c1,0.5,2.2,0.1,2.7-0.9c0.4-0.7,0.2-1.7-0.3-2.3L569.8,249.3c-0.8-0.8-2-0.9-2.8-0.1
				s-0.9,2-0.1,2.8c0.2,0.2,0.4,0.3,0.6,0.4L1200.6,723.8z"/>
			<path class="st3" d="M1216.3,721.6c1,0.5,2.2,0,2.7-0.9c0.3-0.7,0.2-1.6-0.3-2.2L585.5,247.1c-0.7-0.8-2-0.9-2.8-0.1
				c-0.8,0.7-0.9,2-0.1,2.8c0.2,0.2,0.4,0.3,0.6,0.4L1216.3,721.6z"/>
			<path class="st3" d="M1232,719.3c0.7,0.8,2,0.9,2.8,0.1c0.8-0.7,0.9-2,0.1-2.8c-0.2-0.2-0.4-0.3-0.6-0.4L601.2,244.9
				c-0.4-0.3-0.9-0.4-1.4-0.4c-1.1,0.2-1.8,1.2-1.6,2.3c0.1,0.5,0.3,0.9,0.7,1.2L1232,719.3z"/>
			<path class="st3" d="M1247.7,717.1c0.7,0.8,2,0.9,2.8,0.1c0.8-0.7,0.9-2,0.1-2.8c-0.2-0.2-0.4-0.3-0.6-0.4L616.9,242.6
				c-0.4-0.3-0.9-0.4-1.5-0.4c-0.5,0.1-1,0.4-1.3,0.8c-0.6,0.9-0.4,2.1,0.4,2.8L1247.7,717.1z"/>
		</g>
	</g>
</g>
<path class="st5" d="M776,355.3c0.5-0.8-0.5-1.9,0.4-2.3c0.1-0.1-0.4-5.4-0.8-4.6c2.6-9,4.4-11.6,4.2-19.9c0-1.2-1.6-3.5-0.7-4
	l-25.6-179.4L6.7,250.9l26.4,183.6c0.5,0.3-0.3,2.8,0,3.4c0.6,1.3,0.9,2.9,1.5,4.2c0.5,1-0.3,3.7,0.4,4.6c1.8,2.3,0.5,3.1,1.9,5.7
	c1,2,1.7,5.1,3.1,6.9c0.7,0.9,2.1,2.8,2.7,3.8l733.8-105.6C776.5,357.1,775.8,355.7,776,355.3z"/>
<rect x="5.1" y="193.2" transform="matrix(0.99 -0.1411 0.1411 0.99 -23.8441 55.5953)" class="st5" width="750.1" height="5.6"/>
<rect x="40.1" y="407.9" transform="matrix(0.99 -0.1412 0.1412 0.99 -53.9117 61.7508)" class="st5" width="735.9" height="5.6"/>
<path class="st7" d="M106.9,308l-33.7,4.8l-3.7-25.6l94.9-13.5l3.6,25.6l-33.7,4.8l15.4,108.4l-27.6,3.9L106.9,308z"/>
<path class="st7" d="M196.4,266.7l86.4-12.3l3.5,25.1l-58.8,8.4l4.1,28.9l51.7-7.4l3.6,25.1l-51.7,7.4l4.3,29.9l59.5-8.5l3.6,25.1
	l-87.1,12.4L196.4,266.7z"/>
<path class="st7" d="M358,245.2l26.4-3.8l67.2,127.9l-28.7,4.1l-14.1-27.7l-46.1,6.6l-5.6,30.5l-28,4L358,245.2z M396.9,322.5
	l-20.8-41.6l-8.5,45.8L396.9,322.5z"/>
<rect x="32.5" y="397.1" transform="matrix(0.9899 -0.1416 0.1416 0.9899 -52.7472 61.3405)" class="st8" width="744.3" height="8.4"/>
<rect x="6.5" y="201.6" transform="matrix(0.99 -0.1411 0.1411 0.99 -25.2128 55.8893)" class="st8" width="750.1" height="8.4"/>
<path class="st9" d="M95.4,297.8l-33.7,4.8L58,277l94.9-13.5l3.6,25.7l-33.7,4.8l15.4,108.4l-27.6,3.9L95.4,297.8z"/>
<path class="st5" d="M153,263.5l3.6,25.7l-33.7,4.8l15.4,108.4l-27.6,3.9L95.4,297.8l-33.7,4.8L58,277L153,263.5 M155,260.8
	l-2.4,0.3l-94.9,13.5l-2.4,0.3l0.3,2.4l3.7,25.6l0.3,2.4L62,305l31.3-4.5l15.1,106l0.3,2.4l2.4-0.3l27.6-4l2.4-0.3l-0.3-2.4
	l-15.1-106l31.3-4.5l2.4-0.3l-0.3-2.4l-3.7-25.7L155,260.8L155,260.8z"/>
<path class="st9" d="M185.2,258.9l86.3-12.3l3.6,25.1l-58.8,8.4l4.1,28.9l51.7-7.4l3.6,25.1l-51.7,7.4l4.3,29.9l59.5-8.5l3.6,25.1
	l-87.1,12.4L185.2,258.9z"/>
<path class="st5" d="M271.6,246.6l3.6,25.1l-58.8,8.4l4.1,28.9l51.7-7.4l3.6,25.1l-51.7,7.4l4.3,29.9l59.5-8.5l3.6,25.1l-87.1,12.4
	l-19.1-134L271.6,246.6 M273.6,243.9l-2.4,0.3l-86.3,12.3l-2.4,0.3l0.3,2.4l19.1,134l0.3,2.4l2.4-0.3l87.1-12.4l2.4-0.3l-0.3-2.4
	l-3.6-25.1l-0.3-2.4l-2.4,0.3l-57.2,8.1l-3.6-25.1l49.3-7l2.4-0.3l-0.3-2.4l-3.6-25.1l-0.3-2.4l-2.4,0.3l-49.3,7l-3.4-24.2l56.4-8
	l2.4-0.3l-0.3-2.4l-3.6-25.1L273.6,243.9L273.6,243.9z"/>
<path class="st9" d="M346.5,235.1l26.4-3.8l67.2,127.9l-28.7,4.1l-14.1-27.7l-46.1,6.6l-5.6,30.5l-28,4L346.5,235.1z M385.5,312.4
	l-20.8-41.6l-8.5,45.7L385.5,312.4z"/>
<path class="st5" d="M372.9,231.3l67.2,127.9l-28.7,4.1l-14.1-27.7l-46.1,6.6l-5.6,30.5l-28,4l28.9-141.6L372.9,231.3 M356.1,316.5
	l29.3-4.2l-20.8-41.6L356.1,316.5 M374.2,228.7l-1.7,0.2l-26.4,3.8l-1.7,0.2l-0.3,1.6l-28.8,141.6l-0.7,3.3l3.4-0.5l28-4l1.7-0.2
	l0.3-1.7l5.3-28.8l42.7-6.1l13.3,26.2l0.8,1.5l1.7-0.2l28.7-4.1l3.4-0.5l-1.6-3l-67.2-128L374.2,228.7L374.2,228.7z M359.1,313.7
	l6.6-35.4l16.1,32.2L359.1,313.7L359.1,313.7z"/>
<path class="st7" d="M462.2,231.2l29.1-4.1l37.6,50.1l21.7-58.6l29.3-4.2l19.1,134l-27.2,3.9l-12.2-85.6l-23.7,59.8l-0.6,0.1
	l-39.2-50.5l12.1,85.2l-27,3.8L462.2,231.2z"/>
<path class="st9" d="M450.8,221l29.1-4.1l37.6,50.1l21.7-58.5l29.3-4.2l19.1,134l-27.2,3.9l-12.2-85.6l-23.7,59.8l-0.6,0.1
	L484.7,266l12.1,85.2l-27,3.8L450.8,221z"/>
<path class="st5" d="M568.5,204.3l19.1,134l-27.2,3.9l-12.2-85.6l-23.7,59.8l-0.6,0.1L484.7,266l12.1,85.2l-27,3.8l-19-134l29.1-4.1
	l37.6,50.1l21.7-58.5L568.5,204.3 M570.5,201.6l-2.4,0.3l-29.3,4.2l-1.4,0.2l-0.5,1.3l-20.2,54.4l-34.9-46.6l-0.9-1.1l-1.4,0.2
	l-29.1,4.1L448,219l0.3,2.4l19.1,134l0.3,2.4l2.4-0.3l27-3.9l2.4-0.3l-0.3-2.4l-10.9-76.2L522,318l0.8,1.1l1.4-0.2l0.6-0.1l1.4-0.2
	l0.5-1.3l20.4-51.4l10.9,76.6l0.3,2.4l2.4-0.3l27.2-3.9l2.4-0.3l-0.3-2.4l-19.1-134L570.5,201.6L570.5,201.6z"/>
<path class="st7" d="M626.1,326.2l13.5-22.8c10.1,6.6,22.1,12.3,35.5,10.4c10.7-1.5,16.5-7.8,15.3-15.7v-0.2
	c-1-6.7-5.4-10.4-25.6-14.9c-25-5.8-41.1-12.7-44.3-35.7v-0.4c-3.3-23.4,12.4-41.8,38.2-45.5c16-2.4,32.2,1.3,45.6,10.3L691.9,235
	c-9.4-5.7-20-9.9-30.3-8.4c-9.6,1.4-14.8,7-13.8,13.9v0.2c1.1,7.7,6.2,10.6,28.3,16.3c24.7,5.9,38.7,14,41.7,34.9l0.1,0.4
	c3.5,24.9-13.2,42.9-39.3,46.6C660.1,341.5,641.4,337,626.1,326.2z"/>
<path class="st9" d="M614.7,316l13.5-22.8c10.1,6.6,22.1,12.3,35.5,10.4c10.7-1.5,16.5-7.8,15.3-15.7v-0.2
	c-1-6.7-5.4-10.4-25.6-14.9c-25-5.8-41.1-12.7-44.3-35.7v-0.4c-3.3-23.4,12.4-41.8,38.2-45.5c16-2.4,32.2,1.3,45.6,10.3l-12.5,23.3
	c-9.4-5.7-20-9.9-30.3-8.4c-9.6,1.4-14.8,7-13.8,13.9v0.2c1.1,7.7,6.2,10.6,28.3,16.3c24.7,5.9,38.7,14,41.7,34.9l0.1,0.4
	c3.5,24.9-13.2,42.9-39.3,46.6C648.7,331.4,629.9,326.8,614.7,316z"/>
<path class="st5" d="M656.9,190.6c12.8,0,25.4,3.8,36,11l-12.5,23.3c-8.1-4.9-17.1-8.7-26-8.7c-1.4,0-2.9,0.1-4.3,0.3
	c-9.6,1.4-14.8,7-13.8,13.9v0.2c1.1,7.7,6.2,10.6,28.3,16.3c24.7,5.9,38.7,14,41.7,34.9l0.1,0.4c3.5,24.9-13.2,42.9-39.3,46.6
	c-18.4,2.7-37.2-1.9-52.4-12.6l13.5-22.8c8.8,5.7,18.9,10.8,30.2,10.8c1.8,0,3.5-0.1,5.3-0.4c10.7-1.5,16.5-7.8,15.3-15.7v-0.2
	c-1-6.7-5.4-10.4-25.6-14.9c-25-5.8-41.1-12.7-44.3-35.7v-0.4c-3.3-23.4,12.4-41.8,38.2-45.5C650.6,190.8,653.8,190.6,656.9,190.6
	 M657,188.2c-3.3,0-6.7,0.2-10,0.7c-27.2,3.9-43.8,23.7-40.3,48.2l0.1,0.4c1.7,11.6,6.4,19.9,15,25.9s20,9.2,31.2,11.8
	c21,4.7,23.1,8.3,23.7,12.9v0.2c0.5,3-0.5,6-2.6,8.2c-2.3,2.4-6,4.1-10.7,4.7c-1.6,0.2-3.3,0.4-4.9,0.4c-5.5,0-14.6-1.1-28.9-10.4
	l-2.1-1.4l-1.3,2.1l-13.5,22.8l-1.1,1.9l1.8,1.3c12.7,9,27.8,13.8,43.4,13.8c3.6,0,7.2-0.3,10.7-0.8c13.6-1.9,24.7-7.5,32.2-16.2
	c7.8-9,10.9-20.4,9.1-33.2l-0.1-0.4c-1.5-10.7-6-18.7-13.6-24.6c-6.7-5.1-15.9-8.9-29.9-12.2c-21.9-5.6-25.6-8.3-26.5-14.3V230
	c-0.4-2.6,0.5-5.2,2.3-7c2.1-2.1,5.4-3.6,9.5-4.2c1.3-0.2,2.6-0.3,3.9-0.3c7.4,0,15.5,2.7,24.8,8.3l2.2,1.3l1.2-2.2l12.5-23.3l1-1.9
	l-1.8-1.2C683.2,192.1,670.2,188.2,657,188.2L657,188.2z"/>
<path class="st8" d="M558.1,184.8l-7.8-54.7c-1.1-7.4-9-12.5-17.6-11.2l-307,43.7c-8.6,1.2-14.8,8.3-13.8,15.7l7.8,54.7L558.1,184.8
	z"/>
<path class="st5" d="M244.3,171.8l13.9-2c9.4-1.3,16,3.2,17.3,12.1v0.1c1.4,9.6-4.8,15.4-13.5,16.8l-4.9,0.7l1.8,12.7l-8.6,1.2
	L244.3,171.8z M260.8,191.2c4.5-0.6,6.6-3.8,6-7.7v-0.1c-0.6-4.4-3.5-6.4-8.1-5.7l-4.7,0.7l1.9,13.5L260.8,191.2z"/>
<path class="st5" d="M284.4,166.1l15.7-2.2c4.8-0.7,8.9,0.1,11.9,2.4c2.6,1.9,4.3,5,4.9,9.2v0.2c0.9,6.3-1.7,10.8-6,13.4l11.1,14.2
	l-9.9,1.4l-9.6-12.6l-5.4,0.8l2,13.7l-8.6,1.2L284.4,166.1z M302.3,184.4c4.4-0.6,6.4-3.5,5.9-7.2v-0.1c-0.6-4.2-3.5-5.9-7.9-5.3
	l-6.2,0.9l1.8,12.6L302.3,184.4z"/>
<path class="st5" d="M328.6,181.6l-0.1-0.7c-1.8-12.5,4.8-22.4,15.9-24s20.1,6,21.9,18.5l0.1,0.7c1.8,12.5-4.8,22.4-15.9,24
	S330.4,194,328.6,181.6z M357.4,177.3l-0.1-0.4c-1.2-8.2-6.1-12.8-11.9-12s-9.2,6.6-8.1,14.8l0.1,0.4c1.2,8.2,6.1,12.8,11.9,12
	S358.5,185.5,357.4,177.3z"/>
<path class="st5" d="M375.3,190.9l4.4-6.8c2,1.7,4,2.8,6.4,2.4c2.9-0.4,4.5-2.5,3.9-6.8l-4-28l8.7-1.2l4,28.4
	c0.7,4.6-0.1,8.2-2.1,10.9s-5.1,4.3-9.1,4.8C383.1,195.3,378.6,193.9,375.3,190.9z"/>
<path class="st5" d="M407.8,148.6l26.9-3.8l1.1,7.8l-18.3,2.6l1.3,9l16.1-2.3l1.1,7.8l-16.1,2.3l1.3,9.3l18.6-2.6l1.1,7.8l-27.1,3.9
	L407.8,148.6z"/>
<path class="st5" d="M448.3,164.4l-0.1-0.5c-1.8-12.6,4.9-22.4,15.9-23.9c5-0.9,10.2,0.4,14.2,3.6l-4.2,7.4c-2.9-2.2-5.7-3.4-9.1-3
	c-5.6,0.8-9,6.6-7.8,14.7v0.2c1.2,8.3,6.2,12.8,11.7,12c3.3-0.5,5.6-2.4,8-5.6l6.1,5.4c-3.2,4.4-6.9,7.4-13.2,8.3
	C458.8,184.5,450.2,177.1,448.3,164.4z"/>
<path class="st5" d="M498.1,143.8l-10.5,1.5l-1.1-8l29.6-4.2l1.1,8l-10.5,1.5l4.8,33.8l-8.6,1.2L498.1,143.8z"/>
<g class="st10">
	<path class="st3" d="M270,479.8l-0.1-0.5c-1.6-11.1,4.6-20.1,14.8-21.6c4.5-0.8,9.1,0.1,12.9,2.6l-3.7,6.7
		c-2.3-1.8-5.3-2.6-8.2-2.1c-5.4,0.8-8.7,6.2-7.8,13.1l0.1,0.4c1.1,7.7,6,11.5,11.5,10.7c2-0.2,3.9-1,5.4-2.4l-1-6.6l-6.8,1l-1-6.8
		l14.2-2l2.5,17.3c-3.4,3.5-7.8,5.8-12.7,6.6C280,497.8,271.7,491.6,270,479.8z"/>
	<path class="st3" d="M320,453.1l7.4-1l18.8,35.8l-8,1.1l-4-7.8l-12.9,1.8l-1.6,8.5l-7.8,1.1L320,453.1z M330.9,474.7l-5.8-11.6
		l-2.4,12.8L330.9,474.7z"/>
	<path class="st3" d="M354.6,455.7l-9.4,1.3l-1-7.2l26.6-3.8l1,7.2l-9.4,1.4l4.3,30.3l-7.7,1.1L354.6,455.7z"/>
	<path class="st3" d="M380.7,444.7l7.8-1.1l2.1,15.1l12.3-1.8l-2.1-15.1l7.8-1.1l5.3,37.5l-7.8,1.1l-2.2-15.3l-12.3,1.8l2.2,15.3
		l-7.8,1.1L380.7,444.7z"/>
	<path class="st3" d="M420.8,439l24.2-3.4l1,7l-16.5,2.3l1.1,8.1l14.5-2.1l1,7l-14.5,2.1l1.2,8.4l16.7-2.4l1,7l-24.4,3.5L420.8,439z
		"/>
	<path class="st3" d="M456,433.9l14.1-2c4.3-0.6,8,0.1,10.7,2.1c2.5,2,4.1,5,4.4,8.2v0.2c0.8,5.7-1.5,9.7-5.4,12.1l10,12.8l-8.9,1.3
		l-8.7-11.3l-4.9,0.7l1.8,12.3l-7.8,1.1L456,433.9z M472.1,450.3c4-0.6,5.8-3.1,5.3-6.5v0c-0.5-3.8-3.1-5.3-7.1-4.7l-5.6,0.8
		l1.6,11.3L472.1,450.3z"/>
	<path class="st3" d="M494.6,428.5l7.8-1.1l5.3,37.5l-7.8,1.1L494.6,428.5z"/>
	<path class="st3" d="M513.8,425.7l7.1-1l17.5,19.8l-3.1-21.9l7.6-1.1l5.3,37.5l-6.7,1l-18.1-20.6l3.2,22.7l-7.6,1.1L513.8,425.7z"
		/>
	<path class="st3" d="M554.3,439.3l-0.1-0.5c-1.6-11.1,4.6-20.1,14.8-21.6c4.5-0.8,9.1,0.1,12.9,2.6l-3.7,6.7
		c-2.3-1.8-5.3-2.6-8.2-2.1c-5.4,0.8-8.7,6.2-7.8,13.1l0.1,0.4c1.1,7.7,6,11.5,11.5,10.7c2-0.2,3.9-1,5.3-2.4l-1-6.6l-6.8,1l-1-6.8
		l14.2-2l2.5,17.4c-3.4,3.5-7.8,5.8-12.7,6.6C564.3,457.3,556,451.1,554.3,439.3z"/>
</g>
<path class="st5" d="M266,474.7l-0.1-0.5c-1.6-11.1,4.6-20.1,14.8-21.6c4.5-0.8,9.1,0.1,12.9,2.6l-3.7,6.7c-2.3-1.8-5.3-2.6-8.2-2.1
	c-5.4,0.8-8.7,6.2-7.8,13.1l0.1,0.4c1.1,7.7,6,11.5,11.5,10.7c2-0.2,3.9-1,5.4-2.4l-1-6.6l-6.8,1l-1-6.8l14.2-2l2.5,17.3
	c-3.4,3.5-7.8,5.9-12.7,6.6C276,492.7,267.7,486.5,266,474.7z"/>
<path class="st5" d="M315.9,448l7.4-1l18.8,35.8l-8,1.1l-4-7.8l-12.9,1.8l-1.6,8.5l-7.8,1.1L315.9,448z M326.8,469.6L321,458
	l-2.4,12.8L326.8,469.6z"/>
<path class="st5" d="M350.5,450.6l-9.4,1.4l-1-7.2l26.6-3.8l1,7.2l-9.4,1.3l4.3,30.3l-7.7,1.1L350.5,450.6z"/>
<path class="st5" d="M376.6,439.5l7.8-1.1l2.1,15l12.3-1.8l-2.1-15l7.8-1.1l5.3,37.5l-7.8,1.1l-2.2-15.3l-12.3,1.8l2.1,15.3
	l-7.8,1.1L376.6,439.5z"/>
<path class="st5" d="M416.8,433.8l24.2-3.4l1,7l-16.5,2.4l1.1,8.1l14.5-2.1l1,7l-14.5,2.1l1.2,8.4l16.7-2.4l1,7l-24.4,3.5
	L416.8,433.8z"/>
<path class="st5" d="M451.9,428.8l14.1-2c4.3-0.6,8,0.1,10.7,2.1c2.5,2,4.1,5,4.4,8.2v0.2c0.8,5.7-1.5,9.7-5.4,12.1l10,12.8
	l-8.9,1.3l-8.7-11.3l-4.9,0.7l1.8,12.3l-7.8,1.1L451.9,428.8z M468.1,445.2c4-0.6,5.8-3.1,5.3-6.5v-0.1c-0.5-3.8-3.1-5.3-7.1-4.7
	l-5.6,0.8l1.6,11.3L468.1,445.2z"/>
<path class="st5" d="M490.5,423.3l7.8-1.1l5.4,37.5l-7.8,1.1L490.5,423.3z"/>
<path class="st5" d="M509.7,420.6l7.1-1l17.5,19.8l-3.1-21.9l7.6-1.1l5.3,37.5l-6.7,1l-18.1-20.6l3.2,22.7l-7.6,1.1L509.7,420.6z"/>
<path class="st5" d="M550.3,434.2l-0.1-0.5c-1.6-11.1,4.6-20.1,14.8-21.6c4.5-0.8,9.1,0.1,12.9,2.6l-3.7,6.7
	c-2.3-1.8-5.3-2.6-8.2-2.1c-5.4,0.8-8.7,6.2-7.8,13.1l0.1,0.4c1.1,7.7,6,11.5,11.5,10.7c2-0.2,3.9-1,5.3-2.4l-1-6.6l-6.8,1l-1-6.8
	l14.2-2l2.5,17.4c-3.4,3.5-7.8,5.9-12.7,6.6C560.3,452.2,551.9,446,550.3,434.2z"/>
<line class="st11" x1="10.4" y1="274.3" x2="10.3" y2="274.2"/>
<path class="st12" d="M27.9,243.3c0,0,4-12.8,8-21c5.2-10.8,11.8-20.8,19.7-29.7c7.3-8.3,15.9-15.5,25.4-21.1L190.7,108l109.6-63.5
	c9.5-5.4,19.6-9.7,30-13c23.6-7.4,48.3-10.9,73-10.4c11,0.2,21.9,1.6,32.5,4.1l123,30.4l123,30.4c5.5,1.4,10.8,3.2,16,5.5
	c5.4,2.4,10.6,5.2,15.5,8.4c-6.8-5.9-14.2-11-22-15.3c-7.4-4-15.4-7.1-23.6-9.2l-123-30.4L421.8,14.7c-10.6-2.5-21.5-3.9-32.5-4.1
	c-24.7-0.5-49.4,3-73,10.4c-10.4,3.3-20.5,7.6-30,13L176.6,97.5L67,161c-9.5,5.6-18.1,12.8-25.4,21.1c-7.9,9-14.5,19-19.7,29.7
	c-5.1,10.9-9,22.3-11.4,34.1"/>
<path class="st12" d="M741.9,420.1L518.6,549.5c-17.6,10.2-41.5,17.8-67.3,21.5s-50.9,3-70.7-1.9l-250.5-61.9
	c-13.1-3.2-31.7-4.4-66.7-44.6l-17.3,2.4c8.8,29.5,55.4,51.9,73.4,56.4l250.5,61.9c19.7,4.9,44.8,5.5,70.7,1.9s49.7-11.3,67.3-21.5
	l223.2-129.4c14.4-8.3,27.4-21.1,37.6-36.9C761.1,406.4,752,414.1,741.9,420.1z"/>
<path class="st5" d="M351.3,13.1c24.5-3.5,48.1-2.9,66.5,1.7l250.5,61.9c39.1,9.7,75.5,50,81.2,89.8l22.5,157.8
	c5.7,39.9-18,88.7-52.9,108.9L495.8,562.6c-16.4,9.5-38.9,16.7-63.4,20.2s-48.1,2.9-66.5-1.7l-250.5-61.9
	c-39.1-9.7-75.5-50-81.2-89.8L11.8,271.6c-5.7-39.9,18-88.7,52.9-108.9L287.9,33.3C304.3,23.8,326.8,16.6,351.3,13.1 M349.7,2.3
	C323.9,6,300,13.7,282.4,23.9L59.2,153.3c-18.7,10.8-35,29.2-46,51.8S-2.1,251.7,1,273.1l22.5,157.8c3,21.4,14,43.4,30.8,62
	s37.6,31.7,58.6,36.9l250.5,61.9c19.7,4.9,44.8,5.5,70.7,1.9s49.7-11.3,67.3-21.5l223.2-129.4c18.7-10.9,35-29.2,46-51.8
	s15.3-46.7,12.2-68.1L760.2,165c-3-21.4-14-43.4-30.8-62s-37.6-31.7-58.6-36.8L420.4,4.2C400.6-0.7,375.5-1.3,349.7,2.3z"/>
</svg>
