<svg id="Layer_1" data-name="Layer 1" xmlns="http://www.w3.org/2000/svg" viewBox="0 0 400 42.9"><defs><style>.cls-1{fill:#f6b649;}.cls-2{fill:#ec3830;}.cls-3{fill:#45b65c;}.cls-4{fill:#2fb2df;}</style></defs><polygon class="cls-1" points="0 7.1 0 10.7 24.5 10.7 0 35.2 2.5 37.7 33.1 7.1 0 7.1"/><polygon class="cls-2" points="36.7 3.6 40.2 0 0 0 0 3.6 36.7 3.6"/><polygon class="cls-3" points="39.2 6.1 39.2 42.8 42.8 42.8 42.8 2.5 39.2 6.1"/><polygon class="cls-4" points="35.6 42.8 35.6 9.7 5 40.3 7.6 42.8 32.1 18.3 32.1 42.8 35.6 42.8"/><path d="M132.9,94.7H117a2.88,2.88,0,0,1-2.8-2.2,2.7,2.7,0,0,1,2.6-3.2h27.6V78.7H116.8a13.42,13.42,0,0,0-13.4,14c.3,7.2,6.6,12.8,13.8,12.8h15.5a2.88,2.88,0,0,1,2.8,2.2,2.7,2.7,0,0,1-2.6,3.2H105.3v10.6h27.2c7.2,0,13.5-5.5,13.8-12.8A13.48,13.48,0,0,0,132.9,94.7Z" transform="translate(-50 -78.6)"/><path d="M181.9,78.6v32.1H171.2A10.71,10.71,0,0,1,160.5,100h0V78.6H149.8V100h0a21.42,21.42,0,0,0,21.4,21.4h21.4V78.6Z" transform="translate(-50 -78.6)"/><path d="M221.7,113.9a9.49,9.49,0,0,1-5.5-1.4,6.9,6.9,0,0,1-2.5-4.4,1.59,1.59,0,0,1,.4-1.4,1.73,1.73,0,0,1,1.3-.5,1.7,1.7,0,0,1,1.3.4,1.73,1.73,0,0,1,.5,1.3,3,3,0,0,0,1.3,2,6.44,6.44,0,0,0,3.1.5h6c1.8,0,3-.3,3.6-1a5.15,5.15,0,0,0,1-3.6c0-1.8-.3-3-1-3.7s-1.9-1-3.6-1h-5.1c-2.6,0-4.6-.6-5.8-1.9s-1.9-3.2-1.9-5.8.6-4.5,1.9-5.8,3.2-1.9,5.8-1.9h4.9a8.91,8.91,0,0,1,5.2,1.3,6.33,6.33,0,0,1,2.4,4.1,1.65,1.65,0,0,1-.3,1.4,2,2,0,0,1-1.4.5c-.6,0-1-.1-1.2-.4a1.73,1.73,0,0,1-.5-1.3,2.31,2.31,0,0,0-1.3-1.7,6.91,6.91,0,0,0-2.8-.4h-4.9q-2.55,0-3.3.9a4.65,4.65,0,0,0-.9,3.3,5,5,0,0,0,.9,3.4c.6.6,1.7.9,3.4.9h5.1c2.7,0,4.8.7,6.1,2s2,3.4,2,6.1-.7,4.8-2,6.1-3.4,2-6.1,2Z" transform="translate(-50 -78.6)"/><path d="M250.6,113.9c-3.2,0-5.5-.8-7-2.3s-2.3-3.9-2.3-7V87.5a1.71,1.71,0,1,1,3.4,0v17.1a10.84,10.84,0,0,0,.5,3.5,3.19,3.19,0,0,0,1.8,1.8,8.36,8.36,0,0,0,3.5.5h5a10.84,10.84,0,0,0,3.5-.5,3.92,3.92,0,0,0,1.8-1.8,8.36,8.36,0,0,0,.5-3.5V87.5a1.71,1.71,0,1,1,3.4,0v17.1c0,3.2-.8,5.5-2.3,7s-3.8,2.3-7,2.3Z" transform="translate(-50 -78.6)"/><path d="M274.4,113.9a1.49,1.49,0,0,1-1.7-1.7V87.5a1.49,1.49,0,0,1,1.7-1.7h9.7a7,7,0,0,1,7.8,7.8v1.2a7,7,0,0,1-7.8,7.8h-8v9.5C276.1,113.3,275.5,113.9,274.4,113.9Zm1.7-14.7h8a3.7,3.7,0,0,0,4.4-4.4V93.6c0-1.6-.3-2.7-1-3.3a5.1,5.1,0,0,0-3.4-1h-8Z" transform="translate(-50 -78.6)"/><path d="M299.2,113.9a1.49,1.49,0,0,1-1.7-1.7V87.5a1.49,1.49,0,0,1,1.7-1.7H314a1.7,1.7,0,0,1,0,3.4H300.9v8.7h8.3a1.7,1.7,0,0,1,0,3.4h-8.3v9H314a1.49,1.49,0,0,1,1.7,1.7,1.53,1.53,0,0,1-1.7,1.7H299.2Z" transform="translate(-50 -78.6)"/><path d="M339.9,113.9a1.67,1.67,0,0,1-1.3.3,2.1,2.1,0,0,1-1.1-.8l-6.4-10.7h-5.8v9.5a1.7,1.7,0,1,1-3.4,0V87.5a1.49,1.49,0,0,1,1.7-1.7h9.7a7,7,0,0,1,7.8,7.8v1.2a8.75,8.75,0,0,1-1.5,5.3,6.63,6.63,0,0,1-4.4,2.4l5.4,9.1A1.55,1.55,0,0,1,339.9,113.9ZM325.3,99.2h8a3.7,3.7,0,0,0,4.4-4.4V93.6c0-1.6-.3-2.7-1-3.3a5.1,5.1,0,0,0-3.4-1h-8Z" transform="translate(-50 -78.6)"/><path d="M356.2,113.9c-3.2,0-5.5-.8-7-2.3s-2.3-3.9-2.3-7V87.5a1.71,1.71,0,1,1,3.4,0v17.1a10.84,10.84,0,0,0,.5,3.5,3.19,3.19,0,0,0,1.8,1.8,8.36,8.36,0,0,0,3.5.5h5a10.84,10.84,0,0,0,3.5-.5,3.19,3.19,0,0,0,1.8-1.8,8.36,8.36,0,0,0,.5-3.5V87.5a1.71,1.71,0,1,1,3.4,0v17.1c0,3.2-.8,5.5-2.3,7s-3.8,2.3-7,2.3Z" transform="translate(-50 -78.6)"/><path d="M385.3,113.9a9.49,9.49,0,0,1-5.5-1.4,6.9,6.9,0,0,1-2.5-4.4,1.59,1.59,0,0,1,.4-1.4,1.73,1.73,0,0,1,1.3-.5,1.7,1.7,0,0,1,1.3.4,1.73,1.73,0,0,1,.5,1.3,3,3,0,0,0,1.3,2,6.44,6.44,0,0,0,3.1.5h6c1.8,0,3-.3,3.6-1a5.15,5.15,0,0,0,1-3.6c0-1.8-.3-3-1-3.7s-1.9-1-3.6-1h-5.1c-2.6,0-4.6-.6-5.8-1.9s-1.9-3.2-1.9-5.8.6-4.5,1.9-5.8,3.2-1.9,5.8-1.9H391a8.91,8.91,0,0,1,5.2,1.3,6.33,6.33,0,0,1,2.4,4.1,1.65,1.65,0,0,1-.3,1.4,2,2,0,0,1-1.4.5c-.6,0-1-.1-1.2-.4a1.73,1.73,0,0,1-.5-1.3,2.31,2.31,0,0,0-1.3-1.7,6.91,6.91,0,0,0-2.8-.4h-4.9q-2.55,0-3.3.9a4.65,4.65,0,0,0-.9,3.3,5,5,0,0,0,.9,3.4c.6.6,1.7.9,3.4.9h5.1c2.7,0,4.8.7,6.1,2s2,3.4,2,6.1-.7,4.8-2,6.1-3.4,2-6.1,2Z" transform="translate(-50 -78.6)"/><path d="M408.1,113.9a1.49,1.49,0,0,1-1.7-1.7V87.5a1.49,1.49,0,0,1,1.7-1.7H423a1.7,1.7,0,0,1,0,3.4H409.9v8.7h8.3a1.7,1.7,0,0,1,0,3.4h-8.3v9H423a1.49,1.49,0,0,1,1.7,1.7,1.53,1.53,0,0,1-1.7,1.7H408.1Z" transform="translate(-50 -78.6)"/><path d="M448.8,113.9a1.67,1.67,0,0,1-1.3.3,2.1,2.1,0,0,1-1.1-.8L440,102.7h-5.8v9.5a1.7,1.7,0,0,1-3.4,0V87.5a1.49,1.49,0,0,1,1.7-1.7h9.7a7,7,0,0,1,7.8,7.8v1.2a8.75,8.75,0,0,1-1.5,5.3,6.63,6.63,0,0,1-4.4,2.4l5.4,9.1A1.55,1.55,0,0,1,448.8,113.9ZM434.2,99.2h8a3.7,3.7,0,0,0,4.4-4.4V93.6c0-1.6-.3-2.7-1-3.3a5.1,5.1,0,0,0-3.4-1h-8Z" transform="translate(-50 -78.6)"/></svg>