<svg id="Layer_1" data-name="Layer 1" xmlns="http://www.w3.org/2000/svg" viewBox="0 0 443.21 115.38"><defs><style>.cls-1{fill:none;}.cls-2{fill:#ed285e;}.cls-3{fill:#ee265e;}</style></defs><path class="cls-1" d="M102.78,28H86.19a1.72,1.72,0,0,0-1.72,1.72V46h-9a22.68,22.68,0,0,0-21,14.17A22.53,22.53,0,0,0,32,46.28a5.17,5.17,0,0,0-.89-1.21,5.4,5.4,0,1,0-7.63,7.64,5.37,5.37,0,0,0,9.13-3A19.2,19.2,0,1,1,14.41,69.48,5.21,5.21,0,0,0,17,68.06h0a5.4,5.4,0,0,0,0-7.64,5.53,5.53,0,0,0-7.63,0A5.39,5.39,0,0,0,11,69.16a22.63,22.63,0,0,0,43.62,8.18,22.68,22.68,0,0,0,20.93,14H91.33a5.41,5.41,0,1,0,0-3.45H75.5a19.2,19.2,0,0,1,0-38.4H86.19a1.74,1.74,0,0,0,1.73-1.73V31.42h13.14v4.43H96.42a1.72,1.72,0,0,0-1.72,1.73v26a5.4,5.4,0,1,0,3.45,0V39.3h4.63a1.74,1.74,0,0,0,1.73-1.73V29.69A1.73,1.73,0,0,0,102.78,28ZM28.64,50.27h0a2,2,0,0,1-2.75,0,1.95,1.95,0,1,1,2.75,0ZM11.79,65.62a2,2,0,0,1,0-2.76,1.9,1.9,0,0,1,1.37-.57,1.92,1.92,0,0,1,1.38.57,2,2,0,0,1,0,2.76A2,2,0,0,1,11.79,65.62Zm84.63,22a2,2,0,1,1-2,2A2,2,0,0,1,96.42,87.66Zm2-19a2,2,0,1,1-2-2A2,2,0,0,1,98.37,68.69Z" transform="translate(-3.62 -3.8)"/><path class="cls-1" d="M86.19,56.38H75.61a12.31,12.31,0,0,0,0,24.61H86.19a1.73,1.73,0,0,0,1.73-1.72V58.11A1.73,1.73,0,0,0,86.19,56.38ZM84.47,77.54H75.61a8.86,8.86,0,0,1,0-17.71h8.86Z" transform="translate(-3.62 -3.8)"/><path class="cls-1" d="M46,68.69A12.31,12.31,0,1,0,33.65,81,12.32,12.32,0,0,0,46,68.69Zm-21.16,0a8.86,8.86,0,1,1,8.86,8.85A8.86,8.86,0,0,1,24.79,68.69Z" transform="translate(-3.62 -3.8)"/><path class="cls-2" d="M96.42,66.74a2,2,0,1,0,2,2A2,2,0,0,0,96.42,66.74Z" transform="translate(-3.62 -3.8)"/><path class="cls-2" d="M96.42,91.56a2,2,0,1,0-2-2A1.95,1.95,0,0,0,96.42,91.56Z" transform="translate(-3.62 -3.8)"/><path class="cls-2" d="M14.54,62.86a1.92,1.92,0,0,0-1.38-.57,1.9,1.9,0,0,0-1.37.57,2,2,0,0,0,0,2.76,2,2,0,0,0,2.75,0A2,2,0,0,0,14.54,62.86Z" transform="translate(-3.62 -3.8)"/><path class="cls-2" d="M27.26,46.94a1.95,1.95,0,0,0-1.37,3.33,2,2,0,0,0,2.75,0h0a2,2,0,0,0-1.38-3.33Z" transform="translate(-3.62 -3.8)"/><path class="cls-3" d="M61.31,3.8A57.69,57.69,0,1,0,119,61.49,57.69,57.69,0,0,0,61.31,3.8Zm41.47,35.5H98.15V63.6a5.41,5.41,0,1,1-3.45,0v-26a1.72,1.72,0,0,1,1.72-1.73h4.64V31.42H87.92V47.76a1.74,1.74,0,0,1-1.73,1.73H75.5a19.2,19.2,0,0,0,0,38.4H91.33a5.4,5.4,0,1,1,0,3.45H75.5a22.68,22.68,0,0,1-20.93-14A22.63,22.63,0,0,1,11,69.16a5.39,5.39,0,0,1-1.6-8.74,5.53,5.53,0,0,1,7.63,0,5.4,5.4,0,0,1,0,7.64h0a5.21,5.21,0,0,1-2.57,1.42A19.21,19.21,0,1,0,32.58,49.69a5.38,5.38,0,0,1-9.13,3,5.4,5.4,0,1,1,7.63-7.64A5.17,5.17,0,0,1,32,46.28,22.53,22.53,0,0,1,54.51,60.2,22.68,22.68,0,0,1,75.5,46h9V29.69A1.72,1.72,0,0,1,86.19,28h16.59a1.73,1.73,0,0,1,1.73,1.72v7.88A1.74,1.74,0,0,1,102.78,39.3ZM87.92,58.11V79.27A1.73,1.73,0,0,1,86.19,81H75.61a12.31,12.31,0,0,1,0-24.61H86.19A1.73,1.73,0,0,1,87.92,58.11ZM21.34,68.69A12.31,12.31,0,1,1,33.65,81,12.32,12.32,0,0,1,21.34,68.69Z" transform="translate(-3.62 -3.8)"/><path class="cls-2" d="M42.5,68.69a8.86,8.86,0,1,0-8.85,8.85A8.86,8.86,0,0,0,42.5,68.69Z" transform="translate(-3.62 -3.8)"/><path class="cls-2" d="M66.76,68.69a8.86,8.86,0,0,0,8.85,8.85h8.86V59.83H75.61A8.86,8.86,0,0,0,66.76,68.69Z" transform="translate(-3.62 -3.8)"/><path d="M151.55,38.3A21.65,21.65,0,1,0,173.2,60,21.67,21.67,0,0,0,151.55,38.3ZM166.72,60a15.22,15.22,0,1,1-15.17-15.18A15.23,15.23,0,0,1,166.72,60Z" transform="translate(-3.62 -3.8)"/><path d="M200.55,38.3A21.69,21.69,0,0,0,178.9,60v35.7a1.7,1.7,0,0,0,1.79,1.79h2.74a1.7,1.7,0,0,0,1.79-1.79V75.16A21.63,21.63,0,1,0,200.55,38.3ZM215.73,60a15.22,15.22,0,1,1-15.18-15.18A15.23,15.23,0,0,1,215.73,60Z" transform="translate(-3.62 -3.8)"/><path d="M359.08,23.71h-2.73c-.36,0-.5.13-.5.49V48l-1.72-1.86A20.3,20.3,0,1,0,359.58,60l-.06-1.55h.06V24.2C359.58,23.84,359.44,23.71,359.08,23.71Zm-19.86,52.7A16.51,16.51,0,1,1,355.77,60,16.48,16.48,0,0,1,339.22,76.41Z" transform="translate(-3.62 -3.8)"/><path d="M248.29,38.3a20.48,20.48,0,0,0-21,20.9c0,11,8.06,22.4,21.56,22.4a22.79,22.79,0,0,0,16.56-7.09,1.71,1.71,0,0,0,0-2.39L263.76,70a1.69,1.69,0,0,0-1.25-.73,1.42,1.42,0,0,0-1.23.49c-2.17,2-6.66,5.33-12.41,5.33-7.43,0-13.46-5.31-14.79-13h33.66a1.65,1.65,0,0,0,1.79-1.79V60.3C268.86,47.34,260.13,38.3,248.29,38.3ZM234.08,56.67a14.52,14.52,0,0,1,14.21-12.23,14.8,14.8,0,0,1,14.29,12.23Z" transform="translate(-3.62 -3.8)"/><path d="M389,80.3a21.51,21.51,0,0,0,15.58-6.64c.22-.26.22-.44,0-.73l-1.68-2.1c-.14-.18-.25-.24-.31-.24s-.18,0-.28.16c-2.32,2.13-7.09,5.66-13.28,5.66-8.2,0-14.83-5.92-16.13-14.41l-.17-1.14h35.17c.4,0,.49-.1.49-.5-.62-12.21-8.82-20.77-19.94-20.77A19.22,19.22,0,0,0,368.68,59.2C368.68,69.57,376.26,80.3,389,80.3ZM372.82,56.82a15.81,15.81,0,0,1,15.55-13.67A16.12,16.12,0,0,1,404,56.81l.18,1.15H372.65Z" transform="translate(-3.62 -3.8)"/><path d="M428.54,79.64h1.74a.51.51,0,0,0,.56-.35l16-39s0,0,0,0h-3.64a.52.52,0,0,0-.56.35L429.45,74.18,416.36,40.62a.52.52,0,0,0-.56-.37h-3.73l0,.07L428,79.27A.53.53,0,0,0,428.54,79.64Z" transform="translate(-3.62 -3.8)"/><path d="M308.79,80.93a1.69,1.69,0,0,0,1.79-1.78V55.81A17.54,17.54,0,0,0,293.07,38.3h-.2a17.51,17.51,0,0,0-17.48,17.51V79.15a1.69,1.69,0,0,0,1.79,1.78H280a1.69,1.69,0,0,0,1.79-1.78V55.81a11.2,11.2,0,1,1,22.4,0V79.15A1.69,1.69,0,0,0,306,80.93ZM306,79.64Z" transform="translate(-3.62 -3.8)"/></svg>