<svg id="Layer_1" data-name="Layer 1" xmlns="http://www.w3.org/2000/svg" viewBox="0 0 216 57.6"><defs><style>.cls-1{fill:#071d49;}</style></defs><path class="cls-1" d="M34.2,100.8h66.5L86.5,76.2V67.8l3.9-5.1H78.6L67.4,43.2,56.2,62.7H44.4l3.9,5.1v8.4Zm14.2-3.4H40l8.4-14.5Zm5.7,0H51.7V77.6h2.4Zm0-23.1H51.7V71.9h2.4ZM65.7,97.4H57.5V77.6h8.2Zm11.6,0H69.1V77.6h8.2Zm0-23.1H57.5V71.9H77.3Zm5.8,23.1H80.7V77.6h2.4Zm0-23.1H80.7V71.9h2.4Zm3.4,8.6,8.4,14.5H86.5Zm-19.1-33,7.4,12.7H60ZM83.6,66l-.5.7v1.8H51.7V66.7l-.5-.7Z" transform="translate(-34.2 -43.2)"/><polygon class="cls-1" points="212.5 36.8 199.3 36.8 199.3 14 193.3 17.5 193.3 42.8 216 42.8 212.5 36.8"/><path class="cls-1" d="M207.5,74.2h0a6.5,6.5,0,0,1-13,0h0v-17l-6,3.5V74.2h0a12.5,12.5,0,0,0,25,0h0v-17l-6,3.5Z" transform="translate(-34.2 -43.2)"/><path class="cls-1" d="M168.4,74.2h0a6.5,6.5,0,1,1-13,0h0v-17l-6,3.5V74.2h0a12.5,12.5,0,1,0,25,0h0v-17l-6,3.5Z" transform="translate(-34.2 -43.2)"/><polygon class="cls-1" points="99.7 14 79.6 14 76.2 20.1 89.3 20.1 76.2 42.8 97.7 42.8 101.2 36.8 86.6 36.8 99.7 14"/></svg>