<?xml version="1.0" encoding="UTF-8"?><svg id="Layer_1" xmlns="http://www.w3.org/2000/svg" width="280" height="100" viewBox="0 0 280 100"><defs><style>.cls-1{fill:#fff;}.cls-2{fill:#f0f3f5;}.cls-3{fill:#341d70;}.cls-4{fill:#5956a5;}.cls-5{fill:#4e4540;}.cls-6{fill:none;stroke:#f0f3f5;stroke-miterlimit:10;stroke-width:2px;}</style></defs><rect class="cls-1" x="5" y="5" width="270" height="90" rx="10" ry="10"/><g><g><path class="cls-2" d="M6,14H76c5.52,0,10,4.48,10,10v62H-4V24C-4,18.48,.48,14,6,14Z" transform="translate(-9 91) rotate(-90)"/><g><path class="cls-5" d="M30.39,40.54v.97h-4.57v-7.11h1.18v6.14h3.39Z"/><path class="cls-5" d="M33.46,38.32v2.22h3.43v.97h-4.61v-7.11h4.58v.97h-3.41v2h2.94v.95h-2.94Z"/><path class="cls-5" d="M39.94,39.87l-.48,1.64h-1.22l2.31-7.11h1.04l2.28,7.11h-1.22l-.48-1.64h-2.23Zm1.94-1.01l-.82-2.81-.83,2.81h1.65Z"/><path class="cls-5" d="M46.41,38.75v2.76h-1.17v-7.11h2.26c.37,0,.71,.05,1.02,.14,.31,.09,.58,.22,.8,.4,.22,.18,.39,.4,.52,.67,.12,.26,.19,.58,.19,.93,0,.24-.03,.47-.1,.66s-.15,.38-.27,.54c-.11,.16-.25,.3-.41,.42-.16,.12-.34,.22-.53,.31l1.52,2.97v.06h-1.25l-1.36-2.76h-1.2Zm1.1-.96c.21,0,.4-.04,.56-.09,.17-.06,.31-.15,.43-.26,.1-.1,.19-.22,.24-.36s.09-.31,.09-.49c0-.21-.03-.38-.1-.54-.06-.16-.16-.28-.28-.39-.11-.1-.25-.17-.42-.22-.16-.05-.35-.08-.55-.08h-1.08v2.44h1.1Z"/><path class="cls-5" d="M55.13,41.51l-2.31-4.89v4.89h-1.19v-7.11h1.19l2.29,4.87v-4.87h1.19v7.11h-1.18Z"/><path class="cls-5" d="M27.99,49.44l.97-3.04h1.46v7.11h-1.1v-2.41l.07-3.17-1.09,3.39h-.61l-.99-3.28,.06,3.06v2.41h-1.1v-7.11h1.46l.88,3.04Z"/><path class="cls-5" d="M36.96,51.25c-.05,.27-.12,.52-.22,.76-.1,.24-.23,.46-.38,.66-.15,.2-.32,.37-.52,.52-.19,.13-.4,.23-.63,.31s-.48,.11-.75,.11-.54-.04-.78-.12c-.24-.08-.45-.19-.63-.33-.19-.14-.35-.32-.5-.52s-.26-.42-.35-.66c-.09-.23-.16-.48-.21-.74-.05-.26-.07-.53-.07-.81v-.94c0-.29,.02-.57,.07-.84s.12-.53,.22-.77c.09-.23,.21-.44,.35-.64,.14-.19,.3-.36,.49-.51,.18-.14,.39-.25,.62-.32,.23-.08,.49-.12,.77-.12s.54,.04,.78,.12c.24,.08,.45,.19,.64,.33,.19,.14,.35,.3,.49,.49,.14,.19,.26,.4,.35,.62,.1,.24,.18,.5,.23,.77,.05,.27,.08,.56,.08,.86v.94c0,.29-.03,.56-.08,.83Zm-1.14-2.3c-.02-.17-.05-.34-.09-.49-.05-.18-.11-.34-.19-.49-.08-.15-.18-.27-.29-.38-.1-.09-.22-.16-.35-.21-.13-.05-.28-.08-.44-.08s-.3,.03-.43,.08c-.13,.05-.24,.12-.33,.21-.11,.11-.21,.24-.29,.38-.08,.15-.14,.31-.18,.5-.04,.16-.07,.32-.09,.5-.02,.17-.03,.35-.03,.52v.95c0,.17,0,.34,.02,.51,.02,.17,.04,.33,.08,.49,.04,.18,.1,.34,.17,.49,.07,.15,.16,.28,.27,.38,.1,.1,.22,.17,.35,.23,.13,.06,.28,.09,.46,.09s.32-.03,.45-.08c.14-.06,.25-.13,.35-.22,.11-.11,.21-.24,.29-.38,.08-.15,.14-.31,.18-.49,.04-.16,.07-.32,.08-.49,.02-.17,.03-.34,.03-.52v-.95c0-.18-.01-.35-.03-.53Z"/><path class="cls-5" d="M39.91,50.75v2.76h-1.17v-7.11h2.26c.37,0,.71,.05,1.02,.14,.31,.09,.58,.22,.8,.4,.22,.18,.39,.4,.52,.67,.12,.26,.19,.58,.19,.93,0,.24-.03,.47-.1,.66s-.15,.38-.27,.54c-.11,.16-.25,.3-.41,.42-.16,.12-.34,.22-.53,.31l1.52,2.97v.06h-1.25l-1.36-2.76h-1.2Zm1.1-.96c.21,0,.4-.04,.56-.09,.17-.06,.31-.15,.43-.26,.1-.1,.19-.22,.24-.36s.09-.31,.09-.49c0-.21-.03-.38-.1-.54-.06-.16-.16-.28-.28-.39-.11-.1-.25-.17-.42-.22-.16-.05-.35-.08-.55-.08h-1.08v2.44h1.1Z"/><path class="cls-5" d="M46.46,50.32v2.22h3.43v.97h-4.61v-7.11h4.58v.97h-3.41v2h2.94v.95h-2.94Z"/><path class="cls-5" d="M26.94,63.87l-.48,1.64h-1.22l2.31-7.11h1.04l2.28,7.11h-1.22l-.48-1.64h-2.23Zm1.94-1.01l-.82-2.81-.83,2.81h1.65Z"/><path class="cls-5" d="M32.21,58.4h2.28c.34,0,.67,.04,.97,.12,.3,.08,.56,.19,.79,.35,.22,.16,.39,.36,.52,.6,.13,.24,.19,.53,.19,.86,0,.2-.04,.39-.11,.56-.07,.17-.16,.33-.29,.46-.09,.1-.19,.18-.3,.26-.11,.07-.24,.14-.38,.2h0c.21,.07,.39,.15,.54,.25,.15,.11,.27,.23,.38,.36,.1,.14,.18,.3,.24,.48,.05,.17,.08,.36,.08,.55,0,.34-.06,.64-.18,.89-.12,.26-.29,.47-.51,.64-.22,.18-.48,.31-.78,.4-.3,.09-.63,.13-.98,.13h-2.46v-7.11Zm2.3,3c.19,0,.37-.03,.53-.08s.3-.12,.41-.21c.1-.08,.18-.19,.24-.31s.09-.26,.09-.42c0-.17-.03-.31-.08-.43-.05-.12-.13-.22-.23-.3-.11-.1-.25-.17-.42-.21-.17-.04-.35-.07-.55-.07h-1.11v2.03h1.12Zm-1.12,3.14h1.29c.19,0,.35-.03,.51-.08,.15-.05,.28-.12,.39-.21,.12-.09,.21-.21,.27-.35,.06-.14,.1-.29,.1-.46,0-.18-.03-.34-.08-.48-.05-.14-.13-.26-.23-.35-.1-.1-.23-.17-.38-.23-.15-.05-.32-.08-.51-.09h-1.35v2.25Z"/><path class="cls-5" d="M43.46,63.25c-.05,.27-.12,.52-.22,.76-.1,.24-.23,.46-.38,.66-.15,.2-.32,.37-.52,.52-.19,.13-.4,.23-.63,.31s-.48,.11-.75,.11-.54-.04-.78-.12c-.24-.08-.45-.19-.63-.33-.19-.14-.35-.32-.5-.52s-.26-.42-.35-.66c-.09-.23-.16-.48-.21-.74-.05-.26-.07-.53-.07-.81v-.94c0-.29,.02-.57,.07-.84s.12-.53,.22-.77c.09-.23,.21-.44,.35-.64,.14-.19,.3-.36,.49-.51,.18-.14,.39-.25,.62-.32,.23-.08,.49-.12,.77-.12s.54,.04,.78,.12c.24,.08,.45,.19,.64,.33,.19,.14,.35,.3,.49,.49,.14,.19,.26,.4,.35,.62,.1,.24,.18,.5,.23,.77,.05,.27,.08,.56,.08,.86v.94c0,.29-.03,.56-.08,.83Zm-1.14-2.3c-.02-.17-.05-.34-.09-.49-.05-.18-.11-.34-.19-.49-.08-.15-.18-.27-.29-.38-.1-.09-.22-.16-.35-.21-.13-.05-.28-.08-.44-.08s-.3,.03-.43,.08c-.13,.05-.24,.12-.33,.21-.11,.11-.21,.24-.29,.38-.08,.15-.14,.31-.18,.5-.04,.16-.07,.32-.09,.5-.02,.17-.03,.35-.03,.52v.95c0,.17,0,.34,.02,.51,.02,.17,.04,.33,.08,.49,.04,.18,.1,.34,.17,.49,.07,.15,.16,.28,.27,.38,.1,.1,.22,.17,.35,.23,.13,.06,.28,.09,.46,.09s.32-.03,.45-.08c.14-.06,.25-.13,.35-.22,.11-.11,.21-.24,.29-.38,.08-.15,.14-.31,.18-.49,.04-.16,.07-.32,.08-.49,.02-.17,.03-.34,.03-.52v-.95c0-.18-.01-.35-.03-.53Z"/><path class="cls-5" d="M49.85,63.15c0,.37-.06,.7-.17,1-.11,.3-.27,.56-.48,.77-.21,.21-.46,.38-.75,.5-.29,.12-.62,.18-.98,.18s-.68-.06-.96-.17c-.29-.12-.53-.28-.73-.5-.21-.21-.36-.47-.48-.78s-.17-.64-.17-1.01v-4.76h1.17v4.76c.01,.22,.04,.43,.09,.62,.05,.19,.13,.35,.23,.48,.1,.12,.22,.22,.36,.29,.14,.07,.31,.1,.5,.1s.36-.04,.51-.1c.15-.07,.27-.17,.37-.3,.1-.13,.18-.29,.23-.48,.05-.18,.08-.39,.09-.61v-4.76h1.17v4.76Z"/><path class="cls-5" d="M54.57,59.37v6.14h-1.17v-6.14h-2.18v-.97h5.54v.97h-2.19Z"/></g></g><rect class="cls-6" x="5" y="5" width="270" height="90" rx="10" ry="10"/><g><polygon class="cls-4" points="112.29 39.64 107.31 33 93.84 33 105.55 48.61 112.29 39.64"/><path class="cls-4" d="M111.19,56.12l8.16,10.88h13.47l-11.77-15.7c-2.59,2.71-6.35,4.57-9.85,4.82Z"/><path class="cls-3" d="M123.98,33c-4.64,0-6.84,2.94-6.84,2.94l-10.16,13.55c6.04-.04,7.26-.97,10.96-5.75l.77-1.04c.77-1.05,2-1.66,3.3-1.66l-2.75,3.71c-4.02,5.2-5.67,6.42-12.68,6.42-.29,0-.57,0-.85,0l-11.89,15.86h2.92c2.22,0,4.94-1.18,6.34-2.91l7.2-9.61s.07,0,.1,0c3.72,0,8.09-2.31,10.46-5.57l7.37-9.83c2.11-2.64,4.57-3.84,4.57-3.84-1.98-.82-5-1.26-5-1.26-1.16-1-3.83-1-3.83-1Z"/><path class="cls-3" d="M142.08,48.92c-1.9-.49-2.37-.72-2.37-1.44v-.03c0-.53,.49-.96,1.41-.96s1.88,.41,2.85,1.08l1.25-1.82c-1.11-.89-2.48-1.39-4.07-1.39-2.24,0-3.84,1.32-3.84,3.31v.03c0,2.18,1.43,2.79,3.63,3.35,1.83,.47,2.21,.78,2.21,1.39v.03c0,.64-.6,1.03-1.58,1.03-1.25,0-2.29-.52-3.27-1.33l-1.43,1.71c1.32,1.18,2.99,1.76,4.65,1.76,2.37,0,4.03-1.22,4.03-3.4v-.03c0-1.91-1.25-2.71-3.48-3.29Z"/><polygon class="cls-3" points="149.62 46.74 152.96 46.74 152.96 55.48 155.37 55.48 155.37 46.74 158.71 46.74 158.71 44.52 149.62 44.52 149.62 46.74"/><path class="cls-3" d="M165.89,44.44l-4.7,11.05h2.46l1-2.46h4.64l1,2.46h2.52l-4.7-11.05h-2.22Zm-.38,6.46l1.46-3.56,1.46,3.56h-2.91Z"/><path class="cls-3" d="M186.64,48.17v-.03c0-1.03-.33-1.9-.94-2.51-.72-.72-1.8-1.11-3.2-1.11h-5.01v10.97h2.41v-3.51h1.9l2.35,3.51h2.82l-2.68-3.92c1.39-.52,2.35-1.63,2.35-3.4Zm-2.44,.13c0,.92-.67,1.55-1.85,1.55h-2.44v-3.15h2.4c1.18,0,1.9,.53,1.9,1.57v.03Z"/><polygon class="cls-3" points="194.22 44.52 191.81 44.52 191.81 55.48 199.69 55.48 199.69 53.29 194.22 53.29 194.22 44.52"/><rect class="cls-3" x="204.6" y="44.52" width="2.41" height="10.97"/><polygon class="cls-3" points="220.1 51.27 214.96 44.52 212.73 44.52 212.73 55.48 215.12 55.48 215.12 48.51 220.43 55.48 222.48 55.48 222.48 44.52 220.1 44.52 220.1 51.27"/><path class="cls-3" d="M233.3,51.25h2.43v1.57c-.61,.44-1.39,.66-2.27,.66-1.94,0-3.32-1.47-3.32-3.48v-.03c0-1.86,1.39-3.42,3.15-3.42,1.27,0,2.02,.41,2.87,1.11l1.52-1.83c-1.14-.97-2.33-1.5-4.31-1.5-3.32,0-5.75,2.55-5.75,5.67v.03c0,3.24,2.35,5.64,5.77,5.64,2.01,0,3.56-.78,4.68-1.74v-4.76h-4.76v2.08Z"/><polygon class="cls-3" points="249.06 49.87 252.72 44.52 249.98 44.52 247.64 48.07 245.36 44.52 242.54 44.52 246.2 49.91 242.38 55.48 245.12 55.48 247.6 51.72 250.06 55.48 252.88 55.48 249.06 49.87"/></g></g></svg>