<svg width="128" height="128" viewBox="0 0 128 128" fill="none" xmlns="http://www.w3.org/2000/svg">
<rect width="128" height="128" rx="24" fill="#28A4DB"/>
<mask id="mask0_160_9698" style="mask-type:alpha" maskUnits="userSpaceOnUse" x="28" y="32" width="73" height="65">
<path fill-rule="evenodd" clip-rule="evenodd" d="M28 32H101V96.6H28V32Z" fill="white"/>
</mask>
<g mask="url(#mask0_160_9698)">
<path fill-rule="evenodd" clip-rule="evenodd" d="M49.6 96.6C46.6 96.6 44.1 94.1 44.1 91.1C44.1 88.1 46.6 85.6 49.6 85.6C49.7 85.6 49.9 85.6 50 85.6L50.8 85.7L54.7 69L54.3 68.7C53.4 68 52.7 67 52.2 66L51.8 65.1L38.6 72.9L38.8 73.6C38.9 74.1 39 74.6 39 75.1C39 78.1 36.5 80.6 33.5 80.6C30.5 80.5 28 78 28 75C28 72 30.5 69.5 33.5 69.5C34.9 69.5 36.2 70 37.2 70.9L37.7 71.3L51.6 63V62.5C51.7 60.8 52.4 59.2 53.5 57.9L54 57.3L39 38.9L38.5 39C38.4 39 38.3 39 38.2 39C36.3 39 34.8 37.4 34.8 35.5C34.8 33.6 36.3 32 38.3 32C40.2 32 41.8 33.6 41.8 35.5C41.8 36.3 41.6 37 41.1 37.6L40.7 38.1L55.5 56.6L56.1 56.4C57 56 57.9 55.9 58.8 55.9C59.6 55.9 60.4 56 61.2 56.3L61.7 56.5L76.9 44.8L76.8 44.2C76.7 43.8 76.6 43.3 76.6 42.9C76.6 39.9 79.1 37.4 82.1 37.4C85.1 37.4 87.6 39.9 87.6 42.9C87.6 43.7 87.4 44.5 87.1 45.2L86.8 45.8L96.1 54.3L96.6 54.1C96.9 54 97.3 53.9 97.7 53.9C99.6 53.9 101.2 55.5 101.2 57.4C101.2 59.3 99.6 60.9 97.7 60.9C95.8 60.9 94.2 59.3 94.2 57.4C94.2 56.9 94.3 56.4 94.5 55.9L94.8 55.3L85.4 47L84.8 47.4C84 47.9 83 48.2 81.9 48.2C80.5 48.2 79.1 47.7 78.1 46.7L77.6 46.2L63.2 57.3L63.9 58C65.1 59.3 65.9 61 66 62.7V63.3L77.3 68.1L77.7 67.8C78.3 67.3 79.1 67 79.9 67C81.8 67 83.4 68.6 83.4 70.5C83.4 72.4 81.8 74 79.9 74C78 74 76.4 72.4 76.4 70.5C76.4 70.4 76.4 70.4 76.4 70.3L76.5 69.7L65.7 65.1L65.4 65.9C64.3 68.6 61.6 70.3 58.7 70.3C58.1 70.3 57.6 70.2 57.1 70.1L56.2 69.9L52.4 86.4L52.9 86.7C54.3 87.7 55.1 89.3 55.1 91.1C55.1 94.2 52.6 96.6 49.6 96.6Z" fill="#161616"/>
</g>
</svg>
