<svg width="144" height="144" viewBox="0 0 144 144" fill="none" xmlns="http://www.w3.org/2000/svg">
<g opacity="0.5">
<g filter="url(#filter0_d_548_9446)">
<rect x="8" y="8" width="128" height="128" rx="24" fill="#161616"/>
<rect x="8.755" y="8.755" width="126.49" height="126.49" rx="23.245" stroke="#28A4DB" stroke-width="1.51"/>
</g>
</g>
<mask id="mask0_548_9446" style="mask-type:alpha" maskUnits="userSpaceOnUse" x="38" y="40" width="73" height="65">
<path fill-rule="evenodd" clip-rule="evenodd" d="M38 40H111V104.6H38V40Z" fill="white"/>
</mask>
<g mask="url(#mask0_548_9446)">
<path fill-rule="evenodd" clip-rule="evenodd" d="M59.6 104.6C56.6 104.6 54.1 102.1 54.1 99.1C54.1 96.1 56.6 93.6 59.6 93.6C59.7 93.6 59.9 93.6 60 93.6L60.8 93.7L64.7 77L64.3 76.7C63.4 76 62.7 75 62.2 74L61.8 73.1L48.6 80.9L48.8 81.6C48.9 82.1 49 82.6 49 83.1C49 86.1 46.5 88.6 43.5 88.6C40.5 88.5 38 86 38 83C38 80 40.5 77.5 43.5 77.5C44.9 77.5 46.2 78 47.2 78.9L47.7 79.3L61.6 71V70.5C61.7 68.8 62.4 67.2 63.5 65.9L64 65.3L49 46.9L48.5 47C48.4 47 48.3 47 48.2 47C46.3 47 44.8 45.4 44.8 43.5C44.8 41.6 46.3 40 48.3 40C50.2 40 51.8 41.6 51.8 43.5C51.8 44.3 51.6 45 51.1 45.6L50.7 46.1L65.5 64.6L66.1 64.4C67 64 67.9 63.9 68.8 63.9C69.6 63.9 70.4 64 71.2 64.3L71.7 64.5L86.9 52.8L86.8 52.2C86.7 51.8 86.6 51.3 86.6 50.9C86.6 47.9 89.1 45.4 92.1 45.4C95.1 45.4 97.6 47.9 97.6 50.9C97.6 51.7 97.4 52.5 97.1 53.2L96.8 53.8L106.1 62.3L106.6 62.1C106.9 62 107.3 61.9 107.7 61.9C109.6 61.9 111.2 63.5 111.2 65.4C111.2 67.3 109.6 68.9 107.7 68.9C105.8 68.9 104.2 67.3 104.2 65.4C104.2 64.9 104.3 64.4 104.5 63.9L104.8 63.3L95.4 55L94.8 55.4C94 55.9 93 56.2 91.9 56.2C90.5 56.2 89.1 55.7 88.1 54.7L87.6 54.2L73.2 65.3L73.9 66C75.1 67.3 75.9 69 76 70.7V71.3L87.3 76.1L87.7 75.8C88.3 75.3 89.1 75 89.9 75C91.8 75 93.4 76.6 93.4 78.5C93.4 80.4 91.8 82 89.9 82C88 82 86.4 80.4 86.4 78.5C86.4 78.4 86.4 78.4 86.4 78.3L86.5 77.7L75.7 73.1L75.4 73.9C74.3 76.6 71.6 78.3 68.7 78.3C68.1 78.3 67.6 78.2 67.1 78.1L66.2 77.9L62.4 94.4L62.9 94.7C64.3 95.7 65.1 97.3 65.1 99.1C65.1 102.2 62.6 104.6 59.6 104.6Z" fill="#28A4DB"/>
</g>
<defs>
<filter id="filter0_d_548_9446" x="0" y="0" width="144" height="144" filterUnits="userSpaceOnUse" color-interpolation-filters="sRGB">
<feFlood flood-opacity="0" result="BackgroundImageFix"/>
<feColorMatrix in="SourceAlpha" type="matrix" values="0 0 0 0 0 0 0 0 0 0 0 0 0 0 0 0 0 0 127 0" result="hardAlpha"/>
<feOffset/>
<feGaussianBlur stdDeviation="4"/>
<feComposite in2="hardAlpha" operator="out"/>
<feColorMatrix type="matrix" values="0 0 0 0 0.0862745 0 0 0 0 0.0862745 0 0 0 0 0.0862745 0 0 0 0.5 0"/>
<feBlend mode="normal" in2="BackgroundImageFix" result="effect1_dropShadow_548_9446"/>
<feBlend mode="normal" in="SourceGraphic" in2="effect1_dropShadow_548_9446" result="shape"/>
</filter>
</defs>
</svg>
