<svg width="144" height="144" viewBox="0 0 144 144" fill="none" xmlns="http://www.w3.org/2000/svg">
<g opacity="0.5">
<g filter="url(#filter0_d_548_9459)">
<rect x="8" y="8" width="128" height="128" rx="24" fill="#39AE4A"/>
<rect x="8.75" y="8.75" width="126.5" height="126.5" rx="23.25" stroke="#161616" stroke-width="1.5"/>
</g>
<path fill-rule="evenodd" clip-rule="evenodd" d="M103.6 68.4C103.2 68 102.4 68 102 68.4L100.6 69.8C99.6001 54.7 87.1001 43 72.0001 43C60.4001 43 50.2001 49.9 45.7001 60.3C45.6001 60.5 45.6001 60.7 45.6001 61C45.6001 61.9 46.3001 62.6 47.2001 62.6C47.9001 62.6 48.6001 62.1 48.8001 61.5C52.8001 52.3 61.9001 46.3 72.0001 46.3C85.2001 46.3 96.2001 56.5 97.3001 69.6L96.1001 68.4C95.7001 68 94.9001 68 94.5001 68.4C94.1001 68.8 94.1001 69.6 94.5001 70L96.3001 71.8L98.2001 73.7C98.4001 73.9 98.7001 74 99.0001 74C99.3001 74 99.6001 73.9 99.8001 73.7L102 71.5L103.6 69.9C104.1 69.5 104.1 68.8 103.6 68.4Z" fill="#161616"/>
<path fill-rule="evenodd" clip-rule="evenodd" d="M97.2 79.6C96.6 79.6 96 79.9 95.8 80.5C95.7 80.6 95.7 80.7 95.7 80.9C91.9 90.6 82.6 97.1 72 97.1C58.3 97.1 47 86.1 46.6 72.4L47.9 73.7C48.1 73.9 48.4 74 48.7 74C49 74 49.3 73.9 49.5 73.7C49.9 73.3 49.9 72.5 49.5 72.1L46.5 69.1L45.7 68.3C45.3 67.9 44.5 67.9 44.1 68.3L43.3 69.1L40.3 72.1C39.9 72.5 39.9 73.3 40.3 73.7C40.5 73.9 40.8 74 41.1 74C41.4 74 41.7 73.9 41.9 73.7L43.3 72.3C43.7 87.8 56.4 100.3 72 100.3C83.8 100.3 94.5 92.8 98.7 82C98.8 81.9 98.8 81.7 98.9 81.6C98.9 81.5 98.9 81.4 98.9 81.2C98.9 80.3 98.2 79.6 97.2 79.6Z" fill="#161616"/>
</g>
<defs>
<filter id="filter0_d_548_9459" x="0" y="0" width="144" height="144" filterUnits="userSpaceOnUse" color-interpolation-filters="sRGB">
<feFlood flood-opacity="0" result="BackgroundImageFix"/>
<feColorMatrix in="SourceAlpha" type="matrix" values="0 0 0 0 0 0 0 0 0 0 0 0 0 0 0 0 0 0 127 0" result="hardAlpha"/>
<feOffset/>
<feGaussianBlur stdDeviation="4"/>
<feComposite in2="hardAlpha" operator="out"/>
<feColorMatrix type="matrix" values="0 0 0 0 0.0862745 0 0 0 0 0.0862745 0 0 0 0 0.0862745 0 0 0 0.5 0"/>
<feBlend mode="normal" in2="BackgroundImageFix" result="effect1_dropShadow_548_9459"/>
<feBlend mode="normal" in="SourceGraphic" in2="effect1_dropShadow_548_9459" result="shape"/>
</filter>
</defs>
</svg>
