<svg width="144" height="144" viewBox="0 0 144 144" fill="none" xmlns="http://www.w3.org/2000/svg">
<g opacity="0.5">
<g filter="url(#filter0_d_548_9447)">
<rect x="8" y="8" width="128" height="128" rx="24" fill="#F4A93A"/>
<rect x="8.755" y="8.755" width="126.49" height="126.49" rx="23.245" stroke="#F4A93A" stroke-width="1.51"/>
</g>
<path fill-rule="evenodd" clip-rule="evenodd" d="M43.5 56.2001V88.0001L71.7 102.6L100 88.0001V56.2001L71.3 41.6001L43.5 56.2001ZM46.3 57.1001L71.3 44.0001L97.2 57.2001L71.8 69.8001L46.3 57.1001ZM45.6 86.7001V59.1001L70.7 71.7001V99.7001L45.6 86.7001ZM72.8 71.7001L97.9 59.1001V86.7001L72.8 99.7001V71.7001V71.7001Z" fill="#161616"/>
<path d="M71.7 103.1L43 88.3V55.9L71.3 41L100.6 55.8V88.2L71.7 103.1ZM44 87.7L71.7 102L99.5 87.7V56.5L71.3 42.1L44 56.5V87.7ZM72.3 100.5V71.4L98.4 58.3V87L72.3 100.5ZM73.3 72V98.8L97.4 86.4V59.9L73.3 72ZM71.2 100.5L45.1 87V58.2L71.2 71.3V100.5V100.5ZM46.1 86.4L70.2 98.8V72L46.1 59.9V86.4ZM71.8 70.4L45.2 57.1L71.3 43.4L98.3 57.1L71.8 70.4ZM47.4 57L71.8 69.2L96.1 57L71.3 44.5L47.4 57Z" fill="#161616"/>
</g>
<defs>
<filter id="filter0_d_548_9447" x="0" y="0" width="144" height="144" filterUnits="userSpaceOnUse" color-interpolation-filters="sRGB">
<feFlood flood-opacity="0" result="BackgroundImageFix"/>
<feColorMatrix in="SourceAlpha" type="matrix" values="0 0 0 0 0 0 0 0 0 0 0 0 0 0 0 0 0 0 127 0" result="hardAlpha"/>
<feOffset/>
<feGaussianBlur stdDeviation="4"/>
<feComposite in2="hardAlpha" operator="out"/>
<feColorMatrix type="matrix" values="0 0 0 0 0.0862745 0 0 0 0 0.0862745 0 0 0 0 0.0862745 0 0 0 0.5 0"/>
<feBlend mode="normal" in2="BackgroundImageFix" result="effect1_dropShadow_548_9447"/>
<feBlend mode="normal" in="SourceGraphic" in2="effect1_dropShadow_548_9447" result="shape"/>
</filter>
</defs>
</svg>
