<svg width="144" height="144" viewBox="0 0 144 144" fill="none" xmlns="http://www.w3.org/2000/svg">
<g opacity="0.5">
<g filter="url(#filter0_d_160_9644)">
<rect x="8" y="8" width="128" height="128" rx="24" fill="#161616"/>
<rect x="8.75" y="8.75" width="126.5" height="126.5" rx="23.25" stroke="#E61E24" stroke-width="1.5"/>
</g>
<path fill-rule="evenodd" clip-rule="evenodd" d="M61 93.4001C60.6 93.4001 60.2 93.2001 59.9 92.9001C59.6 92.6001 59.5 92.2001 59.5 91.8C59.5 91.4 59.7 91 60 90.7001C60.3 90.4001 60.7 90.3 61.1 90.3H61.4L63 88.8V81.1L57 78.4001V68.9L63 64.9V57.4L61.7 56.4H61.5C61.4 56.4 61.3 56.4 61.2 56.4C60.9 56.4 60.5 56.3 60.3 56.1C59.6 55.6 59.5 54.6 60 53.9C60.3 53.5 60.8 53.3 61.2 53.3C61.5 53.3 61.9 53.4 62.2 53.6C62.6 53.9 62.8 54.3 62.8 54.7V54.9L64.8 56.4V65.6L58.8 69.6V77L64.8 79.7001V89.3L62.7 91.3V91.5C62.7 92 62.5 92.4001 62.2 92.7001C61.8 93.3 61.5 93.4001 61 93.4001Z" fill="#E61E24"/>
<path d="M61 93.9C60.4 93.9 59.9 93.7 59.5 93.3C59.1 92.9 58.9 92.4 58.9 91.8C58.9 91.2 59.1 90.7 59.5 90.4C59.9 90 60.4 89.8 60.9 89.8H61.1L62.4 88.6V81.4L56.4 78.7V68.6L62.4 64.6V57.7L61.6 57C61 57.1 60.4 57 60 56.6C59.6 56.3 59.3 55.8 59.2 55.2C59.1 54.7 59.3 54.1 59.6 53.7C60.3 52.8 61.6 52.6 62.5 53.3C63 53.7 63.2 54.2 63.3 54.8L65.3 56.3V66.1L59.3 70.1V76.9L65.3 79.6V89.7L63.2 91.7C63.2 92.3 63 92.9 62.6 93.3C62.1 93.7 61.6 93.9 61 93.9ZM61 90.8C60.8 90.8 60.5 90.9 60.3 91.1C60.1 91.3 60 91.6 60 91.8C60 92.1 60.1 92.4 60.3 92.6C60.7 93 61.4 93 61.8 92.6C62 92.4 62.1 92.1 62.1 91.8V91.4L64.2 89.3V80.3L58.2 77.6V69.6L64.2 65.6V56.9L62.3 55.4V55C62.3 54.7 62.1 54.4 61.9 54.2C61.4 53.8 60.8 53.9 60.4 54.4C60.2 54.6 60.2 54.9 60.2 55.2C60.2 55.5 60.4 55.7 60.6 55.9C60.8 56.1 61.1 56.1 61.4 56.1L61.8 56L63.4 57.3V65.3L57.4 69.3V78.2L63.4 80.9V89L61.5 90.8H61Z" fill="#E61E24"/>
<path fill-rule="evenodd" clip-rule="evenodd" d="M51.7 87V93.5L65.5 101.5L71.6 98V77.6V72.5V68.5V47.1L65.5 43.6L51.7 51.6V59.2L54.7 60.8L54.9 60.7C55.1 60.6 55.2 60.6 55.4 60.6C55.7 60.6 55.9 60.7 56.1 60.8C56.9 61.2 57.1 62.2 56.7 62.9C56.4 63.4 55.9 63.7 55.3 63.7C55 63.7 54.8 63.6 54.5 63.5C54.1 63.3 53.8 62.9 53.7 62.5L53.6 62.3L50.6 60.7L43 65.1V72.6H46L46.1 72.4C46.4 72.1 46.8 71.9 47.3 71.9C48.2 71.9 48.9 72.6 48.9 73.5C48.9 74.4 48.2 75.1 47.3 75.1C46.9 75.1 46.4 74.9 46.1 74.6L46 74.4H43V81L50.6 85.4L53.5 84L53.6 83.8C53.7 83.4 54 83 54.4 82.8C54.6 82.7 54.8 82.6 55.1 82.6C55.7 82.6 56.3 82.9 56.5 83.5C56.7 83.9 56.7 84.3 56.6 84.7C56.5 85.1 56.2 85.4 55.8 85.6C55.6 85.7 55.4 85.7 55.1 85.7C54.9 85.7 54.7 85.7 54.5 85.6L54.3 85.5L51.7 87ZM73.4 47.1V68.4V72.4V77.5V97.8L79.5 101.3L93.3 93.3V87L90.5 85.6L90.3 85.7C90.1 85.8 89.9 85.8 89.7 85.8C89.5 85.8 89.2 85.8 89 85.6C88.2 85.2 87.9 84.3 88.3 83.5C88.6 83 89.1 82.6 89.7 82.6C89.9 82.6 90.2 82.7 90.4 82.8C90.8 83 91.1 83.3 91.2 83.8L91.3 84L94.2 85.4L101.8 81V74.3H98.8L98.7 74.5C98.4 74.8 98 75 97.5 75C96.6 75 95.9 74.3 95.9 73.4C95.9 72.5 96.6 71.8 97.5 71.8C97.9 71.8 98.4 72 98.7 72.3L98.8 72.5H101.8V65L94.2 60.6L91.2 62.2V62.4C91.1 62.8 90.8 63.2 90.4 63.4C90.2 63.5 89.9 63.6 89.6 63.6C89 63.6 88.5 63.3 88.2 62.8C87.8 62 88.1 61.1 88.8 60.7C89 60.6 89.3 60.5 89.5 60.5C89.7 60.5 89.9 60.5 90 60.6L90.2 60.7L93.2 59.1V51.5L79.4 43.5L73.4 47.1ZM49.9 94.4V86.9L41.5 82V64L49.9 59.1V50.6L65.5 41.6L72.5 45.6L79.5 41.6L95.1 50.6V59.2L103.5 64.1V82.1L95 86.9V94.4L79.4 103.4L72.4 99.4L65.4 103.4L49.9 94.4Z" fill="#E61E24"/>
<path d="M79.5 104L72.5 100L65.5 104L49.4 94.7V87.2L41 82.3V63.8L49.4 58.9V50.3L65.5 41L72.5 45L79.5 41L95.6 50.3V58.9L104 63.8V82.3L95.6 87.2V94.7L79.5 104ZM50.4 94.1L65.5 102.8L72.5 98.8L79.5 102.8L94.6 94.1V86.6L103 81.7V64.4L94.6 59.5V50.9L79.5 42.2L72.5 46.2L65.5 42.2L50.4 50.9V59.5L42 64.4V81.8L50.4 86.7V94.1ZM79.5 102L72.9 98.2V46.8L79.5 43L93.8 51.3V59.5L90.4 61.4L90 61.3C89.7 61.2 89.4 61.2 89.1 61.4C88.6 61.7 88.4 62.3 88.7 62.9C89 63.4 89.6 63.6 90.2 63.3C90.5 63.2 90.6 62.9 90.7 62.6L90.8 62.2L94.2 60.3L102.3 65V73.3H98.6L98.3 73C98.1 72.8 97.8 72.6 97.5 72.6C96.9 72.6 96.4 73.1 96.4 73.7C96.4 74.3 96.9 74.8 97.5 74.8C97.8 74.8 98.1 74.7 98.3 74.4L98.6 74.1H102.3V81.6L94.1 86L90.8 84.4L90.7 84C90.6 83.7 90.4 83.5 90.1 83.3C89.6 83.1 88.9 83.3 88.7 83.8C88.4 84.3 88.7 85 89.2 85.2C89.5 85.3 89.8 85.3 90.1 85.2L90.5 85L93.8 86.6V93.7L79.5 102ZM73.9 97.6L79.5 100.8L92.8 93.1V87.2L90.5 86.1C90 86.3 89.3 86.3 88.8 86.1C87.8 85.6 87.3 84.4 87.8 83.3C88.3 82.3 89.6 81.9 90.6 82.3C91.1 82.6 91.5 83 91.7 83.6L94.2 84.8L101.3 80.7V74.8H99C98.6 75.2 98.1 75.5 97.5 75.5C96.4 75.5 95.4 74.6 95.4 73.4C95.4 72.3 96.3 71.3 97.5 71.3C98.1 71.3 98.6 71.5 99 72H101.3V65.3L94.2 61.2L91.7 62.6C91.6 63.2 91.2 63.7 90.7 63.9C89.7 64.4 88.4 64.1 87.9 63.1C87.3 62.1 87.7 60.8 88.7 60.3C89.2 60 89.8 60 90.4 60.2L92.9 58.8V51.8L79.5 44.2L73.9 47.4V97.6ZM65.5 102L51.2 93.7V86.6L54.5 85L54.9 85.2C55.2 85.3 55.5 85.3 55.8 85.2C56.1 85.1 56.3 84.9 56.3 84.6C56.4 84.3 56.4 84 56.3 83.8C56.1 83.3 55.4 83 54.9 83.3C54.6 83.4 54.4 83.7 54.3 84L54.2 84.4L50.8 86L42.7 81.3V73.8H46.4L46.7 74.1C46.9 74.3 47.2 74.5 47.5 74.5C48.1 74.5 48.6 74 48.6 73.4C48.6 72.8 48.1 72.3 47.5 72.3C47.2 72.3 46.9 72.4 46.7 72.7L46.4 73H42.8V64.7L50.9 60L54.3 61.9L54.4 62.3C54.5 62.6 54.6 62.9 54.9 63C55.4 63.3 56.1 63.1 56.4 62.6C56.5 62.4 56.6 62.1 56.5 61.8C56.4 61.5 56.2 61.3 56 61.2C55.7 61.1 55.4 61 55.1 61.1L54.7 61.2L51.3 59.3V51.1L65.5 43L72.1 46.8V98.1L65.5 102ZM52.2 93.1L65.5 100.8L71.1 97.6V47.4L65.5 44.2L52.2 51.9V58.9L54.7 60.3C55.3 60.1 55.9 60.2 56.4 60.4C56.9 60.7 57.2 61.1 57.4 61.6C57.6 62.1 57.5 62.7 57.2 63.2C56.7 64.2 55.4 64.5 54.4 64C53.9 63.7 53.5 63.2 53.4 62.7L50.9 61.3L43.8 65.4V72.1H46C46.4 71.7 46.9 71.4 47.5 71.4C48.6 71.4 49.6 72.3 49.6 73.5C49.6 74.6 48.7 75.6 47.5 75.6C46.9 75.6 46.4 75.4 46 74.9H43.8V80.8L50.9 84.9L53.4 83.7C53.6 83.1 54 82.7 54.5 82.4C55.5 81.9 56.8 82.4 57.3 83.4C57.5 83.9 57.6 84.5 57.4 85C57.2 85.5 56.8 85.9 56.3 86.2C55.8 86.5 55.2 86.5 54.6 86.2L52.3 87.3V93.1H52.2Z" fill="#E61E24"/>
<path fill-rule="evenodd" clip-rule="evenodd" d="M83.9 93.4C83.5 93.4 83.0999 93.2 82.7999 93C82.4999 92.7 82.2999 92.3 82.2999 91.8V91.6L80.2 89.6V80L86.2 77.3V69.9L80.2 65.9V56.7L82.2 55.2V55C82.2 54.5 82.3999 54.1 82.7999 53.9C83.0999 53.7 83.3999 53.6 83.7999 53.6C84.2999 53.6 84.7 53.8 85 54.2C85.3 54.5 85.3999 54.9 85.2999 55.4C85.1999 55.8 85 56.2 84.7 56.4C84.4 56.6 84.0999 56.7 83.7999 56.7C83.6999 56.7 83.6 56.7 83.5 56.7H83.2999L82 57.7V65.2L88 69.2V78.7L82 81.4V89.1L83.5999 90.6H83.9C84.3 90.6 84.7 90.8 85 91C85.3 91.3 85.5 91.7 85.5 92.1C85.5 92.5 85.3999 92.9 85.0999 93.2C84.7999 93.3 84.4 93.4 83.9 93.4Z" fill="#E61E24"/>
<path d="M83.9001 93.9C83.4001 93.9 82.9 93.7 82.5 93.3C82.1 92.9 81.9001 92.3 81.9001 91.7L79.8 89.7V79.6L85.8 76.9V70.1L79.8 66.1V56.3L81.8 54.8C81.8 54.2 82.1 53.7 82.6 53.3C83.5 52.6 84.8 52.8 85.5 53.7C85.8 54.1 86.0001 54.7 85.9001 55.2C85.8001 55.7 85.5 56.2 85.1 56.6C84.6 57 84 57.1 83.5 57L82.6 57.7V64.6L88.6 68.6V78.7L82.6 81.4V88.6L83.9001 89.8H84C84.6 89.8 85.1 90 85.5 90.4C85.9 90.8 86.1 91.3 86.1 91.8C86.1 92.4 85.9 92.9 85.5 93.3C85 93.7 84.5001 93.9 83.9001 93.9ZM80.7001 89.3L82.8 91.4V91.8C82.8 92.1 82.9 92.4 83.1 92.6C83.5 93 84.2 93 84.6 92.6C84.8 92.4 84.9001 92.1 84.9001 91.8C84.9001 91.5 84.8 91.3 84.6 91.1C84.4 90.9 84.1001 90.8 83.9001 90.8H83.4001L81.5 89V80.8L87.5 78.1V69.2L81.5 65.2V57.2L83.1 55.9L83.5 56C83.8 56.1 84.1 56 84.3 55.8C84.5 55.6 84.7001 55.4 84.7001 55.1C84.7001 54.8 84.7 54.5 84.5 54.3C84.2 53.8 83.5 53.8 83 54.1C82.8 54.3 82.6 54.6 82.6 54.9V55.3L80.7001 56.8V65.5L86.7001 69.5V77.5L80.7001 80.2V89.3Z" fill="#E61E24"/>
</g>
<defs>
<filter id="filter0_d_160_9644" x="0" y="0" width="144" height="144" filterUnits="userSpaceOnUse" color-interpolation-filters="sRGB">
<feFlood flood-opacity="0" result="BackgroundImageFix"/>
<feColorMatrix in="SourceAlpha" type="matrix" values="0 0 0 0 0 0 0 0 0 0 0 0 0 0 0 0 0 0 127 0" result="hardAlpha"/>
<feOffset/>
<feGaussianBlur stdDeviation="4"/>
<feComposite in2="hardAlpha" operator="out"/>
<feColorMatrix type="matrix" values="0 0 0 0 0.0862745 0 0 0 0 0.0862745 0 0 0 0 0.0862745 0 0 0 0.5 0"/>
<feBlend mode="normal" in2="BackgroundImageFix" result="effect1_dropShadow_160_9644"/>
<feBlend mode="normal" in="SourceGraphic" in2="effect1_dropShadow_160_9644" result="shape"/>
</filter>
</defs>
</svg>
