<svg width="144" height="144" viewBox="0 0 144 144" fill="none" xmlns="http://www.w3.org/2000/svg">
<g filter="url(#filter0_d_548_9471)">
<rect x="8" y="8" width="128" height="128" rx="24" fill="#E61E24"/>
<rect x="8.75" y="8.75" width="126.5" height="126.5" rx="23.25" stroke="#E61E24" stroke-width="1.5"/>
</g>
<path fill-rule="evenodd" clip-rule="evenodd" d="M61 93.4001C60.6 93.4001 60.2 93.2001 59.9 92.9001C59.6 92.6001 59.5 92.2001 59.5 91.8C59.5 91.4 59.7 91 60 90.7001C60.3 90.4001 60.7 90.3 61.1 90.3H61.4L63 88.8V81.1L57 78.4001V68.9L63 64.9V57.4L61.7 56.4H61.5C61.4 56.4 61.3 56.4 61.2 56.4C60.9 56.4 60.5 56.3 60.3 56.1C59.6 55.6 59.5 54.6 60 53.9C60.3 53.5 60.8 53.3 61.2 53.3C61.5 53.3 61.9 53.4 62.2 53.6C62.6 53.9 62.8 54.3 62.8 54.7V54.9L64.8 56.4V65.6L58.8 69.6V77L64.8 79.7001V89.3L62.7 91.3V91.5C62.7 92 62.5 92.4001 62.2 92.7001C61.8 93.3 61.5 93.4001 61 93.4001Z" fill="#161616"/>
<path d="M60.9999 93.9001C60.3999 93.9001 59.8999 93.7001 59.4999 93.3001C59.0999 92.9001 58.8999 92.4001 58.8999 91.8001C58.8999 91.2001 59.0999 90.7001 59.4999 90.4001C59.8999 90.0001 60.3999 89.8001 60.8999 89.8001H61.0999L62.3999 88.6001V81.4001L56.3999 78.7001V68.6001L62.3999 64.6001V57.7001L61.5999 57.0001C60.9999 57.1001 60.3999 57.0001 59.9999 56.6001C59.5999 56.3001 59.2999 55.8001 59.1999 55.2001C59.0999 54.7001 59.2999 54.1001 59.5999 53.7001C60.2999 52.8001 61.5999 52.6001 62.4999 53.3001C62.9999 53.7001 63.1999 54.2001 63.2999 54.8001L65.2999 56.3001V66.1001L59.2999 70.1001V76.9001L65.2999 79.6001V89.7001L63.1999 91.7001C63.1999 92.3001 62.9999 92.9001 62.5999 93.3001C62.0999 93.7001 61.5999 93.9001 60.9999 93.9001ZM60.9999 90.8001C60.7999 90.8001 60.4999 90.9001 60.2999 91.1001C60.0999 91.3001 59.9999 91.6001 59.9999 91.8001C59.9999 92.1001 60.0999 92.4001 60.2999 92.6001C60.6999 93.0001 61.3999 93.0001 61.7999 92.6001C61.9999 92.4001 62.0999 92.1001 62.0999 91.8001V91.4001L64.1999 89.3001V80.3001L58.1999 77.6001V69.6001L64.1999 65.6001V56.9001L62.2999 55.4001V55.0001C62.2999 54.7001 62.0999 54.4001 61.8999 54.2001C61.3999 53.8001 60.7999 53.9001 60.3999 54.4001C60.1999 54.6001 60.1999 54.9001 60.1999 55.2001C60.1999 55.5001 60.3999 55.7001 60.5999 55.9001C60.7999 56.1001 61.0999 56.1001 61.3999 56.1001L61.7999 56.0001L63.3999 57.3001V65.3001L57.3999 69.3001V78.2001L63.3999 80.9001V89.0001L61.4999 90.8001H60.9999Z" fill="#161616"/>
<path fill-rule="evenodd" clip-rule="evenodd" d="M51.7 87.0001V93.5001L65.5 101.5L71.6 98.0001V77.6001V72.5001V68.5001V47.1001L65.5 43.6001L51.7 51.6001V59.2001L54.7 60.8001L54.9 60.7001C55.1 60.6001 55.2 60.6001 55.4 60.6001C55.7 60.6001 55.9 60.7001 56.1 60.8001C56.9 61.2001 57.1 62.2001 56.7 62.9001C56.4 63.4001 55.9 63.7001 55.3 63.7001C55 63.7001 54.8 63.6001 54.5 63.5001C54.1 63.3001 53.8 62.9001 53.7 62.5001L53.6 62.3001L50.6 60.7001L43 65.1001V72.6001H46L46.1 72.4001C46.4 72.1001 46.8 71.9001 47.3 71.9001C48.2 71.9001 48.9 72.6001 48.9 73.5001C48.9 74.4001 48.2 75.1001 47.3 75.1001C46.9 75.1001 46.4 74.9001 46.1 74.6001L46 74.4001H43V81.0001L50.6 85.4001L53.5 84.0001L53.6 83.8001C53.7 83.4001 54 83.0001 54.4 82.8001C54.6 82.7001 54.8 82.6001 55.1 82.6001C55.7 82.6001 56.3 82.9001 56.5 83.5001C56.7 83.9001 56.7 84.3001 56.6 84.7001C56.5 85.1001 56.2 85.4001 55.8 85.6001C55.6 85.7001 55.4 85.7001 55.1 85.7001C54.9 85.7001 54.7 85.7001 54.5 85.6001L54.3 85.5001L51.7 87.0001ZM73.4 47.1001V68.4001V72.4001V77.5001V97.8001L79.5 101.3L93.3 93.3001V87.0001L90.5 85.6001L90.3 85.7001C90.1 85.8001 89.9 85.8001 89.7 85.8001C89.5 85.8001 89.2 85.8001 89 85.6001C88.2 85.2001 87.9 84.3001 88.3 83.5001C88.6 83.0001 89.1 82.6001 89.7 82.6001C89.9 82.6001 90.2 82.7001 90.4 82.8001C90.8 83.0001 91.1 83.3001 91.2 83.8001L91.3 84.0001L94.2 85.4001L101.8 81.0001V74.3001H98.8L98.7 74.5001C98.4 74.8001 98 75.0001 97.5 75.0001C96.6 75.0001 95.9 74.3001 95.9 73.4001C95.9 72.5001 96.6 71.8001 97.5 71.8001C97.9 71.8001 98.4 72.0001 98.7 72.3001L98.8 72.5001H101.8V65.0001L94.2 60.6001L91.2 62.2001V62.4001C91.1 62.8001 90.8 63.2001 90.4 63.4001C90.2 63.5001 89.9 63.6001 89.6 63.6001C89 63.6001 88.5 63.3001 88.2 62.8001C87.8 62.0001 88.1 61.1001 88.8 60.7001C89 60.6001 89.3 60.5001 89.5 60.5001C89.7 60.5001 89.9 60.5001 90 60.6001L90.2 60.7001L93.2 59.1001V51.5001L79.4 43.5001L73.4 47.1001ZM49.9 94.4001V86.9001L41.5 82.0001V64.0001L49.9 59.1001V50.6001L65.5 41.6001L72.5 45.6001L79.5 41.6001L95.1 50.6001V59.2001L103.5 64.1001V82.1001L95 86.9001V94.4001L79.4 103.4L72.4 99.4001L65.4 103.4L49.9 94.4001Z" fill="#161616"/>
<path d="M79.5 104L72.5 100L65.5 104L49.4 94.7V87.2L41 82.3V63.8L49.4 58.9V50.3L65.5 41L72.5 45L79.5 41L95.6 50.3V58.9L104 63.8V82.3L95.6 87.2V94.7L79.5 104ZM50.4 94.1L65.5 102.8L72.5 98.8L79.5 102.8L94.6 94.1V86.6L103 81.7V64.4L94.6 59.5V50.9L79.5 42.2L72.5 46.2L65.5 42.2L50.4 50.9V59.5L42 64.4V81.8L50.4 86.7V94.1ZM79.5 102L72.9 98.2V46.8L79.5 43L93.8 51.3V59.5L90.4 61.4L90 61.3C89.7 61.2 89.4 61.2 89.1 61.4C88.6 61.7 88.4 62.3 88.7 62.9C89 63.4 89.6 63.6 90.2 63.3C90.5 63.2 90.6 62.9 90.7 62.6L90.8 62.2L94.2 60.3L102.3 65V73.3H98.6L98.3 73C98.1 72.8 97.8 72.6 97.5 72.6C96.9 72.6 96.4 73.1 96.4 73.7C96.4 74.3 96.9 74.8 97.5 74.8C97.8 74.8 98.1 74.7 98.3 74.4L98.6 74.1H102.3V81.6L94.1 86L90.8 84.4L90.7 84C90.6 83.7 90.4 83.5 90.1 83.3C89.6 83.1 88.9 83.3 88.7 83.8C88.4 84.3 88.7 85 89.2 85.2C89.5 85.3 89.8 85.3 90.1 85.2L90.5 85L93.8 86.6V93.7L79.5 102ZM73.9 97.6L79.5 100.8L92.8 93.1V87.2L90.5 86.1C90 86.3 89.3 86.3 88.8 86.1C87.8 85.6 87.3 84.4 87.8 83.3C88.3 82.3 89.6 81.9 90.6 82.3C91.1 82.6 91.5 83 91.7 83.6L94.2 84.8L101.3 80.7V74.8H99C98.6 75.2 98.1 75.5 97.5 75.5C96.4 75.5 95.4 74.6 95.4 73.4C95.4 72.3 96.3 71.3 97.5 71.3C98.1 71.3 98.6 71.5 99 72H101.3V65.3L94.2 61.2L91.7 62.6C91.6 63.2 91.2 63.7 90.7 63.9C89.7 64.4 88.4 64.1 87.9 63.1C87.3 62.1 87.7 60.8 88.7 60.3C89.2 60 89.8 60 90.4 60.2L92.9 58.8V51.8L79.5 44.2L73.9 47.4V97.6ZM65.5 102L51.2 93.7V86.6L54.5 85L54.9 85.2C55.2 85.3 55.5 85.3 55.8 85.2C56.1 85.1 56.3 84.9 56.3 84.6C56.4 84.3 56.4 84 56.3 83.8C56.1 83.3 55.4 83 54.9 83.3C54.6 83.4 54.4 83.7 54.3 84L54.2 84.4L50.8 86L42.7 81.3V73.8H46.4L46.7 74.1C46.9 74.3 47.2 74.5 47.5 74.5C48.1 74.5 48.6 74 48.6 73.4C48.6 72.8 48.1 72.3 47.5 72.3C47.2 72.3 46.9 72.4 46.7 72.7L46.4 73H42.8V64.7L50.9 60L54.3 61.9L54.4 62.3C54.5 62.6 54.6 62.9 54.9 63C55.4 63.3 56.1 63.1 56.4 62.6C56.5 62.4 56.6 62.1 56.5 61.8C56.4 61.5 56.2 61.3 56 61.2C55.7 61.1 55.4 61 55.1 61.1L54.7 61.2L51.3 59.3V51.1L65.5 43L72.1 46.8V98.1L65.5 102ZM52.2 93.1L65.5 100.8L71.1 97.6V47.4L65.5 44.2L52.2 51.9V58.9L54.7 60.3C55.3 60.1 55.9 60.2 56.4 60.4C56.9 60.7 57.2 61.1 57.4 61.6C57.6 62.1 57.5 62.7 57.2 63.2C56.7 64.2 55.4 64.5 54.4 64C53.9 63.7 53.5 63.2 53.4 62.7L50.9 61.3L43.8 65.4V72.1H46C46.4 71.7 46.9 71.4 47.5 71.4C48.6 71.4 49.6 72.3 49.6 73.5C49.6 74.6 48.7 75.6 47.5 75.6C46.9 75.6 46.4 75.4 46 74.9H43.8V80.8L50.9 84.9L53.4 83.7C53.6 83.1 54 82.7 54.5 82.4C55.5 81.9 56.8 82.4 57.3 83.4C57.5 83.9 57.6 84.5 57.4 85C57.2 85.5 56.8 85.9 56.3 86.2C55.8 86.5 55.2 86.5 54.6 86.2L52.3 87.3V93.1H52.2Z" fill="#161616"/>
<path fill-rule="evenodd" clip-rule="evenodd" d="M83.9 93.4001C83.5 93.4001 83.0999 93.2001 82.7999 93.0001C82.4999 92.7001 82.2999 92.3001 82.2999 91.8001V91.6001L80.2 89.6001V80.0001L86.2 77.3001V69.9001L80.2 65.9001V56.7001L82.2 55.2001V55.0001C82.2 54.5001 82.3999 54.1001 82.7999 53.9001C83.0999 53.7001 83.3999 53.6001 83.7999 53.6001C84.2999 53.6001 84.7 53.8001 85 54.2001C85.3 54.5001 85.3999 54.9001 85.2999 55.4001C85.1999 55.8001 85 56.2001 84.7 56.4001C84.4 56.6001 84.0999 56.7001 83.7999 56.7001C83.6999 56.7001 83.6 56.7001 83.5 56.7001H83.2999L82 57.7001V65.2001L88 69.2001V78.7001L82 81.4001V89.1001L83.5999 90.6001H83.9C84.3 90.6001 84.7 90.8001 85 91.0001C85.3 91.3001 85.5 91.7001 85.5 92.1001C85.5 92.5001 85.3999 92.9001 85.0999 93.2001C84.7999 93.3001 84.4 93.4001 83.9 93.4001Z" fill="#161616"/>
<path d="M83.9001 93.9001C83.4001 93.9001 82.9 93.7001 82.5 93.3001C82.1 92.9001 81.9001 92.3001 81.9001 91.7001L79.8 89.7001V79.6001L85.8 76.9001V70.1001L79.8 66.1001V56.3001L81.8 54.8001C81.8 54.2001 82.1 53.7001 82.6 53.3001C83.5 52.6001 84.8 52.8001 85.5 53.7001C85.8 54.1001 86.0001 54.7001 85.9001 55.2001C85.8001 55.7001 85.5 56.2001 85.1 56.6001C84.6 57.0001 84 57.1001 83.5 57.0001L82.6 57.7001V64.6001L88.6 68.6001V78.7001L82.6 81.4001V88.6001L83.9001 89.8001H84C84.6 89.8001 85.1 90.0001 85.5 90.4001C85.9 90.8001 86.1 91.3001 86.1 91.8001C86.1 92.4001 85.9 92.9001 85.5 93.3001C85 93.7001 84.5001 93.9001 83.9001 93.9001ZM80.7001 89.3001L82.8 91.4001V91.8001C82.8 92.1001 82.9 92.4001 83.1 92.6001C83.5 93.0001 84.2 93.0001 84.6 92.6001C84.8 92.4001 84.9001 92.1001 84.9001 91.8001C84.9001 91.5001 84.8 91.3001 84.6 91.1001C84.4 90.9001 84.1001 90.8001 83.9001 90.8001H83.4001L81.5 89.0001V80.8001L87.5 78.1001V69.2001L81.5 65.2001V57.2001L83.1 55.9001L83.5 56.0001C83.8 56.1001 84.1 56.0001 84.3 55.8001C84.5 55.6001 84.7001 55.4001 84.7001 55.1001C84.7001 54.8001 84.7 54.5001 84.5 54.3001C84.2 53.8001 83.5 53.8001 83 54.1001C82.8 54.3001 82.6 54.6001 82.6 54.9001V55.3001L80.7001 56.8001V65.5001L86.7001 69.5001V77.5001L80.7001 80.2001V89.3001Z" fill="#161616"/>
<defs>
<filter id="filter0_d_548_9471" x="0" y="0" width="144" height="144" filterUnits="userSpaceOnUse" color-interpolation-filters="sRGB">
<feFlood flood-opacity="0" result="BackgroundImageFix"/>
<feColorMatrix in="SourceAlpha" type="matrix" values="0 0 0 0 0 0 0 0 0 0 0 0 0 0 0 0 0 0 127 0" result="hardAlpha"/>
<feOffset/>
<feGaussianBlur stdDeviation="4"/>
<feComposite in2="hardAlpha" operator="out"/>
<feColorMatrix type="matrix" values="0 0 0 0 0.0862745 0 0 0 0 0.0862745 0 0 0 0 0.0862745 0 0 0 0.5 0"/>
<feBlend mode="normal" in2="BackgroundImageFix" result="effect1_dropShadow_548_9471"/>
<feBlend mode="normal" in="SourceGraphic" in2="effect1_dropShadow_548_9471" result="shape"/>
</filter>
</defs>
</svg>
