<svg width="215" height="511" viewBox="0 0 215 511" fill="none" xmlns="http://www.w3.org/2000/svg">
<path d="M105 60L106.414 66.5858L113 68L106.414 69.4142L105 76L103.586 69.4142L97 68L103.586 66.5858L105 60Z" fill="#D9D9D9"/>
<path d="M207 108L208.414 114.586L215 116L208.414 117.414L207 124L205.586 117.414L199 116L205.586 114.586L207 108Z" fill="#D9D9D9"/>
<path d="M64 37L65.4142 43.5858L72 45L65.4142 46.4142L64 53L62.5858 46.4142L56 45L62.5858 43.5858L64 37Z" fill="#D9D9D9"/>
<path d="M76 4L77.0607 8.93934L82 10L77.0607 11.0607L76 16L74.9393 11.0607L70 10L74.9393 8.93934L76 4Z" fill="#D9D9D9"/>
<path d="M25 53L26.0607 57.9393L31 59L26.0607 60.0607L25 65L23.9393 60.0607L19 59L23.9393 57.9393L25 53Z" fill="#D9D9D9"/>
<path d="M112 19L113.237 24.7626L119 26L113.237 27.2374L112 33L110.763 27.2374L105 26L110.763 24.7626L112 19Z" fill="#D9D9D9"/>
<path d="M34 84L35.4142 90.5858L42 92L35.4142 93.4142L34 100L32.5858 93.4142L26 92L32.5858 90.5858L34 84Z" fill="#D9D9D9"/>
<path d="M111 421L112.414 427.586L119 429L112.414 430.414L111 437L109.586 430.414L103 429L109.586 427.586L111 421Z" fill="#D9D9D9"/>
<path d="M36.5 8L37.4723 12.5277L42 13.5L37.4723 14.4723L36.5 19L35.5277 14.4723L31 13.5L35.5277 12.5277L36.5 8Z" fill="#D9D9D9"/>
<path d="M5.5 26L6.47227 30.5277L11 31.5L6.47227 32.4723L5.5 37L4.52773 32.4723L0 31.5L4.52773 30.5277L5.5 26Z" fill="#D9D9D9"/>
<path d="M13.5 291L14.4723 295.528L19 296.5L14.4723 297.472L13.5 302L12.5277 297.472L8 296.5L12.5277 295.528L13.5 291Z" fill="#D9D9D9"/>
<path d="M4 0L4.70711 3.29289L8 4L4.70711 4.70711L4 8L3.29289 4.70711L0 4L3.29289 3.29289L4 0Z" fill="#D9D9D9"/>
<path d="M93.5 108L95.5329 117.467L105 119.5L95.5329 121.533L93.5 131L91.4671 121.533L82 119.5L91.4671 117.467L93.5 108Z" fill="#D9D9D9"/>
<path d="M134.5 152L136.533 161.467L146 163.5L136.533 165.533L134.5 175L132.467 165.533L123 163.5L132.467 161.467L134.5 152Z" fill="#D9D9D9"/>
<path d="M93.5 185L95.5329 194.467L105 196.5L95.5329 198.533L93.5 208L91.4671 198.533L82 196.5L91.4671 194.467L93.5 185Z" fill="#D9D9D9"/>
<path d="M58.5 322L60.5329 331.467L70 333.5L60.5329 335.533L58.5 345L56.4671 335.533L47 333.5L56.4671 331.467L58.5 322Z" fill="#D9D9D9"/>
<path d="M136.5 354L138.533 363.467L148 365.5L138.533 367.533L136.5 377L134.467 367.533L125 365.5L134.467 363.467L136.5 354Z" fill="#D9D9D9"/>
<path d="M30.5 141L32.5329 150.467L42 152.5L32.5329 154.533L30.5 164L28.4671 154.533L19 152.5L28.4671 150.467L30.5 141Z" fill="#D9D9D9"/>
<path d="M22.5 205L25.0633 216.937L37 219.5L25.0633 222.063L22.5 234L19.9367 222.063L8 219.5L19.9367 216.937L22.5 205Z" fill="#D9D9D9"/>
<path d="M173 58L175.828 71.1716L189 74L175.828 76.8284L173 90L170.172 76.8284L157 74L170.172 71.1716L173 58Z" fill="#D9D9D9"/>
<path d="M98.5 261L102.124 277.876L119 281.5L102.124 285.124L98.5 302L94.8761 285.124L78 281.5L94.8761 277.876L98.5 261Z" fill="#D9D9D9"/>
<path d="M46.5 407L50.1239 423.876L67 427.5L50.1239 431.124L46.5 448L42.8761 431.124L26 427.5L42.8761 423.876L46.5 407Z" fill="#D9D9D9"/>
<path d="M145.5 470L149.124 486.876L166 490.5L149.124 494.124L145.5 511L141.876 494.124L125 490.5L141.876 486.876L145.5 470Z" fill="#D9D9D9"/>
</svg>
