<svg width="63" height="50" viewBox="0 0 63 50" fill="none" xmlns="http://www.w3.org/2000/svg">
<g opacity="0.8" clip-path="url(#clip0_709_152)">
<mask id="mask0_709_152" style="mask-type:alpha" maskUnits="userSpaceOnUse" x="0" y="0" width="63" height="50">
<path d="M0 0.000305176H62.2448V49.7503H0V0.000305176Z" fill="black"/>
</mask>
<g mask="url(#mask0_709_152)">
<path fill-rule="evenodd" clip-rule="evenodd" d="M59.6976 47.2103H40.6371V30.7092C40.6371 25.5514 44.9139 21.3536 50.1674 21.3536C55.4231 21.3536 59.6965 25.5514 59.6965 30.7092V47.2103H59.6976ZM29.7771 10.6903C32.7807 7.73808 37.672 7.73808 40.6801 10.6903L48.8489 18.7103C43.1212 19.3148 38.5581 23.7936 37.9447 29.417L29.7771 21.397C26.7689 18.4436 26.7689 13.6414 29.7771 10.6903ZM22.0225 9.21475C22.6178 7.87142 22.7219 6.41364 22.3846 5.01364L28.9566 7.81586C28.5627 8.10697 28.1791 8.41586 27.8192 8.76808C26.1035 10.4548 25.1177 12.5825 24.8427 14.7836L20.3984 12.887L22.0225 9.21475ZM13.0999 22.5514C12.9958 22.6003 12.7333 22.6714 12.2704 22.6714C11.3412 22.6714 10.1314 22.3859 8.95444 21.8836C6.77813 20.9525 5.74939 19.777 5.62717 19.367L12.0146 4.94475C12.6608 3.48364 14.1287 2.53919 15.7516 2.53919C16.3107 2.53919 16.855 2.65142 17.3733 2.87253C18.3727 3.29919 19.14 4.08142 19.5395 5.07364C19.9378 6.06919 19.9175 7.15364 19.484 8.13364L13.0999 22.5514ZM52.888 19.027L42.5565 8.88142C39.743 6.11919 35.7062 5.27808 32.1401 6.34808L18.5684 0.55475C18.5673 0.55475 18.5673 0.552527 18.5673 0.552527C17.7061 0.186972 16.7939 0.000305176 15.8614 0.000305176C13.1565 0.000305176 10.7097 1.57364 9.63008 4.00808L3.24715 18.4225C3.00383 18.9748 2.80125 20.0481 3.84244 21.4114C1.24286 21.9736 1.25531 23.7036 0.114532 26.2814C-0.188771 26.9625 0.131508 27.7592 0.825255 28.0525C1.519 28.3503 2.33045 28.0403 2.63262 27.3559C3.91939 24.4514 5.05451 23.1114 8.01284 24.377C10.9734 25.6414 10.7878 27.5159 9.50106 30.4214C9.19776 31.1014 9.51691 31.8948 10.2129 32.1925C10.3895 32.2714 10.5762 32.307 10.7584 32.307C11.2915 32.307 11.7951 32.0036 12.0192 31.4959C13.1611 28.917 14.4218 27.5992 13.066 25.3459C14.7941 25.1625 15.4596 24.2881 15.704 23.7381L19.3754 15.4425L24.9559 17.8225C25.3033 19.8403 26.2597 21.7736 27.8407 23.3259L37.8236 33.1281V48.4014C37.8236 49.1459 38.4393 49.7503 39.1975 49.7503H60.8712C61.6295 49.7503 62.2451 49.1459 62.2451 48.4014V30.6681C62.2463 25.027 58.2479 20.2914 52.888 19.027Z" fill="black"/>
</g>
</g>
<defs>
<clipPath id="clip0_709_152">
<rect width="62.2449" height="50" fill="white"/>
</clipPath>
</defs>
</svg>
