<svg width="50" height="50" viewBox="0 0 50 50" fill="none" xmlns="http://www.w3.org/2000/svg">
<g opacity="0.8">
<mask id="mask0_709_134" style="mask-type:alpha" maskUnits="userSpaceOnUse" x="0" y="0" width="50" height="50">
<path d="M0 0H50V50H0V0Z" fill="white"/>
</mask>
<g mask="url(#mask0_709_134)">
<path fill-rule="evenodd" clip-rule="evenodd" d="M50 13.1583C50 16.1185 49.0218 18.8556 47.3727 21.0528C46.6227 22.0535 45.7436 22.9349 44.7455 23.6852C42.5518 25.336 39.8191 26.3157 36.8636 26.3157H13.1373C7.33727 26.3157 2.64818 31.0397 2.64818 36.8426C2.64818 42.6446 7.36364 47.3685 13.1573 47.3685C18.9509 47.3685 23.6864 42.6446 23.6864 36.8426V33.4408L20.6909 36.4538C20.1791 36.9746 19.3609 36.9746 18.8482 36.4538C18.3291 35.9411 18.3345 35.1116 18.8536 34.599L24.11 29.336C24.6218 28.8161 25.4518 28.8161 25.9645 29.336L31.22 34.599C31.7382 35.1116 31.7382 35.9411 31.2209 36.4538C30.9645 36.7106 30.6291 36.8426 30.2945 36.8426C29.96 36.8426 29.6045 36.7106 29.3491 36.4538L26.3136 33.4408V36.8426C26.3136 39.8028 25.3155 42.5399 23.6664 44.737C22.9173 45.7377 22.0018 46.6191 21.01 47.3685C18.8155 49.0193 16.0891 50 13.1327 50C10.1773 50 7.44 49.0193 5.25273 47.3685C4.25455 46.6191 3.36909 45.7377 2.62636 44.737C0.978182 42.5399 0 39.8028 0 36.8426C0 33.8815 0.979091 31.1453 2.62727 28.9472C3.37 27.9474 4.25636 27.066 5.25455 26.3157C7.44182 24.6649 10.1809 23.6852 13.1373 23.6852H36.8627C42.6564 23.6852 47.3718 18.9612 47.3718 13.1583C47.3718 7.35541 42.6355 2.63148 36.8427 2.63148C31.0491 2.63148 26.3136 7.35541 26.3136 13.1583V16.5592L29.3482 13.5462C29.86 13.0263 30.6982 13.0263 31.21 13.5462C31.7282 14.0598 31.7336 14.8884 31.2155 15.4019L26.3509 20.277L25.9655 20.6649C25.7082 20.9217 25.3736 21.0528 25.0382 21.0528C24.7036 21.0528 24.3691 20.9217 24.1127 20.6649L23.7255 20.277L18.8591 15.4019C18.34 14.8884 18.34 14.0598 18.8591 13.5462C19.3709 13.0263 20.1791 13.0263 20.6909 13.5462L23.6864 16.5592V13.1583C23.6864 10.1981 24.6855 7.46103 26.3336 5.26388C27.0818 4.26319 27.9736 3.38177 28.9709 2.63148C31.1645 0.98066 33.9018 0 36.8582 0C39.8136 0 42.5491 0.98066 44.7427 2.63148C45.7409 3.38177 46.6218 4.26319 47.3709 5.26388C49.0191 7.46103 50 10.1981 50 13.1583Z" fill="black"/>
</g>
</g>
</svg>
