<svg width="47" height="50" viewBox="0 0 47 50" fill="none" xmlns="http://www.w3.org/2000/svg">
<path fill-rule="evenodd" clip-rule="evenodd" d="M40.7773 47.48H44.6873V28.2082H40.7773V47.48ZM1.67545 47.4809H5.58545V28.2091H1.67545V47.4809ZM23.1818 17.2345L35.9673 26.5327H10.3964L23.1818 17.2345ZM35.1918 47.4809H39.1018V28.2091H35.1918V47.4809ZM29.6055 47.4809H33.5155V28.2091H29.6055V47.4809ZM24.02 47.4809H27.93V28.2091H24.02V47.4809ZM18.4336 47.4809H22.3436V28.2091H18.4336V47.4809ZM12.8482 47.4809H16.7582V28.2091H12.8482V47.4809ZM7.26182 47.48H11.1718V28.2082H7.26182V47.48ZM38.8155 26.5327L24.02 15.7727V12.7718C26.3936 12.3709 28.2091 10.3055 28.2091 7.82V0.837273C28.2091 0.374545 27.8336 0 27.3709 0C26.9091 0 26.5336 0.374545 26.5336 0.837273V7.82C26.5336 9.37818 25.4636 10.6882 24.02 11.0618V10.6127C24.02 10.15 23.6445 9.77545 23.1818 9.77545C22.7191 9.77545 22.3445 10.15 22.3445 10.6127V11.0618C20.9009 10.6882 19.83 9.37818 19.83 7.82C19.83 7.35727 19.4555 6.98273 18.9918 6.98273C18.5291 6.98273 18.1545 7.35727 18.1545 7.82C18.1545 10.3055 19.97 12.3709 22.3445 12.7718V15.7727L7.54818 26.5327H0V49.1564H46.3636V26.5327H38.8155Z" fill="black"/>
</svg>
