<svg width="50" height="50" viewBox="0 0 50 50" fill="none" xmlns="http://www.w3.org/2000/svg">
<g opacity="0.8" clip-path="url(#clip0_709_160)">
<path fill-rule="evenodd" clip-rule="evenodd" d="M31.4062 4.16196C32.5725 4.16196 33.4878 3.24783 33.4878 2.08043C33.4878 0.914131 32.5725 0 31.4062 0C30.2388 0 29.3247 0.914131 29.3247 2.08043C29.3247 3.24783 30.2388 4.16196 31.4062 4.16196Z" fill="black"/>
<path fill-rule="evenodd" clip-rule="evenodd" d="M26.8079 10.1864C26.8079 11.3527 27.722 12.2668 28.8894 12.2668C30.0557 12.2668 30.9698 11.3527 30.9698 10.1864C30.9698 9.01902 30.0557 8.10489 28.8894 8.10489C27.722 8.10489 26.8079 9.01902 26.8079 10.1864Z" fill="black"/>
<path fill-rule="evenodd" clip-rule="evenodd" d="M11.7673 14.8734C11.7673 16.0397 12.6815 16.9538 13.8489 16.9538C15.0152 16.9538 15.9293 16.0397 15.9293 14.8734C15.9293 13.706 15.0152 12.7918 13.8489 12.7918C12.6815 12.7918 11.7673 13.706 11.7673 14.8734Z" fill="black"/>
<path fill-rule="evenodd" clip-rule="evenodd" d="M7.87864 5.80414C9.04495 5.80414 9.95908 4.89001 9.95908 3.7237C9.95908 2.55631 9.04495 1.64218 7.87864 1.64218C6.71125 1.64218 5.79712 2.55631 5.79712 3.7237C5.79712 4.89001 6.71125 5.80414 7.87864 5.80414Z" fill="black"/>
<path fill-rule="evenodd" clip-rule="evenodd" d="M16.8581 7.42282C18.0244 7.42282 18.9386 6.50869 18.9386 5.3413C18.9386 4.17499 18.0244 3.26086 16.8581 3.26086C15.6907 3.26086 14.7766 4.17499 14.7766 5.3413C14.7766 6.50869 15.6907 7.42282 16.8581 7.42282Z" fill="black"/>
<path fill-rule="evenodd" clip-rule="evenodd" d="M14.7771 25.408C14.7771 26.5754 15.6912 27.4895 16.8586 27.4895C18.0249 27.4895 18.9391 26.5754 18.9391 25.408C18.9391 24.2406 18.0249 23.3265 16.8586 23.3265C15.6912 23.3265 14.7771 24.2406 14.7771 25.408Z" fill="black"/>
<path fill-rule="evenodd" clip-rule="evenodd" d="M27.3933 33.5092C28.5596 33.5092 29.4737 32.5951 29.4737 31.4277C29.4737 30.2614 28.5596 29.3462 27.3933 29.3462C26.2259 29.3462 25.3118 30.2614 25.3118 31.4277C25.3118 32.5951 26.2259 33.5092 27.3933 33.5092Z" fill="black"/>
<path fill-rule="evenodd" clip-rule="evenodd" d="M22.4065 21.8139C23.5739 21.8139 24.488 20.8998 24.488 19.7324C24.488 18.5661 23.5739 17.6519 22.4065 17.6519C21.2391 17.6519 20.325 18.5661 20.325 19.7324C20.325 20.8998 21.2391 21.8139 22.4065 21.8139Z" fill="black"/>
<path fill-rule="evenodd" clip-rule="evenodd" d="M44.6168 16.9539C45.7831 16.9539 46.6973 16.0398 46.6973 14.8735C46.6973 13.7061 45.7831 12.792 44.6168 12.792C43.4505 12.792 42.5364 13.7061 42.5364 14.8735C42.5364 16.0398 43.4505 16.9539 44.6168 16.9539Z" fill="black"/>
<path fill-rule="evenodd" clip-rule="evenodd" d="M37.4264 26.8384C36.2601 26.8384 35.3459 27.7525 35.3459 28.9199C35.3459 30.0862 36.2601 31.0003 37.4264 31.0003C38.5927 31.0003 39.5068 30.0862 39.5068 28.9199C39.5068 27.7525 38.5927 26.8384 37.4264 26.8384Z" fill="black"/>
<path fill-rule="evenodd" clip-rule="evenodd" d="M29.474 38.953C29.474 37.7857 28.5598 36.8715 27.3935 36.8715C26.2261 36.8715 25.312 37.7857 25.312 38.953C25.312 40.1193 26.2261 41.0335 27.3935 41.0335C28.5598 41.0335 29.474 40.1193 29.474 38.953Z" fill="black"/>
<path fill-rule="evenodd" clip-rule="evenodd" d="M26.2326 45.1447C25.0653 45.1447 24.1511 46.0588 24.1511 47.2262C24.1511 48.3925 25.0653 49.3066 26.2326 49.3066C27.4 49.3066 28.3142 48.3925 28.3142 47.2262C28.3142 46.0588 27.4 45.1447 26.2326 45.1447Z" fill="black"/>
<path fill-rule="evenodd" clip-rule="evenodd" d="M38.5133 41.5537C37.347 41.5537 36.4329 42.4678 36.4329 43.6352C36.4329 44.8015 37.347 45.7157 38.5133 45.7157C39.6796 45.7157 40.5937 44.8015 40.5937 43.6352C40.5937 42.4678 39.6796 41.5537 38.5133 41.5537Z" fill="black"/>
<path fill-rule="evenodd" clip-rule="evenodd" d="M36.3395 18.2266C35.1732 18.2266 34.259 19.1408 34.259 20.3081C34.259 21.4745 35.1732 22.3886 36.3395 22.3886C37.5058 22.3886 38.4199 21.4745 38.4199 20.3081C38.4199 19.1408 37.5058 18.2266 36.3395 18.2266Z" fill="black"/>
<path fill-rule="evenodd" clip-rule="evenodd" d="M47.3014 27.5867C46.1351 27.5867 45.2209 28.5009 45.2209 29.6683C45.2209 30.8346 46.1351 31.7487 47.3014 31.7487C48.4688 31.7487 49.3829 30.8346 49.3829 29.6683C49.3829 28.5009 48.4688 27.5867 47.3014 27.5867Z" fill="black"/>
<path fill-rule="evenodd" clip-rule="evenodd" d="M42.443 33.8622C41.2767 33.8622 40.3625 34.7763 40.3625 35.9426C40.3625 37.11 41.2767 38.0241 42.443 38.0241C43.6093 38.0241 44.5234 37.11 44.5234 35.9426C44.5234 34.7763 43.6093 33.8622 42.443 33.8622Z" fill="black"/>
<path fill-rule="evenodd" clip-rule="evenodd" d="M37.4264 6.77219C36.2601 6.77219 35.3459 7.68632 35.3459 8.85371C35.3459 10.02 36.2601 10.9341 37.4264 10.9341C38.5927 10.9341 39.5068 10.02 39.5068 8.85371C39.5068 7.68632 38.5927 6.77219 37.4264 6.77219Z" fill="black"/>
<path fill-rule="evenodd" clip-rule="evenodd" d="M10.3364 29.9135C11.5038 29.9135 12.4179 28.9994 12.4179 27.833C12.4179 26.6657 11.5038 25.7515 10.3364 25.7515C9.16901 25.7515 8.25488 26.6657 8.25488 27.833C8.25488 28.9994 9.16901 29.9135 10.3364 29.9135Z" fill="black"/>
<path fill-rule="evenodd" clip-rule="evenodd" d="M2.63011 21.2752C3.79641 21.2752 4.71163 20.3611 4.71163 19.1948C4.71163 18.0274 3.79641 17.1133 2.63011 17.1133C1.46271 17.1133 0.548584 18.0274 0.548584 19.1948C0.548584 20.3611 1.46271 21.2752 2.63011 21.2752Z" fill="black"/>
<path fill-rule="evenodd" clip-rule="evenodd" d="M2.08068 34.0755C0.914375 34.0755 0.000244141 34.9897 0.000244141 36.1571C0.000244141 37.3234 0.914375 38.2375 2.08068 38.2375C3.24807 38.2375 4.1622 37.3234 4.1622 36.1571C4.1622 34.9897 3.24807 34.0755 2.08068 34.0755Z" fill="black"/>
<path fill-rule="evenodd" clip-rule="evenodd" d="M13.438 38.0503C12.2706 38.0503 11.3564 38.9634 11.3564 40.1308C11.3564 41.2981 12.2706 42.2123 13.438 42.2123C14.6043 42.2123 15.5195 41.2981 15.5195 40.1308C15.5195 38.9634 14.6043 38.0503 13.438 38.0503Z" fill="black"/>
</g>
<defs>
<clipPath id="clip0_709_160">
<rect width="50" height="50" fill="white"/>
</clipPath>
</defs>
</svg>
