<svg width="45" height="40" viewBox="0 0 45 40" fill="none" xmlns="http://www.w3.org/2000/svg">
<g opacity="0.8" clip-path="url(#clip0_709_199)">
<mask id="mask0_709_199" style="mask-type:alpha" maskUnits="userSpaceOnUse" x="0" y="0" width="45" height="12">
<path d="M0 0.000305176H44.4443V11.9764H0V0.000305176Z" fill="white"/>
</mask>
<g mask="url(#mask0_709_199)">
<path fill-rule="evenodd" clip-rule="evenodd" d="M42.5589 9.10785C42.5589 9.65363 42.1171 10.0963 41.5713 10.0963H2.82376C2.30376 10.0963 1.88242 9.67496 1.88242 9.15496V2.82696C1.88242 2.30696 2.30376 1.88563 2.82376 1.88563H41.6175C42.1375 1.88563 42.5589 2.30696 42.5589 2.82696V9.10785ZM41.6175 -0.000595093H2.82376C1.26376 -0.000595093 -0.000244141 1.26429 -0.000244141 2.82429V9.15229C-0.000244141 10.7123 1.26376 11.9763 2.82376 11.9763H41.574C43.1589 11.9754 44.4433 10.6901 44.4442 9.10518V2.82696C44.446 1.26696 43.182 0.00118269 41.622 -0.000595093H41.6175Z" fill="black"/>
</g>
<mask id="mask1_709_199" style="mask-type:alpha" maskUnits="userSpaceOnUse" x="0" y="13" width="45" height="13">
<path d="M0 13.8289H44.4443V25.8031H0V13.8289Z" fill="white"/>
</mask>
<g mask="url(#mask1_709_199)">
<path fill-rule="evenodd" clip-rule="evenodd" d="M42.5589 22.9364C42.558 23.4822 42.1162 23.9231 41.5713 23.9249H2.82376C2.30376 23.9249 1.88242 23.5036 1.88242 22.9836V16.6556C1.88242 16.1356 2.30376 15.7142 2.82376 15.7142H41.6175C42.1375 15.7142 42.5589 16.1356 42.5589 16.6556V22.9364ZM41.6175 13.8289H2.82376C1.26376 13.8289 -0.000244141 15.0929 -0.000244141 16.6529V22.9791C-0.000244141 24.5382 1.26376 25.8031 2.82376 25.8031H41.574C43.158 25.8004 44.4415 24.516 44.4442 22.932V16.6556C44.446 15.0956 43.182 13.8298 41.622 13.8289H41.6175Z" fill="black"/>
</g>
<mask id="mask2_709_199" style="mask-type:alpha" maskUnits="userSpaceOnUse" x="0" y="27" width="45" height="13">
<path d="M0 27.6571H44.4443V39.634H0V27.6571Z" fill="white"/>
</mask>
<g mask="url(#mask2_709_199)">
<path fill-rule="evenodd" clip-rule="evenodd" d="M42.5589 36.7629C42.5589 37.3095 42.1171 37.7522 41.5713 37.754H2.82376C2.30376 37.754 1.88242 37.3326 1.88242 36.8126V30.4837C1.88242 29.9637 2.30376 29.5424 2.82376 29.5424H41.6175C42.1375 29.5424 42.5589 29.9637 42.5589 30.4837V36.7629ZM41.6175 27.6571H2.82376C1.26376 27.6571 -0.000244141 28.922 -0.000244141 30.482V36.81C-0.000244141 38.37 1.26376 39.634 2.82376 39.634H41.574C43.158 39.6313 44.4415 38.3477 44.4442 36.7629V30.4837C44.446 28.9246 43.182 27.6589 41.622 27.6571H41.6175Z" fill="black"/>
</g>
<path fill-rule="evenodd" clip-rule="evenodd" d="M37.0806 4.56107C37.8237 4.56107 38.4272 5.16373 38.4272 5.90684C38.4272 6.65084 37.8237 7.25351 37.0806 7.25351C36.3366 7.25351 35.7339 6.65084 35.7339 5.90684C35.7339 5.16373 36.3366 4.56107 37.0806 4.56107Z" fill="black"/>
<path fill-rule="evenodd" clip-rule="evenodd" d="M30.354 19.3036C30.6385 18.6174 31.426 18.2903 32.1131 18.5756C32.7993 18.8592 33.1256 19.6467 32.8411 20.3339C32.5576 21.021 31.7691 21.3472 31.082 21.0627C30.3958 20.7783 30.0696 19.9907 30.354 19.3036Z" fill="black"/>
<path fill-rule="evenodd" clip-rule="evenodd" d="M37.0806 18.4721C37.8237 18.4721 38.4272 19.0748 38.4272 19.8179C38.4272 20.5619 37.8237 21.1646 37.0806 21.1646C36.3366 21.1646 35.7339 20.5619 35.7339 19.8179C35.7339 19.0748 36.3366 18.4721 37.0806 18.4721Z" fill="black"/>
<path fill-rule="evenodd" clip-rule="evenodd" d="M37.0806 32.3831C37.8237 32.3831 38.4272 32.9858 38.4272 33.7298C38.4272 34.4729 37.8237 35.0756 37.0806 35.0756C36.3366 35.0756 35.7339 34.4729 35.7339 33.7298C35.7339 32.9858 36.3366 32.3831 37.0806 32.3831Z" fill="black"/>
</g>
<defs>
<clipPath id="clip0_709_199">
<rect width="44.4444" height="40" fill="white"/>
</clipPath>
</defs>
</svg>
