<svg width="55" height="40" viewBox="0 0 55 40" fill="none" xmlns="http://www.w3.org/2000/svg">
<g opacity="0.8" clip-path="url(#clip0_709_186)">
<mask id="mask0_709_186" style="mask-type:alpha" maskUnits="userSpaceOnUse" x="0" y="0" width="25" height="40">
<path d="M0 0.143906H24.3388V39.9501H0V0.143906Z" fill="white"/>
</mask>
<g mask="url(#mask0_709_186)">
<path fill-rule="evenodd" clip-rule="evenodd" d="M2.42421 26.6134C2.42421 20.9113 6.76842 16.2471 12.3295 15.7418C12.9011 15.6923 13.3589 15.2502 13.4284 14.6818C13.7779 11.6692 15.0916 8.75759 17.4053 6.44285C18.6705 5.17864 20.1221 4.22706 21.6674 3.55548L21.6937 37.5229H13.3337C7.29368 37.5229 2.42421 32.6523 2.42421 26.6134ZM0 26.6134C0 33.9628 5.98421 39.9471 13.3337 39.9471H21.6958V39.9502H24.3274L24.3389 0.143906L24.0905 0.232327C21.2547 0.919695 17.8937 2.52601 15.7011 4.71969C13.2242 7.19654 11.7484 10.2955 11.1937 13.5071C4.85684 14.5365 0 19.9965 0 26.6134Z" fill="black"/>
</g>
<mask id="mask1_709_186" style="mask-type:alpha" maskUnits="userSpaceOnUse" x="28" y="0" width="27" height="40">
<path d="M28.0122 0.000534058H54.5453V39.95H28.0122V0.000534058Z" fill="white"/>
</mask>
<g mask="url(#mask1_709_186)">
<path fill-rule="evenodd" clip-rule="evenodd" d="M30.6375 37.5226L30.5512 2.78053C32.9575 3.35422 35.2375 4.55948 37.1217 6.44369C40.2733 9.59527 41.5901 13.8763 41.0985 17.9774C41.0143 18.6416 41.4859 19.2479 42.1501 19.3311C42.2027 19.3384 42.2575 19.3416 42.3101 19.3416H43.0301C48.0869 19.3416 52.1206 23.3742 52.1206 28.4321C52.1206 33.489 48.0869 37.5226 43.0301 37.5226H30.6375ZM28.0638 0.0405341L28.0122 39.95H30.6438V39.9468H43.0301C49.388 39.9468 54.5459 34.79 54.5459 28.4321C54.5459 22.2416 49.649 17.2363 43.5227 16.9732C43.6996 12.5637 42.1859 8.07948 38.8259 4.71948C36.0701 1.96369 31.7101 0.372113 28.1112 0.000534058L28.1322 0.0584288L28.0638 0.0405341Z" fill="black"/>
</g>
</g>
<defs>
<clipPath id="clip0_709_186">
<rect width="54.7368" height="40" fill="white"/>
</clipPath>
</defs>
</svg>
