<svg id="Layer_1" data-name="Layer 1" xmlns="http://www.w3.org/2000/svg" xmlns:xlink="http://www.w3.org/1999/xlink" viewBox="0 0 225.01 24.89"><defs><style>.cls-1{fill:none;}.cls-2{fill:#001021;}.cls-3{clip-path:url(#clip-path);}.cls-4{fill:#ef2369;}</style><clipPath id="clip-path" transform="translate(0 0)"><rect class="cls-1" width="225" height="24.87"/></clipPath></defs><path class="cls-2" d="M89.88.29l-8,10.5L73.9.29H70.22v24.3h3.4V5.42l8.25,10.89,8.3-10.89V24.59h3.4V.29Z" transform="translate(0 0)"/><rect class="cls-2" x="98.65" y="0.29" width="3.4" height="24.3"/><g class="cls-3"><path class="cls-2" d="M110.55,12.17H116c2.11,0,3.56-.41,4.34-1.23a4.48,4.48,0,0,0,1.16-3.2q0-4.47-5.64-4.47h-5.28Zm-3.4,12.42V.29h9a9.89,9.89,0,0,1,6.42,1.9,6.64,6.64,0,0,1,2.34,5.44,6.94,6.94,0,0,1-1.56,4.75,7.86,7.86,0,0,1-3.89,2.41l6.46,9.8h-4L116,15.33h-5.46v9.25Z" transform="translate(0 0)"/><path class="cls-2" d="M138.92,4.52l3.87,10.09h-7.73ZM137.29.28l-9.7,24.3h3.65l2.61-6.81H144l2.62,6.81h3.65L140.59.28Z" transform="translate(0 0)"/><path class="cls-2" d="M170.26.29V19.62L156.67.29h-3.86v24.3h3.4V5.12l13.7,19.47h3.75V.29Z" transform="translate(0 0)"/><path class="cls-2" d="M177.56.29V3.45h8.15V24.59h3.4V3.45h8.2V.29Z" transform="translate(0 0)"/><rect class="cls-2" x="201.22" y="0.29" width="3.4" height="24.3"/><path class="cls-2" d="M208.67,6.85A6.46,6.46,0,0,1,210.74,2q2.08-2,6.42-2a13.86,13.86,0,0,1,6.26,1.48v3.3a11.17,11.17,0,0,0-5.85-1.62q-5.5,0-5.5,3.69a2.13,2.13,0,0,0,1,1.72,7.62,7.62,0,0,0,2.39,1.18c.94.29,2,.67,3.11,1.14a26.91,26.91,0,0,1,3.11,1.49A6.58,6.58,0,0,1,225,18.26a5.72,5.72,0,0,1-2.33,4.86,10.53,10.53,0,0,1-6.45,1.76A16.52,16.52,0,0,1,209,23.14v-3.5a13.1,13.1,0,0,0,6.93,2.07q5.67,0,5.68-3.45a3.62,3.62,0,0,0-.95-2.52,5.43,5.43,0,0,0-2.38-1.5l-3.13-1.06C214,12.78,213,12.38,212,12A5.69,5.69,0,0,1,209.64,10a5.22,5.22,0,0,1-1-3.18" transform="translate(0 0)"/><path class="cls-2" d="M16.39,9.4c3.75,1.06,6.39,3.35,9.13,5.65C28,13.69,30.35,12.28,32.75,11q1.23-.69,2.46-1.29c-.82-.73-1.65-1.45-2.52-2.12a20.36,20.36,0,0,0-11.1-4.3A28.91,28.91,0,0,0,0,11.25,20.64,20.64,0,0,1,16.4,9.4" transform="translate(0 0)"/><path class="cls-2" d="M41.55,14.22a17.42,17.42,0,0,1-3.82-2.4c-2.62,1.45-5.2,3-7.78,4.4-.6.33-1.2.64-1.79,1a25.44,25.44,0,0,0,2.19,1.48c9.72,5.82,23.13,2.62,31-5-6,3.68-13.54,3.34-19.81.59" transform="translate(0 0)"/><path class="cls-4" d="M57.82,4.16a46.1,46.1,0,0,0-25.76,6.1C23,15.27,13.88,21.47,3.51,21.62a46.27,46.27,0,0,0,25.76-6.1c9.07-5,18.18-11.21,28.55-11.36" transform="translate(0 0)"/></g></svg>