<svg xmlns="http://www.w3.org/2000/svg" xmlns:xlink="http://www.w3.org/1999/xlink" width="225" height="24.872" viewBox="0 0 225 24.872"><defs><clipPath id="a"><rect width="225" height="24.872" fill="#001021"/></clipPath></defs><path d="M-458.12-920.047l-8.016,10.5-7.961-10.5h-3.683v24.3h3.4v-19.161l8.245,10.888,8.3-10.888v19.161h3.4v-24.3Z" transform="translate(548.001 920.333)" fill="#001021"/><rect width="3.398" height="24.302" transform="translate(98.656 0.286)" fill="#001021"/><g clip-path="url(#a)"><path d="M-317.482-908.164h5.427q3.165,0,4.332-1.232a4.467,4.467,0,0,0,1.165-3.2q0-4.466-5.64-4.465h-5.285Zm-3.4,12.418v-24.3h8.967a9.858,9.858,0,0,1,6.413,1.907,6.621,6.621,0,0,1,2.34,5.44,6.9,6.9,0,0,1-1.557,4.742,7.943,7.943,0,0,1-3.887,2.416l6.458,9.8h-4L-312.02-905h-5.463v9.251Z" transform="translate(428.028 920.333)" fill="#001021"/><path d="M-222.682-915.814l3.862,10.088h-7.723Zm-1.636-4.233-9.7,24.3h3.647l2.615-6.814h10.142l2.615,6.814h3.647l-9.661-24.3Z" transform="translate(361.607 920.332)" fill="#001021"/><path d="M-109.414-920.047v19.339l-13.592-19.339h-3.862v24.3h3.4v-19.464l13.7,19.464h3.754v-24.3Z" transform="translate(279.678 920.333)" fill="#001021"/><path d="M-21.689-920.047v3.166h8.148v21.136h3.4v-21.136h8.2v-3.166Z" transform="translate(199.253 920.333)" fill="#001021"/><rect width="3.398" height="24.302" transform="translate(201.218 0.286)" fill="#001021"/><path d="M110.464-914.41a6.488,6.488,0,0,1,2.075-4.851q2.075-2,6.42-2a13.953,13.953,0,0,1,6.263,1.48v3.3a11.093,11.093,0,0,0-5.855-1.616q-5.5,0-5.5,3.683a2.136,2.136,0,0,0,.968,1.724,7.642,7.642,0,0,0,2.388,1.177q1.42.44,3.113,1.141a30.121,30.121,0,0,1,3.116,1.49,6.6,6.6,0,0,1,2.387,2.317A6.53,6.53,0,0,1,126.8-903a5.737,5.737,0,0,1-2.334,4.864,10.524,10.524,0,0,1-6.445,1.752,16.4,16.4,0,0,1-7.232-1.74v-3.493a13.145,13.145,0,0,0,6.93,2.065q5.666,0,5.682-3.449a3.583,3.583,0,0,0-.958-2.515,5.515,5.515,0,0,0-2.38-1.508l-3.126-1.06q-1.7-.592-3.123-1.213a5.809,5.809,0,0,1-2.382-1.931,5.217,5.217,0,0,1-.964-3.179" transform="translate(98.203 921.26)" fill="#001021"/><path d="M-759.749-901.524c3.749,1.063,6.392,3.354,9.13,5.648,2.426-1.356,4.826-2.764,7.225-4.09q1.235-.682,2.463-1.286c-.824-.726-1.652-1.449-2.518-2.117a20.3,20.3,0,0,0-11.1-4.3,28.9,28.9,0,0,0-21.589,7.993,20.625,20.625,0,0,1,16.392-1.843" transform="translate(776.141 910.923)" fill="#001021"/><path d="M-643.106-868.646a17.42,17.42,0,0,1-3.823-2.4c-2.615,1.451-5.2,2.972-7.779,4.4-.6.33-1.2.645-1.79.949a25.9,25.9,0,0,0,2.19,1.479c9.726,5.827,23.13,2.626,31.016-5.019-5.988,3.683-13.545,3.347-19.815.593" transform="translate(684.656 882.864)" fill="#001021"/><path d="M-706.923-903.807a46.179,46.179,0,0,0-25.76,6.1c-9.076,5.015-18.18,11.212-28.558,11.361a46.182,46.182,0,0,0,25.76-6.1c9.075-5.015,18.181-11.212,28.557-11.361" transform="translate(764.747 907.965)" fill="#ef2369"/></g></svg>