<svg width="53" height="50" viewBox="0 0 53 50" fill="none" xmlns="http://www.w3.org/2000/svg">
<g opacity="0.8" clip-path="url(#clip0_709_220)">
<mask id="mask0_709_220" style="mask-type:alpha" maskUnits="userSpaceOnUse" x="0" y="0" width="53" height="50">
<path d="M0 0.000396729H52.9407V49.3657H0V0.000396729Z" fill="white"/>
</mask>
<g mask="url(#mask0_709_220)">
<path fill-rule="evenodd" clip-rule="evenodd" d="M28.2868 41.1475C28.1868 41.1367 28.0701 41.1475 27.9681 41.1475C26.3387 41.1475 25.0475 42.4337 25.0475 44.0494C25.0475 45.6641 26.3387 46.969 27.9681 46.969C29.5975 46.969 30.9074 45.6641 30.9074 44.0494C30.9074 42.5347 29.7721 41.2955 28.2868 41.1475ZM34.1642 21.1916C31.0417 21.1916 28.5299 23.6847 28.5299 26.7886C28.5299 29.8926 31.0368 32.3671 34.1642 32.3671C37.2936 32.3671 39.7622 29.8975 39.7622 26.7886C39.7622 23.6798 37.2887 21.1916 34.1642 21.1916ZM5.14755 16.6053C3.61618 16.6053 2.39657 17.8386 2.39657 19.3563C2.39657 20.9063 3.61618 22.1278 5.14755 22.1278C6.74853 22.1514 7.80441 21.3131 7.91912 19.3563C7.91912 17.8386 6.6799 16.6053 5.14755 16.6053ZM47.325 12.8229C45.525 12.8229 44.0858 14.2357 44.0858 16.0435C44.0858 17.822 45.5328 19.2631 47.325 19.2631C49.1172 19.2631 50.5446 17.822 50.5446 16.0435C50.5446 14.2357 49.125 12.8229 47.325 12.8229ZM28.4554 2.39648C26.2083 2.39648 24.4113 4.17196 24.4113 6.40236C24.4113 8.63275 26.2083 10.4278 28.4554 10.4278C30.7015 10.4278 32.4985 8.63275 32.4985 6.40236C32.4985 4.17196 30.7015 2.39648 28.4554 2.39648ZM26.4897 29.0916C26.2681 28.3631 26.1338 27.5877 26.1338 26.7886C26.1338 26.52 26.1446 26.2465 26.1711 25.9837L9.69755 21.7533C8.8348 23.3926 7.12108 24.5229 5.14755 24.5229C2.31912 24.5239 -0.000488281 22.1994 -0.000488281 19.3563C-0.000488281 16.5308 2.31912 14.2082 5.14755 14.2082C7.97794 14.2082 10.3142 16.5308 10.3142 19.3563V19.4504L26.7701 23.6631C27.5593 21.822 29.0279 20.3347 30.8505 19.5063L28.9985 12.7857C28.8181 12.8014 28.6377 12.8229 28.4554 12.8229C24.9172 12.8229 22.0152 9.93373 22.0152 6.40236C22.0152 2.87098 24.9172 0.000396729 28.4554 0.000396729C31.9917 0.000396729 34.8946 2.87098 34.8946 6.40236C34.8946 8.91118 33.4152 11.0955 31.3005 12.1494L33.1721 18.8514C33.4966 18.8112 33.8299 18.7955 34.1642 18.7955C36.2221 18.7955 38.1005 19.5749 39.5181 20.8543L42.3083 18.5896C41.9142 17.8249 41.6907 16.9563 41.6907 16.0435C41.6907 12.9406 44.2417 10.4278 47.325 10.4278C50.4073 10.4278 52.9407 12.9406 52.9407 16.0435C52.9407 19.1298 50.4152 21.6592 47.325 21.6592C46.0054 21.6592 44.7877 21.1916 43.825 20.4239L41.0348 22.7073C41.7515 23.9063 42.1573 25.2975 42.1573 26.7886C42.1573 31.1886 38.574 34.7641 34.1642 34.7641C33.6005 34.7641 33.0485 34.7063 32.5172 34.5955L30.7015 39.4994C32.2544 40.4308 33.3034 42.122 33.3034 44.0494C33.3034 46.968 30.8897 49.3661 27.9681 49.3661C25.0456 49.3661 22.6515 46.968 22.6515 44.0494C22.6515 41.1308 25.0456 38.7514 27.9681 38.7514C28.1191 38.7514 28.2691 38.7573 28.4172 38.77L30.2701 33.772C29.1652 33.1602 28.226 32.2827 27.5191 31.2445" fill="black"/>
</g>
</g>
<defs>
<clipPath id="clip0_709_220">
<rect width="52.9412" height="50" fill="white"/>
</clipPath>
</defs>
</svg>
