<svg width="69" height="50" viewBox="0 0 69 50" fill="none" xmlns="http://www.w3.org/2000/svg">
<g opacity="0.8" clip-path="url(#clip0_709_126)">
<mask id="mask0_709_126" style="mask-type:alpha" maskUnits="userSpaceOnUse" x="0" y="0" width="69" height="50">
<path d="M0.000244141 0.000198364H68.1816V49.9999H0.000244141V0.000198364Z" fill="white"/>
</mask>
<g mask="url(#mask0_709_126)">
<path fill-rule="evenodd" clip-rule="evenodd" d="M34.091 3.03046C29.6279 3.03046 25.1897 4.71072 21.7805 8.11993C17.8397 12.0607 16.1937 17.412 16.8081 22.5384C16.9134 23.3686 16.3252 24.1265 15.495 24.2305C15.4279 24.2397 15.3608 24.2436 15.2937 24.2423H14.3937C8.07261 24.2423 3.03051 29.2844 3.03051 35.6055C3.03051 41.9278 8.07261 46.9699 14.3937 46.9699H51.5147C59.0634 46.9699 65.1516 40.8831 65.1516 33.3331C65.1516 26.2055 59.7213 20.3752 52.77 19.7449C52.0568 19.6818 51.4831 19.1291 51.3963 18.4186C50.9595 14.6528 49.3187 11.0134 46.4252 8.11993C43.0187 4.71336 38.5542 3.03046 34.091 3.03046ZM34.091 0.000198364C39.3226 0.000198364 44.566 1.97651 48.5555 5.96599C51.6516 9.06072 53.4963 12.9344 54.1897 16.9515C62.1121 18.237 68.1818 25.062 68.1818 33.3331C68.1818 42.5199 60.7029 50.0002 51.5147 50.0002H14.3937C6.4463 50.0002 0.000244141 43.5541 0.000244141 35.6055C0.000244141 27.8686 6.1213 21.612 13.7779 21.2831C13.5568 15.7699 15.4502 10.166 19.6489 5.96599C23.6358 1.97915 28.8595 0.000198364 34.091 0.000198364Z" fill="black"/>
</g>
</g>
<defs>
<clipPath id="clip0_709_126">
<rect width="68.4211" height="50" fill="white"/>
</clipPath>
</defs>
</svg>
