<svg width="40" height="50" viewBox="0 0 40 50" fill="none" xmlns="http://www.w3.org/2000/svg">
<path d="M20.2105 0.181335C12.8421 0.181335 6.92104 6.10236 6.92104 13.4708V18.9971H4.6842C2.57893 18.9971 0.868408 20.7077 0.868408 22.8129V45.9708C0.868408 48.076 2.57893 49.7866 4.6842 49.7866H35.6053C37.7105 49.7866 39.421 48.076 39.421 45.9708V22.8129C39.421 20.7077 37.7105 18.9971 35.6053 18.9971H33.3684V13.4708C33.5 6.10236 27.5789 0.181335 20.2105 0.181335ZM20.2105 3.47081C25.7368 3.47081 30.2105 7.81288 30.2105 13.4708V18.9971H10.2105V13.4708C10.2105 7.81288 14.6842 3.47081 20.2105 3.47081ZM4.81578 22.2866H35.7368C36.1316 22.2866 36.2631 22.5498 36.2631 22.8129V45.9708C36.2631 46.3655 36 46.4971 35.7368 46.4971H4.81578C4.42104 46.4971 4.28946 46.2339 4.28946 45.9708V22.8129C4.15788 22.4182 4.42104 22.2866 4.81578 22.2866ZM20.2105 29.9181C19.2895 29.9181 18.5 30.7077 18.6316 31.6287V37.155C18.6316 38.076 19.2895 38.8656 20.2105 38.8656C21.1316 38.8656 21.921 38.2077 21.921 37.2866V31.7603C21.921 30.7076 21.1316 29.9181 20.2105 29.9181Z" fill="black"/>
</svg>
