<svg id="Ebene_1" data-name="Ebene 1" xmlns="http://www.w3.org/2000/svg" xmlns:xlink="http://www.w3.org/1999/xlink" viewBox="0 0 209.44 66.24"><defs><style>.cls-1,.cls-4,.cls-6{fill:none;}.cls-2{clip-path:url(#clip-path);}.cls-3{fill:#afca0b;}.cls-4{stroke:#afca0b;}.cls-4,.cls-6{stroke-width:0.4px;}.cls-5{fill:#1d1d1b;}.cls-6{stroke:#1d1d1b;}</style><clipPath id="clip-path" transform="translate(-3 -1.79)"><rect class="cls-1" x="3" y="2.79" width="209.44" height="65.24"/></clipPath></defs><title>SysEleven_Logo_Glober_cmyk</title><g class="cls-2"><path class="cls-3" d="M50.79,40.53c0,5.54,5.08,6.39,8.73,7.7,2.1.75,3.7,1.64,3.7,3.56,0,2.27-1.39,3.44-4.69,3.44a25.09,25.09,0,0,1-6.67-1.1,6.54,6.54,0,0,0-1.07,3.62,18.79,18.79,0,0,0,7.92,1.56c6.07,0,9.16-2.7,9.16-7.63,0-4.54-3.2-6.25-6.39-7.42s-6.18-1.7-6.18-3.94,1.63-3.44,5.08-3.44a18.18,18.18,0,0,1,5.28.78,5.44,5.44,0,0,0,1.21-3.55A21.28,21.28,0,0,0,59.74,33c-6,0-9,3-9,7.49" transform="translate(-3 -1.79)"/><path class="cls-4" d="M50.79,40.53c0,5.54,5.08,6.39,8.73,7.7,2.1.75,3.7,1.64,3.7,3.56,0,2.27-1.39,3.44-4.69,3.44a25.09,25.09,0,0,1-6.67-1.1,6.54,6.54,0,0,0-1.07,3.62,18.79,18.79,0,0,0,7.92,1.56c6.07,0,9.16-2.7,9.16-7.63,0-4.54-3.2-6.25-6.39-7.42s-6.18-1.7-6.18-3.94,1.63-3.44,5.08-3.44a18.18,18.18,0,0,1,5.28.78,5.44,5.44,0,0,0,1.21-3.55A21.28,21.28,0,0,0,59.74,33C53.7,33,50.79,36.06,50.79,40.53Z" transform="translate(-3 -1.79)"/><path class="cls-3" d="M87.25,40.57a6.88,6.88,0,0,0-2.1-.29,6.26,6.26,0,0,0-2.16.29l-2.88,9.51A41.79,41.79,0,0,0,79,54.56h-.15a32.37,32.37,0,0,0-1.24-4.48l-3.34-9.51a7.24,7.24,0,0,0-2.3-.29,7.82,7.82,0,0,0-2.31.29s7,19.34,7.21,20.11c-1.07,3.1-1.71,3.46-3.45,3.46A12.49,12.49,0,0,1,71.77,64a5.16,5.16,0,0,0-.32,1.77,4.66,4.66,0,0,0,.32,1.67,5.21,5.21,0,0,0,2.06.39c4.47,0,5.79-2.45,7.17-6.85Z" transform="translate(-3 -1.79)"/><path class="cls-4" d="M87.25,40.57a6.88,6.88,0,0,0-2.1-.29,6.26,6.26,0,0,0-2.16.29l-2.88,9.51A41.79,41.79,0,0,0,79,54.56h-.15a32.37,32.37,0,0,0-1.24-4.48l-3.34-9.51a7.24,7.24,0,0,0-2.3-.29,7.82,7.82,0,0,0-2.31.29s7,19.34,7.21,20.11c-1.07,3.1-1.71,3.46-3.45,3.46A12.49,12.49,0,0,1,71.77,64a5.16,5.16,0,0,0-.32,1.77,4.66,4.66,0,0,0,.32,1.67,5.21,5.21,0,0,0,2.06.39c4.47,0,5.79-2.45,7.17-6.85Z" transform="translate(-3 -1.79)"/><path class="cls-3" d="M90.3,45.68c0,3.66,2.59,4.65,4.94,5.36,1.91.57,3.65,1,3.65,2.49,0,1.31-.85,2-2.77,2a15.59,15.59,0,0,1-4.72-.85A4.49,4.49,0,0,0,90.19,58a12.91,12.91,0,0,0,6.14,1.35c4.66,0,7-2.13,7-5.89,0-3.34-2.09-4.58-4.22-5.33s-4.51-1-4.51-2.55c0-1.28,1-2,3-2a12.46,12.46,0,0,1,3.62.57A4.5,4.5,0,0,0,102.37,41s-1.42-1-5.22-1c-4.65,0-6.85,2.31-6.85,5.75" transform="translate(-3 -1.79)"/><path class="cls-4" d="M90.3,45.68c0,3.66,2.59,4.65,4.94,5.36,1.91.57,3.65,1,3.65,2.49,0,1.31-.85,2-2.77,2a15.59,15.59,0,0,1-4.72-.85A4.49,4.49,0,0,0,90.19,58a12.91,12.91,0,0,0,6.14,1.35c4.66,0,7-2.13,7-5.89,0-3.34-2.09-4.58-4.22-5.33s-4.51-1-4.51-2.55c0-1.28,1-2,3-2a12.46,12.46,0,0,1,3.62.57A4.5,4.5,0,0,0,102.37,41s-1.42-1-5.22-1C92.5,39.93,90.3,42.24,90.3,45.68Z" transform="translate(-3 -1.79)"/><path class="cls-5" d="M108.37,33.4V59h15.72a4.83,4.83,0,0,0,0-3.66H112.91V47.88h9a4.8,4.8,0,0,0,0-3.65h-9V37.05h10.83a5.08,5.08,0,0,0,.35-1.95,4.61,4.61,0,0,0-.35-1.7Z" transform="translate(-3 -1.79)"/><path class="cls-6" d="M108.37,33.4V59h15.72a4.83,4.83,0,0,0,0-3.66H112.91V47.88h9a4.8,4.8,0,0,0,0-3.65h-9V37.05h10.83a5.08,5.08,0,0,0,.35-1.95,4.61,4.61,0,0,0-.35-1.7Z" transform="translate(-3 -1.79)"/><path class="cls-5" d="M133.79,32.62a7.11,7.11,0,0,0-2.24-.29,6.31,6.31,0,0,0-2.24.29V58.67a6.31,6.31,0,0,0,2.24.29,7.11,7.11,0,0,0,2.24-.29Z" transform="translate(-3 -1.79)"/><path class="cls-6" d="M133.79,32.62a7.11,7.11,0,0,0-2.24-.29,6.31,6.31,0,0,0-2.24.29V58.67a6.31,6.31,0,0,0,2.24.29,7.11,7.11,0,0,0,2.24-.29Z" transform="translate(-3 -1.79)"/><path class="cls-5" d="M149.76,46.74c0,.4,0,.79-.07,1.18h-6.25c.32-3.31,1.67-4.51,3.48-4.51,2.24,0,2.84,1.49,2.84,3.33m4.44.54c0-5.08-2.88-7.35-7.28-7.35-4.9,0-8.09,2.88-8.09,9.58,0,6.43,2.55,9.8,8.34,9.8a11.2,11.2,0,0,0,6-1.45,4.66,4.66,0,0,0-1.35-3.16,9.71,9.71,0,0,1-4,.85c-2.49,0-4.09-.92-4.41-4.54h10.41a15.88,15.88,0,0,0,.39-3.73" transform="translate(-3 -1.79)"/><path class="cls-6" d="M149.76,46.74c0,.4,0,.79-.07,1.18h-6.25c.32-3.31,1.67-4.51,3.48-4.51C149.16,43.41,149.76,44.9,149.76,46.74Zm4.44.54c0-5.08-2.88-7.35-7.28-7.35-4.9,0-8.09,2.88-8.09,9.58,0,6.43,2.55,9.8,8.34,9.8a11.2,11.2,0,0,0,6-1.45,4.66,4.66,0,0,0-1.35-3.16,9.71,9.71,0,0,1-4,.85c-2.49,0-4.09-.92-4.41-4.54h10.41A15.88,15.88,0,0,0,154.2,47.28Z" transform="translate(-3 -1.79)"/><path class="cls-5" d="M161.54,40.57a6.94,6.94,0,0,0-2.3-.29,7.82,7.82,0,0,0-2.31.29l6,18.1a11.63,11.63,0,0,0,2.77.29,12.72,12.72,0,0,0,2.77-.29l5.9-18.1a5.74,5.74,0,0,0-2.06-.29,6.13,6.13,0,0,0-2,.29L167,50.83c-.67,2.09-1.1,4-1.1,4h-.14a32.48,32.48,0,0,0-1-4Z" transform="translate(-3 -1.79)"/><path class="cls-6" d="M161.54,40.57a6.94,6.94,0,0,0-2.3-.29,7.82,7.82,0,0,0-2.31.29l6,18.1a11.63,11.63,0,0,0,2.77.29,12.72,12.72,0,0,0,2.77-.29l5.9-18.1a5.74,5.74,0,0,0-2.06-.29,6.13,6.13,0,0,0-2,.29L167,50.83c-.67,2.09-1.1,4-1.1,4h-.14a32.48,32.48,0,0,0-1-4Z" transform="translate(-3 -1.79)"/><path class="cls-5" d="M188.13,46.74a11.5,11.5,0,0,1-.07,1.18h-6.25c.32-3.31,1.67-4.51,3.48-4.51,2.24,0,2.84,1.49,2.84,3.33m4.44.54c0-5.08-2.87-7.35-7.28-7.35-4.9,0-8.09,2.88-8.09,9.58,0,6.43,2.56,9.8,8.34,9.8a11.26,11.26,0,0,0,6-1.45,4.75,4.75,0,0,0-1.35-3.16,9.73,9.73,0,0,1-4,.85c-2.48,0-4.08-.92-4.4-4.54h10.4a15.88,15.88,0,0,0,.39-3.73" transform="translate(-3 -1.79)"/><path class="cls-6" d="M188.13,46.74a11.5,11.5,0,0,1-.07,1.18h-6.25c.32-3.31,1.67-4.51,3.48-4.51C187.53,43.41,188.13,44.9,188.13,46.74Zm4.44.54c0-5.08-2.87-7.35-7.28-7.35-4.9,0-8.09,2.88-8.09,9.58,0,6.43,2.56,9.8,8.34,9.8a11.26,11.26,0,0,0,6-1.45,4.75,4.75,0,0,0-1.35-3.16,9.73,9.73,0,0,1-4,.85c-2.48,0-4.08-.92-4.4-4.54h10.4A15.88,15.88,0,0,0,192.57,47.28Z" transform="translate(-3 -1.79)"/><path class="cls-5" d="M212.24,45.32c0-3.19-1.92-5.39-5.57-5.39a7,7,0,0,0-4.87,1.7V40.57a7,7,0,0,0-2.23-.29,6.25,6.25,0,0,0-2.24.29v18.1a6.25,6.25,0,0,0,2.24.29,7,7,0,0,0,2.23-.29V44.86a4.55,4.55,0,0,1,3.13-1.31c2,0,2.84,1,2.84,2.56V58.67A6.21,6.21,0,0,0,210,59a7,7,0,0,0,2.24-.29Z" transform="translate(-3 -1.79)"/><path class="cls-6" d="M212.24,45.32c0-3.19-1.92-5.39-5.57-5.39a7,7,0,0,0-4.87,1.7V40.57a7,7,0,0,0-2.23-.29,6.25,6.25,0,0,0-2.24.29v18.1a6.25,6.25,0,0,0,2.24.29,7,7,0,0,0,2.23-.29V44.86a4.55,4.55,0,0,1,3.13-1.31c2,0,2.84,1,2.84,2.56V58.67A6.21,6.21,0,0,0,210,59a7,7,0,0,0,2.24-.29Z" transform="translate(-3 -1.79)"/></g><rect class="cls-3" x="5.03" y="38.89" width="9.78" height="9.78" transform="translate(-31.05 18.04) rotate(-45)"/><rect class="cls-3" x="22.66" y="21.25" width="9.78" height="9.78" transform="translate(-13.42 25.35) rotate(-45)"/><rect class="cls-3" x="14.05" y="12.64" width="9.78" height="9.78" transform="translate(-9.85 16.73) rotate(-45)"/><rect class="cls-3" x="13.84" y="30.07" width="9.78" height="9.78" transform="translate(-22.24 21.7) rotate(-45)"/><rect class="cls-3" x="5.23" y="21.45" width="9.78" height="9.78" transform="translate(-18.66 13.08) rotate(-45)"/><rect class="cls-3" x="31.48" y="12.44" width="9.78" height="9.78" transform="translate(-4.6 29.01) rotate(-45)"/><rect class="cls-3" x="22.86" y="3.82" width="9.78" height="9.78" transform="translate(-1.03 20.38) rotate(-45)"/><rect class="cls-3" x="13.64" y="47.51" width="9.78" height="9.78" transform="translate(-34.62 26.66) rotate(-45)"/><rect class="cls-3" x="31.28" y="29.87" width="9.78" height="9.78" transform="translate(-16.99 33.96) rotate(-44.99)"/><rect class="cls-3" x="22.46" y="38.69" width="9.78" height="9.78" transform="translate(-25.81 30.32) rotate(-45)"/><rect class="cls-3" x="40.1" y="21.05" width="9.78" height="9.78" transform="translate(-8.17 37.63) rotate(-45.01)"/></svg>