<svg id="supported___black_orange" data-name="supported _ black&amp;orange" xmlns="http://www.w3.org/2000/svg" viewBox="0 0 595.28 209.56"><defs><style>.cls-1{fill:#e95420;}.cls-2{fill:#fff;}.cls-3{fill:#888;}</style></defs><path class="cls-1" d="M907.09,356a35.63,35.63,0,1,1-35.63-35.62A35.63,35.63,0,0,1,907.09,356Z" transform="translate(-311.81 -320.42)"/><path class="cls-2" d="M847.24,351.28A4.76,4.76,0,1,0,852,356,4.76,4.76,0,0,0,847.24,351.28Zm34,21.62a4.76,4.76,0,1,0,6.49,1.74A4.76,4.76,0,0,0,881.2,372.9ZM857.57,356a13.89,13.89,0,0,1,5.9-11.37L860,338.85a20.68,20.68,0,0,0-8.55,12,6.67,6.67,0,0,1,0,10.36,20.68,20.68,0,0,0,8.55,12l3.47-5.82A13.89,13.89,0,0,1,857.57,356Zm13.89-13.89a13.89,13.89,0,0,1,13.84,12.66l6.78-.1a20.66,20.66,0,0,0-6.14-13.4,6.67,6.67,0,0,1-9-5.18,20.68,20.68,0,0,0-14.68,1.39l3.31,5.92A13.8,13.8,0,0,1,871.46,342.15Zm0,27.78a13.8,13.8,0,0,1-5.85-1.29l-3.31,5.92A20.68,20.68,0,0,0,877,376a6.69,6.69,0,0,1,9-5.18,20.64,20.64,0,0,0,6.14-13.4l-6.78-.1A13.89,13.89,0,0,1,871.46,369.93Zm9.73-30.75a4.76,4.76,0,1,0-1.74-6.5A4.76,4.76,0,0,0,881.19,339.18Z" transform="translate(-311.81 -320.42)"/><path d="M383.06,449.52q-5.43,1.37-14.33,2.89a124.17,124.17,0,0,1-20.62,1.52q-10.17,0-17.13-3a27.57,27.57,0,0,1-11.2-8.39,34.15,34.15,0,0,1-6.1-12.81,66.51,66.51,0,0,1-1.87-16.37V363.85h15.78V410q0,16.13,5.09,23.07t17.13,7c1.7,0,3.45-.06,5.26-.17s3.5-.25,5.09-.42,3-.34,4.33-.51a13.41,13.41,0,0,0,2.8-.59V363.85h15.77Z" transform="translate(-311.81 -320.42)"/><path d="M421.57,367.75a42.74,42.74,0,0,1,8.74-3.9,40.86,40.86,0,0,1,13.48-2,40,40,0,0,1,16.88,3.4,35.05,35.05,0,0,1,12.47,9.5,41.62,41.62,0,0,1,7.72,14.59A62.84,62.84,0,0,1,483.49,408a55.72,55.72,0,0,1-3.14,19.25,40.56,40.56,0,0,1-8.9,14.51,39.32,39.32,0,0,1-13.92,9.16,49.35,49.35,0,0,1-18.32,3.22,111.94,111.94,0,0,1-19.51-1.52q-8.47-1.53-13.91-3.06V323.13l15.78-2.71Zm0,70.58a52.25,52.25,0,0,0,6.7,1.27,82.33,82.33,0,0,0,10.77.59q12.73,0,20.36-8.4T467,408a57.38,57.38,0,0,0-1.36-12.73A28.88,28.88,0,0,0,461.27,385a21.54,21.54,0,0,0-7.89-6.79,25.52,25.52,0,0,0-11.62-2.45,31.28,31.28,0,0,0-11.88,2.2,32.49,32.49,0,0,0-8.31,4.58Z" transform="translate(-311.81 -320.42)"/><path d="M571.54,449.52c-3.63.91-8.4,1.87-14.34,2.89a124.13,124.13,0,0,1-20.61,1.52q-10.19,0-17.14-3a27.47,27.47,0,0,1-11.19-8.39,34,34,0,0,1-6.11-12.81,66.51,66.51,0,0,1-1.87-16.37V363.85h15.78V410q0,16.13,5.09,23.07t17.13,7c1.7,0,3.45-.06,5.26-.17s3.51-.25,5.09-.42,3-.34,4.33-.51a13.26,13.26,0,0,0,2.8-.59V363.85h15.78Z" transform="translate(-311.81 -320.42)"/><path d="M594.26,366.4q5.43-1.36,14.43-2.89A124.41,124.41,0,0,1,629.38,362q10.51,0,17.47,3A27.36,27.36,0,0,1,658,373.27a32.13,32.13,0,0,1,5.85,12.8,74.45,74.45,0,0,1,1.7,16.46v49.54H649.74V405.92a75.8,75.8,0,0,0-1.1-13.91,23.6,23.6,0,0,0-3.65-9.33,14.45,14.45,0,0,0-6.79-5.17,29.67,29.67,0,0,0-10.51-1.61c-1.7,0-3.46.05-5.26.16s-3.54.26-5.18.43-3.11.37-4.41.59l-2.8.51v74.48H594.26Z" transform="translate(-311.81 -320.42)"/><path d="M702,363.85h33.42v13.23H702V417.8a48.8,48.8,0,0,0,1,10.94,16.23,16.23,0,0,0,3,6.78,10.85,10.85,0,0,0,5.09,3.48,22.47,22.47,0,0,0,7.12,1q7.31,0,11.54-1.61c2.82-1.07,4.75-1.84,5.77-2.29L739,449a62.51,62.51,0,0,1-8.4,3.06,46.17,46.17,0,0,1-13.65,1.86c-6,0-10.94-.76-14.85-2.29a21.48,21.48,0,0,1-9.41-6.87,27.4,27.4,0,0,1-5-11.28A74.46,74.46,0,0,1,686.21,418V339.25L702,336.54Z" transform="translate(-311.81 -320.42)"/><path d="M821.25,449.52q-5.43,1.37-14.34,2.89a124.13,124.13,0,0,1-20.61,1.52q-10.18,0-17.13-3a27.57,27.57,0,0,1-11.2-8.39,34.16,34.16,0,0,1-6.11-12.81A67,67,0,0,1,750,413.39V363.85h15.77V410q0,16.13,5.09,23.07T788,440c1.69,0,3.44-.06,5.26-.17s3.5-.25,5.08-.42,3-.34,4.33-.51a13.26,13.26,0,0,0,2.8-.59V363.85h15.78Z" transform="translate(-311.81 -320.42)"/><path class="cls-3" d="M344.31,502a20.46,20.46,0,0,1-1.47,8.09,15.45,15.45,0,0,1-4.1,5.75,17.38,17.38,0,0,1-6.29,3.45,27,27,0,0,1-8.05,1.15c-1.46,0-3-.08-4.6-.24a27.8,27.8,0,0,1-4.23-.7v-34.9a24.18,24.18,0,0,1,4.23-.76c1.61-.16,3.14-.23,4.6-.23a26.63,26.63,0,0,1,8.05,1.15,17.36,17.36,0,0,1,6.29,3.44,15.53,15.53,0,0,1,4.1,5.75A20.4,20.4,0,0,1,344.31,502Zm-25.19,15c.22,0,.75.11,1.6.21a38.68,38.68,0,0,0,4.1.16,20,20,0,0,0,6.84-1.07,13.52,13.52,0,0,0,4.92-3.06,12.53,12.53,0,0,0,3-4.83,19.4,19.4,0,0,0,1-6.4,19.2,19.2,0,0,0-1-6.38,12.57,12.57,0,0,0-3-4.8,13.26,13.26,0,0,0-4.92-3.06,20,20,0,0,0-6.84-1.07,36.11,36.11,0,0,0-4.1.16l-1.6.2Z" transform="translate(-311.81 -320.42)"/><path class="cls-3" d="M349.68,506.62a17.16,17.16,0,0,1,1-6.19,13.8,13.8,0,0,1,2.66-4.41,10.51,10.51,0,0,1,3.76-2.64,11.57,11.57,0,0,1,4.37-.86,10.19,10.19,0,0,1,7.91,3.24q3,3.24,3,10c0,.28,0,.55,0,.83s-.05.54-.08.79h-19c.11,3.3.93,5.85,2.46,7.62s4,2.67,7.31,2.67a15.07,15.07,0,0,0,4.39-.52,19.24,19.24,0,0,0,2.35-.89l.63,2.92a14.42,14.42,0,0,1-2.74,1,17.46,17.46,0,0,1-4.73.57,15.86,15.86,0,0,1-6.06-1,11,11,0,0,1-4.13-2.93,11.54,11.54,0,0,1-2.35-4.47A20.65,20.65,0,0,1,349.68,506.62Zm19.17-2.14a10.75,10.75,0,0,0-2-6.58,6.43,6.43,0,0,0-5.33-2.35,7.09,7.09,0,0,0-3.27.73,8.2,8.2,0,0,0-2.5,2,9,9,0,0,0-1.68,2.85,11.69,11.69,0,0,0-.7,3.39Z" transform="translate(-311.81 -320.42)"/><path class="cls-3" d="M385.51,520.63a11.86,11.86,0,0,1-3-.45,5.4,5.4,0,0,1-2.14-1.2,5.1,5.1,0,0,1-1.3-2.09,9.76,9.76,0,0,1-.45-3.21V480.24l3.4-.63v34a7.2,7.2,0,0,0,.23,2,2.72,2.72,0,0,0,.71,1.21,2.89,2.89,0,0,0,1.23.65,16.08,16.08,0,0,0,1.8.37Z" transform="translate(-311.81 -320.42)"/><path class="cls-3" d="M395.37,485a2.55,2.55,0,0,1-.73,1.91,2.62,2.62,0,1,1,0-3.81A2.54,2.54,0,0,1,395.37,485Zm-.79,35.17h-3.39v-27h3.39Z" transform="translate(-311.81 -320.42)"/><path class="cls-3" d="M411.19,516.5c.73-1.5,1.49-3.21,2.25-5.15s1.51-3.93,2.23-6,1.38-4.16,2-6.26,1.13-4.09,1.55-5.94h3.4q-.94,3.72-2.11,7.32t-2.44,7.05q-1.29,3.45-2.68,6.64c-.93,2.12-1.83,4.13-2.71,6H409.5c-.91-1.88-1.82-3.89-2.73-6s-1.8-4.34-2.65-6.64-1.68-4.65-2.45-7.05-1.47-4.84-2.1-7.32h3.6q.63,2.78,1.55,5.94t2,6.26c.71,2.08,1.46,4.08,2.23,6S410.46,515,411.19,516.5Z" transform="translate(-311.81 -320.42)"/><path class="cls-3" d="M425.34,506.62a17.16,17.16,0,0,1,1-6.19A13.8,13.8,0,0,1,429,496a10.51,10.51,0,0,1,3.76-2.64,11.61,11.61,0,0,1,4.37-.86,10.19,10.19,0,0,1,7.91,3.24q3,3.24,2.95,10c0,.28,0,.55,0,.83s-.05.54-.08.79H429c.1,3.3.92,5.85,2.45,7.62s4,2.67,7.31,2.67a15.07,15.07,0,0,0,4.39-.52,19.24,19.24,0,0,0,2.35-.89l.63,2.92a14.42,14.42,0,0,1-2.74,1,17.46,17.46,0,0,1-4.73.57,15.86,15.86,0,0,1-6.06-1,11,11,0,0,1-4.13-2.93,11.54,11.54,0,0,1-2.35-4.47A20.65,20.65,0,0,1,425.34,506.62Zm19.17-2.14a10.75,10.75,0,0,0-2-6.58,6.43,6.43,0,0,0-5.33-2.35,7.09,7.09,0,0,0-3.27.73,8.37,8.37,0,0,0-2.51,2,9.19,9.19,0,0,0-1.67,2.85,11.69,11.69,0,0,0-.7,3.39Z" transform="translate(-311.81 -320.42)"/><path class="cls-3" d="M463.59,492.62a18.63,18.63,0,0,1,3.16.26,9.66,9.66,0,0,1,2.07.53l-.68,2.92a7.32,7.32,0,0,0-1.7-.44,19,19,0,0,0-3.37-.24,15.9,15.9,0,0,0-3.53.32,10.09,10.09,0,0,0-1.75.52v23.67H454.4V494.4a25.28,25.28,0,0,1,3.6-1.18A22.44,22.44,0,0,1,463.59,492.62Z" transform="translate(-311.81 -320.42)"/><path class="cls-3" d="M471,506.62a17.16,17.16,0,0,1,1-6.19,13.64,13.64,0,0,1,2.67-4.41,10.43,10.43,0,0,1,3.76-2.64,11.52,11.52,0,0,1,4.36-.86,10.2,10.2,0,0,1,7.92,3.24q2.94,3.24,3,10c0,.28,0,.55,0,.83s0,.54-.08.79h-19c.1,3.3.92,5.85,2.45,7.62s4,2.67,7.32,2.67a15.11,15.11,0,0,0,4.39-.52,19.93,19.93,0,0,0,2.35-.89l.62,2.92a14.42,14.42,0,0,1-2.74,1,17.46,17.46,0,0,1-4.73.57,15.86,15.86,0,0,1-6.06-1,11,11,0,0,1-4.13-2.93,11.67,11.67,0,0,1-2.35-4.47A21,21,0,0,1,471,506.62Zm19.18-2.14a10.69,10.69,0,0,0-2-6.58,6.42,6.42,0,0,0-5.33-2.35,7,7,0,0,0-3.26.73,8.24,8.24,0,0,0-2.51,2,9,9,0,0,0-1.67,2.85,11.71,11.71,0,0,0-.71,3.39Z" transform="translate(-311.81 -320.42)"/><path class="cls-3" d="M522,519.32a29.69,29.69,0,0,1-3.87,1,30.58,30.58,0,0,1-6,.47,14.63,14.63,0,0,1-5.41-1,11.79,11.79,0,0,1-4.18-2.8,12.6,12.6,0,0,1-2.71-4.44,16.79,16.79,0,0,1-1-5.9,18.86,18.86,0,0,1,.81-5.67,12.86,12.86,0,0,1,2.38-4.47,10.67,10.67,0,0,1,3.84-2.92,12.21,12.21,0,0,1,5.19-1.05,12.73,12.73,0,0,1,4.63.76,12.14,12.14,0,0,1,2.85,1.43V480.24l3.39-.63Zm-3.39-21.26a11.43,11.43,0,0,0-1.18-.79,11.61,11.61,0,0,0-1.65-.78,12.72,12.72,0,0,0-2-.6,10.81,10.81,0,0,0-2.3-.24,9.07,9.07,0,0,0-4.21.89,7.63,7.63,0,0,0-2.74,2.38,9.83,9.83,0,0,0-1.51,3.5,18.29,18.29,0,0,0-.48,4.26c0,3.55.89,6.28,2.67,8.17a9.21,9.21,0,0,0,7.05,2.85,29.12,29.12,0,0,0,4-.23,16.14,16.14,0,0,0,2.33-.5Z" transform="translate(-311.81 -320.42)"/><path class="cls-3" d="M546.28,494.76a12.35,12.35,0,0,1,2.85-1.43,12.73,12.73,0,0,1,4.63-.76,12.21,12.21,0,0,1,5.19,1.05,10.67,10.67,0,0,1,3.84,2.92,12.86,12.86,0,0,1,2.38,4.47,18.86,18.86,0,0,1,.81,5.67,16.79,16.79,0,0,1-1,5.9A12.74,12.74,0,0,1,562.3,517a11.79,11.79,0,0,1-4.18,2.8,14.6,14.6,0,0,1-5.41,1,30.76,30.76,0,0,1-6-.47,29.92,29.92,0,0,1-3.86-1V480.24l3.39-.63Zm0,22.21a16.14,16.14,0,0,0,2.33.5,29.12,29.12,0,0,0,4,.23,9.18,9.18,0,0,0,7.05-2.85c1.78-1.89,2.67-4.62,2.67-8.17a18.85,18.85,0,0,0-.47-4.26,10,10,0,0,0-1.52-3.5,7.63,7.63,0,0,0-2.74-2.38,9,9,0,0,0-4.21-.89,10.81,10.81,0,0,0-2.3.24,12.72,12.72,0,0,0-2,.6,11.61,11.61,0,0,0-1.65.78,11.43,11.43,0,0,0-1.18.79Z" transform="translate(-311.81 -320.42)"/><path class="cls-3" d="M579.55,520.73q-1.69-3.19-3.3-6.64t-3-7q-1.38-3.53-2.54-7.05t-2-6.93h3.6c.39,1.68.87,3.48,1.47,5.41s1.26,3.93,2,6,1.58,4.16,2.48,6.32,1.89,4.28,3,6.37c.78-2.15,1.47-4.19,2.06-6.1s1.16-3.82,1.67-5.71,1-3.84,1.48-5.83,1-4.13,1.45-6.45h3.4q-1.69,7.59-3.82,14.75a124,124,0,0,1-4.64,13.1,29.27,29.27,0,0,1-2,4,12.17,12.17,0,0,1-2.33,2.8,8.42,8.42,0,0,1-3,1.62,14.11,14.11,0,0,1-4,.52,8.79,8.79,0,0,1-2.38-.31,6.79,6.79,0,0,1-1.34-.48l.68-2.82a4.55,4.55,0,0,0,1.18.45,7,7,0,0,0,2,.28,10.31,10.31,0,0,0,2.65-.31,5.67,5.67,0,0,0,2.12-1.07,7.85,7.85,0,0,0,1.7-2A17.2,17.2,0,0,0,579.55,520.73Z" transform="translate(-311.81 -320.42)"/><path class="cls-3" d="M624.12,520.94a16.8,16.8,0,0,1-6.5-1.25,14.83,14.83,0,0,1-5.23-3.66,17.26,17.26,0,0,1-3.5-5.93,23.64,23.64,0,0,1-1.28-8.07A21.81,21.81,0,0,1,609,494a17.92,17.92,0,0,1,3.68-5.93,15.13,15.13,0,0,1,5.33-3.64,16.81,16.81,0,0,1,6.32-1.22,23.47,23.47,0,0,1,3.71.26,20,20,0,0,1,2.92.65,21.2,21.2,0,0,1,2.15.78,8.87,8.87,0,0,1,1.35.71l-1.14,3.08a21.46,21.46,0,0,0-3.32-1.54,16.26,16.26,0,0,0-10.92.39,11.79,11.79,0,0,0-4.26,3.24,14.17,14.17,0,0,0-2.59,5,22.26,22.26,0,0,0-.86,6.37,22.94,22.94,0,0,0,.86,6.5,13.92,13.92,0,0,0,2.54,4.94,11.1,11.1,0,0,0,4.1,3.13,13.25,13.25,0,0,0,5.57,1.1,21.54,21.54,0,0,0,5.77-.65,16.92,16.92,0,0,0,3.52-1.33l1,3a6.85,6.85,0,0,1-1.26.6c-.59.22-1.34.46-2.24.7a24,24,0,0,1-3.14.61A31.71,31.71,0,0,1,624.12,520.94Z" transform="translate(-311.81 -320.42)"/><path class="cls-3" d="M648.7,492.52a11.81,11.81,0,0,1,4.51.76,7.8,7.8,0,0,1,3,2.08,8.24,8.24,0,0,1,1.67,3.17,14.33,14.33,0,0,1,.52,4v17a15.37,15.37,0,0,1-1.51.34l-2.3.39c-.87.14-1.84.25-2.9.34s-2.15.13-3.26.13a15.79,15.79,0,0,1-4-.47,8.58,8.58,0,0,1-3.13-1.49,7,7,0,0,1-2.09-2.61,8.94,8.94,0,0,1-.76-3.89,7.82,7.82,0,0,1,.83-3.76,7.14,7.14,0,0,1,2.36-2.59,10.38,10.38,0,0,1,3.6-1.49,20.89,20.89,0,0,1,4.54-.47c.49,0,1,0,1.55.08s1.06.12,1.56.21.94.17,1.31.26a4.23,4.23,0,0,1,.76.23v-1.67a17.58,17.58,0,0,0-.21-2.74,6,6,0,0,0-.92-2.4,5.08,5.08,0,0,0-2-1.73,7.54,7.54,0,0,0-3.37-.65,17.27,17.27,0,0,0-4.44.42c-1,.28-1.69.5-2.14.68l-.47-3a12.68,12.68,0,0,1,2.74-.79A23.89,23.89,0,0,1,648.7,492.52ZM649,517.7c1.32,0,2.48,0,3.47-.13a24.34,24.34,0,0,0,2.54-.34v-9.51a11.74,11.74,0,0,0-1.83-.55,16.43,16.43,0,0,0-3.45-.28,19.87,19.87,0,0,0-2.61.18,7.51,7.51,0,0,0-2.51.78,5.16,5.16,0,0,0-1.88,1.65,4.73,4.73,0,0,0-.73,2.77,6,6,0,0,0,.49,2.56,4.06,4.06,0,0,0,1.42,1.67,6.2,6.2,0,0,0,2.19.91A13.36,13.36,0,0,0,649,517.7Z" transform="translate(-311.81 -320.42)"/><path class="cls-3" d="M666.17,494.08c1-.27,2.37-.59,4.07-.94a32.68,32.68,0,0,1,6.27-.52,13.1,13.1,0,0,1,5.15.89A8,8,0,0,1,685,496,10.4,10.4,0,0,1,686.7,500a22.77,22.77,0,0,1,.52,5.07v15.1h-3.39v-14a25.53,25.53,0,0,0-.4-4.85,8,8,0,0,0-1.3-3.24,5.08,5.08,0,0,0-2.41-1.81,11,11,0,0,0-3.73-.54,27.93,27.93,0,0,0-4.16.26,12.42,12.42,0,0,0-2.27.47v23.72h-3.39Z" transform="translate(-311.81 -320.42)"/><path class="cls-3" d="M718.12,506.68a17.51,17.51,0,0,1-.91,5.8,12.91,12.91,0,0,1-2.56,4.44,11.73,11.73,0,0,1-3.89,2.84,12.59,12.59,0,0,1-9.93,0,11.53,11.53,0,0,1-3.89-2.84,12.91,12.91,0,0,1-2.56-4.44,18.74,18.74,0,0,1,0-11.6,13.25,13.25,0,0,1,2.56-4.47,11.35,11.35,0,0,1,3.89-2.87,12.59,12.59,0,0,1,9.93,0,11.55,11.55,0,0,1,3.89,2.87,13.25,13.25,0,0,1,2.56,4.47A17.43,17.43,0,0,1,718.12,506.68Zm-3.6,0a12.78,12.78,0,0,0-2.35-8.07,8.26,8.26,0,0,0-12.75,0,12.72,12.72,0,0,0-2.35,8.07,12.59,12.59,0,0,0,2.35,8,8.31,8.31,0,0,0,12.75,0A12.65,12.65,0,0,0,714.52,506.68Z" transform="translate(-311.81 -320.42)"/><path class="cls-3" d="M724.65,494.08c1-.27,2.37-.59,4.08-.94a32.53,32.53,0,0,1,6.27-.52,13.05,13.05,0,0,1,5.14.89,7.85,7.85,0,0,1,3.29,2.53,10.42,10.42,0,0,1,1.76,3.95,23.38,23.38,0,0,1,.52,5.07v15.1h-3.4v-14a25.61,25.61,0,0,0-.39-4.85,8,8,0,0,0-1.31-3.24,5.1,5.1,0,0,0-2.4-1.81,11.08,11.08,0,0,0-3.74-.54,27.79,27.79,0,0,0-4.15.26,12.22,12.22,0,0,0-2.27.47v23.72h-3.4Z" transform="translate(-311.81 -320.42)"/><path class="cls-3" d="M757.51,485a2.52,2.52,0,0,1-.74,1.91,2.57,2.57,0,0,1-3.55,0,2.85,2.85,0,0,1,0-3.81,2.57,2.57,0,0,1,3.55,0A2.51,2.51,0,0,1,757.51,485Zm-.79,35.17h-3.39v-27h3.39Z" transform="translate(-311.81 -320.42)"/><path class="cls-3" d="M775.9,520.73a14.45,14.45,0,0,1-5.54-1,10.34,10.34,0,0,1-4-2.85,12.47,12.47,0,0,1-2.43-4.44,19.94,19.94,0,0,1,0-11.52,13.12,13.12,0,0,1,2.48-4.49,10.94,10.94,0,0,1,3.92-2.9,12.62,12.62,0,0,1,5.17-1,22,22,0,0,1,4.1.36,10.63,10.63,0,0,1,3,.94l-.89,2.93a11,11,0,0,0-2.35-.84,16.18,16.18,0,0,0-3.5-.31,8.23,8.23,0,0,0-6.82,2.9c-1.55,1.93-2.32,4.68-2.32,8.23a17.43,17.43,0,0,0,.52,4.41,8.85,8.85,0,0,0,1.69,3.45,8,8,0,0,0,3,2.25,11.22,11.22,0,0,0,4.51.81,11.79,11.79,0,0,0,3.69-.5,15.83,15.83,0,0,0,2.17-.86l.73,2.93a13.23,13.23,0,0,1-2.95,1A17.59,17.59,0,0,1,775.9,520.73Z" transform="translate(-311.81 -320.42)"/><path class="cls-3" d="M796.74,492.52a11.81,11.81,0,0,1,4.51.76,7.8,7.8,0,0,1,3,2.08,8.24,8.24,0,0,1,1.67,3.17,14.33,14.33,0,0,1,.52,4v17a15.37,15.37,0,0,1-1.51.34l-2.3.39c-.87.14-1.84.25-2.9.34s-2.15.13-3.27.13a15.76,15.76,0,0,1-3.94-.47,8.7,8.7,0,0,1-3.14-1.49,7.05,7.05,0,0,1-2.08-2.61,8.94,8.94,0,0,1-.76-3.89,7.94,7.94,0,0,1,.83-3.76,7.12,7.12,0,0,1,2.35-2.59,10.51,10.51,0,0,1,3.61-1.49,20.89,20.89,0,0,1,4.54-.47c.49,0,1,0,1.55.08s1.06.12,1.56.21.94.17,1.31.26a4.23,4.23,0,0,1,.76.23v-1.67a17.58,17.58,0,0,0-.21-2.74,6,6,0,0,0-.92-2.4,5.08,5.08,0,0,0-2-1.73,7.51,7.51,0,0,0-3.37-.65,17.27,17.27,0,0,0-4.44.42c-1,.28-1.69.5-2.14.68l-.48-3a13,13,0,0,1,2.75-.79A23.75,23.75,0,0,1,796.74,492.52Zm.31,25.18c1.32,0,2.48,0,3.47-.13a24.34,24.34,0,0,0,2.54-.34v-9.51a11.74,11.74,0,0,0-1.83-.55,16.43,16.43,0,0,0-3.45-.28,19.75,19.75,0,0,0-2.61.18,7.44,7.44,0,0,0-2.51.78,5.16,5.16,0,0,0-1.88,1.65,4.73,4.73,0,0,0-.73,2.77,6,6,0,0,0,.49,2.56A4.06,4.06,0,0,0,792,516.5a6.13,6.13,0,0,0,2.19.91A13.36,13.36,0,0,0,797.05,517.7Z" transform="translate(-311.81 -320.42)"/><path class="cls-3" d="M821,520.63a11.86,11.86,0,0,1-3-.45,5.4,5.4,0,0,1-2.14-1.2,5.1,5.1,0,0,1-1.3-2.09,9.76,9.76,0,0,1-.45-3.21V480.24l3.4-.63v34a6.85,6.85,0,0,0,.23,2,2.72,2.72,0,0,0,.71,1.21,2.89,2.89,0,0,0,1.23.65,16.08,16.08,0,0,0,1.8.37Z" transform="translate(-311.81 -320.42)"/></svg>