<svg width="20" height="20" viewBox="0 0 20 20" fill="none" xmlns="http://www.w3.org/2000/svg">
<path d="M13.5685 6.25C12.9839 2.76172 11.6048 0.3125 10 0.3125C8.39516 0.3125 7.01613 2.76172 6.43145 6.25H13.5685ZM6.12903 10C6.12903 10.8672 6.17742 11.6992 6.2621 12.5H13.7339C13.8185 11.6992 13.8669 10.8672 13.8669 10C13.8669 9.13281 13.8185 8.30078 13.7339 7.5H6.2621C6.17742 8.30078 6.12903 9.13281 6.12903 10ZM19.2218 6.25C18.0686 3.59766 15.7339 1.54688 12.8508 0.71875C13.8347 2.03906 14.5121 4.02734 14.8669 6.25H19.2218ZM7.14516 0.71875C4.26613 1.54688 1.92742 3.59766 0.778226 6.25H5.13306C5.48387 4.02734 6.16129 2.03906 7.14516 0.71875ZM19.6532 7.5H15.0282C15.1129 8.32031 15.1613 9.16016 15.1613 10C15.1613 10.8398 15.1129 11.6797 15.0282 12.5H19.6492C19.871 11.6992 19.996 10.8672 19.996 10C19.996 9.13281 19.871 8.30078 19.6532 7.5ZM4.83871 10C4.83871 9.16016 4.8871 8.32031 4.97177 7.5H0.346774C0.129032 8.30078 0 9.13281 0 10C0 10.8672 0.129032 11.6992 0.346774 12.5H4.96774C4.8871 11.6797 4.83871 10.8398 4.83871 10ZM6.43145 13.75C7.01613 17.2383 8.39516 19.6875 10 19.6875C11.6048 19.6875 12.9839 17.2383 13.5685 13.75H6.43145ZM12.8548 19.2812C15.7339 18.4531 18.0726 16.4023 19.2258 13.75H14.871C14.5161 15.9727 13.8387 17.9609 12.8548 19.2812ZM0.778226 13.75C1.93145 16.4023 4.26613 18.4531 7.14919 19.2812C6.16532 17.9609 5.4879 15.9727 5.13306 13.75H0.778226Z" fill="#161616"/>
</svg>
