<svg width="18" height="20" viewBox="0 0 18 20" fill="none" xmlns="http://www.w3.org/2000/svg">
<path d="M0 18.125C0 19.1602 0.822704 20 1.83673 20H15.3061C16.3202 20 17.1429 19.1602 17.1429 18.125V7.5H0V18.125ZM12.2449 10.4688C12.2449 10.2109 12.4515 10 12.7041 10H14.2347C14.4872 10 14.6939 10.2109 14.6939 10.4688V12.0312C14.6939 12.2891 14.4872 12.5 14.2347 12.5H12.7041C12.4515 12.5 12.2449 12.2891 12.2449 12.0312V10.4688ZM12.2449 15.4688C12.2449 15.2109 12.4515 15 12.7041 15H14.2347C14.4872 15 14.6939 15.2109 14.6939 15.4688V17.0312C14.6939 17.2891 14.4872 17.5 14.2347 17.5H12.7041C12.4515 17.5 12.2449 17.2891 12.2449 17.0312V15.4688ZM7.34694 10.4688C7.34694 10.2109 7.55357 10 7.80612 10H9.33673C9.58929 10 9.79592 10.2109 9.79592 10.4688V12.0312C9.79592 12.2891 9.58929 12.5 9.33673 12.5H7.80612C7.55357 12.5 7.34694 12.2891 7.34694 12.0312V10.4688ZM7.34694 15.4688C7.34694 15.2109 7.55357 15 7.80612 15H9.33673C9.58929 15 9.79592 15.2109 9.79592 15.4688V17.0312C9.79592 17.2891 9.58929 17.5 9.33673 17.5H7.80612C7.55357 17.5 7.34694 17.2891 7.34694 17.0312V15.4688ZM2.44898 10.4688C2.44898 10.2109 2.65561 10 2.90816 10H4.43878C4.69133 10 4.89796 10.2109 4.89796 10.4688V12.0312C4.89796 12.2891 4.69133 12.5 4.43878 12.5H2.90816C2.65561 12.5 2.44898 12.2891 2.44898 12.0312V10.4688ZM2.44898 15.4688C2.44898 15.2109 2.65561 15 2.90816 15H4.43878C4.69133 15 4.89796 15.2109 4.89796 15.4688V17.0312C4.89796 17.2891 4.69133 17.5 4.43878 17.5H2.90816C2.65561 17.5 2.44898 17.2891 2.44898 17.0312V15.4688ZM15.3061 2.5H13.4694V0.625C13.4694 0.28125 13.1939 0 12.8571 0H11.6327C11.2959 0 11.0204 0.28125 11.0204 0.625V2.5H6.12245V0.625C6.12245 0.28125 5.84694 0 5.5102 0H4.28571C3.94898 0 3.67347 0.28125 3.67347 0.625V2.5H1.83673C0.822704 2.5 0 3.33984 0 4.375V6.25H17.1429V4.375C17.1429 3.33984 16.3202 2.5 15.3061 2.5Z" fill="#161616"/>
</svg>
