<svg width="40" height="58" viewBox="0 0 40 58" fill="none" xmlns="http://www.w3.org/2000/svg">
<path d="M20 9.0625C13.9841 9.0625 9.09091 13.9404 9.09091 19.9375C9.09091 20.9389 9.90455 21.75 10.9091 21.75C11.9136 21.75 12.7273 20.9389 12.7273 19.9375C12.7273 15.9387 15.9909 12.6875 20 12.6875C21.0045 12.6875 21.8182 11.8764 21.8182 10.875C21.8182 9.87359 21.0045 9.0625 20 9.0625ZM10.9159 52.0154C10.9159 52.3722 11.0216 52.72 11.2205 53.0168L14.0057 57.19C14.3432 57.6953 14.9114 57.9989 15.5193 57.9989H24.4795C25.0886 57.9989 25.6568 57.6953 25.9932 57.19L28.7784 53.0168C28.9761 52.72 29.0818 52.3711 29.083 52.0154L29.0886 47.1239H10.9114L10.9159 52.0154ZM20 0C8.37727 0 0 9.39895 0 19.9375C0 24.9638 1.86932 29.5494 4.95 33.0532C6.84091 35.2044 9.80682 39.7141 10.9068 43.4932V43.5H16.3614V43.4864C16.3602 42.9461 16.2795 42.4091 16.117 41.8925C15.4818 39.875 13.5239 34.5553 9.05227 29.469C6.71818 26.8148 5.47045 23.4481 5.46023 19.9375C5.4375 11.5955 12.2409 5.4375 20 5.4375C28.0205 5.4375 34.5455 11.9421 34.5455 19.9375C34.5455 23.4458 33.2682 26.8307 30.9489 29.469C26.5045 34.5225 24.5375 39.8308 23.892 41.8688C23.7255 42.3927 23.6404 42.939 23.6398 43.4887V43.5H29.0943V43.4943C30.1943 39.7141 33.1602 35.2044 35.0511 33.0543C38.1307 29.5494 40 24.9638 40 19.9375C40 8.92656 31.0455 0 20 0Z" fill="#EC1944"/>
</svg>
