<svg width="40" height="41" viewBox="0 0 40 41" fill="none" xmlns="http://www.w3.org/2000/svg">
<path d="M12.8629 12.8676C14.0323 5.68588 16.7903 0.643372 20 0.643372C23.2097 0.643372 25.9677 5.68588 27.1371 12.8676H12.8629ZM27.7419 20.5882C27.7419 22.3736 27.6452 24.0866 27.4758 25.7353H12.5323C12.3629 24.0866 12.2661 22.3736 12.2661 20.5882C12.2661 18.8028 12.3629 17.0898 12.5323 15.4412H27.4758C27.6452 17.0898 27.7419 18.8028 27.7419 20.5882ZM1.55645 12.8676C3.8629 7.40693 8.53226 3.18473 14.2984 1.47977C12.3306 4.19806 10.9758 8.29158 10.2661 12.8676H1.55645ZM25.7097 1.47977C31.4677 3.18473 36.1452 7.40693 38.4435 12.8676H29.7339C29.0323 8.29158 27.6774 4.19806 25.7097 1.47977ZM0.693546 15.4412H9.94355C9.77419 17.13 9.67742 18.8591 9.67742 20.5882C9.67742 22.3173 9.77419 24.0464 9.94355 25.7353H0.701611C0.258064 24.0866 0.00806427 22.3736 0.00806427 20.5882C0.00806427 18.8028 0.258064 17.0898 0.693546 15.4412ZM30.3226 20.5882C30.3226 18.8591 30.2258 17.13 30.0565 15.4412H39.3065C39.7419 17.0898 40 18.8028 40 20.5882C40 22.3736 39.7419 24.0866 39.3065 25.7353H30.0645C30.2258 24.0464 30.3226 22.3173 30.3226 20.5882ZM27.1371 28.3088C25.9677 35.4906 23.2097 40.5331 20 40.5331C16.7903 40.5331 14.0323 35.4906 12.8629 28.3088H27.1371ZM14.2903 39.6967C8.53226 37.9917 3.85484 33.7695 1.54839 28.3088H10.2581C10.9677 32.8849 12.3226 36.9784 14.2903 39.6967ZM38.4435 28.3088C36.1371 33.7695 31.4677 37.9917 25.7016 39.6967C27.6694 36.9784 29.0242 32.8849 29.7339 28.3088H38.4435Z" fill="#43B85C"/>
</svg>
