<?xml version="1.0" encoding="UTF-8"?><svg id="Layer_1" xmlns="http://www.w3.org/2000/svg" width="154" height="168" viewBox="0 0 154 168"><defs><style>.cls-1{fill:#f05b3f;}.cls-2{fill:#fff;}.cls-3{fill:#f0f3f5;}.cls-4{fill:#2a394d;}.cls-5{fill:#4e4540;}.cls-6{fill:none;stroke:#f0f3f5;stroke-miterlimit:10;stroke-width:2px;}</style></defs><rect class="cls-2" x="5" y="5" width="144" height="158" rx="10" ry="10"/><g><path class="cls-3" d="M15,5h124c5.52,0,10,4.48,10,10v22H5V15c0-5.52,4.48-10,10-10Z"/><g><path class="cls-5" d="M31.45,24.59v.97h-4.57v-7.11h1.18v6.14h3.39Z"/><path class="cls-5" d="M34.52,22.37v2.22h3.43v.97h-4.61v-7.11h4.58v.97h-3.41v2h2.94v.95h-2.94Z"/><path class="cls-5" d="M41,23.92l-.48,1.64h-1.22l2.31-7.11h1.04l2.28,7.11h-1.22l-.48-1.64h-2.23Zm1.94-1.01l-.82-2.81-.83,2.81h1.65Z"/><path class="cls-5" d="M47.47,22.8v2.76h-1.17v-7.11h2.26c.37,0,.71,.05,1.02,.14s.58,.22,.8,.4c.22,.18,.39,.4,.52,.67s.19,.58,.19,.93c0,.24-.03,.47-.1,.66s-.15,.38-.27,.54-.25,.3-.41,.42-.34,.22-.53,.31l1.52,2.97v.06h-1.25l-1.36-2.76h-1.2Zm1.1-.96c.21,0,.4-.04,.56-.1s.31-.15,.43-.26c.1-.1,.19-.22,.24-.36s.09-.31,.09-.49c0-.21-.03-.38-.1-.54s-.16-.28-.28-.39c-.11-.1-.25-.17-.42-.22s-.35-.08-.55-.08h-1.08v2.44h1.1Z"/><path class="cls-5" d="M56.2,25.55l-2.31-4.89v4.89h-1.19v-7.11h1.19l2.29,4.87v-4.87h1.19v7.11h-1.18Z"/><path class="cls-5" d="M66.86,21.49l.97-3.04h1.46v7.11h-1.1v-2.41l.07-3.17-1.09,3.39h-.61l-.99-3.28,.06,3.06v2.41h-1.1v-7.11h1.46l.88,3.04Z"/><path class="cls-5" d="M75.83,23.3c-.05,.27-.12,.52-.22,.76-.1,.24-.23,.46-.38,.66s-.32,.37-.52,.52c-.19,.13-.4,.23-.63,.31s-.48,.11-.75,.11-.54-.04-.78-.12-.45-.19-.63-.33c-.19-.14-.35-.32-.5-.52s-.26-.42-.35-.66c-.09-.23-.16-.48-.21-.74s-.07-.53-.07-.81v-.94c0-.29,.02-.57,.07-.84s.12-.53,.22-.77c.09-.23,.21-.44,.35-.64s.3-.36,.49-.51c.18-.14,.39-.25,.62-.32s.49-.11,.77-.11,.54,.04,.78,.12,.45,.19,.64,.33,.35,.3,.49,.49,.26,.4,.35,.62c.1,.24,.18,.5,.23,.77s.08,.56,.08,.86v.94c0,.29-.03,.56-.08,.83Zm-1.14-2.3c-.02-.17-.05-.34-.09-.49-.05-.18-.11-.34-.19-.49s-.18-.27-.29-.38c-.1-.09-.22-.16-.35-.21s-.28-.08-.44-.08-.3,.03-.43,.08-.24,.12-.33,.21c-.11,.11-.21,.24-.29,.38s-.14,.31-.18,.5c-.04,.16-.07,.32-.09,.5s-.03,.35-.03,.52v.95c0,.17,0,.34,.02,.51s.04,.33,.08,.49c.04,.18,.1,.34,.17,.49s.16,.28,.27,.38c.1,.1,.22,.17,.35,.23s.28,.09,.46,.09,.32-.03,.45-.08,.25-.13,.35-.22c.11-.11,.21-.24,.29-.38s.14-.31,.18-.49c.04-.16,.07-.32,.09-.49s.03-.34,.03-.52v-.95c0-.18-.01-.35-.03-.53Z"/><path class="cls-5" d="M78.77,22.8v2.76h-1.17v-7.11h2.26c.37,0,.71,.05,1.02,.14s.58,.22,.8,.4c.22,.18,.39,.4,.52,.67s.19,.58,.19,.93c0,.24-.03,.47-.1,.66s-.15,.38-.27,.54-.25,.3-.41,.42-.34,.22-.53,.31l1.52,2.97v.06h-1.25l-1.36-2.76h-1.2Zm1.1-.96c.21,0,.4-.04,.56-.1s.31-.15,.43-.26c.1-.1,.19-.22,.24-.36s.09-.31,.09-.49c0-.21-.03-.38-.1-.54s-.16-.28-.28-.39c-.11-.1-.25-.17-.42-.22s-.35-.08-.55-.08h-1.08v2.44h1.1Z"/><path class="cls-5" d="M85.33,22.37v2.22h3.43v.97h-4.61v-7.11h4.58v.97h-3.41v2h2.94v.95h-2.94Z"/><path class="cls-5" d="M97.11,23.92l-.48,1.64h-1.22l2.31-7.11h1.04l2.28,7.11h-1.22l-.48-1.64h-2.23Zm1.94-1.01l-.82-2.81-.83,2.81h1.65Z"/><path class="cls-5" d="M102.38,18.45h2.28c.35,0,.67,.04,.97,.11s.56,.19,.79,.35,.39,.36,.52,.6,.19,.53,.19,.86c0,.2-.04,.39-.1,.56s-.16,.33-.29,.46c-.09,.1-.19,.18-.3,.26s-.24,.14-.38,.2h0c.21,.06,.39,.15,.54,.25s.27,.23,.38,.36c.1,.14,.18,.3,.24,.48s.08,.36,.08,.55c0,.34-.06,.64-.18,.89s-.29,.47-.51,.64c-.22,.18-.48,.31-.78,.4s-.63,.13-.98,.13h-2.46v-7.11Zm2.3,3c.19,0,.37-.03,.53-.08s.3-.12,.41-.21c.1-.08,.18-.19,.24-.31s.09-.26,.09-.42c0-.17-.03-.31-.08-.43s-.13-.22-.23-.3c-.11-.1-.25-.17-.42-.21s-.35-.07-.55-.07h-1.11v2.03h1.12Zm-1.12,3.14h1.29c.19,0,.35-.03,.51-.08s.28-.12,.39-.21c.12-.09,.21-.21,.27-.35s.1-.29,.1-.46c0-.18-.03-.34-.08-.48s-.13-.26-.23-.35-.23-.17-.38-.23-.32-.08-.51-.09h-1.35v2.25Z"/><path class="cls-5" d="M113.64,23.3c-.05,.27-.12,.52-.22,.76-.1,.24-.23,.46-.38,.66s-.32,.37-.52,.52c-.19,.13-.4,.23-.63,.31s-.48,.11-.75,.11-.54-.04-.78-.12-.45-.19-.63-.33c-.19-.14-.35-.32-.5-.52s-.26-.42-.35-.66c-.09-.23-.16-.48-.21-.74s-.07-.53-.07-.81v-.94c0-.29,.02-.57,.07-.84s.12-.53,.22-.77c.09-.23,.21-.44,.35-.64s.3-.36,.49-.51c.18-.14,.39-.25,.62-.32s.49-.11,.77-.11,.54,.04,.78,.12,.45,.19,.64,.33,.35,.3,.49,.49,.26,.4,.35,.62c.1,.24,.18,.5,.23,.77s.08,.56,.08,.86v.94c0,.29-.03,.56-.08,.83Zm-1.14-2.3c-.02-.17-.05-.34-.09-.49-.05-.18-.11-.34-.19-.49s-.18-.27-.29-.38c-.1-.09-.22-.16-.35-.21s-.28-.08-.44-.08-.3,.03-.43,.08-.24,.12-.33,.21c-.11,.11-.21,.24-.29,.38s-.14,.31-.18,.5c-.04,.16-.07,.32-.09,.5s-.03,.35-.03,.52v.95c0,.17,0,.34,.02,.51s.04,.33,.08,.49c.04,.18,.1,.34,.17,.49s.16,.28,.27,.38c.1,.1,.22,.17,.35,.23s.28,.09,.46,.09,.32-.03,.45-.08,.25-.13,.35-.22c.11-.11,.21-.24,.29-.38s.14-.31,.18-.49c.04-.16,.07-.32,.09-.49s.03-.34,.03-.52v-.95c0-.18-.01-.35-.03-.53Z"/><path class="cls-5" d="M120.02,23.2c0,.37-.06,.7-.17,1s-.27,.56-.48,.77c-.21,.21-.46,.38-.75,.5s-.62,.18-.98,.18-.68-.06-.96-.17-.53-.28-.73-.5c-.21-.21-.36-.47-.48-.78s-.17-.64-.17-1.01v-4.76h1.17v4.76c.01,.22,.04,.43,.09,.62s.13,.35,.23,.48c.1,.12,.22,.22,.36,.29s.31,.1,.5,.1,.36-.04,.51-.1,.27-.17,.37-.3c.1-.13,.18-.29,.23-.48s.08-.39,.09-.61v-4.76h1.17v4.76Z"/><path class="cls-5" d="M124.75,19.42v6.14h-1.17v-6.14h-2.18v-.97h5.54v.97h-2.19Z"/></g></g><rect class="cls-6" x="5" y="5" width="144" height="158" rx="10" ry="10"/><g><path class="cls-1" d="M96.85,82.08l-19.85,19.85-19.85-19.85,3.52-3.52,16.33,16.33,16.33-16.33,3.52,3.52Zm-10.58-.31l-5.16-5.16,5.13-5.14,5.16,5.16-5.13,5.13Zm-7.91-4.06l5.99,5.99-5.99,5.99v-11.97Zm-2.72,11.97l-13.05-13.05,13.05-13.05v26.09Zm2.72-26.09l5.96,5.96-5.96,5.96v-11.92Zm-21.21,7.6l19.85-19.85,19.85,19.85-3.52,3.52-16.33-16.33-16.33,16.33-3.52-3.52Zm43.55,0l-23.7-23.7-23.7,23.7,5.44,5.44-5.44,5.44,23.7,23.7,23.7-23.7-5.44-5.44,5.44-5.44Z"/><g><polygon class="cls-1" points="58.26 113.27 53.21 118.09 53.21 106.05 50.32 106.05 50.32 127.34 53.21 127.34 53.21 121.85 54.23 120.87 58.64 127.34 61.95 127.34 56.26 118.92 62.13 113.27 58.26 113.27"/><path class="cls-1" d="M74.32,114.41c-.38-.35-.81-.66-1.27-.9-.85-.46-1.81-.69-2.85-.69-1.34,0-2.55,.33-3.59,.97-1.06,.63-1.9,1.53-2.49,2.67-.58,1.12-.88,2.4-.88,3.82s.3,2.72,.9,3.87c.6,1.13,1.44,2.03,2.5,2.68,1.06,.64,2.27,.97,3.61,.97,1.01,0,1.95-.23,2.81-.69,.46-.24,.88-.54,1.26-.89v1.13h2.89v-14.07h-2.89v1.14Zm-.54,8.39c-.34,.71-.83,1.27-1.45,1.67-.63,.4-1.32,.6-2.13,.6s-1.48-.2-2.09-.59c-.62-.4-1.1-.95-1.45-1.68-.36-.73-.54-1.57-.54-2.52s.18-1.77,.54-2.48c.35-.71,.83-1.27,1.44-1.67,.61-.39,1.31-.59,2.09-.59s1.5,.19,2.13,.59c.62,.4,1.11,.97,1.46,1.68,.36,.73,.54,1.57,.54,2.49s-.18,1.78-.54,2.51Z"/><polygon class="cls-1" points="84.87 108.93 81.99 108.93 81.99 113.27 79.75 113.27 79.75 115.98 81.99 115.98 81.99 127.34 84.87 127.34 84.87 115.98 87.9 115.98 87.9 113.27 84.87 113.27 84.87 108.93"/><path class="cls-1" d="M100.79,113.27v1.14c-.39-.35-.81-.66-1.27-.9-.85-.46-1.81-.69-2.85-.69-1.34,0-2.55,.33-3.59,.97-1.06,.63-1.9,1.53-2.49,2.67-.58,1.12-.88,2.4-.88,3.82s.3,2.72,.9,3.87c.6,1.13,1.44,2.03,2.5,2.68,1.06,.64,2.27,.97,3.61,.97,1.01,0,1.95-.23,2.81-.69,.46-.24,.88-.54,1.26-.89v1.13h2.89v-14.07h-2.89Zm-.54,9.54c-.34,.71-.83,1.27-1.45,1.67-.63,.4-1.32,.6-2.13,.6s-1.48-.2-2.09-.59c-.62-.4-1.1-.95-1.45-1.68-.36-.73-.54-1.58-.54-2.52s.18-1.77,.54-2.48c.35-.71,.83-1.27,1.44-1.67,.61-.39,1.31-.59,2.09-.59s1.5,.19,2.13,.59c.62,.4,1.11,.97,1.46,1.68,.36,.73,.54,1.56,.54,2.49s-.18,1.78-.54,2.51Z"/></g><g><path class="cls-4" d="M51.69,137.14c-.38-.23-.68-.55-.89-.95-.22-.41-.32-.87-.32-1.39s.11-.98,.32-1.39c.21-.41,.5-.73,.88-.96,.38-.23,.81-.34,1.29-.34,.41,0,.76,.09,1.07,.26,.31,.18,.58,.43,.83,.75l-.54,.42c-.35-.51-.81-.76-1.37-.76-.34,0-.64,.09-.91,.26-.27,.17-.48,.41-.63,.72-.15,.31-.22,.66-.22,1.04s.07,.74,.22,1.04c.15,.31,.36,.55,.63,.72,.27,.17,.57,.26,.91,.26s.63-.06,.85-.18c.22-.12,.42-.29,.6-.52l.57,.4c-.23,.29-.53,.53-.88,.7-.34,.17-.72,.26-1.12,.26-.49,0-.92-.11-1.3-.34"/><path class="cls-4" d="M59.62,136.56c.27-.17,.48-.41,.63-.72,.15-.31,.23-.66,.23-1.04s-.07-.73-.23-1.04c-.15-.31-.36-.55-.63-.72-.27-.17-.57-.26-.92-.26s-.64,.09-.9,.26c-.27,.17-.47,.41-.62,.72-.15,.3-.23,.65-.23,1.04s.07,.74,.23,1.05c.15,.31,.36,.55,.62,.72,.27,.17,.57,.26,.9,.26s.65-.09,.92-.26m-2.19,.58c-.38-.23-.68-.55-.89-.96-.22-.41-.32-.88-.32-1.39s.11-.98,.32-1.38c.21-.41,.5-.72,.88-.95,.38-.23,.8-.34,1.28-.34s.91,.11,1.29,.34c.38,.23,.68,.55,.89,.96,.22,.41,.32,.87,.32,1.39s-.11,.98-.32,1.39c-.21,.41-.5,.72-.88,.95-.38,.23-.8,.34-1.28,.34s-.91-.11-1.29-.34"/><path class="cls-4" d="M66.19,132.33c.3,.14,.53,.35,.71,.63,.18,.28,.26,.61,.26,.99v3.37h-.73v-3.04c0-1-.45-1.49-1.33-1.49-.52,0-.9,.18-1.16,.55-.26,.37-.39,.86-.39,1.47v2.52h-.73v-5.03h.73v.84c.17-.32,.4-.57,.68-.75,.28-.18,.61-.26,.98-.26,.35,0,.68,.07,.97,.22"/><polygon class="cls-4" points="69.45 137.32 69.45 132.95 68.59 132.95 68.59 132.29 69.45 132.29 69.45 130.62 70.18 130.62 70.18 132.29 71.34 132.29 71.34 132.95 70.18 132.95 70.18 137.32 69.45 137.32"/><path class="cls-4" d="M75.82,136.56c.27-.17,.48-.41,.63-.72,.15-.31,.23-.66,.23-1.04s-.07-.73-.23-1.04c-.15-.31-.36-.55-.63-.72-.27-.17-.58-.26-.92-.26s-.64,.09-.9,.26c-.27,.17-.47,.41-.62,.72-.15,.3-.23,.65-.23,1.04s.07,.74,.23,1.05c.15,.31,.36,.55,.62,.72,.27,.17,.57,.26,.9,.26s.65-.09,.92-.26m1.58-4.28v5.03h-.73v-.74c-.21,.29-.46,.51-.76,.67-.3,.16-.63,.24-.99,.24-.48,0-.91-.11-1.29-.34-.38-.23-.68-.55-.89-.95-.22-.41-.32-.88-.32-1.4s.11-.98,.32-1.38c.21-.41,.5-.72,.88-.95,.38-.23,.8-.34,1.28-.34,.36,0,.7,.08,1.01,.24,.3,.16,.56,.39,.77,.68v-.75h.73Z"/><path class="cls-4" d="M79.75,132.29h.73v5.03h-.73v-5.03Zm-.05-1.15c-.11-.11-.16-.25-.16-.42s.05-.29,.16-.4c.11-.11,.25-.17,.41-.17s.29,.05,.41,.17c.12,.11,.17,.25,.17,.41,0,.16-.05,.29-.17,.41-.11,.11-.25,.17-.41,.17-.16,0-.3-.06-.41-.17"/><path class="cls-4" d="M86.19,132.33c.3,.14,.53,.35,.71,.63,.18,.28,.26,.61,.26,.99v3.37h-.73v-3.04c0-1-.45-1.49-1.33-1.49-.52,0-.9,.18-1.16,.55-.26,.37-.39,.86-.39,1.47v2.52h-.73v-5.03h.73v.84c.17-.32,.4-.57,.68-.75,.28-.18,.61-.26,.98-.26,.35,0,.68,.07,.97,.22"/><path class="cls-4" d="M93.02,134.35c-.07-.52-.25-.92-.52-1.18-.28-.26-.66-.39-1.14-.39s-.85,.15-1.15,.45c-.3,.3-.49,.67-.56,1.12h3.37Zm-.44-1.9c.36,.22,.65,.52,.86,.91,.21,.38,.31,.81,.31,1.28,0,.14,0,.24-.01,.31h-4.14c.03,.52,.2,.95,.5,1.32,.31,.36,.73,.55,1.26,.55,.43,0,.79-.08,1.07-.24,.28-.16,.51-.39,.68-.67l.58,.39c-.23,.37-.55,.67-.94,.88-.38,.21-.85,.32-1.37,.32-.49,0-.92-.11-1.3-.34-.38-.23-.68-.55-.89-.95-.22-.41-.33-.87-.33-1.39s.11-.98,.32-1.39c.21-.41,.5-.73,.88-.96,.38-.23,.8-.34,1.28-.34,.45,0,.86,.11,1.23,.33"/><path class="cls-4" d="M98.38,132.19v.67c-.15-.07-.32-.11-.49-.11-.31,0-.59,.09-.86,.26-.27,.17-.48,.42-.64,.75-.16,.32-.24,.71-.24,1.15v2.41h-.73v-5.03h.73v1.01c.19-.37,.44-.66,.74-.87,.3-.21,.63-.31,1.01-.31,.17,0,.34,.02,.49,.07"/><path class="cls-4" d="M100.14,137.18c-.37-.21-.65-.5-.85-.88l.66-.32c.27,.56,.78,.85,1.56,.85,.37,0,.68-.07,.92-.21,.24-.13,.37-.34,.37-.63s-.1-.51-.3-.65c-.2-.14-.54-.23-1.04-.28-.69-.06-1.18-.21-1.48-.47-.3-.25-.45-.58-.45-1,0-.47,.17-.83,.5-1.08,.34-.26,.8-.39,1.39-.39,.99,0,1.67,.4,2.03,1.18l-.66,.32c-.12-.29-.3-.5-.53-.63-.23-.13-.53-.2-.9-.2s-.66,.07-.85,.2c-.2,.14-.3,.33-.3,.58,0,.23,.11,.43,.32,.58,.21,.14,.57,.24,1.09,.28,.64,.06,1.11,.22,1.42,.47,.31,.25,.47,.59,.47,1.01,0,.34-.09,.62-.29,.86-.19,.24-.45,.42-.77,.54-.33,.12-.67,.18-1.05,.18-.49,0-.92-.11-1.28-.31"/></g></g></svg>