<?xml version="1.0" encoding="UTF-8"?><svg id="Layer_1" xmlns="http://www.w3.org/2000/svg" width="154" height="168" viewBox="0 0 154 168"><defs><style>.cls-1{fill:#65c7c2;}.cls-2{fill:#fff;}.cls-3{fill:#f0f3f5;}.cls-4{fill:#141f47;}.cls-5{fill:#4e4540;}.cls-6{fill:none;stroke:#f0f3f5;stroke-miterlimit:10;stroke-width:2px;}</style></defs><rect class="cls-2" x="5" y="5" width="144" height="158" rx="10" ry="10"/><g><g><path class="cls-3" d="M15,5h124c5.52,0,10,4.48,10,10v22H5V15c0-5.52,4.48-10,10-10Z"/><g><path class="cls-5" d="M31.45,24.59v.97h-4.57v-7.11h1.18v6.14h3.39Z"/><path class="cls-5" d="M34.52,22.37v2.22h3.43v.97h-4.61v-7.11h4.58v.97h-3.41v2h2.94v.95h-2.94Z"/><path class="cls-5" d="M41,23.92l-.48,1.64h-1.22l2.31-7.11h1.04l2.28,7.11h-1.22l-.48-1.64h-2.23Zm1.94-1.01l-.82-2.81-.83,2.81h1.65Z"/><path class="cls-5" d="M47.47,22.8v2.76h-1.17v-7.11h2.26c.37,0,.71,.05,1.02,.14,.31,.09,.58,.22,.8,.4,.22,.18,.39,.4,.52,.67,.12,.27,.19,.58,.19,.93,0,.24-.03,.47-.09,.66s-.15,.38-.27,.54c-.11,.16-.25,.3-.41,.42-.16,.12-.34,.22-.53,.31l1.52,2.97v.06h-1.25l-1.36-2.76h-1.2Zm1.1-.96c.21,0,.4-.04,.56-.1,.17-.06,.31-.15,.43-.26,.1-.1,.19-.22,.24-.36s.09-.31,.09-.49c0-.21-.03-.38-.09-.54s-.16-.28-.28-.39c-.11-.1-.25-.17-.42-.22-.16-.05-.34-.08-.55-.08h-1.08v2.44h1.1Z"/><path class="cls-5" d="M56.2,25.55l-2.31-4.89v4.89h-1.19v-7.11h1.19l2.29,4.87v-4.87h1.19v7.11h-1.18Z"/><path class="cls-5" d="M66.86,21.49l.97-3.04h1.46v7.11h-1.1v-2.41l.07-3.17-1.09,3.39h-.61l-.99-3.28,.06,3.06v2.41h-1.1v-7.11h1.46l.88,3.04Z"/><path class="cls-5" d="M75.83,23.3c-.05,.27-.12,.52-.22,.76-.1,.24-.23,.46-.38,.66-.15,.2-.32,.37-.52,.52-.19,.13-.4,.23-.63,.31s-.48,.11-.75,.11-.54-.04-.78-.12c-.24-.08-.45-.19-.63-.33-.19-.14-.35-.32-.5-.52s-.26-.42-.35-.66c-.09-.23-.16-.48-.21-.74-.04-.26-.07-.53-.07-.81v-.94c0-.29,.02-.57,.07-.84s.12-.53,.22-.77c.09-.23,.21-.44,.35-.64,.14-.19,.3-.36,.49-.51,.18-.14,.39-.25,.62-.32,.23-.08,.49-.11,.77-.11s.54,.04,.78,.12c.24,.08,.45,.19,.64,.33,.19,.14,.35,.3,.49,.49,.14,.19,.26,.4,.35,.62,.1,.24,.18,.5,.23,.77,.05,.27,.08,.56,.08,.86v.94c0,.29-.03,.56-.08,.83Zm-1.14-2.3c-.02-.17-.05-.34-.09-.49-.05-.18-.11-.34-.19-.49-.08-.15-.18-.27-.29-.38-.1-.09-.22-.16-.35-.21-.13-.05-.28-.08-.44-.08s-.3,.03-.43,.08-.24,.12-.33,.21c-.11,.11-.21,.24-.29,.38s-.14,.31-.18,.5c-.04,.16-.07,.32-.08,.5-.02,.17-.03,.35-.03,.52v.95c0,.17,0,.34,.02,.51,.02,.17,.04,.33,.08,.49,.04,.18,.1,.34,.17,.49s.16,.28,.27,.38c.1,.1,.22,.17,.35,.23s.28,.09,.46,.09,.32-.03,.45-.08c.13-.06,.25-.13,.35-.22,.11-.11,.21-.24,.29-.38,.08-.15,.14-.31,.18-.49,.04-.16,.07-.32,.09-.49,.02-.17,.03-.34,.03-.52v-.95c0-.18-.01-.35-.03-.53Z"/><path class="cls-5" d="M78.77,22.8v2.76h-1.17v-7.11h2.26c.37,0,.71,.05,1.02,.14,.31,.09,.58,.22,.8,.4,.22,.18,.39,.4,.52,.67,.12,.27,.19,.58,.19,.93,0,.24-.03,.47-.09,.66s-.15,.38-.27,.54c-.11,.16-.25,.3-.41,.42-.16,.12-.34,.22-.53,.31l1.52,2.97v.06h-1.25l-1.36-2.76h-1.2Zm1.1-.96c.21,0,.4-.04,.56-.1,.17-.06,.31-.15,.43-.26,.1-.1,.19-.22,.24-.36s.09-.31,.09-.49c0-.21-.03-.38-.09-.54s-.16-.28-.28-.39c-.11-.1-.25-.17-.42-.22-.16-.05-.34-.08-.55-.08h-1.08v2.44h1.1Z"/><path class="cls-5" d="M85.33,22.37v2.22h3.43v.97h-4.61v-7.11h4.58v.97h-3.41v2h2.94v.95h-2.94Z"/><path class="cls-5" d="M97.11,23.92l-.48,1.64h-1.22l2.31-7.11h1.04l2.28,7.11h-1.22l-.48-1.64h-2.23Zm1.94-1.01l-.82-2.81-.83,2.81h1.65Z"/><path class="cls-5" d="M102.38,18.45h2.28c.35,0,.67,.04,.97,.11s.57,.19,.79,.35c.22,.16,.39,.36,.52,.6,.12,.24,.19,.53,.19,.86,0,.2-.04,.39-.1,.56-.07,.17-.16,.33-.29,.46-.09,.1-.19,.18-.29,.26-.11,.07-.24,.14-.38,.2h0c.21,.06,.39,.15,.54,.25,.15,.11,.28,.23,.38,.36,.1,.14,.18,.3,.24,.48s.08,.36,.08,.55c0,.34-.06,.64-.18,.89-.12,.26-.29,.47-.51,.64-.22,.18-.48,.31-.78,.4-.3,.09-.63,.13-.98,.13h-2.46v-7.11Zm2.3,3c.19,0,.37-.03,.53-.08s.3-.12,.41-.21c.1-.08,.18-.19,.24-.31s.09-.26,.09-.42c0-.17-.03-.31-.08-.43s-.13-.22-.23-.3c-.11-.1-.25-.17-.42-.21s-.35-.07-.55-.07h-1.11v2.03h1.12Zm-1.12,3.14h1.29c.19,0,.36-.03,.51-.08,.15-.05,.28-.12,.39-.21,.12-.09,.21-.21,.27-.35s.09-.29,.09-.46c0-.18-.03-.34-.08-.48-.05-.14-.13-.26-.23-.35-.1-.1-.23-.17-.38-.23-.15-.05-.32-.08-.51-.09h-1.35v2.25Z"/><path class="cls-5" d="M113.64,23.3c-.05,.27-.12,.52-.22,.76-.1,.24-.23,.46-.38,.66-.15,.2-.32,.37-.52,.52-.19,.13-.4,.23-.63,.31s-.48,.11-.75,.11-.54-.04-.78-.12c-.24-.08-.45-.19-.63-.33-.19-.14-.35-.32-.5-.52s-.26-.42-.35-.66c-.09-.23-.16-.48-.21-.74-.04-.26-.07-.53-.07-.81v-.94c0-.29,.02-.57,.07-.84s.12-.53,.22-.77c.09-.23,.21-.44,.35-.64,.14-.19,.3-.36,.49-.51,.18-.14,.39-.25,.62-.32,.23-.08,.49-.11,.77-.11s.54,.04,.78,.12c.24,.08,.45,.19,.64,.33,.19,.14,.35,.3,.49,.49,.14,.19,.26,.4,.35,.62,.1,.24,.18,.5,.23,.77,.05,.27,.08,.56,.08,.86v.94c0,.29-.03,.56-.08,.83Zm-1.14-2.3c-.02-.17-.05-.34-.09-.49-.05-.18-.11-.34-.19-.49-.08-.15-.18-.27-.29-.38-.1-.09-.22-.16-.35-.21-.13-.05-.28-.08-.44-.08s-.3,.03-.43,.08-.24,.12-.33,.21c-.11,.11-.21,.24-.29,.38s-.14,.31-.18,.5c-.04,.16-.07,.32-.08,.5-.02,.17-.03,.35-.03,.52v.95c0,.17,0,.34,.02,.51,.02,.17,.04,.33,.08,.49,.04,.18,.1,.34,.17,.49s.16,.28,.27,.38c.1,.1,.22,.17,.35,.23s.28,.09,.46,.09,.32-.03,.45-.08c.13-.06,.25-.13,.35-.22,.11-.11,.21-.24,.29-.38,.08-.15,.14-.31,.18-.49,.04-.16,.07-.32,.09-.49,.02-.17,.03-.34,.03-.52v-.95c0-.18-.01-.35-.03-.53Z"/><path class="cls-5" d="M120.02,23.2c0,.37-.06,.7-.17,1s-.27,.56-.48,.77c-.21,.21-.46,.38-.75,.5-.29,.12-.62,.18-.98,.18s-.67-.06-.96-.17c-.29-.12-.53-.28-.73-.5-.21-.21-.36-.47-.48-.78s-.17-.64-.17-1.01v-4.76h1.17v4.76c.01,.22,.04,.43,.09,.62,.05,.19,.13,.35,.23,.48,.1,.12,.22,.22,.36,.29s.31,.1,.5,.1,.36-.04,.51-.1c.15-.07,.27-.17,.37-.3,.1-.13,.18-.29,.23-.48,.05-.18,.08-.39,.09-.61v-4.76h1.17v4.76Z"/><path class="cls-5" d="M124.75,19.42v6.14h-1.17v-6.14h-2.18v-.97h5.54v.97h-2.19Z"/></g></g><rect class="cls-6" x="5" y="5" width="144" height="158" rx="10" ry="10"/><g><path class="cls-1" d="M69.12,99.08l-3.1-1.79c-.94-.54-1.59-1.46-1.8-2.52l-1.17-5.97c-1.57-2.61-3.29-7.45-3.29-7.45l-9.78,16.95c-1.08,1.87,.27,4.2,2.42,4.2h15.35c.37,0,.7-.2,.89-.51l1.45-2.51c-.33-.08-.66-.21-.96-.39Z"/><path class="cls-4" d="M79.33,55.84c-1.08-1.87-3.77-1.87-4.85,0l-12.11,20.98c.35-.48,.86-.85,1.48-1.01,3.95-1.06,11.86-2.44,18.04,1.13,3.16,1.82,5.42,4.68,7.02,7.57h6.4c.34,0,.61,.15,.79,.37l-16.77-29.04Z"/><path class="cls-1" d="M103.84,98.29l-7.59-13.15c.13,.35,.08,.76-.23,1.07l-3.96,4.08,12.1,8.88c-.06-.3-.16-.6-.33-.89Z"/><path class="cls-4" d="M75.53,87.9c-5.66-3.27-10.14-7.39-13.3-10.83l-.23,.4c-.29,.49-.21,1.07-.06,1.63,.59,2.21,1.72,5.55,3.69,8.69l1.26,6.45c.06,.29,.24,.54,.49,.69l3.1,1.79c.49,.28,1.11,.12,1.4-.37l.99-1.71c2.91,1.42,6.14,1.84,9.11,1.79l3.2,5.54c.45,.78,1.63,.64,1.87-.23l1.76-6.19c.4-.09,.78-.19,1.13-.28,.72-.19,1.3-.66,1.64-1.26-4.56-1.01-10.39-2.84-16.06-6.11Z"/><path class="cls-1" d="M102.34,102.33l-11.23-4.93-1.45,5.09h11.75c.33,0,.64-.06,.93-.16Z"/><g><path class="cls-4" d="M46.49,129.15c-.17-.33-.29-.74-.37-1.23-.89,.99-2.05,1.49-3.47,1.49-1.35,0-2.47-.39-3.35-1.17-.89-.78-1.33-1.76-1.33-2.95,0-1.46,.54-2.58,1.62-3.36,1.08-.78,2.64-1.17,4.69-1.18h1.69v-.79c0-.64-.16-1.14-.49-1.53-.33-.38-.84-.57-1.55-.57-.62,0-1.1,.15-1.46,.45-.35,.3-.53,.7-.53,1.22h-3.68c0-.8,.25-1.53,.74-2.21,.49-.68,1.19-1.21,2.09-1.6,.9-.39,1.91-.58,3.03-.58,1.7,0,3.04,.43,4.04,1.28,1,.85,1.49,2.05,1.49,3.59v5.97c0,1.31,.19,2.29,.55,2.96v.22h-3.71Zm-3.04-2.56c.54,0,1.04-.12,1.5-.36,.46-.24,.8-.57,1.02-.97v-2.37h-1.37c-1.84,0-2.82,.64-2.94,1.91v.22c-.01,.46,.15,.84,.47,1.13,.32,.3,.76,.45,1.32,.45Z"/><path class="cls-4" d="M52.2,111.82c0-.55,.18-1,.55-1.36,.37-.36,.87-.53,1.51-.53s1.13,.18,1.5,.53c.37,.36,.56,.81,.56,1.36s-.19,1.02-.57,1.37c-.38,.36-.88,.53-1.49,.53s-1.12-.18-1.49-.53c-.38-.36-.57-.81-.57-1.37Zm3.9,17.32h-3.69v-13.76h3.69v13.76Z"/><path class="cls-4" d="M66.6,118.83c-.5-.07-.94-.1-1.32-.1-1.39,0-2.3,.47-2.73,1.41v9.01h-3.68v-13.76h3.47l.1,1.64c.74-1.26,1.76-1.9,3.07-1.9,.41,0,.79,.06,1.14,.17l-.05,3.54Z"/><path class="cls-4" d="M76.22,125.35c0-.45-.22-.8-.67-1.06-.45-.26-1.16-.49-2.14-.69-3.27-.69-4.91-2.08-4.91-4.17,0-1.22,.51-2.24,1.52-3.06,1.01-.82,2.34-1.23,3.97-1.23,1.75,0,3.14,.41,4.19,1.23s1.57,1.89,1.57,3.21h-3.68c0-.53-.17-.96-.51-1.3-.34-.34-.87-.52-1.59-.52-.62,0-1.1,.14-1.44,.42-.34,.28-.51,.64-.51,1.07,0,.41,.19,.74,.58,.99,.39,.25,1.04,.47,1.95,.65,.92,.18,1.69,.39,2.31,.62,1.94,.71,2.91,1.95,2.91,3.7,0,1.25-.54,2.27-1.62,3.05s-2.47,1.16-4.17,1.16c-1.15,0-2.18-.21-3.07-.62s-1.6-.97-2.11-1.69c-.51-.72-.76-1.49-.76-2.32h3.49c.03,.65,.28,1.15,.73,1.5,.45,.35,1.05,.52,1.81,.52,.7,0,1.24-.13,1.6-.4s.54-.62,.54-1.05Z"/><path class="cls-4" d="M86.13,116.89c.98-1.17,2.2-1.76,3.68-1.76,2.98,0,4.5,1.73,4.54,5.2v8.81h-3.68v-8.71c0-.79-.17-1.37-.51-1.75-.34-.38-.9-.57-1.69-.57-1.08,0-1.86,.42-2.34,1.25v9.78h-3.68v-19.54h3.68v7.28Z"/><path class="cls-4" d="M96.93,111.82c0-.55,.18-1,.55-1.36,.37-.36,.87-.53,1.51-.53s1.13,.18,1.5,.53c.37,.36,.56,.81,.56,1.36s-.19,1.02-.57,1.37c-.38,.36-.88,.53-1.49,.53s-1.12-.18-1.49-.53c-.38-.36-.57-.81-.57-1.37Zm3.9,17.32h-3.69v-13.76h3.69v13.76Z"/><path class="cls-4" d="M116.03,122.39c0,2.12-.48,3.82-1.44,5.09-.96,1.28-2.26,1.91-3.9,1.91-1.39,0-2.51-.48-3.37-1.45v6.49h-3.68v-19.05h3.41l.13,1.35c.89-1.07,2.05-1.6,3.49-1.6,1.7,0,3.01,.63,3.96,1.88,.94,1.26,1.41,2.99,1.41,5.19v.19Zm-3.68-.27c0-1.28-.23-2.27-.68-2.96-.45-.7-1.11-1.04-1.98-1.04-1.15,0-1.95,.44-2.38,1.32v5.63c.45,.91,1.25,1.36,2.4,1.36,1.76,0,2.63-1.44,2.63-4.31Z"/></g></g></g></svg>