<svg width="400" xmlns="http://www.w3.org/2000/svg" height="400" id="screenshot-aa94cf91-7a0a-80d1-8006-397a9c47018c" viewBox="0 0 400 400" xmlns:xlink="http://www.w3.org/1999/xlink" fill="none" version="1.1"><style>/* cyrillic-ext */
@font-face {
  font-family: 'Roboto Condensed';
  font-style: normal;
  font-weight: 700;
  font-display: block;
  src: url(https://design.penpot.app/internal/gfonts/font/robotocondensed/v27/ieVo2ZhZI2eCN5jzbjEETS9weq8-_d6T_POl0fRJeyVVpcBD5XxxKA.woff2) format('woff2');
  unicode-range: U+0460-052F, U+1C80-1C8A, U+20B4, U+2DE0-2DFF, U+A640-A69F, U+FE2E-FE2F;
}
/* cyrillic */
@font-face {
  font-family: 'Roboto Condensed';
  font-style: normal;
  font-weight: 700;
  font-display: block;
  src: url(https://design.penpot.app/internal/gfonts/font/robotocondensed/v27/ieVo2ZhZI2eCN5jzbjEETS9weq8-_d6T_POl0fRJeyVVpcBK5XxxKA.woff2) format('woff2');
  unicode-range: U+0301, U+0400-045F, U+0490-0491, U+04B0-04B1, U+2116;
}
/* greek-ext */
@font-face {
  font-family: 'Roboto Condensed';
  font-style: normal;
  font-weight: 700;
  font-display: block;
  src: url(https://design.penpot.app/internal/gfonts/font/robotocondensed/v27/ieVo2ZhZI2eCN5jzbjEETS9weq8-_d6T_POl0fRJeyVVpcBC5XxxKA.woff2) format('woff2');
  unicode-range: U+1F00-1FFF;
}
/* greek */
@font-face {
  font-family: 'Roboto Condensed';
  font-style: normal;
  font-weight: 700;
  font-display: block;
  src: url(https://design.penpot.app/internal/gfonts/font/robotocondensed/v27/ieVo2ZhZI2eCN5jzbjEETS9weq8-_d6T_POl0fRJeyVVpcBN5XxxKA.woff2) format('woff2');
  unicode-range: U+0370-0377, U+037A-037F, U+0384-038A, U+038C, U+038E-03A1, U+03A3-03FF;
}
/* vietnamese */
@font-face {
  font-family: 'Roboto Condensed';
  font-style: normal;
  font-weight: 700;
  font-display: block;
  src: url(https://design.penpot.app/internal/gfonts/font/robotocondensed/v27/ieVo2ZhZI2eCN5jzbjEETS9weq8-_d6T_POl0fRJeyVVpcBB5XxxKA.woff2) format('woff2');
  unicode-range: U+0102-0103, U+0110-0111, U+0128-0129, U+0168-0169, U+01A0-01A1, U+01AF-01B0, U+0300-0301, U+0303-0304, U+0308-0309, U+0323, U+0329, U+1EA0-1EF9, U+20AB;
}
/* latin-ext */
@font-face {
  font-family: 'Roboto Condensed';
  font-style: normal;
  font-weight: 700;
  font-display: block;
  src: url(https://design.penpot.app/internal/gfonts/font/robotocondensed/v27/ieVo2ZhZI2eCN5jzbjEETS9weq8-_d6T_POl0fRJeyVVpcBA5XxxKA.woff2) format('woff2');
  unicode-range: U+0100-02BA, U+02BD-02C5, U+02C7-02CC, U+02CE-02D7, U+02DD-02FF, U+0304, U+0308, U+0329, U+1D00-1DBF, U+1E00-1E9F, U+1EF2-1EFF, U+2020, U+20A0-20AB, U+20AD-20C0, U+2113, U+2C60-2C7F, U+A720-A7FF;
}
/* latin */
@font-face {
  font-family: 'Roboto Condensed';
  font-style: normal;
  font-weight: 700;
  font-display: block;
  src: url(https://design.penpot.app/internal/gfonts/font/robotocondensed/v27/ieVo2ZhZI2eCN5jzbjEETS9weq8-_d6T_POl0fRJeyVVpcBO5Xw.woff2) format('woff2');
  unicode-range: U+0000-00FF, U+0131, U+0152-0153, U+02BB-02BC, U+02C6, U+02DA, U+02DC, U+0304, U+0308, U+0329, U+2000-206F, U+20AC, U+2122, U+2191, U+2193, U+2212, U+2215, U+FEFF, U+FFFD;
}
</style><g id="shape-aa94cf91-7a0a-80d1-8006-397a9c47018c"><defs><clipPath id="frame-clip-aa94cf91-7a0a-80d1-8006-397a9c47018c-render-1" class="frame-clip frame-clip-def"><rect rx="0" ry="0" x="0" y="0" width="400" height="400" transform="matrix(1.000000, 0.000000, 0.000000, 1.000000, 0.000000, 0.000000)"/></clipPath></defs><g class="frame-container-wrapper"><g class="frame-container-blur"><g class="frame-container-shadows"><g clip-path="url(#frame-clip-aa94cf91-7a0a-80d1-8006-397a9c47018c-render-1)" fill="none"><g class="fills" id="fills-aa94cf91-7a0a-80d1-8006-397a9c47018c"><rect width="400" height="400" class="frame-background" x="0" transform="matrix(1.000000, 0.000000, 0.000000, 1.000000, 0.000000, 0.000000)" style="fill: rgb(22, 22, 22); fill-opacity: 1;" ry="0" rx="0" y="0"/></g><g class="frame-children"><g id="shape-aa94cf91-7a0a-80d1-8006-397ab2f93448" rx="0" ry="0"><g id="shape-aa94cf91-7a0a-80d1-8006-397ab2f93449" rx="0" ry="0"><g id="shape-aa94cf91-7a0a-80d1-8006-397ab2f9344c"><g class="fills" id="fills-aa94cf91-7a0a-80d1-8006-397ab2f9344c"><path d="M296.837,125.112L117.519,125.008C109.650,125.004,103.246,131.400,103.242,139.269L103.172,260.619C103.167,268.488,109.563,274.892,117.433,274.896L282.481,274.992C290.350,274.996,296.754,268.600,296.758,260.731L296.837,125.112ZZ" style="fill: rgb(255, 255, 255);"/></g></g><g id="shape-aa94cf91-7a0a-80d1-8006-397ab2f9344d"><g class="fills" id="fills-aa94cf91-7a0a-80d1-8006-397ab2f9344d"><path d="M107.080,260.465C107.077,266.177,111.723,270.828,117.435,270.831L282.483,270.927C288.195,270.930,292.846,266.284,292.850,260.572L292.869,226.635L107.100,226.527L107.080,260.465ZZ" style="fill: rgb(22, 22, 22);"/></g></g><g id="shape-aa94cf91-7a0a-80d1-8006-397ab2f9344e"><g class="fills" id="fills-aa94cf91-7a0a-80d1-8006-397ab2f9344e"><path d="M117.517,128.922C111.805,128.919,107.154,133.565,107.150,139.277L107.102,222.775L292.872,222.883L292.926,129.023L117.517,128.922ZZ" style="fill: rgb(22, 22, 22);"/></g></g></g><g id="shape-aa94cf91-7a0a-80d1-8006-397ab2f9344a" rx="0" ry="0"><g id="shape-aa94cf91-7a0a-80d1-8006-397ab2f9344f" rx="0" ry="0"><g id="shape-aa94cf91-7a0a-80d1-8006-397ab2f93452"><g class="fills" id="fills-aa94cf91-7a0a-80d1-8006-397ab2f93452"><path d="M128.171,200.483C127.186,200.483,126.696,199.994,126.696,199.011L126.696,178.201C126.696,177.218,127.186,176.729,128.171,176.729L136.628,176.729C139.682,176.729,141.932,177.449,143.374,178.893C144.821,180.338,145.542,182.579,145.542,185.627L145.542,191.580C145.542,194.628,144.826,196.875,143.390,198.314C141.954,199.758,139.704,200.478,136.622,200.478L128.171,200.483ZL128.171,200.483ZZM129.645,197.539L136.628,197.539C138.124,197.539,139.307,197.358,140.182,196.990C141.052,196.622,141.674,196.002,142.042,195.134C142.411,194.266,142.592,193.080,142.592,191.586L142.592,185.632C142.592,184.149,142.411,182.974,142.042,182.101C141.674,181.233,141.052,180.607,140.182,180.233C139.313,179.860,138.124,179.673,136.628,179.673L129.645,179.673L129.645,197.539ZZ" style="fill: rgb(255, 255, 255); fill-opacity: 1;"/></g></g><g id="shape-aa94cf91-7a0a-80d1-8006-397ab2f93453"><g class="fills" id="fills-aa94cf91-7a0a-80d1-8006-397ab2f93453"><path d="M150.389,200.341C149.454,199.978,149.173,199.336,149.548,198.413L157.900,177.883C158.252,177.114,158.803,176.729,159.551,176.729L159.623,176.729C160.382,176.762,160.899,177.152,161.169,177.883L169.665,198.413C170.038,199.336,169.769,199.978,168.856,200.341C167.931,200.703,167.287,200.434,166.924,199.533L165.031,194.942L154.098,194.942L152.288,199.533C151.924,200.445,151.292,200.714,150.389,200.341ZZM155.248,192.003L163.810,192.003L159.441,181.387L155.248,192.003ZZ" style="fill: rgb(255, 255, 255); fill-opacity: 1;"/></g></g><g id="shape-aa94cf91-7a0a-80d1-8006-397ab2f93454"><g class="fills" id="fills-aa94cf91-7a0a-80d1-8006-397ab2f93454"><path d="M179.959,200.483C178.974,200.483,178.485,199.994,178.485,199.011L178.485,191.866L170.446,179.080C169.956,178.240,170.105,177.548,170.902,177.015C171.744,176.499,172.421,176.652,172.938,177.471L179.959,188.719L187.333,177.471C187.580,177.086,187.877,176.855,188.230,176.779C188.582,176.702,188.951,176.806,189.336,177.086C190.188,177.613,190.342,178.278,189.792,179.085L181.440,191.871L181.440,199.017C181.440,200.000,180.950,200.489,179.959,200.483ZL179.959,200.483ZZ" style="fill: rgb(255, 255, 255); fill-opacity: 1;"/></g></g><g id="shape-aa94cf91-7a0a-80d1-8006-397ab2f93455"><g class="fills" id="fills-aa94cf91-7a0a-80d1-8006-397ab2f93455"><path d="M199.334,200.483C197.331,200.483,195.774,200.082,194.656,199.275C193.540,198.468,192.841,197.227,192.560,195.546C192.516,195.030,192.621,194.645,192.874,194.387C193.132,194.129,193.507,194.002,193.996,194.002C194.486,194.002,194.849,194.118,195.075,194.354C195.306,194.590,195.460,194.947,195.543,195.441C195.718,196.249,196.093,196.798,196.676,197.095C197.254,197.391,198.140,197.539,199.334,197.539L204.390,197.539C205.898,197.539,206.927,197.270,207.472,196.727C208.017,196.183,208.286,195.172,208.286,193.689C208.286,192.207,208.005,191.152,207.444,190.597C206.883,190.043,205.865,189.762,204.390,189.762L200.038,189.762C197.826,189.762,196.186,189.224,195.113,188.142C194.040,187.060,193.507,185.418,193.507,183.210C193.507,181.002,194.035,179.387,195.097,178.322C196.153,177.262,197.793,176.729,199.999,176.729L204.176,176.729C206.036,176.729,207.494,177.108,208.556,177.866C209.612,178.624,210.284,179.789,210.564,181.354C210.636,181.854,210.542,182.238,210.284,182.502C210.025,182.765,209.640,182.897,209.128,182.897C208.660,182.897,208.308,182.776,208.077,182.529C207.840,182.282,207.692,181.930,207.620,181.458C207.433,180.772,207.076,180.299,206.547,180.047C206.019,179.794,205.232,179.668,204.176,179.668L199.999,179.668C198.596,179.668,197.655,179.915,197.177,180.415C196.698,180.909,196.456,181.843,196.456,183.210C196.456,184.578,196.703,185.533,197.193,186.050C197.683,186.566,198.629,186.818,200.038,186.818L204.390,186.818C206.696,186.818,208.413,187.379,209.541,188.499C210.669,189.620,211.235,191.350,211.235,193.684C211.235,196.018,210.674,197.721,209.552,198.825C208.429,199.929,206.707,200.478,204.390,200.478L199.334,200.483ZL199.334,200.483ZZ" style="fill: rgb(255, 255, 255); fill-opacity: 1;"/></g></g></g><g id="shape-aa94cf91-7a0a-80d1-8006-397ab2f93450" rx="0" ry="0"><g id="shape-aa94cf91-7a0a-80d1-8006-397ab2f93456"><g class="fills" id="fills-aa94cf91-7a0a-80d1-8006-397ab2f93456"><path d="M130.636,163.438C129.293,163.438,128.303,163.120,127.659,162.477C127.015,161.834,126.696,160.846,126.696,159.506L126.696,155.452C126.696,154.101,127.021,153.107,127.664,152.476C128.308,151.838,129.299,151.531,130.636,151.542L132.743,151.542C134.091,151.542,135.087,151.860,135.725,152.498C136.364,153.135,136.683,154.129,136.683,155.474L136.683,159.511C136.683,160.851,136.364,161.840,135.725,162.482C135.087,163.125,134.091,163.443,132.743,163.443L130.636,163.438ZL130.636,163.438ZZM130.636,161.966L132.743,161.966C133.370,161.966,133.860,161.889,134.218,161.741C134.575,161.593,134.828,161.340,134.977,160.983C135.126,160.626,135.203,160.137,135.203,159.511L135.203,155.474C135.203,154.854,135.126,154.365,134.977,154.008C134.828,153.651,134.575,153.398,134.218,153.244C133.860,153.091,133.370,153.014,132.743,153.014L130.636,153.014C130.014,153.008,129.524,153.080,129.166,153.223C128.809,153.365,128.556,153.618,128.402,153.975C128.248,154.332,128.171,154.821,128.171,155.447L128.171,159.500C128.171,160.126,128.248,160.615,128.396,160.972C128.545,161.329,128.798,161.582,129.155,161.730C129.513,161.878,130.003,161.955,130.636,161.966ZL130.636,161.966ZZ" style="fill: rgb(255, 255, 255); fill-opacity: 1;"/></g></g><g id="shape-aa94cf91-7a0a-80d1-8006-397ab2f93457"><g class="fills" id="fills-aa94cf91-7a0a-80d1-8006-397ab2f93457"><path d="M140.485,166.948C139.995,166.948,139.748,166.700,139.748,166.212L139.748,155.277C139.748,154.788,139.995,154.541,140.485,154.541C140.975,154.541,141.222,154.788,141.222,155.277L141.222,155.496C141.541,155.178,141.932,154.942,142.394,154.782C142.862,154.623,143.385,154.541,143.962,154.541L144.628,154.541C145.800,154.541,146.670,154.821,147.231,155.381C147.792,155.941,148.073,156.809,148.073,157.979L148.073,159.994C148.073,161.159,147.792,162.021,147.231,162.587C146.670,163.152,145.800,163.433,144.628,163.433L141.217,163.433L141.217,166.206C141.217,166.695,140.969,166.942,140.485,166.948ZL140.485,166.948ZZM141.222,161.966L144.634,161.966C145.399,161.966,145.921,161.829,146.196,161.554C146.472,161.280,146.604,160.763,146.604,160.000L146.604,157.984C146.604,157.215,146.466,156.699,146.196,156.425C145.927,156.150,145.404,156.018,144.634,156.018L143.968,156.018C143.236,156.018,142.603,156.106,142.070,156.282C141.536,156.458,141.255,156.732,141.228,157.116L141.222,161.966ZL141.222,161.966ZZ" style="fill: rgb(255, 255, 255); fill-opacity: 1;"/></g></g><g id="shape-aa94cf91-7a0a-80d1-8006-397ab2f93458"><g class="fills" id="fills-aa94cf91-7a0a-80d1-8006-397ab2f93458"><path d="M152.189,159.593L152.189,160.016C152.189,160.769,152.326,161.285,152.601,161.554C152.877,161.823,153.394,161.961,154.158,161.961L155.600,161.961C156.200,161.961,156.640,161.906,156.926,161.796C157.212,161.686,157.405,161.488,157.499,161.208C157.565,160.988,157.653,160.818,157.768,160.697C157.884,160.582,158.054,160.522,158.291,160.522C158.528,160.522,158.726,160.588,158.852,160.714C158.979,160.840,159.023,161.027,158.973,161.274C158.847,161.999,158.500,162.543,157.939,162.900C157.377,163.257,156.596,163.433,155.600,163.433L154.158,163.433C152.992,163.433,152.128,163.152,151.562,162.592C150.995,162.032,150.714,161.170,150.714,160.011L150.714,157.973C150.714,156.787,150.995,155.914,151.562,155.353C152.128,154.793,152.992,154.524,154.158,154.535L155.600,154.535C156.772,154.535,157.642,154.815,158.203,155.375C158.764,155.936,159.045,156.803,159.045,157.979L159.045,158.858C159.045,159.346,158.797,159.593,158.307,159.593L152.189,159.593ZZM154.158,156.013C153.399,156.002,152.877,156.133,152.601,156.408C152.326,156.683,152.189,157.204,152.189,157.979L152.189,158.121L157.570,158.121L157.570,157.979C157.570,157.210,157.433,156.694,157.163,156.419C156.893,156.144,156.371,156.013,155.600,156.013L154.158,156.013ZZ" style="fill: rgb(255, 255, 255); fill-opacity: 1;"/></g></g><g id="shape-aa94cf91-7a0a-80d1-8006-397ab2f93459"><g class="fills" id="fills-aa94cf91-7a0a-80d1-8006-397ab2f93459"><path d="M162.847,163.438C162.357,163.438,162.110,163.191,162.110,162.702L162.110,155.277C162.110,154.788,162.357,154.541,162.847,154.541C163.337,154.541,163.584,154.788,163.584,155.277L163.584,155.568C164.206,154.881,165.120,154.541,166.330,154.541L166.820,154.541C167.992,154.541,168.861,154.821,169.422,155.381C169.984,155.941,170.264,156.809,170.264,157.979L170.264,162.697C170.264,163.185,170.017,163.433,169.527,163.433C169.037,163.433,168.790,163.185,168.790,162.697L168.790,157.979C168.790,157.210,168.652,156.694,168.371,156.419C168.091,156.144,167.573,156.013,166.820,156.013L166.330,156.013C165.626,156.013,165.015,156.095,164.492,156.254C163.969,156.414,163.667,156.666,163.584,157.012L163.584,162.697C163.584,163.185,163.337,163.433,162.847,163.438ZL162.847,163.438ZZ" style="fill: rgb(255, 255, 255); fill-opacity: 1;"/></g></g><g id="shape-aa94cf91-7a0a-80d1-8006-397ab2f9345a"><g class="fills" id="fills-aa94cf91-7a0a-80d1-8006-397ab2f9345a"><path d="M174.308,163.438C174.055,163.438,173.868,163.378,173.753,163.257C173.637,163.136,173.571,162.949,173.571,162.702L173.571,152.294C173.571,152.036,173.632,151.849,173.753,151.734C173.874,151.619,174.061,151.558,174.308,151.558C174.556,151.558,174.754,151.619,174.870,151.734C174.985,151.849,175.046,152.036,175.046,152.294L175.046,162.702C175.046,162.955,174.985,163.141,174.870,163.257C174.754,163.378,174.567,163.438,174.308,163.438ZZ" style="fill: rgb(255, 255, 255); fill-opacity: 1;"/></g></g><g id="shape-aa94cf91-7a0a-80d1-8006-397ab2f9345b"><g class="fills" id="fills-aa94cf91-7a0a-80d1-8006-397ab2f9345b"><path d="M179.266,163.438C178.771,163.438,178.529,163.191,178.529,162.702L178.529,155.277C178.529,154.788,178.776,154.541,179.266,154.541C179.756,154.541,180.003,154.788,180.003,155.277L180.003,155.568C180.625,154.881,181.539,154.541,182.744,154.541L183.234,154.541C184.406,154.541,185.275,154.821,185.836,155.381C186.397,155.941,186.678,156.809,186.678,157.979L186.678,162.697C186.678,163.185,186.430,163.433,185.941,163.433C185.451,163.433,185.203,163.185,185.203,162.697L185.203,157.979C185.203,157.210,185.066,156.694,184.785,156.419C184.510,156.144,183.993,156.013,183.234,156.013L182.744,156.013C182.039,156.013,181.429,156.095,180.906,156.254C180.383,156.414,180.081,156.666,180.003,157.012L180.003,162.697C180.003,163.185,179.756,163.433,179.266,163.438ZL179.266,163.438ZZ" style="fill: rgb(255, 255, 255); fill-opacity: 1;"/></g></g><g id="shape-aa94cf91-7a0a-80d1-8006-397ab2f9345c"><g class="fills" id="fills-aa94cf91-7a0a-80d1-8006-397ab2f9345c"><path d="M191.063,163.438C190.574,163.438,190.326,163.191,190.326,162.702L190.326,156.018L189.677,156.018C189.187,156.018,188.939,155.771,188.939,155.282C188.939,154.793,189.187,154.546,189.677,154.546L190.326,154.546L190.326,154.475C190.326,153.321,190.601,152.470,191.163,151.915C191.718,151.361,192.571,151.086,193.721,151.086C194.145,151.086,194.354,151.333,194.354,151.822C194.354,152.311,194.145,152.558,193.721,152.558C192.984,152.558,192.478,152.690,192.208,152.953C191.938,153.217,191.801,153.722,191.801,154.469L191.801,154.541L193.611,154.541C194.101,154.541,194.348,154.788,194.348,155.277C194.348,155.765,194.101,156.013,193.611,156.013L191.801,156.013L191.801,162.697C191.801,163.185,191.553,163.433,191.063,163.438ZL191.063,163.438ZZ" style="fill: rgb(255, 255, 255); fill-opacity: 1;"/></g></g><g id="shape-aa94cf91-7a0a-80d1-8006-397ab2f9345d"><g class="fills" id="fills-aa94cf91-7a0a-80d1-8006-397ab2f9345d"><path d="M197.336,163.438C196.841,163.438,196.599,163.191,196.599,162.702L196.599,155.277C196.599,154.788,196.847,154.541,197.336,154.541C197.826,154.541,198.073,154.788,198.073,155.277L198.073,155.963C198.420,155.496,198.860,155.139,199.394,154.903C199.928,154.661,200.544,154.546,201.238,154.546C201.727,154.546,201.975,154.793,201.975,155.282C201.975,155.771,201.727,156.018,201.238,156.018C200.225,156.018,199.449,156.205,198.916,156.578C198.382,156.952,198.101,157.446,198.073,158.061L198.073,162.702C198.073,163.191,197.826,163.438,197.336,163.438ZZ" style="fill: rgb(255, 255, 255); fill-opacity: 1;"/></g></g><g id="shape-aa94cf91-7a0a-80d1-8006-397ab2f9345e"><g class="fills" id="fills-aa94cf91-7a0a-80d1-8006-397ab2f9345e"><path d="M206.145,163.438C205.161,163.438,204.429,163.196,203.950,162.718C203.472,162.241,203.229,161.510,203.229,160.527C203.229,159.544,203.471,158.814,203.945,158.336C204.423,157.858,205.155,157.616,206.145,157.616L209.865,157.616C209.827,157.001,209.667,156.584,209.381,156.359C209.095,156.133,208.600,156.018,207.906,156.018L206.888,156.018C206.300,156.018,205.865,156.056,205.579,156.139C205.293,156.216,205.089,156.359,204.974,156.562C204.869,156.809,204.759,156.979,204.649,157.073C204.539,157.166,204.374,157.215,204.148,157.215C203.901,157.215,203.708,157.144,203.570,157.007C203.433,156.869,203.389,156.688,203.449,156.458C203.626,155.798,203.994,155.315,204.550,155.007C205.111,154.700,205.893,154.546,206.894,154.546L207.912,154.546C209.084,154.546,209.953,154.826,210.515,155.386C211.076,155.947,211.356,156.814,211.356,157.984L211.356,162.702C211.356,163.191,211.109,163.438,210.619,163.438C210.130,163.438,209.882,163.191,209.882,162.702L209.882,162.307C209.254,163.059,208.341,163.438,207.142,163.438L206.145,163.438ZL206.145,163.438ZZM206.145,161.966L207.130,161.966C207.565,161.966,207.973,161.928,208.352,161.845C208.732,161.763,209.062,161.620,209.332,161.411C209.601,161.203,209.783,160.901,209.871,160.505L209.871,159.083L206.145,159.083C205.568,159.083,205.183,159.182,204.990,159.374C204.798,159.566,204.704,159.951,204.704,160.522C204.704,161.093,204.798,161.488,204.990,161.675C205.183,161.867,205.568,161.961,206.145,161.966ZL206.145,161.966ZZ" style="fill: rgb(255, 255, 255); fill-opacity: 1;"/></g></g></g><g id="shape-aa94cf91-7a0a-80d1-8006-397ab2f93451" rx="0" ry="0"><g id="shape-aa94cf91-7a0a-80d1-8006-397ab2f9345f"><g class="fills" id="fills-aa94cf91-7a0a-80d1-8006-397ab2f9345f"><path d="M223.737,159.324L223.737,163.449L252.140,163.449L223.737,191.800L226.659,194.711L262.111,159.324L223.737,159.324ZZ" style="fill: rgb(244, 169, 58);"/></g></g><g id="shape-aa94cf91-7a0a-80d1-8006-397ab2f93460"><g class="fills" id="fills-aa94cf91-7a0a-80d1-8006-397ab2f93460"><path d="M266.238,155.205L270.370,151.081L223.737,151.081L223.737,155.205L266.238,155.205ZZ" style="fill: rgb(230, 30, 36);"/></g></g><g id="shape-aa94cf91-7a0a-80d1-8006-397ab2f93461"><g class="fills" id="fills-aa94cf91-7a0a-80d1-8006-397ab2f93461"><path d="M269.160,158.116L269.160,200.544L273.286,200.544L273.286,153.997L269.160,158.116ZZ" style="fill: rgb(57, 174, 74);"/></g></g><g id="shape-aa94cf91-7a0a-80d1-8006-397ab2f93462"><g class="fills" id="fills-aa94cf91-7a0a-80d1-8006-397ab2f93462"><path d="M265.033,200.544L265.033,162.241L229.575,197.627L232.497,200.544L260.901,172.193L260.901,200.544L265.033,200.544ZZ" style="fill: rgb(40, 164, 219);"/></g></g></g></g></g><g id="shape-aa94cf91-7a0a-80d1-8006-397bb350db14"><g transform="matrix(1.000000, 0.000000, 0.000000, 1.000000, 0.000000, 0.000000)" class="text-container" x="159" y="234" width="82" height="30" rx="0" ry="0"><defs><pattern patternUnits="objectBoundingBox" width="81.296875" height="37" id="fill-0-render-28-0"><g><rect width="81.296875" height="37" style="fill: rgb(255, 255, 255); fill-opacity: 1;"/></g></pattern></defs><g class="fills" id="fills-aa94cf91-7a0a-80d1-8006-397bb350db14"><text x="159" y="267" dominant-baseline="ideographic" textLength="81.296875" lengthAdjust="spacingAndGlyphs" style="text-transform: none; font-family: &quot;Roboto Condensed&quot;; letter-spacing: normal; font-style: normal; font-weight: 700; white-space: pre; font-size: 30px; text-decoration: none solid rgb(255, 255, 255); direction: ltr; fill: rgb(255, 255, 255); fill-opacity: 1;">KENYA</text></g></g></g><g id="shape-aa94cf91-7a0a-80d1-8006-397a9c47018d" clip-path="url(#render-29-b)" rx="0" ry="0" style="fill: rgb(0, 0, 0);"><defs><clipPath id="render-29-b" class="svg-def" transform="matrix(1.000000, 0.000000, 0.000000, 1.000000, 11.785320, 4.349838)"><rect width="571" height="411.309" fill="#fff" transform="translate(-132 -10)"/></clipPath></defs><g id="shape-aa94cf91-7a0a-80d1-8006-397a9c47018f"><g class="fills" id="fills-aa94cf91-7a0a-80d1-8006-397a9c47018f"><path d="M25.933,329.429C24.391,329.429,22.890,328.673,21.991,327.274C-1.397,290.793,-14.479,248.685,-15.848,205.504C-15.930,202.920,-13.908,200.765,-11.324,200.684C-8.740,200.602,-6.585,202.624,-6.503,205.208C-5.186,246.704,7.387,287.168,29.865,322.229C31.254,324.404,30.631,327.294,28.456,328.694C27.670,329.194,26.802,329.429,25.933,329.429ZZ" style="fill: rgb(230, 30, 36);"/></g></g><g id="shape-aa94cf91-7a0a-80d1-8006-397a9c470190"><g class="fills" id="fills-aa94cf91-7a0a-80d1-8006-397a9c470190"><path d="M224.413,405.659C209.604,405.659,194.693,404.076,179.936,400.849C142.525,392.668,108.189,374.377,80.625,347.945C78.756,346.158,78.694,343.196,80.482,341.337C82.269,339.468,85.231,339.407,87.089,341.194C113.408,366.431,146.202,383.895,181.917,391.708C239.375,404.270,299.142,390.799,345.897,354.727C347.940,353.154,350.881,353.532,352.454,355.574C354.027,357.617,353.649,360.558,351.606,362.131C314.666,390.625,269.963,405.659,224.413,405.659ZL224.413,405.659ZZ" style="fill: rgb(0, 187, 79);"/></g></g><g id="shape-aa94cf91-7a0a-80d1-8006-397a9c470191"><g class="fills" id="fills-aa94cf91-7a0a-80d1-8006-397a9c470191"><path d="M224.424,373.385C211.852,373.385,199.280,372.027,186.840,369.300C155.027,362.345,125.858,346.740,102.491,324.169C100.632,322.371,100.581,319.410,102.379,317.551C104.176,315.692,107.138,315.641,108.987,317.439C131.108,338.794,158.713,353.572,188.842,360.160C208.420,364.439,228.325,365.174,248.016,362.335C267.033,359.588,285.324,353.603,302.390,344.534C336.778,326.263,363.791,296.502,378.457,260.746C379.437,258.356,382.164,257.212,384.554,258.193C386.944,259.173,388.088,261.900,387.107,264.290C371.624,302.058,343.099,333.493,306.782,352.786C288.766,362.366,269.443,368.687,249.354,371.588C241.071,372.783,232.748,373.375,224.424,373.385ZL224.424,373.385ZZ" style="fill: rgb(40, 164, 219);"/></g></g><g id="shape-aa94cf91-7a0a-80d1-8006-397a9c470192"><g class="fills" id="fills-aa94cf91-7a0a-80d1-8006-397a9c470192"><path d="M-11.170,210.028C-13.683,210.028,-15.766,208.027,-15.838,205.504C-17.135,164.601,-7.943,123.749,10.747,87.360C30.008,49.837,59.013,17.932,94.647,-4.915C96.822,-6.314,99.712,-5.681,101.112,-3.506C102.501,-1.330,101.878,1.560,99.702,2.959C65.468,24.907,37.576,55.567,19.070,91.618C1.106,126.608,-7.729,165.878,-6.483,205.198C-6.401,207.782,-8.423,209.937,-11.007,210.018C-11.058,210.018,-11.109,210.018,-11.170,210.028ZL-11.170,210.028ZZ" style="fill: rgb(40, 164, 219);"/></g></g><g id="shape-aa94cf91-7a0a-80d1-8006-397a9c470193"><g class="fills" id="fills-aa94cf91-7a0a-80d1-8006-397a9c470193"><path d="M83.873,349.252C82.708,349.252,81.544,348.823,80.635,347.955C55.338,323.699,36.392,293.224,25.853,259.827C14.976,225.379,13.331,188.458,21.073,153.040C21.624,150.517,24.116,148.924,26.639,149.475C29.162,150.027,30.765,152.519,30.214,155.041C22.819,188.857,24.392,224.122,34.779,257.008C44.849,288.914,62.946,318.031,87.110,341.194C88.979,342.982,89.041,345.943,87.253,347.802C86.334,348.762,85.109,349.242,83.873,349.252ZL83.873,349.252ZZ" style="fill: rgb(244, 169, 58);"/></g></g><g id="shape-aa94cf91-7a0a-80d1-8006-397a9c470194"><g class="fills" id="fills-aa94cf91-7a0a-80d1-8006-397a9c470194"><path d="M35.289,136.964C39.750,136.964,43.367,133.347,43.367,128.886C43.367,124.424,39.750,120.807,35.289,120.807C30.827,120.807,27.210,124.424,27.210,128.886C27.210,133.347,30.827,136.964,35.289,136.964ZZ" style="fill: rgb(40, 164, 219);"/></g></g><g id="shape-aa94cf91-7a0a-80d1-8006-397a9c470195"><g class="fills" id="fills-aa94cf91-7a0a-80d1-8006-397a9c470195"><path d="M399.210,94.397C405.093,94.397,409.862,89.628,409.862,83.744C409.862,77.861,405.093,73.092,399.210,73.092C393.327,73.092,388.557,77.861,388.557,83.744C388.557,89.628,393.327,94.397,399.210,94.397ZZ" style="fill: rgb(244, 169, 58);"/></g></g><g id="shape-aa94cf91-7a0a-80d1-8006-397a9c470196"><g class="fills" id="fills-aa94cf91-7a0a-80d1-8006-397a9c470196"><path d="M317.648,-5.520C317.648,21.626,339.657,43.635,366.803,43.635C393.949,43.635,415.958,21.626,415.958,-5.520L317.648,-5.520ZZ" style="fill: rgb(57, 174, 74);"/></g></g></g></g></g></g></g></g></g></svg>