<?xml version="1.0" encoding="UTF-8"?>
<svg id="screenshot-aa94cf91-7a0a-80d1-8006-397a9c47018c" xmlns="http://www.w3.org/2000/svg" xmlns:xlink="http://www.w3.org/1999/xlink" version="1.1" viewBox="0 0 400 400">
  <!-- Generator: Adobe Illustrator 29.5.1, SVG Export Plug-In . SVG Version: 2.1.0 Build 141)  -->
  <defs>
    <style>
      .st0 {
        fill: none;
      }

      .st1 {
        fill: #00bb4f;
      }

      .st2 {
        fill: #28a4db;
      }

      .st3 {
        isolation: isolate;
      }

      .st4 {
        clip-path: url(#clippath-1);
      }

      .st5 {
        fill: #f4a93a;
      }

      .st6 {
        fill: #fff;
      }

      .st7 {
        fill: #e61e24;
      }

      .st8 {
        fill: #39ae4a;
      }

      .st9 {
        clip-path: url(#clippath);
      }

      .st10 {
        fill: #161616;
      }
    </style>
    <clipPath id="clippath">
      <rect class="st0" width="400" height="400"/>
    </clipPath>
    <clipPath id="clippath-1">
      <rect class="st0" x="-120.21" y="-5.65" width="571" height="411.31"/>
    </clipPath>
  </defs>
  <g id="shape-aa94cf91-7a0a-80d1-8006-397a9c47018c">
    <g class="st9">
      <g>
        <g id="fills-aa94cf91-7a0a-80d1-8006-397a9c47018c">
          <rect class="st10" width="400" height="400"/>
        </g>
        <g>
          <g id="shape-aa94cf91-7a0a-80d1-8006-397ab2f93448">
            <g id="shape-aa94cf91-7a0a-80d1-8006-397ab2f93449">
              <g id="shape-aa94cf91-7a0a-80d1-8006-397ab2f9344c">
                <g id="fills-aa94cf91-7a0a-80d1-8006-397ab2f9344c">
                  <path class="st6" d="M296.84,125.11l-179.32-.1c-7.87,0-14.27,6.39-14.28,14.26l-.07,121.35c0,7.87,6.39,14.27,14.26,14.28l165.05.1c7.87,0,14.27-6.39,14.28-14.26l.08-135.62Z"/>
                </g>
              </g>
              <g id="shape-aa94cf91-7a0a-80d1-8006-397ab2f9344d">
                <g id="fills-aa94cf91-7a0a-80d1-8006-397ab2f9344d">
                  <path class="st10" d="M107.08,260.46c0,5.71,4.64,10.36,10.35,10.37l165.05.1c5.71,0,10.36-4.64,10.37-10.36l.02-33.94-185.77-.11-.02,33.94Z"/>
                </g>
              </g>
              <g id="shape-aa94cf91-7a0a-80d1-8006-397ab2f9344e">
                <g id="fills-aa94cf91-7a0a-80d1-8006-397ab2f9344e">
                  <path class="st10" d="M117.52,128.92c-5.71,0-10.36,4.64-10.37,10.35l-.05,83.5,185.77.11.05-93.86-175.41-.1Z"/>
                </g>
              </g>
            </g>
            <g id="shape-aa94cf91-7a0a-80d1-8006-397ab2f9344a">
              <g id="shape-aa94cf91-7a0a-80d1-8006-397ab2f9344f">
                <g id="shape-aa94cf91-7a0a-80d1-8006-397ab2f93452">
                  <g id="fills-aa94cf91-7a0a-80d1-8006-397ab2f93452">
                    <path class="st6" d="M128.17,200.48c-.99,0-1.48-.49-1.48-1.47v-20.81c0-.98.49-1.47,1.48-1.47h8.46c3.05,0,5.3.72,6.75,2.16,1.45,1.44,2.17,3.69,2.17,6.73v5.95c0,3.05-.72,5.29-2.15,6.73-1.44,1.44-3.69,2.16-6.77,2.16h-8.45ZM129.65,197.54h6.98c1.5,0,2.68-.18,3.55-.55.87-.37,1.49-.99,1.86-1.86.37-.87.55-2.05.55-3.55v-5.95c0-1.48-.18-2.66-.55-3.53-.37-.87-.99-1.49-1.86-1.87-.87-.37-2.06-.56-3.55-.56h-6.98v17.87Z"/>
                  </g>
                </g>
                <g id="shape-aa94cf91-7a0a-80d1-8006-397ab2f93453">
                  <g id="fills-aa94cf91-7a0a-80d1-8006-397ab2f93453">
                    <path class="st6" d="M150.39,200.34c-.94-.36-1.22-1.01-.84-1.93l8.35-20.53c.35-.77.9-1.15,1.65-1.15h.07c.76.03,1.28.42,1.55,1.15l8.5,20.53c.37.92.1,1.57-.81,1.93-.93.36-1.57.09-1.93-.81l-1.89-4.59h-10.93l-1.81,4.59c-.36.91-1,1.18-1.9.81ZM155.25,192h8.56l-4.37-10.62-4.19,10.62Z"/>
                  </g>
                </g>
                <g id="shape-aa94cf91-7a0a-80d1-8006-397ab2f93454">
                  <g id="fills-aa94cf91-7a0a-80d1-8006-397ab2f93454">
                    <path class="st6" d="M179.96,200.48c-.99,0-1.47-.49-1.47-1.47v-7.15l-8.04-12.79c-.49-.84-.34-1.53.46-2.07.84-.52,1.52-.36,2.04.46l7.02,11.25,7.37-11.25c.25-.38.54-.62.9-.69.35-.08.72.03,1.11.31.85.53,1.01,1.19.46,2l-8.35,12.79v7.15c0,.98-1.48,1.47-1.48,1.47Z"/>
                  </g>
                </g>
                <g id="shape-aa94cf91-7a0a-80d1-8006-397ab2f93455">
                  <g id="fills-aa94cf91-7a0a-80d1-8006-397ab2f93455">
                    <path class="st6" d="M199.33,200.48c-2,0-3.56-.4-4.68-1.21-1.12-.81-1.82-2.05-2.1-3.73-.04-.52.06-.9.31-1.16.26-.26.63-.38,1.12-.38s.85.12,1.08.35c.23.24.39.59.47,1.09.18.81.55,1.36,1.13,1.65.58.3,1.46.44,2.66.44h5.06c1.51,0,2.54-.27,3.08-.81.54-.54.81-1.56.81-3.04s-.28-2.54-.84-3.09c-.56-.55-1.58-.84-3.05-.84h-4.35c-2.21,0-3.85-.54-4.92-1.62-1.07-1.08-1.61-2.72-1.61-4.93s.53-3.82,1.59-4.89c1.06-1.06,2.7-1.59,4.9-1.59h4.18c1.86,0,3.32.38,4.38,1.14,1.06.76,1.73,1.92,2.01,3.49.07.5-.02.88-.28,1.15-.26.26-.64.4-1.16.4-.47,0-.82-.12-1.05-.37-.24-.25-.38-.6-.46-1.07-.19-.69-.54-1.16-1.07-1.41-.53-.25-1.32-.38-2.37-.38h-4.18c-1.4,0-2.34.25-2.82.75-.48.49-.72,1.43-.72,2.8s.25,2.32.74,2.84c.49.52,1.44.77,2.85.77h4.35c2.31,0,4.02.56,5.15,1.68,1.13,1.12,1.69,2.85,1.69,5.19s-.56,4.04-1.68,5.14c-1.12,1.1-2.85,1.65-5.16,1.65h-5.06Z"/>
                  </g>
                </g>
              </g>
              <g id="shape-aa94cf91-7a0a-80d1-8006-397ab2f93450">
                <g id="shape-aa94cf91-7a0a-80d1-8006-397ab2f93456">
                  <g id="fills-aa94cf91-7a0a-80d1-8006-397ab2f93456">
                    <path class="st6" d="M130.64,163.44c-1.34,0-2.33-.32-2.98-.96-.64-.64-.96-1.63-.96-2.97v-4.05c0-1.35.33-2.35.97-2.98.64-.64,1.63-.94,2.97-.93h2.11c1.35,0,2.34.32,2.98.96.64.64.96,1.63.96,2.98v4.04c0,1.34-.32,2.33-.96,2.97-.64.64-1.63.96-2.98.96h-2.11ZM130.64,161.97h2.11c.63,0,1.12-.08,1.48-.23.36-.15.61-.4.76-.76s.23-.85.23-1.47v-4.04c0-.62-.08-1.11-.23-1.47-.15-.36-.4-.61-.76-.76-.36-.15-.85-.23-1.48-.23h-2.11c-.62,0-1.11.07-1.47.21-.36.14-.61.39-.76.75-.15.36-.23.85-.23,1.47v4.05c0,.63.08,1.12.22,1.47.15.36.4.61.76.76.36.15,1.48.24,1.48.24Z"/>
                  </g>
                </g>
                <g id="shape-aa94cf91-7a0a-80d1-8006-397ab2f93457">
                  <g id="fills-aa94cf91-7a0a-80d1-8006-397ab2f93457">
                    <path class="st6" d="M140.49,166.95c-.49,0-.74-.25-.74-.74v-10.94c0-.49.25-.74.74-.74s.74.25.74.74v.22c.32-.32.71-.55,1.17-.71.47-.16.99-.24,1.57-.24h.67c1.17,0,2.04.28,2.6.84s.84,1.43.84,2.6v2.01c0,1.16-.28,2.03-.84,2.59-.56.56-1.43.85-2.6.85h-3.41v2.77c0,.49-.73.74-.73.74ZM141.22,161.97h3.41c.76,0,1.29-.14,1.56-.41.28-.27.41-.79.41-1.55v-2.02c0-.77-.14-1.28-.41-1.56-.27-.28-.79-.41-1.56-.41h-.67c-.73,0-1.37.09-1.9.26-.53.18-.82.45-.84.83v4.85Z"/>
                  </g>
                </g>
                <g id="shape-aa94cf91-7a0a-80d1-8006-397ab2f93458">
                  <g id="fills-aa94cf91-7a0a-80d1-8006-397ab2f93458">
                    <path class="st6" d="M152.19,159.59v.42c0,.75.14,1.27.41,1.54.28.27.79.41,1.56.41h1.44c.6,0,1.04-.05,1.33-.16.29-.11.48-.31.57-.59.07-.22.15-.39.27-.51.12-.12.29-.18.52-.18s.43.07.56.19c.13.13.17.31.12.56-.13.72-.47,1.27-1.03,1.63-.56.36-1.34.53-2.34.53h-1.44c-1.17,0-2.03-.28-2.6-.84-.57-.56-.85-1.42-.85-2.58v-2.04c0-1.19.28-2.06.85-2.62.57-.56,1.43-.83,2.6-.82h1.44c1.17,0,2.04.28,2.6.84.56.56.84,1.43.84,2.6v.88c0,.49-.25.74-.74.74h-6.12ZM154.16,156.01c-.76-.01-1.28.12-1.56.4-.27.27-.41.8-.41,1.57v.14h5.38v-.14c0-.77-.14-1.29-.41-1.56-.27-.28-.79-.41-1.56-.41h-1.44Z"/>
                  </g>
                </g>
                <g id="shape-aa94cf91-7a0a-80d1-8006-397ab2f93459">
                  <g id="fills-aa94cf91-7a0a-80d1-8006-397ab2f93459">
                    <path class="st6" d="M162.85,163.44c-.49,0-.74-.25-.74-.74v-7.43c0-.49.25-.74.74-.74s.74.25.74.74v.29c.62-.69,1.54-1.03,2.75-1.03h.49c1.17,0,2.04.28,2.6.84.56.56.84,1.43.84,2.6v4.72c0,.49-.25.74-.74.74s-.74-.25-.74-.74v-4.72c0-.77-.14-1.29-.42-1.56-.28-.28-.8-.41-1.55-.41h-.49c-.7,0-1.32.08-1.84.24-.52.16-.82.41-.91.76v5.69c0,.49-.74.74-.74.74Z"/>
                  </g>
                </g>
                <g id="shape-aa94cf91-7a0a-80d1-8006-397ab2f9345a">
                  <g id="fills-aa94cf91-7a0a-80d1-8006-397ab2f9345a">
                    <path class="st6" d="M174.31,163.44c-.25,0-.44-.06-.55-.18-.12-.12-.18-.31-.18-.56v-10.41c0-.26.06-.45.18-.56.12-.11.31-.18.55-.18s.45.06.56.18c.12.12.18.3.18.56v10.41c0,.25-.06.44-.18.56-.12.12-.3.18-.56.18Z"/>
                  </g>
                </g>
                <g id="shape-aa94cf91-7a0a-80d1-8006-397ab2f9345b">
                  <g id="fills-aa94cf91-7a0a-80d1-8006-397ab2f9345b">
                    <path class="st6" d="M179.27,163.44c-.5,0-.74-.25-.74-.74v-7.43c0-.49.25-.74.74-.74s.74.25.74.74v.29c.62-.69,1.54-1.03,2.74-1.03h.49c1.17,0,2.04.28,2.6.84s.84,1.43.84,2.6v4.72c0,.49-.25.74-.74.74s-.74-.25-.74-.74v-4.72c0-.77-.14-1.29-.42-1.56-.28-.28-.79-.41-1.55-.41h-.49c-.71,0-1.32.08-1.84.24-.52.16-.83.41-.9.76v5.69c0,.49-.74.74-.74.74Z"/>
                  </g>
                </g>
                <g id="shape-aa94cf91-7a0a-80d1-8006-397ab2f9345c">
                  <g id="fills-aa94cf91-7a0a-80d1-8006-397ab2f9345c">
                    <path class="st6" d="M191.06,163.44c-.49,0-.74-.25-.74-.74v-6.68h-.65c-.49,0-.74-.25-.74-.74s.25-.74.74-.74h.65v-.07c0-1.15.27-2.01.84-2.56.56-.55,1.41-.83,2.56-.83.42,0,.63.25.63.74s-.21.74-.63.74c-.74,0-1.24.13-1.51.4-.27.26-.41.77-.41,1.52v.07h1.81c.49,0,.74.25.74.74s-.25.74-.74.74h-1.81v6.68c0,.49-.74.74-.74.74Z"/>
                  </g>
                </g>
                <g id="shape-aa94cf91-7a0a-80d1-8006-397ab2f9345d">
                  <g id="fills-aa94cf91-7a0a-80d1-8006-397ab2f9345d">
                    <path class="st6" d="M197.34,163.44c-.49,0-.74-.25-.74-.74v-7.43c0-.49.25-.74.74-.74s.74.25.74.74v.69c.35-.47.79-.82,1.32-1.06.53-.24,1.15-.36,1.84-.36.49,0,.74.25.74.74s-.25.74-.74.74c-1.01,0-1.79.19-2.32.56-.53.37-.82.87-.84,1.48v4.64c0,.49-.25.74-.74.74Z"/>
                  </g>
                </g>
                <g id="shape-aa94cf91-7a0a-80d1-8006-397ab2f9345e">
                  <g id="fills-aa94cf91-7a0a-80d1-8006-397ab2f9345e">
                    <path class="st6" d="M206.15,163.44c-.98,0-1.72-.24-2.2-.72-.48-.48-.72-1.21-.72-2.19s.24-1.71.72-2.19c.48-.48,1.21-.72,2.2-.72h3.72c-.04-.61-.2-1.03-.48-1.26-.29-.23-.78-.34-1.47-.34h-1.02c-.59,0-1.02.04-1.31.12-.29.08-.49.22-.6.42-.1.25-.21.42-.32.51-.11.09-.28.14-.5.14-.25,0-.44-.07-.58-.21-.14-.14-.18-.32-.12-.55.18-.66.54-1.14,1.1-1.45.56-.31,1.34-.46,2.34-.46h1.02c1.17,0,2.04.28,2.6.84.56.56.84,1.43.84,2.6v4.72c0,.49-.25.74-.74.74s-.74-.25-.74-.74v-.39c-.63.75-1.54,1.13-2.74,1.13h-1ZM206.15,161.97h.99c.43,0,.84-.04,1.22-.12.38-.08.71-.23.98-.43.27-.21.45-.51.54-.91v-1.42h-3.73c-.58,0-.96.1-1.15.29-.19.19-.29.58-.29,1.15s.09.97.29,1.15c.19.19,1.15.29,1.15.29Z"/>
                  </g>
                </g>
              </g>
              <g id="shape-aa94cf91-7a0a-80d1-8006-397ab2f93451">
                <g id="shape-aa94cf91-7a0a-80d1-8006-397ab2f9345f">
                  <g id="fills-aa94cf91-7a0a-80d1-8006-397ab2f9345f">
                    <path class="st5" d="M223.74,159.32v4.12h28.4l-28.4,28.35,2.92,2.91,35.45-35.39h-38.37Z"/>
                  </g>
                </g>
                <g id="shape-aa94cf91-7a0a-80d1-8006-397ab2f93460">
                  <g id="fills-aa94cf91-7a0a-80d1-8006-397ab2f93460">
                    <path class="st7" d="M266.24,155.21l4.13-4.12h-46.63v4.12h42.5Z"/>
                  </g>
                </g>
                <g id="shape-aa94cf91-7a0a-80d1-8006-397ab2f93461">
                  <g id="fills-aa94cf91-7a0a-80d1-8006-397ab2f93461">
                    <path class="st8" d="M269.16,158.12v42.43h4.13v-46.55l-4.13,4.12Z"/>
                  </g>
                </g>
                <g id="shape-aa94cf91-7a0a-80d1-8006-397ab2f93462">
                  <g id="fills-aa94cf91-7a0a-80d1-8006-397ab2f93462">
                    <path class="st2" d="M265.03,200.54v-38.3l-35.46,35.39,2.92,2.92,28.4-28.35v28.35h4.13Z"/>
                  </g>
                </g>
              </g>
            </g>
          </g>
          <g id="shape-aa94cf91-7a0a-80d1-8006-397bb350db14">
            <g id="fills-aa94cf91-7a0a-80d1-8006-397bb350db14">
              <g class="st3">
                <path class="st6" d="M169.95,251.25l-1.53,1.92v5.48h-3.88v-19.2h3.88v8.37l1.23-2.07,3.57-6.3h4.75l-5.5,8.44,5.59,10.76h-4.6l-3.51-7.41Z"/>
                <path class="st6" d="M190.75,250.36h-6.04v5.09h7.15v3.22h-11.02v-19.2h11v3.23h-7.12v4.54h6.04v3.12Z"/>
                <path class="st6" d="M208.85,258.66h-3.88l-5.67-12.59v12.59h-3.88v-19.2h3.88l5.68,12.6v-12.6h3.86v19.2Z"/>
                <path class="st6" d="M218.73,248.09l2.89-8.62h4.22l-5.14,12.23v6.96h-3.93v-6.96l-5.16-12.23h4.22l2.9,8.62Z"/>
                <path class="st6" d="M236.13,254.73h-5.29l-1.03,3.93h-4.1l6-19.2h3.55l6.04,19.2h-4.14l-1.03-3.93ZM231.68,251.5h3.59l-1.79-6.84-1.79,6.84Z"/>
              </g>
            </g>
          </g>
          <g class="st4">
            <g id="shape-aa94cf91-7a0a-80d1-8006-397a9c47018d">
              <g id="shape-aa94cf91-7a0a-80d1-8006-397a9c47018f">
                <g id="fills-aa94cf91-7a0a-80d1-8006-397a9c47018f">
                  <path class="st7" d="M25.93,329.43c-1.54,0-3.04-.76-3.94-2.15C-1.4,290.79-14.48,248.68-15.85,205.5c-.08-2.58,1.94-4.74,4.52-4.82,2.58-.08,4.74,1.94,4.82,4.52,1.32,41.5,13.89,81.96,36.37,117.02,1.39,2.17.77,5.07-1.41,6.46-.79.5-1.65.73-2.52.73Z"/>
                </g>
              </g>
              <g id="shape-aa94cf91-7a0a-80d1-8006-397a9c470190">
                <g id="fills-aa94cf91-7a0a-80d1-8006-397a9c470190">
                  <path class="st1" d="M224.41,405.66c-14.81,0-29.72-1.58-44.48-4.81-37.41-8.18-71.75-26.47-99.31-52.9-1.87-1.79-1.93-4.75-.14-6.61,1.79-1.87,4.75-1.93,6.61-.14,26.32,25.24,59.11,42.7,94.83,50.51,57.46,12.56,117.22-.91,163.98-36.98,2.04-1.57,4.98-1.19,6.56.85,1.57,2.04,1.19,4.98-.85,6.56-36.94,28.49-127.19,43.53-127.19,43.53Z"/>
                </g>
              </g>
              <g id="shape-aa94cf91-7a0a-80d1-8006-397a9c470191">
                <g id="fills-aa94cf91-7a0a-80d1-8006-397a9c470191">
                  <path class="st2" d="M224.42,373.39c-12.57,0-25.14-1.36-37.58-4.09-31.81-6.95-60.98-22.56-84.35-45.13-1.86-1.8-1.91-4.76-.11-6.62,1.8-1.86,4.76-1.91,6.61-.11,22.12,21.36,49.73,36.13,79.85,42.72,19.58,4.28,39.48,5.01,59.17,2.17,19.02-2.75,37.31-8.73,54.37-17.8,34.39-18.27,61.4-48.03,76.07-83.79.98-2.39,3.71-3.53,6.1-2.55,2.39.98,3.53,3.71,2.55,6.1-15.48,37.77-44.01,69.2-80.32,88.5-18.02,9.58-37.34,15.9-57.43,18.8-8.28,1.19-24.93,1.8-24.93,1.8Z"/>
                </g>
              </g>
              <g id="shape-aa94cf91-7a0a-80d1-8006-397a9c470192">
                <g id="fills-aa94cf91-7a0a-80d1-8006-397a9c470192">
                  <path class="st2" d="M-11.17,210.03c-2.51,0-4.6-2-4.67-4.52-1.3-40.9,7.9-81.75,26.59-118.14C30.01,49.84,59.01,17.93,94.65-4.91c2.17-1.4,5.06-.77,6.46,1.41,1.39,2.18.77,5.07-1.41,6.47C65.47,24.91,37.58,55.57,19.07,91.62,1.11,126.61-7.73,165.88-6.48,205.2c.08,2.58-1.94,4.74-4.52,4.82-.05,0-.16,0-.16,0Z"/>
                </g>
              </g>
              <g id="shape-aa94cf91-7a0a-80d1-8006-397a9c470193">
                <g id="fills-aa94cf91-7a0a-80d1-8006-397a9c470193">
                  <path class="st5" d="M83.87,349.25c-1.17,0-2.33-.43-3.24-1.3-25.3-24.26-44.24-54.73-54.78-88.13-10.88-34.45-12.52-71.37-4.78-106.79.55-2.52,3.04-4.12,5.57-3.56,2.52.55,4.13,3.04,3.58,5.57-7.4,33.82-5.82,69.08,4.56,101.97,10.07,31.91,28.17,61.02,52.33,84.19,1.87,1.79,1.93,4.75.14,6.61-.92.96-3.38,1.45-3.38,1.45Z"/>
                </g>
              </g>
              <g id="shape-aa94cf91-7a0a-80d1-8006-397a9c470194">
                <g id="fills-aa94cf91-7a0a-80d1-8006-397a9c470194">
                  <path class="st2" d="M35.29,136.96c4.46,0,8.08-3.62,8.08-8.08s-3.62-8.08-8.08-8.08-8.08,3.62-8.08,8.08,3.62,8.08,8.08,8.08Z"/>
                </g>
              </g>
              <g id="shape-aa94cf91-7a0a-80d1-8006-397a9c470195">
                <g id="fills-aa94cf91-7a0a-80d1-8006-397a9c470195">
                  <path class="st5" d="M399.21,94.4c5.88,0,10.65-4.77,10.65-10.65s-4.77-10.65-10.65-10.65-10.65,4.77-10.65,10.65,4.77,10.65,10.65,10.65Z"/>
                </g>
              </g>
              <g id="shape-aa94cf91-7a0a-80d1-8006-397a9c470196">
                <g id="fills-aa94cf91-7a0a-80d1-8006-397a9c470196">
                  <path class="st8" d="M317.65-5.52c0,27.15,22.01,49.15,49.15,49.15s49.15-22.01,49.15-49.15h-98.31Z"/>
                </g>
              </g>
            </g>
          </g>
        </g>
      </g>
    </g>
  </g>
</svg>