<svg width="400" height="400" viewBox="0 0 400 400" fill="none" xmlns="http://www.w3.org/2000/svg">
<g clip-path="url(#clip0_406_26)">
<rect width="400" height="400" fill="black"/>
<g clip-path="url(#clip1_406_26)">
<path d="M14.1481 325.079C12.606 325.079 11.1047 324.323 10.2059 322.924C-13.1819 286.443 -26.2648 244.335 -27.6334 201.154C-27.7151 198.57 -25.6929 196.415 -23.109 196.334C-20.5251 196.252 -18.3701 198.274 -18.2884 200.858C-16.971 242.354 -4.39873 282.818 18.0801 317.879C19.4691 320.054 18.8461 322.944 16.6707 324.344C15.8843 324.844 15.0162 325.079 14.1481 325.079Z" fill="#FF0A1B"/>
<path d="M212.628 401.309C197.819 401.309 182.908 399.726 168.151 396.499C130.74 388.318 96.4041 370.027 68.8392 343.595C66.9702 341.808 66.9089 338.846 68.6962 336.987C70.4835 335.118 73.4452 335.057 75.304 336.844C101.623 362.081 134.417 379.545 170.132 387.358C227.59 399.92 287.357 386.449 334.112 350.377C336.155 348.804 339.096 349.182 340.669 351.224C342.242 353.267 341.864 356.208 339.821 357.781C302.881 386.275 258.178 401.309 212.608 401.309H212.628Z" fill="#00BB4F"/>
<path d="M212.639 369.035C200.067 369.035 187.495 367.677 175.055 364.95C143.242 357.995 114.073 342.39 90.7058 319.819C88.847 318.021 88.796 315.06 90.5934 313.201C92.3909 311.342 95.3527 311.291 97.2013 313.089C119.323 334.444 146.928 349.222 177.057 355.81C196.635 360.089 216.54 360.824 236.231 357.985C255.248 355.238 273.539 349.253 290.605 340.184C324.993 321.913 352.006 292.152 366.672 256.396C367.652 254.006 370.379 252.862 372.769 253.843C375.159 254.823 376.303 257.55 375.322 259.94C359.839 297.708 331.314 329.143 294.997 348.436C276.981 358.016 257.658 364.337 237.569 367.238C229.286 368.433 220.963 369.025 212.649 369.025L212.639 369.035Z" fill="#00B7E7"/>
<path d="M-22.9558 205.678C-25.4682 205.678 -27.5516 203.677 -27.6231 201.154C-28.9202 160.251 -19.7285 119.399 -1.03862 83.0098C18.2231 45.4872 47.2281 13.5817 82.8614 -9.26487C85.0368 -10.6641 87.927 -10.0308 89.3262 -7.85547C90.7152 -5.6801 90.0922 -2.78981 87.9168 -1.39063C53.6828 20.5572 25.791 51.2167 7.28501 87.2686C-10.6797 122.258 -19.514 161.528 -18.268 200.848C-18.1863 203.432 -20.2085 205.587 -22.7924 205.668C-22.8434 205.668 -22.8945 205.668 -22.9456 205.668L-22.9558 205.678Z" fill="#00B7E7"/>
<path d="M72.0874 344.902C70.9231 344.902 69.7588 344.473 68.8499 343.605C43.5522 319.349 24.6071 288.874 14.0672 255.477C3.19035 221.029 1.54605 184.108 9.28752 148.69C9.83902 146.167 12.331 144.574 14.8536 145.125C17.3762 145.677 18.9797 148.169 18.4282 150.691C11.0339 184.507 12.6067 219.772 22.9934 252.658C33.0634 284.564 51.1609 313.681 75.3249 336.844C77.1939 338.632 77.2552 341.593 75.4679 343.452C74.5487 344.412 73.3232 344.892 72.0874 344.892V344.902Z" fill="#FFB325"/>
<path d="M23.5033 132.614C27.9649 132.614 31.5818 128.997 31.5818 124.536C31.5818 120.074 27.9649 116.457 23.5033 116.457C19.0417 116.457 15.4248 120.074 15.4248 124.536C15.4248 128.997 19.0417 132.614 23.5033 132.614Z" fill="#00B7E7"/>
<path d="M387.425 90.0468C393.308 90.0468 398.077 85.2777 398.077 79.3946C398.077 73.5116 393.308 68.7424 387.425 68.7424C381.542 68.7424 376.772 73.5116 376.772 79.3946C376.772 85.2777 381.542 90.0468 387.425 90.0468Z" fill="#FFB325"/>
<path d="M305.863 -0.869751C305.863 26.2765 327.872 48.2855 355.018 48.2855C382.164 48.2855 404.173 26.2765 404.173 -0.869751H305.863Z" fill="#00BA4F"/>
</g>
<g clip-path="url(#clip2_406_26)">
<path d="M328.674 113V257.693C328.674 267.871 320.395 276.164 310.203 276.164H89.4711C79.2929 276.164 71 267.885 71 257.693V131.471C71 121.279 79.2787 113 89.4711 113H328.674Z" fill="#161616"/>
<path d="M89.6914 116.813H328V212.813H75V131.408C75 123.362 81.5918 116.813 89.6914 116.813Z" fill="white"/>
<path d="M74.9692 257.693V216.328H324.705V257.693C324.705 265.688 318.198 272.18 310.217 272.18H89.4711C81.4759 272.18 74.9834 265.674 74.9834 257.693H74.9692Z" fill="white"/>
<path d="M253.173 148.766H290.101L255.98 182.887L253.173 180.08L280.504 152.749H253.173V148.766Z" fill="#FFB325"/>
<path d="M294.071 144.796H253.173V140.813H298.054L294.071 144.796Z" fill="#FF0A1B"/>
<path d="M296.892 147.603L300.861 143.634V188.515H296.892V147.603Z" fill="#00BB4F"/>
<path d="M292.908 188.515H288.939V161.169L261.594 188.515L258.787 185.694L292.908 151.572V188.515Z" fill="#00B7E7"/>
<path d="M105.263 161.07H108.722C110.933 161.07 112.549 160.546 113.598 159.497C114.647 158.448 115.172 156.818 115.172 154.634V148.014C115.172 145.803 114.647 144.187 113.598 143.138C112.549 142.089 110.933 141.564 108.722 141.564H105.263C103.08 141.55 101.45 142.06 100.401 143.095C99.3517 144.13 98.813 145.76 98.813 147.986V154.634C98.813 156.832 99.3375 158.448 100.387 159.497C101.436 160.546 103.066 161.07 105.249 161.07H105.263ZM105.263 158.66C104.242 158.66 103.434 158.533 102.853 158.292C102.272 158.051 101.861 157.64 101.606 157.044C101.365 156.463 101.237 155.655 101.237 154.634V147.986C101.237 146.965 101.365 146.157 101.606 145.576C101.861 144.995 102.272 144.584 102.853 144.343C103.434 144.102 104.242 143.988 105.249 144.003H108.708C109.728 144.003 110.536 144.13 111.118 144.371C111.699 144.626 112.11 145.037 112.365 145.619C112.606 146.2 112.734 147.008 112.734 148.014V154.634C112.734 155.655 112.606 156.463 112.365 157.044C112.124 157.626 111.699 158.037 111.118 158.292C110.536 158.533 109.728 158.66 108.708 158.66H105.249H105.263Z" fill="#161616"/>
<path d="M121.367 166.826C122.175 166.826 122.571 166.429 122.571 165.621V161.07H128.157C130.071 161.07 131.488 160.602 132.41 159.681C133.331 158.76 133.785 157.342 133.785 155.428V152.125C133.785 150.212 133.331 148.794 132.41 147.873C131.488 146.951 130.071 146.497 128.157 146.497H127.065C126.115 146.497 125.265 146.625 124.499 146.894C123.734 147.164 123.096 147.547 122.586 148.071V147.717C122.586 146.909 122.189 146.512 121.381 146.512C120.573 146.512 120.176 146.909 120.176 147.717V165.635C120.176 166.443 120.573 166.84 121.381 166.84L121.367 166.826ZM122.571 158.66V150.708C122.614 150.084 123.082 149.63 123.947 149.347C124.825 149.063 125.86 148.922 127.051 148.922H128.143C129.404 148.922 130.255 149.148 130.694 149.588C131.134 150.027 131.361 150.878 131.361 152.139V155.442C131.361 156.69 131.134 157.54 130.694 157.994C130.255 158.448 129.39 158.675 128.143 158.675H122.557L122.571 158.66Z" fill="#161616"/>
<path d="M140.532 154.762H150.541C151.349 154.762 151.746 154.365 151.746 153.557V152.125C151.746 150.197 151.292 148.78 150.37 147.858C149.449 146.937 148.031 146.483 146.118 146.483H143.765C141.851 146.469 140.433 146.909 139.512 147.83C138.59 148.751 138.123 150.183 138.123 152.125V155.457C138.123 157.356 138.59 158.76 139.512 159.681C140.433 160.602 141.851 161.056 143.765 161.056H146.118C147.748 161.056 149.024 160.758 149.945 160.177C150.867 159.596 151.434 158.703 151.646 157.512C151.717 157.115 151.646 156.803 151.448 156.591C151.235 156.378 150.923 156.279 150.526 156.279C150.129 156.279 149.86 156.378 149.676 156.562C149.492 156.761 149.35 157.03 149.236 157.399C149.08 157.852 148.769 158.178 148.301 158.363C147.833 158.547 147.11 158.632 146.132 158.632H143.779C142.531 158.632 141.681 158.405 141.227 157.966C140.773 157.526 140.547 156.676 140.547 155.442V154.748L140.532 154.762ZM143.75 148.893H146.104C147.365 148.893 148.216 149.12 148.655 149.559C149.095 149.999 149.321 150.849 149.321 152.111V152.338H140.518V152.111C140.518 150.849 140.745 149.985 141.199 149.531C141.652 149.077 142.503 148.865 143.75 148.879V148.893Z" fill="#161616"/>
<path d="M157.969 161.07C158.777 161.07 159.174 160.673 159.174 159.865V150.538C159.301 149.971 159.797 149.559 160.662 149.29C161.513 149.021 162.519 148.893 163.667 148.893H164.475C165.709 148.893 166.559 149.12 167.013 149.559C167.466 149.999 167.693 150.849 167.693 152.111V159.851C167.693 160.659 168.09 161.056 168.898 161.056C169.706 161.056 170.103 160.659 170.103 159.851V152.111C170.103 150.197 169.649 148.78 168.728 147.858C167.807 146.937 166.389 146.483 164.475 146.483H163.667C161.697 146.483 160.194 147.05 159.174 148.17V147.702C159.174 146.894 158.777 146.497 157.969 146.497C157.161 146.497 156.764 146.894 156.764 147.702V159.865C156.764 160.673 157.161 161.07 157.969 161.07Z" fill="#161616"/>
<path d="M176.723 161.07C177.149 161.07 177.446 160.971 177.645 160.773C177.843 160.574 177.928 160.276 177.928 159.865V142.812C177.928 142.386 177.829 142.089 177.645 141.89C177.446 141.692 177.149 141.607 176.723 141.607C176.298 141.607 176.001 141.706 175.816 141.89C175.618 142.089 175.519 142.386 175.519 142.812V159.865C175.519 160.276 175.618 160.588 175.816 160.773C176.015 160.957 176.312 161.07 176.723 161.07Z" fill="#161616"/>
<path d="M184.832 161.07C185.64 161.07 186.037 160.673 186.037 159.865V150.538C186.164 149.971 186.661 149.559 187.511 149.29C188.362 149.021 189.368 148.893 190.516 148.893H191.324C192.558 148.893 193.408 149.12 193.862 149.559C194.316 149.999 194.542 150.849 194.542 152.111V159.851C194.542 160.659 194.939 161.056 195.747 161.056C196.555 161.056 196.952 160.659 196.952 159.851V152.111C196.952 150.197 196.499 148.78 195.577 147.858C194.656 146.937 193.238 146.483 191.324 146.483H190.516C188.546 146.483 187.043 147.05 186.023 148.17V147.702C186.023 146.894 185.626 146.497 184.818 146.497C184.01 146.497 183.613 146.894 183.613 147.702V159.865C183.613 160.673 184.01 161.07 184.818 161.07H184.832Z" fill="#161616"/>
<path d="M204.14 161.07C204.948 161.07 205.345 160.673 205.345 159.865V148.907H208.307C209.115 148.907 209.512 148.51 209.512 147.702C209.512 146.894 209.115 146.497 208.307 146.497H205.345V146.384C205.345 145.151 205.571 144.329 206.011 143.889C206.45 143.464 207.272 143.237 208.492 143.237C209.186 143.237 209.526 142.84 209.526 142.032C209.526 141.224 209.186 140.827 208.492 140.827C206.606 140.827 205.217 141.281 204.31 142.188C203.402 143.095 202.949 144.499 202.949 146.384V146.497H201.886C201.078 146.497 200.681 146.894 200.681 147.702C200.681 148.51 201.078 148.907 201.886 148.907H202.949V159.865C202.949 160.673 203.346 161.07 204.154 161.07H204.14Z" fill="#161616"/>
<path d="M214.403 161.07C215.211 161.07 215.608 160.673 215.608 159.865V152.253C215.65 151.246 216.118 150.438 216.983 149.829C217.862 149.219 219.123 148.907 220.782 148.907C221.59 148.907 221.987 148.51 221.987 147.702C221.987 146.894 221.59 146.497 220.782 146.497C219.648 146.497 218.641 146.696 217.762 147.093C216.883 147.49 216.161 148.071 215.593 148.837V147.717C215.593 146.909 215.197 146.512 214.389 146.512C213.581 146.512 213.184 146.909 213.184 147.717V159.879C213.184 160.687 213.581 161.084 214.389 161.084L214.403 161.07Z" fill="#161616"/>
<path d="M228.82 161.07H230.436C232.406 161.07 233.895 160.447 234.929 159.213V159.865C234.929 160.673 235.326 161.07 236.134 161.07C236.942 161.07 237.339 160.673 237.339 159.865V152.125C237.339 150.212 236.886 148.794 235.964 147.873C235.043 146.951 233.625 146.497 231.712 146.497H230.039C228.394 146.497 227.119 146.753 226.211 147.249C225.29 147.745 224.695 148.539 224.411 149.63C224.312 149.999 224.383 150.311 224.609 150.523C224.836 150.736 225.162 150.864 225.559 150.864C225.928 150.864 226.197 150.793 226.381 150.637C226.566 150.481 226.736 150.212 226.92 149.8C227.119 149.46 227.445 149.233 227.912 149.106C228.38 148.978 229.103 148.907 230.053 148.907H231.726C232.86 148.907 233.668 149.092 234.136 149.46C234.603 149.829 234.873 150.523 234.929 151.53H228.848C227.232 151.53 226.027 151.927 225.247 152.707C224.468 153.5 224.071 154.691 224.071 156.307C224.071 157.923 224.468 159.114 225.247 159.908C226.027 160.702 227.232 161.084 228.848 161.084L228.82 161.07ZM228.82 158.66C227.87 158.66 227.246 158.504 226.934 158.193C226.622 157.881 226.467 157.257 226.467 156.307C226.467 155.357 226.622 154.734 226.934 154.422C227.246 154.11 227.87 153.954 228.82 153.954H234.915V156.279C234.774 156.917 234.476 157.413 234.036 157.767C233.597 158.122 233.058 158.348 232.435 158.476C231.811 158.604 231.145 158.675 230.436 158.675H228.82V158.66Z" fill="#161616"/>
<path d="M103.137 188.515H105.447C106.922 188.515 108.013 188.16 108.722 187.466C109.431 186.771 109.771 185.68 109.771 184.205V176.267C109.771 175.998 109.7 175.799 109.572 175.657C109.431 175.53 109.232 175.459 108.963 175.459C108.694 175.459 108.495 175.53 108.353 175.657C108.212 175.785 108.155 175.998 108.155 176.267V184.205C108.155 184.886 108.07 185.439 107.914 185.821C107.744 186.218 107.474 186.488 107.077 186.658C106.681 186.828 106.142 186.899 105.461 186.899H103.151C102.456 186.899 101.917 186.814 101.535 186.658C101.138 186.488 100.868 186.218 100.698 185.821C100.528 185.425 100.457 184.886 100.457 184.205V176.267C100.457 175.998 100.386 175.799 100.259 175.657C100.131 175.516 99.9187 175.459 99.6493 175.459C99.38 175.459 99.1815 175.53 99.0398 175.657C98.898 175.785 98.8413 175.998 98.8413 176.267V184.205C98.8413 185.68 99.1957 186.771 99.8903 187.466C100.585 188.16 101.676 188.515 103.151 188.515H103.137Z" fill="#161616"/>
<path d="M118.687 188.515H121.466C122.742 188.515 123.677 188.217 124.301 187.607C124.925 186.998 125.223 186.062 125.223 184.772C125.223 183.482 124.911 182.532 124.287 181.923C123.663 181.313 122.728 181.001 121.452 181.001H119.056C118.291 181.001 117.766 180.86 117.497 180.576C117.227 180.293 117.086 179.768 117.086 179.017C117.086 178.266 117.213 177.755 117.483 177.486C117.752 177.217 118.262 177.075 119.042 177.075H121.338C121.92 177.075 122.345 177.146 122.643 177.287C122.926 177.429 123.125 177.684 123.224 178.067C123.266 178.322 123.351 178.521 123.479 178.648C123.607 178.776 123.805 178.847 124.06 178.847C124.344 178.847 124.556 178.776 124.698 178.634C124.84 178.492 124.897 178.28 124.854 177.996C124.698 177.131 124.329 176.494 123.748 176.082C123.167 175.671 122.359 175.459 121.338 175.459H119.042C117.823 175.459 116.93 175.756 116.348 176.338C115.767 176.919 115.47 177.826 115.47 179.031C115.47 180.236 115.767 181.157 116.348 181.753C116.93 182.348 117.837 182.646 119.056 182.646H121.452C122.26 182.646 122.827 182.802 123.125 183.1C123.436 183.411 123.592 183.978 123.592 184.801C123.592 185.623 123.436 186.176 123.139 186.473C122.841 186.771 122.274 186.927 121.452 186.927H118.673C118.021 186.927 117.525 186.842 117.213 186.686C116.901 186.516 116.689 186.218 116.589 185.779C116.547 185.509 116.462 185.311 116.334 185.183C116.207 185.056 116.008 184.985 115.739 184.985C115.47 184.985 115.257 185.056 115.115 185.198C114.973 185.339 114.917 185.552 114.945 185.835C115.101 186.757 115.484 187.451 116.093 187.891C116.703 188.33 117.568 188.557 118.659 188.557L118.687 188.515Z" fill="#161616"/>
<path d="M131.616 188.515H138.533C139.072 188.515 139.341 188.245 139.341 187.707C139.341 187.168 139.072 186.899 138.533 186.899H132.424V182.731H136.265C136.804 182.731 137.073 182.462 137.073 181.923C137.073 181.384 136.804 181.115 136.265 181.115H132.424V177.061H138.533C139.072 177.061 139.341 176.791 139.341 176.253C139.341 175.714 139.072 175.445 138.533 175.445H131.616C131.077 175.445 130.808 175.714 130.808 176.253V187.707C130.808 188.245 131.077 188.515 131.616 188.515Z" fill="#161616"/>
<path d="M153.149 188.543C153.603 188.259 153.702 187.891 153.461 187.437L150.937 183.227C151.831 183.085 152.525 182.703 153.007 182.093C153.489 181.483 153.716 180.675 153.716 179.655V179.074C153.716 177.897 153.404 176.99 152.78 176.366C152.157 175.742 151.249 175.43 150.073 175.43H145.565C145.026 175.43 144.757 175.7 144.757 176.238V187.692C144.757 188.231 145.026 188.5 145.565 188.5C146.104 188.5 146.373 188.231 146.373 187.692V183.298H149.066L152.057 188.274C152.185 188.486 152.355 188.614 152.554 188.671C152.752 188.727 152.95 188.671 153.163 188.543H153.149ZM146.359 181.682V177.046H150.059C150.796 177.046 151.306 177.202 151.618 177.514C151.93 177.826 152.086 178.351 152.086 179.074V179.655C152.086 180.392 151.93 180.902 151.618 181.214C151.306 181.526 150.796 181.682 150.059 181.682H146.359Z" fill="#161616"/>
<path d="M170.571 188.515H172.882C174.229 188.515 175.221 188.203 175.859 187.579C176.497 186.955 176.809 185.949 176.809 184.588V182.873C176.809 182.334 176.539 182.065 176.001 182.065H173.69C173.151 182.05 172.882 182.32 172.882 182.858C172.882 183.397 173.151 183.666 173.69 183.666H175.192V184.588C175.192 185.197 175.122 185.665 174.994 186.006C174.866 186.346 174.625 186.573 174.285 186.7C173.945 186.828 173.477 186.899 172.882 186.899H170.571C169.891 186.899 169.338 186.814 168.955 186.658C168.558 186.487 168.289 186.218 168.119 185.821C167.949 185.424 167.878 184.886 167.878 184.205V179.768C167.878 179.074 167.963 178.535 168.119 178.138C168.289 177.741 168.558 177.457 168.941 177.302C169.324 177.146 169.862 177.061 170.543 177.075H172.882C173.633 177.075 174.186 177.174 174.526 177.387C174.866 177.599 175.079 177.996 175.136 178.577C175.207 179.116 175.49 179.385 175.986 179.385C176.256 179.385 176.468 179.315 176.61 179.173C176.752 179.031 176.809 178.833 176.766 178.549C176.667 177.472 176.298 176.692 175.66 176.196C175.022 175.7 174.101 175.445 172.896 175.445H170.557C169.097 175.445 168.005 175.771 167.311 176.479C166.616 177.188 166.262 178.28 166.262 179.768V184.205C166.262 185.679 166.616 186.771 167.311 187.466C168.005 188.16 169.097 188.515 170.571 188.515Z" fill="#161616"/>
<path d="M190.417 188.543C190.871 188.259 190.97 187.891 190.729 187.437L188.206 183.227C189.099 183.085 189.793 182.703 190.275 182.093C190.757 181.483 190.984 180.675 190.984 179.655V179.074C190.984 177.897 190.672 176.99 190.048 176.366C189.425 175.742 188.517 175.43 187.341 175.43H182.833C182.294 175.43 182.025 175.7 182.025 176.238V187.692C182.025 188.231 182.294 188.5 182.833 188.5C183.372 188.5 183.641 188.231 183.641 187.692V183.298H186.334L189.325 188.274C189.453 188.486 189.623 188.614 189.822 188.671C190.02 188.727 190.219 188.671 190.431 188.543H190.417ZM183.627 181.682V177.046H187.327C188.064 177.046 188.574 177.202 188.886 177.514C189.198 177.826 189.354 178.351 189.354 179.074V179.655C189.354 180.392 189.198 180.902 188.886 181.214C188.574 181.526 188.064 181.682 187.327 181.682H183.627Z" fill="#161616"/>
<path d="M199.943 188.515H202.254C203.728 188.515 204.82 188.16 205.529 187.466C206.223 186.757 206.578 185.679 206.578 184.205V179.768C206.578 178.294 206.223 177.202 205.529 176.494C204.834 175.799 203.742 175.445 202.254 175.445H199.943C198.483 175.445 197.392 175.771 196.683 176.465C195.974 177.16 195.62 178.251 195.62 179.74V184.191C195.62 185.665 195.974 186.757 196.669 187.451C197.363 188.146 198.455 188.5 199.929 188.5L199.943 188.515ZM199.943 186.899C199.263 186.899 198.71 186.814 198.327 186.658C197.93 186.487 197.661 186.218 197.491 185.821C197.321 185.424 197.25 184.886 197.25 184.205V179.754C197.25 179.059 197.335 178.521 197.505 178.138C197.675 177.741 197.959 177.472 198.341 177.316C198.738 177.16 199.277 177.075 199.957 177.089H202.268C202.949 177.089 203.501 177.174 203.884 177.344C204.281 177.514 204.55 177.798 204.721 178.18C204.891 178.577 204.961 179.116 204.961 179.796V184.234C204.961 184.914 204.876 185.467 204.721 185.85C204.55 186.246 204.281 186.516 203.884 186.686C203.487 186.856 202.949 186.927 202.268 186.927H199.957L199.943 186.899Z" fill="#161616"/>
<path d="M216.373 188.515H218.684C220.158 188.515 221.249 188.16 221.958 187.466C222.667 186.771 223.007 185.68 223.007 184.205V176.267C223.007 175.997 222.936 175.799 222.809 175.657C222.667 175.53 222.469 175.459 222.199 175.459C221.93 175.459 221.731 175.53 221.59 175.657C221.448 175.785 221.391 175.997 221.391 176.267V184.205C221.391 184.886 221.306 185.439 221.15 185.821C220.98 186.218 220.711 186.488 220.314 186.658C219.917 186.828 219.378 186.899 218.698 186.899H216.387C215.692 186.899 215.154 186.814 214.771 186.658C214.374 186.488 214.105 186.218 213.935 185.821C213.765 185.424 213.694 184.886 213.694 184.205V176.267C213.694 175.997 213.623 175.799 213.495 175.657C213.368 175.515 213.155 175.459 212.886 175.459C212.616 175.459 212.418 175.53 212.276 175.657C212.134 175.785 212.078 175.997 212.078 176.267V184.205C212.078 185.68 212.432 186.771 213.127 187.466C213.821 188.16 214.913 188.515 216.387 188.515H216.373Z" fill="#161616"/>
<path d="M229.174 188.515C229.712 188.515 229.982 188.245 229.982 187.707V183.312H233.682C234.858 183.312 235.765 183 236.389 182.376C237.013 181.753 237.325 180.846 237.325 179.669V179.088C237.325 177.911 237.013 177.004 236.389 176.38C235.765 175.756 234.858 175.445 233.682 175.445H229.174C228.635 175.445 228.366 175.714 228.366 176.253V187.707C228.366 188.245 228.635 188.515 229.174 188.515ZM229.982 181.682V177.046H233.682C234.419 177.046 234.929 177.202 235.241 177.514C235.553 177.826 235.709 178.351 235.709 179.074V179.655C235.709 180.392 235.553 180.902 235.241 181.214C234.929 181.526 234.419 181.682 233.682 181.682H229.982Z" fill="#161616"/>
<path d="M164.305 250.208H157.77L156.523 253.936H152.554L159.287 235.833H162.746L169.522 253.936H165.553L164.291 250.208H164.305ZM158.777 247.188H163.299L161.017 240.412L158.763 247.188H158.777Z" fill="#161616"/>
<path d="M178.652 252.561C177.773 253.638 176.539 254.177 174.966 254.177C173.52 254.177 172.428 253.766 171.663 252.93C170.897 252.107 170.515 250.888 170.5 249.286V240.469H174.087V249.173C174.087 250.576 174.725 251.271 176.001 251.271C177.277 251.271 178.056 250.846 178.51 249.995V240.455H182.11V253.908H178.722L178.623 252.547L178.652 252.561Z" fill="#161616"/>
<path d="M184.066 247.103C184.066 245.034 184.563 243.375 185.541 242.113C186.519 240.852 187.851 240.228 189.51 240.228C190.984 240.228 192.132 240.738 192.955 241.745L193.111 240.483H196.371V253.482C196.371 254.659 196.102 255.68 195.563 256.559C195.024 257.423 194.273 258.09 193.309 258.543C192.345 258.997 191.197 259.224 189.907 259.224C188.915 259.224 187.965 259.025 187.029 258.628C186.094 258.231 185.385 257.721 184.903 257.111L186.49 254.928C187.384 255.935 188.475 256.431 189.751 256.431C190.701 256.431 191.452 256.176 191.977 255.665C192.501 255.155 192.77 254.432 192.77 253.497V252.774C191.948 253.709 190.857 254.177 189.496 254.177C187.88 254.177 186.576 253.539 185.569 252.277C184.563 251.016 184.066 249.343 184.066 247.245V247.089V247.103ZM187.653 247.358C187.653 248.578 187.894 249.542 188.39 250.236C188.872 250.931 189.552 251.285 190.403 251.285C191.495 251.285 192.274 250.874 192.756 250.052V244.367C192.274 243.545 191.495 243.134 190.431 243.134C189.567 243.134 188.886 243.488 188.404 244.197C187.922 244.906 187.667 245.969 187.667 247.373L187.653 247.358Z" fill="#161616"/>
<path d="M206.918 252.561C206.039 253.638 204.806 254.177 203.232 254.177C201.787 254.177 200.695 253.766 199.93 252.93C199.164 252.107 198.781 250.888 198.767 249.286V240.469H202.368V249.173C202.368 250.576 203.006 251.271 204.281 251.271C205.557 251.271 206.337 250.846 206.791 249.995V240.455H210.391V253.908H207.003L206.904 252.547L206.918 252.561Z" fill="#161616"/>
<path d="M220.144 250.208C220.144 249.768 219.931 249.428 219.492 249.173C219.053 248.918 218.358 248.691 217.394 248.492C214.19 247.826 212.588 246.465 212.588 244.41C212.588 243.219 213.085 242.227 214.077 241.419C215.069 240.625 216.359 240.214 217.961 240.214C219.662 240.214 221.037 240.611 222.058 241.419C223.078 242.227 223.589 243.262 223.589 244.552H220.002C220.002 244.041 219.832 243.616 219.506 243.276C219.18 242.936 218.656 242.78 217.947 242.78C217.337 242.78 216.869 242.921 216.543 243.191C216.217 243.46 216.047 243.814 216.047 244.24C216.047 244.637 216.232 244.963 216.614 245.204C216.997 245.445 217.621 245.657 218.528 245.842C219.435 246.026 220.172 246.224 220.796 246.451C222.696 247.146 223.645 248.351 223.645 250.066C223.645 251.299 223.121 252.292 222.072 253.043C221.023 253.808 219.662 254.177 217.989 254.177C216.855 254.177 215.863 253.979 214.984 253.567C214.105 253.171 213.425 252.618 212.929 251.909C212.432 251.214 212.177 250.449 212.177 249.641H215.579C215.608 250.279 215.849 250.761 216.288 251.115C216.728 251.455 217.309 251.625 218.06 251.625C218.755 251.625 219.265 251.498 219.62 251.228C219.974 250.973 220.144 250.619 220.144 250.208Z" fill="#161616"/>
<path d="M229.996 237.18V240.483H232.293V243.12H229.996V249.839C229.996 250.335 230.096 250.69 230.28 250.902C230.464 251.115 230.833 251.228 231.371 251.228C231.768 251.228 232.123 251.2 232.435 251.143V253.865C231.726 254.078 231.003 254.191 230.252 254.191C227.728 254.191 226.452 252.915 226.396 250.378V243.134H224.425V240.497H226.396V237.194H229.982L229.996 237.18Z" fill="#161616"/>
<path d="M241.833 253.936C241.663 253.61 241.549 253.213 241.479 252.731C240.614 253.695 239.48 254.191 238.091 254.191C236.772 254.191 235.681 253.808 234.816 253.043C233.951 252.277 233.512 251.313 233.512 250.151C233.512 248.719 234.036 247.628 235.099 246.862C236.163 246.097 237.679 245.714 239.678 245.7H241.337V244.934C241.337 244.311 241.181 243.814 240.855 243.446C240.529 243.077 240.033 242.879 239.338 242.879C238.728 242.879 238.261 243.021 237.92 243.318C237.58 243.602 237.41 244.013 237.41 244.509H233.824C233.824 243.729 234.065 243.006 234.547 242.34C235.029 241.674 235.709 241.164 236.588 240.781C237.467 240.398 238.459 240.214 239.551 240.214C241.209 240.214 242.528 240.625 243.506 241.461C244.484 242.298 244.966 243.46 244.966 244.977V250.803C244.966 252.079 245.15 253.043 245.504 253.695V253.908H241.875L241.833 253.936ZM238.856 251.441C239.395 251.441 239.877 251.328 240.33 251.087C240.784 250.846 241.11 250.534 241.323 250.137V247.826H239.976C238.176 247.826 237.226 248.45 237.098 249.697V249.91C237.098 250.364 237.24 250.732 237.552 251.016C237.864 251.299 238.303 251.455 238.842 251.455L238.856 251.441Z" fill="#161616"/>
</g>
<path d="M327.912 117.762H93.0528C83.0609 117.762 74.9229 125.848 74.9229 135.776V258.91C74.9229 268.844 83.0538 276.923 93.0528 276.923H309.782C319.781 276.923 327.912 268.844 327.912 258.91V117.762Z" fill="white"/>
<path d="M93.0528 121.645C85.2082 121.645 78.8237 127.989 78.8237 135.783V214.691H324.011V121.645H93.0528Z" fill="black"/>
<path d="M78.8452 258.59C78.8452 266.384 85.2297 272.727 93.0743 272.727H309.803C317.648 272.727 324.032 266.384 324.032 258.59V218.239H78.8452V258.59Z" fill="black"/>
<path d="M253.774 152.658V156.534H280.615L253.774 183.201L256.537 185.939L290.034 152.658H253.774Z" fill="#F7B749"/>
<path d="M293.942 148.782L297.843 144.899H253.774V148.782H293.942Z" fill="#ED362F"/>
<path d="M296.698 151.52V191.422H300.599V147.644L296.698 151.52Z" fill="#43B85C"/>
<path d="M292.797 191.422V155.396L259.293 188.684L262.056 191.422L288.896 164.754V191.422H292.797Z" fill="#2CB4E2"/>
<path d="M108.563 164.655C106.409 164.655 104.813 164.143 103.782 163.119C102.751 162.095 102.236 160.509 102.236 158.368V151.883C102.236 149.721 102.751 148.135 103.789 147.118C104.827 146.101 106.416 145.603 108.563 145.625H111.949C114.117 145.625 115.713 146.137 116.737 147.154C117.76 148.171 118.276 149.757 118.276 151.911V158.368C118.276 160.509 117.76 162.095 116.737 163.119C115.713 164.143 114.117 164.655 111.949 164.655H108.563ZM108.563 162.294H111.949C112.958 162.294 113.745 162.173 114.325 161.938C114.897 161.697 115.305 161.298 115.549 160.722C115.792 160.153 115.907 159.364 115.907 158.361V151.904C115.907 150.916 115.785 150.133 115.549 149.565C115.305 148.996 114.897 148.59 114.325 148.341C113.752 148.1 112.958 147.979 111.949 147.979H108.563C107.568 147.972 106.781 148.085 106.201 148.313C105.621 148.54 105.221 148.946 104.97 149.522C104.727 150.091 104.605 150.88 104.605 151.883V158.368C104.605 159.371 104.727 160.153 104.963 160.729C105.206 161.298 105.614 161.704 106.187 161.945C106.759 162.187 107.554 162.301 108.563 162.301V162.294Z" fill="white"/>
<path d="M124.381 170.266C123.587 170.266 123.193 169.875 123.193 169.085V151.605C123.193 150.816 123.587 150.425 124.381 150.425C125.176 150.425 125.569 150.816 125.569 151.605V151.954C126.077 151.449 126.707 151.065 127.452 150.809C128.203 150.553 129.041 150.425 129.971 150.425H131.045C132.927 150.425 134.323 150.873 135.225 151.769C136.126 152.665 136.577 154.052 136.577 155.922V159.151C136.577 161.014 136.126 162.393 135.225 163.297C134.323 164.2 132.927 164.648 131.045 164.648H125.562V169.085C125.562 169.875 125.168 170.266 124.374 170.266H124.381ZM125.569 162.294H131.052C132.283 162.294 133.12 162.073 133.557 161.633C133.994 161.192 134.215 160.367 134.215 159.151V155.922C134.215 154.699 134.001 153.867 133.557 153.433C133.12 152.999 132.283 152.779 131.052 152.779H129.978C128.797 152.779 127.781 152.921 126.929 153.198C126.07 153.476 125.619 153.924 125.576 154.528V162.287L125.569 162.294Z" fill="white"/>
<path d="M143.191 158.511V159.186C143.191 160.395 143.413 161.213 143.857 161.647C144.3 162.081 145.131 162.301 146.355 162.301H148.674C149.633 162.301 150.341 162.216 150.807 162.038C151.265 161.86 151.572 161.547 151.723 161.099C151.823 160.744 151.973 160.473 152.152 160.289C152.338 160.104 152.617 160.004 152.99 160.004C153.362 160.004 153.684 160.111 153.892 160.31C154.099 160.516 154.164 160.815 154.085 161.206C153.877 162.365 153.326 163.233 152.417 163.802C151.515 164.37 150.263 164.655 148.659 164.655H146.34C144.465 164.655 143.077 164.207 142.168 163.311C141.259 162.415 140.808 161.035 140.808 159.186V155.929C140.808 154.031 141.259 152.637 142.168 151.741C143.077 150.845 144.465 150.411 146.34 150.425H148.659C150.542 150.425 151.938 150.873 152.839 151.762C153.741 152.658 154.192 154.045 154.192 155.922V157.323C154.192 158.112 153.798 158.504 153.004 158.504H143.177L143.191 158.511ZM146.355 152.786C145.131 152.765 144.3 152.978 143.857 153.419C143.413 153.86 143.191 154.699 143.191 155.929V156.157H151.837V155.929C151.837 154.706 151.615 153.874 151.179 153.44C150.742 153.006 149.905 152.786 148.674 152.786H146.355Z" fill="white"/>
<path d="M160.305 164.655C159.518 164.655 159.117 164.264 159.117 163.474V151.605C159.117 150.816 159.51 150.425 160.305 150.425C161.099 150.425 161.493 150.816 161.493 151.605V152.068C162.488 150.973 163.962 150.425 165.902 150.425H166.689C168.572 150.425 169.967 150.873 170.869 151.769C171.771 152.665 172.222 154.052 172.222 155.922V163.474C172.222 164.264 171.828 164.655 171.034 164.655C170.239 164.655 169.846 164.264 169.846 163.474V155.922C169.846 154.699 169.624 153.867 169.173 153.433C168.722 152.999 167.892 152.779 166.682 152.779H165.895C164.764 152.779 163.783 152.907 162.946 153.163C162.109 153.419 161.622 153.824 161.493 154.379V163.474C161.493 164.264 161.099 164.655 160.305 164.655Z" fill="white"/>
<path d="M178.721 164.655C178.32 164.655 178.02 164.562 177.826 164.37C177.633 164.178 177.54 163.88 177.54 163.482V146.841C177.54 146.428 177.64 146.13 177.826 145.945C178.02 145.76 178.32 145.667 178.721 145.667C179.122 145.667 179.437 145.76 179.623 145.945C179.809 146.13 179.902 146.428 179.902 146.841V163.482C179.902 163.887 179.809 164.178 179.623 164.37C179.437 164.562 179.136 164.655 178.721 164.655Z" fill="white"/>
<path d="M186.687 164.655C185.893 164.655 185.499 164.264 185.499 163.474V151.605C185.499 150.816 185.893 150.425 186.687 150.425C187.482 150.425 187.875 150.816 187.875 151.605V152.068C188.87 150.973 190.345 150.425 192.284 150.425H193.072C194.954 150.425 196.35 150.873 197.252 151.769C198.153 152.665 198.604 154.052 198.604 155.922V163.474C198.604 164.264 198.211 164.655 197.416 164.655C196.622 164.655 196.228 164.264 196.228 163.474V155.922C196.228 154.699 196.006 153.867 195.555 153.433C195.112 152.999 194.281 152.779 193.065 152.779H192.277C191.146 152.779 190.166 152.907 189.328 153.163C188.491 153.419 188.004 153.824 187.875 154.379V163.474C187.875 164.264 187.482 164.655 186.687 164.655Z" fill="white"/>
<path d="M205.64 164.655C204.853 164.655 204.452 164.264 204.452 163.474V152.779H203.407C202.62 152.779 202.219 152.388 202.219 151.598C202.219 150.809 202.612 150.418 203.407 150.418H204.452V150.304C204.452 148.462 204.896 147.097 205.79 146.215C206.685 145.333 208.052 144.892 209.899 144.892C210.579 144.892 210.915 145.283 210.915 146.073C210.915 146.862 210.579 147.253 209.899 147.253C208.711 147.253 207.902 147.467 207.472 147.886C207.036 148.306 206.821 149.117 206.821 150.311V150.425H209.734C210.521 150.425 210.922 150.816 210.922 151.606C210.922 152.395 210.529 152.786 209.734 152.786H206.821V163.482C206.821 164.271 206.427 164.662 205.633 164.662L205.64 164.655Z" fill="white"/>
<path d="M215.725 164.655C214.931 164.655 214.537 164.264 214.537 163.474V151.605C214.537 150.816 214.931 150.425 215.725 150.425C216.52 150.425 216.913 150.816 216.913 151.605V152.701C217.472 151.954 218.173 151.385 219.039 151.001C219.898 150.617 220.886 150.425 221.995 150.425C222.783 150.425 223.183 150.816 223.183 151.605C223.183 152.395 222.79 152.786 221.995 152.786C220.363 152.786 219.125 153.085 218.266 153.682C217.407 154.279 216.956 155.069 216.913 156.05V163.474C216.913 164.264 216.52 164.655 215.725 164.655Z" fill="white"/>
<path d="M229.876 164.655C228.294 164.655 227.113 164.271 226.347 163.503C225.581 162.735 225.188 161.569 225.188 159.997C225.188 158.425 225.574 157.259 226.34 156.491C227.106 155.723 228.287 155.339 229.876 155.339H235.852C235.795 154.358 235.537 153.689 235.072 153.326C234.614 152.964 233.819 152.786 232.703 152.786H231.064C230.119 152.786 229.418 152.85 228.959 152.978C228.494 153.106 228.172 153.334 227.986 153.661C227.814 154.052 227.643 154.322 227.464 154.471C227.285 154.621 227.02 154.699 226.662 154.699C226.268 154.699 225.953 154.592 225.731 154.372C225.51 154.151 225.438 153.86 225.531 153.497C225.81 152.438 226.404 151.67 227.299 151.172C228.201 150.681 229.453 150.432 231.064 150.432H232.703C234.585 150.432 235.981 150.88 236.883 151.776C237.785 152.672 238.236 154.059 238.236 155.929V163.482C238.236 164.271 237.842 164.662 237.047 164.662C236.253 164.662 235.859 164.271 235.859 163.482V162.849C234.85 164.058 233.383 164.662 231.45 164.662H229.868L229.876 164.655ZM229.876 162.294H231.457C232.152 162.294 232.81 162.23 233.419 162.102C234.027 161.974 234.557 161.746 234.993 161.405C235.43 161.071 235.723 160.587 235.859 159.961V157.686H229.868C228.938 157.686 228.315 157.842 228.015 158.148C227.714 158.454 227.557 159.072 227.557 159.983C227.557 160.893 227.707 161.526 228.015 161.825C228.322 162.13 228.938 162.28 229.868 162.28L229.876 162.294Z" fill="white"/>
<path d="M106.48 191.422C105.034 191.422 103.968 191.081 103.274 190.391C102.579 189.701 102.236 188.642 102.236 187.205V179.454C102.236 179.191 102.3 178.991 102.436 178.863C102.572 178.735 102.765 178.664 103.03 178.664C103.295 178.664 103.496 178.728 103.624 178.863C103.753 178.999 103.825 179.191 103.825 179.454V187.205C103.825 187.874 103.904 188.4 104.068 188.784C104.233 189.168 104.505 189.438 104.884 189.595C105.271 189.758 105.8 189.836 106.473 189.836H108.742C109.415 189.836 109.944 189.758 110.331 189.595C110.717 189.438 110.989 189.161 111.147 188.784C111.312 188.4 111.39 187.874 111.39 187.205V179.454C111.39 179.191 111.455 178.991 111.591 178.863C111.727 178.735 111.92 178.664 112.185 178.664C112.45 178.664 112.65 178.728 112.779 178.863C112.908 178.999 112.979 179.191 112.979 179.454V187.205C112.979 188.642 112.636 189.701 111.949 190.391C111.261 191.081 110.188 191.422 108.742 191.422H106.473H106.48Z" fill="white"/>
<path d="M121.747 191.422C120.667 191.422 119.829 191.209 119.228 190.775C118.627 190.341 118.247 189.673 118.097 188.77C118.068 188.492 118.126 188.286 118.269 188.151C118.405 188.016 118.612 187.945 118.877 187.945C119.142 187.945 119.335 188.009 119.457 188.13C119.579 188.258 119.664 188.45 119.707 188.713C119.8 189.147 120.008 189.445 120.316 189.602C120.631 189.765 121.103 189.844 121.747 189.844H124.474C125.29 189.844 125.841 189.701 126.135 189.41C126.428 189.118 126.571 188.578 126.571 187.781C126.571 186.985 126.421 186.416 126.121 186.124C125.82 185.826 125.269 185.676 124.474 185.676H122.127C120.931 185.676 120.051 185.385 119.471 184.809C118.891 184.233 118.605 183.344 118.605 182.163C118.605 180.983 118.891 180.108 119.464 179.539C120.037 178.97 120.917 178.686 122.112 178.686H124.367C125.369 178.686 126.156 178.892 126.729 179.297C127.302 179.703 127.659 180.329 127.81 181.168C127.846 181.438 127.795 181.644 127.659 181.786C127.523 181.929 127.309 182 127.037 182C126.786 182 126.593 181.936 126.471 181.801C126.342 181.665 126.264 181.481 126.228 181.225C126.128 180.855 125.934 180.599 125.648 180.471C125.362 180.336 124.94 180.265 124.367 180.265H122.112C121.354 180.265 120.845 180.4 120.588 180.663C120.33 180.926 120.201 181.431 120.201 182.163C120.201 182.896 120.33 183.415 120.595 183.685C120.86 183.962 121.375 184.098 122.127 184.098H124.474C125.72 184.098 126.643 184.396 127.251 185.001C127.86 185.605 128.168 186.53 128.168 187.788C128.168 189.047 127.867 189.957 127.259 190.548C126.65 191.138 125.727 191.437 124.474 191.437H121.747V191.422Z" fill="white"/>
<path d="M134.43 191.422C133.901 191.422 133.636 191.159 133.636 190.633V179.461C133.636 178.935 133.901 178.672 134.43 178.672H141.23C141.76 178.672 142.024 178.935 142.024 179.461C142.024 179.987 141.76 180.25 141.23 180.25H135.225V184.197H138.99C139.519 184.197 139.784 184.46 139.784 184.986C139.784 185.513 139.519 185.776 138.99 185.776H135.225V189.836H141.23C141.76 189.836 142.024 190.1 142.024 190.626C142.024 191.152 141.76 191.415 141.23 191.415H134.43V191.422Z" fill="white"/>
<path d="M155.581 191.458C155.373 191.586 155.173 191.629 154.987 191.579C154.801 191.529 154.636 191.401 154.507 191.195L151.573 186.345H148.924V190.633C148.924 191.159 148.66 191.422 148.13 191.422C147.6 191.422 147.335 191.159 147.335 190.633V179.461C147.335 178.935 147.6 178.672 148.13 178.672H152.56C153.713 178.672 154.6 178.977 155.216 179.589C155.831 180.201 156.139 181.082 156.139 182.227V182.789C156.139 183.785 155.903 184.581 155.438 185.171C154.973 185.762 154.293 186.131 153.412 186.274L155.889 190.384C156.132 190.825 156.025 191.181 155.588 191.458H155.581ZM148.917 184.759H152.553C153.269 184.759 153.784 184.61 154.085 184.311C154.386 184.012 154.543 183.5 154.543 182.789V182.227C154.543 181.516 154.393 181.011 154.085 180.705C153.784 180.4 153.269 180.25 152.553 180.25H148.917V184.766V184.759Z" fill="white"/>
<path d="M172.68 191.422C171.234 191.422 170.168 191.081 169.473 190.391C168.779 189.701 168.436 188.642 168.436 187.205V182.882C168.436 181.431 168.779 180.364 169.466 179.681C170.153 178.992 171.22 178.657 172.658 178.672H174.949C176.137 178.672 177.039 178.913 177.669 179.404C178.299 179.895 178.656 180.656 178.757 181.701C178.792 181.964 178.742 182.163 178.606 182.306C178.47 182.441 178.263 182.512 177.998 182.512C177.518 182.512 177.239 182.249 177.168 181.722C177.103 181.146 176.903 180.755 176.566 180.556C176.23 180.357 175.693 180.257 174.956 180.257H172.666C172 180.257 171.47 180.329 171.091 180.485C170.712 180.641 170.44 180.912 170.275 181.296C170.11 181.68 170.032 182.213 170.032 182.889V187.212C170.032 187.881 170.11 188.407 170.275 188.791C170.432 189.175 170.712 189.445 171.091 189.602C171.477 189.765 172.007 189.844 172.68 189.844H174.956C175.543 189.844 176.001 189.78 176.33 189.652C176.66 189.524 176.896 189.296 177.025 188.969C177.161 188.642 177.225 188.18 177.225 187.589V186.707L175.751 186.686C175.221 186.686 174.956 186.423 174.956 185.897C174.956 185.371 175.221 185.107 175.751 185.107L178.027 185.129C178.556 185.129 178.821 185.392 178.821 185.918V187.589C178.821 188.926 178.506 189.9 177.883 190.512C177.261 191.124 176.287 191.429 174.956 191.429H172.68V191.422Z" fill="white"/>
<path d="M192.17 191.458C191.962 191.586 191.762 191.629 191.576 191.579C191.39 191.529 191.225 191.401 191.096 191.195L188.162 186.345H185.513V190.633C185.513 191.159 185.248 191.422 184.719 191.422C184.189 191.422 183.924 191.159 183.924 190.633V179.461C183.924 178.935 184.189 178.672 184.719 178.672H189.149C190.302 178.672 191.189 178.977 191.805 179.589C192.42 180.201 192.728 181.082 192.728 182.227V182.789C192.728 183.785 192.492 184.581 192.027 185.171C191.561 185.762 190.881 186.131 190.001 186.274L192.478 190.384C192.721 190.825 192.614 191.181 192.177 191.458H192.17ZM185.506 184.759H189.142C189.858 184.759 190.373 184.61 190.674 184.311C190.974 184.012 191.132 183.5 191.132 182.789V182.227C191.132 181.516 190.982 181.011 190.674 180.705C190.373 180.4 189.858 180.25 189.142 180.25H185.506V184.766V184.759Z" fill="white"/>
<path d="M201.525 191.422C200.079 191.422 199.012 191.081 198.318 190.391C197.624 189.701 197.28 188.642 197.28 187.205V182.86C197.28 181.409 197.631 180.35 198.325 179.667C199.02 178.984 200.086 178.65 201.525 178.664H203.801C205.254 178.664 206.32 179.006 207.007 179.688C207.694 180.371 208.038 181.438 208.038 182.874V187.198C208.038 188.635 207.694 189.694 207.007 190.384C206.32 191.074 205.247 191.415 203.801 191.415H201.525V191.422ZM201.525 189.844H203.801C204.474 189.844 205.003 189.765 205.39 189.602C205.776 189.445 206.048 189.168 206.206 188.791C206.37 188.407 206.449 187.881 206.449 187.212V182.889C206.449 182.227 206.37 181.701 206.206 181.317C206.041 180.933 205.769 180.663 205.39 180.499C205.003 180.336 204.474 180.257 203.801 180.257H201.525C200.859 180.257 200.329 180.329 199.943 180.485C199.556 180.641 199.284 180.912 199.12 181.296C198.955 181.68 198.876 182.206 198.876 182.874V187.219C198.876 187.888 198.955 188.414 199.12 188.798C199.277 189.182 199.556 189.452 199.936 189.609C200.322 189.772 200.852 189.851 201.525 189.851V189.844Z" fill="white"/>
<path d="M217.651 191.422C216.205 191.422 215.138 191.081 214.444 190.391C213.75 189.701 213.406 188.642 213.406 187.205V179.454C213.406 179.191 213.471 178.992 213.607 178.864C213.743 178.736 213.936 178.664 214.201 178.664C214.466 178.664 214.666 178.728 214.795 178.864C214.924 178.999 214.995 179.191 214.995 179.454V187.205C214.995 187.874 215.074 188.4 215.239 188.784C215.403 189.168 215.675 189.438 216.055 189.595C216.441 189.758 216.971 189.836 217.643 189.836H219.912C220.585 189.836 221.115 189.758 221.501 189.595C221.888 189.438 222.16 189.161 222.317 188.784C222.482 188.4 222.561 187.874 222.561 187.205V179.454C222.561 179.191 222.625 178.992 222.761 178.864C222.897 178.736 223.09 178.664 223.355 178.664C223.62 178.664 223.82 178.728 223.949 178.864C224.078 178.999 224.15 179.191 224.15 179.454V187.205C224.15 188.642 223.806 189.701 223.119 190.391C222.432 191.081 221.358 191.422 219.912 191.422H217.643H217.651Z" fill="white"/>
<path d="M230.226 191.422C229.696 191.422 229.432 191.159 229.432 190.633V179.461C229.432 178.935 229.696 178.672 230.226 178.672H234.657C235.809 178.672 236.696 178.977 237.312 179.589C237.928 180.201 238.235 181.082 238.235 182.227V182.789C238.235 183.934 237.928 184.816 237.312 185.427C236.696 186.039 235.809 186.345 234.657 186.345H231.021V190.633C231.021 191.159 230.756 191.422 230.226 191.422ZM231.021 184.766H234.657C235.372 184.766 235.888 184.617 236.188 184.318C236.489 184.019 236.646 183.507 236.646 182.796V182.234C236.646 181.523 236.496 181.018 236.188 180.713C235.888 180.407 235.372 180.257 234.657 180.257H231.021V184.773V184.766Z" fill="white"/>
<path d="M162.765 252.004C161.625 252.004 160.735 251.774 160.095 251.314C159.462 250.854 159.065 250.144 158.905 249.184C158.878 248.89 158.938 248.67 159.085 248.524C159.232 248.377 159.445 248.304 159.725 248.304C160.005 248.304 160.208 248.37 160.335 248.504C160.468 248.637 160.558 248.844 160.605 249.124C160.705 249.584 160.918 249.9 161.245 250.074C161.578 250.24 162.085 250.324 162.765 250.324H165.645C166.505 250.324 167.088 250.17 167.395 249.864C167.708 249.55 167.865 248.97 167.865 248.124C167.865 247.264 167.705 246.677 167.385 246.364C167.065 246.044 166.485 245.884 165.645 245.884H163.165C161.905 245.884 160.968 245.577 160.355 244.964C159.748 244.344 159.445 243.404 159.445 242.144C159.445 240.89 159.745 239.96 160.345 239.354C160.952 238.747 161.885 238.444 163.145 238.444H165.525C166.585 238.444 167.415 238.66 168.015 239.094C168.622 239.527 169.005 240.19 169.165 241.084C169.205 241.37 169.152 241.59 169.005 241.744C168.858 241.89 168.638 241.964 168.345 241.964C168.078 241.964 167.878 241.894 167.745 241.754C167.612 241.614 167.525 241.41 167.485 241.144C167.378 240.75 167.175 240.484 166.875 240.344C166.575 240.197 166.125 240.124 165.525 240.124H163.145C162.345 240.124 161.808 240.267 161.535 240.554C161.262 240.834 161.125 241.364 161.125 242.144C161.125 242.93 161.265 243.47 161.545 243.764C161.825 244.057 162.365 244.204 163.165 244.204H165.645C166.958 244.204 167.935 244.524 168.575 245.164C169.222 245.804 169.545 246.79 169.545 248.124C169.545 249.45 169.225 250.43 168.585 251.064C167.945 251.69 166.965 252.004 165.645 252.004H162.765ZM176.733 252.004C176.366 252.004 176.106 251.764 175.953 251.284L172.253 239.564C172.173 239.31 172.209 239.057 172.363 238.804C172.523 238.55 172.753 238.424 173.053 238.424C173.213 238.424 173.366 238.477 173.513 238.584C173.659 238.684 173.766 238.844 173.833 239.064L177.093 249.444H176.653L179.753 239.164C179.826 238.924 179.949 238.744 180.123 238.624C180.303 238.504 180.486 238.444 180.673 238.444C180.873 238.444 181.066 238.504 181.253 238.624C181.439 238.744 181.566 238.924 181.633 239.164L184.733 249.444H184.293L187.553 239.064C187.626 238.844 187.729 238.687 187.863 238.594C188.003 238.494 188.153 238.444 188.313 238.444C188.606 238.444 188.839 238.557 189.013 238.784C189.186 239.01 189.226 239.27 189.133 239.564L185.433 251.284C185.273 251.764 184.979 252.004 184.553 252.004H184.513C184.066 252.004 183.773 251.764 183.633 251.284L180.413 240.864H180.853L177.613 251.284C177.546 251.524 177.446 251.704 177.313 251.824C177.186 251.944 176.993 252.004 176.733 252.004ZM193.173 252.004C192.613 252.004 192.333 251.724 192.333 251.164V239.284C192.333 238.724 192.613 238.444 193.173 238.444H200.353C200.913 238.444 201.193 238.724 201.193 239.284C201.193 239.844 200.913 240.124 200.353 240.124H194.013V244.324H197.993C198.553 244.324 198.833 244.604 198.833 245.164C198.833 245.724 198.553 246.004 197.993 246.004H194.013V250.324H200.353C200.913 250.324 201.193 250.604 201.193 251.164C201.193 251.724 200.913 252.004 200.353 252.004H193.173ZM205.824 252.004C205.264 252.004 204.984 251.724 204.984 251.164V239.284C204.984 238.724 205.264 238.444 205.824 238.444H210.644C212.384 238.444 213.664 238.857 214.484 239.684C215.31 240.504 215.724 241.784 215.724 243.524V246.924C215.724 248.664 215.314 249.947 214.494 250.774C213.68 251.594 212.397 252.004 210.644 252.004H205.824ZM206.664 250.324H210.644C211.497 250.324 212.17 250.22 212.664 250.014C213.164 249.8 213.517 249.447 213.724 248.954C213.937 248.454 214.044 247.777 214.044 246.924V243.524C214.044 242.677 213.937 242.007 213.724 241.514C213.517 241.014 213.164 240.657 212.664 240.444C212.17 240.23 211.497 240.124 210.644 240.124H206.664V250.324ZM220.838 252.004C220.278 252.004 219.998 251.724 219.998 251.164V239.284C219.998 238.724 220.278 238.444 220.838 238.444H228.018C228.578 238.444 228.858 238.724 228.858 239.284C228.858 239.844 228.578 240.124 228.018 240.124H221.678V244.324H225.658C226.218 244.324 226.498 244.604 226.498 245.164C226.498 245.724 226.218 246.004 225.658 246.004H221.678V250.324H228.018C228.578 250.324 228.858 250.604 228.858 251.164C228.858 251.724 228.578 252.004 228.018 252.004H220.838ZM233.488 252.004C232.928 252.004 232.648 251.724 232.648 251.164V239.284C232.648 238.724 232.928 238.444 233.488 238.444C233.775 238.444 234.055 238.61 234.328 238.944L242.368 249.304H241.948V239.284C241.948 238.724 242.228 238.444 242.788 238.444C243.348 238.444 243.628 238.724 243.628 239.284V251.164C243.628 251.724 243.348 252.004 242.788 252.004C242.488 252.004 242.208 251.837 241.948 251.504L233.908 241.144H234.328V251.164C234.328 251.724 234.048 252.004 233.488 252.004Z" fill="white"/>
</g>
<defs>
<clipPath id="clip0_406_26">
<rect width="400" height="400" fill="white"/>
</clipPath>
<clipPath id="clip1_406_26">
<rect width="571" height="411.309" fill="white" transform="translate(-132 -10)"/>
</clipPath>
<clipPath id="clip2_406_26">
<rect width="257.674" height="163.164" fill="white" transform="translate(71 113)"/>
</clipPath>
</defs>
</svg>
