<?xml version="1.0" encoding="UTF-8"?><svg id="Layer_1" xmlns="http://www.w3.org/2000/svg" width="154" height="168" viewBox="0 0 154 168"><defs><style>.cls-1{fill:#fff;}.cls-2{fill:#f0f3f5;}.cls-3{fill:#341d70;}.cls-4{fill:#5956a5;}.cls-5{fill:#4e4540;}.cls-6{fill:none;stroke:#f0f3f5;stroke-miterlimit:10;stroke-width:2px;}</style></defs><rect class="cls-1" x="5" y="5" width="144" height="158" rx="10" ry="10"/><g><g><path class="cls-2" d="M15,5h124c5.52,0,10,4.48,10,10v22H5V15c0-5.52,4.48-10,10-10Z"/><g><path class="cls-5" d="M31.45,24.59v.97h-4.57v-7.11h1.18v6.14h3.39Z"/><path class="cls-5" d="M34.52,22.37v2.22h3.43v.97h-4.61v-7.11h4.58v.97h-3.41v2h2.94v.95h-2.94Z"/><path class="cls-5" d="M41,23.92l-.48,1.64h-1.22l2.31-7.11h1.04l2.28,7.11h-1.22l-.48-1.64h-2.23Zm1.94-1.01l-.82-2.81-.83,2.81h1.65Z"/><path class="cls-5" d="M47.47,22.8v2.76h-1.17v-7.11h2.26c.37,0,.71,.05,1.02,.14s.58,.22,.8,.4c.22,.18,.39,.4,.52,.67s.19,.58,.19,.93c0,.24-.03,.47-.1,.66s-.15,.38-.27,.54-.25,.3-.41,.42-.34,.22-.53,.31l1.52,2.97v.06h-1.25l-1.36-2.76h-1.2Zm1.1-.96c.21,0,.4-.04,.56-.1s.31-.15,.43-.26c.1-.1,.19-.22,.24-.36s.09-.31,.09-.49c0-.21-.03-.38-.1-.54s-.16-.28-.28-.39c-.11-.1-.25-.17-.42-.22s-.35-.08-.55-.08h-1.08v2.44h1.1Z"/><path class="cls-5" d="M56.2,25.55l-2.31-4.89v4.89h-1.19v-7.11h1.19l2.29,4.87v-4.87h1.19v7.11h-1.18Z"/><path class="cls-5" d="M66.86,21.49l.97-3.04h1.46v7.11h-1.1v-2.41l.07-3.17-1.09,3.39h-.61l-.99-3.28,.06,3.06v2.41h-1.1v-7.11h1.46l.88,3.04Z"/><path class="cls-5" d="M75.83,23.3c-.05,.27-.12,.52-.22,.76-.1,.24-.23,.46-.38,.66s-.32,.37-.52,.52c-.19,.13-.4,.23-.63,.31s-.48,.11-.75,.11-.54-.04-.78-.12-.45-.19-.63-.33c-.19-.14-.35-.32-.5-.52s-.26-.42-.35-.66c-.09-.23-.16-.48-.21-.74s-.07-.53-.07-.81v-.94c0-.29,.02-.57,.07-.84s.12-.53,.22-.77c.09-.23,.21-.44,.35-.64s.3-.36,.49-.51c.18-.14,.39-.25,.62-.32s.49-.11,.77-.11,.54,.04,.78,.12,.45,.19,.64,.33,.35,.3,.49,.49,.26,.4,.35,.62c.1,.24,.18,.5,.23,.77s.08,.56,.08,.86v.94c0,.29-.03,.56-.08,.83Zm-1.14-2.3c-.02-.17-.05-.34-.09-.49-.05-.18-.11-.34-.19-.49s-.18-.27-.29-.38c-.1-.09-.22-.16-.35-.21s-.28-.08-.44-.08-.3,.03-.43,.08-.24,.12-.33,.21c-.11,.11-.21,.24-.29,.38s-.14,.31-.18,.5c-.04,.16-.07,.32-.09,.5s-.03,.35-.03,.52v.95c0,.17,0,.34,.02,.51s.04,.33,.08,.49c.04,.18,.1,.34,.17,.49s.16,.28,.27,.38c.1,.1,.22,.17,.35,.23s.28,.09,.46,.09,.32-.03,.45-.08,.25-.13,.35-.22c.11-.11,.21-.24,.29-.38s.14-.31,.18-.49c.04-.16,.07-.32,.09-.49s.03-.34,.03-.52v-.95c0-.18-.01-.35-.03-.53Z"/><path class="cls-5" d="M78.77,22.8v2.76h-1.17v-7.11h2.26c.37,0,.71,.05,1.02,.14s.58,.22,.8,.4c.22,.18,.39,.4,.52,.67s.19,.58,.19,.93c0,.24-.03,.47-.1,.66s-.15,.38-.27,.54-.25,.3-.41,.42-.34,.22-.53,.31l1.52,2.97v.06h-1.25l-1.36-2.76h-1.2Zm1.1-.96c.21,0,.4-.04,.56-.1s.31-.15,.43-.26c.1-.1,.19-.22,.24-.36s.09-.31,.09-.49c0-.21-.03-.38-.1-.54s-.16-.28-.28-.39c-.11-.1-.25-.17-.42-.22s-.35-.08-.55-.08h-1.08v2.44h1.1Z"/><path class="cls-5" d="M85.33,22.37v2.22h3.43v.97h-4.61v-7.11h4.58v.97h-3.41v2h2.94v.95h-2.94Z"/><path class="cls-5" d="M97.11,23.92l-.48,1.64h-1.22l2.31-7.11h1.04l2.28,7.11h-1.22l-.48-1.64h-2.23Zm1.94-1.01l-.82-2.81-.83,2.81h1.65Z"/><path class="cls-5" d="M102.38,18.45h2.28c.35,0,.67,.04,.97,.11s.56,.19,.79,.35,.39,.36,.52,.6,.19,.53,.19,.86c0,.2-.04,.39-.1,.56s-.16,.33-.29,.46c-.09,.1-.19,.18-.3,.26s-.24,.14-.38,.2h0c.21,.06,.39,.15,.54,.25s.27,.23,.38,.36c.1,.14,.18,.3,.24,.48s.08,.36,.08,.55c0,.34-.06,.64-.18,.89s-.29,.47-.51,.64c-.22,.18-.48,.31-.78,.4s-.63,.13-.98,.13h-2.46v-7.11Zm2.3,3c.19,0,.37-.03,.53-.08s.3-.12,.41-.21c.1-.08,.18-.19,.24-.31s.09-.26,.09-.42c0-.17-.03-.31-.08-.43s-.13-.22-.23-.3c-.11-.1-.25-.17-.42-.21s-.35-.07-.55-.07h-1.11v2.03h1.12Zm-1.12,3.14h1.29c.19,0,.35-.03,.51-.08s.28-.12,.39-.21c.12-.09,.21-.21,.27-.35s.1-.29,.1-.46c0-.18-.03-.34-.08-.48s-.13-.26-.23-.35-.23-.17-.38-.23-.32-.08-.51-.09h-1.35v2.25Z"/><path class="cls-5" d="M113.64,23.3c-.05,.27-.12,.52-.22,.76-.1,.24-.23,.46-.38,.66s-.32,.37-.52,.52c-.19,.13-.4,.23-.63,.31s-.48,.11-.75,.11-.54-.04-.78-.12-.45-.19-.63-.33c-.19-.14-.35-.32-.5-.52s-.26-.42-.35-.66c-.09-.23-.16-.48-.21-.74s-.07-.53-.07-.81v-.94c0-.29,.02-.57,.07-.84s.12-.53,.22-.77c.09-.23,.21-.44,.35-.64s.3-.36,.49-.51c.18-.14,.39-.25,.62-.32s.49-.11,.77-.11,.54,.04,.78,.12,.45,.19,.64,.33,.35,.3,.49,.49,.26,.4,.35,.62c.1,.24,.18,.5,.23,.77s.08,.56,.08,.86v.94c0,.29-.03,.56-.08,.83Zm-1.14-2.3c-.02-.17-.05-.34-.09-.49-.05-.18-.11-.34-.19-.49s-.18-.27-.29-.38c-.1-.09-.22-.16-.35-.21s-.28-.08-.44-.08-.3,.03-.43,.08-.24,.12-.33,.21c-.11,.11-.21,.24-.29,.38s-.14,.31-.18,.5c-.04,.16-.07,.32-.09,.5s-.03,.35-.03,.52v.95c0,.17,0,.34,.02,.51s.04,.33,.08,.49c.04,.18,.1,.34,.17,.49s.16,.28,.27,.38c.1,.1,.22,.17,.35,.23s.28,.09,.46,.09,.32-.03,.45-.08,.25-.13,.35-.22c.11-.11,.21-.24,.29-.38s.14-.31,.18-.49c.04-.16,.07-.32,.09-.49s.03-.34,.03-.52v-.95c0-.18-.01-.35-.03-.53Z"/><path class="cls-5" d="M120.02,23.2c0,.37-.06,.7-.17,1s-.27,.56-.48,.77c-.21,.21-.46,.38-.75,.5s-.62,.18-.98,.18-.68-.06-.96-.17-.53-.28-.73-.5c-.21-.21-.36-.47-.48-.78s-.17-.64-.17-1.01v-4.76h1.17v4.76c.01,.22,.04,.43,.09,.62s.13,.35,.23,.48c.1,.12,.22,.22,.36,.29s.31,.1,.5,.1,.36-.04,.51-.1,.27-.17,.37-.3c.1-.13,.18-.29,.23-.48s.08-.39,.09-.61v-4.76h1.17v4.76Z"/><path class="cls-5" d="M124.75,19.42v6.14h-1.17v-6.14h-2.18v-.97h5.54v.97h-2.19Z"/></g></g><rect class="cls-6" x="5" y="5" width="144" height="158" rx="10" ry="10"/><g><path class="cls-3" d="M49.67,127.99c-.98-.25-1.22-.37-1.22-.75v-.02c0-.28,.25-.49,.73-.49s.97,.21,1.48,.56l.65-.94c-.58-.46-1.28-.72-2.11-.72-1.16,0-1.99,.68-1.99,1.71v.02c0,1.13,.74,1.44,1.88,1.74,.95,.24,1.14,.41,1.14,.72v.02c0,.33-.31,.54-.82,.54-.65,0-1.18-.27-1.69-.69l-.74,.88c.68,.61,1.55,.91,2.41,.91,1.22,0,2.08-.63,2.08-1.76v-.02c0-.99-.65-1.4-1.8-1.7Z"/><polygon class="cls-3" points="53.58 126.87 55.3 126.87 55.3 131.39 56.55 131.39 56.55 126.87 58.28 126.87 58.28 125.71 53.58 125.71 53.58 126.87"/><path class="cls-3" d="M62,125.67l-2.43,5.72h1.27l.52-1.27h2.4l.52,1.27h1.31l-2.43-5.72h-1.15Zm-.19,3.34l.75-1.84,.75,1.84h-1.51Z"/><path class="cls-3" d="M72.74,127.6v-.02c0-.53-.17-.98-.49-1.3-.37-.37-.93-.58-1.65-.58h-2.59v5.68h1.25v-1.82h.98l1.22,1.82h1.46l-1.39-2.03c.72-.27,1.22-.84,1.22-1.76Zm-1.27,.06c0,.48-.35,.8-.96,.8h-1.26v-1.63h1.24c.61,0,.98,.28,.98,.81v.02Z"/><polygon class="cls-3" points="76.66 125.71 75.41 125.71 75.41 131.39 79.49 131.39 79.49 130.26 76.66 130.26 76.66 125.71"/><rect class="cls-3" x="82.03" y="125.71" width="1.25" height="5.68"/><polygon class="cls-3" points="90.05 129.21 87.39 125.71 86.24 125.71 86.24 131.39 87.47 131.39 87.47 127.78 90.22 131.39 91.29 131.39 91.29 125.71 90.05 125.71 90.05 129.21"/><path class="cls-3" d="M96.89,129.2h1.26v.81c-.32,.23-.72,.34-1.18,.34-1.01,0-1.72-.76-1.72-1.8v-.02c0-.96,.72-1.77,1.63-1.77,.66,0,1.05,.21,1.48,.58l.79-.95c-.59-.5-1.21-.78-2.23-.78-1.72,0-2.98,1.32-2.98,2.94v.02c0,1.68,1.22,2.92,2.98,2.92,1.04,0,1.84-.41,2.42-.9v-2.46h-2.46v1.08Z"/><polygon class="cls-3" points="106.94 125.71 105.52 125.71 104.31 127.56 103.13 125.71 101.67 125.71 103.56 128.5 101.59 131.39 103.01 131.39 104.29 129.45 105.56 131.39 107.02 131.39 105.04 128.49 106.94 125.71"/><polygon class="cls-4" points="75.4 71.72 67.73 61.49 46.98 61.49 65.02 85.55 75.4 71.72"/><path class="cls-4" d="M73.7,97.12l12.57,16.76h20.75l-18.14-24.18c-3.98,4.18-9.79,7.05-15.18,7.43Z"/><path class="cls-3" d="M61.24,109.4l11.1-14.8c.05,0,.11,0,.16,0,5.74,0,12.47-3.56,16.11-8.58l11.36-15.15c3.25-4.06,7.04-5.92,7.04-5.92-3.06-1.27-7.7-1.93-7.7-1.93-1.79-1.54-5.9-1.54-5.9-1.54-7.14,0-10.53,4.52-10.53,4.52l-15.66,20.88c9.31-.06,11.18-1.5,16.88-8.87l1.19-1.61c1.19-1.61,3.08-2.56,5.08-2.56l-4.23,5.72c-6.2,8.02-8.74,9.89-19.53,9.89-.45,0-.88,0-1.31-.01l-18.32,24.43h4.5c3.42,0,7.61-1.82,9.77-4.48Z"/></g></g></svg>