<svg width="21" height="20" viewBox="0 0 21 20" fill="none" xmlns="http://www.w3.org/2000/svg">
<path d="M19.5825 11.4153C20.365 10.634 20.365 9.36602 19.5825 8.58472L11.9817 0.995591C11.4299 0.444572 10.5368 0.442002 9.9818 0.989836V0.989836C9.41875 1.54559 9.41875 2.45441 9.9818 3.01016L15.6306 8.58579L1.41421 8.58579C0.633163 8.58579 1.76754e-07 9.21896 1.13867e-07 10V10C5.09799e-08 10.7811 0.633166 11.4142 1.41421 11.4142L15.6306 11.4142L9.9818 16.9898C9.41875 17.5456 9.41875 18.4544 9.98179 19.0102V19.0102C10.5368 19.558 11.4299 19.5554 11.9817 19.0044L19.5825 11.4153Z" fill="white"/>
</svg>
