<svg width="112" height="138" viewBox="0 0 112 138" fill="none" xmlns="http://www.w3.org/2000/svg">
<path fill-rule="evenodd" clip-rule="evenodd" d="M55.9998 0.600098L0.199951 56.2236L13.0164 69L0.199951 81.7764L55.9998 137.4L111.8 81.7764L98.9816 69L111.8 56.2236L55.9998 0.600098ZM9.612 55.7243L55.9997 9.36069L102.388 55.7243L94.1629 63.9459L55.9997 25.8L17.8343 63.9459L9.612 55.7243ZM59.3614 38.338L73.4795 52.1542L59.3614 65.9676V38.338ZM21.7132 69.0002L52.6385 38.338V99.6622L21.7132 69.0002ZM65.412 69.3055L77.4791 57.207L89.6144 69.3714L77.5473 81.4671L65.412 69.3055ZM59.3614 71.3587L73.4795 85.5098L59.3614 99.6622V71.3587ZM94.1629 74.0543L102.388 82.2753L55.9997 128.64L9.612 82.2753L17.8343 74.0543L55.9997 112.201L94.1629 74.0543Z" fill="#F05C3F"/>
</svg>
