<svg width="12" height="12" viewBox="0 0 12 12" fill="none" xmlns="http://www.w3.org/2000/svg">
<path d="M11.0468 7.40582C11.817 6.62668 11.817 5.37286 11.0468 4.59371L7.10364 0.604934C6.77379 0.271268 6.23542 0.269719 5.90366 0.601482C5.57324 0.931899 5.57324 1.46761 5.90366 1.79803L9.25686 5.15123L0.848527 5.15123C0.379899 5.15123 1.04678e-07 5.53113 6.7435e-08 5.99976C3.01917e-08 6.46839 0.379899 6.84829 0.848528 6.84829L9.25686 6.84828L5.90366 10.2015C5.57324 10.5319 5.57324 11.0676 5.90366 11.398C6.23542 11.7298 6.77379 11.7282 7.10364 11.3946L11.0468 7.40582Z" fill="#111C3C"/>
</svg>
