<svg width="95" height="147" viewBox="0 0 95 147" fill="none" xmlns="http://www.w3.org/2000/svg">
<path d="M34.9995 21.8168C41.024 21.8168 45.9079 16.933 45.9079 10.9084C45.9079 4.88386 41.024 0 34.9995 0C28.9749 0 24.0911 4.88386 24.0911 10.9084C24.0911 16.933 28.9749 21.8168 34.9995 21.8168Z" fill="#00CCFF"/>
<path d="M51.6273 29.0941C53.1484 30.5779 54.0953 32.6507 54.0953 34.9398C54.0953 37.281 53.0813 39.4955 51.3664 41.0315V108.57C51.3664 117.592 44.0294 124.936 35 124.936C25.978 124.936 18.6337 117.599 18.6337 108.57V41.0315C16.9187 39.4955 15.9047 37.281 15.9047 34.9398C15.9047 32.6507 16.8516 30.5779 18.3727 29.0941C-6.67267 36.3043 -25 59.3886 -25 86.7529C-25 119.888 1.86467 146.753 35 146.753C68.1353 146.753 95 119.888 95 86.7529C95 59.3886 76.6727 36.3043 51.6273 29.0941Z" fill="black"/>
<path d="M42.5153 29.0941H27.4836C25.6121 29.0941 24.0911 29.8323 24.0911 30.7419C24.0911 31.6516 25.6121 32.3898 27.4836 32.3898H42.5153C44.3868 32.3898 45.9079 31.6516 45.9079 30.7419C45.9079 29.8323 44.3868 29.0941 42.5153 29.0941Z" fill="black"/>
<path d="M45.0131 43.9988C43.3131 47.9207 39.3763 50.6423 34.8056 50.5677C28.8556 50.4633 24.0911 55.5261 24.0911 61.4761V108.569C24.0911 114.594 28.9749 119.478 34.9995 119.478C41.0241 119.478 45.9079 114.594 45.9079 108.569V44.1554C45.9079 43.6409 45.2219 43.5216 45.0131 43.9988ZM29.5415 78.5732C28.0354 78.5732 26.8126 77.3503 26.8126 75.8442C26.8126 74.338 28.0354 73.1152 29.5415 73.1152C31.0477 73.1152 32.2705 74.338 32.2705 75.8442C32.2705 77.3503 31.0477 78.5732 29.5415 78.5732ZM33.635 86.7526C32.8819 86.7526 32.2705 86.1412 32.2705 85.3881C32.2705 84.635 32.8819 84.0236 33.635 84.0236C34.3881 84.0236 34.9995 84.635 34.9995 85.3881C34.9995 86.1412 34.3881 86.7526 33.635 86.7526ZM37.7285 67.6647C34.7161 67.6647 32.2705 65.2191 32.2705 62.2068C32.2705 59.1945 34.7161 56.7489 37.7285 56.7489C40.7408 56.7489 43.1864 59.1945 43.1864 62.2068C43.1789 65.2266 40.7408 67.6647 37.7285 67.6647Z" fill="#00CCFF"/>
</svg>
