<svg width="144" height="144" viewBox="0 0 144 144" fill="none" xmlns="http://www.w3.org/2000/svg">
<g opacity="0.5">
<g filter="url(#filter0_d_160_9684)">
<rect x="8" y="8" width="128" height="128" rx="24" fill="#161616"/>
<rect x="8.75" y="8.75" width="126.5" height="126.5" rx="23.25" stroke="#E0E0DF" stroke-width="1.5"/>
</g>
<path d="M99.6 95.1H45.4C38.5 95.1 33 89.5 33 82.6C33 75.8 38.5 70.2 45.2 70.1H45.3H45.4C45.6 70.1 45.8 70.2 46.1 70.2L49.1 70.4L50.1 67.5C51.8 62.5 56.5 59.1 61.7 59.1C62.3 59.1 63 59.2 63.9 59.3L66.7 59.8L68.1 57.3C71.3 51.6 77.2 48 83.5 48C93.2 48 101.2 56 101.3 65.8V65.9V66C101.3 66.3 101.2 66.6 101.2 66.9L101.1 69.8L103.8 70.8C108.8 72.6 112.1 77.3 112.1 82.5C112 89.5 106.5 95.1 99.6 95.1ZM45.1 73.1C40.1 73.2 36 77.5 36 82.6C36 87.8 40.2 92.1 45.4 92.1H99.7C104.9 92.1 109.1 87.8 109.1 82.6C109.1 78.6 106.6 75 102.8 73.7L98 72L98.2 66.9C98.2 66.5 98.2 66.2 98.3 65.9C98 57.7 91.4 51.1 83.4 51.1C78.1 51.1 73.2 54.1 70.6 58.8L68.2 63.2L63.3 62.3C62.6 62.2 62.1 62.1 61.7 62.1C57.8 62.1 54.2 64.7 52.9 68.5L51.2 73.5L45.9 73.1C45.6 73.2 45.4 73.1 45.1 73.1Z" fill="#E0E0DF"/>
</g>
<defs>
<filter id="filter0_d_160_9684" x="0" y="0" width="144" height="144" filterUnits="userSpaceOnUse" color-interpolation-filters="sRGB">
<feFlood flood-opacity="0" result="BackgroundImageFix"/>
<feColorMatrix in="SourceAlpha" type="matrix" values="0 0 0 0 0 0 0 0 0 0 0 0 0 0 0 0 0 0 127 0" result="hardAlpha"/>
<feOffset/>
<feGaussianBlur stdDeviation="4"/>
<feComposite in2="hardAlpha" operator="out"/>
<feColorMatrix type="matrix" values="0 0 0 0 0.0862745 0 0 0 0 0.0862745 0 0 0 0 0.0862745 0 0 0 0.5 0"/>
<feBlend mode="normal" in2="BackgroundImageFix" result="effect1_dropShadow_160_9684"/>
<feBlend mode="normal" in="SourceGraphic" in2="effect1_dropShadow_160_9684" result="shape"/>
</filter>
</defs>
</svg>
