<?xml version="1.0" encoding="UTF-8"?><svg id="Layer_1" xmlns="http://www.w3.org/2000/svg" width="280" height="100" viewBox="0 0 280 100"><defs><style>.cls-1{fill:#65c7c2;}.cls-2{fill:#fff;}.cls-3{fill:#f0f3f5;}.cls-4{fill:#141f47;}.cls-5{fill:#4e4540;}.cls-6{fill:none;stroke:#f0f3f5;stroke-miterlimit:10;stroke-width:2px;}</style></defs><rect class="cls-2" x="5" y="5" width="270" height="90" rx="10" ry="10"/><g><g><path class="cls-3" d="M6,14H76c5.52,0,10,4.48,10,10v62H-4V24C-4,18.48,.48,14,6,14Z" transform="translate(-9 91) rotate(-90)"/><g><path class="cls-5" d="M30.39,40.54v.97h-4.57v-7.11h1.18v6.14h3.39Z"/><path class="cls-5" d="M33.46,38.32v2.22h3.43v.97h-4.61v-7.11h4.58v.97h-3.41v2h2.94v.95h-2.94Z"/><path class="cls-5" d="M39.94,39.87l-.48,1.64h-1.22l2.31-7.11h1.04l2.28,7.11h-1.22l-.48-1.64h-2.23Zm1.94-1.01l-.82-2.81-.83,2.81h1.65Z"/><path class="cls-5" d="M46.41,38.75v2.76h-1.17v-7.11h2.26c.37,0,.71,.05,1.02,.14,.31,.09,.58,.22,.8,.4,.22,.18,.39,.4,.52,.67,.12,.26,.19,.58,.19,.93,0,.24-.03,.47-.1,.66s-.15,.38-.27,.54c-.11,.16-.25,.3-.41,.42-.16,.12-.34,.22-.53,.31l1.52,2.97v.06h-1.25l-1.36-2.76h-1.2Zm1.1-.96c.21,0,.4-.04,.56-.09,.17-.06,.31-.15,.43-.26,.1-.1,.19-.22,.24-.36s.09-.31,.09-.49c0-.21-.03-.38-.1-.54-.06-.16-.16-.28-.28-.39-.11-.1-.25-.17-.42-.22-.16-.05-.35-.08-.55-.08h-1.08v2.44h1.1Z"/><path class="cls-5" d="M55.13,41.51l-2.31-4.89v4.89h-1.19v-7.11h1.19l2.29,4.87v-4.87h1.19v7.11h-1.18Z"/><path class="cls-5" d="M27.99,49.44l.97-3.04h1.46v7.11h-1.1v-2.41l.07-3.17-1.09,3.39h-.61l-.99-3.28,.06,3.06v2.41h-1.1v-7.11h1.46l.88,3.04Z"/><path class="cls-5" d="M36.96,51.25c-.05,.27-.12,.52-.22,.76-.1,.24-.23,.46-.38,.66-.15,.2-.32,.37-.52,.52-.19,.13-.4,.23-.63,.31s-.48,.11-.75,.11-.54-.04-.78-.12c-.24-.08-.45-.19-.63-.33-.19-.14-.35-.32-.5-.52s-.26-.42-.35-.66c-.09-.23-.16-.48-.21-.74-.05-.26-.07-.53-.07-.81v-.94c0-.29,.02-.57,.07-.84s.12-.53,.22-.77c.09-.23,.21-.44,.35-.64,.14-.19,.3-.36,.49-.51,.18-.14,.39-.25,.62-.32,.23-.08,.49-.12,.77-.12s.54,.04,.78,.12c.24,.08,.45,.19,.64,.33,.19,.14,.35,.3,.49,.49,.14,.19,.26,.4,.35,.62,.1,.24,.18,.5,.23,.77,.05,.27,.08,.56,.08,.86v.94c0,.29-.03,.56-.08,.83Zm-1.14-2.3c-.02-.17-.05-.34-.09-.49-.05-.18-.11-.34-.19-.49-.08-.15-.18-.27-.29-.38-.1-.09-.22-.16-.35-.21-.13-.05-.28-.08-.44-.08s-.3,.03-.43,.08c-.13,.05-.24,.12-.33,.21-.11,.11-.21,.24-.29,.38-.08,.15-.14,.31-.18,.5-.04,.16-.07,.32-.09,.5-.02,.17-.03,.35-.03,.52v.95c0,.17,0,.34,.02,.51,.02,.17,.04,.33,.08,.49,.04,.18,.1,.34,.17,.49,.07,.15,.16,.28,.27,.38,.1,.1,.22,.17,.35,.23,.13,.06,.28,.09,.46,.09s.32-.03,.45-.08c.14-.06,.25-.13,.35-.22,.11-.11,.21-.24,.29-.38,.08-.15,.14-.31,.18-.49,.04-.16,.07-.32,.08-.49,.02-.17,.03-.34,.03-.52v-.95c0-.18-.01-.35-.03-.53Z"/><path class="cls-5" d="M39.91,50.75v2.76h-1.17v-7.11h2.26c.37,0,.71,.05,1.02,.14,.31,.09,.58,.22,.8,.4,.22,.18,.39,.4,.52,.67,.12,.26,.19,.58,.19,.93,0,.24-.03,.47-.1,.66s-.15,.38-.27,.54c-.11,.16-.25,.3-.41,.42-.16,.12-.34,.22-.53,.31l1.52,2.97v.06h-1.25l-1.36-2.76h-1.2Zm1.1-.96c.21,0,.4-.04,.56-.09,.17-.06,.31-.15,.43-.26,.1-.1,.19-.22,.24-.36s.09-.31,.09-.49c0-.21-.03-.38-.1-.54-.06-.16-.16-.28-.28-.39-.11-.1-.25-.17-.42-.22-.16-.05-.35-.08-.55-.08h-1.08v2.44h1.1Z"/><path class="cls-5" d="M46.46,50.32v2.22h3.43v.97h-4.61v-7.11h4.58v.97h-3.41v2h2.94v.95h-2.94Z"/><path class="cls-5" d="M26.94,63.87l-.48,1.64h-1.22l2.31-7.11h1.04l2.28,7.11h-1.22l-.48-1.64h-2.23Zm1.94-1.01l-.82-2.81-.83,2.81h1.65Z"/><path class="cls-5" d="M32.21,58.4h2.28c.34,0,.67,.04,.97,.12,.3,.08,.56,.19,.79,.35,.22,.16,.39,.36,.52,.6,.13,.24,.19,.53,.19,.86,0,.2-.04,.39-.11,.56-.07,.17-.16,.33-.29,.46-.09,.1-.19,.18-.3,.26-.11,.07-.24,.14-.38,.2h0c.21,.07,.39,.15,.54,.25,.15,.11,.27,.23,.38,.36,.1,.14,.18,.3,.24,.48,.05,.17,.08,.36,.08,.55,0,.34-.06,.64-.18,.89-.12,.26-.29,.47-.51,.64-.22,.18-.48,.31-.78,.4-.3,.09-.63,.13-.98,.13h-2.46v-7.11Zm2.3,3c.19,0,.37-.03,.53-.08s.3-.12,.41-.21c.1-.08,.18-.19,.24-.31s.09-.26,.09-.42c0-.17-.03-.31-.08-.43-.05-.12-.13-.22-.23-.3-.11-.1-.25-.17-.42-.21-.17-.04-.35-.07-.55-.07h-1.11v2.03h1.12Zm-1.12,3.14h1.29c.19,0,.35-.03,.51-.08,.15-.05,.28-.12,.39-.21,.12-.09,.21-.21,.27-.35,.06-.14,.1-.29,.1-.46,0-.18-.03-.34-.08-.48-.05-.14-.13-.26-.23-.35-.1-.1-.23-.17-.38-.23-.15-.05-.32-.08-.51-.09h-1.35v2.25Z"/><path class="cls-5" d="M43.46,63.25c-.05,.27-.12,.52-.22,.76-.1,.24-.23,.46-.38,.66-.15,.2-.32,.37-.52,.52-.19,.13-.4,.23-.63,.31s-.48,.11-.75,.11-.54-.04-.78-.12c-.24-.08-.45-.19-.63-.33-.19-.14-.35-.32-.5-.52s-.26-.42-.35-.66c-.09-.23-.16-.48-.21-.74-.05-.26-.07-.53-.07-.81v-.94c0-.29,.02-.57,.07-.84s.12-.53,.22-.77c.09-.23,.21-.44,.35-.64,.14-.19,.3-.36,.49-.51,.18-.14,.39-.25,.62-.32,.23-.08,.49-.12,.77-.12s.54,.04,.78,.12c.24,.08,.45,.19,.64,.33,.19,.14,.35,.3,.49,.49,.14,.19,.26,.4,.35,.62,.1,.24,.18,.5,.23,.77,.05,.27,.08,.56,.08,.86v.94c0,.29-.03,.56-.08,.83Zm-1.14-2.3c-.02-.17-.05-.34-.09-.49-.05-.18-.11-.34-.19-.49-.08-.15-.18-.27-.29-.38-.1-.09-.22-.16-.35-.21-.13-.05-.28-.08-.44-.08s-.3,.03-.43,.08c-.13,.05-.24,.12-.33,.21-.11,.11-.21,.24-.29,.38-.08,.15-.14,.31-.18,.5-.04,.16-.07,.32-.09,.5-.02,.17-.03,.35-.03,.52v.95c0,.17,0,.34,.02,.51,.02,.17,.04,.33,.08,.49,.04,.18,.1,.34,.17,.49,.07,.15,.16,.28,.27,.38,.1,.1,.22,.17,.35,.23,.13,.06,.28,.09,.46,.09s.32-.03,.45-.08c.14-.06,.25-.13,.35-.22,.11-.11,.21-.24,.29-.38,.08-.15,.14-.31,.18-.49,.04-.16,.07-.32,.08-.49,.02-.17,.03-.34,.03-.52v-.95c0-.18-.01-.35-.03-.53Z"/><path class="cls-5" d="M49.85,63.15c0,.37-.06,.7-.17,1-.11,.3-.27,.56-.48,.77-.21,.21-.46,.38-.75,.5-.29,.12-.62,.18-.98,.18s-.68-.06-.96-.17c-.29-.12-.53-.28-.73-.5-.21-.21-.36-.47-.48-.78s-.17-.64-.17-1.01v-4.76h1.17v4.76c.01,.22,.04,.43,.09,.62,.05,.19,.13,.35,.23,.48,.1,.12,.22,.22,.36,.29,.14,.07,.31,.1,.5,.1s.36-.04,.51-.1c.15-.07,.27-.17,.37-.3,.1-.13,.18-.29,.23-.48,.05-.18,.08-.39,.09-.61v-4.76h1.17v4.76Z"/><path class="cls-5" d="M54.57,59.37v6.14h-1.17v-6.14h-2.18v-.97h5.54v.97h-2.19Z"/></g></g><rect class="cls-6" x="5" y="5" width="270" height="90" rx="10" ry="10"/><g><g><path class="cls-4" d="M152.06,62.36c-.23-.45-.4-1.01-.5-1.69-1.22,1.36-2.8,2.04-4.75,2.04-1.84,0-3.37-.53-4.58-1.6-1.21-1.07-1.82-2.41-1.82-4.04,0-1.99,.74-3.53,2.22-4.59,1.48-1.07,3.62-1.61,6.41-1.62h2.31v-1.08c0-.87-.22-1.57-.67-2.09-.45-.52-1.15-.78-2.11-.78-.85,0-1.51,.2-1.99,.61-.48,.41-.72,.96-.72,1.67h-5.03c0-1.09,.34-2.1,1.01-3.03,.67-.93,1.62-1.66,2.85-2.18,1.23-.53,2.61-.79,4.14-.79,2.32,0,4.16,.58,5.52,1.75,1.36,1.17,2.04,2.8,2.04,4.91v8.16c.01,1.79,.26,3.14,.75,4.05v.3h-5.08Zm-4.16-3.5c.74,0,1.43-.17,2.05-.5,.63-.33,1.09-.77,1.39-1.33v-3.24h-1.88c-2.52,0-3.86,.87-4.02,2.61l-.02,.3c0,.63,.22,1.14,.66,1.55,.44,.41,1.04,.61,1.81,.61Z"/><path class="cls-4" d="M159.87,38.67c0-.75,.25-1.37,.76-1.86,.5-.49,1.19-.73,2.06-.73s1.54,.24,2.05,.73c.51,.49,.77,1.11,.77,1.86s-.26,1.39-.77,1.88c-.52,.49-1.2,.73-2.04,.73s-1.53-.24-2.04-.73c-.52-.49-.77-1.11-.77-1.88Zm5.34,23.69h-5.04v-18.82h5.04v18.82Z"/><path class="cls-4" d="M179.56,48.25c-.68-.09-1.29-.14-1.81-.14-1.9,0-3.15,.64-3.74,1.93v12.32h-5.03v-18.82h4.75l.14,2.24c1.01-1.73,2.41-2.59,4.19-2.59,.56,0,1.08,.08,1.57,.23l-.07,4.84Z"/><path class="cls-4" d="M192.71,57.16c0-.61-.3-1.1-.91-1.45-.61-.35-1.59-.67-2.93-.95-4.48-.94-6.71-2.84-6.71-5.71,0-1.67,.69-3.06,2.08-4.18,1.39-1.12,3.2-1.68,5.44-1.68,2.39,0,4.3,.56,5.73,1.69s2.15,2.59,2.15,4.38h-5.03c0-.72-.23-1.31-.7-1.78-.46-.47-1.19-.7-2.17-.7-.85,0-1.5,.19-1.97,.57-.46,.38-.7,.87-.7,1.46,0,.56,.26,1.01,.79,1.35,.53,.34,1.42,.64,2.67,.89,1.25,.25,2.31,.53,3.17,.84,2.66,.97,3.98,2.66,3.98,5.06,0,1.72-.74,3.1-2.21,4.17-1.47,1.06-3.37,1.59-5.71,1.59-1.58,0-2.98-.28-4.2-.84s-2.18-1.33-2.88-2.31c-.7-.98-1.04-2.04-1.04-3.17h4.77c.05,.89,.38,1.58,.99,2.05,.61,.48,1.44,.71,2.47,.71,.96,0,1.69-.18,2.18-.55s.74-.84,.74-1.43Z"/><path class="cls-4" d="M206.27,45.59c1.33-1.6,3.01-2.4,5.03-2.4,4.08,0,6.15,2.37,6.21,7.12v12.06h-5.03v-11.92c0-1.08-.23-1.88-.7-2.39-.46-.52-1.24-.77-2.31-.77-1.47,0-2.54,.57-3.2,1.7v13.38h-5.03v-26.72h5.03v9.95Z"/><path class="cls-4" d="M221.04,38.67c0-.75,.25-1.37,.76-1.86,.5-.49,1.19-.73,2.06-.73s1.54,.24,2.05,.73c.51,.49,.77,1.11,.77,1.86s-.26,1.39-.77,1.88c-.52,.49-1.2,.73-2.04,.73s-1.53-.24-2.04-.73c-.52-.49-.77-1.11-.77-1.88Zm5.34,23.69h-5.04v-18.82h5.04v18.82Z"/><path class="cls-4" d="M247.16,53.12c0,2.9-.66,5.22-1.97,6.97-1.32,1.75-3.09,2.62-5.33,2.62-1.9,0-3.44-.66-4.61-1.98v8.87h-5.03v-26.06h4.66l.17,1.84c1.22-1.46,2.81-2.19,4.77-2.19,2.32,0,4.12,.86,5.41,2.57,1.29,1.72,1.93,4.08,1.93,7.1v.26Zm-5.03-.37c0-1.75-.31-3.1-.93-4.05-.62-.95-1.52-1.43-2.71-1.43-1.58,0-2.66,.6-3.25,1.81v7.71c.61,1.24,1.71,1.86,3.29,1.86,2.4,0,3.6-1.97,3.6-5.9Z"/></g><g><g><path class="cls-1" d="M107.65,59.95l-2.19-1.27c-.66-.38-1.13-1.03-1.27-1.78l-.83-4.22c-1.11-1.84-2.32-5.27-2.32-5.27l-6.91,11.98c-.76,1.32,.19,2.97,1.71,2.97h10.85c.26,0,.5-.14,.63-.36l1.02-1.77c-.24-.06-.47-.15-.68-.27Z"/><path class="cls-4" d="M114.86,29.39c-.76-1.32-2.67-1.32-3.43,0l-8.56,14.83c.25-.34,.61-.6,1.04-.72,2.79-.75,8.38-1.72,12.75,.8,2.23,1.29,3.83,3.31,4.96,5.35h4.53c.24,0,.43,.11,.56,.26l-11.85-20.52Z"/><path class="cls-1" d="M132.18,59.39l-5.36-9.29c.09,.24,.05,.54-.16,.76l-2.8,2.88,8.55,6.28c-.04-.21-.11-.42-.23-.63Z"/><path class="cls-4" d="M112.17,52.05c-4-2.31-7.17-5.22-9.4-7.65l-.16,.28c-.2,.35-.15,.76-.04,1.15,.42,1.56,1.22,3.93,2.6,6.14l.89,4.56c.04,.21,.17,.38,.35,.49l2.19,1.27c.35,.2,.79,.08,.99-.26l.7-1.21c2.06,1,4.34,1.3,6.44,1.26l2.26,3.92c.32,.55,1.15,.45,1.32-.16l1.25-4.38c.29-.07,.55-.13,.8-.2,.51-.14,.92-.47,1.16-.89-3.22-.72-7.34-2.01-11.35-4.32Z"/></g><path class="cls-1" d="M131.12,62.25l-7.94-3.49-1.02,3.6h8.3c.23,0,.45-.04,.66-.11Z"/></g></g></g></svg>