<svg width="1654" height="1195" viewBox="0 0 1654 1195" fill="none" xmlns="http://www.w3.org/2000/svg">
<g opacity="0.04">
<path d="M443.07 292.226C442.5 292.935 441.76 293.507 440.874 293.894C437.975 295.128 434.615 293.79 433.381 290.891C413.448 244.312 381.171 203.907 340.047 174.051C337.497 172.197 336.928 168.634 338.782 166.083C340.629 163.542 344.2 162.964 346.751 164.818C389.545 195.886 423.129 237.934 443.877 286.401C444.741 288.411 444.354 290.63 443.07 292.226V292.226Z" fill="white"/>
<path d="M413.63 403.866C417.868 407.274 424.066 406.602 427.474 402.364C430.882 398.127 430.21 391.929 425.973 388.521C421.735 385.112 415.537 385.784 412.129 390.022C408.72 394.259 409.393 400.458 413.63 403.866Z" fill="white"/>
<path d="M274.012 174.818C275.218 171.91 273.826 168.573 270.918 167.367C227.843 149.581 179.341 144.127 133.196 151.444L100.72 170.194C111.205 167.026 125.356 164.393 136.323 162.648C180.398 155.655 225.432 160.935 266.553 177.922C268.946 178.91 271.632 178.145 273.172 176.23C273.51 175.811 273.787 175.343 274.004 174.828L274.012 174.818Z" fill="white"/>
<path d="M259.721 211.571C260.926 208.663 259.561 205.314 256.653 204.108C220.072 188.851 179.975 184.074 140.724 190.298C115.218 194.348 90.973 202.815 68.6671 215.471C61.2161 219.773 49.0917 226.773 43.6897 231.416C29.3513 242.581 40.0685 251.144 48.4577 243.674C59.113 234.186 61.8414 232.476 74.3062 225.396C95.4205 213.426 118.374 205.399 142.521 201.569C179.685 195.671 217.641 200.188 252.266 214.629C254.669 215.625 257.365 214.869 258.913 212.943C259.242 212.534 259.52 212.067 259.729 211.561L259.721 211.571Z" fill="white"/>
<path d="M424.045 366.911C423.187 367.978 421.949 368.741 420.499 368.971C417.392 369.463 414.466 367.34 413.964 364.225C407.345 322.504 389.877 283.116 363.465 250.353C337.832 218.562 304.325 193.518 266.569 177.923C263.661 176.718 262.27 173.381 263.475 170.472C264.681 167.564 268.018 166.173 270.926 167.378C310.456 183.71 345.528 209.914 372.36 243.196C400.034 277.515 418.313 318.755 425.245 362.437C425.507 364.093 425.024 365.694 424.053 366.901L424.045 366.911Z" fill="white"/>
</g>
<g opacity="0.04">
<path d="M1233.2 1036.37C1233.23 1035.47 1233.48 1034.56 1233.96 1033.72C1235.53 1031 1239.02 1030.05 1241.75 1031.63C1285.66 1056.91 1335.73 1069.85 1386.54 1069.04C1389.69 1068.99 1392.28 1071.5 1392.33 1074.65C1392.38 1077.79 1389.87 1080.4 1386.72 1080.45C1333.84 1081.29 1281.74 1067.82 1236.05 1041.52C1234.15 1040.43 1233.13 1038.42 1233.2 1036.37V1036.37Z" fill="white"/>
<path d="M1189.73 929.417C1184.29 929.235 1179.74 933.493 1179.56 938.928C1179.37 944.363 1183.63 948.916 1189.07 949.098C1194.5 949.28 1199.06 945.022 1199.24 939.587C1199.42 934.152 1195.16 929.598 1189.73 929.417Z" fill="white"/>
<path d="M1438.89 1028.79C1439.67 1031.83 1442.79 1033.67 1445.84 1032.89C1490.96 1021.25 1533.03 996.498 1565.54 962.945L1580.26 928.453C1573.77 937.281 1564.04 947.882 1556.31 955.861C1525.26 987.913 1486.08 1010.73 1442.99 1021.83C1440.48 1022.47 1438.8 1024.7 1438.71 1027.15C1438.7 1027.69 1438.75 1028.23 1438.89 1028.77L1438.89 1028.79Z" fill="white"/>
<path d="M1428.26 990.812C1429.04 993.862 1432.14 995.721 1435.19 994.939C1473.6 985.182 1508.54 964.931 1536.19 936.39C1554.16 917.839 1568.47 896.513 1578.71 873.001C1582.09 865.087 1587.58 852.211 1589.12 845.254C1593.88 827.717 1580.17 827.303 1577.94 838.313C1575.12 852.298 1573.96 855.303 1568.24 868.448C1558.54 890.697 1545 910.896 1527.99 928.455C1501.81 955.481 1468.74 974.655 1432.38 983.891C1429.86 984.537 1428.16 986.761 1428.08 989.23C1428.06 989.755 1428.12 990.295 1428.25 990.825L1428.26 990.812Z" fill="white"/>
<path d="M1203.58 965.224C1203.63 963.855 1204.16 962.502 1205.18 961.447C1207.37 959.189 1210.99 959.131 1213.26 961.321C1243.6 990.714 1281.21 1011.73 1322 1022.08C1361.59 1032.11 1403.42 1032.03 1442.98 1021.83C1446.03 1021.05 1449.14 1022.89 1449.92 1025.94C1450.71 1028.99 1448.87 1032.1 1445.82 1032.88C1404.41 1043.55 1360.63 1043.65 1319.19 1033.14C1276.45 1022.31 1237.08 1000.3 1205.31 969.523C1204.1 968.355 1203.53 966.786 1203.58 965.237L1203.58 965.224Z" fill="white"/>
</g>
</svg>
