<svg width="1440" height="1285" viewBox="0 0 1440 1285" fill="none" xmlns="http://www.w3.org/2000/svg">
<path d="M1542.14 466.011C1539.88 463.211 1536.96 460.951 1533.46 459.419C1522 454.541 1508.72 459.831 1503.84 471.289C1425.06 655.39 1297.49 815.086 1134.95 933.088C1124.87 940.418 1122.62 954.5 1129.95 964.581C1137.25 974.624 1151.36 976.91 1161.44 969.581C1330.58 846.788 1463.32 680.597 1545.33 489.034C1548.74 481.09 1547.21 472.321 1542.14 466.011Z" fill="#F3F3F3"/>
<path d="M1425.78 24.7646C1442.53 11.2937 1467.02 13.9505 1480.5 30.6988C1493.97 47.4471 1491.31 71.9446 1474.56 85.4156C1457.81 98.8865 1433.32 96.2297 1419.84 79.4814C1406.37 62.7331 1409.03 38.2356 1425.78 24.7646Z" fill="#F3F3F3"/>
<path d="M873.95 930.057C878.714 941.552 873.216 954.742 861.721 959.506C691.471 1029.81 499.768 1051.36 317.387 1022.44L189.028 948.332C230.468 960.853 286.397 971.261 329.743 978.157C503.949 1005.8 681.94 984.93 844.468 917.789C853.927 913.883 864.541 916.906 870.631 924.478C871.963 926.134 873.059 927.981 873.918 930.017L873.95 930.057Z" fill="#F3F3F3"/>
<path d="M817.465 784.793C822.229 796.288 816.834 809.525 805.339 814.29C660.758 874.595 502.276 893.474 347.141 868.875C246.328 852.866 150.503 819.4 62.3403 769.38C32.891 752.378 -15.0296 724.711 -36.3809 706.359C-93.052 662.229 -50.6931 628.385 -17.5357 657.908C24.5786 695.411 35.3626 702.167 84.6284 730.151C168.081 777.465 258.803 809.189 354.24 824.327C501.128 847.636 651.148 829.783 788 772.707C797.497 768.77 808.151 771.761 814.273 779.372C815.574 780.989 816.669 782.835 817.496 784.833L817.465 784.793Z" fill="#F3F3F3"/>
<path d="M1466.94 170.827C1463.55 166.607 1458.66 163.593 1452.93 162.683C1440.65 160.739 1429.08 169.132 1427.1 181.443C1400.93 346.343 1331.89 502.021 1227.5 631.512C1126.19 757.161 993.757 856.147 844.532 917.784C833.037 922.548 827.539 935.738 832.304 947.234C837.068 958.729 850.258 964.227 861.753 959.462C1017.99 894.914 1156.61 791.344 1262.66 659.801C1372.04 524.156 1444.29 361.159 1471.68 188.51C1472.72 181.964 1470.81 175.638 1466.98 170.866L1466.94 170.827Z" fill="#F3F3F3"/>
</svg>
