<svg width="1730" height="1783" viewBox="0 0 1730 1783" fill="none" xmlns="http://www.w3.org/2000/svg">
<mask id="mask0_510_9456" style="mask-type:alpha" maskUnits="userSpaceOnUse" x="0" y="0" width="1730" height="1783">
<rect width="1730" height="1783" fill="#D9D9D9"/>
</mask>
<g mask="url(#mask0_510_9456)">
<path d="M1632.14 1063.01C1629.88 1060.21 1626.96 1057.95 1623.46 1056.42C1612 1051.54 1598.72 1056.83 1593.84 1068.29C1515.06 1252.39 1387.49 1412.09 1224.95 1530.09C1214.87 1537.42 1212.62 1551.5 1219.95 1561.58C1227.25 1571.62 1241.36 1573.91 1251.44 1566.58C1420.58 1443.79 1553.32 1277.6 1635.33 1086.03C1638.74 1078.09 1637.21 1069.32 1632.14 1063.01V1063.01Z" fill="#F3F3F3"/>
<path d="M1515.78 621.765C1532.53 608.294 1557.02 610.95 1570.5 627.699C1583.97 644.447 1581.31 668.945 1564.56 682.416C1547.81 695.887 1523.32 693.23 1509.84 676.481C1496.37 659.733 1499.03 635.236 1515.78 621.765Z" fill="#F3F3F3"/>
<path d="M963.95 1527.06C968.714 1538.55 963.216 1551.74 951.721 1556.51C781.471 1626.81 589.768 1648.36 407.387 1619.44L279.028 1545.33C320.468 1557.85 376.397 1568.26 419.743 1575.16C593.949 1602.8 771.94 1581.93 934.468 1514.79C943.927 1510.88 954.541 1513.91 960.631 1521.48C961.963 1523.13 963.059 1524.98 963.918 1527.02L963.95 1527.06Z" fill="#F3F3F3"/>
<path d="M907.465 1381.79C912.229 1393.29 906.834 1406.53 895.339 1411.29C750.758 1471.6 592.276 1490.47 437.141 1465.87C336.328 1449.87 240.503 1416.4 152.34 1366.38C122.891 1349.38 74.9704 1321.71 53.6191 1303.36C-3.05203 1259.23 39.3069 1225.39 72.4643 1254.91C114.579 1292.41 125.363 1299.17 174.628 1327.15C258.081 1374.46 348.803 1406.19 444.24 1421.33C591.128 1444.64 741.148 1426.78 878 1369.71C887.497 1365.77 898.151 1368.76 904.273 1376.37C905.574 1377.99 906.669 1379.84 907.496 1381.83L907.465 1381.79Z" fill="#F3F3F3"/>
<path d="M1556.94 767.827C1553.55 763.607 1548.66 760.593 1542.93 759.683C1530.65 757.74 1519.08 766.132 1517.1 778.443C1490.93 943.343 1421.89 1099.02 1317.5 1228.51C1216.19 1354.16 1083.76 1453.15 934.532 1514.78C923.037 1519.55 917.539 1532.74 922.304 1544.23C927.068 1555.73 940.258 1561.23 951.753 1556.46C1107.99 1491.91 1246.61 1388.34 1352.66 1256.8C1462.04 1121.16 1534.29 958.159 1561.68 785.511C1562.72 778.964 1560.81 772.638 1556.98 767.866L1556.94 767.827Z" fill="#F3F3F3"/>
<path d="M1362 449C1371.94 449 1380 457.059 1380 467C1380 476.941 1371.94 485 1362 485C1352.06 485 1344 476.941 1344 467C1344 457.059 1352.06 449 1362 449Z" stroke="#F4A93A" stroke-width="4"/>
<path d="M321 180.5C321 173.596 315.404 168 308.5 168C301.596 168 296 173.596 296 180.5C296 187.404 301.596 193 308.5 193C315.404 193 321 187.404 321 180.5Z" fill="white"/>
<path d="M1196 119C1196 115.134 1192.87 112 1189 112C1185.13 112 1182 115.134 1182 119C1182 122.866 1185.13 126 1189 126C1192.87 126 1196 122.866 1196 119Z" fill="#00BB4F"/>
<path d="M629 0C629 12.2 624.154 23.9002 615.527 32.5269C606.9 41.1536 595.2 46 583 46C570.8 46 559.1 41.1536 550.473 32.5269C541.846 23.9002 537 12.2 537 6.94581e-06L583 0H629Z" fill="#F4A93A"/>
<path d="M90 1257C137.496 1257 176 1295.5 176 1343C176 1390.5 137.496 1429 90 1429C42.5035 1429 4 1390.5 4 1343C3.99999 1295.5 42.5035 1257 90 1257Z" stroke="#888888" stroke-width="8"/>
<path d="M1530 190C1577.5 190 1616 228.504 1616 276C1616 323.496 1577.5 362 1530 362C1482.5 362 1444 323.496 1444 276C1444 228.504 1482.5 190 1530 190Z" stroke="white" stroke-width="8"/>
<path d="M1062 1380.5C1062 1373.6 1056.4 1368 1049.5 1368C1042.6 1368 1037 1373.6 1037 1380.5C1037 1387.4 1042.6 1393 1049.5 1393C1056.4 1393 1062 1387.4 1062 1380.5Z" fill="#E61E24"/>
<path d="M372 1143C372 1139.13 368.866 1136 365 1136C361.134 1136 358 1139.13 358 1143C358 1146.87 361.134 1150 365 1150C368.866 1150 372 1146.87 372 1143Z" fill="#28A4DB"/>
<path d="M1382 1173C1382 1169.13 1378.87 1166 1375 1166C1371.13 1166 1368 1169.13 1368 1173C1368 1176.87 1371.13 1180 1375 1180C1378.87 1180 1382 1176.87 1382 1173Z" fill="#39AE4A"/>
</g>
</svg>
