<svg width="1762" height="1527" viewBox="0 0 1762 1527" fill="none" xmlns="http://www.w3.org/2000/svg">
<mask id="mask0_511_9468" style="mask-type:alpha" maskUnits="userSpaceOnUse" x="0" y="0" width="1762" height="1527">
<rect width="1762" height="1527" fill="#D9D9D9"/>
</mask>
<g mask="url(#mask0_511_9468)">
<path d="M1096 1527C1096 1491.99 1082.09 1458.42 1057.34 1433.66C1032.58 1408.91 999.009 1395 964 1395C928.991 1395 895.417 1408.91 870.662 1433.66C845.907 1458.42 832 1491.99 832 1527L964 1527H1096Z" fill="#F3F3F3"/>
<path d="M1530 933C1530 929.134 1526.87 926 1523 926C1519.13 926 1516 929.134 1516 933C1516 936.866 1519.13 940 1523 940C1526.87 940 1530 936.866 1530 933Z" fill="#39AE4A"/>
<path d="M1276 868C1276 864.134 1272.87 861 1269 861C1265.13 861 1262 864.134 1262 868C1262 871.866 1265.13 875 1269 875C1272.87 875 1276 871.866 1276 868Z" fill="#F4A93A"/>
<path d="M1667.56 210.281C1667.56 212.561 1666.75 214.841 1665.11 216.653C1661.6 220.532 1655.59 220.83 1651.69 217.314C1599.58 170.107 1535.83 137.244 1467.4 122.304C1400.99 107.812 1331.41 110.284 1266.17 129.443C1261.14 130.914 1255.85 128.037 1254.38 123.007C1252.91 117.977 1255.79 112.692 1260.82 111.221C1329.13 91.1667 1401.95 88.5666 1471.47 103.741C1543.16 119.384 1609.89 153.803 1664.45 203.226C1666.52 205.102 1667.56 207.68 1667.56 210.259V210.281Z" fill="#F3F3F3"/>
<path d="M1723.14 369.317C1722.38 371.467 1720.85 373.348 1718.7 374.51C1714.1 376.997 1708.33 375.278 1705.82 370.663C1672.4 308.803 1623.23 256.595 1563.67 219.727C1505.88 183.954 1439.44 163.122 1371.54 159.473C1366.31 159.186 1362.28 154.713 1362.57 149.481C1362.86 144.248 1367.33 140.222 1372.56 140.51C1443.65 144.336 1513.19 166.126 1573.69 203.577C1636.09 242.194 1687.55 296.863 1722.55 361.629C1723.88 364.086 1724 366.865 1723.14 369.297L1723.14 369.317Z" fill="#F3F3F3"/>
<path d="M2.45562 748.203C1.8654 746 2.05744 743.588 3.1737 741.413C5.56648 736.756 11.2945 734.913 15.9719 737.3C78.5226 769.411 148.601 784.657 218.569 781.375C286.466 778.186 353.04 757.788 411.094 722.397C415.572 719.675 421.422 721.086 424.144 725.564C426.867 730.041 425.455 735.891 420.978 738.614C360.19 775.664 290.521 797.023 219.442 800.359C146.142 803.805 72.7788 787.829 7.28701 754.211C4.80476 752.935 3.12857 750.714 2.46113 748.223L2.45562 748.203Z" fill="#F3F3F3"/>
<path d="M485 915.5C485 908.596 479.404 903 472.5 903C465.596 903 460 908.596 460 915.5C460 922.404 465.596 928 472.5 928C479.404 928 485 922.404 485 915.5Z" fill="#161616"/>
<path d="M1428 1449C1437.94 1449 1446 1457.06 1446 1467C1446 1476.94 1437.94 1485 1428 1485C1418.06 1485 1410 1476.94 1410 1467C1410 1457.06 1418.06 1449 1428 1449Z" stroke="#E61E24" stroke-width="4"/>
<path d="M552 12.5C552 5.59644 546.404 -8.16953e-07 539.5 -5.26291e-07C532.596 -2.35629e-07 527 5.59644 527 12.5C527 19.4036 532.596 25 539.5 25C546.404 25 552 19.4036 552 12.5Z" fill="#E61E24"/>
</g>
</svg>
