<svg width="1440" height="908" viewBox="0 0 1440 908" fill="none" xmlns="http://www.w3.org/2000/svg">
<path d="M1272.55 846.713C1281.19 853.674 1282.57 866.34 1275.37 874.778C1167.86 1000.8 1020.13 1086.17 856.968 1116.1C687.217 1147.24 512.079 1116.32 363.504 1028.96C214.929 941.608 102.82 803.65 47.6311 640.255C-7.55801 476.86 -2.14944 298.92 62.8701 138.897C127.89 -21.1264 248.187 -152.566 401.814 -231.443C555.442 -310.32 732.16 -331.377 899.73 -290.773C1067.3 -250.168 1214.55 -150.608 1314.62 -10.2565C1410.81 124.653 1457.24 288.608 1446.43 453.776C1445.71 464.835 1435.91 472.954 1424.87 471.948C1413.8 470.938 1405.68 461.128 1406.39 450.033C1416.29 294.51 1372.45 140.193 1281.87 13.1563C1187.4 -119.348 1048.38 -213.341 890.179 -251.675C731.978 -290.009 565.141 -270.129 420.103 -195.663C275.066 -121.196 161.495 2.89427 100.111 153.97C38.7269 305.045 33.6207 473.036 85.724 627.295C137.827 781.553 243.667 911.798 383.935 994.268C524.202 1076.74 689.548 1105.93 849.807 1076.53C1003.48 1048.34 1142.65 968.069 1244.08 849.559C1251.3 841.133 1263.92 839.752 1272.55 846.713Z" fill="#12578D"/>
<g opacity="0.5">
<mask id="path-2-outside-1_488_9244" maskUnits="userSpaceOnUse" x="-96.2911" y="-411.221" width="1655.24" height="1659.02" fill="black">
<rect fill="white" x="-96.2911" y="-411.221" width="1655.24" height="1659.02"/>
<path d="M638.268 -160.47C636.944 -169.536 643.221 -177.983 652.32 -179.052C777.101 -193.719 903.484 -168.406 1013.16 -106.528C1127.65 -41.9288 1217.46 58.8633 1268.47 180.025C1319.48 301.187 1328.81 435.859 1294.99 562.898C1261.18 689.937 1186.13 802.149 1081.64 881.92C977.143 961.69 849.117 1004.5 717.658 1003.63C586.199 1002.76 458.75 958.264 355.319 877.12C251.889 795.975 178.334 682.78 146.201 555.306C115.422 433.2 124.318 304.615 171.359 188.113C174.789 179.618 184.591 175.789 192.988 179.456C201.384 183.122 205.193 192.894 201.777 201.395C157.67 311.155 149.39 432.218 178.373 547.196C208.709 667.543 278.151 774.409 375.799 851.016C473.446 927.624 593.769 969.635 717.877 970.455C841.986 971.276 962.854 930.858 1061.5 855.548C1160.16 780.238 1231.01 674.299 1262.93 554.364C1294.85 434.428 1286.04 307.287 1237.89 192.899C1189.73 78.5119 1104.95 -16.6445 996.854 -77.6313C893.583 -135.897 774.619 -159.822 657.114 -146.208C648.013 -145.154 639.591 -151.404 638.268 -160.47Z"/>
</mask>
<path d="M638.268 -160.47C636.944 -169.536 643.221 -177.983 652.32 -179.052C777.101 -193.719 903.484 -168.406 1013.16 -106.528C1127.65 -41.9288 1217.46 58.8633 1268.47 180.025C1319.48 301.187 1328.81 435.859 1294.99 562.898C1261.18 689.937 1186.13 802.149 1081.64 881.92C977.143 961.69 849.117 1004.5 717.658 1003.63C586.199 1002.76 458.75 958.264 355.319 877.12C251.889 795.975 178.334 682.78 146.201 555.306C115.422 433.2 124.318 304.615 171.359 188.113C174.789 179.618 184.591 175.789 192.988 179.456C201.384 183.122 205.193 192.894 201.777 201.395C157.67 311.155 149.39 432.218 178.373 547.196C208.709 667.543 278.151 774.409 375.799 851.016C473.446 927.624 593.769 969.635 717.877 970.455C841.986 971.276 962.854 930.858 1061.5 855.548C1160.16 780.238 1231.01 674.299 1262.93 554.364C1294.85 434.428 1286.04 307.287 1237.89 192.899C1189.73 78.5119 1104.95 -16.6445 996.854 -77.6313C893.583 -135.897 774.619 -159.822 657.114 -146.208C648.013 -145.154 639.591 -151.404 638.268 -160.47Z" fill="#12578D"/>
<path d="M638.268 -160.47C636.944 -169.536 643.221 -177.983 652.32 -179.052C777.101 -193.719 903.484 -168.406 1013.16 -106.528C1127.65 -41.9288 1217.46 58.8633 1268.47 180.025C1319.48 301.187 1328.81 435.859 1294.99 562.898C1261.18 689.937 1186.13 802.149 1081.64 881.92C977.143 961.69 849.117 1004.5 717.658 1003.63C586.199 1002.76 458.75 958.264 355.319 877.12C251.889 795.975 178.334 682.78 146.201 555.306C115.422 433.2 124.318 304.615 171.359 188.113C174.789 179.618 184.591 175.789 192.988 179.456C201.384 183.122 205.193 192.894 201.777 201.395C157.67 311.155 149.39 432.218 178.373 547.196C208.709 667.543 278.151 774.409 375.799 851.016C473.446 927.624 593.769 969.635 717.877 970.455C841.986 971.276 962.854 930.858 1061.5 855.548C1160.16 780.238 1231.01 674.299 1262.93 554.364C1294.85 434.428 1286.04 307.287 1237.89 192.899C1189.73 78.5119 1104.95 -16.6445 996.854 -77.6313C893.583 -135.897 774.619 -159.822 657.114 -146.208C648.013 -145.154 639.591 -151.404 638.268 -160.47Z" stroke="#12578D" stroke-width="3.1689" mask="url(#path-2-outside-1_488_9244)"/>
</g>
<g opacity="0.5">
<mask id="path-3-outside-2_488_9244" maskUnits="userSpaceOnUse" x="233.862" y="-109.864" width="920.374" height="937.13" fill="black">
<rect fill="white" x="233.862" y="-109.864" width="920.374" height="937.13"/>
<path d="M457.816 605.719C453.432 609.059 447.151 608.182 443.995 603.663C415.456 562.801 396.151 515.978 387.447 466.377C378.159 413.456 381.189 358.799 396.3 306.65C411.411 254.501 438.197 206.266 474.577 165.691C510.956 125.116 555.95 93.2936 606.063 72.6964C656.176 52.0993 710.058 43.2816 763.524 46.9286C816.99 50.5755 868.601 66.5888 914.346 93.7245C960.091 120.86 998.739 158.388 1027.29 203.392C1054.15 245.731 1071.39 293.615 1077.86 343.728C1078.54 348.996 1074.75 353.747 1069.48 354.415C1064.02 355.107 1059.08 351.163 1058.36 345.709C1052.15 298.766 1035.92 253.919 1010.75 214.232C983.794 171.744 947.307 136.315 904.12 110.696C860.933 85.0781 812.208 69.9601 761.732 66.5171C711.255 63.074 660.386 71.3986 613.075 90.8441C565.764 110.29 523.286 140.333 488.941 178.639C454.595 216.945 429.307 262.484 415.041 311.716C400.775 360.949 397.914 412.551 406.682 462.512C414.881 509.231 433.041 553.34 459.882 591.855C462.981 596.302 462.128 602.435 457.816 605.719Z"/>
</mask>
<path d="M457.816 605.719C453.432 609.059 447.151 608.182 443.995 603.663C415.456 562.801 396.151 515.978 387.447 466.377C378.159 413.456 381.189 358.799 396.3 306.65C411.411 254.501 438.197 206.266 474.577 165.691C510.956 125.116 555.95 93.2936 606.063 72.6964C656.176 52.0993 710.058 43.2816 763.524 46.9286C816.99 50.5755 868.601 66.5888 914.346 93.7245C960.091 120.86 998.739 158.388 1027.29 203.392C1054.15 245.731 1071.39 293.615 1077.86 343.728C1078.54 348.996 1074.75 353.747 1069.48 354.415C1064.02 355.107 1059.08 351.163 1058.36 345.709C1052.15 298.766 1035.92 253.919 1010.75 214.232C983.794 171.744 947.307 136.315 904.12 110.696C860.933 85.0781 812.208 69.9601 761.732 66.5171C711.255 63.074 660.386 71.3986 613.075 90.8441C565.764 110.29 523.286 140.333 488.941 178.639C454.595 216.945 429.307 262.484 415.041 311.716C400.775 360.949 397.914 412.551 406.682 462.512C414.881 509.231 433.041 553.34 459.882 591.855C462.981 596.302 462.128 602.435 457.816 605.719Z" fill="#12578D"/>
<path d="M457.816 605.719C453.432 609.059 447.151 608.182 443.995 603.663C415.456 562.801 396.151 515.978 387.447 466.377C378.159 413.456 381.189 358.799 396.3 306.65C411.411 254.501 438.197 206.266 474.577 165.691C510.956 125.116 555.95 93.2936 606.063 72.6964C656.176 52.0993 710.058 43.2816 763.524 46.9286C816.99 50.5755 868.601 66.5888 914.346 93.7245C960.091 120.86 998.739 158.388 1027.29 203.392C1054.15 245.731 1071.39 293.615 1077.86 343.728C1078.54 348.996 1074.75 353.747 1069.48 354.415C1064.02 355.107 1059.08 351.163 1058.36 345.709C1052.15 298.766 1035.92 253.919 1010.75 214.232C983.794 171.744 947.307 136.315 904.12 110.696C860.933 85.0781 812.208 69.9601 761.732 66.5171C711.255 63.074 660.386 71.3986 613.075 90.8441C565.764 110.29 523.286 140.333 488.941 178.639C454.595 216.945 429.307 262.484 415.041 311.716C400.775 360.949 397.914 412.551 406.682 462.512C414.881 509.231 433.041 553.34 459.882 591.855C462.981 596.302 462.128 602.435 457.816 605.719Z" stroke="#12578D" stroke-width="18.993" mask="url(#path-3-outside-2_488_9244)"/>
</g>
<mask id="path-4-outside-3_488_9244" maskUnits="userSpaceOnUse" x="55.901" y="-255.043" width="1325.98" height="1325.98" fill="black">
<rect fill="white" x="55.901" y="-255.043" width="1325.98" height="1325.98"/>
<path d="M949.074 20.5558C952.731 14.413 960.688 12.3834 966.726 16.2111C1047.46 67.3901 1110.48 142.376 1146.96 230.961C1185.09 323.541 1192.18 425.985 1167.17 522.935C1142.16 619.884 1086.4 706.115 1008.24 768.699C930.092 831.283 833.758 866.849 733.687 870.063C633.615 873.278 535.198 843.968 453.19 786.528C371.182 729.089 310.002 646.614 278.822 551.47C247.642 456.325 248.143 353.637 280.25 258.802C310.971 168.058 369.044 89.1821 446.33 32.9271C452.11 28.7198 460.181 30.2345 464.225 36.13C468.269 42.0255 466.754 50.0683 460.981 54.2852C388.309 107.367 333.698 181.663 304.772 267.104C274.461 356.637 273.988 453.583 303.424 543.407C332.86 633.232 390.62 711.095 468.042 765.323C545.465 819.551 638.379 847.222 732.856 844.187C827.332 841.152 918.279 807.575 992.062 748.491C1065.84 689.406 1118.49 607.996 1142.1 516.468C1165.71 424.939 1159.02 328.223 1123.02 240.82C1088.67 157.412 1029.4 86.7734 953.476 38.4654C947.444 34.6278 945.416 26.6987 949.074 20.5558Z"/>
</mask>
<path d="M949.074 20.5558C952.731 14.413 960.688 12.3834 966.726 16.2111C1047.46 67.3901 1110.48 142.376 1146.96 230.961C1185.09 323.541 1192.18 425.985 1167.17 522.935C1142.16 619.884 1086.4 706.115 1008.24 768.699C930.092 831.283 833.758 866.849 733.687 870.063C633.615 873.278 535.198 843.968 453.19 786.528C371.182 729.089 310.002 646.614 278.822 551.47C247.642 456.325 248.143 353.637 280.25 258.802C310.971 168.058 369.044 89.1821 446.33 32.9271C452.11 28.7198 460.181 30.2345 464.225 36.13C468.269 42.0255 466.754 50.0683 460.981 54.2852C388.309 107.367 333.698 181.663 304.772 267.104C274.461 356.637 273.988 453.583 303.424 543.407C332.86 633.232 390.62 711.095 468.042 765.323C545.465 819.551 638.379 847.222 732.856 844.187C827.332 841.152 918.279 807.575 992.062 748.491C1065.84 689.406 1118.49 607.996 1142.1 516.468C1165.71 424.939 1159.02 328.223 1123.02 240.82C1088.67 157.412 1029.4 86.7734 953.476 38.4654C947.444 34.6278 945.416 26.6987 949.074 20.5558Z" fill="#12578D"/>
<path d="M949.074 20.5558C952.731 14.413 960.688 12.3834 966.726 16.2111C1047.46 67.3901 1110.48 142.376 1146.96 230.961C1185.09 323.541 1192.18 425.985 1167.17 522.935C1142.16 619.884 1086.4 706.115 1008.24 768.699C930.092 831.283 833.758 866.849 733.687 870.063C633.615 873.278 535.198 843.968 453.19 786.528C371.182 729.089 310.002 646.614 278.822 551.47C247.642 456.325 248.143 353.637 280.25 258.802C310.971 168.058 369.044 89.1821 446.33 32.9271C452.11 28.7198 460.181 30.2345 464.225 36.13C468.269 42.0255 466.754 50.0683 460.981 54.2852C388.309 107.367 333.698 181.663 304.772 267.104C274.461 356.637 273.988 453.583 303.424 543.407C332.86 633.232 390.62 711.095 468.042 765.323C545.465 819.551 638.379 847.222 732.856 844.187C827.332 841.152 918.279 807.575 992.062 748.491C1065.84 689.406 1118.49 607.996 1142.1 516.468C1165.71 424.939 1159.02 328.223 1123.02 240.82C1088.67 157.412 1029.4 86.7734 953.476 38.4654C947.444 34.6278 945.416 26.6987 949.074 20.5558Z" stroke="#12578D" stroke-width="15.9388" mask="url(#path-4-outside-3_488_9244)"/>
</svg>
