<svg width="1055" height="962" viewBox="0 0 1055 962" fill="none" xmlns="http://www.w3.org/2000/svg">
<mask id="mask0_507_9409" style="mask-type:alpha" maskUnits="userSpaceOnUse" x="0" y="0" width="1055" height="962">
<rect width="1055" height="962" fill="#D9D9D9"/>
</mask>
<g mask="url(#mask0_507_9409)">
<path d="M243 226.96C243 210.391 229.569 196.96 213 196.96C196.431 196.96 183 210.391 183 226.96C183 243.528 196.431 256.96 213 256.96C229.569 256.96 243 243.528 243 226.96Z" fill="white"/>
<path d="M227 838C227 830.268 220.732 824 213 824C205.268 824 199 830.268 199 838C199 845.732 205.268 852 213 852C220.732 852 227 845.732 227 838Z" fill="#00BB4F"/>
<path d="M875 158.155C875 151.251 869.404 145.655 862.5 145.655C855.596 145.655 850 151.251 850 158.155C850 165.059 855.596 170.655 862.5 170.655C869.404 170.655 875 165.059 875 158.155Z" fill="#E61E24"/>
<path d="M1045 800C1049.42 800 1053 803.582 1053 808C1053 812.418 1049.42 816 1045 816C1040.58 816 1037 812.418 1037 808C1037 803.582 1040.58 800 1045 800Z" stroke="white" stroke-opacity="0.5" stroke-width="4"/>
<path d="M863 962C863 949.8 858.154 938.1 849.527 929.473C840.9 920.846 829.2 916 817 916C804.8 916 793.1 920.846 784.473 929.473C775.846 938.1 771 949.8 771 962L817 962H863Z" fill="#39AE4A"/>
</g>
</svg>
