<svg width="1440" height="900" viewBox="0 0 1440 900" fill="none" xmlns="http://www.w3.org/2000/svg">
<path d="M1271.55 846.713C1280.19 853.674 1281.57 866.34 1274.37 874.778C1166.86 1000.8 1019.13 1086.17 855.968 1116.1C686.217 1147.24 511.079 1116.32 362.504 1028.96C213.929 941.608 101.82 803.65 46.6311 640.255C-8.55797 476.86 -3.14941 298.92 61.8702 138.897C126.89 -21.1264 247.187 -152.566 400.814 -231.443C554.442 -310.32 731.16 -331.377 898.73 -290.773C1066.3 -250.168 1213.55 -150.608 1313.62 -10.2565C1409.81 124.653 1456.24 288.608 1445.43 453.776C1444.71 464.835 1434.91 472.954 1423.87 471.948C1412.8 470.938 1404.68 461.128 1405.39 450.033C1415.29 294.51 1371.45 140.193 1280.87 13.1563C1186.4 -119.348 1047.38 -213.341 889.179 -251.675C730.978 -290.009 564.141 -270.129 419.103 -195.663C274.066 -121.196 160.495 2.89427 99.111 153.97C37.727 305.045 32.6208 473.036 84.7241 627.295C136.827 781.553 242.667 911.798 382.935 994.268C523.202 1076.74 688.548 1105.93 848.807 1076.53C1002.48 1048.34 1141.65 968.069 1243.08 849.559C1250.3 841.133 1262.92 839.752 1271.55 846.713Z" fill="#D1872A"/>
<g opacity="0.5">
<mask id="path-2-outside-1_174_11892" maskUnits="userSpaceOnUse" x="-97.2912" y="-411.221" width="1655.24" height="1659.02" fill="black">
<rect fill="white" x="-97.2912" y="-411.221" width="1655.24" height="1659.02"/>
<path d="M637.267 -160.47C635.944 -169.536 642.221 -177.983 651.32 -179.052C776.101 -193.719 902.484 -168.406 1012.16 -106.528C1126.65 -41.9288 1216.46 58.8633 1267.47 180.025C1318.48 301.187 1327.81 435.859 1293.99 562.898C1260.18 689.937 1185.13 802.149 1080.64 881.92C976.143 961.69 848.117 1004.5 716.658 1003.63C585.199 1002.76 457.75 958.264 354.319 877.12C250.889 795.975 177.334 682.78 145.201 555.306C114.422 433.2 123.318 304.615 170.359 188.113C173.789 179.618 183.591 175.789 191.988 179.456C200.384 183.122 204.193 192.894 200.777 201.395C156.67 311.155 148.39 432.218 177.373 547.196C207.709 667.543 277.151 774.409 374.799 851.016C472.446 927.624 592.768 969.635 716.877 970.455C840.986 971.276 961.854 930.858 1060.5 855.548C1159.16 780.238 1230.01 674.299 1261.93 554.364C1293.85 434.428 1285.04 307.287 1236.89 192.899C1188.73 78.5119 1103.95 -16.6445 995.854 -77.6313C892.583 -135.897 773.619 -159.822 656.114 -146.208C647.013 -145.154 638.591 -151.404 637.267 -160.47Z"/>
</mask>
<path d="M637.267 -160.47C635.944 -169.536 642.221 -177.983 651.32 -179.052C776.101 -193.719 902.484 -168.406 1012.16 -106.528C1126.65 -41.9288 1216.46 58.8633 1267.47 180.025C1318.48 301.187 1327.81 435.859 1293.99 562.898C1260.18 689.937 1185.13 802.149 1080.64 881.92C976.143 961.69 848.117 1004.5 716.658 1003.63C585.199 1002.76 457.75 958.264 354.319 877.12C250.889 795.975 177.334 682.78 145.201 555.306C114.422 433.2 123.318 304.615 170.359 188.113C173.789 179.618 183.591 175.789 191.988 179.456C200.384 183.122 204.193 192.894 200.777 201.395C156.67 311.155 148.39 432.218 177.373 547.196C207.709 667.543 277.151 774.409 374.799 851.016C472.446 927.624 592.768 969.635 716.877 970.455C840.986 971.276 961.854 930.858 1060.5 855.548C1159.16 780.238 1230.01 674.299 1261.93 554.364C1293.85 434.428 1285.04 307.287 1236.89 192.899C1188.73 78.5119 1103.95 -16.6445 995.854 -77.6313C892.583 -135.897 773.619 -159.822 656.114 -146.208C647.013 -145.154 638.591 -151.404 637.267 -160.47Z" fill="#D1872A"/>
<path d="M637.267 -160.47C635.944 -169.536 642.221 -177.983 651.32 -179.052C776.101 -193.719 902.484 -168.406 1012.16 -106.528C1126.65 -41.9288 1216.46 58.8633 1267.47 180.025C1318.48 301.187 1327.81 435.859 1293.99 562.898C1260.18 689.937 1185.13 802.149 1080.64 881.92C976.143 961.69 848.117 1004.5 716.658 1003.63C585.199 1002.76 457.75 958.264 354.319 877.12C250.889 795.975 177.334 682.78 145.201 555.306C114.422 433.2 123.318 304.615 170.359 188.113C173.789 179.618 183.591 175.789 191.988 179.456C200.384 183.122 204.193 192.894 200.777 201.395C156.67 311.155 148.39 432.218 177.373 547.196C207.709 667.543 277.151 774.409 374.799 851.016C472.446 927.624 592.768 969.635 716.877 970.455C840.986 971.276 961.854 930.858 1060.5 855.548C1159.16 780.238 1230.01 674.299 1261.93 554.364C1293.85 434.428 1285.04 307.287 1236.89 192.899C1188.73 78.5119 1103.95 -16.6445 995.854 -77.6313C892.583 -135.897 773.619 -159.822 656.114 -146.208C647.013 -145.154 638.591 -151.404 637.267 -160.47Z" stroke="#D1872A" stroke-width="3.1689" mask="url(#path-2-outside-1_174_11892)"/>
</g>
<g opacity="0.5">
<mask id="path-3-outside-2_174_11892" maskUnits="userSpaceOnUse" x="232.862" y="-109.864" width="920.374" height="937.13" fill="black">
<rect fill="white" x="232.862" y="-109.864" width="920.374" height="937.13"/>
<path d="M456.816 605.719C452.432 609.059 446.151 608.182 442.995 603.663C414.456 562.801 395.151 515.978 386.447 466.377C377.159 413.456 380.189 358.799 395.3 306.65C410.411 254.501 437.197 206.266 473.577 165.691C509.957 125.116 554.95 93.2936 605.063 72.6964C655.176 52.0993 709.058 43.2816 762.524 46.9286C815.99 50.5755 867.601 66.5888 913.346 93.7245C959.091 120.86 997.739 158.388 1026.29 203.392C1053.15 245.731 1070.39 293.615 1076.86 343.728C1077.54 348.996 1073.75 353.747 1068.48 354.415C1063.02 355.107 1058.08 351.163 1057.36 345.709C1051.15 298.766 1034.92 253.919 1009.75 214.232C982.794 171.744 946.307 136.315 903.12 110.696C859.933 85.0781 811.209 69.9601 760.732 66.5171C710.255 63.074 659.386 71.3986 612.075 90.8441C564.764 110.29 522.286 140.333 487.941 178.639C453.595 216.945 428.307 262.484 414.041 311.716C399.775 360.949 396.914 412.551 405.682 462.512C413.881 509.231 432.041 553.34 458.882 591.855C461.981 596.302 461.128 602.435 456.816 605.719Z"/>
</mask>
<path d="M456.816 605.719C452.432 609.059 446.151 608.182 442.995 603.663C414.456 562.801 395.151 515.978 386.447 466.377C377.159 413.456 380.189 358.799 395.3 306.65C410.411 254.501 437.197 206.266 473.577 165.691C509.957 125.116 554.95 93.2936 605.063 72.6964C655.176 52.0993 709.058 43.2816 762.524 46.9286C815.99 50.5755 867.601 66.5888 913.346 93.7245C959.091 120.86 997.739 158.388 1026.29 203.392C1053.15 245.731 1070.39 293.615 1076.86 343.728C1077.54 348.996 1073.75 353.747 1068.48 354.415C1063.02 355.107 1058.08 351.163 1057.36 345.709C1051.15 298.766 1034.92 253.919 1009.75 214.232C982.794 171.744 946.307 136.315 903.12 110.696C859.933 85.0781 811.209 69.9601 760.732 66.5171C710.255 63.074 659.386 71.3986 612.075 90.8441C564.764 110.29 522.286 140.333 487.941 178.639C453.595 216.945 428.307 262.484 414.041 311.716C399.775 360.949 396.914 412.551 405.682 462.512C413.881 509.231 432.041 553.34 458.882 591.855C461.981 596.302 461.128 602.435 456.816 605.719Z" fill="#D1872A"/>
<path d="M456.816 605.719C452.432 609.059 446.151 608.182 442.995 603.663C414.456 562.801 395.151 515.978 386.447 466.377C377.159 413.456 380.189 358.799 395.3 306.65C410.411 254.501 437.197 206.266 473.577 165.691C509.957 125.116 554.95 93.2936 605.063 72.6964C655.176 52.0993 709.058 43.2816 762.524 46.9286C815.99 50.5755 867.601 66.5888 913.346 93.7245C959.091 120.86 997.739 158.388 1026.29 203.392C1053.15 245.731 1070.39 293.615 1076.86 343.728C1077.54 348.996 1073.75 353.747 1068.48 354.415C1063.02 355.107 1058.08 351.163 1057.36 345.709C1051.15 298.766 1034.92 253.919 1009.75 214.232C982.794 171.744 946.307 136.315 903.12 110.696C859.933 85.0781 811.209 69.9601 760.732 66.5171C710.255 63.074 659.386 71.3986 612.075 90.8441C564.764 110.29 522.286 140.333 487.941 178.639C453.595 216.945 428.307 262.484 414.041 311.716C399.775 360.949 396.914 412.551 405.682 462.512C413.881 509.231 432.041 553.34 458.882 591.855C461.981 596.302 461.128 602.435 456.816 605.719Z" stroke="#D1872A" stroke-width="18.993" mask="url(#path-3-outside-2_174_11892)"/>
</g>
<mask id="path-4-outside-3_174_11892" maskUnits="userSpaceOnUse" x="54.901" y="-255.043" width="1325.98" height="1325.98" fill="black">
<rect fill="white" x="54.901" y="-255.043" width="1325.98" height="1325.98"/>
<path d="M948.074 20.5558C951.731 14.413 959.688 12.3834 965.726 16.2111C1046.46 67.3901 1109.48 142.376 1145.96 230.961C1184.09 323.541 1191.18 425.985 1166.17 522.935C1141.16 619.884 1085.4 706.115 1007.24 768.699C929.092 831.283 832.758 866.849 732.687 870.063C632.615 873.278 534.198 843.968 452.19 786.528C370.181 729.089 309.001 646.614 277.822 551.47C246.642 456.325 247.143 353.637 279.25 258.802C309.971 168.058 368.044 89.1821 445.33 32.9271C451.11 28.7198 459.181 30.2345 463.225 36.13C467.269 42.0255 465.754 50.0683 459.981 54.2852C387.309 107.367 332.698 181.663 303.772 267.104C273.461 356.637 272.988 453.583 302.424 543.407C331.86 633.232 389.62 711.095 467.042 765.323C544.465 819.551 637.379 847.222 731.856 844.187C826.332 841.152 917.279 807.575 991.062 748.491C1064.84 689.406 1117.49 607.996 1141.1 516.468C1164.71 424.939 1158.02 328.223 1122.02 240.82C1087.67 157.412 1028.4 86.7734 952.476 38.4654C946.444 34.6278 944.416 26.6987 948.074 20.5558Z"/>
</mask>
<path d="M948.074 20.5558C951.731 14.413 959.688 12.3834 965.726 16.2111C1046.46 67.3901 1109.48 142.376 1145.96 230.961C1184.09 323.541 1191.18 425.985 1166.17 522.935C1141.16 619.884 1085.4 706.115 1007.24 768.699C929.092 831.283 832.758 866.849 732.687 870.063C632.615 873.278 534.198 843.968 452.19 786.528C370.181 729.089 309.001 646.614 277.822 551.47C246.642 456.325 247.143 353.637 279.25 258.802C309.971 168.058 368.044 89.1821 445.33 32.9271C451.11 28.7198 459.181 30.2345 463.225 36.13C467.269 42.0255 465.754 50.0683 459.981 54.2852C387.309 107.367 332.698 181.663 303.772 267.104C273.461 356.637 272.988 453.583 302.424 543.407C331.86 633.232 389.62 711.095 467.042 765.323C544.465 819.551 637.379 847.222 731.856 844.187C826.332 841.152 917.279 807.575 991.062 748.491C1064.84 689.406 1117.49 607.996 1141.1 516.468C1164.71 424.939 1158.02 328.223 1122.02 240.82C1087.67 157.412 1028.4 86.7734 952.476 38.4654C946.444 34.6278 944.416 26.6987 948.074 20.5558Z" fill="#D1872A"/>
<path d="M948.074 20.5558C951.731 14.413 959.688 12.3834 965.726 16.2111C1046.46 67.3901 1109.48 142.376 1145.96 230.961C1184.09 323.541 1191.18 425.985 1166.17 522.935C1141.16 619.884 1085.4 706.115 1007.24 768.699C929.092 831.283 832.758 866.849 732.687 870.063C632.615 873.278 534.198 843.968 452.19 786.528C370.181 729.089 309.001 646.614 277.822 551.47C246.642 456.325 247.143 353.637 279.25 258.802C309.971 168.058 368.044 89.1821 445.33 32.9271C451.11 28.7198 459.181 30.2345 463.225 36.13C467.269 42.0255 465.754 50.0683 459.981 54.2852C387.309 107.367 332.698 181.663 303.772 267.104C273.461 356.637 272.988 453.583 302.424 543.407C331.86 633.232 389.62 711.095 467.042 765.323C544.465 819.551 637.379 847.222 731.856 844.187C826.332 841.152 917.279 807.575 991.062 748.491C1064.84 689.406 1117.49 607.996 1141.1 516.468C1164.71 424.939 1158.02 328.223 1122.02 240.82C1087.67 157.412 1028.4 86.7734 952.476 38.4654C946.444 34.6278 944.416 26.6987 948.074 20.5558Z" stroke="#D1872A" stroke-width="15.9388" mask="url(#path-4-outside-3_174_11892)"/>
</svg>
