<svg width="1286" height="706" viewBox="0 0 1286 706" fill="none" xmlns="http://www.w3.org/2000/svg">
<mask id="mask0_507_9401" style="mask-type:alpha" maskUnits="userSpaceOnUse" x="0" y="0" width="1286" height="706">
<rect width="1286" height="706" fill="#D9D9D9"/>
</mask>
<g mask="url(#mask0_507_9401)">
<path d="M209 76.9384C209 61.1755 195.569 48.3972 179 48.3972C162.431 48.3972 149 61.1755 149 76.9384C149 92.7013 162.431 105.48 179 105.48C195.569 105.48 209 92.7013 209 76.9384Z" fill="white"/>
<path d="M193 658.266C193 650.91 186.732 644.947 179 644.947C171.268 644.947 165 650.91 165 658.266C165 665.622 171.268 671.586 179 671.586C186.732 671.586 193 665.622 193 658.266Z" fill="#00BB4F"/>
<path d="M841 11.4794C841 4.91154 835.404 -0.412774 828.5 -0.412774C821.596 -0.412773 816 4.91154 816 11.4794C816 18.0473 821.596 23.3716 828.5 23.3716C835.404 23.3716 841 18.0473 841 11.4794Z" fill="#E61E24"/>
<path d="M10 251.176C14.5134 251.176 18 254.632 18 258.689C18 262.746 14.5134 266.203 10 266.203C5.48661 266.203 2 262.746 2 258.689C2 254.632 5.48661 251.176 10 251.176Z" stroke="#161616" stroke-width="4"/>
<path d="M1011 622.211C1015.51 622.211 1019 625.668 1019 629.725C1019 633.782 1015.51 637.239 1011 637.239C1006.49 637.239 1003 633.782 1003 629.725C1003 625.668 1006.49 622.211 1011 622.211Z" stroke="white" stroke-opacity="0.5" stroke-width="4"/>
<path d="M1286 2.99999C1273.8 2.99999 1262.1 7.84641 1253.47 16.4731C1244.85 25.0998 1240 36.8 1240 49C1240 61.1999 1244.85 72.9002 1253.47 81.5269C1262.1 90.1536 1273.8 95 1286 95L1286 49L1286 2.99999Z" fill="#161616"/>
</g>
</svg>
