<svg width="1036" height="808" viewBox="0 0 1036 808" fill="none" xmlns="http://www.w3.org/2000/svg">
<mask id="mask0_507_9386" style="mask-type:alpha" maskUnits="userSpaceOnUse" x="0" y="0" width="1036" height="808">
<rect width="1036" height="808" fill="#D9D9D9"/>
</mask>
<g mask="url(#mask0_507_9386)">
<path d="M209 80.2044C209 63.7897 195.569 50.4829 179 50.4829C162.431 50.4829 149 63.7897 149 80.2044C149 96.6191 162.431 109.926 179 109.926C195.569 109.926 209 96.6191 209 80.2044Z" fill="#FFB325"/>
<path d="M177 719.905C177 712.245 170.732 706.035 163 706.035C155.268 706.035 149 712.245 149 719.905C149 727.565 155.268 733.775 163 733.775C170.732 733.775 177 727.565 177 719.905Z" fill="#00BB4F"/>
<path d="M841 12.039C841 5.19956 835.404 -0.34492 828.5 -0.34492C821.596 -0.344919 816 5.19956 816 12.039C816 18.8785 821.596 24.423 828.5 24.423C835.404 24.423 841 18.8785 841 12.039Z" fill="#E61E24"/>
<path d="M10 261.564C14.4359 261.564 18 265.122 18 269.471C18 273.821 14.4359 277.379 10 277.379C5.56409 277.379 2 273.821 2 269.471C2 265.122 5.56409 261.564 10 261.564Z" stroke="#161616" stroke-width="4"/>
<path d="M1011 647.944C1015.44 647.944 1019 651.502 1019 655.852C1019 660.201 1015.44 663.759 1011 663.759C1006.56 663.759 1003 660.201 1003 655.852C1003 651.502 1006.56 647.944 1011 647.944Z" stroke="white" stroke-opacity="0.5" stroke-width="4"/>
<path d="M1036 808.422C1036 796.335 1031.15 784.744 1022.53 776.197C1013.9 767.65 1002.2 762.849 990 762.849C977.8 762.849 966.1 767.65 957.473 776.197C948.846 784.744 944 796.335 944 808.422L990 808.422H1036Z" fill="#2CB4E2"/>
</g>
</svg>
