<svg width="281" height="236" viewBox="0 0 281 236" fill="none" xmlns="http://www.w3.org/2000/svg">
<path d="M361.136 229.317C360.377 231.467 358.854 233.348 356.704 234.51C352.096 236.997 346.33 235.278 343.823 230.663C310.4 168.803 261.231 116.595 201.673 79.7265C143.876 43.9545 77.4374 23.1223 9.54348 19.4732C4.31113 19.1856 0.284886 14.7131 0.572501 9.48076C0.860115 4.24842 5.3326 0.22219 10.5649 0.509804C81.6508 4.33647 151.187 26.1264 211.691 63.5773C274.089 102.194 325.554 156.863 360.55 221.629C361.875 224.086 362.001 226.865 361.143 229.297L361.136 229.317Z" fill="#F3F3F3"/>
</svg>
