<svg width="1440" height="1284" viewBox="0 0 1440 1284" fill="none" xmlns="http://www.w3.org/2000/svg">
<path d="M1479.14 465.638C1476.88 462.838 1473.96 460.577 1470.46 459.045C1459 454.167 1445.72 459.458 1440.84 470.915C1362.06 655.017 1234.49 814.713 1071.95 932.715C1061.87 940.044 1059.62 954.127 1066.95 964.208C1074.25 974.25 1088.36 976.537 1098.44 969.207C1267.58 846.415 1400.32 680.224 1482.33 488.661C1485.74 480.716 1484.21 471.947 1479.14 465.638Z" fill="#F3F3F3" fill-opacity="0.06"/>
<path d="M1362.78 24.3913C1379.53 10.9204 1404.02 13.5772 1417.5 30.3255C1430.97 47.0738 1428.31 71.5714 1411.56 85.0423C1394.81 98.5132 1370.32 95.8564 1356.84 79.1081C1343.37 62.3598 1346.03 37.8623 1362.78 24.3913Z" fill="#F3F3F3" fill-opacity="0.06"/>
<path d="M810.95 929.684C815.714 941.179 810.216 954.369 798.721 959.133C628.471 1029.43 436.768 1050.99 254.387 1022.07L126.028 947.959C167.468 960.48 223.397 970.887 266.743 977.784C440.949 1005.42 618.94 984.557 781.468 917.416C790.927 913.51 801.541 916.533 807.631 924.104C808.963 925.761 810.059 927.607 810.918 929.644L810.95 929.684Z" fill="#F3F3F3" fill-opacity="0.06"/>
<path d="M754.465 784.42C759.229 795.915 753.834 809.152 742.339 813.917C597.758 874.222 439.276 893.101 284.141 868.501C183.328 852.492 87.5026 819.027 -0.659655 769.007C-30.109 752.004 -78.0296 724.337 -99.3809 705.985C-156.052 661.856 -113.693 628.012 -80.5357 657.535C-38.4214 695.038 -27.6374 701.794 21.6284 729.778C105.081 777.091 195.803 808.815 291.24 823.953C438.128 847.263 588.148 829.41 725 772.334C734.497 768.396 745.151 771.387 751.273 778.998C752.574 780.615 753.669 782.462 754.496 784.459L754.465 784.42Z" fill="#F3F3F3" fill-opacity="0.06"/>
<path d="M1403.94 170.453C1400.55 166.234 1395.66 163.22 1389.93 162.31C1377.65 160.366 1366.08 168.759 1364.1 181.07C1337.93 345.969 1268.89 501.647 1164.5 631.138C1063.19 756.788 930.757 855.773 781.532 917.411C770.037 922.175 764.539 935.365 769.304 946.86C774.068 958.356 787.258 963.853 798.753 959.089C954.989 894.54 1093.61 790.97 1199.66 659.428C1309.04 523.783 1381.29 360.786 1408.68 188.137C1409.72 181.59 1407.81 175.264 1403.98 170.493L1403.94 170.453Z" fill="#F3F3F3" fill-opacity="0.06"/>
</svg>
