<svg width="1714" height="1284" viewBox="0 0 1714 1284" fill="none" xmlns="http://www.w3.org/2000/svg">
<path d="M1616.14 465.638C1613.88 462.838 1610.96 460.577 1607.46 459.045C1596 454.167 1582.72 459.458 1577.84 470.915C1499.06 655.017 1371.49 814.713 1208.95 932.715C1198.87 940.044 1196.62 954.127 1203.95 964.208C1211.25 974.25 1225.36 976.537 1235.44 969.207C1404.58 846.415 1537.32 680.224 1619.33 488.661C1622.74 480.716 1621.21 471.947 1616.14 465.638V465.638Z" fill="#F3F3F3" fill-opacity="0.06"/>
<path d="M1499.78 24.3913C1516.53 10.9204 1541.02 13.5772 1554.5 30.3255C1567.97 47.0738 1565.31 71.5714 1548.56 85.0423C1531.81 98.5132 1507.32 95.8564 1493.84 79.1081C1480.37 62.3598 1483.03 37.8623 1499.78 24.3913Z" fill="#F3F3F3" fill-opacity="0.06"/>
<path d="M947.95 929.684C952.714 941.179 947.216 954.369 935.721 959.133C765.471 1029.43 573.768 1050.99 391.387 1022.07L263.028 947.959C304.468 960.48 360.397 970.887 403.743 977.784C577.949 1005.42 755.94 984.557 918.468 917.416C927.927 913.51 938.541 916.533 944.631 924.104C945.963 925.761 947.059 927.607 947.918 929.644L947.95 929.684Z" fill="#F3F3F3" fill-opacity="0.06"/>
<path d="M891.465 784.42C896.229 795.915 890.834 809.152 879.339 813.917C734.758 874.222 576.276 893.101 421.141 868.501C320.328 852.492 224.503 819.027 136.34 769.007C106.891 752.005 58.9704 724.338 37.6191 705.986C-19.052 661.856 23.3069 628.012 56.4643 657.535C98.5786 695.038 109.363 701.794 158.628 729.778C242.081 777.091 332.803 808.816 428.24 823.953C575.128 847.263 725.148 829.41 862 772.334C871.497 768.396 882.151 771.388 888.273 778.999C889.574 780.615 890.669 782.462 891.496 784.459L891.465 784.42Z" fill="#F3F3F3" fill-opacity="0.06"/>
<path d="M1540.94 170.453C1537.55 166.234 1532.66 163.219 1526.93 162.31C1514.65 160.366 1503.08 168.759 1501.1 181.07C1474.93 345.969 1405.89 501.647 1301.5 631.138C1200.19 756.788 1067.76 855.773 918.532 917.411C907.037 922.175 901.539 935.365 906.304 946.86C911.068 958.355 924.258 963.853 935.753 959.089C1091.99 894.54 1230.61 790.97 1336.66 659.428C1446.04 523.783 1518.29 360.785 1545.68 188.137C1546.72 181.59 1544.81 175.264 1540.98 170.493L1540.94 170.453Z" fill="#F3F3F3" fill-opacity="0.06"/>
<path d="M1142 413C1142 409.134 1138.87 406 1135 406C1131.13 406 1128 409.134 1128 413C1128 416.866 1131.13 420 1135 420C1138.87 420 1142 416.866 1142 413Z" fill="#F4A93A"/>
<path d="M1007 465.5C1007 458.596 1001.4 453 994.5 453C987.596 453 982 458.596 982 465.5C982 472.403 987.596 478 994.5 478C1001.4 478 1007 472.403 1007 465.5Z" fill="#E61E24"/>
<path opacity="0.5" d="M1063 1134C1072.94 1134 1081 1142.06 1081 1152C1081 1161.94 1072.94 1170 1063 1170C1053.06 1170 1045 1161.94 1045 1152C1045 1142.06 1053.06 1134 1063 1134Z" stroke="white" stroke-width="4"/>
<path d="M925 1207C925 1203.13 921.866 1200 918 1200C914.134 1200 911 1203.13 911 1207C911 1210.87 914.134 1214 918 1214C921.866 1214 925 1210.87 925 1207Z" fill="#28A4DB"/>
<path d="M401 137C401 133.134 397.866 130 394 130C390.134 130 387 133.134 387 137C387 140.866 390.134 144 394 144C397.866 144 401 140.866 401 137Z" fill="#28A4DB"/>
</svg>
