<?xml version="1.0" encoding="UTF-8"?><svg id="Layer_1" xmlns="http://www.w3.org/2000/svg" width="280" height="100" viewBox="0 0 280 100"><defs><style>.cls-1{fill:#fff;}.cls-2{fill:#f0f3f5;}.cls-3{fill:#f15d40;}.cls-4{fill:#2b3a4d;}.cls-5{fill:#4e4540;}.cls-6{fill:none;stroke:#f0f3f5;stroke-miterlimit:10;stroke-width:2px;}</style></defs><rect class="cls-1" x="5" y="5" width="270" height="90" rx="10" ry="10"/><g><g><path class="cls-2" d="M6,14H76c5.52,0,10,4.48,10,10v62H-4V24C-4,18.48,.48,14,6,14Z" transform="translate(-9 91) rotate(-90)"/><g><path class="cls-5" d="M30.39,40.54v.97h-4.57v-7.11h1.18v6.14h3.39Z"/><path class="cls-5" d="M33.46,38.32v2.22h3.43v.97h-4.61v-7.11h4.58v.97h-3.41v2h2.94v.95h-2.94Z"/><path class="cls-5" d="M39.94,39.87l-.48,1.64h-1.22l2.31-7.11h1.04l2.28,7.11h-1.22l-.48-1.64h-2.23Zm1.94-1.01l-.82-2.81-.83,2.81h1.65Z"/><path class="cls-5" d="M46.41,38.75v2.76h-1.17v-7.11h2.26c.37,0,.71,.05,1.02,.14,.31,.09,.58,.22,.8,.4,.22,.18,.39,.4,.52,.67,.12,.26,.19,.58,.19,.93,0,.24-.03,.47-.1,.66s-.15,.38-.27,.54c-.11,.16-.25,.3-.41,.42-.16,.12-.34,.22-.53,.31l1.52,2.97v.06h-1.25l-1.36-2.76h-1.2Zm1.1-.96c.21,0,.4-.04,.56-.09,.17-.06,.31-.15,.43-.26,.1-.1,.19-.22,.24-.36s.09-.31,.09-.49c0-.21-.03-.38-.1-.54-.06-.16-.16-.28-.28-.39-.11-.1-.25-.17-.42-.22-.16-.05-.35-.08-.55-.08h-1.08v2.44h1.1Z"/><path class="cls-5" d="M55.13,41.51l-2.31-4.89v4.89h-1.19v-7.11h1.19l2.29,4.87v-4.87h1.19v7.11h-1.18Z"/><path class="cls-5" d="M27.99,49.44l.97-3.04h1.46v7.11h-1.1v-2.41l.07-3.17-1.09,3.39h-.61l-.99-3.28,.06,3.06v2.41h-1.1v-7.11h1.46l.88,3.04Z"/><path class="cls-5" d="M36.96,51.25c-.05,.27-.12,.52-.22,.76-.1,.24-.23,.46-.38,.66-.15,.2-.32,.37-.52,.52-.19,.13-.4,.23-.63,.31s-.48,.11-.75,.11-.54-.04-.78-.12c-.24-.08-.45-.19-.63-.33-.19-.14-.35-.32-.5-.52s-.26-.42-.35-.66c-.09-.23-.16-.48-.21-.74-.05-.26-.07-.53-.07-.81v-.94c0-.29,.02-.57,.07-.84s.12-.53,.22-.77c.09-.23,.21-.44,.35-.64,.14-.19,.3-.36,.49-.51,.18-.14,.39-.25,.62-.32,.23-.08,.49-.12,.77-.12s.54,.04,.78,.12c.24,.08,.45,.19,.64,.33,.19,.14,.35,.3,.49,.49,.14,.19,.26,.4,.35,.62,.1,.24,.18,.5,.23,.77,.05,.27,.08,.56,.08,.86v.94c0,.29-.03,.56-.08,.83Zm-1.14-2.3c-.02-.17-.05-.34-.09-.49-.05-.18-.11-.34-.19-.49-.08-.15-.18-.27-.29-.38-.1-.09-.22-.16-.35-.21-.13-.05-.28-.08-.44-.08s-.3,.03-.43,.08c-.13,.05-.24,.12-.33,.21-.11,.11-.21,.24-.29,.38-.08,.15-.14,.31-.18,.5-.04,.16-.07,.32-.09,.5-.02,.17-.03,.35-.03,.52v.95c0,.17,0,.34,.02,.51,.02,.17,.04,.33,.08,.49,.04,.18,.1,.34,.17,.49,.07,.15,.16,.28,.27,.38,.1,.1,.22,.17,.35,.23,.13,.06,.28,.09,.46,.09s.32-.03,.45-.08c.14-.06,.25-.13,.35-.22,.11-.11,.21-.24,.29-.38,.08-.15,.14-.31,.18-.49,.04-.16,.07-.32,.08-.49,.02-.17,.03-.34,.03-.52v-.95c0-.18-.01-.35-.03-.53Z"/><path class="cls-5" d="M39.91,50.75v2.76h-1.17v-7.11h2.26c.37,0,.71,.05,1.02,.14,.31,.09,.58,.22,.8,.4,.22,.18,.39,.4,.52,.67,.12,.26,.19,.58,.19,.93,0,.24-.03,.47-.1,.66s-.15,.38-.27,.54c-.11,.16-.25,.3-.41,.42-.16,.12-.34,.22-.53,.31l1.52,2.97v.06h-1.25l-1.36-2.76h-1.2Zm1.1-.96c.21,0,.4-.04,.56-.09,.17-.06,.31-.15,.43-.26,.1-.1,.19-.22,.24-.36s.09-.31,.09-.49c0-.21-.03-.38-.1-.54-.06-.16-.16-.28-.28-.39-.11-.1-.25-.17-.42-.22-.16-.05-.35-.08-.55-.08h-1.08v2.44h1.1Z"/><path class="cls-5" d="M46.46,50.32v2.22h3.43v.97h-4.61v-7.11h4.58v.97h-3.41v2h2.94v.95h-2.94Z"/><path class="cls-5" d="M26.94,63.87l-.48,1.64h-1.22l2.31-7.11h1.04l2.28,7.11h-1.22l-.48-1.64h-2.23Zm1.94-1.01l-.82-2.81-.83,2.81h1.65Z"/><path class="cls-5" d="M32.21,58.4h2.28c.34,0,.67,.04,.97,.12,.3,.08,.56,.19,.79,.35,.22,.16,.39,.36,.52,.6,.13,.24,.19,.53,.19,.86,0,.2-.04,.39-.11,.56-.07,.17-.16,.33-.29,.46-.09,.1-.19,.18-.3,.26-.11,.07-.24,.14-.38,.2h0c.21,.07,.39,.15,.54,.25,.15,.11,.27,.23,.38,.36,.1,.14,.18,.3,.24,.48,.05,.17,.08,.36,.08,.55,0,.34-.06,.64-.18,.89-.12,.26-.29,.47-.51,.64-.22,.18-.48,.31-.78,.4-.3,.09-.63,.13-.98,.13h-2.46v-7.11Zm2.3,3c.19,0,.37-.03,.53-.08s.3-.12,.41-.21c.1-.08,.18-.19,.24-.31s.09-.26,.09-.42c0-.17-.03-.31-.08-.43-.05-.12-.13-.22-.23-.3-.11-.1-.25-.17-.42-.21-.17-.04-.35-.07-.55-.07h-1.11v2.03h1.12Zm-1.12,3.14h1.29c.19,0,.35-.03,.51-.08,.15-.05,.28-.12,.39-.21,.12-.09,.21-.21,.27-.35,.06-.14,.1-.29,.1-.46,0-.18-.03-.34-.08-.48-.05-.14-.13-.26-.23-.35-.1-.1-.23-.17-.38-.23-.15-.05-.32-.08-.51-.09h-1.35v2.25Z"/><path class="cls-5" d="M43.46,63.25c-.05,.27-.12,.52-.22,.76-.1,.24-.23,.46-.38,.66-.15,.2-.32,.37-.52,.52-.19,.13-.4,.23-.63,.31s-.48,.11-.75,.11-.54-.04-.78-.12c-.24-.08-.45-.19-.63-.33-.19-.14-.35-.32-.5-.52s-.26-.42-.35-.66c-.09-.23-.16-.48-.21-.74-.05-.26-.07-.53-.07-.81v-.94c0-.29,.02-.57,.07-.84s.12-.53,.22-.77c.09-.23,.21-.44,.35-.64,.14-.19,.3-.36,.49-.51,.18-.14,.39-.25,.62-.32,.23-.08,.49-.12,.77-.12s.54,.04,.78,.12c.24,.08,.45,.19,.64,.33,.19,.14,.35,.3,.49,.49,.14,.19,.26,.4,.35,.62,.1,.24,.18,.5,.23,.77,.05,.27,.08,.56,.08,.86v.94c0,.29-.03,.56-.08,.83Zm-1.14-2.3c-.02-.17-.05-.34-.09-.49-.05-.18-.11-.34-.19-.49-.08-.15-.18-.27-.29-.38-.1-.09-.22-.16-.35-.21-.13-.05-.28-.08-.44-.08s-.3,.03-.43,.08c-.13,.05-.24,.12-.33,.21-.11,.11-.21,.24-.29,.38-.08,.15-.14,.31-.18,.5-.04,.16-.07,.32-.09,.5-.02,.17-.03,.35-.03,.52v.95c0,.17,0,.34,.02,.51,.02,.17,.04,.33,.08,.49,.04,.18,.1,.34,.17,.49,.07,.15,.16,.28,.27,.38,.1,.1,.22,.17,.35,.23,.13,.06,.28,.09,.46,.09s.32-.03,.45-.08c.14-.06,.25-.13,.35-.22,.11-.11,.21-.24,.29-.38,.08-.15,.14-.31,.18-.49,.04-.16,.07-.32,.08-.49,.02-.17,.03-.34,.03-.52v-.95c0-.18-.01-.35-.03-.53Z"/><path class="cls-5" d="M49.85,63.15c0,.37-.06,.7-.17,1-.11,.3-.27,.56-.48,.77-.21,.21-.46,.38-.75,.5-.29,.12-.62,.18-.98,.18s-.68-.06-.96-.17c-.29-.12-.53-.28-.73-.5-.21-.21-.36-.47-.48-.78s-.17-.64-.17-1.01v-4.76h1.17v4.76c.01,.22,.04,.43,.09,.62,.05,.19,.13,.35,.23,.48,.1,.12,.22,.22,.36,.29,.14,.07,.31,.1,.5,.1s.36-.04,.51-.1c.15-.07,.27-.17,.37-.3,.1-.13,.18-.29,.23-.48,.05-.18,.08-.39,.09-.61v-4.76h1.17v4.76Z"/><path class="cls-5" d="M54.57,59.37v6.14h-1.17v-6.14h-2.18v-.97h5.54v.97h-2.19Z"/></g></g><rect class="cls-6" x="5" y="5" width="270" height="90" rx="10" ry="10"/><g><g><path class="cls-4" d="M170.85,56.11c-.64-.39-1.14-.92-1.5-1.6-.36-.69-.54-1.46-.54-2.33s.18-1.64,.53-2.32c.35-.68,.85-1.22,1.48-1.6,.64-.39,1.36-.58,2.17-.58,.68,0,1.28,.14,1.79,.44,.51,.3,.98,.72,1.4,1.25l-.9,.7c-.59-.85-1.35-1.28-2.29-1.28-.56,0-1.07,.14-1.52,.43-.45,.29-.8,.69-1.06,1.21-.25,.52-.37,1.1-.37,1.75s.12,1.23,.37,1.75c.26,.52,.6,.92,1.06,1.21,.45,.29,.96,.43,1.52,.43s1.05-.1,1.43-.3c.37-.2,.71-.49,1.01-.87l.95,.67c-.39,.49-.89,.89-1.47,1.18-.58,.29-1.21,.44-1.88,.44-.81,0-1.54-.19-2.18-.58"/><path class="cls-4" d="M184.16,55.14c.45-.29,.8-.69,1.05-1.21,.26-.52,.38-1.1,.38-1.75s-.12-1.23-.38-1.75c-.25-.52-.6-.92-1.05-1.21-.45-.29-.96-.43-1.54-.43s-1.07,.14-1.52,.43c-.45,.29-.79,.69-1.04,1.2-.26,.51-.38,1.09-.38,1.74s.13,1.25,.38,1.77c.25,.52,.6,.92,1.04,1.21,.45,.29,.95,.43,1.52,.43s1.09-.14,1.54-.43m-3.67,.97c-.64-.39-1.14-.92-1.5-1.62-.36-.69-.55-1.47-.55-2.33s.18-1.64,.53-2.32c.35-.68,.85-1.21,1.48-1.6,.63-.39,1.35-.58,2.15-.58s1.52,.19,2.16,.58c.64,.38,1.14,.92,1.5,1.6,.36,.68,.54,1.46,.54,2.32s-.18,1.64-.53,2.33c-.35,.68-.85,1.21-1.48,1.6-.63,.39-1.35,.58-2.15,.58s-1.52-.19-2.16-.58"/><path class="cls-4" d="M195.19,48.04c.5,.24,.89,.59,1.19,1.06,.3,.47,.44,1.02,.44,1.65v5.65h-1.22v-5.1c0-1.67-.75-2.51-2.24-2.51-.87,0-1.51,.31-1.94,.92-.43,.62-.65,1.44-.65,2.47v4.22h-1.23v-8.44h1.23v1.41c.29-.54,.67-.96,1.14-1.25,.47-.3,1.02-.44,1.65-.44,.59,0,1.14,.12,1.63,.36"/><polygon class="cls-4" points="200.66 56.4 200.66 49.08 199.22 49.08 199.22 47.96 200.66 47.96 200.66 45.17 201.89 45.17 201.89 47.96 203.84 47.96 203.84 49.08 201.89 49.08 201.89 56.4 200.66 56.4"/><path class="cls-4" d="M211.35,55.14c.45-.29,.8-.69,1.05-1.21,.26-.52,.38-1.1,.38-1.75s-.13-1.23-.38-1.75c-.25-.52-.6-.92-1.05-1.21-.45-.29-.97-.43-1.54-.43s-1.07,.14-1.52,.43c-.45,.29-.79,.69-1.04,1.2-.26,.51-.38,1.09-.38,1.74s.12,1.25,.38,1.77c.25,.52,.6,.92,1.04,1.21,.45,.29,.95,.43,1.52,.43s1.09-.14,1.54-.43m2.66-7.18v8.44h-1.23v-1.24c-.35,.48-.78,.85-1.28,1.12-.51,.27-1.06,.41-1.66,.41-.8,0-1.52-.19-2.16-.58-.64-.39-1.14-.92-1.5-1.6-.36-.69-.54-1.47-.54-2.34s.18-1.64,.53-2.32c.35-.68,.85-1.21,1.48-1.6,.63-.39,1.35-.58,2.15-.58,.61,0,1.18,.13,1.69,.41,.51,.27,.94,.65,1.29,1.14v-1.26h1.23Z"/><path class="cls-4" d="M217.94,47.96h1.22v8.44h-1.22v-8.44Zm-.09-1.93c-.18-.19-.28-.43-.28-.7s.09-.49,.28-.68c.19-.19,.42-.28,.7-.28s.49,.09,.68,.28c.2,.18,.29,.41,.29,.7,0,.26-.09,.49-.29,.68-.19,.19-.42,.29-.68,.29-.28,0-.51-.1-.7-.29"/><path class="cls-4" d="M228.75,48.04c.5,.24,.89,.59,1.19,1.06,.3,.47,.44,1.02,.44,1.65v5.65h-1.22v-5.1c0-1.67-.75-2.51-2.24-2.51-.87,0-1.51,.31-1.94,.92-.43,.62-.65,1.44-.65,2.47v4.22h-1.23v-8.44h1.23v1.41c.29-.54,.67-.96,1.14-1.25,.47-.3,1.02-.44,1.65-.44,.59,0,1.14,.12,1.64,.36"/><path class="cls-4" d="M240.21,51.43c-.12-.88-.41-1.54-.88-1.98-.47-.43-1.11-.66-1.91-.66s-1.42,.25-1.92,.75c-.5,.5-.81,1.13-.95,1.89h5.66Zm-.74-3.19c.61,.37,1.09,.88,1.44,1.52,.35,.64,.53,1.36,.53,2.15,0,.23,0,.41-.02,.53h-6.94c.05,.87,.33,1.6,.85,2.22,.52,.61,1.22,.92,2.11,.92,.72,0,1.32-.14,1.8-.41,.47-.27,.85-.65,1.14-1.13l.97,.65c-.39,.62-.92,1.12-1.57,1.47-.64,.35-1.42,.53-2.3,.53-.82,0-1.54-.19-2.18-.58-.64-.39-1.14-.92-1.5-1.6-.36-.69-.55-1.46-.55-2.33s.18-1.64,.53-2.32c.35-.68,.85-1.22,1.48-1.6,.63-.39,1.35-.58,2.15-.58,.76,0,1.44,.18,2.06,.56"/><path class="cls-4" d="M249.21,47.8v1.12c-.25-.12-.53-.18-.83-.18-.52,0-1,.14-1.44,.43-.45,.29-.8,.7-1.07,1.25-.28,.55-.41,1.19-.41,1.94v4.04h-1.23v-8.44h1.23v1.69c.32-.62,.74-1.11,1.23-1.46,.5-.35,1.06-.52,1.69-.52,.29,0,.56,.04,.83,.12"/><path class="cls-4" d="M252.16,56.17c-.62-.35-1.09-.84-1.42-1.48l1.1-.54c.45,.95,1.31,1.43,2.61,1.43,.62,0,1.14-.12,1.55-.35,.41-.22,.62-.58,.62-1.06s-.17-.85-.5-1.1c-.33-.24-.91-.39-1.74-.47-1.16-.1-1.98-.35-2.48-.78-.5-.42-.75-.98-.75-1.68,0-.78,.28-1.39,.85-1.82,.56-.43,1.34-.65,2.32-.65,1.67,0,2.8,.66,3.41,1.98l-1.1,.54c-.2-.48-.5-.83-.89-1.06-.39-.22-.89-.34-1.5-.34s-1.1,.12-1.43,.34c-.33,.23-.5,.56-.5,.98,0,.39,.18,.72,.53,.97,.35,.24,.96,.4,1.83,.47,1.07,.1,1.87,.36,2.39,.79,.53,.43,.78,.98,.78,1.69,0,.57-.16,1.04-.49,1.45-.32,.4-.76,.7-1.29,.91-.55,.2-1.13,.31-1.75,.31-.81,0-1.54-.18-2.15-.53"/></g><g><g><polygon class="cls-3" points="137.15 47.65 133.89 50.76 133.89 42.99 132.03 42.99 132.03 56.72 133.89 56.72 133.89 53.18 134.55 52.54 137.39 56.72 139.52 56.72 135.86 51.29 139.64 47.65 137.15 47.65"/><path class="cls-3" d="M147.5,48.39c-.25-.23-.52-.42-.82-.58-.55-.3-1.17-.45-1.84-.45-.86,0-1.64,.21-2.32,.62-.68,.41-1.22,.99-1.6,1.72-.38,.72-.57,1.55-.57,2.47s.2,1.76,.58,2.49c.38,.73,.93,1.31,1.61,1.73,.68,.41,1.46,.62,2.33,.62,.65,0,1.26-.15,1.81-.44,.29-.16,.57-.35,.81-.57v.73h1.86v-9.07h-1.86v.74Zm-.35,5.41c-.22,.46-.53,.82-.94,1.08-.4,.26-.85,.38-1.37,.38s-.95-.13-1.35-.38c-.4-.26-.71-.61-.93-1.08-.23-.47-.35-1.01-.35-1.63s.12-1.14,.35-1.6c.22-.46,.54-.82,.93-1.07,.39-.25,.84-.38,1.35-.38s.97,.13,1.37,.38c.4,.26,.72,.62,.94,1.08,.23,.47,.35,1.01,.35,1.61s-.12,1.15-.35,1.62Z"/><polygon class="cls-3" points="154.3 44.85 152.45 44.85 152.45 47.65 151 47.65 151 49.4 152.45 49.4 152.45 56.72 154.3 56.72 154.3 49.4 156.25 49.4 156.25 47.65 154.3 47.65 154.3 44.85"/><path class="cls-3" d="M164.56,47.65v.74c-.25-.23-.52-.42-.82-.58-.55-.3-1.17-.45-1.84-.45-.86,0-1.64,.21-2.32,.62-.68,.41-1.22,.99-1.6,1.72-.38,.72-.57,1.55-.57,2.47s.2,1.75,.58,2.49c.38,.73,.93,1.31,1.61,1.73,.68,.41,1.46,.62,2.33,.62,.65,0,1.26-.15,1.81-.44,.29-.16,.57-.35,.81-.57v.73h1.86v-9.07h-1.86Zm-.35,6.15c-.22,.46-.53,.82-.94,1.08-.4,.26-.85,.38-1.37,.38s-.95-.13-1.35-.38c-.4-.26-.71-.61-.93-1.08-.23-.47-.35-1.02-.35-1.63s.12-1.14,.35-1.6c.22-.46,.54-.82,.93-1.07,.39-.25,.84-.38,1.35-.38s.97,.13,1.37,.38c.4,.26,.72,.62,.94,1.08,.23,.47,.35,1.01,.35,1.61s-.12,1.15-.35,1.62Z"/></g><path class="cls-3" d="M123.17,53.67l-13.37,13.37-13.37-13.37,2.37-2.37,11,11,11-11,2.37,2.37Zm-7.12-.21l-3.48-3.48,3.46-3.46,3.48,3.48-3.46,3.46Zm-5.33-2.73l4.03,4.03-4.03,4.03v-8.06Zm-1.83,8.06l-8.78-8.78,8.78-8.78v17.57Zm1.83-17.57l4.01,4.01-4.01,4.01v-8.02Zm-14.28,5.12l13.37-13.37,13.37,13.37-2.37,2.37-11-11-11,11-2.37-2.37Zm29.32,0l-15.96-15.96-15.96,15.96,3.67,3.67-3.67,3.67,15.96,15.96,15.96-15.96-3.67-3.67,3.67-3.67Z"/></g></g></g></svg>