<svg width="78" height="61" viewBox="0 0 78 61" fill="none" xmlns="http://www.w3.org/2000/svg">
<path d="M60.0515 36.0544C61.4783 36.0544 62.9051 35.511 63.9922 34.4241C66.1663 32.2504 66.1663 28.7181 63.9922 26.5444L44.6381 7.19449C42.464 5.02078 38.9309 5.02078 36.7568 7.19449C34.5826 9.36821 34.5826 12.9005 36.7568 15.0742L56.1108 34.4241C57.1979 35.511 58.6247 36.0544 60.0515 36.0544Z" fill="#1FA5E0"/>
<path d="M68.8743 48.1846C69.9032 48.1846 70.7282 47.35 70.7282 46.3311C70.7282 45.3122 69.8935 44.4776 68.8743 44.4776C66.0207 44.4776 63.7107 42.1583 63.7107 39.315C63.7107 36.4717 66.0304 34.1428 68.8743 34.1428C71.7182 34.1428 74.0477 36.462 74.0477 39.315C74.0477 40.3436 74.8824 41.1685 75.9016 41.1685C76.9207 41.1685 77.7555 40.3339 77.7555 39.315C77.7555 34.4145 73.7662 30.4358 68.8743 30.4358C63.9824 30.4358 59.9932 34.4242 59.9932 39.315C59.9932 44.2059 63.9824 48.1943 68.8743 48.1943" fill="#1FA5E0"/>
<path d="M21.3532 41.6342C24.2068 41.6342 27.0604 40.5473 29.2345 38.3736L48.5886 19.0236C52.9369 14.6762 52.9369 7.62134 48.5886 3.26421C44.2402 -1.09292 37.1742 -1.08322 32.8258 3.26421L13.4718 22.6141C9.11374 26.9616 9.11374 34.0164 13.4718 38.3736C15.646 40.5473 18.4996 41.6342 21.3532 41.6342Z" fill="#ED1944"/>
<path d="M36.7666 11.144C36.7666 13.3177 38.5331 15.0838 40.7073 15.0838C42.8815 15.0838 44.648 13.3177 44.648 11.144C44.648 8.97024 42.8815 7.2041 40.7073 7.2041C38.5331 7.2041 36.7666 8.97024 36.7666 11.144Z" fill="#002E6C"/>
<path d="M58.2851 30.4939C58.2851 31.474 59.081 32.2697 60.0613 32.2697C61.0416 32.2697 61.8375 31.474 61.8375 30.4939C61.8375 29.5137 61.0416 28.718 60.0613 28.718C59.081 28.718 58.2851 29.5137 58.2851 30.4939Z" fill="#002E6C"/>
<path d="M36.2134 57.8497V30.4939C36.2134 22.2843 29.5647 15.637 21.3533 15.637C13.1419 15.637 6.4932 22.2843 6.4932 30.4939V57.8497H36.2134Z" fill="#1FA5E0"/>
<path d="M2.795 57.8499H39.921" stroke="#ED1944" stroke-width="5.59" stroke-linecap="round" stroke-linejoin="round"/>
<path d="M21.3531 39.5283C16.357 39.5283 12.307 35.4791 12.307 30.4841C12.307 25.4892 16.357 21.4399 21.3531 21.4399C26.3491 21.4399 30.3992 25.4892 30.3992 30.4841C30.3992 35.4791 26.3491 39.5283 21.3531 39.5283Z" stroke="#002E6C" stroke-width="4.16" stroke-miterlimit="10"/>
</svg>
