<svg width="122" height="123" viewBox="0 0 122 123" fill="none" xmlns="http://www.w3.org/2000/svg">
<path d="M120.093 0.00226726H1.9062C0.853086 0.00226726 6.10352e-05 0.856169 6.10352e-05 1.9084V60.7119C6.10352e-05 61.7641 0.853086 62.618 1.9062 62.618C2.96018 62.618 3.81233 61.7641 3.81233 60.7119V27.8863H23.6362V37.3635C23.6362 38.4157 24.4892 39.2696 25.5423 39.2696C26.5963 39.2696 27.4485 38.4157 27.4485 37.3635V27.8863H37.3609C38.4148 27.8863 39.267 27.0324 39.267 25.9801L39.2679 15.6323H49.1803C50.2342 15.6323 51.0864 14.7784 51.0864 13.7262C51.0864 12.674 50.2334 11.8201 49.1803 11.8201H37.3609C36.3069 11.8201 35.4548 12.674 35.4548 13.7262V24.074H3.81316V3.81292H23.637V11.8193L13.7264 11.8201C12.6725 11.8201 11.8203 12.674 11.8203 13.7263C11.8203 14.7785 12.6733 15.6324 13.7264 15.6324H25.5433C26.5973 15.6324 27.4494 14.7785 27.4494 13.7263V3.81299H70.9129V13.7254C70.9129 14.7776 71.7659 15.6315 72.819 15.6315H94.5491V25.5439C94.5491 26.5961 95.4022 27.45 96.4553 27.45C97.5093 27.45 98.3614 26.5961 98.3614 25.5439L98.3623 13.7261C98.3623 12.6739 97.5093 11.82 96.4561 11.82H74.726V3.81277H106.368V25.5445C106.368 26.5967 107.221 27.4506 108.274 27.4506C109.328 27.4506 110.18 26.5967 110.18 25.5445V3.81277H118.187V48.2894H108.275C107.221 48.2894 106.369 49.1433 106.369 50.1956C106.369 51.2478 107.222 52.1017 108.275 52.1017L118.187 52.1026V82.731H108.275C107.221 82.731 106.369 83.5849 106.369 84.6371V94.5486H98.3623V84.6371C98.3623 83.5849 97.5093 82.731 96.4561 82.731C95.4022 82.731 94.55 83.5849 94.55 84.6371V106.367H84.6376C83.5836 106.367 82.7315 107.221 82.7315 108.273C82.7315 109.326 83.5845 110.18 84.6376 110.18H96.457C97.5109 110.18 98.3631 109.326 98.3631 108.273V98.361H106.369V108.273C106.369 109.326 107.222 110.18 108.276 110.18C109.33 110.18 110.182 109.326 110.182 108.273V86.5423L118.187 86.5432V118.187H74.726V98.3623H84.6366C85.6905 98.3623 86.5427 97.5084 86.5427 96.4562C86.5427 95.404 85.6897 94.55 84.6366 94.55H74.726V84.6386C74.726 83.5863 73.8729 82.7324 72.8198 82.7324L51.0881 82.7315V74.7252H61.0005C62.0545 74.7252 62.9066 73.8713 62.9066 72.8191V39.124H72.819C73.873 39.124 74.7252 38.2701 74.7252 37.2179C74.7252 36.1657 73.8721 35.3118 72.819 35.3118L61.0006 35.3109C59.9466 35.3109 59.0945 36.1648 59.0945 37.217V70.9121H27.4483V60.7101C27.4483 59.6578 26.5953 58.804 25.5422 58.804C24.4882 58.804 23.6361 59.6578 23.6361 60.7101V72.819C23.6361 73.8712 24.4891 74.7251 25.5422 74.7251H47.2739V84.6375C47.2739 85.6898 48.1269 86.5437 49.1801 86.5437H70.9118V120.093C70.9118 121.145 71.7648 121.999 72.8179 121.999H120.094C121.148 121.999 122 121.145 122 120.093V1.90614C122 0.853901 121.147 0 120.094 0L120.093 0.00226726Z" fill="#EC8A42"/>
<path d="M60.9995 98.3635C62.0535 98.3635 62.9056 97.5096 62.9056 96.4574C62.9056 95.4051 62.0526 94.5512 60.9995 94.5512H39.2678V84.6397C39.2678 83.5875 38.4147 82.7336 37.3616 82.7336H25.5423C24.4883 82.7336 23.6362 83.5875 23.6362 84.6397V118.189H3.81229V98.364H11.8186V108.276C11.8186 109.329 12.6717 110.183 13.7248 110.183C14.7788 110.183 15.6309 109.329 15.6309 108.276V96.4571C15.6309 95.4048 14.7779 94.5509 13.7248 94.5509L3.81238 94.5518V86.5464H13.7248C14.7788 86.5464 15.6309 85.6924 15.6309 84.6402C15.6309 83.588 14.7779 82.7341 13.7248 82.7341L3.81238 82.7332V74.7269H13.7248C14.7788 74.7269 15.6309 73.873 15.6309 72.8207L15.6318 51.0897H35.4557V60.7125C35.4557 61.7647 36.3087 62.6186 37.3618 62.6186H49.1811C50.2351 62.6186 51.0872 61.7647 51.0872 60.7125C51.0872 59.6603 50.2342 58.8064 49.1811 58.8064H39.2687V51.0896H48.9915C50.0455 51.0896 50.8976 50.2357 50.8976 49.1835C50.8976 48.1312 50.0446 47.2773 48.9915 47.2773H39.2687V39.271H49.1811C50.2351 39.271 51.0872 38.4171 51.0872 37.3649V27.4534L60.9996 27.4525H82.7298V47.2773H72.8192C71.7652 47.2773 70.913 48.1312 70.913 49.1834L70.9122 61.0012C70.9122 62.0534 71.7652 62.9073 72.8183 62.9073C73.8723 62.9073 74.7244 62.0534 74.7244 61.0012V51.0897H84.635C85.689 51.0897 86.5412 50.2358 86.5412 49.1835L86.542 25.5467C86.542 24.4944 85.689 23.6405 84.6359 23.6405H62.9058V13.7282C62.9058 12.6759 62.0527 11.822 60.9996 11.822C59.9456 11.822 59.0935 12.6759 59.0935 13.7282V23.6405H49.1811C48.1271 23.6405 47.275 24.4944 47.275 25.5467V35.4582H37.3626C36.3086 35.4582 35.4565 36.3121 35.4565 37.3643V47.2767L15.6317 47.2776V37.3652C15.6317 36.3129 14.7787 35.459 13.7256 35.459C12.6716 35.459 11.8194 36.3129 11.8194 37.3652V70.9164L1.90614 70.9156C0.852149 70.9156 0 71.7695 0 72.8217V120.098C0 121.15 0.853025 122.004 1.90614 122.004H60.9994C62.0534 122.004 62.9055 121.15 62.9055 120.098V108.28C62.9055 107.228 62.0525 106.374 60.9994 106.374C59.9454 106.374 59.0933 107.228 59.0933 108.28V118.191H27.4472V86.5475H35.4535V108.279C35.4535 109.331 36.3065 110.185 37.3596 110.185H49.179C50.2329 110.185 51.0851 109.331 51.0851 108.279C51.0851 107.226 50.2321 106.372 49.179 106.372H39.2666V98.3661L60.9995 98.3635Z" fill="#EC8A42"/>
<path d="M108.273 39.1264C109.327 39.1264 110.179 38.2725 110.179 37.2203C110.179 36.1681 109.326 35.3142 108.273 35.3142H96.4539C95.3999 35.3142 94.5478 36.1681 94.5478 37.2203V59.096H84.6354C83.5814 59.096 82.7293 59.9499 82.7293 61.0022V71.4218H72.8187C71.7647 71.4218 70.9125 72.2757 70.9125 73.328C70.9125 74.3802 71.7656 75.2341 72.8187 75.2341H82.7293V84.6392C82.7293 85.6914 83.5823 86.5453 84.6354 86.5453C85.6894 86.5453 86.5415 85.6914 86.5415 84.6392V62.9082H106.366V70.9145H96.4539C95.3999 70.9145 94.5478 71.7684 94.5478 72.8206C94.5478 73.8729 95.4008 74.7268 96.4539 74.7268H108.273C109.327 74.7268 110.179 73.8729 110.179 72.8206V61.0022C110.179 59.95 109.326 59.0961 108.273 59.0961H98.3609V39.1264L108.273 39.1264Z" fill="#EC8A42"/>
</svg>
