<svg width="139" height="150" viewBox="0 0 139 150" fill="none" xmlns="http://www.w3.org/2000/svg">
<g clip-path="url(#clip0_7_26)">
<path d="M1.84789 57.9893C2.87345 59.0765 4.2123 59.8112 5.7011 60.153C5.75199 64.1493 5.51635 68.318 5.26464 72.6776C4.91654 78.5578 4.57915 84.5699 4.98081 90.3397C2.40752 90.7515 0.348378 92.7429 0.166295 95.2269C-0.0506089 98.171 2.36736 100.736 5.56453 100.948C5.87247 100.962 6.16703 100.935 6.46158 100.908C9.95063 108.661 16.4923 116.277 23.3526 123.444C22.4529 124.496 21.8718 125.79 21.7647 127.211C21.6228 129.049 22.2681 130.834 23.5855 132.23C24.9056 133.632 26.7318 134.472 28.7348 134.601L28.7375 134.601C30.4378 134.682 32.0123 134.241 33.3244 133.46C35.1051 134.009 37.0276 134.609 39.0868 135.253L42.683 136.375C50.8821 138.942 58.8456 141.421 65.9443 143.547C65.9309 143.705 65.9228 143.867 65.9228 144.028C65.9228 147.328 68.5845 150.003 71.8673 150.003C75.1502 150.003 77.8119 147.328 77.8119 144.028C77.8119 143.843 77.8012 143.66 77.7851 143.479C84.3455 141.37 91.6851 138.915 99.2443 136.377L102.594 135.255C104.511 134.612 106.303 134.009 107.963 133.463C109.184 134.243 110.649 134.682 112.234 134.604L112.237 134.604C114.103 134.475 115.803 133.635 117.035 132.233C118.261 130.836 118.861 129.052 118.73 127.214C118.631 125.793 118.09 124.499 117.252 123.446C123.641 116.28 129.735 108.664 132.986 100.911C133.262 100.938 133.538 100.964 133.822 100.951C136.799 100.738 139.051 98.1737 138.85 95.2296C138.679 92.7456 136.762 90.7542 134.365 90.3424C134.74 84.5726 134.424 78.5605 134.103 72.6803C133.867 68.3207 133.648 64.152 133.696 60.1557C135.08 59.8139 136.331 59.0819 137.284 57.992C138.51 56.5953 139.115 54.811 138.99 52.9676C138.732 49.2618 135.492 46.4011 131.749 46.5411C128.94 41.7481 126.179 34.4901 123.882 28.4538L123.504 27.4688C123.692 27.3047 123.887 27.1432 124.056 26.9494C125.001 25.873 125.47 24.4924 125.368 23.0661C125.17 20.1812 122.634 17.9529 119.715 18.0982L119.6 18.1063C118.387 18.1897 117.273 18.6822 116.382 19.4761C107.328 17.0755 97.4877 13.9727 87.9363 10.9585L86.1342 10.388C83.7992 9.65332 81.4455 8.91056 79.1025 8.18395L78.2055 7.41427C78.0448 7.27702 77.8842 7.13978 77.7262 7.00523C77.7824 6.67152 77.8146 6.32975 77.8146 5.9799C77.8146 2.68054 75.1529 0.0055181 71.87 0.00551781C68.5872 0.00551753 65.9255 2.68054 65.9255 5.9799C65.9255 6.27323 65.9469 6.56117 65.9871 6.84374C65.7488 7.03481 65.5132 7.2232 65.2722 7.41427L64.3082 8.18395C61.7938 8.91326 59.2687 9.65331 56.7597 10.388L54.8237 10.9585C44.5681 13.9726 34.0072 17.0755 24.2871 19.476C23.3312 18.6822 22.1342 18.1897 20.8329 18.1063L20.7097 18.0982C17.5768 17.9529 14.8535 20.1811 14.642 23.0661C14.5349 24.4924 15.0356 25.873 16.0505 26.9494C16.2325 27.1432 16.4414 27.302 16.6422 27.4688L16.2379 28.4538C13.7717 34.4927 10.8102 41.7481 7.79508 46.5411C3.77584 46.4011 0.30018 49.2618 0.0243615 52.9676C-0.109519 54.811 0.538491 56.5952 1.85325 57.992L1.84789 57.9893ZM105.376 83.924C105.368 83.8083 105.331 83.7033 105.32 83.5903C108.003 80.8399 110.764 78.0869 113.685 75.1885L114.004 74.8736C117.496 71.4101 121.368 67.5752 125.111 63.6757C123.952 71.9995 122.374 81.0606 120.412 90.6923C117.131 89.5539 113.747 88.2998 110.464 87.0807L108.745 86.4429C107.569 86.0124 106.437 85.5952 105.301 85.1808C105.371 84.7717 105.408 84.3519 105.376 83.9267L105.376 83.924ZM111.913 72.387L111.546 72.7476C108.841 75.428 106.284 77.9792 103.783 80.5278C103.151 79.9034 102.372 79.4378 101.502 79.1822C100.781 75.6406 99.7236 71.5689 98.4115 67.3572C111.339 63.1859 120.377 59.2864 125.419 55.7099C125.569 56.127 125.754 56.5199 125.973 56.8967C125.92 57.3407 125.871 57.7767 125.818 58.2207C121.341 63.0245 116.548 67.7824 111.91 72.3843L111.913 72.387ZM97.4127 64.2651C95.8007 59.4479 94.0736 55.0882 92.4349 51.6731C92.5875 51.5359 92.7428 51.4094 92.882 51.256C93.1123 50.9923 93.3105 50.7124 93.4845 50.419C102.075 52.4616 115.774 52.7792 124.249 52.6043C120.736 55.3223 113.176 59.1707 97.4127 64.2651ZM71.9637 130.546C71.5326 130.548 71.1042 130.551 70.6731 130.554C70.2393 128.277 69.8832 125.968 69.5484 123.775C69.3824 122.696 69.2057 121.606 69.0236 120.516C69.843 120.661 70.7025 120.739 71.5889 120.739C72.6814 120.739 73.731 120.621 74.7164 120.4C74.5424 121.528 74.371 122.655 74.2104 123.772C73.8997 125.965 73.5677 128.274 73.1634 130.551C72.7617 130.551 72.3627 130.546 71.9611 130.543L71.9637 130.546ZM72.5314 133.775C72.352 134.604 72.1619 135.39 71.9637 136.141C71.7495 135.387 71.546 134.604 71.3532 133.775C71.5567 133.775 71.7602 133.772 71.9637 133.77C72.1539 133.77 72.3413 133.775 72.5314 133.775ZM66.6485 105.582C66.445 106.355 66.2442 107.122 66.0487 107.883C63.1675 104.818 60.2836 101.67 57.5978 98.6447C61.8233 93.5584 65.6417 88.7277 69.1789 84.0209C69.9126 84.3142 70.7052 84.4918 71.5353 84.5295C70.4267 91.0717 68.5149 98.4294 66.6512 105.582L66.6485 105.582ZM71.9637 100.082C72.4618 102.189 72.9732 104.301 73.4847 106.395L73.6346 107.022C72.9759 106.931 72.2904 106.882 71.5915 106.882C71.1149 106.882 70.649 106.907 70.1911 106.95L70.333 106.395C70.8793 104.299 71.4309 102.189 71.9637 100.082ZM72.3654 84.5161C73.1366 84.4649 73.873 84.2927 74.5585 84.0182C77.852 88.7277 81.4107 93.5584 85.347 98.6447C82.846 101.67 80.1575 104.818 77.4745 107.883C77.2924 107.122 77.105 106.355 76.9148 105.582C75.177 98.424 73.399 91.0637 72.3654 84.5188L72.3654 84.5161ZM83.9358 52.8249C80.6985 58.8558 77.3647 65.0697 72.5743 69.6312C71.9022 69.4213 71.3104 69.6312 71.3104 69.6312C66.1665 65.0697 62.5891 58.8558 59.1134 52.8249C58.8162 52.3082 58.5109 51.7915 58.211 51.2721C58.7493 50.7205 59.167 50.0719 59.416 49.3506C63.1594 48.9524 67.5402 48.4034 71.9664 47.7629C76.0901 48.4007 80.1709 48.9524 83.6573 49.3506C83.8876 50.0719 84.2786 50.7205 84.7793 51.2721C84.4981 51.7915 84.2143 52.3082 83.9385 52.8249L83.9358 52.8249ZM86.817 54.3239C87.0687 53.8557 87.3285 53.3847 87.5828 52.9137C88.0916 53.0349 88.6164 53.1102 89.1734 53.0833L89.1761 53.0833C89.2805 53.0752 89.3742 53.0429 89.4733 53.0349C91.0532 56.3261 92.7562 60.597 94.3119 65.25C87.2321 67.4568 80.6342 69.2545 76.4061 70.3579C80.7199 65.6968 83.8073 59.9377 86.817 54.3266L86.817 54.3239ZM67.1947 70.3552C62.6587 69.2491 55.5735 67.4541 47.9741 65.2473C49.645 60.5943 51.4712 56.3234 53.1662 53.0322C53.2733 53.0429 53.3751 53.0725 53.4875 53.0806L53.4902 53.0806C54.0873 53.1075 54.6524 53.0349 55.1986 52.9111C55.4717 53.382 55.7502 53.8557 56.0207 54.3212C59.25 59.9323 62.565 65.6914 67.1947 70.3525L67.1947 70.3552ZM65.6711 73.3208C64.9722 74.4457 64.5679 75.7752 64.5679 77.1988C64.5679 77.2768 64.5706 77.3549 64.5733 77.4329C60.0827 78.9615 54.2694 80.256 46.9566 81.3405L46.5817 81.1844C45.8989 80.3098 44.9456 79.6343 43.813 79.2656C44.5547 75.9609 45.6097 72.2175 46.9057 68.3341C54.1034 70.4224 60.9182 72.1609 65.6738 73.3208L65.6711 73.3208ZM47.6769 84.4918C54.8907 83.4154 60.7575 82.1263 65.3926 80.5897C65.6684 81.1198 66.0058 81.6096 66.3968 82.0537C63.0014 86.5775 59.3517 91.209 55.3298 96.0638C52.154 92.42 49.4255 89.126 47.2431 86.3111C47.4707 85.7998 47.6421 85.2588 47.6876 84.6775C47.6903 84.6156 47.6769 84.5537 47.6796 84.4892L47.6769 84.4918ZM55.4048 101.258C57.9084 104.067 60.5728 106.977 63.2746 109.851C62.1767 110.924 61.5153 112.222 61.4591 113.621C61.4591 113.64 61.4537 113.656 61.4511 113.675C61.427 113.982 61.4457 114.283 61.4778 114.584C54.9951 116.998 48.0893 119.375 41.1647 121.546C40.3775 121.051 39.5929 120.553 38.8083 120.053C45.0072 113.293 50.4537 107.122 55.4021 101.26L55.4048 101.258ZM62.8595 117.561C62.8595 117.561 62.8622 117.566 62.8649 117.566C63.3094 118.037 63.8342 118.414 64.4099 118.702C64.6777 118.885 64.9588 119.057 65.2534 119.219C65.5346 120.814 65.8023 122.448 66.0647 124.16C66.3914 126.28 66.7208 128.417 67.1171 130.559C63.2076 130.546 59.2714 130.484 55.386 130.376C53.9106 129.456 52.4004 128.519 50.8741 127.58L50.3466 127.254C48.5124 126.121 46.6487 124.975 44.7823 123.812C50.9357 121.842 57.0623 119.716 62.8542 117.561L62.8595 117.561ZM67.7785 133.783C68.1828 135.581 68.6246 137.212 69.1147 138.727C68.946 138.816 68.7853 138.91 68.6273 139.015C66.1852 137.274 63.4459 135.462 60.712 133.719C63.0175 133.756 65.3819 133.778 67.7785 133.786L67.7785 133.783ZM74.6147 138.727C75.0699 137.212 75.4823 135.581 75.8598 133.783C78.093 133.775 80.2941 133.756 82.4416 133.716C79.9005 135.457 77.354 137.263 75.0833 139.001C74.9307 138.902 74.7753 138.81 74.6147 138.727ZM76.473 130.559C76.8425 128.417 77.1505 126.28 77.4531 124.16C77.7074 122.386 77.9645 120.696 78.2376 119.046C79.0731 118.742 79.8362 118.255 80.436 117.566C80.4387 117.566 80.4387 117.561 80.4414 117.561C85.837 119.716 91.5432 121.842 97.2762 123.812C95.5383 124.975 93.8032 126.121 92.0948 127.254L91.6048 127.58C90.1829 128.522 88.7771 129.456 87.4034 130.376C83.7832 130.484 80.1174 130.546 76.4757 130.559L76.473 130.559ZM81.7267 114.584C81.7561 114.283 81.7749 113.982 81.7535 113.675C81.7374 113.446 81.7026 113.225 81.6571 113.005C81.4643 111.874 80.8779 110.825 79.9862 109.929C82.5273 107.03 85.0337 104.094 87.3874 101.258C91.9957 107.122 97.07 113.293 102.846 120.05C102.117 120.551 101.384 121.049 100.65 121.544C94.1995 119.372 87.7676 116.996 81.7267 114.582L81.7267 114.584ZM77.2281 82.1721C77.6432 81.72 78.0047 81.214 78.2965 80.6677C82.5809 82.1694 87.9765 83.4342 94.5851 84.4918C94.5877 84.5537 94.5744 84.6156 94.577 84.6802C94.6199 85.2615 94.7779 85.8024 94.9894 86.3138C92.9543 89.1287 90.4132 92.42 87.4543 96.0665C83.7403 91.252 80.3664 86.6609 77.2255 82.1748L77.2281 82.1721ZM79.1534 77.546C79.1588 77.4302 79.1614 77.3172 79.1614 77.1988C79.1614 75.751 78.7437 74.4054 78.0234 73.267C82.4443 72.1071 88.6995 70.3902 95.3054 68.3341C96.513 72.2202 97.4957 75.9609 98.1866 79.2656C97.1316 79.6343 96.2426 80.3098 95.6079 81.1844L95.2572 81.3405C88.6111 80.2802 83.2932 79.0234 79.1534 77.5433L79.1534 77.546ZM94.178 47.2623C94.1647 47.1331 94.1325 47.0174 94.1138 46.8882C98.2241 44.0894 102.712 40.6582 107.291 36.8072C113.241 41.6997 118.513 45.8495 123.301 49.3964C114.258 49.5444 101.694 49.0735 94.178 47.2623ZM92.6169 43.9952C91.7146 43.0991 90.5096 42.5259 89.1761 42.4317C87.4382 38.769 85.5799 35.1844 83.8742 31.9173C81.9222 28.1766 80.1442 24.7373 78.4947 21.2388C81.8499 21.5187 85.3309 21.8362 88.6754 22.2533C89.1975 22.3179 89.7464 22.3906 90.3061 22.4659C94.6333 26.1824 99.6674 30.4856 104.76 34.7161C100.535 38.255 96.4247 41.3848 92.6169 43.9952ZM80.9796 33.4028C82.5006 36.3174 84.2705 39.719 85.9521 43.2229C85.5023 43.5001 85.0765 43.8284 84.7204 44.2348C84.2973 44.7165 83.9813 45.2682 83.7591 45.8468C80.2834 45.4458 76.1785 44.886 71.9638 44.2294C67.4384 44.886 63.0309 45.4458 59.3009 45.8468C59.0625 45.2682 58.7225 44.7165 58.2699 44.2347C57.887 43.8284 57.4318 43.5028 56.9472 43.2229C58.7519 39.719 60.6531 36.3174 62.2838 33.4028C64.4126 29.6056 66.8065 25.324 68.9594 20.9347L71.9664 20.7113L74.7673 20.9347C76.7729 25.324 79.0035 29.6029 80.985 33.4028L80.9796 33.4028ZM59.1723 31.9173C57.3435 35.1844 55.3459 38.769 53.4822 42.4317C52.0523 42.5259 50.7563 43.0964 49.7869 43.9952C45.7008 41.3848 41.2879 38.255 36.7518 34.7161C42.2171 30.4856 47.6207 26.1851 52.2665 22.4659C52.8663 22.3906 53.4581 22.3206 54.0177 22.2533C57.6112 21.8362 61.3466 21.5187 64.9482 21.2388C63.1755 24.7373 61.2663 28.1766 59.1723 31.9173ZM48.1803 46.8855C48.1616 47.0147 48.1268 47.1304 48.1134 47.2596C40.0454 49.0708 26.5578 49.5417 16.8511 49.3937C21.9896 45.8468 27.6503 41.697 34.0367 36.8044C38.9529 40.6555 43.7675 44.084 48.1803 46.8855ZM48.8551 50.4137C49.0425 50.707 49.2541 50.9869 49.5031 51.2506C49.6504 51.404 49.8191 51.5305 49.9824 51.6677C48.2232 55.0855 46.3702 59.4425 44.6404 64.2597C27.7172 59.1653 19.6038 55.317 15.8309 52.5989C24.9271 52.7711 39.6331 52.4563 48.8551 50.4137ZM43.5666 67.3518C42.1608 71.5635 41.0228 75.6325 40.2489 79.1768C39.3144 79.4325 38.4816 79.898 37.8015 80.5224C35.1158 77.9738 32.3684 75.4226 29.4685 72.7422L29.0749 72.3816C24.097 67.777 18.9504 63.0191 14.1439 58.218C14.0877 57.7713 14.0341 57.338 13.9779 56.894C14.2162 56.5172 14.4144 56.1216 14.575 55.7072C19.9894 59.2837 29.6907 63.1832 43.5693 67.3545L43.5666 67.3518ZM26.8282 74.8682L27.171 75.1831C30.3066 78.0815 33.2708 80.8319 36.1494 83.5849C36.136 83.698 36.0985 83.8056 36.0878 83.9186C36.053 84.3465 36.0931 84.7663 36.1708 85.1727C34.9524 85.5898 33.7367 86.0043 32.4755 86.4349L30.6306 87.0727C27.1041 88.2918 23.4704 89.5458 19.9519 90.6842C17.8445 81.0525 16.1549 71.9914 14.9098 63.6676C18.929 67.5671 23.0821 71.402 26.8336 74.8656L26.8282 74.8682ZM19.7859 106.594C15.7773 103.236 12.9845 100.267 11.3163 97.6086C11.4662 97.2695 11.5787 96.9169 11.6483 96.5482C13.3192 96.1042 15.0918 95.6036 17.0439 95.0062C17.8954 98.7846 18.8165 102.663 19.7859 106.592L19.7859 106.594ZM11.6269 103.494C14.0074 106.088 17.1617 108.882 21.1274 111.92C21.6228 113.852 22.1315 115.809 22.6537 117.792C18.5407 113.298 14.5135 108.432 11.6269 103.497L11.6269 103.494ZM28.8713 120.82C28.376 120.844 27.8966 120.909 27.428 121.019C26.9246 119.149 26.4186 117.281 25.9419 115.454C27.2272 116.361 28.5848 117.297 30.0067 118.252C29.6131 119.184 29.2382 120.031 28.8713 120.82ZM31.2679 115.112C28.8044 113.441 26.6194 111.893 24.6379 110.416C23.1625 104.63 21.829 99.0726 20.6615 93.8732C24.67 92.5734 28.8687 91.1283 32.2935 89.9414L32.9415 89.7208C34.6043 89.1502 36.2136 88.5986 37.7988 88.0576C38.4549 88.6631 39.2609 89.1341 40.1766 89.3978C38.6691 93.4157 37.2526 97.6732 35.8789 101.847C34.5588 105.852 32.9495 110.736 31.2679 115.112ZM35.9217 118.193C35.4317 117.881 34.9471 117.561 34.4678 117.246C36.31 112.563 38.0746 107.213 39.5099 102.864C40.9666 98.4428 42.5893 93.5503 44.311 89.1072C44.5065 89.0211 44.71 88.9403 44.8948 88.8354C47.1494 91.7042 49.9369 95.0466 53.1287 98.6904C47.9848 104.802 42.3429 111.199 35.9191 118.193L35.9217 118.193ZM36.5269 129.313C36.6206 128.944 36.7036 128.573 36.7358 128.186C36.784 127.55 36.7063 126.937 36.5724 126.339C37.914 125.941 39.2501 125.543 40.6372 125.112C42.9186 126.544 45.2081 127.959 47.4573 129.354L48.3999 129.935C48.5016 129.997 48.6034 130.061 48.7025 130.12L48.4267 130.107C44.0165 129.903 40.0213 129.631 36.5296 129.31L36.5269 129.313ZM43.7862 133.315C43.4809 133.221 43.1703 133.124 42.8651 133.027C44.6297 133.143 46.4719 133.242 48.3678 133.328C50.2743 133.417 52.2451 133.495 54.2641 133.557C57.3515 135.481 60.471 137.454 63.3094 139.362C56.8748 137.408 50.0306 135.269 43.7862 133.315ZM98.2 133.315C92.384 135.269 86.0057 137.405 80.013 139.362C82.6559 137.454 85.5612 135.481 88.4397 133.557C90.3195 133.498 92.1537 133.417 93.9317 133.328C95.699 133.24 97.4154 133.14 99.0595 133.027C98.773 133.124 98.4838 133.221 98.2026 133.315L98.2 133.315ZM93.8781 130.11L93.6211 130.123C93.7121 130.061 93.8085 129.999 93.9022 129.937L94.7805 129.356C96.8772 127.962 99.0113 126.544 101.135 125.115C102.425 125.543 103.671 125.941 104.921 126.342C104.795 126.94 104.723 127.553 104.768 128.188C104.798 128.576 104.873 128.947 104.961 129.316C101.708 129.636 97.9858 129.908 93.8781 130.112L93.8781 130.11ZM105.524 118.193C99.5415 111.199 94.2852 104.799 89.4921 98.6904C92.467 95.0439 95.0617 91.7042 97.1637 88.8354C97.3377 88.9403 97.5252 89.0211 97.7073 89.1072C99.3085 93.5503 100.821 98.4455 102.179 102.864C103.515 107.213 105.159 112.563 106.876 117.246C106.431 117.561 105.979 117.881 105.524 118.193ZM113.436 121.016C113 120.906 112.555 120.841 112.092 120.817C111.749 120.031 111.398 119.181 111.034 118.25C112.36 117.292 113.624 116.358 114.821 115.451C114.376 117.278 113.905 119.146 113.436 121.016ZM116.036 110.416C114.189 111.893 112.156 113.441 109.859 115.112C108.292 110.736 106.793 105.854 105.564 101.847C104.284 97.6732 102.964 93.4157 101.56 89.3978C102.415 89.1341 103.164 88.6632 103.775 88.0576C105.253 88.5986 106.75 89.1476 108.3 89.7208L108.903 89.9415C112.092 91.1283 116.004 92.5734 119.737 93.8732C118.647 99.0726 117.405 104.63 116.031 110.416L116.036 110.416ZM117.884 117.79C118.371 115.806 118.842 113.852 119.306 111.917C123.001 108.879 125.938 106.088 128.156 103.491C125.47 108.427 121.716 113.295 117.884 117.787L117.884 117.79ZM120.556 106.592C121.461 102.663 122.315 98.7819 123.111 95.0062C124.929 95.601 126.581 96.1042 128.137 96.5483C128.204 96.9169 128.308 97.2695 128.447 97.6086C126.892 100.265 124.292 103.236 120.556 106.594L120.556 106.592ZM130.434 60.1368C130.391 64.3135 130.619 68.6382 130.847 72.8633C131.176 78.8619 131.497 85.0193 131.055 90.8107C129.963 91.3462 129.106 92.2424 128.581 93.3216C127.106 92.891 125.515 92.3958 123.78 91.8226C126.139 80.3044 127.955 69.5182 129.184 59.7197C129.585 59.8973 130 60.0346 130.434 60.1368ZM117.113 27.9478C118.042 28.5184 119.148 28.8359 120.342 28.7767C120.398 28.774 120.449 28.7552 120.508 28.7471C120.62 29.0485 120.728 29.3311 120.845 29.6406C123.068 35.4831 125.727 42.4451 128.544 47.4641C128.185 47.6633 127.853 47.8894 127.54 48.1477C122.398 44.4231 116.628 39.9208 110.001 34.482C112.55 32.2591 114.952 30.0496 117.113 27.9452L117.113 27.9478ZM107.478 32.4017C104.252 29.7294 100.784 26.8068 96.7888 23.3917C102.982 24.2932 109.832 25.289 114.976 25.5123C112.724 27.7164 110.177 30.0577 107.481 32.4017L107.478 32.4017ZM86.9348 14.0211C96.0953 16.9141 105.524 19.8905 114.269 22.248C109.371 21.9627 102.921 21.0235 97.0325 20.165C95.3536 19.9147 93.7416 19.6779 92.218 19.468C90.2097 17.7456 88.2014 16.0125 86.2065 14.2875L85.3014 13.5071L86.9375 14.0211L86.9348 14.0211ZM75.7233 10.5172C76.0848 10.6275 76.4462 10.7379 76.8104 10.8536C79.14 12.8477 81.4911 14.8688 83.8796 16.9383L85.92 18.6929C82.9263 18.3754 79.8844 18.117 76.955 17.8802C75.9589 15.6089 75.1315 13.4694 74.3951 11.3837C74.8771 11.155 75.3243 10.8643 75.7259 10.5199L75.7233 10.5172ZM71.9638 14.2498C72.3734 15.3397 72.8099 16.4458 73.2865 17.5815L71.9638 17.4738L70.5446 17.5815C71.056 16.4458 71.5246 15.3397 71.9638 14.2498ZM66.761 10.8509C67.1707 10.7298 67.5803 10.6141 67.9874 10.4983C68.397 10.8536 68.8576 11.155 69.353 11.3864C68.5631 13.4721 67.6767 15.6062 66.6057 17.8775C63.4593 18.1116 60.1952 18.3727 56.982 18.6902L59.1723 16.9356C61.7349 14.8661 64.26 12.845 66.761 10.8509ZM55.8921 14.0211L57.646 13.5071L56.674 14.2875C54.5318 16.0125 52.379 17.7456 50.2207 19.468C48.5847 19.6779 46.8549 19.9147 45.0528 20.165C38.7334 21.0235 31.8061 21.9627 26.5498 22.248C35.9378 19.8905 46.0596 16.9141 55.8921 14.0211ZM45.3125 23.3917C41.0228 26.8068 37.2981 29.7294 33.8358 32.4017C30.9412 30.0577 28.2073 27.7164 25.7893 25.5123C31.3107 25.2917 38.6637 24.2959 45.3125 23.3917ZM19.486 29.6433C19.6145 29.3338 19.7296 29.0485 19.8501 28.7498C19.9144 28.7552 19.968 28.774 20.0296 28.7794C21.3122 28.8386 22.5011 28.5211 23.4972 27.9505C25.8161 30.055 28.3947 32.2645 31.1313 34.4874C24.0167 39.9262 17.8204 44.4258 12.3017 48.1531C11.967 47.8947 11.6081 47.6687 11.2252 47.4695C14.2484 42.4505 17.1028 35.4885 19.4886 29.646L19.486 29.6433ZM8.7537 72.8606C8.99737 68.6355 9.24104 64.3108 9.19552 60.1341C9.66145 60.0346 10.1086 59.8946 10.5397 59.717C11.8572 69.5155 13.8065 80.3017 16.3397 91.8199C14.476 92.3931 12.7703 92.8883 11.1851 93.3189C10.6254 92.2397 9.7016 91.3435 8.53145 90.808C8.0575 85.0166 8.40024 78.8592 8.75638 72.8606L8.7537 72.8606Z" fill="#071D49"/>
</g>
<defs>
<clipPath id="clip0_7_26">
<rect width="139" height="150" fill="white" transform="translate(139 150) rotate(-180)"/>
</clipPath>
</defs>
</svg>
