<?xml version="1.0" encoding="utf-8"?>
<!-- Generator: Adobe Illustrator 24.1.2, SVG Export Plug-In . SVG Version: 6.00 Build 0)  -->
<svg version="1.1" id="Layer_1" xmlns="http://www.w3.org/2000/svg" xmlns:xlink="http://www.w3.org/1999/xlink" x="0px" y="0px"
	 viewBox="0 0 500 500" style="enable-background:new 0 0 500 500;" xml:space="preserve">
<style type="text/css">
	.st0{fill:#00CCFF;}
	.st1{fill:#025FDF;}
</style>
<g>
	<g>
		<circle class="st0" cx="250" cy="105.27" r="25.27"/>
		<g>
			<path class="st1" d="M288.52,147.41c3.52,3.44,5.71,8.24,5.71,13.54c0,5.42-2.35,10.56-6.32,14.12v156.48
				c0,20.9-17.01,37.91-37.91,37.91c-20.9,0-37.91-17.01-37.91-37.91V175.07c-3.97-3.56-6.32-8.69-6.32-14.12
				c0-5.3,2.19-10.1,5.71-13.54C153.45,164.11,111,217.59,111,281c0,76.77,62.23,139,139,139s139-62.23,139-139
				C389,217.59,346.55,164.11,288.52,147.41z"/>
		</g>
		<path class="st1" d="M267.41,147.41h-34.83c-4.34,0-7.86,1.71-7.86,3.81v0c0,2.11,3.52,3.81,7.86,3.81h34.83
			c4.34,0,7.86-1.71,7.86-3.81v0C275.27,149.11,271.75,147.41,267.41,147.41z"/>
		<path class="st0" d="M273.19,181.94c-3.94,9.08-13.07,15.4-23.64,15.22c-13.79-0.24-24.83,11.49-24.83,25.28l0,109.11
			c0,13.96,11.32,25.27,25.27,25.27c13.96,0,25.27-11.32,25.27-25.27V182.31C275.27,181.1,273.68,180.84,273.19,181.94z
			 M237.36,262.04c-3.49,0-6.32-2.83-6.32-6.32c0-3.49,2.83-6.32,6.32-6.32c3.49,0,6.32,2.83,6.32,6.32
			C243.68,259.21,240.85,262.04,237.36,262.04z M246.84,281c-1.74,0-3.16-1.41-3.16-3.16c0-1.74,1.41-3.16,3.16-3.16
			c1.74,0,3.16,1.41,3.16,3.16C250,279.58,248.59,281,246.84,281z M256.32,236.77c-6.98,0-12.64-5.66-12.64-12.64
			c0-6.98,5.66-12.64,12.64-12.64c6.98,0,12.64,5.66,12.64,12.64C268.95,231.11,263.3,236.77,256.32,236.77z"/>
	</g>
</g>
</svg>
