<?xml version="1.0" encoding="UTF-8"?>
<svg id="Layer_1" xmlns="http://www.w3.org/2000/svg" version="1.1" viewBox="0 0 500 500">
  <!-- Generator: Adobe Illustrator 30.2.1, SVG Export Plug-In . SVG Version: 2.1.1 Build 1)  -->
  <defs>
    <style>
      .st0 {
        fill: #fff;
      }
    </style>
  </defs>
  <path d="M248.3,493.5l-29.8-18.7c-27.6-17.3-53.2-36.7-77.3-58.7-22.8-20.9-42.3-44.3-57.5-71.3-24.9-44.2-36.7-97.1-41.9-147.3-3.5-33.5-5.2-66.4-5-100.1v-21.1c26-2.7,50.3-7.3,75.2-13.8,48.5-12.6,95-30.8,138.6-56.2,25.1,15.4,51.4,27.6,78.8,38.3,43.2,16.9,87.8,27.8,133.9,33.6l-.4,43c-.3,36.8-3.6,72.8-9.7,109.1-5.3,30.4-12.9,59.5-24.8,87.8-13.7,32.6-34.8,62.4-59.9,87-36.4,35.8-76.2,61.9-120.3,88.2ZM248.5,475.4l47.7-31c22.1-15.2,42.5-31.7,61.6-50.6,37.7-37.8,58.3-76.7,71.9-128.4,10.3-41.5,16.2-83.3,17.1-126.1l1.1-47.8c-68.7-9.2-137.6-33-197.4-67.1-60.8,33.3-129.1,56.4-198.2,65.5-.4,43.3,1.5,85.7,7.8,128.2,2.8,19.2,6.3,37,11.5,55.5,14.9,53.1,38.6,91.7,78.5,129.4,30,28.3,63.3,50.4,98.4,72.3Z"/>
  <polygon points="52.1 180.4 41.2 167.4 204.5 30.2 219.2 39.5 52.1 180.4"/>
  <rect x="20.9" y="135.1" width="310.4" height="17" transform="translate(-51.1 146.9) rotate(-40)"/>
  <rect x="31.5" y="182.5" width="383" height="17" transform="translate(-70.6 188.1) rotate(-40)"/>
  <rect x="61.6" y="227.7" width="443.6" height="17" transform="translate(-85.5 238.8) rotate(-40.2)"/>
  <rect x="131.1" y="302.3" width="364.4" height="17" transform="translate(-126.5 274.3) rotate(-40)"/>
  <rect x="194.8" y="380" width="262.5" height="17" transform="translate(-173.5 300.7) rotate(-40)"/>
  <g>
    <path class="st0" d="M298.2,356.8l-98.6-.3,21.9-124.5c-27-16.2-36.6-46.4-25.6-73s40.6-41.2,70.3-33.3c22.4,6,38.5,25.8,41.1,47.1,3,24.7-8,47.2-29.5,59.6l20.6,124.5Z"/>
    <path d="M308.2,365.4l-118.8-.4,22.6-128.9c-26.3-18.6-36.3-50.9-24.1-80.3,12.8-31.2,46.6-47.3,80.3-38.3,24.8,6.6,44.3,28.9,47.3,54.3,3.1,26-7.8,50.3-28.7,64.8l21.3,128.9ZM209.6,348.1l78.5.2-19.9-120.4,5.1-2.9c18.5-10.6,27.9-29.7,25.3-51.2-2.3-18.6-16.6-35-34.8-39.9-25.8-6.9-50.5,4.8-60.2,28.3-9.6,23.3-.5,49,22.1,62.5l5,3-21.1,120.3Z"/>
  </g>
</svg>