<?xml version="1.0" encoding="UTF-8"?>
<svg id="Layer_1" xmlns="http://www.w3.org/2000/svg" version="1.1" viewBox="0 0 500 500">
  <!-- Generator: Adobe Illustrator 30.2.1, SVG Export Plug-In . SVG Version: 2.1.1 Build 1)  -->
  <defs>
    <style>
      .st0 {
        fill: none;
        stroke: #000;
        stroke-miterlimit: 10;
        stroke-width: 17px;
      }
    </style>
  </defs>
  <path class="st0" d="M298.2,356.8l-98.6-.3,21.9-124.5c-27-16.2-36.6-46.4-25.6-73s40.6-41.2,70.3-33.3c22.4,6,38.5,25.8,41.1,47.1,3,24.7-8,47.2-29.5,59.6l20.6,124.5Z"/>
  <path d="M248.3,493.5l-29.8-18.7c-27.6-17.3-53.2-36.7-77.3-58.7-22.8-20.9-42.3-44.3-57.5-71.3-24.9-44.2-36.7-97.1-41.9-147.3-3.5-33.5-5.2-66.4-5-100.1v-21.1c26-2.7,50.3-7.3,75.2-13.8,48.5-12.6,95-30.8,138.6-56.2,25.1,15.4,51.4,27.6,78.8,38.3,43.2,16.9,87.8,27.8,133.9,33.6l-.4,43c-.3,36.8-3.6,72.8-9.7,109.1-5.3,30.4-12.9,59.5-24.8,87.8-13.7,32.6-34.8,62.4-59.9,87-36.4,35.8-76.2,61.9-120.3,88.2ZM248.5,475.4l47.7-31c22.1-15.2,42.5-31.7,61.6-50.6,37.7-37.8,58.3-76.7,71.9-128.4,10.3-41.5,16.2-83.3,17.1-126.1l1.1-47.8c-68.7-9.2-137.6-33-197.4-67.1-60.8,33.3-129.1,56.4-198.2,65.5-.4,43.3,1.5,85.7,7.8,128.2,2.8,19.2,6.3,37,11.5,55.5,14.9,53.1,38.6,91.7,78.5,129.4,30,28.3,63.3,50.4,98.4,72.3Z"/>
</svg>