<svg width="629" height="311" viewBox="0 0 629 311" fill="none" xmlns="http://www.w3.org/2000/svg">
<path d="M135.219 79.4883L226.436 26.9028" stroke="url(#paint0_linear_142_834)" stroke-width="4.34077" stroke-linecap="round"/>
<g opacity="0.4" style="mix-blend-mode:multiply">
<path d="M9.6377 225.213V194.903L127.005 195.271L255.845 195.292L323.098 222.321C325.735 223.384 325.778 227.117 323.152 228.222L128.908 310.235L9.6377 225.213Z" fill="url(#paint1_linear_142_834)"/>
</g>
<path d="M0 235.406V194.852L128 194.831L256.829 194.852V235.396L128.84 309.784L0 235.406Z" fill="#808080"/>
<path d="M0 194.852L128 120.464L256.829 194.852L128.84 269.23L0 194.852Z" fill="#4D4D4D"/>
<path d="M0 186.919V146.365L128 146.343L256.829 146.365V186.919L128.84 261.297L0 186.919Z" fill="#666666"/>
<path d="M0 146.364L128 71.976L256.829 146.364L128.84 220.742L0 146.364Z" fill="#808080"/>
<path d="M168.629 150.341C179.166 156.423 179.23 166.28 168.757 172.362C158.294 178.444 141.26 178.444 130.722 172.362C126.203 169.746 123.619 166.45 122.96 163.037C115.294 162.559 107.319 160.4 100.844 156.657C94.2298 152.84 90.4445 148.119 89.7108 143.6C86.0212 142.909 82.4166 141.665 79.3117 139.868C70.5714 134.817 69.2104 127.406 76.2494 123.312C82.406 119.729 92.9539 119.867 101.354 123.312C102.151 122.525 103.119 121.792 104.278 121.122C111.625 116.847 123.577 116.847 130.977 121.122C134.05 122.897 135.847 125.13 136.379 127.448C145.917 124.439 158.113 125.269 166.215 129.958C175.625 135.391 176.104 144.057 167.608 149.778C167.948 149.958 168.289 150.15 168.618 150.341H168.629Z" fill="#4C4C4C"/>
<path d="M118.047 228.473L118.005 243.433L104.979 235.916L105.022 220.966L118.047 228.473Z" fill="#4C4C4C"/>
<path d="M99.5142 218.308L99.4717 233.258L86.4569 225.74L86.4994 210.79L99.5142 218.308Z" stroke="#4C4C4C" stroke-width="0.396588" stroke-miterlimit="10"/>
<g opacity="0.4" style="mix-blend-mode:multiply">
<path d="M313.464 225.213V194.903L430.831 195.271L559.671 195.292L626.925 222.321C629.562 223.384 629.604 227.117 626.978 228.222L432.734 310.235L313.464 225.213Z" fill="url(#paint2_linear_142_834)"/>
</g>
<path d="M303.826 235.406V194.852L431.826 194.831L560.655 194.852V235.396L432.666 309.784L303.826 235.406Z" fill="#EC1944"/>
<path d="M303.826 194.852L431.826 120.464L560.656 194.852L432.666 269.23L303.826 194.852Z" fill="#7A172C"/>
<path d="M303.826 186.919V146.364L431.826 146.343L560.655 146.364V186.908L432.666 261.296L303.826 186.919Z" fill="#AD213E"/>
<path d="M303.826 146.364L431.826 71.976L560.655 146.364L432.666 220.742L303.826 146.364Z" fill="#EC1944"/>
<path d="M489.244 143.313C492.487 145.184 492.434 148.279 489.212 150.15L475.347 158.21L460.939 149.884L463.193 148.576C464.916 147.577 464.905 145.918 463.172 144.918L434.58 128.416C432.847 127.417 429.987 127.417 428.264 128.416L426.01 129.724L411.602 121.409L425.468 113.349C428.764 111.435 434.102 111.478 437.345 113.349L489.244 143.313Z" fill="white"/>
<path d="M452.943 171.32L439.078 179.38C435.781 181.294 430.444 181.251 427.2 179.38L375.301 149.416C371.983 147.502 372.047 144.408 375.258 142.537L389.124 134.477L403.531 142.792L401.288 144.1C399.565 145.099 399.565 146.758 401.309 147.758L429.901 164.26C431.634 165.259 434.484 165.259 436.217 164.26L438.461 162.952L452.943 171.32Z" fill="white"/>
<path d="M421.894 132.117L407.582 140.442L393.175 132.117L407.487 123.802L421.894 132.117Z" fill="white"/>
<path d="M471.221 160.602L456.909 168.917L442.501 160.602L456.813 152.287L471.221 160.602Z" fill="white"/>
<path d="M421.874 228.473L421.831 243.433L408.806 235.916L408.848 220.955L421.874 228.473Z" fill="#7A172C"/>
<path d="M403.34 218.307L403.298 233.257L390.283 225.74L390.325 210.79L403.34 218.307Z" stroke="#7A172C" stroke-width="0.396588" stroke-miterlimit="10"/>
<path d="M207.892 50.9737C206.853 51.5723 206.497 52.8995 207.096 53.938C207.694 54.9764 209.021 55.333 210.06 54.7343L207.892 50.9737ZM294.018 3.82791L292.934 1.9476V1.9476L294.018 3.82791ZM306.377 3.81067L305.298 5.694V5.694L306.377 3.81067ZM392.569 54.9485C393.726 54.6343 394.409 53.4418 394.095 52.285L388.974 33.4346C388.66 32.2779 387.468 31.5949 386.311 31.9091C385.154 32.2233 384.471 33.4158 384.786 34.5725L389.337 51.3284L372.581 55.8799C371.424 56.1942 370.741 57.3866 371.056 58.5434C371.37 59.7001 372.562 60.3831 373.719 60.0689L392.569 54.9485ZM208.976 52.854L210.06 54.7343L295.102 5.70822L294.018 3.82791L292.934 1.9476L207.892 50.9737L208.976 52.854ZM306.377 3.81067L305.298 5.694L390.922 54.7373L392 52.854L393.079 50.9706L307.455 1.92734L306.377 3.81067ZM294.018 3.82791L295.102 5.70822C298.256 3.88998 302.139 3.88457 305.298 5.694L306.377 3.81067L307.455 1.92734C302.956 -0.649727 297.426 -0.642013 292.934 1.9476L294.018 3.82791Z" fill="url(#paint3_linear_142_834)"/>
<circle cx="213.073" cy="78.8053" r="3.41464" fill="#808080"/>
<circle cx="228.098" cy="68.5614" r="2.04878" fill="#808080"/>
<circle cx="195.659" cy="91.4394" r="5.80488" fill="#808080"/>
<defs>
<linearGradient id="paint0_linear_142_834" x1="135.219" y1="79.4883" x2="226.732" y2="26.9028" gradientUnits="userSpaceOnUse">
<stop stop-color="#808080"/>
<stop offset="1" stop-color="#EC1944"/>
</linearGradient>
<linearGradient id="paint1_linear_142_834" x1="325.15" y1="224.269" x2="131.199" y2="222.903" gradientUnits="userSpaceOnUse">
<stop stop-color="#0B141F" stop-opacity="0.4"/>
<stop offset="1" stop-color="#2F5685"/>
</linearGradient>
<linearGradient id="paint2_linear_142_834" x1="628.976" y1="224.269" x2="435.025" y2="222.903" gradientUnits="userSpaceOnUse">
<stop stop-color="#750920" stop-opacity="0.4"/>
<stop offset="1" stop-color="#772536"/>
</linearGradient>
<linearGradient id="paint3_linear_142_834" x1="208.976" y1="26.5613" x2="392" y2="26.5613" gradientUnits="userSpaceOnUse">
<stop stop-color="#808080"/>
<stop offset="1" stop-color="#EC1944"/>
</linearGradient>
</defs>
</svg>
