<?xml version="1.0" encoding="UTF-8"?><svg id="Layer_1" xmlns="http://www.w3.org/2000/svg" width="280" height="100" viewBox="0 0 280 100"><defs><style>.cls-1{fill:#ec1944;}.cls-2{fill:#fff;}.cls-3{fill:#f0f3f5;}.cls-4{fill:#4e4540;}.cls-5{fill:none;stroke:#f0f3f5;stroke-miterlimit:10;stroke-width:2px;}</style></defs><rect class="cls-2" x="5" y="5" width="270" height="90" rx="10" ry="10"/><g><g><path class="cls-3" d="M6,14H76c5.52,0,10,4.48,10,10v62H-4V24C-4,18.48,.48,14,6,14Z" transform="translate(-9 91) rotate(-90)"/><g><path class="cls-4" d="M30.39,40.54v.97h-4.57v-7.11h1.18v6.14h3.39Z"/><path class="cls-4" d="M33.46,38.32v2.22h3.43v.97h-4.61v-7.11h4.58v.97h-3.41v2h2.94v.95h-2.94Z"/><path class="cls-4" d="M39.94,39.87l-.48,1.64h-1.22l2.31-7.11h1.04l2.28,7.11h-1.22l-.48-1.64h-2.23Zm1.94-1.01l-.82-2.81-.83,2.81h1.65Z"/><path class="cls-4" d="M46.41,38.75v2.76h-1.17v-7.11h2.26c.37,0,.71,.05,1.02,.14,.31,.09,.58,.22,.8,.4,.22,.18,.39,.4,.52,.67,.12,.26,.19,.58,.19,.93,0,.24-.03,.47-.1,.66s-.15,.38-.27,.54c-.11,.16-.25,.3-.41,.42-.16,.12-.34,.22-.53,.31l1.52,2.97v.06h-1.25l-1.36-2.76h-1.2Zm1.1-.96c.21,0,.4-.04,.56-.09,.17-.06,.31-.15,.43-.26,.1-.1,.19-.22,.24-.36s.09-.31,.09-.49c0-.21-.03-.38-.1-.54-.06-.16-.16-.28-.28-.39-.11-.1-.25-.17-.42-.22-.16-.05-.35-.08-.55-.08h-1.08v2.44h1.1Z"/><path class="cls-4" d="M55.13,41.51l-2.31-4.89v4.89h-1.19v-7.11h1.19l2.29,4.87v-4.87h1.19v7.11h-1.18Z"/><path class="cls-4" d="M27.99,49.44l.97-3.04h1.46v7.11h-1.1v-2.41l.07-3.17-1.09,3.39h-.61l-.99-3.28,.06,3.06v2.41h-1.1v-7.11h1.46l.88,3.04Z"/><path class="cls-4" d="M36.96,51.25c-.05,.27-.12,.52-.22,.76-.1,.24-.23,.46-.38,.66-.15,.2-.32,.37-.52,.52-.19,.13-.4,.23-.63,.31s-.48,.11-.75,.11-.54-.04-.78-.12c-.24-.08-.45-.19-.63-.33-.19-.14-.35-.32-.5-.52s-.26-.42-.35-.66c-.09-.23-.16-.48-.21-.74-.05-.26-.07-.53-.07-.81v-.94c0-.29,.02-.57,.07-.84s.12-.53,.22-.77c.09-.23,.21-.44,.35-.64,.14-.19,.3-.36,.49-.51,.18-.14,.39-.25,.62-.32,.23-.08,.49-.12,.77-.12s.54,.04,.78,.12c.24,.08,.45,.19,.64,.33,.19,.14,.35,.3,.49,.49,.14,.19,.26,.4,.35,.62,.1,.24,.18,.5,.23,.77,.05,.27,.08,.56,.08,.86v.94c0,.29-.03,.56-.08,.83Zm-1.14-2.3c-.02-.17-.05-.34-.09-.49-.05-.18-.11-.34-.19-.49-.08-.15-.18-.27-.29-.38-.1-.09-.22-.16-.35-.21-.13-.05-.28-.08-.44-.08s-.3,.03-.43,.08c-.13,.05-.24,.12-.33,.21-.11,.11-.21,.24-.29,.38-.08,.15-.14,.31-.18,.5-.04,.16-.07,.32-.09,.5-.02,.17-.03,.35-.03,.52v.95c0,.17,0,.34,.02,.51,.02,.17,.04,.33,.08,.49,.04,.18,.1,.34,.17,.49,.07,.15,.16,.28,.27,.38,.1,.1,.22,.17,.35,.23,.13,.06,.28,.09,.46,.09s.32-.03,.45-.08c.14-.06,.25-.13,.35-.22,.11-.11,.21-.24,.29-.38,.08-.15,.14-.31,.18-.49,.04-.16,.07-.32,.08-.49,.02-.17,.03-.34,.03-.52v-.95c0-.18-.01-.35-.03-.53Z"/><path class="cls-4" d="M39.91,50.75v2.76h-1.17v-7.11h2.26c.37,0,.71,.05,1.02,.14,.31,.09,.58,.22,.8,.4,.22,.18,.39,.4,.52,.67,.12,.26,.19,.58,.19,.93,0,.24-.03,.47-.1,.66s-.15,.38-.27,.54c-.11,.16-.25,.3-.41,.42-.16,.12-.34,.22-.53,.31l1.52,2.97v.06h-1.25l-1.36-2.76h-1.2Zm1.1-.96c.21,0,.4-.04,.56-.09,.17-.06,.31-.15,.43-.26,.1-.1,.19-.22,.24-.36s.09-.31,.09-.49c0-.21-.03-.38-.1-.54-.06-.16-.16-.28-.28-.39-.11-.1-.25-.17-.42-.22-.16-.05-.35-.08-.55-.08h-1.08v2.44h1.1Z"/><path class="cls-4" d="M46.46,50.32v2.22h3.43v.97h-4.61v-7.11h4.58v.97h-3.41v2h2.94v.95h-2.94Z"/><path class="cls-4" d="M26.94,63.87l-.48,1.64h-1.22l2.31-7.11h1.04l2.28,7.11h-1.22l-.48-1.64h-2.23Zm1.94-1.01l-.82-2.81-.83,2.81h1.65Z"/><path class="cls-4" d="M32.21,58.4h2.28c.34,0,.67,.04,.97,.12,.3,.08,.56,.19,.79,.35,.22,.16,.39,.36,.52,.6,.13,.24,.19,.53,.19,.86,0,.2-.04,.39-.11,.56-.07,.17-.16,.33-.29,.46-.09,.1-.19,.18-.3,.26-.11,.07-.24,.14-.38,.2h0c.21,.07,.39,.15,.54,.25,.15,.11,.27,.23,.38,.36,.1,.14,.18,.3,.24,.48,.05,.17,.08,.36,.08,.55,0,.34-.06,.64-.18,.89-.12,.26-.29,.47-.51,.64-.22,.18-.48,.31-.78,.4-.3,.09-.63,.13-.98,.13h-2.46v-7.11Zm2.3,3c.19,0,.37-.03,.53-.08s.3-.12,.41-.21c.1-.08,.18-.19,.24-.31s.09-.26,.09-.42c0-.17-.03-.31-.08-.43-.05-.12-.13-.22-.23-.3-.11-.1-.25-.17-.42-.21-.17-.04-.35-.07-.55-.07h-1.11v2.03h1.12Zm-1.12,3.14h1.29c.19,0,.35-.03,.51-.08,.15-.05,.28-.12,.39-.21,.12-.09,.21-.21,.27-.35,.06-.14,.1-.29,.1-.46,0-.18-.03-.34-.08-.48-.05-.14-.13-.26-.23-.35-.1-.1-.23-.17-.38-.23-.15-.05-.32-.08-.51-.09h-1.35v2.25Z"/><path class="cls-4" d="M43.46,63.25c-.05,.27-.12,.52-.22,.76-.1,.24-.23,.46-.38,.66-.15,.2-.32,.37-.52,.52-.19,.13-.4,.23-.63,.31s-.48,.11-.75,.11-.54-.04-.78-.12c-.24-.08-.45-.19-.63-.33-.19-.14-.35-.32-.5-.52s-.26-.42-.35-.66c-.09-.23-.16-.48-.21-.74-.05-.26-.07-.53-.07-.81v-.94c0-.29,.02-.57,.07-.84s.12-.53,.22-.77c.09-.23,.21-.44,.35-.64,.14-.19,.3-.36,.49-.51,.18-.14,.39-.25,.62-.32,.23-.08,.49-.12,.77-.12s.54,.04,.78,.12c.24,.08,.45,.19,.64,.33,.19,.14,.35,.3,.49,.49,.14,.19,.26,.4,.35,.62,.1,.24,.18,.5,.23,.77,.05,.27,.08,.56,.08,.86v.94c0,.29-.03,.56-.08,.83Zm-1.14-2.3c-.02-.17-.05-.34-.09-.49-.05-.18-.11-.34-.19-.49-.08-.15-.18-.27-.29-.38-.1-.09-.22-.16-.35-.21-.13-.05-.28-.08-.44-.08s-.3,.03-.43,.08c-.13,.05-.24,.12-.33,.21-.11,.11-.21,.24-.29,.38-.08,.15-.14,.31-.18,.5-.04,.16-.07,.32-.09,.5-.02,.17-.03,.35-.03,.52v.95c0,.17,0,.34,.02,.51,.02,.17,.04,.33,.08,.49,.04,.18,.1,.34,.17,.49,.07,.15,.16,.28,.27,.38,.1,.1,.22,.17,.35,.23,.13,.06,.28,.09,.46,.09s.32-.03,.45-.08c.14-.06,.25-.13,.35-.22,.11-.11,.21-.24,.29-.38,.08-.15,.14-.31,.18-.49,.04-.16,.07-.32,.08-.49,.02-.17,.03-.34,.03-.52v-.95c0-.18-.01-.35-.03-.53Z"/><path class="cls-4" d="M49.85,63.15c0,.37-.06,.7-.17,1-.11,.3-.27,.56-.48,.77-.21,.21-.46,.38-.75,.5-.29,.12-.62,.18-.98,.18s-.68-.06-.96-.17c-.29-.12-.53-.28-.73-.5-.21-.21-.36-.47-.48-.78s-.17-.64-.17-1.01v-4.76h1.17v4.76c.01,.22,.04,.43,.09,.62,.05,.19,.13,.35,.23,.48,.1,.12,.22,.22,.36,.29,.14,.07,.31,.1,.5,.1s.36-.04,.51-.1c.15-.07,.27-.17,.37-.3,.1-.13,.18-.29,.23-.48,.05-.18,.08-.39,.09-.61v-4.76h1.17v4.76Z"/><path class="cls-4" d="M54.57,59.37v6.14h-1.17v-6.14h-2.18v-.97h5.54v.97h-2.19Z"/></g></g><rect class="cls-5" x="5" y="5" width="270" height="90" rx="10" ry="10"/><g><g><path class="cls-1" d="M120.2,35.78h-23.64c-1.48,0-2.71,1.2-2.71,2.71v6.36h6.56v-1.03c0-.79,.65-1.44,1.44-1.44h13.02c.79,0,1.44,.65,1.44,1.44v1.03h6.56v-6.36c0-1.48-1.2-2.71-2.68-2.71Z"/><path class="cls-1" d="M116.31,56.18c0,.79-.65,1.44-1.44,1.44h-13.02c-.79,0-1.44-.65-1.44-1.44v-1.03h-6.56v6.36c0,1.48,1.2,2.71,2.71,2.71h23.64c1.48,0,2.71-1.2,2.71-2.71v-6.36h-6.6v1.03Z"/><rect class="cls-1" x="93.84" y="46.74" width="6.56" height="6.56"/><rect class="cls-1" x="116.31" y="46.74" width="6.56" height="6.56"/></g><path class="cls-4" d="M253.84,55.5c0-1.03-.82-1.86-1.86-1.86s-1.86,.82-1.86,1.86,.82,1.86,1.86,1.86,1.86-.82,1.86-1.86Zm-1.86,1.41c-.76,0-1.41-.62-1.41-1.41s.62-1.41,1.41-1.41,1.41,.62,1.41,1.41-.62,1.41-1.41,1.41Z"/><path class="cls-4" d="M252.71,55.19h0c0-.17-.07-.34-.14-.41-.1-.1-.27-.17-.48-.17h-.69v1.82h.38v-.58h.24l.34,.58h.41l-.38-.69c.17-.1,.31-.27,.31-.55Zm-.38,0c0,.17-.1,.27-.31,.27h-.27v-.55h.27c.17,0,.31,.1,.31,.27h0Z"/><path class="cls-4" d="M143.01,50.14v-.24c0-4.36-2.85-7.52-6.77-7.52s-6.8,3.23-6.8,7.56v.24c0,4.36,2.85,7.52,6.77,7.52,3.92-.03,6.8-3.23,6.8-7.56Zm-10.41-.07v-.17c0-2.75,1.41-4.78,3.61-4.78s3.68,2.06,3.68,4.81v.17c0,2.75-1.41,4.81-3.61,4.81s-3.68-2.1-3.68-4.84Z"/><path class="cls-4" d="M157.99,50.17v-.38c0-4.98-2.78-7.46-5.74-7.46-2.13,0-3.4,1.24-4.29,2.65v-2.37h-3.13v18.93h3.13v-6.42c.89,1.31,2.16,2.51,4.29,2.51,2.99,0,5.74-2.51,5.74-7.46Zm-10.1-.03v-.27c0-2.89,1.61-4.74,3.5-4.74s3.44,1.82,3.44,4.74v.24c0,2.95-1.51,4.74-3.44,4.74-1.89,0-3.5-1.82-3.5-4.71Z"/><path class="cls-4" d="M171.59,55.39l-1.65-1.96c-.96,.96-1.99,1.55-3.4,1.55-1.92,0-3.44-1.34-3.71-3.81h9.24c.03-.45,.03-.89,.03-1.1,0-4.43-2.13-7.76-6.12-7.76-3.61,0-6.29,3.16-6.29,7.59v.21c0,4.6,2.95,7.52,6.73,7.52,2.16,.03,3.81-.82,5.15-2.23Zm-5.63-10.41c1.82,0,2.89,1.68,3.06,4.02h-6.22c.24-2.51,1.44-4.02,3.16-4.02Z"/><path class="cls-4" d="M181.32,42.34c-1.99,0-3.2,1.13-4.02,2.44v-2.16h-3.13v14.74h3.13v-8.93c0-2.03,1.13-3.26,2.78-3.26s2.65,1.13,2.65,3.2v8.97h3.13v-9.86c0-3.13-1.68-5.12-4.54-5.12Z"/><path class="cls-4" d="M198.53,53.16h0c0-2.34-1.72-3.4-4.02-4.43-1.72-.79-2.89-1.27-2.89-2.27v-.07c0-.79,.69-1.44,1.86-1.44s2.4,.55,3.5,1.31l1.34-2.3c-1.37-1-3.13-1.58-4.78-1.58-2.75,0-4.88,1.68-4.88,4.29v.07c0,2.4,1.82,3.44,4.02,4.36,1.75,.76,2.89,1.24,2.89,2.27v.03c0,.93-.76,1.61-2.06,1.61s-2.71-.65-4.05-1.72l-1.48,2.27c1.68,1.41,3.71,2.06,5.46,2.06,2.89,0,5.08-1.58,5.08-4.47Z"/><path class="cls-4" d="M208.25,56.94v-2.58c-.52,.27-1.1,.41-1.68,.41-1,0-1.58-.48-1.58-1.61v-7.83h3.3v-2.71h-3.3v-3.99h-3.13v3.99h-1.61l.52,2.71h1.1v8.45c0,2.85,1.65,3.78,3.81,3.78,1,.03,1.86-.24,2.58-.62Z"/><path class="cls-4" d="M220.28,43.95c-.96-.96-2.4-1.51-4.33-1.51s-3.44,.48-4.88,1.17l.89,2.51c.96-.45,2.13-.89,3.57-.89,1.99,0,3.16,1.03,3.16,2.99v.62c-1-.34-1.99-.58-3.4-.58-3.13,0-5.22,1.55-5.22,4.74v.14c0,2.85,2.06,4.5,4.5,4.5,1.92,0,3.23-.82,4.09-2.1v1.82h3.09v-9.14c0-1.86-.48-3.3-1.48-4.26Zm-1.55,8.45c0,1.68-1.37,2.89-3.2,2.85-1.37-.03-2.4-.86-2.4-2.34v-.07c0-1.55,1.07-2.47,2.85-2.47,1.07,0,1.99,.21,2.71,.52v1.51h.03Z"/><path class="cls-4" d="M235.12,55.43l-1.68-2.1c-.86,.86-1.72,1.51-2.99,1.51-2.13,0-3.64-1.92-3.64-4.78v-.14c0-2.78,1.51-4.74,3.57-4.74,1.34,0,2.2,.65,2.99,1.48l1.75-2.3c-1.24-1.24-2.61-1.99-4.74-1.99-3.85,0-6.73,3.16-6.73,7.56v.27c0,4.4,2.78,7.49,6.63,7.49,2.2-.03,3.68-.96,4.84-2.27Z"/><g><polygon class="cls-4" points="244.74 49.69 242.54 52.06 245.49 57.35 249.14 57.35 244.74 49.69"/><polygon class="cls-4" points="245.25 42.61 240.24 49.11 240.24 37.29 237.08 37.29 237.08 57.35 240.24 57.35 240.24 53.09 249 42.61 245.25 42.61"/></g></g></g></svg>