<svg width="53" height="70" viewBox="0 0 53 70" fill="none" xmlns="http://www.w3.org/2000/svg">
<path d="M52.0339 14.3555L38.5216 0.957031C37.9005 0.341797 37.0586 0 36.1753 0H35.3333V17.5H53V16.666C53 15.8047 52.6549 14.9707 52.0339 14.3555ZM30.9167 18.5938V0H3.3125C1.47682 0 0 1.46289 0 3.28125V66.7188C0 68.5371 1.47682 70 3.3125 70H49.6875C51.5232 70 53 68.5371 53 66.7188V21.875H34.2292C32.4073 21.875 30.9167 20.3984 30.9167 18.5938ZM8.83333 9.84375C8.83333 9.23945 9.32745 8.75 9.9375 8.75H20.9792C21.5892 8.75 22.0833 9.23945 22.0833 9.84375V12.0312C22.0833 12.6355 21.5892 13.125 20.9792 13.125H9.9375C9.32745 13.125 8.83333 12.6355 8.83333 12.0312V9.84375ZM8.83333 20.7812V18.5938C8.83333 17.9895 9.32745 17.5 9.9375 17.5H20.9792C21.5892 17.5 22.0833 17.9895 22.0833 18.5938V20.7812C22.0833 21.3855 21.5892 21.875 20.9792 21.875H9.9375C9.32745 21.875 8.83333 21.3855 8.83333 20.7812ZM28.7083 56.8586V60.1562C28.7083 60.7605 28.2142 61.25 27.6042 61.25H25.3958C24.7858 61.25 24.2917 60.7605 24.2917 60.1562V56.8354C22.7334 56.7561 21.2179 56.2174 19.962 55.2836C19.4237 54.883 19.3961 54.0846 19.8833 53.6238L21.505 52.0912C21.8873 51.7303 22.456 51.7139 22.9032 51.9914C23.4373 52.3223 24.0432 52.5 24.6726 52.5H28.5524C29.4495 52.5 30.181 51.6906 30.181 50.6967C30.181 49.8832 29.6828 49.1668 28.9706 48.9562L22.7596 47.1105C20.1938 46.3477 18.4009 43.9086 18.4009 41.1783C18.4009 37.826 21.0302 35.1025 24.2903 35.0164V31.7188C24.2903 31.1145 24.7844 30.625 25.3945 30.625H27.6028C28.2128 30.625 28.707 31.1145 28.707 31.7188V35.0396C30.2652 35.1189 31.7807 35.6563 33.0367 36.5914C33.5749 36.992 33.6026 37.7904 33.1153 38.2512L31.4936 39.7838C31.1113 40.1447 30.5426 40.1611 30.0954 39.8836C29.5613 39.5514 28.9554 39.375 28.326 39.375H24.4462C23.5491 39.375 22.8176 40.1844 22.8176 41.1783C22.8176 41.9918 23.3159 42.7082 24.028 42.9188L30.239 44.7645C32.8048 45.5273 34.5977 47.9664 34.5977 50.6967C34.5977 54.0504 31.9684 56.7725 28.7083 56.8586Z" fill="#888888"/>
</svg>
