<svg width="68" height="70" viewBox="0 0 68 70" fill="none" xmlns="http://www.w3.org/2000/svg">
<path d="M68 48.5836V65.8719C68 67.9249 66.3763 69.5766 64.358 69.5766H47.3618C44.1143 69.5766 42.4905 65.5787 44.782 63.2478L50.2754 57.66L33.9924 41.1126L17.7246 57.6754L23.218 63.2478C25.5095 65.5787 23.8857 69.5766 20.6383 69.5766H3.64204C1.62374 69.5766 0 67.9249 0 65.8719V48.5836C0 45.2803 3.93037 43.6287 6.22183 45.9595L11.7152 51.5473L27.9982 35L11.7152 18.4371L6.22183 24.0404C3.93037 26.3712 0 24.7196 0 21.4163V4.12798C0 2.07499 1.62374 0.42334 3.64204 0.42334H20.6383C23.8857 0.42334 25.5095 4.42126 23.218 6.7521L17.7246 12.3399L33.9924 28.8873L50.2754 12.3245L44.782 6.7521C42.4905 4.42126 44.1143 0.42334 47.3618 0.42334H64.358C66.3763 0.42334 68 2.07499 68 4.12798V21.4163C68 24.7196 64.0696 26.3712 61.7782 24.0404L56.2848 18.4526L40.0018 35L56.2848 51.5628L61.7782 45.9749C64.0696 43.6287 68 45.2803 68 48.5836Z" fill="#888888"/>
</svg>
