<svg width="70" height="71" viewBox="0 0 70 71" fill="none" xmlns="http://www.w3.org/2000/svg">
<path d="M69.0557 2.61133C68.878 1.77734 68.2218 1.12109 67.3878 0.943359C62.9854 0 59.5401 0 56.1085 0C41.9991 0 33.5362 7.54687 27.2198 17.5H12.9737C10.4854 17.5 8.21592 18.9082 7.10849 21.123L0.35459 34.6309C-0.73916 36.8184 0.846777 39.375 3.29404 39.375H16.296C15.4894 41.125 14.669 42.8613 13.8351 44.5293C13.4112 45.377 13.5753 46.3887 14.2452 47.0586L22.9405 55.7539C23.6104 56.4238 24.6222 56.5879 25.4698 56.1641C27.1378 55.3301 28.8741 54.5234 30.6241 53.7168V66.7188C30.6241 69.1523 33.1944 70.7383 35.3683 69.6582L48.8624 62.9043C51.0909 61.7969 52.4854 59.5137 52.4854 57.0391V42.7656C62.4112 36.4355 69.9854 27.9453 69.9854 13.9043C69.9991 10.459 69.9991 7.01367 69.0557 2.61133ZM54.6866 21.875C51.0636 21.875 48.1241 18.9355 48.1241 15.3125C48.1241 11.6895 51.0636 8.75 54.6866 8.75C58.3097 8.75 61.2491 11.6895 61.2491 15.3125C61.2491 18.9355 58.3097 21.875 54.6866 21.875Z" fill="#888888"/>
</svg>
