<svg width="60" height="70" viewBox="0 0 60 70" fill="none" xmlns="http://www.w3.org/2000/svg">
<path d="M53.5714 30.625H50.3571V20.7812C50.3571 9.32422 41.2232 0 30 0C18.7768 0 9.64286 9.32422 9.64286 20.7812V30.625H6.42857C2.87946 30.625 0 33.5645 0 37.1875V63.4375C0 67.0605 2.87946 70 6.42857 70H53.5714C57.1205 70 60 67.0605 60 63.4375V37.1875C60 33.5645 57.1205 30.625 53.5714 30.625ZM39.6429 30.625H20.3571V20.7812C20.3571 15.3535 24.683 10.9375 30 10.9375C35.317 10.9375 39.6429 15.3535 39.6429 20.7812V30.625Z" fill="#888888"/>
</svg>
