<svg width="70" height="56" viewBox="0 0 70 56" fill="none" xmlns="http://www.w3.org/2000/svg">
<path d="M0 15.9687V13.7812C0 11.969 1.46904 10.5 3.28125 10.5H52.5V3.93748C52.5 1.01621 56.0409 -0.443266 58.1015 1.61722L69.039 12.5547C70.3203 13.8362 70.3203 15.9138 69.039 17.1951L58.1015 28.1326C56.0487 30.185 52.5 28.7459 52.5 25.8125V19.25H3.28125C1.46904 19.25 0 17.7809 0 15.9687ZM66.7188 36.75H17.5V30.1875C17.5 27.2735 13.9642 25.8015 11.8985 27.8672L0.960996 38.8047C-0.320332 40.0862 -0.320332 42.1638 0.960996 43.4451L11.8985 54.3826C13.9531 56.4371 17.5 54.9933 17.5 52.0625V45.5H66.7188C68.531 45.5 70 44.0309 70 42.2187V40.0312C70 38.219 68.531 36.75 66.7188 36.75Z" fill="#888888"/>
</svg>
