<svg width="33" height="60" viewBox="0 0 33 60" fill="none" xmlns="http://www.w3.org/2000/svg">
<path d="M23.972 27.3516L11.597 23.6484C10.1647 23.2266 9.16786 21.8555 9.16786 20.332C9.16786 18.4219 10.6804 16.875 12.5481 16.875H20.1449C21.5429 16.875 22.9179 17.3086 24.0637 18.1055C24.7627 18.5859 25.7022 18.4688 26.2981 17.8711L30.2856 13.8867C31.0991 13.0781 30.9845 11.7305 30.0793 11.0156C27.272 8.76562 23.7658 7.51172 20.1679 7.5V1.875C20.1679 0.84375 19.3429 0 18.3345 0H14.6679C13.6595 0 12.8345 0.84375 12.8345 1.875V7.5H12.5481C5.24911 7.5 -0.617553 13.9102 0.0584883 21.5156C0.539738 26.918 4.57307 31.3125 9.66057 32.8359L21.4054 36.3516C22.8377 36.7852 23.8345 38.1445 23.8345 39.668C23.8345 41.5781 22.322 43.125 20.4543 43.125H12.8574C11.4595 43.125 10.0845 42.6914 8.9387 41.8945C8.23974 41.4141 7.30016 41.5312 6.70432 42.1289L2.71682 46.1133C1.90328 46.9219 2.01786 48.2695 2.92307 48.9844C5.73036 51.2344 9.23661 52.4883 12.8345 52.5V58.125C12.8345 59.1562 13.6595 60 14.6679 60H18.3345C19.3429 60 20.1679 59.1562 20.1679 58.125V52.4766C25.5074 52.3711 30.5147 49.125 32.2793 43.957C34.7429 36.7383 30.6064 29.332 23.972 27.3516Z" fill="white"/>
</svg>
