<svg width="62" height="44" viewBox="0 0 62 44" fill="none" xmlns="http://www.w3.org/2000/svg">
<path d="M52.08 19.1289C52.4772 18.084 52.7 16.9414 52.7 15.75C52.7 10.5742 48.5344 6.375 43.4 6.375C41.4916 6.375 39.7091 6.96094 38.2366 7.95703C35.5531 3.26953 30.5447 0.125 24.8 0.125C16.2362 0.125 9.3 7.11719 9.3 15.75C9.3 16.0137 9.30969 16.2773 9.31937 16.541C3.89437 18.4648 0 23.6797 0 29.8125C0 37.5762 6.24844 43.875 13.95 43.875H49.6C56.4491 43.875 62 38.2793 62 31.375C62 25.3301 57.7375 20.2812 52.08 19.1289Z" fill="white"/>
</svg>
