<svg width="40" height="47" viewBox="0 0 40 47" fill="none" xmlns="http://www.w3.org/2000/svg">
<path d="M0 42.1284C0 44.5344 1.91964 46.4865 4.28571 46.4865H35.7143C38.0804 46.4865 40 44.5344 40 42.1284V17.4324H0V42.1284ZM28.5714 24.3328C28.5714 23.7335 29.0536 23.2432 29.6429 23.2432H33.2143C33.8036 23.2432 34.2857 23.7335 34.2857 24.3328V27.9645C34.2857 28.5638 33.8036 29.0541 33.2143 29.0541H29.6429C29.0536 29.0541 28.5714 28.5638 28.5714 27.9645V24.3328ZM28.5714 35.9544C28.5714 35.3552 29.0536 34.8649 29.6429 34.8649H33.2143C33.8036 34.8649 34.2857 35.3552 34.2857 35.9544V39.5862C34.2857 40.1854 33.8036 40.6757 33.2143 40.6757H29.6429C29.0536 40.6757 28.5714 40.1854 28.5714 39.5862V35.9544ZM17.1429 24.3328C17.1429 23.7335 17.625 23.2432 18.2143 23.2432H21.7857C22.375 23.2432 22.8571 23.7335 22.8571 24.3328V27.9645C22.8571 28.5638 22.375 29.0541 21.7857 29.0541H18.2143C17.625 29.0541 17.1429 28.5638 17.1429 27.9645V24.3328ZM17.1429 35.9544C17.1429 35.3552 17.625 34.8649 18.2143 34.8649H21.7857C22.375 34.8649 22.8571 35.3552 22.8571 35.9544V39.5862C22.8571 40.1854 22.375 40.6757 21.7857 40.6757H18.2143C17.625 40.6757 17.1429 40.1854 17.1429 39.5862V35.9544ZM5.71429 24.3328C5.71429 23.7335 6.19643 23.2432 6.78571 23.2432H10.3571C10.9464 23.2432 11.4286 23.7335 11.4286 24.3328V27.9645C11.4286 28.5638 10.9464 29.0541 10.3571 29.0541H6.78571C6.19643 29.0541 5.71429 28.5638 5.71429 27.9645V24.3328ZM5.71429 35.9544C5.71429 35.3552 6.19643 34.8649 6.78571 34.8649H10.3571C10.9464 34.8649 11.4286 35.3552 11.4286 35.9544V39.5862C11.4286 40.1854 10.9464 40.6757 10.3571 40.6757H6.78571C6.19643 40.6757 5.71429 40.1854 5.71429 39.5862V35.9544ZM35.7143 5.81081H31.4286V1.4527C31.4286 0.653716 30.7857 0 30 0H27.1429C26.3571 0 25.7143 0.653716 25.7143 1.4527V5.81081H14.2857V1.4527C14.2857 0.653716 13.6429 0 12.8571 0H10C9.21429 0 8.57143 0.653716 8.57143 1.4527V5.81081H4.28571C1.91964 5.81081 0 7.76288 0 10.1689V14.527H40V10.1689C40 7.76288 38.0804 5.81081 35.7143 5.81081Z" fill="#2CB4E2"/>
</svg>
