<svg width="40" height="29" viewBox="0 0 40 29" fill="none" xmlns="http://www.w3.org/2000/svg">
<path d="M28 14.6098C24.1313 14.6098 21 11.5549 21 7.7805C21 4.00611 24.1313 0.951233 28 0.951233C31.8687 0.951233 35 4.00611 35 7.7805C35 11.5549 31.8687 14.6098 28 14.6098ZM23.2 16.561H23.7188C25.0188 17.1707 26.4625 17.5366 28 17.5366C29.5375 17.5366 30.975 17.1707 32.2812 16.561H32.8C36.775 16.561 40 19.7073 40 23.5854V25.3415C40 26.9573 38.6562 28.2683 37 28.2683H19C17.3438 28.2683 16 26.9573 16 25.3415V23.5854C16 19.7073 19.225 16.561 23.2 16.561ZM10 14.6098C6.6875 14.6098 4 11.9878 4 8.75611C4 5.5244 6.6875 2.90245 10 2.90245C13.3125 2.90245 16 5.5244 16 8.75611C16 11.9878 13.3125 14.6098 10 14.6098ZM7 16.561H7.2375C8.10625 16.8537 9.025 17.0488 10 17.0488C10.975 17.0488 11.8938 16.8537 12.7625 16.561H13C14.275 16.561 15.45 16.9207 16.4813 17.5C14.9563 19.1037 14 21.2317 14 23.5854V25.9268C14 26.061 14.0312 26.189 14.0375 26.3171H3C1.34375 26.3171 0 25.0061 0 23.3903C0 19.6159 3.13125 16.561 7 16.561Z" fill="#F7B749"/>
</svg>
