<svg width="12" height="11" viewBox="0 0 12 11" fill="none" xmlns="http://www.w3.org/2000/svg">
    <g clip-path="url(#clip0_8_246)">
        <path d="M10.3301 4.6914L10.8384 5.225C10.8896 5.27838 10.9302 5.34186 10.9579 5.41178C10.9856 5.4817 10.9999 5.55668 10.9999 5.6324C10.9999 5.70813 10.9856 5.78311 10.9579 5.85302C10.9302 5.92294 10.8896 5.98642 10.8384 6.03981L6.38915 10.7148C6.33829 10.7685 6.27781 10.8111 6.2112 10.8402C6.14459 10.8693 6.07316 10.8842 6.00101 10.8842C5.92887 10.8842 5.85744 10.8693 5.79082 10.8402C5.72421 10.8111 5.66374 10.7685 5.61287 10.7148L1.16131 6.04221C1.11014 5.98883 1.06954 5.92535 1.04183 5.85543C1.01412 5.78551 0.99986 5.71053 0.99986 5.63481C0.99986 5.55908 1.01412 5.4841 1.04183 5.41418C1.06954 5.34426 1.11014 5.28079 1.16131 5.2274L1.66967 4.69381C1.72145 4.63956 1.78303 4.59671 1.8508 4.56777C1.91856 4.53883 1.99115 4.52438 2.06431 4.52528C2.13747 4.52617 2.20972 4.54239 2.27682 4.57298C2.34393 4.60357 2.40454 4.64792 2.4551 4.70342L5.08391 7.59973L5.08391 0.69185C5.08373 0.616043 5.09782 0.540945 5.12537 0.470871C5.15293 0.400798 5.1934 0.33713 5.24447 0.283526C5.29554 0.229921 5.3562 0.187438 5.42296 0.158515C5.48972 0.129593 5.56126 0.114802 5.63348 0.114992L6.36625 0.114992C6.43847 0.114802 6.51002 0.129593 6.57678 0.158515C6.64354 0.187438 6.7042 0.229921 6.75527 0.283526C6.80633 0.33713 6.84681 0.400798 6.87436 0.470871C6.90192 0.540945 6.91601 0.616043 6.91583 0.69185L6.91583 7.59973L9.54464 4.70102C9.5951 4.64534 9.65568 4.60083 9.7228 4.57013C9.78991 4.53943 9.86221 4.52315 9.93542 4.52225C10.0086 4.52136 10.0813 4.53586 10.1491 4.56491C10.2168 4.59397 10.2784 4.63697 10.3301 4.6914V4.6914Z" fill="#848484"/>
    </g>
    <defs>
        <clipPath id="clip0_8_246">
            <rect width="10.7692" height="10" fill="white" transform="translate(0.615356 0.5)"/>
        </clipPath>
    </defs>
</svg>
