<svg width="44" height="36" viewBox="0 0 44 36" fill="none" xmlns="http://www.w3.org/2000/svg">
    <path d="M28.6667 2V6.44444V2ZM28.6667 15.3333V19.7778V15.3333ZM28.6667 28.6667V33.1111V28.6667ZM6.44444 2C5.2657 2 4.13524 2.46825 3.30175 3.30175C2.46825 4.13524 2 5.2657 2 6.44444V13.1111C3.17874 13.1111 4.3092 13.5794 5.1427 14.4129C5.97619 15.2464 6.44444 16.3768 6.44444 17.5556C6.44444 18.7343 5.97619 19.8648 5.1427 20.6983C4.3092 21.5317 3.17874 22 2 22V28.6667C2 29.8454 2.46825 30.9759 3.30175 31.8094C4.13524 32.6429 5.2657 33.1111 6.44444 33.1111H37.5556C38.7343 33.1111 39.8648 32.6429 40.6983 31.8094C41.5317 30.9759 42 29.8454 42 28.6667V22C40.8213 22 39.6908 21.5317 38.8573 20.6983C38.0238 19.8648 37.5556 18.7343 37.5556 17.5556C37.5556 16.3768 38.0238 15.2464 38.8573 14.4129C39.6908 13.5794 40.8213 13.1111 42 13.1111V6.44444C42 5.2657 41.5317 4.13524 40.6983 3.30175C39.8648 2.46825 38.7343 2 37.5556 2H6.44444Z" stroke="#EC3830" stroke-width="4" stroke-linecap="round" stroke-linejoin="round"/>
</svg>
