<svg width="47" height="47" viewBox="0 0 47 47" fill="none" xmlns="http://www.w3.org/2000/svg">
    <path d="M11.5612 34.8666C9.2094 34.8691 6.93934 34.0156 5.1859 32.4693C3.43246 30.9231 2.31895 28.7929 2.05869 26.487C1.79842 24.181 2.40971 21.8614 3.77545 19.9725C5.14118 18.0836 7.16532 16.7583 9.46007 16.2504C8.79612 13.1955 9.38946 10.0054 11.1096 7.38205C12.8297 4.75868 15.5356 2.91689 18.6321 2.26186C21.7287 1.60682 24.9621 2.19219 27.6212 3.8892C30.2803 5.5862 32.1471 8.25583 32.8111 11.3108H33.0498C36.0104 11.3079 38.8664 12.3903 41.0635 14.348C43.2606 16.3057 44.642 18.999 44.9395 21.905C45.2371 24.811 44.4295 27.7224 42.6736 30.0741C40.9177 32.4257 38.3388 34.0498 35.4375 34.631M30.6622 27.7998L23.4993 20.7331M23.4993 20.7331L16.3364 27.7998M23.4993 20.7331V45" stroke="#45B65C" stroke-width="3" stroke-linecap="round" stroke-linejoin="round"/>
</svg>
