<svg width="47" height="47" viewBox="0 0 47 47" fill="none" xmlns="http://www.w3.org/2000/svg">
    <path d="M16.3333 2V6.77778V2ZM30.6667 2V6.77778V2ZM16.3333 40.2222V45V40.2222ZM30.6667 40.2222V45V40.2222ZM6.77778 16.3333H2H6.77778ZM6.77778 30.6667H2H6.77778ZM45 16.3333H40.2222H45ZM45 30.6667H40.2222H45ZM11.5556 40.2222H35.4444C36.7116 40.2222 37.9268 39.7188 38.8228 38.8228C39.7188 37.9268 40.2222 36.7116 40.2222 35.4444V11.5556C40.2222 10.2884 39.7188 9.07316 38.8228 8.17716C37.9268 7.28115 36.7116 6.77778 35.4444 6.77778H11.5556C10.2884 6.77778 9.07316 7.28115 8.17716 8.17716C7.28115 9.07316 6.77778 10.2884 6.77778 11.5556V35.4444C6.77778 36.7116 7.28115 37.9268 8.17716 38.8228C9.07316 39.7188 10.2884 40.2222 11.5556 40.2222ZM16.3333 16.3333H30.6667V30.6667H16.3333V16.3333Z" stroke="#2CB4E2" stroke-width="3" stroke-linecap="round" stroke-linejoin="round"/>
</svg>
