<svg width="53" height="47" viewBox="0 0 53 47" fill="none" xmlns="http://www.w3.org/2000/svg">
    <path d="M15.6111 15.4375L23.7778 23.5L15.6111 31.5625V15.4375ZM29.2222 31.5625H37.3889H29.2222ZM7.44444 45H45.5556C46.9995 45 48.3843 44.4337 49.4054 43.4257C50.4264 42.4177 51 41.0505 51 39.625V7.375C51 5.94946 50.4264 4.58231 49.4054 3.5743C48.3843 2.56629 46.9995 2 45.5556 2H7.44444C6.00049 2 4.61567 2.56629 3.59464 3.5743C2.57361 4.58231 2 5.94946 2 7.375V39.625C2 41.0505 2.57361 42.4177 3.59464 43.4257C4.61567 44.4337 6.00049 45 7.44444 45Z" stroke="#F7B749" stroke-width="3" stroke-linecap="round" stroke-linejoin="round"/>
</svg>
