<svg width="42" height="47" viewBox="0 0 42 47" fill="none" xmlns="http://www.w3.org/2000/svg">
    <path d="M21 30.6667V35.4444V30.6667ZM6.75 45H35.25C36.5098 45 37.718 44.4966 38.6088 43.6006C39.4996 42.7046 40 41.4894 40 40.2222V25.8889C40 24.6217 39.4996 23.4065 38.6088 22.5105C37.718 21.6145 36.5098 21.1111 35.25 21.1111H6.75C5.49022 21.1111 4.28204 21.6145 3.39124 22.5105C2.50044 23.4065 2 24.6217 2 25.8889V40.2222C2 41.4894 2.50044 42.7046 3.39124 43.6006C4.28204 44.4966 5.49022 45 6.75 45ZM30.5 21.1111V11.5556C30.5 9.02126 29.4991 6.59077 27.7175 4.79876C25.9359 3.00674 23.5196 2 21 2C18.4804 2 16.0641 3.00674 14.2825 4.79876C12.5009 6.59077 11.5 9.02126 11.5 11.5556V21.1111H30.5Z" stroke="#E61E24" stroke-width="3" stroke-linecap="round" stroke-linejoin="round"/>
</svg>
