<svg width="44" height="44" viewBox="0 0 44 44" fill="none" xmlns="http://www.w3.org/2000/svg">
    <path d="M19.7771 8.40463V38.0899C19.7765 39.011 19.4508 39.9023 18.8574 40.6068C18.2641 41.3113 17.4411 41.7837 16.5336 41.941C15.626 42.0982 14.6921 41.9301 13.8964 41.4663C13.1006 41.0025 12.4941 40.2727 12.1836 39.4055L7.41233 25.7385M7.41233 25.7385C5.52609 24.9365 3.97487 23.5096 3.02116 21.6954C2.06746 19.8811 1.76985 17.7931 2.1787 15.7846C2.58756 13.7762 3.67777 11.9706 5.26483 10.6736C6.85189 9.37654 8.83833 8.66764 10.888 8.66686H14.9592C24.0706 8.66686 31.9042 5.92456 35.3331 2V33.112C31.9042 29.1875 24.0728 26.4452 14.9592 26.4452H10.888C9.69381 26.4469 8.51159 26.2051 7.41233 25.7385ZM35.3331 24.2229C37.1013 24.2229 38.797 23.5205 40.0473 22.2702C41.2976 21.0199 42 19.3242 42 17.556C42 15.7878 41.2976 14.0921 40.0473 12.8418C38.797 11.5915 37.1013 10.8891 35.3331 10.8891V24.2229Z" stroke="#2CB4E2" stroke-width="4" stroke-linecap="round" stroke-linejoin="round"/>
</svg>
