<svg width="90" height="80" viewBox="0 0 90 80" fill="none" xmlns="http://www.w3.org/2000/svg">
    <path d="M58.5 3L30.75 16.875M30.75 77L5.55762 64.4015C4.7895 64.0177 4.1434 63.4276 3.69168 62.6973C3.23996 61.967 3.00046 61.1254 3 60.2667V10.4833C3.00042 9.69519 3.2022 8.92031 3.58619 8.23213C3.97018 7.54395 4.52365 6.96531 5.19407 6.5511C5.8645 6.13689 6.62964 5.90086 7.4169 5.8654C8.20416 5.82994 8.98743 5.99624 9.69238 6.3485L30.75 16.875V77ZM30.75 77L58.5 63.125L30.75 77ZM30.75 77V16.875V77ZM58.5 63.125L79.5576 73.6515C80.2626 74.0038 81.0458 74.1701 81.8331 74.1346C82.6204 74.0991 83.3855 73.8631 84.0559 73.4489C84.7264 73.0347 85.2798 72.456 85.6638 71.7679C86.0478 71.0797 86.2496 70.3048 86.25 69.5167V19.7333C86.2495 18.8746 86.01 18.033 85.5583 17.3027C85.1066 16.5724 84.4605 15.9823 83.6924 15.5985L58.5 3V63.125ZM58.5 63.125V3V63.125Z" stroke="#F7B749" stroke-width="6" stroke-linecap="round" stroke-linejoin="round"/>
</svg>
