<svg width="99" height="99" viewBox="0 0 99 99" fill="none" xmlns="http://www.w3.org/2000/svg">
    <path d="M40.9941 10.0362C43.1892 0.987931 56.0608 0.987931 58.2559 10.0362C58.5853 11.3955 59.2309 12.6578 60.1403 13.7204C61.0497 14.7831 62.1972 15.6159 63.4893 16.1512C64.7815 16.6866 66.1817 16.9092 67.5762 16.8011C68.9706 16.693 70.3198 16.2572 71.514 15.5291C79.4647 10.6855 88.5697 19.7853 83.7261 27.7412C82.999 28.9348 82.5639 30.2832 82.456 31.6767C82.3481 33.0702 82.5706 34.4695 83.1053 35.7608C83.64 37.0522 84.4719 38.1991 85.5333 39.1084C86.5947 40.0178 87.8557 40.6638 89.2138 40.9941C98.2621 43.1892 98.2621 56.0608 89.2138 58.2559C87.8545 58.5853 86.5922 59.2309 85.5296 60.1403C84.4669 61.0497 83.6341 62.1972 83.0988 63.4893C82.5634 64.7815 82.3407 66.1817 82.4489 67.5762C82.557 68.9706 82.9928 70.3198 83.7209 71.514C88.5645 79.4647 79.4647 88.5697 71.5088 83.7261C70.3152 82.999 68.9668 82.5639 67.5733 82.456C66.1798 82.3481 64.7805 82.5706 63.4892 83.1053C62.1978 83.64 61.0509 84.4719 60.1415 85.5333C59.2322 86.5947 58.5862 87.8557 58.2559 89.2138C56.0608 98.2621 43.1892 98.2621 40.9941 89.2138C40.6647 87.8545 40.0191 86.5922 39.1097 85.5296C38.2003 84.4669 37.0528 83.6341 35.7607 83.0988C34.4685 82.5634 33.0683 82.3407 31.6738 82.4489C30.2794 82.557 28.9302 82.9928 27.736 83.7209C19.7853 88.5645 10.6803 79.4647 15.5239 71.5088C16.251 70.3152 16.6861 68.9668 16.794 67.5733C16.9019 66.1798 16.6794 64.7805 16.1447 63.4892C15.61 62.1978 14.7781 61.0509 13.7167 60.1415C12.6553 59.2322 11.3943 58.5862 10.0362 58.2559C0.987931 56.0608 0.987931 43.1892 10.0362 40.9941C11.3955 40.6647 12.6578 40.0191 13.7204 39.1097C14.7831 38.2003 15.6159 37.0528 16.1512 35.7607C16.6866 34.4685 16.9092 33.0683 16.8011 31.6738C16.693 30.2794 16.2572 28.9302 15.5291 27.736C10.6855 19.7853 19.7853 10.6803 27.7412 15.5239C32.8733 18.6568 39.5719 15.8846 40.9941 10.0362Z" stroke="#45B65C" stroke-width="6" stroke-linecap="round" stroke-linejoin="round"/>
    <path d="M65.0833 49.625C65.0833 53.7248 63.4547 57.6567 60.5557 60.5557C57.6567 63.4547 53.7248 65.0833 49.625 65.0833C45.5252 65.0833 41.5933 63.4547 38.6943 60.5557C35.7953 57.6567 34.1666 53.7248 34.1666 49.625C34.1666 45.5252 35.7953 41.5933 38.6943 38.6943C41.5933 35.7953 45.5252 34.1666 49.625 34.1666C53.7248 34.1666 57.6567 35.7953 60.5557 38.6943C63.4547 41.5933 65.0833 45.5252 65.0833 49.625V49.625Z" stroke="#45B65C" stroke-width="6" stroke-linecap="round" stroke-linejoin="round"/>
</svg>
