<svg width="88" height="99" viewBox="0 0 88 99" fill="none" xmlns="http://www.w3.org/2000/svg">
    <path d="M54.25 38.875L44 44M44 44L33.75 38.875M44 44V56.8125M85 23.5L74.75 28.625M85 23.5L74.75 18.375M85 23.5V36.3125M54.25 8.125L44 3L33.75 8.125M3 23.5L13.25 18.375M3 23.5L13.25 28.625M3 23.5V36.3125M44 95.25L33.75 90.125M44 95.25L54.25 90.125M44 95.25V82.4375M13.25 79.875L3 74.75V61.9375M74.75 79.875L85 74.75V61.9375" stroke="#2FB2DF" stroke-width="6" stroke-linecap="round" stroke-linejoin="round"/>
</svg>
