<svg width="237" height="363" viewBox="0 0 237 363" fill="none" xmlns="http://www.w3.org/2000/svg">
    <path d="M198.532 -37H-133.836C-154.609 -37 -172 -20.0917 -172 1.16436V90.5366H-79.7292V76.0438C-79.7292 64.9326 -70.5505 55.7539 -59.4393 55.7539H123.653C134.764 55.7539 143.943 64.9326 143.943 76.0438V90.5366H236.214V1.16436C236.214 -19.6086 219.305 -37 198.532 -37Z" fill="black" fill-opacity="0.1"/>
    <path d="M143.943 249.956C143.943 261.068 134.764 270.246 123.653 270.246H-59.4393C-70.5505 270.246 -79.7292 261.068 -79.7292 249.956V235.464H-172V324.836C-172 345.609 -155.092 363 -133.836 363H198.532C219.305 363 236.697 346.092 236.697 324.836V235.464H143.943V249.956Z" fill="black" fill-opacity="0.1"/>
    <path d="M236.214 117.107H143.943V209.378H236.214V117.107Z" fill="black" fill-opacity="0.1"/>
</svg>
