<svg width="59" height="52" viewBox="0 0 59 52" fill="none" xmlns="http://www.w3.org/2000/svg">
<g clip-path="url(#clip0_92_5966)">
<path d="M20.832 47.9584L17.527 46.0509C16.5172 45.4926 15.8287 44.4691 15.5991 43.3525L14.3598 36.932C12.7073 34.1405 10.8712 28.9297 10.8712 28.9297L0.58917 47.121C-0.558381 49.1216 0.864583 51.6339 3.15969 51.6339H19.409C19.7762 51.6339 20.1434 51.4013 20.3271 51.0756L21.8418 48.3772C21.5205 48.2841 21.1533 48.1445 20.832 47.9584Z" fill="#65C7C2"/>
<path d="M31.8455 1.51152C30.6895 -0.503676 27.8226 -0.503676 26.6666 1.51152L13.7657 24.1941C14.1356 23.6786 14.6905 23.2568 15.3378 23.1162C19.5457 21.9915 28.0076 20.4918 34.5737 24.3347C37.9492 26.3031 40.3536 29.3961 42.0645 32.5361H48.908C49.278 32.5361 49.5554 32.6767 49.7404 32.9579L31.8455 1.51152Z" fill="#141F47"/>
<path d="M57.8156 47.0227L49.7568 33.3242C49.8949 33.6859 49.8489 34.0928 49.5265 34.4545L45.3359 38.7042L58.184 47.9721C58.0919 47.6556 57.9538 47.3392 57.8156 47.0227Z" fill="#65C7C2"/>
<path d="M27.9313 36.2541C21.963 32.7384 17.1883 28.2852 13.8368 24.5352L13.6073 24.957C13.2859 25.4727 13.3777 26.1289 13.5613 26.7383C14.2041 29.129 15.3978 32.7384 17.4637 36.1134L18.7951 43.0979C18.8411 43.426 19.0247 43.7073 19.3002 43.8479L22.6057 45.7698C23.1107 46.098 23.7994 45.9105 24.0749 45.3479L25.1308 43.5198C28.2068 45.0667 31.6042 45.4886 34.772 45.4417L38.1694 51.4418C38.6285 52.2855 39.8681 52.1449 40.1435 51.2074L42.0259 44.5042C42.4391 44.4104 42.8523 44.3167 43.2195 44.1761C44 43.9886 44.5969 43.4729 44.9641 42.8167C40.0976 41.7385 33.8997 39.7697 27.9313 36.2541Z" fill="#141F47"/>
<path d="M56.348 51.8313L44.6263 46.1406L43.1328 51.9811H55.3976C55.7144 52.031 56.0765 51.9811 56.348 51.8313Z" fill="#65C7C2"/>
</g>
<defs>
<clipPath id="clip0_92_5966">
<rect width="58" height="52" fill="white" transform="translate(0.183594)"/>
</clipPath>
</defs>
</svg>
