<svg width="52" height="62" viewBox="0 0 52 62" fill="none" xmlns="http://www.w3.org/2000/svg">
<g clip-path="url(#clip0_92_5978)">
<path fill-rule="evenodd" clip-rule="evenodd" d="M26.3163 0L0.816406 25.2095L6.67337 30.9999L0.816406 36.7904L26.3163 62L51.8164 36.7904L45.9586 30.9999L51.8164 25.2095L26.3163 0ZM5.11761 24.9832L26.3163 3.97044L47.5152 24.9832L43.7564 28.7094L26.3163 11.421L8.87509 28.7094L5.11761 24.9832ZM27.8526 17.1034L34.3044 23.3652L27.8526 29.6256V17.1034ZM10.6477 31.0001L24.7803 17.1034V44.8966L10.6477 31.0001ZM30.6176 31.1384L36.1321 25.6552L41.6779 31.1683L36.1633 36.6502L30.6176 31.1384ZM27.8526 32.069L34.3044 38.4824L27.8526 44.8966V32.069ZM43.7564 33.2906L47.5152 37.0165L26.3163 58.0296L5.11761 37.0165L8.87509 33.2906L26.3163 50.5793L43.7564 33.2906Z" fill="#F05C3F"/>
</g>
<defs>
<clipPath id="clip0_92_5978">
<rect width="51" height="62" fill="white" transform="translate(0.816406)"/>
</clipPath>
</defs>
</svg>
