<svg width="53" height="65" viewBox="0 0 53 65" fill="none" xmlns="http://www.w3.org/2000/svg">
<path d="M26.7035 9.54733C29.3399 9.54733 31.4771 7.41008 31.4771 4.77366C31.4771 2.13724 29.3399 0 26.7035 0C24.067 0 21.9298 2.13724 21.9298 4.77366C21.9298 7.41008 24.067 9.54733 26.7035 9.54733Z" fill="#00CCFF"/>
<path d="M33.9784 12.7344C34.6441 13.3837 35.0584 14.2908 35.0584 15.2925C35.0584 16.3171 34.6147 17.2862 33.8642 17.9583V47.5139C33.8642 51.4621 30.6535 54.676 26.7021 54.676C22.7539 54.676 19.54 51.4653 19.54 47.5139V17.9583C18.7895 17.2862 18.3457 16.3171 18.3457 15.2925C18.3457 14.2908 18.7601 13.3837 19.4258 12.7344C8.46559 15.8896 0.445312 25.9916 0.445312 37.9666C0.445312 52.467 12.2016 64.2234 26.7021 64.2234C41.2025 64.2234 52.9589 52.467 52.9589 37.9666C52.9589 25.9916 44.9386 15.8896 33.9784 12.7344Z" fill="#025FDF"/>
<path d="M29.9924 12.7344H23.4143C22.5953 12.7344 21.9297 13.0574 21.9297 13.4555C21.9297 13.8536 22.5953 14.1766 23.4143 14.1766H29.9924C30.8114 14.1766 31.477 13.8536 31.477 13.4555C31.477 13.0574 30.8114 12.7344 29.9924 12.7344Z" fill="#025FDF"/>
<path d="M31.0855 19.2566C30.3415 20.9729 28.6187 22.1639 26.6185 22.1312C24.0147 22.0856 21.9297 24.3011 21.9297 26.9049V47.5136C21.9297 50.15 24.0669 52.2872 26.7034 52.2872C29.3398 52.2872 31.477 50.15 31.477 47.5136V19.3251C31.477 19.1 31.1768 19.0478 31.0855 19.2566ZM24.3149 34.3868C23.6558 34.3868 23.1207 33.8517 23.1207 33.1926C23.1207 32.5335 23.6558 31.9983 24.3149 31.9983C24.974 31.9983 25.5091 32.5335 25.5091 33.1926C25.5091 33.8517 24.974 34.3868 24.3149 34.3868ZM26.1062 37.9662C25.7767 37.9662 25.5091 37.6987 25.5091 37.3691C25.5091 37.0396 25.7767 36.772 26.1062 36.772C26.4358 36.772 26.7034 37.0396 26.7034 37.3691C26.7034 37.6987 26.4358 37.9662 26.1062 37.9662ZM27.8976 29.6131C26.5794 29.6131 25.5091 28.5429 25.5091 27.2247C25.5091 25.9064 26.5794 24.8362 27.8976 24.8362C29.2158 24.8362 30.2861 25.9064 30.2861 27.2247C30.2828 28.5462 29.2158 29.6131 27.8976 29.6131Z" fill="#00CCFF"/>
</svg>
