<svg width="65" height="53" viewBox="0 0 65 53" fill="none" xmlns="http://www.w3.org/2000/svg">
<g opacity="0.98">
<g opacity="0.98">
<g opacity="0.98">
<path opacity="0.98" d="M54.0913 0H9.84667C7.06111 0.00801843 4.80497 2.24144 4.79688 4.99896V16.781H17.0703V14.8567C17.0703 13.3634 18.2932 12.1528 19.8017 12.1528H44.1451C45.6536 12.1528 46.8765 13.3634 46.8765 14.8567V16.781H59.1588V4.99896C59.1491 2.23528 56.8831 -1.68545e-05 54.0913 0V0Z" fill="#EC1944"/>
<path opacity="0.98" d="M46.8648 37.8071C46.8632 39.2997 45.6412 40.5093 44.1334 40.5109H19.79C18.2822 40.5093 17.0603 39.2997 17.0586 37.8071V35.8828H4.78516V47.6619C4.79164 50.4206 7.04824 52.6557 9.83495 52.6638H54.0796C56.876 52.6686 59.1478 50.4301 59.156 47.6619V35.8828H46.8648V37.8071Z" fill="#EC1944"/>
<path opacity="0.98" d="M17.0616 20.2578H4.78516V32.4106H17.0616V20.2578Z" fill="#EC1944"/>
<path opacity="0.98" d="M59.1397 20.2578H46.8633V32.4106H59.1397V20.2578Z" fill="#EC1944"/>
</g>
</g>
</g>
</svg>
