<svg width="126" height="111" viewBox="0 0 126 111" fill="none" xmlns="http://www.w3.org/2000/svg">
<path d="M59.6386 21.8388L43.5404 0.41748H0L37.8684 50.8044L59.6386 21.8388Z" fill="#685BC7"/>
<path d="M56.0786 75.0461L82.4498 110.141H125.99L87.928 59.4688C79.5627 68.2348 67.3922 74.2519 56.0786 75.0461Z" fill="#685BC7"/>
<path d="M29.9315 100.764L53.232 69.7619H53.5584C65.6065 69.7619 79.7255 62.3092 87.3767 51.8022L111.218 20.0775C115.259 15.0003 120.283 10.7865 125.99 7.68688C119.583 5.02958 109.83 3.61439 109.83 3.61439C106.056 0.41748 97.4355 0.41748 97.4355 0.41748C82.4493 0.41748 75.3286 9.89621 75.3286 9.89621L42.4693 53.6755C62.0155 53.5534 65.933 50.5397 77.8994 35.105L80.3988 31.7248C81.6328 30.0596 83.2412 28.7066 85.0945 27.7747C86.9478 26.8428 88.9944 26.358 91.0697 26.3593L82.1841 38.3426C69.1771 55.1315 63.8212 59.0512 41.1941 59.0512C40.2453 59.0512 39.3374 59.0512 38.4498 59.0512L0 110.141H9.42628C16.6184 110.141 25.3918 106.302 29.9315 100.764Z" fill="#330072"/>
</svg>
