<svg width="66" height="73" viewBox="0 0 66 73" fill="none" xmlns="http://www.w3.org/2000/svg">
<g clip-path="url(#clip0_92_6003)">
<path d="M0.550781 60.3082H65.5508L51.6731 35.6482V27.203L55.5128 22.0232H43.9938L33.0234 2.54297L22.0529 22.0795H10.5888L14.4284 27.2593V35.7045L0.550781 60.3082ZM14.3736 56.9301H6.20057L14.3736 42.4043V56.9301ZM20.0782 56.9301H17.6647V37.0557H20.0234V56.9301H20.0782ZM20.0782 33.6776H17.6647V31.2567H20.0234V33.6776H20.0782ZM31.3778 56.9301H23.3145V37.0557H31.3778V56.9301ZM42.7322 56.9301H34.6689V37.0557H42.7322V56.9301ZM42.7322 33.6776H23.3145V31.2567H42.6774L42.7322 33.6776ZM48.382 56.9301H46.0234V37.0557H48.382V56.9301ZM48.382 33.6776H46.0234V31.2567H48.382V33.6776ZM51.6731 42.4043L59.8461 56.9301H51.6731V42.4043ZM33.0234 9.29913L40.209 22.0795H25.8377L33.0234 9.29913ZM48.8757 25.4576L48.382 26.1332V27.8786H17.6647V26.0769L17.171 25.4013H48.8757V25.4576Z" fill="#071D49"/>
</g>
<defs>
<clipPath id="clip0_92_6003">
<rect width="65" height="73" fill="white" transform="translate(0.554688)"/>
</clipPath>
</defs>
</svg>
