<svg width="336" height="80" viewBox="0 0 336 80" fill="none" xmlns="http://www.w3.org/2000/svg">
<path d="M7.18675 79.2674C4.74374 79.2674 2.94113 78.6745 1.7552 77.5123C0.569276 76.3263 3.05176e-05 74.5237 3.05176e-05 72.0807V58.8695C3.05176e-05 58.4188 0.118623 58.0868 0.33209 57.8733C0.569276 57.6599 0.877617 57.5413 1.32827 57.5413C1.77892 57.5413 2.11098 57.6599 2.32445 57.8733C2.53791 58.1105 2.65651 58.4188 2.65651 58.8695V72.0807C2.65651 73.2192 2.79882 74.1205 3.05972 74.7609C3.34435 75.425 3.795 75.8757 4.4354 76.1366C5.09952 76.4212 5.9771 76.5398 7.11559 76.5398H10.958C12.0965 76.5398 12.9978 76.3975 13.6382 76.1366C14.3023 75.8757 14.753 75.4013 15.0139 74.7609C15.2985 74.0968 15.4171 73.2192 15.4171 72.0807V58.8695C15.4171 58.4188 15.5357 58.0868 15.7491 57.8733C15.9863 57.6599 16.2947 57.5413 16.7453 57.5413C17.196 57.5413 17.528 57.6599 17.7415 57.8733C17.955 58.1105 18.0736 58.4188 18.0736 58.8695V72.0807C18.0736 74.5237 17.4806 76.3263 16.3184 77.5123C15.1562 78.6982 13.3299 79.2674 10.8868 79.2674H7.06816H7.18675Z" fill="white"/>
<path d="M33.0169 79.2675C31.1905 79.2675 29.7674 78.9117 28.7475 78.1764C27.7276 77.4411 27.0872 76.3026 26.8263 74.7609C26.7789 74.2866 26.8737 73.9308 27.1109 73.7173C27.3481 73.4801 27.7039 73.3615 28.1308 73.3615C28.5578 73.3615 28.9135 73.4801 29.1033 73.6699C29.3168 73.8833 29.4591 74.2154 29.5302 74.6661C29.6963 75.4013 30.0283 75.9231 30.5501 76.184C31.0719 76.4687 31.8784 76.5873 32.9694 76.5873H37.5945C38.9702 76.5873 39.919 76.3501 40.3933 75.852C40.8677 75.3539 41.1286 74.4289 41.1286 73.0769C41.1286 71.725 40.8677 70.7525 40.3696 70.2544C39.8715 69.7563 38.9228 69.4954 37.5945 69.4954H33.6335C31.6175 69.4954 30.1232 68.9973 29.1507 68.0249C28.1783 67.0524 27.6802 65.5344 27.6802 63.5183C27.6802 61.5023 28.1545 60.008 29.127 59.0593C30.0995 58.0868 31.5937 57.6124 33.6098 57.6124H37.4285C39.1125 57.6124 40.4645 57.9682 41.4132 58.656C42.3857 59.3439 42.9786 60.4112 43.2395 61.8343C43.3107 62.285 43.2158 62.6408 42.9786 62.8779C42.7415 63.1151 42.3857 63.2337 41.935 63.2337C41.5081 63.2337 41.176 63.1151 40.9863 62.9017C40.7728 62.6645 40.6305 62.3561 40.5831 61.9292C40.417 61.2888 40.085 60.8619 39.6106 60.6484C39.1362 60.4112 38.401 60.2926 37.4522 60.2926H33.6335C32.3527 60.2926 31.4989 60.5298 31.0482 60.9805C30.6213 61.4311 30.3841 62.285 30.3841 63.5421C30.3841 64.7991 30.5976 65.6767 31.0482 66.1274C31.4989 66.6018 32.3765 66.8389 33.6335 66.8389H37.5945C39.7055 66.8389 41.2709 67.337 42.2908 68.3806C43.3107 69.4243 43.8325 70.9897 43.8325 73.1244C43.8325 75.259 43.3344 76.8244 42.2908 77.8206C41.2709 78.8168 39.7055 79.3386 37.5708 79.3386H32.9457L33.0169 79.2675Z" fill="white"/>
<path d="M54.4818 79.2674C53.5805 79.2674 53.1299 78.8168 53.1299 77.9155V58.8932C53.1299 57.9919 53.5805 57.5413 54.4818 57.5413H65.9853C66.8866 57.5413 67.3373 57.9919 67.3373 58.8932C67.3373 59.7945 66.8866 60.2452 65.9853 60.2452H55.8338V66.9575H62.2141C63.1154 66.9575 63.566 67.4082 63.566 68.3095C63.566 69.2108 63.1154 69.6614 62.2141 69.6614H55.8338V76.5872H65.9853C66.8866 76.5872 67.3373 77.0379 67.3373 77.9392C67.3373 78.8405 66.8866 79.2912 65.9853 79.2912H54.4818V79.2674Z" fill="white"/>
<path d="M78.9829 67.9062H85.126C86.3356 67.9062 87.2132 67.6453 87.7113 67.1472C88.2094 66.6491 88.494 65.7715 88.494 64.5619V63.6131C88.494 62.4035 88.2331 61.5496 87.7113 61.0278C87.2132 60.506 86.3356 60.2451 85.126 60.2451H78.9829V67.9299V67.9062ZM90.2492 79.2911C89.8934 79.5045 89.5613 79.5757 89.253 79.5045C88.9447 79.4097 88.66 79.1962 88.4466 78.8404L83.4894 70.5864H79.0066V77.8917C79.0066 78.793 78.5559 79.2436 77.6546 79.2436C76.7533 79.2436 76.3027 78.793 76.3027 77.8917V58.8694C76.3027 57.9681 76.7533 57.5175 77.6546 57.5175H85.1497C87.0946 57.5175 88.6126 58.0393 89.6325 59.0829C90.6761 60.1265 91.1979 61.6208 91.1979 63.5657V64.5144C91.1979 66.1984 90.7947 67.5741 90.012 68.5703C89.2293 69.5665 88.0671 70.2069 86.5728 70.4441L90.771 77.441C91.1742 78.2 91.0082 78.793 90.2729 79.2674L90.2492 79.2911Z" fill="white"/>
<path d="M119.186 79.2673C116.743 79.2673 114.94 78.6743 113.754 77.5121C112.568 76.3262 111.999 74.5236 111.999 72.0806V64.7278C111.999 62.2611 112.592 60.4348 113.754 59.2726C114.916 58.0866 116.719 57.5174 119.162 57.5411H123.028C125.044 57.5411 126.562 57.9443 127.629 58.7982C128.697 59.6521 129.29 60.9329 129.48 62.7118C129.551 63.1624 129.456 63.4945 129.219 63.7317C128.981 63.9688 128.626 64.0874 128.199 64.0874C127.392 64.0874 126.918 63.6368 126.799 62.7355C126.681 61.763 126.349 61.0989 125.779 60.7431C125.21 60.4111 124.309 60.245 123.052 60.245H119.186C118.071 60.245 117.17 60.3636 116.529 60.6245C115.889 60.8854 115.438 61.3598 115.154 62.0002C114.869 62.6643 114.75 63.5656 114.75 64.7041V72.0569C114.75 73.1954 114.893 74.0967 115.154 74.7371C115.414 75.4012 115.889 75.8518 116.529 76.1127C117.193 76.3974 118.071 76.516 119.209 76.516H123.052C124.048 76.516 124.831 76.3974 125.376 76.1839C125.922 75.9704 126.325 75.5672 126.562 75.0217C126.799 74.4762 126.894 73.6697 126.894 72.6735V71.1793L124.404 71.1318C123.502 71.1318 123.052 70.6812 123.052 69.7799C123.052 68.8786 123.502 68.4279 124.404 68.4279L128.246 68.4754C129.147 68.4754 129.598 68.926 129.598 69.8273V72.6735C129.598 74.9505 129.076 76.6108 128.009 77.6544C126.965 78.6981 125.305 79.2199 123.052 79.2199H119.209L119.186 79.2673Z" fill="white"/>
<path d="M140.888 67.9062H147.031C148.241 67.9062 149.119 67.6453 149.617 67.1472C150.115 66.6491 150.399 65.7715 150.399 64.5619V63.6131C150.399 62.4035 150.138 61.5496 149.617 61.0278C149.119 60.506 148.241 60.2451 147.031 60.2451H140.888V67.9299V67.9062ZM152.155 79.2911C151.799 79.5045 151.467 79.5757 151.158 79.5045C150.85 79.4097 150.565 79.1962 150.352 78.8404L145.395 70.5864H140.912V77.8917C140.912 78.793 140.461 79.2436 139.56 79.2436C138.659 79.2436 138.208 78.793 138.208 77.8917V58.8694C138.208 57.9681 138.659 57.5175 139.56 57.5175H147.055C149 57.5175 150.518 58.0393 151.538 59.0829C152.581 60.1265 153.103 61.6208 153.103 63.5657V64.5144C153.103 66.1984 152.7 67.5741 151.917 68.5703C151.135 69.5665 149.972 70.2069 148.478 70.4441L152.676 77.441C153.08 78.2 152.914 78.793 152.178 79.2674L152.155 79.2911Z" fill="white"/>
<path d="M167.998 76.5871H171.841C172.979 76.5871 173.88 76.4448 174.521 76.1839C175.185 75.923 175.636 75.4486 175.897 74.8082C176.181 74.1441 176.3 73.2665 176.3 72.128V64.7753C176.3 63.6605 176.157 62.7592 175.897 62.0951C175.636 61.431 175.161 60.9803 174.521 60.6957C173.857 60.4111 172.979 60.2925 171.841 60.2925H167.998C166.883 60.2925 165.982 60.4111 165.318 60.672C164.654 60.9329 164.203 61.4072 163.919 62.0476C163.634 62.7118 163.515 63.5893 163.515 64.7278V72.128C163.515 73.2665 163.658 74.1678 163.919 74.8082C164.18 75.4723 164.654 75.923 165.294 76.1839C165.958 76.4685 166.836 76.5871 167.975 76.5871H167.998ZM167.998 79.2673C165.555 79.2673 163.753 78.6743 162.567 77.5121C161.381 76.3262 160.812 74.5236 160.812 72.0806V64.6804C160.812 62.2137 161.404 60.4111 162.59 59.2489C163.776 58.0866 165.579 57.5174 167.998 57.5411H171.841C174.307 57.5411 176.11 58.1341 177.272 59.2963C178.434 60.4585 179.027 62.2848 179.027 64.7278V72.0806C179.027 74.5236 178.434 76.3262 177.272 77.5121C176.11 78.6981 174.284 79.2673 171.841 79.2673H167.998Z" fill="white"/>
<path d="M195.299 79.2674C192.856 79.2674 191.053 78.6745 189.867 77.5123C188.682 76.3263 188.112 74.5237 188.112 72.0807V58.8695C188.112 58.4188 188.231 58.0868 188.444 57.8733C188.682 57.6599 188.99 57.5413 189.441 57.5413C189.891 57.5413 190.223 57.6599 190.437 57.8733C190.65 58.0868 190.769 58.4188 190.769 58.8695V72.0807C190.769 73.2192 190.911 74.1205 191.172 74.7609C191.457 75.425 191.907 75.8757 192.548 76.1366C193.212 76.4212 194.089 76.5398 195.228 76.5398H199.07C200.209 76.5398 201.11 76.3975 201.75 76.1366C202.415 75.8757 202.865 75.4013 203.126 74.7609C203.411 74.0968 203.529 73.2192 203.529 72.0807V58.8695C203.529 58.4188 203.648 58.0868 203.861 57.8733C204.099 57.6599 204.407 57.5413 204.858 57.5413C205.308 57.5413 205.64 57.6599 205.854 57.8733C206.067 58.1105 206.186 58.4188 206.186 58.8695V72.0807C206.186 74.5237 205.593 76.3263 204.431 77.5123C203.268 78.6982 201.442 79.2674 198.999 79.2674H195.18H195.299Z" fill="white"/>
<path d="M217.902 67.9299H224.045C225.255 67.9299 226.133 67.669 226.631 67.1709C227.129 66.6728 227.413 65.7952 227.413 64.5856V63.6368C227.413 62.4272 227.153 61.5733 226.631 61.0515C226.133 60.5297 225.255 60.2688 224.045 60.2688H217.902V67.9536V67.9299ZM216.55 79.2436C215.649 79.2436 215.198 78.793 215.198 77.8917V58.8694C215.198 57.9681 215.649 57.5175 216.55 57.5175H224.045C225.99 57.5175 227.508 58.0393 228.528 59.0829C229.572 60.1265 230.094 61.6208 230.094 63.5657V64.5144C230.094 66.4593 229.572 67.9773 228.528 68.9972C227.485 70.0408 225.99 70.5627 224.045 70.5627H217.902V77.868C217.902 78.7693 217.452 79.2199 216.55 79.2199V79.2436Z" fill="white"/>
<path d="M10.6971 29.6481H16.437C18.1447 29.6481 19.473 29.4346 20.4691 29.0314C21.4416 28.6282 22.1294 27.9403 22.5326 26.9679C22.9359 25.9954 23.1493 24.6434 23.1493 22.9357V11.954C23.1493 10.27 22.9359 8.94177 22.5326 7.96931C22.1294 6.99685 21.4416 6.30901 20.4691 5.88208C19.4967 5.47886 18.1447 5.2654 16.437 5.2654H10.6971C9.01308 5.2654 7.68484 5.45515 6.68866 5.83464C5.7162 6.21414 5.02836 6.90198 4.60143 7.89816C4.19821 8.87062 3.98475 10.2226 3.98475 11.9303V22.9832C3.98475 24.6909 4.19821 26.0191 4.60143 27.0153C5.00464 27.9878 5.69248 28.6756 6.66494 29.0788C7.6374 29.482 8.98936 29.6955 10.6971 29.6955V29.6481ZM10.6971 33.6565C7.04444 33.6565 4.34052 32.7789 2.60907 31.0475C0.853898 29.2923 3.05176e-05 26.6121 3.05176e-05 22.9594V11.9303C3.05176e-05 8.25393 0.877617 5.55002 2.63279 3.81857C4.38796 2.08711 7.06816 1.23324 10.7208 1.28068H16.4607C20.1371 1.28068 22.841 2.15827 24.5724 3.88972C26.3039 5.62118 27.1815 8.32509 27.1815 12.0015V23.0069C27.1815 26.6595 26.3039 29.3634 24.5724 31.0949C22.841 32.8501 20.1371 33.7039 16.4607 33.7039H10.7208L10.6971 33.6565Z" fill="white"/>
<path d="M39.4913 29.6481H48.7652C50.8525 29.6481 52.2756 29.2686 53.0109 28.5334C53.7461 27.7981 54.1256 26.375 54.1256 24.3115V18.8088C54.1256 16.7215 53.7699 15.2984 53.0109 14.5631C52.2756 13.8279 50.8525 13.4484 48.7652 13.4484H46.9389C44.9466 13.4484 43.2151 13.6856 41.7683 14.1599C40.3214 14.6343 39.5624 15.3933 39.4676 16.4132V29.6244L39.4913 29.6481ZM37.4752 43.2389C36.1233 43.2389 35.4591 42.5747 35.4591 41.2228V11.456C35.4591 10.1041 36.1233 9.43994 37.4752 9.43994C38.8272 9.43994 39.4913 10.1041 39.4913 11.456V12.049C40.3452 11.1951 41.4125 10.531 42.6696 10.1041C43.9504 9.67713 45.3498 9.43994 46.9389 9.43994H48.7652C51.9435 9.43994 54.3154 10.1989 55.8334 11.7406C57.3514 13.2586 58.1341 15.6305 58.1341 18.8088V24.3115C58.1341 27.4898 57.3751 29.8379 55.8334 31.3796C54.3154 32.9213 51.9435 33.6803 48.7652 33.6803H39.4913V41.2465C39.4913 42.5985 38.8272 43.2626 37.4752 43.2626V43.2389Z" fill="white"/>
<path d="M74.6418 13.4721C72.5783 13.4247 71.1552 13.8042 70.4199 14.5395C69.661 15.2985 69.3052 16.7216 69.3052 18.8088V19.1883H83.9395V18.8088C83.9395 16.7216 83.56 15.2985 82.8247 14.5632C82.0895 13.8279 80.6664 13.4484 78.5791 13.4484H74.6656L74.6418 13.4721ZM69.2815 23.2204V24.3827C69.2815 26.4462 69.661 27.8456 70.3962 28.5808C71.1552 29.3161 72.5546 29.6956 74.6181 29.6956H78.5317C80.1446 29.6956 81.3542 29.5533 82.1369 29.245C82.9196 28.9366 83.4414 28.4148 83.6786 27.6558C83.8446 27.0391 84.1055 26.5885 84.4139 26.2801C84.7222 25.9718 85.1966 25.8058 85.837 25.8058C86.4774 25.8058 87.0229 25.9955 87.355 26.3276C87.7108 26.6834 87.8056 27.1814 87.6871 27.8456C87.3313 29.8142 86.4062 31.3085 84.8645 32.2572C83.3466 33.2297 81.2119 33.704 78.508 33.704H74.5944C71.4161 33.704 69.068 32.9451 67.5263 31.4033C65.9846 29.8854 65.2256 27.5372 65.2256 24.3827V18.8325C65.2256 15.6068 65.9846 13.2349 67.5263 11.6932C69.068 10.1752 71.4161 9.43997 74.5944 9.46369H78.508C81.6863 9.46369 84.0581 10.2227 85.5761 11.7407C87.0941 13.2587 87.8768 15.6305 87.8768 18.8325V21.2281C87.8768 22.58 87.2127 23.2442 85.8607 23.2442H69.2577L69.2815 23.2204Z" fill="white"/>
<path d="M98.2658 33.6803C96.9376 33.6803 96.2498 33.0162 96.2498 31.6642V11.456C96.2498 10.1041 96.9139 9.43994 98.2658 9.43994C99.6178 9.43994 100.282 10.1041 100.282 11.456V12.2387C101.966 10.365 104.456 9.43994 107.753 9.43994H109.081C112.26 9.43994 114.632 10.1989 116.15 11.7406C117.668 13.2823 118.45 15.6305 118.45 18.8088V31.6642C118.45 33.0162 117.786 33.6803 116.434 33.6803C115.082 33.6803 114.418 33.0162 114.418 31.6642V18.8088C114.418 16.7215 114.039 15.2984 113.28 14.5631C112.521 13.8279 111.121 13.4484 109.058 13.4484H107.73C105.808 13.4484 104.148 13.6618 102.749 14.1125C101.349 14.5631 100.519 15.2273 100.282 16.176V31.6642C100.282 33.0162 99.6178 33.6803 98.2658 33.6803Z" fill="white"/>
<path d="M129.408 33.6802C128.721 33.6802 128.222 33.5142 127.89 33.2058C127.558 32.8738 127.416 32.3757 127.416 31.6878V3.34416C127.416 2.63261 127.582 2.13452 127.89 1.82618C128.222 1.51784 128.721 1.35181 129.408 1.35181C130.096 1.35181 130.618 1.51784 130.926 1.82618C131.235 2.13452 131.401 2.65633 131.401 3.34416V31.6878C131.401 32.3757 131.235 32.8738 130.926 33.2058C130.618 33.5379 130.096 33.6802 129.408 33.6802Z" fill="white"/>
<path d="M142.905 33.6803C141.553 33.6803 140.889 33.0162 140.889 31.6642V11.456C140.889 10.1041 141.553 9.43994 142.905 9.43994C144.257 9.43994 144.921 10.1041 144.921 11.456V12.2387C146.605 10.365 149.095 9.43994 152.392 9.43994H153.72C156.899 9.43994 159.271 10.1989 160.789 11.7406C162.307 13.2823 163.089 15.6305 163.089 18.8088V31.6642C163.089 33.0162 162.425 33.6803 161.073 33.6803C159.721 33.6803 159.057 33.0162 159.057 31.6642V18.8088C159.057 16.7215 158.678 15.2984 157.919 14.5631C157.16 13.8279 155.76 13.4484 153.697 13.4484H152.368C150.447 13.4484 148.787 13.6618 147.388 14.1125C145.988 14.5631 145.158 15.2273 144.921 16.176V31.6642C144.921 33.0162 144.257 33.6803 142.905 33.6803Z" fill="white"/>
<path d="M174.971 33.6803C173.643 33.6803 172.955 33.0162 172.955 31.6643V13.4484H171.176C169.848 13.4484 169.16 12.7843 169.16 11.4323C169.16 10.0804 169.824 9.41626 171.176 9.41626H172.955V9.22652C172.955 6.09567 173.714 3.77125 175.208 2.25326C176.726 0.758994 179.027 0 182.158 0C183.32 0 183.889 0.664119 183.889 2.01608C183.889 3.36803 183.32 4.03215 182.158 4.03215C180.142 4.03215 178.79 4.38793 178.055 5.09949C177.319 5.81104 176.964 7.18672 176.964 9.22652V9.41626H181.897C183.225 9.41626 183.913 10.0804 183.913 11.4323C183.913 12.7843 183.249 13.4484 181.897 13.4484H176.964V31.6643C176.964 33.0162 176.299 33.6803 174.947 33.6803H174.971Z" fill="white"/>
<path d="M192.025 33.6803C190.673 33.6803 190.009 33.0162 190.009 31.6642V11.456C190.009 10.1041 190.673 9.43994 192.025 9.43994C193.377 9.43994 194.041 10.1041 194.041 11.456V13.3298C194.99 12.049 196.176 11.1002 197.646 10.4361C199.093 9.772 200.777 9.46366 202.651 9.46366C203.979 9.46366 204.667 10.1278 204.667 11.4797C204.667 12.8317 204.003 13.4958 202.651 13.4958C199.899 13.4958 197.788 13.9939 196.342 15.0138C194.895 16.0337 194.136 17.3857 194.041 19.046V31.6879C194.041 33.0399 193.377 33.704 192.025 33.704V33.6803Z" fill="white"/>
<path d="M215.981 29.6481H218.661C219.847 29.6481 220.962 29.5296 221.982 29.3161C223.002 29.1026 223.903 28.6994 224.638 28.1302C225.374 27.5609 225.872 26.7308 226.109 25.6634V21.7973H215.981C214.416 21.7973 213.348 22.0582 212.85 22.58C212.352 23.1018 212.067 24.1454 212.067 25.7109C212.067 27.2763 212.328 28.3436 212.85 28.8417C213.372 29.3635 214.416 29.6244 215.981 29.6244V29.6481ZM215.981 33.704C213.301 33.704 211.308 33.0399 210.004 31.7354C208.699 30.4309 208.035 28.4385 208.035 25.7583C208.035 23.0781 208.699 21.0857 209.98 19.7812C211.285 18.4767 213.277 17.8126 215.957 17.8126H226.061C225.966 16.1523 225.54 15.0138 224.733 14.3734C223.95 13.7567 222.622 13.4484 220.725 13.4484H217.95C216.36 13.4484 215.175 13.567 214.392 13.7804C213.609 13.9939 213.064 14.3971 212.755 14.9426C212.471 15.6068 212.162 16.0574 211.878 16.3183C211.593 16.5792 211.119 16.6978 210.526 16.6978C209.862 16.6978 209.316 16.5081 208.96 16.1523C208.581 15.7728 208.462 15.2747 208.628 14.658C209.103 12.8554 210.099 11.5509 211.617 10.697C213.135 9.86688 215.269 9.43994 217.997 9.43994H220.772C223.95 9.43994 226.322 10.1989 227.84 11.7406C229.358 13.2586 230.141 15.6305 230.141 18.8088V31.6642C230.141 33.0162 229.477 33.6803 228.125 33.6803C226.773 33.6803 226.109 33.0162 226.109 31.6642V30.5969C224.401 32.6604 221.911 33.6803 218.637 33.6803H215.981V33.704Z" fill="white"/>
<path d="M256.422 13.2585V19.8523H301.819L256.422 65.2733L261.094 69.9221L317.758 13.2585H256.422Z" fill="white"/>
<path d="M324.375 6.64116L330.969 0.0236816H256.422V6.64116H324.375Z" fill="white"/>
<path d="M329.048 11.3137V79.2674H335.642V4.71997L329.048 11.3137Z" fill="white"/>
<path d="M322.431 79.2675V17.9076L265.743 74.5949L270.416 79.2675L315.837 33.8465V79.2675H322.431Z" fill="white"/>
</svg>
