<svg width="278" height="340" viewBox="0 0 278 340" fill="none" xmlns="http://www.w3.org/2000/svg">
<path d="M139 50.54C152.956 50.54 164.27 39.2262 164.27 25.27C164.27 11.3138 152.956 0 139 0C125.044 0 113.73 11.3138 113.73 25.27C113.73 39.2262 125.044 50.54 139 50.54Z" fill="#00CCFF"/>
<path d="M177.52 67.41C181.04 70.85 183.23 75.65 183.23 80.95C183.23 86.37 180.88 91.51 176.91 95.07V251.55C176.91 272.45 159.9 289.46 139 289.46C118.1 289.46 101.09 272.45 101.09 251.55V95.07C97.12 91.51 94.77 86.38 94.77 80.95C94.77 75.65 96.96 70.85 100.48 67.41C42.45 84.11 0 137.59 0 201C0 277.77 62.23 340 139 340C215.77 340 278 277.77 278 201C278 137.59 235.55 84.11 177.52 67.41Z" fill="#025FDF"/>
<path d="M156.41 67.41H121.58C117.24 67.41 113.72 69.12 113.72 71.22C113.72 73.33 117.24 75.03 121.58 75.03H156.41C160.75 75.03 164.27 73.32 164.27 71.22C164.27 69.11 160.75 67.41 156.41 67.41Z" fill="#025FDF"/>
<path d="M162.19 101.94C158.25 111.02 149.12 117.34 138.55 117.16C124.76 116.92 113.72 128.65 113.72 142.44V251.55C113.72 265.51 125.04 276.82 138.99 276.82C152.95 276.82 164.26 265.5 164.26 251.55V102.31C164.27 101.1 162.68 100.84 162.19 101.94ZM126.36 182.04C122.87 182.04 120.04 179.21 120.04 175.72C120.04 172.23 122.87 169.4 126.36 169.4C129.85 169.4 132.68 172.23 132.68 175.72C132.68 179.21 129.85 182.04 126.36 182.04ZM135.84 201C134.1 201 132.68 199.59 132.68 197.84C132.68 196.1 134.09 194.68 135.84 194.68C137.58 194.68 139 196.09 139 197.84C139 199.58 137.59 201 135.84 201ZM145.32 156.77C138.34 156.77 132.68 151.11 132.68 144.13C132.68 137.15 138.34 131.49 145.32 131.49C152.3 131.49 157.96 137.15 157.96 144.13C157.95 151.11 152.3 156.77 145.32 156.77Z" fill="#00CCFF"/>
</svg>
