<?xml version="1.0" encoding="utf-8"?>
<!-- Generator: Adobe Illustrator 26.0.2, SVG Export Plug-In . SVG Version: 6.00 Build 0)  -->
<svg version="1.1" id="Layer_1" xmlns="http://www.w3.org/2000/svg" xmlns:xlink="http://www.w3.org/1999/xlink" x="0px" y="0px"
	 viewBox="0 0 606.8 163.1" style="enable-background:new 0 0 606.8 163.1;" xml:space="preserve">
<style type="text/css">
	.st0{fill:#00CCFF;}
	.st1{fill:#025FDF;}
	.st2{fill:#333333;}
</style>
<g>
	<g>
		<circle class="st0" cx="66.7" cy="12.1" r="12.1"/>
		<g>
			<path class="st1" d="M85.2,32.3c1.7,1.7,2.7,3.9,2.7,6.5c0,2.6-1.1,5.1-3,6.8v75.1c0,10-8.2,18.2-18.2,18.2s-18.2-8.2-18.2-18.2
				V45.6c-1.9-1.7-3-4.2-3-6.8c0-2.5,1.1-4.8,2.7-6.5C20.4,40.3,0,66,0,96.4c0,36.8,29.9,66.7,66.7,66.7s66.7-29.8,66.7-66.7
				C133.4,66,113,40.3,85.2,32.3z"/>
		</g>
		<path class="st1" d="M75.1,32.3H58.3c-2.1,0-3.8,0.8-3.8,1.8l0,0c0,1,1.7,1.8,3.8,1.8h16.7c2.1,0,3.8-0.8,3.8-1.8l0,0
			C78.8,33.1,77.1,32.3,75.1,32.3z"/>
		<path class="st0" d="M77.8,48.9c-1.9,4.4-6.3,7.4-11.3,7.3c-6.6-0.1-11.9,5.5-11.9,12.1v52.3c0,6.7,5.4,12.1,12.1,12.1l0,0
			c6.7,0,12.1-5.4,12.1-12.1V49.1C78.8,48.5,78.1,48.4,77.8,48.9z M60.6,87.3c-1.7,0-3-1.4-3-3s1.4-3,3-3s3,1.4,3,3
			S62.3,87.3,60.6,87.3z M65.2,96.4c-0.8,0-1.5-0.7-1.5-1.5c0-0.8,0.7-1.5,1.5-1.5s1.5,0.7,1.5,1.5C66.7,95.7,66,96.4,65.2,96.4z
			 M69.7,75.2c-3.3,0-6.1-2.7-6.1-6.1c0-3.4,2.7-6.1,6.1-6.1c3.4,0,6.1,2.7,6.1,6.1C75.8,72.5,73.1,75.2,69.7,75.2z"/>
	</g>
	<g>
		<path class="st2" d="M200.6,73.8c3.1,4.1,4.6,9.3,4.6,15.7c0,6.9-1.8,12.7-5.3,17.2c-4.1,5.4-10,8.1-17.6,8.1
			c-7.1,0-12.7-2.4-16.8-7.1c-3.6-4.5-5.4-10.3-5.4-17.2c0-6.3,1.6-11.6,4.7-16.1c4-5.7,9.9-8.6,17.7-8.6
			C190.6,65.9,196.7,68.5,200.6,73.8z M195.1,103.3c2.5-4,3.7-8.5,3.7-13.7c0-5.4-1.4-9.8-4.3-13.1c-2.9-3.3-6.7-5-11.7-5
			c-4.8,0-8.7,1.6-11.7,4.9c-3,3.3-4.5,8.1-4.5,14.6c0,5.1,1.3,9.4,3.9,13c2.6,3.5,6.8,5.3,12.6,5.3
			C188.6,109.2,192.6,107.3,195.1,103.3z"/>
		<path class="st2" d="M211.1,79.9h5.5v4.5c1.1-1.5,2.4-2.7,3.7-3.6c1.9-1.3,4.2-1.9,6.8-1.9c3.8,0,7.1,1.5,9.8,4.4s4,7.1,4,12.6
			c0,7.4-1.9,12.6-5.8,15.8c-2.5,2-5.3,3-8.5,3c-2.5,0-4.7-0.6-6.4-1.7c-1-0.6-2.1-1.7-3.4-3.2v17.2h-5.7L211.1,79.9L211.1,79.9z
			 M232.5,106.3c1.8-2.2,2.6-5.5,2.6-9.9c0-2.7-0.4-5-1.2-6.9c-1.5-3.7-4.2-5.6-8.1-5.6c-3.9,0-6.6,2-8.1,5.9
			c-0.8,2.1-1.2,4.8-1.2,8c0,2.6,0.4,4.8,1.2,6.6c1.5,3.5,4.2,5.2,8.1,5.2C228.5,109.7,230.7,108.5,232.5,106.3z"/>
		<path class="st2" d="M269.3,80.7c2.2,1.1,3.9,2.6,5.1,4.4c1.1,1.7,1.9,3.7,2.2,6c0.3,1.6,0.5,4,0.5,7.4h-24.5
			c0.1,3.4,0.9,6.2,2.4,8.3s3.8,3.1,7,3.1c2.9,0,5.3-1,7-2.9c1-1.1,1.7-2.5,2.1-4h5.6c-0.1,1.2-0.6,2.6-1.5,4.1
			c-0.8,1.5-1.8,2.8-2.8,3.7c-1.7,1.7-3.8,2.8-6.4,3.4c-1.4,0.3-2.9,0.5-4.6,0.5c-4.2,0-7.7-1.5-10.6-4.6c-2.9-3.1-4.4-7.3-4.4-12.8
			c0-5.4,1.5-9.8,4.4-13.2c2.9-3.4,6.7-5.1,11.5-5.1C264.7,79,267.1,79.5,269.3,80.7z M271.3,93.9c-0.2-2.5-0.8-4.4-1.6-5.9
			c-1.5-2.7-4.1-4.1-7.7-4.1c-2.6,0-4.8,0.9-6.5,2.8s-2.7,4.3-2.8,7.2H271.3z"/>
		<path class="st2" d="M283.7,79.7h5.4v4.8c1.6-2,3.3-3.4,5.1-4.2s3.8-1.3,6-1.3c4.8,0,8,1.7,9.7,5c0.9,1.8,1.4,4.4,1.4,7.8v21.6
			h-5.8V92.2c0-2.1-0.3-3.7-0.9-5c-1-2.1-2.8-3.1-5.5-3.1c-1.3,0-2.5,0.1-3.3,0.4c-1.5,0.5-2.9,1.4-4.1,2.8
			c-0.9,1.1-1.6,2.3-1.8,3.4s-0.4,2.9-0.4,5.1v17.7h-5.7L283.7,79.7L283.7,79.7z"/>
		<path class="st2" d="M318.2,67.2h6.3v46.3h-6.3V67.2z"/>
		<path class="st2" d="M331.4,79.7h5.4v4.8c1.6-2,3.3-3.4,5.1-4.2s3.8-1.3,6-1.3c4.8,0,8,1.7,9.7,5c0.9,1.8,1.4,4.4,1.4,7.8v21.6
			h-5.8V92.2c0-2.1-0.3-3.7-0.9-5c-1-2.1-2.8-3.1-5.5-3.1c-1.3,0-2.5,0.1-3.3,0.4c-1.5,0.5-2.9,1.4-4.1,2.8
			c-0.9,1.1-1.6,2.3-1.8,3.4s-0.4,2.9-0.4,5.1v17.7h-5.7L331.4,79.7L331.4,79.7z"/>
		<path class="st2" d="M369.9,69.4c1.3-1.9,3.9-2.9,7.7-2.9c0.4,0,0.7,0,1.1,0s0.8,0.1,1.3,0.1v5.2c-0.6,0-1-0.1-1.3-0.1
			s-0.5,0-0.8,0c-1.7,0-2.8,0.4-3.1,1.3s-0.5,3.2-0.5,6.8h5.7v4.5h-5.7v29.1h-5.6V84.3H364v-4.5h4.7v-5.3
			C368.8,72.2,369.2,70.5,369.9,69.4z"/>
		<path class="st2" d="M386,79.7h5.4v5.8c0.4-1.1,1.5-2.5,3.2-4.1c1.7-1.6,3.7-2.4,6-2.4c0.1,0,0.3,0,0.5,0c0.2,0,0.7,0.1,1.3,0.1v6
			c-0.3-0.1-0.6-0.1-0.9-0.1c-0.3,0-0.6,0-0.9,0c-2.9,0-5,0.9-6.6,2.8s-2.3,3.9-2.3,6.4v19.4H386L386,79.7L386,79.7z"/>
		<path class="st2" d="M425.4,93c1.3-0.2,2.2-0.7,2.6-1.6c0.2-0.5,0.4-1.2,0.4-2.2c0-1.9-0.7-3.4-2.1-4.2s-3.3-1.3-5.9-1.3
			c-3,0-5,0.8-6.3,2.4c-0.7,0.9-1.1,2.2-1.4,4h-5.3c0.1-4.2,1.5-7.1,4-8.7s5.6-2.4,9-2.4c4,0,7.2,0.8,9.7,2.3
			c2.5,1.5,3.7,3.9,3.7,7.1v19.4c0,0.6,0.1,1.1,0.4,1.4s0.8,0.5,1.5,0.5c0.2,0,0.5,0,0.9-0.1s0.6-0.1,1-0.1v4.2
			c-0.9,0.2-1.5,0.4-2,0.5c-0.5,0.1-1.1,0.1-1.9,0.1c-2,0-3.4-0.7-4.2-2.1c-0.5-0.7-0.8-1.8-1-3.1c-1.2,1.5-2.8,2.8-5,3.9
			c-2.2,1.1-4.5,1.7-7.1,1.7c-3.1,0-5.7-0.9-7.7-2.9c-2-1.9-3-4.3-3-7.1c0-3.1,1-5.6,2.9-7.3s4.5-2.8,7.7-3.2L425.4,93z
			 M413.5,108.4c1.2,0.9,2.6,1.4,4.2,1.4c2,0,3.9-0.5,5.8-1.4c3.1-1.5,4.7-4,4.7-7.5v-4.6c-0.7,0.4-1.6,0.8-2.7,1.1
			c-1.1,0.3-2.2,0.5-3.2,0.6l-3.4,0.4c-2,0.3-3.6,0.7-4.6,1.3c-1.8,1-2.6,2.6-2.6,4.7C411.7,106.1,412.3,107.4,413.5,108.4z"/>
		<path class="st2" d="M462.5,67h9.7v38.1h23.2v8.4h-32.9V67z"/>
		<path class="st2" d="M515.8,92.6c1.7-0.2,2.9-0.5,3.6-0.8c1.3-0.6,1.9-1.4,1.9-2.6c0-1.4-0.5-2.4-1.5-2.9s-2.4-0.8-4.4-0.8
			c-2.2,0-3.7,0.5-4.6,1.6c-0.6,0.8-1.1,1.8-1.3,3.1H501c0.2-3,1-5.5,2.5-7.4c2.4-3,6.5-4.5,12.3-4.5c3.8,0,7.1,0.8,10.1,2.2
			s4.4,4.3,4.4,8.4v15.8c0,1.1,0,2.4,0.1,4c0.1,1.2,0.2,2,0.5,2.4c0.3,0.4,0.7,0.8,1.3,1v1.3h-9.8c-0.3-0.7-0.5-1.3-0.6-1.9
			s-0.2-1.3-0.2-2.1c-1.2,1.3-2.7,2.5-4.3,3.4c-1.9,1.1-4.1,1.7-6.6,1.7c-3.1,0-5.7-0.9-7.8-2.7s-3.1-4.3-3.1-7.6
			c0-4.2,1.6-7.3,4.9-9.2c1.8-1,4.4-1.8,7.9-2.2L515.8,92.6z M521.3,96.8c-0.6,0.4-1.2,0.6-1.7,0.9c-0.6,0.2-1.4,0.4-2.4,0.6l-2,0.4
			c-1.9,0.3-3.3,0.8-4.1,1.2c-1.4,0.8-2.1,2.1-2.1,3.8c0,1.5,0.4,2.6,1.3,3.3c0.9,0.7,1.9,1,3.2,1c2,0,3.8-0.6,5.4-1.7
			c1.7-1.1,2.5-3.2,2.6-6.2L521.3,96.8L521.3,96.8z"/>
		<path class="st2" d="M567.4,83.2c2.6,3.3,3.8,7.5,3.8,12.6c0,5.3-1.3,9.8-3.8,13.3s-6.1,5.3-10.6,5.3c-2.8,0-5.1-0.6-6.9-1.7
			c-1-0.7-2.2-1.9-3.4-3.5v4.3h-8.8V67.1h9v16.5c1.1-1.6,2.4-2.8,3.8-3.7c1.6-1.1,3.7-1.6,6.2-1.6C561.3,78.4,564.8,80,567.4,83.2z
			 M559.9,104.2c1.3-1.9,1.9-4.3,1.9-7.4c0-2.4-0.3-4.4-1-6.1c-1.2-3-3.4-4.5-6.7-4.5c-3.3,0-5.5,1.5-6.8,4.4c-0.6,1.6-1,3.6-1,6.1
			c0,2.9,0.7,5.4,2,7.3s3.3,2.9,6,2.9C556.8,107,558.6,106,559.9,104.2z"/>
		<path class="st2" d="M584.4,102.5c0.2,1.6,0.6,2.7,1.2,3.4c1.1,1.2,3.2,1.8,6.2,1.8c1.8,0,3.2-0.3,4.2-0.8c1-0.5,1.6-1.3,1.6-2.4
			c0-1-0.4-1.8-1.3-2.3c-0.8-0.5-4-1.4-9.4-2.7c-3.9-1-6.7-2.2-8.2-3.6c-1.6-1.4-2.4-3.5-2.4-6.2c0-3.2,1.2-5.9,3.7-8.2
			s6-3.4,10.5-3.4c4.3,0,7.8,0.9,10.5,2.6s4.3,4.7,4.7,8.9h-9c-0.1-1.1-0.5-2.1-1-2.7c-1-1.2-2.7-1.8-5-1.8c-2,0-3.3,0.3-4.2,0.9
			s-1.2,1.3-1.2,2.1c0,1,0.4,1.8,1.3,2.2c0.9,0.5,4,1.3,9.4,2.5c3.6,0.8,6.3,2.1,8,3.8c1.8,1.7,2.7,3.9,2.7,6.5
			c0,3.4-1.3,6.2-3.8,8.3s-6.5,3.2-11.8,3.2c-5.4,0-9.4-1.1-12-3.4c-2.6-2.3-3.9-5.2-3.9-8.7H584.4z"/>
	</g>
</g>
</svg>
