<svg width="211" height="211" viewBox="0 0 211 211" fill="none" xmlns="http://www.w3.org/2000/svg">
<path d="M14.3209 1.05613H209.912V196.679C209.912 200.189 208.518 203.555 206.036 206.036C203.555 208.518 200.189 209.912 196.679 209.912H14.3209C12.5805 209.916 10.8563 209.577 9.24712 208.914C7.63796 208.251 6.17541 207.277 4.94325 206.048C3.7111 204.818 2.73352 203.358 2.06652 201.751C1.39952 200.143 1.05619 198.42 1.05619 196.679V14.3209C1.05201 12.5777 1.39226 10.851 2.0574 9.23973C2.72253 7.62849 3.69945 6.16454 4.93202 4.93196C6.1646 3.69938 7.62855 2.72247 9.23979 2.05734C10.851 1.3922 12.5778 1.05195 14.3209 1.05613Z" fill="black"/>
<path d="M26.2865 140.346C23.5301 140.346 21.4918 139.681 20.1822 138.371C18.8726 137.062 18.2073 135.013 18.2073 132.267V123.924C18.2073 121.146 18.8621 119.108 20.1927 117.809C21.5234 116.51 23.5406 115.855 26.2865 115.887H30.6166C33.3836 115.887 35.4218 116.542 36.7314 117.851C38.041 119.161 38.6958 121.199 38.6958 123.966V132.267C38.6958 135.013 38.041 137.048 36.7314 138.371C35.4218 139.681 33.3836 140.346 30.6166 140.346H26.2865ZM26.2865 137.315H30.6166C31.6473 137.355 32.6762 137.198 33.6476 136.851C33.9981 136.708 34.3167 136.498 34.5851 136.231C34.8534 135.965 35.0661 135.648 35.2106 135.298C35.5525 134.326 35.7066 133.297 35.6648 132.267V123.966C35.7078 122.943 35.5536 121.921 35.2106 120.956C35.0664 120.604 34.8541 120.284 34.5858 120.014C34.3176 119.744 33.9988 119.529 33.6476 119.383C32.6775 119.03 31.6476 118.872 30.6166 118.918H26.2865C25.2645 118.864 24.2419 119.011 23.2766 119.351C22.9233 119.488 22.6016 119.695 22.331 119.96C22.0605 120.225 21.8468 120.542 21.703 120.893C21.3516 121.863 21.1937 122.893 21.2383 123.924V132.267C21.1965 133.297 21.3506 134.326 21.6924 135.298C21.8354 135.649 22.0475 135.967 22.3161 136.233C22.5846 136.5 22.9041 136.71 23.2555 136.851C24.2287 137.188 25.2577 137.335 26.2865 137.284V137.315Z" fill="white"/>
<path d="M46.4792 147.528C46.2725 147.558 46.0616 147.54 45.8633 147.474C45.6651 147.408 45.4849 147.297 45.3372 147.149C45.1895 147.001 45.0783 146.821 45.0126 146.623C44.9468 146.425 44.9282 146.214 44.9584 146.007V123.533C44.9901 123.153 45.1636 122.799 45.4443 122.54C45.725 122.282 46.0925 122.139 46.4739 122.139C46.8553 122.139 47.2228 122.282 47.5035 122.54C47.7842 122.799 47.9577 123.153 47.9894 123.533V123.987C48.6686 123.319 49.4926 122.817 50.3973 122.519C51.4183 122.178 52.4893 122.01 53.5657 122.023H54.9386C57.3465 122.023 59.163 122.593 60.2825 123.755C61.5357 125.217 62.1586 127.115 62.0145 129.035V133.186C62.1663 134.15 62.088 135.136 61.786 136.064C61.4841 136.991 60.9671 137.835 60.2772 138.524C59.5873 139.214 58.744 139.731 57.8162 140.033C56.8884 140.335 55.9024 140.414 54.9386 140.262H47.9366V145.954C47.9738 146.159 47.9628 146.37 47.9045 146.569C47.8462 146.769 47.7423 146.952 47.6009 147.105C47.4596 147.258 47.2846 147.375 47.0899 147.449C46.8952 147.522 46.6861 147.549 46.4792 147.528ZM47.9894 137.284H54.9914C55.552 137.44 56.144 137.444 56.7069 137.296C57.2697 137.148 57.7831 136.853 58.1946 136.442C58.6061 136.03 58.9008 135.517 59.0487 134.954C59.1966 134.391 59.1923 133.799 59.0363 133.239V129.088C59.1935 128.528 59.1985 127.936 59.0509 127.373C58.9032 126.81 58.6081 126.297 58.1961 125.886C57.7841 125.475 57.2699 125.181 56.7067 125.035C56.1434 124.889 55.5513 124.895 54.9914 125.054H53.6185C52.2993 125.028 50.9842 125.21 49.7214 125.592C48.6653 125.952 48.0528 126.522 47.9894 127.303V137.284Z" fill="white"/>
<path d="M70.5059 132.415V133.281C70.3758 134.406 70.6778 135.538 71.3508 136.449C72.2657 137.114 73.3948 137.415 74.5191 137.294H77.4868C78.405 137.338 79.3238 137.22 80.201 136.946C80.478 136.85 80.729 136.692 80.9342 136.483C81.1395 136.274 81.2934 136.02 81.3838 135.742C81.4725 135.348 81.6618 134.984 81.933 134.686C82.0755 134.557 82.2427 134.459 82.4242 134.398C82.6057 134.336 82.7979 134.312 82.9891 134.327C83.199 134.312 83.4096 134.339 83.609 134.406C83.8084 134.473 83.9925 134.579 84.1508 134.717C84.2856 134.875 84.3785 135.064 84.4209 135.267C84.4634 135.47 84.454 135.681 84.3937 135.879C84.3022 136.554 84.0661 137.202 83.7016 137.778C83.3371 138.354 82.8528 138.845 82.2815 139.216C80.8129 140.008 79.1522 140.374 77.4868 140.272H74.5191C72.5993 140.415 70.7009 139.793 69.2386 138.54C68.6127 137.82 68.1363 136.982 67.8372 136.075C67.538 135.169 67.4221 134.212 67.496 133.26V129.035C67.496 126.599 68.0769 124.807 69.2386 123.66C69.9632 123.043 70.8031 122.576 71.7095 122.286C72.6159 121.996 73.5709 121.888 74.5191 121.97H77.4868C79.8842 121.97 81.7112 122.54 82.8201 123.692C83.9291 124.843 84.5522 126.617 84.5522 129.035V130.841C84.5819 131.047 84.5635 131.257 84.4983 131.454C84.4331 131.652 84.3229 131.831 84.1764 131.979C84.03 132.126 83.8513 132.237 83.6544 132.304C83.4575 132.371 83.2478 132.39 83.0419 132.362L70.5059 132.415ZM74.5403 125.022C73.4187 124.873 72.283 125.165 71.3719 125.835C70.7111 126.752 70.4104 127.88 70.527 129.004V129.299H81.5634V129.004C81.7197 128.445 81.7244 127.854 81.5771 127.292C81.4299 126.73 81.1359 126.218 80.7253 125.807C80.3147 125.397 79.8023 125.103 79.2406 124.956C78.679 124.808 78.0883 124.813 77.529 124.969L74.5403 125.022Z" fill="white"/>
<path d="M92.3674 140.346C92.1607 140.376 91.9498 140.358 91.7515 140.292C91.5532 140.226 91.3731 140.115 91.2254 139.968C91.0777 139.82 90.9665 139.64 90.9007 139.441C90.835 139.243 90.8164 139.032 90.8466 138.826V123.533C90.8783 123.153 91.0517 122.799 91.3324 122.54C91.6132 122.282 91.9807 122.139 92.3621 122.139C92.7435 122.139 93.111 122.282 93.3917 122.54C93.6724 122.799 93.8458 123.153 93.8776 123.533V124.135C94.6083 123.398 95.4896 122.828 96.4612 122.463C97.4327 122.099 98.4716 121.949 99.5067 122.023H100.563C102.971 122.023 104.787 122.593 105.907 123.755C107.026 124.917 107.628 126.691 107.628 129.035V138.741C107.628 139.142 107.469 139.526 107.186 139.809C106.903 140.092 106.518 140.251 106.118 140.251C105.717 140.251 105.333 140.092 105.05 139.809C104.767 139.526 104.608 139.142 104.608 138.741V129.035C104.729 127.908 104.419 126.776 103.742 125.867C102.826 125.205 101.696 124.908 100.573 125.033H99.5172C98.2426 125.008 96.9716 125.175 95.7469 125.529C94.6908 125.857 94.0571 126.374 93.8881 127.082V138.773C93.9277 138.983 93.9163 139.2 93.8547 139.406C93.7932 139.611 93.6833 139.798 93.5344 139.953C93.3855 140.107 93.2018 140.223 92.9988 140.291C92.7957 140.36 92.5792 140.379 92.3674 140.346Z" fill="white"/>
<path d="M115.887 140.346C115.68 140.379 115.468 140.363 115.269 140.298C115.07 140.233 114.89 140.121 114.742 139.973C114.595 139.824 114.484 139.643 114.421 139.443C114.357 139.244 114.342 139.032 114.377 138.826V117.408C114.357 117.199 114.379 116.989 114.443 116.789C114.506 116.589 114.609 116.405 114.746 116.246C114.959 116.001 115.244 115.83 115.56 115.758C115.876 115.687 116.207 115.718 116.504 115.848C116.802 115.977 117.05 116.199 117.212 116.479C117.375 116.76 117.443 117.085 117.408 117.408V138.794C117.439 139.211 117.307 139.624 117.038 139.945C116.883 140.086 116.701 140.194 116.503 140.263C116.306 140.332 116.096 140.361 115.887 140.346Z" fill="white"/>
<path d="M126.057 140.346C125.851 140.375 125.641 140.355 125.445 140.288C125.248 140.222 125.069 140.11 124.922 139.963C124.776 139.815 124.666 139.636 124.601 139.438C124.535 139.241 124.517 139.031 124.547 138.826V123.533C124.579 123.153 124.752 122.799 125.033 122.54C125.313 122.282 125.681 122.139 126.062 122.139C126.444 122.139 126.811 122.282 127.092 122.54C127.373 122.799 127.546 123.153 127.578 123.533V124.135C128.308 123.397 129.189 122.826 130.161 122.462C131.132 122.097 132.172 121.947 133.207 122.023H134.21C136.618 122.023 138.435 122.593 139.554 123.755C140.807 125.217 141.43 127.115 141.286 129.035V138.741C141.304 138.951 141.277 139.162 141.209 139.361C141.141 139.56 141.032 139.742 140.89 139.897C140.747 140.052 140.574 140.176 140.382 140.26C140.189 140.345 139.981 140.388 139.771 140.388C139.56 140.388 139.352 140.345 139.159 140.26C138.967 140.176 138.794 140.052 138.651 139.897C138.509 139.742 138.4 139.56 138.332 139.361C138.264 139.162 138.238 138.951 138.255 138.741V129.035C138.379 127.909 138.074 126.778 137.4 125.867C136.482 125.208 135.354 124.911 134.231 125.033H133.228C131.953 125.006 130.682 125.173 129.458 125.529C128.402 125.857 127.768 126.374 127.599 127.082V138.773C127.639 138.985 127.628 139.205 127.565 139.412C127.503 139.619 127.391 139.808 127.239 139.963C127.088 140.117 126.901 140.233 126.695 140.3C126.489 140.367 126.27 140.383 126.057 140.346Z" fill="white"/>
<path d="M150.274 140.346C150.067 140.376 149.856 140.358 149.658 140.292C149.46 140.226 149.28 140.115 149.132 139.968C148.984 139.82 148.873 139.64 148.807 139.441C148.741 139.243 148.723 139.032 148.753 138.826V125.096H147.422C147.213 125.114 147.002 125.087 146.803 125.019C146.604 124.951 146.421 124.842 146.266 124.7C146.111 124.557 145.988 124.384 145.903 124.192C145.819 123.999 145.775 123.791 145.775 123.581C145.775 123.37 145.819 123.162 145.903 122.969C145.988 122.777 146.111 122.604 146.266 122.461C146.421 122.319 146.604 122.21 146.803 122.142C147.002 122.074 147.213 122.048 147.422 122.065H148.795V121.917C148.645 120.969 148.722 119.999 149.018 119.086C149.315 118.173 149.823 117.343 150.502 116.664C151.181 115.986 152.011 115.477 152.924 115.18C153.837 114.884 154.807 114.807 155.755 114.957C156.621 114.957 157.054 115.464 157.054 116.468C157.054 117.471 156.621 117.988 155.755 117.988C154.658 117.862 153.554 118.152 152.661 118.802C151.992 119.694 151.693 120.81 151.826 121.917V122.065H155.544C155.924 122.097 156.278 122.27 156.536 122.551C156.795 122.832 156.938 123.199 156.938 123.581C156.938 123.962 156.795 124.329 156.536 124.61C156.278 124.891 155.924 125.064 155.544 125.096H151.826V138.826C151.858 139.035 151.839 139.25 151.772 139.451C151.704 139.652 151.59 139.834 151.438 139.982C151.287 140.131 151.102 140.241 150.9 140.304C150.697 140.368 150.483 140.382 150.274 140.346Z" fill="white"/>
<path d="M163.148 140.346C162.942 140.375 162.732 140.355 162.535 140.288C162.338 140.222 162.16 140.11 162.013 139.963C161.867 139.815 161.756 139.636 161.691 139.438C161.626 139.241 161.608 139.031 161.637 138.826V123.533C161.637 123.132 161.796 122.748 162.08 122.465C162.363 122.182 162.747 122.023 163.148 122.023C163.548 122.023 163.932 122.182 164.215 122.465C164.499 122.748 164.658 123.132 164.658 123.533V124.938C165.361 123.988 166.3 123.238 167.383 122.762C168.572 122.249 169.858 121.997 171.153 122.023C171.363 122.005 171.574 122.031 171.773 122.1C171.972 122.168 172.154 122.277 172.309 122.419C172.464 122.562 172.588 122.735 172.672 122.927C172.757 123.12 172.8 123.328 172.8 123.538C172.8 123.749 172.757 123.957 172.672 124.149C172.588 124.342 172.464 124.515 172.309 124.658C172.154 124.8 171.972 124.909 171.773 124.977C171.574 125.045 171.363 125.071 171.153 125.054C169.485 124.946 167.824 125.347 166.39 126.205C165.874 126.536 165.446 126.986 165.141 127.517C164.836 128.048 164.663 128.645 164.637 129.257V138.762C164.677 138.971 164.667 139.186 164.608 139.389C164.549 139.593 164.442 139.78 164.297 139.935C164.152 140.089 163.972 140.207 163.772 140.279C163.572 140.35 163.358 140.374 163.148 140.346Z" fill="white"/>
<path d="M181.218 140.346C180.389 140.416 179.555 140.313 178.768 140.044C177.981 139.774 177.259 139.345 176.647 138.782C176.035 138.219 175.546 137.535 175.212 136.774C174.878 136.012 174.705 135.19 174.705 134.358C174.705 133.527 174.878 132.704 175.212 131.943C175.546 131.181 176.035 130.497 176.647 129.935C177.259 129.372 177.981 128.942 178.768 128.673C179.555 128.403 180.389 128.3 181.218 128.37H188.853C188.88 127.893 188.806 127.416 188.634 126.97C188.463 126.524 188.2 126.119 187.861 125.783C186.95 125.235 185.888 124.991 184.83 125.086H182.717C181.813 125.052 180.908 125.133 180.024 125.328C179.768 125.382 179.525 125.488 179.311 125.639C179.097 125.789 178.916 125.982 178.778 126.205C178.636 126.602 178.409 126.962 178.113 127.261C177.807 127.48 177.432 127.582 177.057 127.546C176.84 127.559 176.622 127.528 176.417 127.455C176.213 127.383 176.024 127.27 175.863 127.124C175.721 126.977 175.622 126.794 175.577 126.595C175.533 126.395 175.544 126.187 175.61 125.994C175.755 125.364 176.032 124.773 176.424 124.26C176.815 123.746 177.312 123.322 177.88 123.016C179.379 122.306 181.03 121.979 182.686 122.065H184.798C187.206 122.065 189.022 122.635 190.131 123.797C191.24 124.959 191.863 126.733 191.863 129.078V138.783C191.881 138.993 191.855 139.204 191.786 139.403C191.718 139.602 191.609 139.785 191.467 139.939C191.325 140.094 191.152 140.218 190.959 140.302C190.766 140.387 190.558 140.431 190.348 140.431C190.137 140.431 189.929 140.387 189.737 140.302C189.544 140.218 189.371 140.094 189.229 139.939C189.086 139.785 188.977 139.602 188.909 139.403C188.841 139.204 188.815 138.993 188.832 138.783V137.97C188.138 138.765 187.27 139.389 186.296 139.793C185.321 140.198 184.267 140.373 183.214 140.304L181.218 140.346ZM181.218 137.315H183.245C184.086 137.318 184.924 137.237 185.748 137.072C186.477 136.931 187.164 136.624 187.755 136.175C188.337 135.709 188.731 135.049 188.864 134.316V131.369H181.218C180.383 131.265 179.54 131.476 178.852 131.961C178.344 132.378 177.987 132.951 177.837 133.592C177.687 134.232 177.751 134.904 178.02 135.504C178.289 136.104 178.747 136.599 179.325 136.913C179.903 137.227 180.568 137.342 181.218 137.241V137.315Z" fill="white"/>
<path d="M1.05615 157.709H209.912V196.679C209.912 200.189 208.518 203.555 206.036 206.036C203.555 208.518 200.189 209.912 196.679 209.912H14.3209C12.5804 209.916 10.8562 209.577 9.24708 208.914C7.63792 208.251 6.17538 207.277 4.94322 206.048C3.71106 204.818 2.73348 203.358 2.06648 201.751C1.39948 200.143 1.05615 198.42 1.05615 196.679V157.709Z" fill="white"/>
<path d="M105.495 32.6021V39.8047H155.026L105.495 89.3257L110.596 94.4161L172.41 32.6021H105.495Z" fill="#F7B749"/>
<path d="M179.612 25.3994L186.815 18.1967H105.495V25.3994H179.612Z" fill="#ED362F"/>
<path d="M184.703 30.4899V104.608H191.906V23.2872L184.703 30.4899Z" fill="#43B85C"/>
<path d="M177.5 104.608V37.6925L115.686 99.5066L120.777 104.608L170.298 55.0761V104.608H177.5Z" fill="#2CB4E2"/>
<path d="M196.679 210.989H14.3103C10.5167 210.984 6.88004 209.474 4.19756 206.792C1.51507 204.109 0.00558706 200.473 0 196.679V14.3103C0.00558706 10.5167 1.51507 6.88004 4.19756 4.19756C6.88004 1.51507 10.5167 0.00558706 14.3103 0H210.989V196.679C210.984 200.473 209.474 204.109 206.792 206.792C204.109 209.474 200.473 210.984 196.679 210.989ZM14.3103 2.16503C11.09 2.16782 8.00245 3.44831 5.72538 5.72538C3.44831 8.00245 2.16782 11.09 2.16503 14.3103V196.679C2.16782 199.899 3.44831 202.987 5.72538 205.264C8.00245 207.541 11.09 208.822 14.3103 208.824H196.679C199.899 208.822 202.987 207.541 205.264 205.264C207.541 202.987 208.822 199.899 208.824 196.679V2.16503H14.3103Z" fill="white"/>
<path d="M70.3158 193.31H83.4537V198.284H64.127V168.249H70.3158V193.31Z" fill="black"/>
<path d="M93.3707 198.284H87.1819V168.249H93.3707V198.284Z" fill="black"/>
<path d="M109.994 190.839L116.806 168.249H123.691L113.236 198.284H106.773L96.3594 168.249H103.224L109.994 190.839Z" fill="black"/>
<path d="M144.793 185.263H132.954V193.31H146.905V198.284H126.723V168.249H146.789V173.265H132.954V180.415H144.835L144.793 185.263Z" fill="black"/>
</svg>
