<svg id="Layer_1" data-name="Layer 1" xmlns="http://www.w3.org/2000/svg" viewBox="0 0 132.21 180"><defs><style>.cls-1{fill:#fff;}.cls-2{fill:#f7b749;}.cls-3{fill:#ed362f;}.cls-4{fill:#43b85c;}.cls-5{fill:#2cb4e2;}</style></defs><path d="M11,.66h118.6a0,0,0,0,1,0,0V118.82a8.88,8.88,0,0,1-8.88,8.88H11.46a8.88,8.88,0,0,1-8.88-8.88V9.09A8.43,8.43,0,0,1,11,.66Z"/><path class="cls-1" d="M71.91,139.36A4.29,4.29,0,0,1,67,134.44v-5.07a5,5,0,0,1,1.2-3.72,5,5,0,0,1,3.71-1.17h2.64a4.27,4.27,0,0,1,4.91,4.91v5.05a4.28,4.28,0,0,1-4.91,4.92Zm0-1.85h2.64a5.07,5.07,0,0,0,1.84-.27,1.74,1.74,0,0,0,1-1,5.07,5.07,0,0,0,.28-1.85v-5.05a5,5,0,0,0-.28-1.83,1.74,1.74,0,0,0-1-1,4.82,4.82,0,0,0-1.84-.29H71.91a4.84,4.84,0,0,0-1.83.27,1.68,1.68,0,0,0-1,.94,4.84,4.84,0,0,0-.28,1.84v5.07a4.86,4.86,0,0,0,.28,1.85,1.74,1.74,0,0,0,.95,1A5,5,0,0,0,71.91,137.51Z" transform="translate(-54 -54)"/><path class="cls-1" d="M84.2,143.75a.82.82,0,0,1-.92-.92V129.15a.92.92,0,0,1,1.84,0v.28a3.79,3.79,0,0,1,1.47-.9,6,6,0,0,1,2-.3h.83a3.76,3.76,0,0,1,4.3,4.3v2.53a4.45,4.45,0,0,1-1.05,3.24,4.4,4.4,0,0,1-3.25,1.06H85.12v3.47A.81.81,0,0,1,84.2,143.75Zm.92-6.24h4.26a2,2,0,0,0,2.46-2.45v-2.53a2.75,2.75,0,0,0-.51-1.94,2.78,2.78,0,0,0-2-.51h-.83a7.55,7.55,0,0,0-2.37.32c-.67.22-1,.57-1.06,1Z" transform="translate(-54 -54)"/><path class="cls-1" d="M98.82,134.55v.53a2.77,2.77,0,0,0,.51,1.93,2.86,2.86,0,0,0,2,.5h1.8a4.89,4.89,0,0,0,1.65-.2,1.18,1.18,0,0,0,.72-.74,1.44,1.44,0,0,1,.33-.63.85.85,0,0,1,.65-.22,1,1,0,0,1,.71.24.73.73,0,0,1,.15.7,2.85,2.85,0,0,1-1.3,2,5.36,5.36,0,0,1-2.91.67h-1.8A3.76,3.76,0,0,1,97,135.08v-2.55A4.46,4.46,0,0,1,98,129.26a4.41,4.41,0,0,1,3.25-1h1.8a3.76,3.76,0,0,1,4.3,4.3v1.1a.81.81,0,0,1-.92.92Zm2.46-4.47a2.71,2.71,0,0,0-2,.49,2.81,2.81,0,0,0-.51,2v.18h6.71v-.18a2,2,0,0,0-2.45-2.45Z" transform="translate(-54 -54)"/><path class="cls-1" d="M112.12,139.36a.81.81,0,0,1-.92-.92v-9.29a.92.92,0,0,1,1.84,0v.37a4.37,4.37,0,0,1,3.42-1.29h.62a3.76,3.76,0,0,1,4.3,4.3v5.91a.92.92,0,1,1-1.84,0v-5.91a2.7,2.7,0,0,0-.53-1.94,2.76,2.76,0,0,0-1.93-.51h-.62a7.8,7.8,0,0,0-2.29.3c-.65.2-1,.51-1.13,1v7.11A.82.82,0,0,1,112.12,139.36Z" transform="translate(-54 -54)"/><path class="cls-1" d="M126.43,139.36a1,1,0,0,1-.7-.23.94.94,0,0,1-.23-.69v-13a1,1,0,0,1,1.63-.7,1,1,0,0,1,.22.7v13a1,1,0,0,1-.22.69A1,1,0,0,1,126.43,139.36Z" transform="translate(-54 -54)"/><path class="cls-1" d="M132.61,139.36a.82.82,0,0,1-.92-.92v-9.29a.93.93,0,0,1,1.85,0v.37a4.35,4.35,0,0,1,3.42-1.29h.61a3.77,3.77,0,0,1,4.31,4.3v5.91a.93.93,0,0,1-1.85,0v-5.91a2.7,2.7,0,0,0-.52-1.94,2.79,2.79,0,0,0-1.94-.51H137a7.8,7.8,0,0,0-2.29.3c-.65.2-1,.51-1.13,1v7.11A.82.82,0,0,1,132.61,139.36Z" transform="translate(-54 -54)"/><path class="cls-1" d="M147.34,139.36a.82.82,0,0,1-.92-.92v-8.36h-.81a.93.93,0,0,1,0-1.85h.81v-.09a3.7,3.7,0,0,1,4.23-4.23c.53,0,.8.31.8.92s-.27.92-.8.92a2.68,2.68,0,0,0-1.88.5,2.62,2.62,0,0,0-.51,1.89v.09h2.26a.93.93,0,1,1,0,1.85h-2.26v8.36A.81.81,0,0,1,147.34,139.36Z" transform="translate(-54 -54)"/><path class="cls-1" d="M155.18,139.36a.82.82,0,0,1-.93-.92v-9.29a.93.93,0,0,1,1.85,0V130a4,4,0,0,1,1.65-1.33,5.55,5.55,0,0,1,2.3-.45.93.93,0,0,1,0,1.85,5,5,0,0,0-2.9.7,2.27,2.27,0,0,0-1.05,1.85v5.81A.82.82,0,0,1,155.18,139.36Z" transform="translate(-54 -54)"/><path class="cls-1" d="M166.17,139.36a3.2,3.2,0,0,1-3.64-3.64,3.79,3.79,0,0,1,.89-2.75,3.73,3.73,0,0,1,2.75-.9h4.64a2,2,0,0,0-.6-1.57,3.07,3.07,0,0,0-1.85-.42h-1.27a6.64,6.64,0,0,0-1.63.14,1.19,1.19,0,0,0-.76.54,1.75,1.75,0,0,1-.41.63.92.92,0,0,1-.62.18,1,1,0,0,1-.73-.26.69.69,0,0,1-.15-.69,2.78,2.78,0,0,1,1.38-1.81,6,6,0,0,1,2.92-.58h1.27a3.77,3.77,0,0,1,4.31,4.3v5.91a.93.93,0,0,1-1.85,0v-.5a4.17,4.17,0,0,1-3.42,1.42Zm0-1.85h1.23a7.34,7.34,0,0,0,1.52-.14,2.89,2.89,0,0,0,1.23-.55,1.88,1.88,0,0,0,.67-1.13v-1.77h-4.65a1.82,1.82,0,1,0,0,3.59Z" transform="translate(-54 -54)"/><path class="cls-1" d="M2.58,95.94h127a0,0,0,0,1,0,0V120.2a7.5,7.5,0,0,1-7.5,7.5H10a7.38,7.38,0,0,1-7.38-7.38V95.94A0,0,0,0,1,2.58,95.94Z"/><polygon class="cls-2" points="66.1 19.83 66.1 24.21 96.23 24.21 66.1 54.34 69.2 57.44 106.81 19.83 66.1 19.83"/><polygon class="cls-3" points="111.19 15.45 115.57 11.07 66.1 11.07 66.1 15.45 111.19 15.45"/><polygon class="cls-4" points="114.29 18.55 114.29 63.63 118.67 63.63 118.67 14.17 114.29 18.55"/><polygon class="cls-5" points="109.91 63.63 109.91 22.93 72.3 60.54 75.4 63.63 105.53 33.5 105.53 63.63 109.91 63.63"/><path d="M175.57,182.36H64.63a8.71,8.71,0,0,1-8.7-8.71V62.71A8.71,8.71,0,0,1,64.63,54H184.28V173.65A8.72,8.72,0,0,1,175.57,182.36ZM64.63,55.32a7.4,7.4,0,0,0-7.39,7.39V173.65A7.4,7.4,0,0,0,64.63,181H175.57a7.4,7.4,0,0,0,7.39-7.39V55.32Z" transform="translate(-54 -54)"/><path d="M98.7,171.6h8v3H94.94V156.35H98.7Z" transform="translate(-54 -54)"/><path d="M112.73,174.62H109V156.35h3.76Z" transform="translate(-54 -54)"/><path d="M122.84,170.09,127,156.35h4.19l-6.36,18.27h-3.93l-6.33-18.27h4.18Z" transform="translate(-54 -54)"/><path d="M144,166.71h-7.23v4.89h8.49v3H133V156.35h12.22v3.05h-8.46v4.36H144Z" transform="translate(-54 -54)"/><path class="cls-3" d="M84.4,194.6h82.11a19.7,19.7,0,0,1,19.7,19.7h0a19.7,19.7,0,0,1-19.7,19.7H84.4Z" transform="translate(-54 -54)"/><path class="cls-3" d="M73.7,194.6H93.4V234H73.7A19.7,19.7,0,0,1,54,214.3h0A19.7,19.7,0,0,1,73.7,194.6Z" transform="translate(-54 -54)"/><path d="M99.3,212.77l5.65,7.85h-3.11l-4.3-6.17-1.42,1.34v4.83H93.6v-13.4h2.52v5.28h.23l5.38-5.28h3.41Z" transform="translate(-54 -54)"/><path d="M109.79,210.86a4.46,4.46,0,0,1,4.61,4.78v.94h-6.91a2.32,2.32,0,0,0,2.37,2.24,2.51,2.51,0,0,0,2.38-1.42l2,1.15a4.7,4.7,0,0,1-4.31,2.34,4.83,4.83,0,0,1-4.88-5.1A4.66,4.66,0,0,1,109.79,210.86Zm2.16,4a2.09,2.09,0,0,0-2.18-2,2.13,2.13,0,0,0-2.26,2Z" transform="translate(-54 -54)"/><path d="M125.08,211.12l-5.21,13.33h-2.6l1.34-3.22-3.94-10.11h2.6l2.49,6.82H120l2.49-6.82Z" transform="translate(-54 -54)"/><path d="M128.56,211.12v1.54h.27a3,3,0,0,1,3-1.69,3.65,3.65,0,0,1,3.69,4v5.67h-2.41v-5.44a1.94,1.94,0,0,0-2.15-2.1c-1.55,0-2.37.95-2.37,2.64v4.9h-2.41v-9.5Z" transform="translate(-54 -54)"/><path d="M142,210.86a5,5,0,1,1-5,5A4.84,4.84,0,0,1,142,210.86Zm0,7.88a2.89,2.89,0,1,0-2.56-2.87A2.58,2.58,0,0,0,142,218.74Z" transform="translate(-54 -54)"/><path d="M149.83,211.12v-2.94h2.41v2.94h2.6v2.07h-2.6V218c0,.38.19.57.53.57h1.53v2.07h-2.6a1.8,1.8,0,0,1-1.87-1.84v-5.59h-2.41v-2.07Z" transform="translate(-54 -54)"/><path d="M160.54,210.86a4.46,4.46,0,0,1,4.62,4.78v.94h-6.91a2.3,2.3,0,0,0,2.37,2.24A2.48,2.48,0,0,0,163,217.4l2,1.15a4.7,4.7,0,0,1-4.31,2.34,4.83,4.83,0,0,1-4.88-5.1A4.66,4.66,0,0,1,160.54,210.86Zm2.17,4a2.09,2.09,0,0,0-2.18-2,2.13,2.13,0,0,0-2.26,2Z" transform="translate(-54 -54)"/><path d="M170.15,210.86a6.12,6.12,0,0,1,4.62,2.2L173,214.44a3.87,3.87,0,0,0-2.94-1.63c-.9,0-1.4.38-1.4,1s.71.86,1.7,1l.33,0c3,.36,4.17,1.15,4.17,2.89s-1.74,3.22-4.27,3.22a5.61,5.61,0,0,1-5-2.68l1.92-1.21a3.43,3.43,0,0,0,3.1,1.9c1,0,1.87-.43,1.87-1.17s-1-.84-2-1l-.33,0c-2.66-.3-3.87-1.17-3.87-2.93S168,210.86,170.15,210.86Z" transform="translate(-54 -54)"/><rect x="10.9" y="149.04" width="22.52" height="22.52" rx="11.26"/><polygon class="cls-1" points="20.17 156.44 26.25 160.3 20.17 164.16 20.17 156.44"/></svg>