<svg width="460" height="108" viewBox="0 0 460 108" fill="none" xmlns="http://www.w3.org/2000/svg">
<path d="M435.489 69.225C435.489 78.15 440.902 82.5 450.677 82.5C453.698 82.4123 456.699 81.9846 459.624 81.225V70.875C457.752 71.4718 455.799 71.7754 453.835 71.775C449.774 71.775 448.271 70.5 448.271 66.75V50.85H460V40.2H448.271V26.7L435.489 29.475V40.2H426.992V50.85H435.413L435.489 69.225ZM395.639 69.45C395.639 66.675 398.421 65.325 402.631 65.325C405.195 65.3118 407.749 65.6397 410.226 66.3V71.7C407.79 73.0454 405.039 73.7185 402.256 73.65C398.12 73.65 395.639 72.075 395.639 69.45ZM399.549 82.65C403.648 82.7805 407.689 81.655 411.128 79.425V81.975H423.759V55.2C423.759 45 416.917 39.45 405.413 39.45C399.022 39.45 392.707 40.95 385.865 44.025L390.451 53.4C395.338 51.375 399.474 50.1 403.083 50.1C408.346 50.1 411.053 52.125 411.053 56.325V58.35C407.96 57.541 404.776 57.1376 401.579 57.15C390.827 57.15 384.361 61.65 384.361 69.675C384.361 77.025 390.225 82.65 399.549 82.65ZM330.075 81.975H343.684V60.3H366.466V81.9H380.075V26.7H366.466V47.925H343.684V26.7H330.075V81.975ZM278.271 61.05C278.271 55.05 283.007 50.475 289.248 50.475C292.501 50.4335 295.657 51.5806 298.12 53.7V68.325C295.723 70.5706 292.535 71.7833 289.248 71.7C283.083 71.625 278.271 67.05 278.271 61.05ZM298.271 81.975H310.902V23.925L298.12 26.7V42.375C294.87 40.5244 291.186 39.5668 287.444 39.6C275.263 39.6 265.714 48.975 265.714 60.975C265.679 63.7574 266.194 66.5194 267.23 69.1033C268.265 71.6872 269.801 74.0423 271.749 76.0342C273.697 78.026 276.019 79.6156 278.583 80.7122C281.147 81.8087 283.902 82.3907 286.692 82.425H287.068C291.088 82.4283 295.008 81.1688 298.271 78.825V81.975ZM240.226 49.875C244.286 49.875 247.669 52.5 249.022 56.475H231.579C232.051 54.557 233.165 52.8574 234.738 51.6572C236.31 50.457 238.246 49.8283 240.226 49.875ZM218.647 61.125C218.647 73.275 228.571 82.725 241.429 82.725C248.496 82.725 253.609 80.85 258.872 76.425L250.376 68.925C248.421 70.95 245.489 72.075 242.03 72.075C239.845 72.1433 237.691 71.5491 235.852 70.3707C234.013 69.1924 232.575 67.4853 231.729 65.475H261.504V62.325C261.504 49.05 252.556 39.525 240.376 39.525C234.684 39.4408 229.192 41.6126 225.104 45.5638C221.016 49.515 218.666 54.9227 218.571 60.6C218.639 60.7664 218.664 60.9465 218.647 61.125ZM196.616 38.325C201.128 38.325 203.684 41.175 203.684 44.55C203.684 47.925 201.128 50.775 196.616 50.775H183.158V38.325H196.616ZM169.549 81.9H183.158V61.8H193.534L203.985 81.9H219.173L206.992 59.775C210.085 58.5183 212.732 56.3696 214.594 53.6039C216.456 50.8382 217.448 47.5813 217.444 44.25C217.444 34.35 209.624 26.625 197.895 26.625H169.549V81.9Z" fill="black"/>
<path d="M95.4887 62.25C104.887 62.25 118.496 60.3 118.496 49.125C118.496 48.2701 118.42 47.4168 118.271 46.575L112.707 22.275C111.429 16.95 110.301 14.475 100.902 9.825C93.609 6.075 77.7444 0 73.0075 0C68.5714 0 67.2932 5.625 62.1053 5.625C57.0677 5.625 53.3835 1.425 48.6466 1.425C44.1353 1.425 41.203 4.5 38.9474 10.8C38.9474 10.8 32.6316 28.575 31.8045 31.2C31.6803 31.6643 31.6295 32.1451 31.6541 32.625C31.579 39.525 58.8722 62.175 95.4887 62.25ZM119.925 53.7C121.203 59.85 121.203 60.525 121.203 61.275C121.203 71.775 109.399 77.625 93.8346 77.625C58.6466 77.625 27.8947 57.075 27.8947 43.5C27.8913 41.6173 28.2751 39.7538 29.0226 38.025C16.391 38.625 0 40.875 0 55.275C0 78.9 56.0902 108 100.451 108C134.511 108 143.083 92.625 143.083 80.475C143.083 70.95 134.812 60.15 119.925 53.7Z" fill="#EE0000"/>
<path d="M119.925 53.7C121.203 59.85 121.203 60.525 121.203 61.275C121.203 71.775 109.399 77.625 93.8347 77.625C58.6467 77.625 27.8948 57.075 27.8948 43.5C27.8913 41.6173 28.2752 39.7539 29.0226 38.025L31.8046 31.2C31.6803 31.6643 31.6296 32.1451 31.6542 32.625C31.6542 39.525 58.9474 62.175 95.4888 62.175C104.887 62.175 118.496 60.225 118.496 49.05C118.496 48.1951 118.42 47.3418 118.271 46.5L119.925 53.7Z" fill="black"/>
</svg>
