<?xml version="1.0" encoding="UTF-8"?><svg id="Layer_1" xmlns="http://www.w3.org/2000/svg" width="280" height="100" viewBox="0 0 280 100"><defs><style>.cls-1{fill:#00013a;}.cls-2{fill:#fff;}.cls-3{fill:#f0f3f5;}.cls-4{fill:#4e4540;}.cls-5{fill:none;stroke:#f0f3f5;stroke-miterlimit:10;stroke-width:2px;}</style></defs><rect class="cls-2" x="5" y="5" width="270" height="90" rx="10" ry="10"/><g><g><path class="cls-3" d="M6,14H76c5.52,0,10,4.48,10,10v62H-4V24C-4,18.48,.48,14,6,14Z" transform="translate(-9 91) rotate(-90)"/><g><path class="cls-4" d="M30.39,40.54v.97h-4.57v-7.11h1.18v6.14h3.39Z"/><path class="cls-4" d="M33.46,38.32v2.22h3.43v.97h-4.61v-7.11h4.58v.97h-3.41v2h2.94v.95h-2.94Z"/><path class="cls-4" d="M39.94,39.87l-.48,1.64h-1.22l2.31-7.11h1.04l2.28,7.11h-1.22l-.48-1.64h-2.23Zm1.94-1.01l-.82-2.81-.83,2.81h1.65Z"/><path class="cls-4" d="M46.41,38.75v2.76h-1.17v-7.11h2.26c.37,0,.71,.05,1.02,.14,.31,.09,.58,.22,.8,.4,.22,.18,.39,.4,.52,.67,.12,.26,.19,.58,.19,.93,0,.24-.03,.47-.1,.66s-.15,.38-.27,.54c-.11,.16-.25,.3-.41,.42-.16,.12-.34,.22-.53,.31l1.52,2.97v.06h-1.25l-1.36-2.76h-1.2Zm1.1-.96c.21,0,.4-.04,.56-.09,.17-.06,.31-.15,.43-.26,.1-.1,.19-.22,.24-.36s.09-.31,.09-.49c0-.21-.03-.38-.1-.54-.06-.16-.16-.28-.28-.39-.11-.1-.25-.17-.42-.22-.16-.05-.35-.08-.55-.08h-1.08v2.44h1.1Z"/><path class="cls-4" d="M55.13,41.51l-2.31-4.89v4.89h-1.19v-7.11h1.19l2.29,4.87v-4.87h1.19v7.11h-1.18Z"/><path class="cls-4" d="M27.99,49.44l.97-3.04h1.46v7.11h-1.1v-2.41l.07-3.17-1.09,3.39h-.61l-.99-3.28,.06,3.06v2.41h-1.1v-7.11h1.46l.88,3.04Z"/><path class="cls-4" d="M36.96,51.25c-.05,.27-.12,.52-.22,.76-.1,.24-.23,.46-.38,.66-.15,.2-.32,.37-.52,.52-.19,.13-.4,.23-.63,.31s-.48,.11-.75,.11-.54-.04-.78-.12c-.24-.08-.45-.19-.63-.33-.19-.14-.35-.32-.5-.52s-.26-.42-.35-.66c-.09-.23-.16-.48-.21-.74-.05-.26-.07-.53-.07-.81v-.94c0-.29,.02-.57,.07-.84s.12-.53,.22-.77c.09-.23,.21-.44,.35-.64,.14-.19,.3-.36,.49-.51,.18-.14,.39-.25,.62-.32,.23-.08,.49-.12,.77-.12s.54,.04,.78,.12c.24,.08,.45,.19,.64,.33,.19,.14,.35,.3,.49,.49,.14,.19,.26,.4,.35,.62,.1,.24,.18,.5,.23,.77,.05,.27,.08,.56,.08,.86v.94c0,.29-.03,.56-.08,.83Zm-1.14-2.3c-.02-.17-.05-.34-.09-.49-.05-.18-.11-.34-.19-.49-.08-.15-.18-.27-.29-.38-.1-.09-.22-.16-.35-.21-.13-.05-.28-.08-.44-.08s-.3,.03-.43,.08c-.13,.05-.24,.12-.33,.21-.11,.11-.21,.24-.29,.38-.08,.15-.14,.31-.18,.5-.04,.16-.07,.32-.09,.5-.02,.17-.03,.35-.03,.52v.95c0,.17,0,.34,.02,.51,.02,.17,.04,.33,.08,.49,.04,.18,.1,.34,.17,.49,.07,.15,.16,.28,.27,.38,.1,.1,.22,.17,.35,.23,.13,.06,.28,.09,.46,.09s.32-.03,.45-.08c.14-.06,.25-.13,.35-.22,.11-.11,.21-.24,.29-.38,.08-.15,.14-.31,.18-.49,.04-.16,.07-.32,.08-.49,.02-.17,.03-.34,.03-.52v-.95c0-.18-.01-.35-.03-.53Z"/><path class="cls-4" d="M39.91,50.75v2.76h-1.17v-7.11h2.26c.37,0,.71,.05,1.02,.14,.31,.09,.58,.22,.8,.4,.22,.18,.39,.4,.52,.67,.12,.26,.19,.58,.19,.93,0,.24-.03,.47-.1,.66s-.15,.38-.27,.54c-.11,.16-.25,.3-.41,.42-.16,.12-.34,.22-.53,.31l1.52,2.97v.06h-1.25l-1.36-2.76h-1.2Zm1.1-.96c.21,0,.4-.04,.56-.09,.17-.06,.31-.15,.43-.26,.1-.1,.19-.22,.24-.36s.09-.31,.09-.49c0-.21-.03-.38-.1-.54-.06-.16-.16-.28-.28-.39-.11-.1-.25-.17-.42-.22-.16-.05-.35-.08-.55-.08h-1.08v2.44h1.1Z"/><path class="cls-4" d="M46.46,50.32v2.22h3.43v.97h-4.61v-7.11h4.58v.97h-3.41v2h2.94v.95h-2.94Z"/><path class="cls-4" d="M26.94,63.87l-.48,1.64h-1.22l2.31-7.11h1.04l2.28,7.11h-1.22l-.48-1.64h-2.23Zm1.94-1.01l-.82-2.81-.83,2.81h1.65Z"/><path class="cls-4" d="M32.21,58.4h2.28c.34,0,.67,.04,.97,.12,.3,.08,.56,.19,.79,.35,.22,.16,.39,.36,.52,.6,.13,.24,.19,.53,.19,.86,0,.2-.04,.39-.11,.56-.07,.17-.16,.33-.29,.46-.09,.1-.19,.18-.3,.26-.11,.07-.24,.14-.38,.2h0c.21,.07,.39,.15,.54,.25,.15,.11,.27,.23,.38,.36,.1,.14,.18,.3,.24,.48,.05,.17,.08,.36,.08,.55,0,.34-.06,.64-.18,.89-.12,.26-.29,.47-.51,.64-.22,.18-.48,.31-.78,.4-.3,.09-.63,.13-.98,.13h-2.46v-7.11Zm2.3,3c.19,0,.37-.03,.53-.08s.3-.12,.41-.21c.1-.08,.18-.19,.24-.31s.09-.26,.09-.42c0-.17-.03-.31-.08-.43-.05-.12-.13-.22-.23-.3-.11-.1-.25-.17-.42-.21-.17-.04-.35-.07-.55-.07h-1.11v2.03h1.12Zm-1.12,3.14h1.29c.19,0,.35-.03,.51-.08,.15-.05,.28-.12,.39-.21,.12-.09,.21-.21,.27-.35,.06-.14,.1-.29,.1-.46,0-.18-.03-.34-.08-.48-.05-.14-.13-.26-.23-.35-.1-.1-.23-.17-.38-.23-.15-.05-.32-.08-.51-.09h-1.35v2.25Z"/><path class="cls-4" d="M43.46,63.25c-.05,.27-.12,.52-.22,.76-.1,.24-.23,.46-.38,.66-.15,.2-.32,.37-.52,.52-.19,.13-.4,.23-.63,.31s-.48,.11-.75,.11-.54-.04-.78-.12c-.24-.08-.45-.19-.63-.33-.19-.14-.35-.32-.5-.52s-.26-.42-.35-.66c-.09-.23-.16-.48-.21-.74-.05-.26-.07-.53-.07-.81v-.94c0-.29,.02-.57,.07-.84s.12-.53,.22-.77c.09-.23,.21-.44,.35-.64,.14-.19,.3-.36,.49-.51,.18-.14,.39-.25,.62-.32,.23-.08,.49-.12,.77-.12s.54,.04,.78,.12c.24,.08,.45,.19,.64,.33,.19,.14,.35,.3,.49,.49,.14,.19,.26,.4,.35,.62,.1,.24,.18,.5,.23,.77,.05,.27,.08,.56,.08,.86v.94c0,.29-.03,.56-.08,.83Zm-1.14-2.3c-.02-.17-.05-.34-.09-.49-.05-.18-.11-.34-.19-.49-.08-.15-.18-.27-.29-.38-.1-.09-.22-.16-.35-.21-.13-.05-.28-.08-.44-.08s-.3,.03-.43,.08c-.13,.05-.24,.12-.33,.21-.11,.11-.21,.24-.29,.38-.08,.15-.14,.31-.18,.5-.04,.16-.07,.32-.09,.5-.02,.17-.03,.35-.03,.52v.95c0,.17,0,.34,.02,.51,.02,.17,.04,.33,.08,.49,.04,.18,.1,.34,.17,.49,.07,.15,.16,.28,.27,.38,.1,.1,.22,.17,.35,.23,.13,.06,.28,.09,.46,.09s.32-.03,.45-.08c.14-.06,.25-.13,.35-.22,.11-.11,.21-.24,.29-.38,.08-.15,.14-.31,.18-.49,.04-.16,.07-.32,.08-.49,.02-.17,.03-.34,.03-.52v-.95c0-.18-.01-.35-.03-.53Z"/><path class="cls-4" d="M49.85,63.15c0,.37-.06,.7-.17,1-.11,.3-.27,.56-.48,.77-.21,.21-.46,.38-.75,.5-.29,.12-.62,.18-.98,.18s-.68-.06-.96-.17c-.29-.12-.53-.28-.73-.5-.21-.21-.36-.47-.48-.78s-.17-.64-.17-1.01v-4.76h1.17v4.76c.01,.22,.04,.43,.09,.62,.05,.19,.13,.35,.23,.48,.1,.12,.22,.22,.36,.29,.14,.07,.31,.1,.5,.1s.36-.04,.51-.1c.15-.07,.27-.17,.37-.3,.1-.13,.18-.29,.23-.48,.05-.18,.08-.39,.09-.61v-4.76h1.17v4.76Z"/><path class="cls-4" d="M54.57,59.37v6.14h-1.17v-6.14h-2.18v-.97h5.54v.97h-2.19Z"/></g></g><rect class="cls-5" x="5" y="5" width="270" height="90" rx="10" ry="10"/><g><path class="cls-1" d="M101.84,67.69h43.16l-9.21-15.95v-5.46l2.54-3.34h-7.62l-7.29-12.63-7.29,12.63h-7.62l2.54,3.34v5.46l-9.21,15.95Zm9.21-2.18h-5.43l5.43-9.41v9.41Zm3.76,0h-1.58v-12.86h1.58v12.86Zm0-15.04h-1.58v-1.58h1.58v1.58Zm7.52,15.04h-5.34v-12.86h5.34v12.86Zm7.52,0h-5.34v-12.86h5.34v12.86Zm0-15.04h-12.86v-1.58h12.86v1.58Zm3.76,15.04h-1.58v-12.86h1.58v12.86Zm0-15.04h-1.58v-1.58h1.58v1.58Zm2.18,5.63l5.43,9.41h-5.43v-9.41Zm-12.37-21.43l4.78,8.27h-9.55l4.78-8.27Zm10.51,10.45l-.32,.42v1.16h-20.38v-1.16l-.32-.42h21.03Z"/><g><polygon class="cls-1" points="239.83 54.2 231.29 54.2 231.29 39.42 227.39 41.67 227.39 58.11 242.09 58.11 239.83 54.2"/><path class="cls-1" d="M214.36,50.46h0c0,2.32-1.89,4.21-4.21,4.21s-4.21-1.89-4.21-4.21h0s0,0,0,0v-11.04l-3.9,2.25v8.79h0c0,4.48,3.64,8.12,8.12,8.12s8.12-3.64,8.12-8.12h0v-11.04l-3.9,2.25v8.79Z"/><path class="cls-1" d="M189,50.46h0c0,2.32-1.89,4.21-4.21,4.21s-4.21-1.89-4.21-4.21h0s0,0,0,0v-11.04l-3.9,2.25v8.79h0c0,4.48,3.64,8.12,8.12,8.12s8.12-3.64,8.12-8.12h0v-11.04l-3.9,2.25v8.79Z"/><polygon class="cls-1" points="166.6 39.42 153.56 39.42 151.31 43.32 159.84 43.32 151.31 58.11 165.29 58.11 167.54 54.2 158.07 54.2 166.6 39.42"/></g></g></g></svg>