<svg width="93" height="92" viewBox="0 0 93 92" fill="none" xmlns="http://www.w3.org/2000/svg">
<rect x="40.1111" y="39.6111" width="12.7778" height="12.7778" stroke="black" stroke-width="3.19444" stroke-linejoin="round"/>
<rect x="29.8889" y="29.3889" width="33.2222" height="33.2222" stroke="black" stroke-width="3.19444" stroke-linejoin="round"/>
<path d="M54.1667 21.7222L54.1667 29.3889" stroke="black" stroke-width="2.55556" stroke-linecap="round"/>
<path d="M43.9443 21.7222L43.9443 29.3889" stroke="black" stroke-width="2.55556" stroke-linecap="round"/>
<path d="M49.0557 21.7222L49.0557 29.3889" stroke="black" stroke-width="2.55556" stroke-linecap="round"/>
<path d="M38.8333 21.7222L38.8333 29.3889" stroke="black" stroke-width="2.55556" stroke-linecap="round"/>
<path d="M54.1667 62.6111L54.1667 70.2778" stroke="black" stroke-width="2.55556" stroke-linecap="round"/>
<path d="M43.9443 62.6111L43.9443 70.2778" stroke="black" stroke-width="2.55556" stroke-linecap="round"/>
<path d="M49.0557 62.6111L49.0557 70.2778" stroke="black" stroke-width="2.55556" stroke-linecap="round"/>
<path d="M38.8333 62.6111L38.8333 70.2778" stroke="black" stroke-width="2.55556" stroke-linecap="round"/>
<path d="M63.1111 38.3333L70.7778 38.3333" stroke="black" stroke-width="2.55556" stroke-linecap="round"/>
<path d="M63.1111 48.5555L70.7778 48.5555" stroke="black" stroke-width="2.55556" stroke-linecap="round"/>
<path d="M63.1111 43.4445L70.7778 43.4445" stroke="black" stroke-width="2.55556" stroke-linecap="round"/>
<path d="M63.1111 53.6667L70.7778 53.6667" stroke="black" stroke-width="2.55556" stroke-linecap="round"/>
<path d="M22.2222 38.3333L29.8888 38.3333" stroke="black" stroke-width="2.55556" stroke-linecap="round"/>
<path d="M22.2222 48.5555L29.8888 48.5555" stroke="black" stroke-width="2.55556" stroke-linecap="round"/>
<path d="M22.2222 43.4445L29.8888 43.4445" stroke="black" stroke-width="2.55556" stroke-linecap="round"/>
<path d="M22.2222 53.6667L29.8888 53.6667" stroke="black" stroke-width="2.55556" stroke-linecap="round"/>
</svg>
