<svg width="423" height="99" viewBox="0 0 423 99" fill="none" xmlns="http://www.w3.org/2000/svg">
<g clip-path="url(#clip0_1429_716)">
<path d="M138.455 43.38C133.766 43.38 130.255 42.255 127.967 40.005C125.679 37.755 124.546 34.29 124.569 29.5875V15.3675C124.569 10.62 125.702 7.155 127.99 4.9275C130.278 2.7 133.766 1.5975 138.455 1.6425H145.885C150.643 1.6425 154.154 2.7675 156.397 4.995C158.639 7.2225 159.772 10.71 159.772 15.435V29.5875C159.772 34.245 158.639 37.7325 156.397 40.005C154.154 42.255 150.643 43.38 145.885 43.38H138.455ZM138.455 38.205H145.885C147.652 38.2725 149.419 38.0025 151.096 37.4175C152.319 36.9225 153.27 35.955 153.769 34.7625C154.358 33.0975 154.63 31.3425 154.562 29.5875V15.4125C154.63 13.6575 154.358 11.925 153.769 10.2825C153.27 9.0675 152.296 8.1 151.096 7.605C149.419 6.9975 147.652 6.7275 145.885 6.8175H138.455C136.688 6.7275 134.944 6.975 133.29 7.56C132.067 8.0325 131.093 9 130.595 10.215C129.983 11.8575 129.711 13.6125 129.779 15.39V29.61C129.711 31.365 129.983 33.12 130.572 34.785C131.07 36 132.044 36.9675 133.268 37.44C134.944 38.025 136.711 38.295 138.478 38.2275L138.455 38.205Z" fill="white"/>
<path d="M173.16 55.6875C171.914 55.8675 170.736 55.0125 170.555 53.7525C170.532 53.5275 170.532 53.325 170.555 53.1V14.7375C170.441 13.32 171.529 12.06 172.956 11.97C174.383 11.88 175.652 12.9375 175.742 14.355C175.742 14.49 175.742 14.6025 175.742 14.7375V15.5025C176.92 14.355 178.325 13.5 179.888 13.005C181.677 12.42 183.535 12.1275 185.415 12.15H187.771C191.894 12.15 194.952 13.14 196.945 15.0975C198.939 17.055 199.936 20.115 199.936 24.21V31.2975C199.936 35.3925 198.939 38.43 196.945 40.41C194.952 42.39 191.894 43.38 187.771 43.38H175.742V53.1225C175.923 54.36 175.04 55.5075 173.794 55.6875C173.568 55.71 173.364 55.71 173.137 55.6875H173.16ZM175.765 38.205H187.794C190.512 38.205 192.324 37.71 193.298 36.81C194.272 35.91 194.703 34.02 194.703 31.3425V24.2775C194.703 21.5775 194.227 19.7775 193.298 18.81C192.37 17.865 190.535 17.3925 187.794 17.415H185.438C183.172 17.37 180.907 17.685 178.732 18.3375C176.852 18.945 175.923 19.9125 175.765 21.24V38.205Z" fill="white"/>
<path d="M214.433 29.9241V31.3191C214.433 33.9741 214.932 35.7516 215.838 36.7191C216.744 37.6866 218.647 38.1141 221.32 38.1141H226.417C228.003 38.1816 229.588 37.9791 231.106 37.5291C232.057 37.1916 232.805 36.4266 233.122 35.4816C233.281 34.8066 233.621 34.1991 234.074 33.6816C234.572 33.2316 235.252 33.0066 235.931 33.0741C236.656 33.0291 237.381 33.2766 237.902 33.7491C238.378 34.2891 238.536 35.0316 238.332 35.7066C238.015 38.0466 236.679 40.1391 234.685 41.3991C232.171 42.7716 229.316 43.4241 226.439 43.2666H221.388C217.288 43.2666 214.23 42.2766 212.236 40.3191C210.243 38.3616 209.246 35.3241 209.246 31.2741V24.1416C209.246 19.9341 210.243 16.9191 212.236 14.9616C214.23 13.0041 217.288 12.0366 221.388 12.0816H226.485C230.608 12.0816 233.666 13.0716 235.659 15.0291C237.653 16.9866 238.649 20.0241 238.649 24.1641V27.2466C238.831 28.4841 237.947 29.6541 236.701 29.8341C236.475 29.8566 236.271 29.8566 236.044 29.8341L214.479 29.9466L214.433 29.9241ZM221.365 17.3241C218.692 17.3241 216.857 17.7516 215.883 18.7191C214.909 19.6866 214.479 21.5091 214.479 24.2316V24.7266H233.439V24.2316C233.439 21.5316 232.964 19.7316 232.035 18.7641C231.106 17.8191 229.271 17.3466 226.53 17.3691L221.365 17.3241Z" fill="white"/>
<path d="M251.992 43.38C250.746 43.56 249.568 42.705 249.387 41.445C249.365 41.22 249.365 40.995 249.387 40.77V14.7375C249.387 13.2975 250.565 12.15 251.992 12.15C253.419 12.15 254.597 13.32 254.597 14.7375V15.75C256.772 13.365 260.011 12.15 264.27 12.15H265.992C270.115 12.15 273.173 13.14 275.166 15.0975C277.16 17.055 278.134 20.115 278.134 24.21V40.77C278.247 42.1875 277.16 43.4475 275.733 43.5375C274.306 43.65 273.037 42.57 272.946 41.1525C272.946 41.0175 272.946 40.905 272.946 40.77V24.21C272.946 21.51 272.448 19.71 271.474 18.7425C270.5 17.7975 268.665 17.3475 265.992 17.3475H264.27C262.073 17.3025 259.898 17.595 257.791 18.18C255.957 18.7425 254.892 19.575 254.597 20.835V40.77C254.756 42.03 253.872 43.1775 252.627 43.335C252.423 43.3575 252.196 43.3575 251.992 43.335V43.38Z" fill="white"/>
<path d="M292.405 43.3809C291.68 43.4484 290.978 43.2009 290.434 42.7509C289.981 42.2109 289.755 41.4909 289.8 40.7934V4.27585C289.732 3.55585 289.959 2.85835 290.434 2.29585C291.001 1.84585 291.703 1.62085 292.405 1.68835C293.628 1.46335 294.784 2.27335 295.01 3.48835C295.055 3.75835 295.055 4.02835 295.01 4.29835V40.7934C295.055 41.4909 294.829 42.2109 294.399 42.7509C293.855 43.2234 293.13 43.4484 292.405 43.3809Z" fill="white"/>
<path d="M309.893 43.38C308.647 43.56 307.47 42.705 307.288 41.445C307.266 41.22 307.266 40.995 307.288 40.77V14.7375C307.175 13.32 308.262 12.06 309.69 11.97C311.117 11.8575 312.385 12.9375 312.476 14.355C312.476 14.49 312.476 14.6025 312.476 14.7375V15.75C314.673 13.365 317.89 12.15 322.149 12.15H323.893C328.016 12.15 331.074 13.14 333.067 15.0975C335.061 17.055 336.035 20.115 336.035 24.21V40.77C336.035 42.21 334.857 43.3575 333.43 43.3575C332.003 43.3575 330.825 42.1875 330.825 40.77V24.21C330.825 21.51 330.349 19.71 329.42 18.7425C328.492 17.775 326.611 17.3475 323.938 17.3475H322.194C319.997 17.3025 317.822 17.595 315.715 18.18C313.858 18.7425 312.816 19.575 312.521 20.835V40.77C312.702 42.03 311.819 43.1775 310.55 43.335C310.324 43.3575 310.097 43.3575 309.871 43.335L309.893 43.38Z" fill="white"/>
<path d="M351.462 43.38C350.216 43.56 349.038 42.6825 348.857 41.445C348.834 41.22 348.834 41.0175 348.857 40.7925V17.3025H346.569C345.119 17.3025 343.964 16.1325 343.964 14.715C343.964 13.2975 345.142 12.1275 346.569 12.1275H348.857V11.88C348.857 7.83 349.831 4.8825 351.802 2.9025C353.772 0.9225 356.763 0 360.817 0C362.313 0 363.037 0.8775 363.037 2.5875C363.037 4.2975 362.313 5.175 360.817 5.175C358.212 5.175 356.423 5.625 355.494 6.57C354.565 7.515 354.089 9.27 354.089 11.9025V12.15H360.478C361.927 12.15 363.083 13.32 363.083 14.7375C363.083 16.155 361.905 17.325 360.478 17.325H354.089V40.77C354.271 42.0075 353.41 43.1775 352.164 43.3575C351.937 43.38 351.711 43.38 351.484 43.3575L351.462 43.38Z" fill="white"/>
<path d="M373.662 43.38C372.416 43.56 371.238 42.705 371.057 41.445C371.034 41.22 371.034 40.995 371.057 40.77V14.7375C370.943 13.32 372.031 12.06 373.458 11.97C374.885 11.8575 376.153 12.9375 376.244 14.355C376.244 14.49 376.244 14.6025 376.244 14.7375V17.1225C377.445 15.5025 379.053 14.22 380.911 13.3875C382.972 12.51 385.169 12.0825 387.412 12.1275C388.862 12.1275 390.017 13.2975 390.017 14.715C390.017 16.1325 388.839 17.3025 387.412 17.3025C384.535 17.1225 381.681 17.7975 379.212 19.26C377.422 20.4075 376.312 22.365 376.244 24.48V40.7475C376.425 41.985 375.565 43.155 374.296 43.335C374.069 43.3575 373.866 43.3575 373.639 43.335L373.662 43.38Z" fill="white"/>
<path d="M404.674 43.38C401.208 43.38 398.603 42.5475 396.926 40.86C395.25 39.1725 394.389 36.6525 394.389 33.165C394.389 29.6775 395.227 27.1575 396.904 25.47C398.58 23.7825 401.14 22.95 404.674 22.95H417.79C417.88 21.3075 417.246 19.6875 416.091 18.5175C414.528 17.595 412.693 17.1675 410.881 17.3475H407.279C405.738 17.3025 404.175 17.4375 402.658 17.7525C401.774 17.955 401.004 18.495 400.506 19.26C400.256 19.935 399.871 20.5425 399.373 21.0375C398.875 21.3975 398.24 21.5775 397.629 21.5325C396.881 21.5775 396.134 21.3075 395.59 20.8125C395.092 20.295 394.91 19.5525 395.159 18.8775C395.68 16.7175 397.085 14.8725 399.056 13.7925C401.638 12.5775 404.47 12.0375 407.302 12.1725H410.903C415.026 12.1725 418.084 13.1625 420.078 15.12C422.071 17.0775 423.023 20.1375 423.023 24.255V40.815C423.136 42.2325 422.049 43.4925 420.621 43.5825C419.194 43.695 417.926 42.615 417.835 41.1975C417.835 41.0625 417.835 40.95 417.835 40.815V39.42C415.411 42.165 411.832 43.6275 408.162 43.4025H404.719L404.674 43.38ZM404.674 38.2275H408.14C409.589 38.2275 411.017 38.0925 412.444 37.8C413.712 37.5525 414.89 37.035 415.91 36.27C416.906 35.4825 417.586 34.3575 417.813 33.0975V28.1025H404.674C401.865 27.6075 399.192 29.475 398.693 32.265C398.195 35.055 400.075 37.71 402.884 38.205C403.473 38.3175 404.085 38.3175 404.674 38.205V38.2275Z" fill="white"/>
<path d="M0 16.515V24.7725H57.1083L0 81.5175L5.86713 87.345L77.1789 16.515H0Z" fill="#F4A93A"/>
<path d="M85.4699 8.27923L93.7836 0.0217285H0V8.27923H85.4699Z" fill="#E61E24"/>
<path d="M91.337 14.1066V98.9991H99.6507V5.84912L91.337 14.1066Z" fill="#39AE4A"/>
<path d="M83.046 99V22.3425L11.7343 93.1725L17.6014 99L74.755 42.2775V99H83.046Z" fill="#28A4DB"/>
<path d="M143.947 93.7145H129.855V84.788H138.519C140.084 84.788 140.949 83.93 140.949 82.3625C140.949 80.795 140.089 79.937 138.519 79.937H129.855V71.28H143.947C145.512 71.28 146.372 70.422 146.372 68.8545C146.372 67.287 145.512 66.429 143.947 66.429H127.425C125.86 66.429 125 67.287 125 68.8545V96.129C125 97.691 125.86 98.5545 127.425 98.5545H143.947C145.512 98.5545 146.372 97.6965 146.372 96.129C146.372 94.5615 145.512 93.7035 143.947 93.7035V93.7145Z" fill="white"/>
<path d="M180.392 67.0616C179.973 66.6436 179.367 66.4346 178.59 66.4346C177.813 66.4346 177.207 66.6436 176.794 67.0616C176.38 67.4741 176.165 68.0791 176.165 68.8546V87.7746C176.165 89.3366 175.978 90.5686 175.614 91.4376C175.272 92.2516 174.71 92.8181 173.889 93.1591C173.018 93.5221 171.784 93.7091 170.213 93.7091H164.691C163.126 93.7091 161.886 93.5221 161.021 93.1591C160.205 92.8181 159.637 92.2571 159.296 91.4376C158.932 90.5686 158.75 89.3366 158.75 87.7746V68.8546C158.75 68.0791 158.535 67.4741 158.122 67.0616C157.703 66.6436 157.102 66.4346 156.325 66.4346C155.548 66.4346 154.942 66.6436 154.529 67.0616C154.11 67.4741 153.9 68.0791 153.9 68.8601V87.7801C153.9 91.3991 154.799 94.1326 156.562 95.9036C158.331 97.6691 161.07 98.5601 164.702 98.5601H170.224C173.873 98.5601 176.612 97.6636 178.375 95.8981C180.133 94.1326 181.026 91.3991 181.026 87.7801V68.8601C181.026 68.0846 180.817 67.4796 180.398 67.0671L180.392 67.0616Z" fill="white"/>
<path d="M211.326 83.1159C212.528 81.5869 213.134 79.5244 213.134 76.9889V75.6139C213.134 72.6934 212.329 70.4109 210.748 68.8269C209.16 67.2429 206.873 66.4399 203.941 66.4399H193.173C191.607 66.4399 190.748 67.2979 190.748 68.8654V96.1399C190.748 97.7019 191.607 98.5654 193.173 98.5654C194.738 98.5654 195.603 97.7074 195.603 96.1399V86.1629H201.268L208.262 97.7789C208.648 98.3894 209.144 98.7744 209.728 98.9339C209.899 98.9779 210.07 98.9999 210.246 98.9999C210.681 98.9999 211.128 98.8569 211.574 98.5709C212.864 97.7624 213.189 96.5964 212.473 95.2819L206.807 85.8494C208.73 85.4039 210.252 84.4854 211.332 83.1104L211.326 83.1159ZM208.279 75.6139V76.9889C208.279 78.5894 207.953 79.7224 207.32 80.3604C206.68 80.9929 205.545 81.3174 203.941 81.3174H195.603V71.2854H203.941C205.545 71.2854 206.68 71.6099 207.32 72.2534C207.959 72.8969 208.279 74.0299 208.279 75.6139Z" fill="white"/>
<path d="M244.255 69.0854C242.492 67.3309 239.747 66.4399 236.104 66.4399H230.588C226.961 66.4564 224.233 67.2814 222.459 69.0249C220.684 70.7739 219.78 73.5184 219.78 77.1704V87.7799C219.78 91.4044 220.679 94.1379 222.442 95.9034C224.211 97.6689 226.95 98.5599 230.582 98.5599H236.104C239.747 98.5599 242.492 97.6634 244.255 95.8979C246.013 94.1324 246.906 91.3989 246.906 87.7799V77.2199C246.906 73.5789 246.013 70.8454 244.255 69.0854ZM224.636 77.1704C224.636 75.6029 224.823 74.3709 225.198 73.5074C225.545 72.6879 226.113 72.1324 226.928 71.7969C227.766 71.4559 228.934 71.2799 230.411 71.2799C230.466 71.2799 230.527 71.2799 230.582 71.2799H236.104C237.669 71.2799 238.904 71.4669 239.775 71.8354C240.596 72.1874 241.163 72.7539 241.505 73.5679C241.869 74.4369 242.051 75.6634 242.051 77.2089V87.7689C242.051 89.3309 241.869 90.5629 241.505 91.4319C241.163 92.2514 240.596 92.8124 239.78 93.1534C238.909 93.5164 237.675 93.6979 236.11 93.6979H230.588C229.022 93.6979 227.782 93.5109 226.912 93.1479C226.091 92.8069 225.528 92.2459 225.187 91.4264C224.823 90.5574 224.636 89.3254 224.636 87.7634V77.1539V77.1704Z" fill="white"/>
<path d="M275.762 68.8216C274.175 67.2376 271.888 66.4346 268.956 66.4346H258.187C256.622 66.4346 255.762 67.2926 255.762 68.8601V96.1346C255.762 97.6966 256.622 98.5601 258.187 98.5601C259.752 98.5601 260.618 97.7021 260.618 96.1346V86.1576H268.956C271.888 86.1576 274.175 85.3546 275.762 83.7761C277.344 82.1921 278.149 79.9096 278.149 76.9891V75.6141C278.149 72.6936 277.344 70.4111 275.762 68.8271V68.8216ZM273.293 75.6086V76.9836C273.293 78.5841 272.974 79.7171 272.334 80.3551C271.695 80.9876 270.56 81.3121 268.956 81.3121H260.618V71.2801H268.956C270.56 71.2801 271.695 71.6046 272.334 72.2481C272.974 72.8916 273.293 74.0246 273.293 75.6086Z" fill="white"/>
<path d="M304.293 93.7145H290.201V84.788H298.859C300.425 84.788 301.29 83.93 301.29 82.3625C301.29 80.795 300.43 79.937 298.859 79.937H290.201V71.28H304.293C305.858 71.28 306.724 70.422 306.724 68.8545C306.724 67.287 305.864 66.429 304.293 66.429H287.776C286.211 66.429 285.346 67.287 285.346 68.8545V96.129C285.346 97.691 286.206 98.5545 287.776 98.5545H304.293C305.858 98.5545 306.724 97.6965 306.724 96.129C306.724 94.5615 305.864 93.7035 304.293 93.7035V93.7145Z" fill="white"/>
</g>
<defs>
<clipPath id="clip0_1429_716">
<rect width="423" height="99" fill="white"/>
</clipPath>
</defs>
</svg>
