<svg width="423" height="99" viewBox="0 0 423 99" fill="none" xmlns="http://www.w3.org/2000/svg">
<g clip-path="url(#clip0_1429_682)">
<path d="M138.455 43.38C133.766 43.38 130.255 42.255 127.967 40.005C125.679 37.755 124.546 34.29 124.569 29.5875V15.3675C124.569 10.62 125.702 7.155 127.99 4.9275C130.278 2.7 133.766 1.5975 138.455 1.6425H145.885C150.643 1.6425 154.154 2.7675 156.397 4.995C158.639 7.2225 159.772 10.71 159.772 15.435V29.5875C159.772 34.245 158.639 37.7325 156.397 40.005C154.154 42.255 150.643 43.38 145.885 43.38H138.455ZM138.455 38.205H145.885C147.652 38.2725 149.419 38.0025 151.096 37.4175C152.319 36.9225 153.27 35.955 153.769 34.7625C154.358 33.0975 154.63 31.3425 154.562 29.5875V15.4125C154.63 13.6575 154.358 11.925 153.769 10.2825C153.27 9.0675 152.296 8.1 151.096 7.605C149.419 6.9975 147.652 6.7275 145.885 6.8175H138.455C136.688 6.7275 134.944 6.975 133.29 7.56C132.067 8.0325 131.093 9 130.595 10.215C129.983 11.8575 129.711 13.6125 129.779 15.39V29.61C129.711 31.365 129.983 33.12 130.572 34.785C131.07 36 132.044 36.9675 133.268 37.44C134.944 38.025 136.711 38.295 138.478 38.2275L138.455 38.205Z" fill="white"/>
<path d="M173.16 55.6875C171.914 55.8675 170.736 55.0125 170.555 53.7525C170.532 53.5275 170.532 53.325 170.555 53.1V14.7375C170.441 13.32 171.529 12.06 172.956 11.97C174.383 11.88 175.652 12.9375 175.742 14.355C175.742 14.49 175.742 14.6025 175.742 14.7375V15.5025C176.92 14.355 178.325 13.5 179.888 13.005C181.677 12.42 183.535 12.1275 185.415 12.15H187.771C191.894 12.15 194.952 13.14 196.945 15.0975C198.939 17.055 199.936 20.115 199.936 24.21V31.2975C199.936 35.3925 198.939 38.43 196.945 40.41C194.952 42.39 191.894 43.38 187.771 43.38H175.742V53.1225C175.923 54.36 175.04 55.5075 173.794 55.6875C173.568 55.71 173.364 55.71 173.137 55.6875H173.16ZM175.765 38.205H187.794C190.512 38.205 192.324 37.71 193.298 36.81C194.272 35.91 194.703 34.02 194.703 31.3425V24.2775C194.703 21.5775 194.227 19.7775 193.298 18.81C192.37 17.865 190.535 17.3925 187.794 17.415H185.438C183.172 17.37 180.907 17.685 178.732 18.3375C176.852 18.945 175.923 19.9125 175.765 21.24V38.205Z" fill="white"/>
<path d="M214.433 29.9241V31.3191C214.433 33.9741 214.932 35.7516 215.838 36.7191C216.744 37.6866 218.647 38.1141 221.32 38.1141H226.417C228.003 38.1816 229.588 37.9791 231.106 37.5291C232.057 37.1916 232.805 36.4266 233.122 35.4816C233.281 34.8066 233.621 34.1991 234.074 33.6816C234.572 33.2316 235.252 33.0066 235.931 33.0741C236.656 33.0291 237.381 33.2766 237.902 33.7491C238.378 34.2891 238.536 35.0316 238.332 35.7066C238.015 38.0466 236.679 40.1391 234.685 41.3991C232.171 42.7716 229.316 43.4241 226.439 43.2666H221.388C217.288 43.2666 214.23 42.2766 212.236 40.3191C210.243 38.3616 209.246 35.3241 209.246 31.2741V24.1416C209.246 19.9341 210.243 16.9191 212.236 14.9616C214.23 13.0041 217.288 12.0366 221.388 12.0816H226.485C230.608 12.0816 233.666 13.0716 235.659 15.0291C237.653 16.9866 238.649 20.0241 238.649 24.1641V27.2466C238.831 28.4841 237.947 29.6541 236.701 29.8341C236.475 29.8566 236.271 29.8566 236.044 29.8341L214.479 29.9466L214.433 29.9241ZM221.365 17.3241C218.692 17.3241 216.857 17.7516 215.883 18.7191C214.909 19.6866 214.479 21.5091 214.479 24.2316V24.7266H233.439V24.2316C233.439 21.5316 232.964 19.7316 232.035 18.7641C231.106 17.8191 229.271 17.3466 226.53 17.3691L221.365 17.3241Z" fill="white"/>
<path d="M251.992 43.38C250.746 43.56 249.568 42.705 249.387 41.445C249.365 41.22 249.365 40.995 249.387 40.77V14.7375C249.387 13.2975 250.565 12.15 251.992 12.15C253.419 12.15 254.597 13.32 254.597 14.7375V15.75C256.772 13.365 260.011 12.15 264.27 12.15H265.992C270.115 12.15 273.173 13.14 275.166 15.0975C277.16 17.055 278.134 20.115 278.134 24.21V40.77C278.247 42.1875 277.16 43.4475 275.733 43.5375C274.306 43.65 273.037 42.57 272.946 41.1525C272.946 41.0175 272.946 40.905 272.946 40.77V24.21C272.946 21.51 272.448 19.71 271.474 18.7425C270.5 17.7975 268.665 17.3475 265.992 17.3475H264.27C262.073 17.3025 259.898 17.595 257.791 18.18C255.957 18.7425 254.892 19.575 254.597 20.835V40.77C254.756 42.03 253.872 43.1775 252.627 43.335C252.423 43.3575 252.196 43.3575 251.992 43.335V43.38Z" fill="white"/>
<path d="M292.405 43.3809C291.68 43.4484 290.978 43.2009 290.434 42.7509C289.981 42.2109 289.755 41.4909 289.8 40.7934V4.27585C289.732 3.55585 289.959 2.85835 290.434 2.29585C291.001 1.84585 291.703 1.62085 292.405 1.68835C293.628 1.46335 294.784 2.27335 295.01 3.48835C295.055 3.75835 295.055 4.02835 295.01 4.29835V40.7934C295.055 41.4909 294.829 42.2109 294.399 42.7509C293.855 43.2234 293.13 43.4484 292.405 43.3809Z" fill="white"/>
<path d="M309.893 43.38C308.647 43.56 307.47 42.705 307.288 41.445C307.266 41.22 307.266 40.995 307.288 40.77V14.7375C307.175 13.32 308.262 12.06 309.69 11.97C311.117 11.8575 312.385 12.9375 312.476 14.355C312.476 14.49 312.476 14.6025 312.476 14.7375V15.75C314.673 13.365 317.89 12.15 322.149 12.15H323.893C328.016 12.15 331.074 13.14 333.067 15.0975C335.061 17.055 336.035 20.115 336.035 24.21V40.77C336.035 42.21 334.857 43.3575 333.43 43.3575C332.003 43.3575 330.825 42.1875 330.825 40.77V24.21C330.825 21.51 330.349 19.71 329.42 18.7425C328.492 17.775 326.611 17.3475 323.938 17.3475H322.194C319.997 17.3025 317.822 17.595 315.715 18.18C313.858 18.7425 312.816 19.575 312.521 20.835V40.77C312.702 42.03 311.819 43.1775 310.55 43.335C310.324 43.3575 310.097 43.3575 309.871 43.335L309.893 43.38Z" fill="white"/>
<path d="M351.462 43.38C350.216 43.56 349.038 42.6825 348.857 41.445C348.834 41.22 348.834 41.0175 348.857 40.7925V17.3025H346.569C345.119 17.3025 343.964 16.1325 343.964 14.715C343.964 13.2975 345.142 12.1275 346.569 12.1275H348.857V11.88C348.857 7.83 349.831 4.8825 351.802 2.9025C353.772 0.9225 356.763 0 360.817 0C362.313 0 363.037 0.8775 363.037 2.5875C363.037 4.2975 362.313 5.175 360.817 5.175C358.212 5.175 356.423 5.625 355.494 6.57C354.565 7.515 354.089 9.27 354.089 11.9025V12.15H360.478C361.927 12.15 363.083 13.32 363.083 14.7375C363.083 16.155 361.905 17.325 360.478 17.325H354.089V40.77C354.271 42.0075 353.41 43.1775 352.164 43.3575C351.937 43.38 351.711 43.38 351.484 43.3575L351.462 43.38Z" fill="white"/>
<path d="M373.662 43.38C372.416 43.56 371.238 42.705 371.057 41.445C371.034 41.22 371.034 40.995 371.057 40.77V14.7375C370.943 13.32 372.031 12.06 373.458 11.97C374.885 11.8575 376.153 12.9375 376.244 14.355C376.244 14.49 376.244 14.6025 376.244 14.7375V17.1225C377.445 15.5025 379.053 14.22 380.911 13.3875C382.972 12.51 385.169 12.0825 387.412 12.1275C388.862 12.1275 390.017 13.2975 390.017 14.715C390.017 16.1325 388.839 17.3025 387.412 17.3025C384.535 17.1225 381.681 17.7975 379.212 19.26C377.422 20.4075 376.312 22.365 376.244 24.48V40.7475C376.425 41.985 375.565 43.155 374.296 43.335C374.069 43.3575 373.866 43.3575 373.639 43.335L373.662 43.38Z" fill="white"/>
<path d="M404.674 43.38C401.208 43.38 398.603 42.5475 396.926 40.86C395.25 39.1725 394.389 36.6525 394.389 33.165C394.389 29.6775 395.227 27.1575 396.904 25.47C398.58 23.7825 401.14 22.95 404.674 22.95H417.79C417.88 21.3075 417.246 19.6875 416.091 18.5175C414.528 17.595 412.693 17.1675 410.881 17.3475H407.279C405.738 17.3025 404.175 17.4375 402.658 17.7525C401.774 17.955 401.004 18.495 400.506 19.26C400.256 19.935 399.871 20.5425 399.373 21.0375C398.875 21.3975 398.24 21.5775 397.629 21.5325C396.881 21.5775 396.134 21.3075 395.59 20.8125C395.091 20.295 394.91 19.5525 395.159 18.8775C395.68 16.7175 397.085 14.8725 399.056 13.7925C401.638 12.5775 404.47 12.0375 407.301 12.1725H410.903C415.026 12.1725 418.084 13.1625 420.078 15.12C422.071 17.0775 423.023 20.1375 423.023 24.255V40.815C423.136 42.2325 422.049 43.4925 420.621 43.5825C419.194 43.695 417.926 42.615 417.835 41.1975C417.835 41.0625 417.835 40.95 417.835 40.815V39.42C415.411 42.165 411.832 43.6275 408.162 43.4025H404.719L404.674 43.38ZM404.674 38.2275H408.14C409.589 38.2275 411.017 38.0925 412.444 37.8C413.712 37.5525 414.89 37.035 415.91 36.27C416.906 35.4825 417.586 34.3575 417.812 33.0975V28.1025H404.674C401.865 27.6075 399.192 29.475 398.693 32.265C398.195 35.055 400.075 37.71 402.884 38.205C403.473 38.3175 404.085 38.3175 404.674 38.205V38.2275Z" fill="white"/>
<path d="M0 16.515V24.7725H57.1083L0 81.5175L5.86713 87.345L77.1789 16.515H0Z" fill="#F4A93A"/>
<path d="M85.4699 8.27923L93.7836 0.0217285H0V8.27923H85.4699Z" fill="#E61E24"/>
<path d="M91.337 14.1066V98.9991H99.6507V5.84912L91.337 14.1066Z" fill="#39AE4A"/>
<path d="M83.046 99V22.3425L11.7343 93.1725L17.6014 99L74.755 42.2775V99H83.046Z" fill="#28A4DB"/>
<path d="M125.883 98.3004C124.66 97.8279 124.275 96.9729 124.773 95.7579L135.805 68.7804C136.258 67.7679 136.983 67.2504 137.98 67.2504H138.07C139.067 67.2954 139.747 67.8129 140.109 68.7804L151.322 95.7579C151.821 96.9729 151.458 97.8054 150.258 98.3004C149.034 98.7729 148.196 98.4129 147.698 97.2429L145.183 91.2129H130.753L128.375 97.2429C127.899 98.4354 127.061 98.7954 125.86 98.3004H125.883ZM132.294 87.3429H143.598L137.821 73.3929L132.294 87.3429Z" fill="white"/>
<path d="M126.834 98.9991C126.495 98.9991 126.11 98.909 125.702 98.7516C124.954 98.4591 124.456 98.0316 124.229 97.4916C124.003 96.9516 124.025 96.2991 124.32 95.5791L135.352 68.6016C135.896 67.4091 136.802 66.7791 137.98 66.7791H138.093C139.294 66.8241 140.154 67.4766 140.585 68.6241L151.798 95.5791C152.093 96.3216 152.138 96.9741 151.889 97.5141C151.662 98.0541 151.164 98.4816 150.439 98.7516C148.966 99.3366 147.834 98.8641 147.245 97.424L144.866 91.709H131.093L128.828 97.424C128.533 98.1441 128.103 98.639 127.559 98.864C127.333 98.954 127.061 99.0215 126.812 99.0215L126.834 98.9991ZM138.048 67.7691C137.187 67.7691 136.643 68.1516 136.258 69.0066L125.226 95.9616C125.022 96.4341 125 96.8166 125.135 97.1091C125.271 97.4016 125.566 97.6491 126.064 97.8291C126.517 98.0316 126.902 98.054 127.197 97.9415C127.491 97.8291 127.741 97.5141 127.922 97.0416L130.436 90.6966H145.546L148.174 97.0416C148.559 97.9641 149.125 98.2116 150.076 97.8291C150.552 97.6491 150.847 97.4016 150.96 97.1091C151.096 96.8166 151.051 96.4116 150.847 95.9391L139.633 68.9616C139.339 68.1741 138.841 67.7916 138.025 67.7466L138.048 67.7691ZM144.345 87.8391H131.569L137.821 72.0665L144.345 87.8391ZM133.019 86.849H142.85L137.844 74.7215L133.019 86.849Z" fill="white"/>
<path d="M166.092 98.4804C163.442 98.4804 161.38 97.9404 159.908 96.8829C158.435 95.8254 157.507 94.1829 157.144 91.9779C157.076 91.3029 157.212 90.8079 157.574 90.4704C157.914 90.1329 158.413 89.9754 159.047 89.9754C159.681 89.9754 160.18 90.1329 160.474 90.4254C160.769 90.7404 160.972 91.2129 161.086 91.8429C161.312 92.9004 161.811 93.6204 162.581 94.0254C163.351 94.4079 164.506 94.6104 166.092 94.6104H172.775C174.768 94.6104 176.127 94.2504 176.852 93.5304C177.577 92.8104 177.94 91.4829 177.94 89.5479C177.94 87.6129 177.577 86.2179 176.83 85.4754C176.082 84.7554 174.745 84.3729 172.797 84.3729H167.043C164.121 84.3729 161.969 83.6529 160.542 82.2354C159.115 80.8179 158.413 78.6579 158.413 75.7554C158.413 72.8529 159.115 70.7379 160.519 69.3429C161.924 67.9479 164.076 67.2504 166.998 67.2504H172.503C174.949 67.2504 176.898 67.7454 178.279 68.7579C179.684 69.7479 180.567 71.2779 180.93 73.3479C181.02 74.0004 180.907 74.5179 180.567 74.8554C180.228 75.1929 179.706 75.3729 179.027 75.3729C178.415 75.3729 177.94 75.2154 177.645 74.9004C177.328 74.5854 177.147 74.1129 177.033 73.5054C176.784 72.6054 176.309 71.9754 175.629 71.6604C174.949 71.3454 173.885 71.1654 172.503 71.1654H166.998C165.141 71.1654 163.895 71.4804 163.26 72.1329C162.626 72.7854 162.309 74.0004 162.309 75.8004C162.309 77.6004 162.626 78.8604 163.283 79.5354C163.94 80.2104 165.186 80.5479 167.043 80.5479H172.797C175.833 80.5479 178.098 81.2904 179.593 82.7529C181.088 84.2154 181.836 86.4879 181.836 89.5704C181.836 92.6529 181.088 94.8804 179.616 96.3204C178.143 97.7604 175.855 98.5029 172.797 98.5029H166.115L166.092 98.4804Z" fill="white"/>
<path d="M172.752 98.9766H166.069C163.328 98.9766 161.154 98.4141 159.613 97.2891C158.028 96.1641 157.031 94.409 156.646 92.069C156.578 91.214 156.759 90.5616 157.212 90.1115C157.643 89.684 158.254 89.459 159.047 89.459C159.84 89.459 160.429 89.6615 160.837 90.0665C161.222 90.449 161.471 91.0115 161.584 91.754C161.788 92.654 162.173 93.2391 162.807 93.5766C163.487 93.9366 164.597 94.1166 166.092 94.1166H172.775C174.632 94.1166 175.878 93.8015 176.49 93.194C177.102 92.5865 177.419 91.3491 177.419 89.549C177.419 87.7491 177.102 86.4666 176.445 85.8366C175.81 85.2066 174.564 84.8916 172.752 84.8916H166.998C163.963 84.8916 161.652 84.1266 160.134 82.6191C158.639 81.1116 157.869 78.8165 157.869 75.8015C157.869 72.7865 158.617 70.5141 160.112 69.0291C161.607 67.5441 163.895 66.7791 166.953 66.7791H172.458C175.017 66.7791 177.056 67.3191 178.529 68.3766C180.024 69.4566 180.998 71.0991 181.383 73.2816C181.496 74.1141 181.338 74.7666 180.885 75.2166C180.454 75.6666 179.82 75.8916 179.004 75.8916C178.257 75.8916 177.668 75.6666 177.26 75.2616C176.875 74.8566 176.626 74.2941 176.535 73.5965C176.331 72.8766 175.969 72.3816 175.403 72.1116C174.768 71.8191 173.794 71.6616 172.48 71.6616H166.976C165.299 71.6616 164.121 71.9541 163.6 72.4941C163.079 73.0341 162.785 74.1816 162.785 75.8241C162.785 77.4666 163.057 78.6365 163.623 79.2215C164.167 79.784 165.322 80.0766 167.021 80.0766H172.775C175.946 80.0766 178.347 80.8641 179.933 82.4391C181.519 83.9916 182.312 86.4216 182.312 89.5941C182.312 92.7666 181.519 95.1516 179.933 96.7041C178.37 98.2341 175.946 99.0215 172.775 99.0215L172.752 98.9766ZM159.024 90.4715C158.503 90.4715 158.141 90.584 157.892 90.8316C157.665 91.0565 157.575 91.439 157.62 91.9566C157.96 93.9816 158.821 95.534 160.18 96.5016C161.562 97.4916 163.532 97.9865 166.069 97.9865H172.752C175.674 97.9865 177.849 97.3116 179.208 95.9616C180.59 94.6116 181.292 92.4515 181.292 89.549C181.292 86.6466 180.59 84.4641 179.208 83.0916C177.826 81.7191 175.652 81.0215 172.752 81.0215H166.998C164.982 81.0215 163.646 80.6391 162.875 79.8516C162.128 79.0641 161.765 77.7366 161.765 75.7791C161.765 73.8216 162.128 72.5166 162.853 71.7741C163.6 71.0091 164.937 70.6491 166.953 70.6491H172.458C173.93 70.6491 175.04 70.8291 175.81 71.1891C176.626 71.5716 177.192 72.314 177.487 73.349C177.577 73.9115 177.736 74.2941 177.962 74.5416C178.166 74.7666 178.529 74.879 178.982 74.879C179.525 74.879 179.91 74.744 180.16 74.519C180.386 74.294 180.454 73.9341 180.386 73.4166C180.046 71.5266 179.208 70.0866 177.94 69.1641C176.626 68.2416 174.791 67.7691 172.458 67.7691H166.953C164.189 67.7691 162.128 68.4216 160.837 69.7266C159.545 71.0316 158.888 73.0565 158.888 75.8015C158.888 78.5465 159.545 80.6166 160.859 81.9216C162.173 83.2266 164.235 83.9016 166.998 83.9016H172.752C174.859 83.9016 176.286 84.3066 177.124 85.1391C177.962 85.9716 178.393 87.4116 178.393 89.549C178.393 91.6866 177.985 93.0816 177.169 93.8916C176.354 94.7016 174.904 95.1066 172.752 95.1066H166.069C164.393 95.1066 163.17 94.9041 162.332 94.4766C161.426 94.0266 160.837 93.1715 160.587 91.9566C160.497 91.3941 160.338 91.0116 160.112 90.7641C159.908 90.5616 159.545 90.4491 159.047 90.4491L159.024 90.4715Z" fill="white"/>
<path d="M193.661 98.4816C193.004 98.4816 192.506 98.3241 192.188 98.0091C191.871 97.6941 191.713 97.1991 191.713 96.5466V69.2541C191.713 68.5791 191.871 68.0841 192.188 67.7916C192.506 67.4766 193.004 67.3416 193.661 67.3416C194.318 67.3416 194.839 67.4991 195.133 67.7916C195.428 68.0841 195.586 68.5791 195.586 69.2541V96.5466C195.586 97.1991 195.428 97.6941 195.133 98.0091C194.816 98.3241 194.34 98.4816 193.661 98.4816Z" fill="white"/>
<path d="M193.661 98.9766C192.868 98.9766 192.256 98.7741 191.826 98.3691C191.418 97.9641 191.214 97.3566 191.214 96.5691V69.2766C191.214 68.4666 191.418 67.8591 191.849 67.4541C192.256 67.0491 192.868 66.8466 193.661 66.8466C194.454 66.8466 195.088 67.0491 195.496 67.4541C195.904 67.8591 196.107 68.4666 196.107 69.2766V96.5691C196.107 97.3566 195.904 97.9641 195.496 98.3691C195.088 98.7741 194.476 98.9991 193.661 98.9991V98.9766ZM193.661 67.8141C193.14 67.8141 192.755 67.9266 192.528 68.1291C192.302 68.3316 192.211 68.7141 192.211 69.2541V96.5466C192.211 97.0641 192.324 97.4466 192.551 97.6491C192.777 97.8741 193.14 97.9866 193.661 97.9866C194.182 97.9866 194.567 97.8741 194.794 97.6716C194.997 97.4466 195.111 97.0866 195.111 96.5466V69.2541C195.111 68.7366 194.997 68.3316 194.794 68.1291C194.59 67.9266 194.205 67.8141 193.661 67.8141Z" fill="white"/>
<path d="M205.146 98.3004C203.923 97.8279 203.538 96.9729 204.036 95.7579L215.068 68.7804C215.521 67.7679 216.246 67.2504 217.243 67.2504H217.333C218.33 67.2954 219.01 67.8129 219.372 68.7804L230.585 95.7579C231.084 96.9729 230.721 97.8054 229.521 98.3004C228.297 98.7729 227.459 98.4129 226.961 97.2429L224.446 91.2129H210.016L207.638 97.2429C207.162 98.4354 206.324 98.7954 205.123 98.3004H205.146ZM211.557 87.3429H222.861L217.084 73.3929L211.557 87.3429Z" fill="white"/>
<path d="M206.097 98.9991C205.758 98.9991 205.372 98.909 204.965 98.7516C204.217 98.4591 203.719 98.0316 203.492 97.4916C203.266 96.9516 203.288 96.2991 203.583 95.5791L214.615 68.6016C215.159 67.4091 216.065 66.7791 217.243 66.7791H217.356C218.557 66.8241 219.417 67.4766 219.848 68.6241L231.061 95.5791C231.356 96.3216 231.401 96.9741 231.152 97.5141C230.925 98.0541 230.427 98.4816 229.702 98.7516C228.229 99.3366 227.097 98.8641 226.508 97.424L224.129 91.709H210.356L208.091 97.424C207.796 98.1441 207.366 98.639 206.822 98.864C206.596 98.954 206.324 99.0215 206.075 99.0215L206.097 98.9991ZM217.311 67.7691C216.45 67.7691 215.906 68.1516 215.521 69.0066L204.489 95.9616C204.285 96.4341 204.262 96.8166 204.398 97.1091C204.534 97.4016 204.829 97.6491 205.327 97.8291C205.78 98.0316 206.165 98.054 206.46 97.9415C206.754 97.8291 207.004 97.5141 207.185 97.0416L209.699 90.6966H224.809L227.437 97.0416C227.822 97.9641 228.388 98.2116 229.339 97.8291C229.815 97.6491 230.11 97.4016 230.223 97.1091C230.359 96.8166 230.313 96.4116 230.11 95.9391L218.896 68.9616C218.602 68.1741 218.103 67.7916 217.288 67.7466L217.311 67.7691ZM223.608 87.8391H210.832L217.084 72.0665L223.608 87.8391ZM212.282 86.849H222.113L217.107 74.7215L212.282 86.849Z" fill="white"/>
</g>
<defs>
<clipPath id="clip0_1429_682">
<rect width="423" height="99" fill="white"/>
</clipPath>
</defs>
</svg>
