<svg width="56" height="48" viewBox="0 0 56 48" fill="none" xmlns="http://www.w3.org/2000/svg">
<path d="M5.77464 5.77464C4.57793 6.97133 3.62865 8.39202 2.981 9.95558C2.33334 11.5191 2 13.195 2 14.8873C2 16.5797 2.33334 18.2556 2.981 19.8191C3.62865 21.3827 4.57793 22.8034 5.77464 24.0001L27.7746 46L49.7745 24.0001C52.1914 21.5832 53.5491 18.3053 53.5491 14.8873C53.5491 11.4694 52.1914 8.19148 49.7745 5.77464C47.3577 3.3578 44.0797 2.00003 40.6618 2.00003C37.2439 2.00003 33.966 3.3578 31.5491 5.77464L27.7746 9.54917L24.0001 5.77464C22.8034 4.57793 21.3827 3.62865 19.8191 2.981C18.2556 2.33334 16.5797 2 14.8873 2C13.195 2 11.5191 2.33334 9.95558 2.981C8.39202 3.62865 6.97133 4.57793 5.77464 5.77464V5.77464Z" stroke="#E61E24" stroke-width="3" stroke-linecap="round" stroke-linejoin="round"/>
</svg>
