<svg width="62" height="45" viewBox="0 0 62 45" fill="none" xmlns="http://www.w3.org/2000/svg">
<path d="M61.7548 9.49001C61.7548 4.97434 60.1239 2.7985 58.7541 1.77074C57.4794 0.778262 55.8155 0.436188 54.2526 0.844604C51.3579 1.66952 49.5393 5.18669 48.7816 6.97646C48.6515 6.92821 48.5257 6.88471 48.3909 6.84637C46.7987 6.39277 45.0426 5.70788 43.1804 4.98415C39.3207 3.47911 34.9257 1.7758 30.8626 1.7758C26.3757 1.7758 21.1747 3.82152 16.9966 5.46186C15.641 5.9973 14.3577 6.50387 13.2864 6.86103C13.1852 6.89463 13.0788 6.94288 12.9775 6.98638C12.2202 5.20599 10.3917 1.67939 7.5017 0.844604H7.50213C5.93931 0.435383 4.27526 0.777835 3.0007 1.77074C1.63086 2.79854 0 4.97434 0 9.49001C0 16.4421 8.56828 29.9218 8.93483 30.5107C10.1556 34.1145 11.4677 37.2074 12.1672 37.9211C16.0945 41.9061 25.1598 44.6754 30.8434 44.6754C36.5269 44.6754 45.6258 41.8966 49.5196 37.9211C50.2192 37.2068 51.5895 34.0373 52.8533 30.4094C53.6786 29.1551 61.755 16.2402 61.755 9.49023L61.7548 9.49001ZM54.7833 2.69683C55.7628 2.45129 56.801 2.67615 57.591 3.30506C59.0384 4.39059 59.825 6.58575 59.825 9.48996C59.825 12.8671 57.4416 18.2078 55.1787 22.5157C55.4406 21.4181 55.6022 20.2989 55.6612 19.1721C55.743 15.3995 53.5048 10.2756 50.4602 7.93067C51.1408 6.23739 52.7281 3.28488 54.7833 2.69601V2.69683ZM1.93058 9.49001C1.93058 6.59528 2.72189 4.39066 4.16453 3.30511C4.95413 2.67534 5.99268 2.45048 6.97225 2.69688C9.02271 3.28056 10.6053 6.24763 11.3143 7.9462C8.44851 10.1219 6.17617 14.5752 6.17617 18.5602C6.2395 20.0248 6.44798 21.4791 6.79862 22.9023C4.45395 18.5266 1.93052 12.9637 1.93052 9.4906L1.93058 9.49001ZM48.1591 36.5946C45.0524 39.7736 36.6673 42.7795 30.8778 42.7795C25.016 42.7795 16.7703 39.8271 13.5767 36.5894C12.6118 35.5715 8.09618 23.0807 8.09618 18.5605C8.09618 14.5562 10.9909 9.66391 13.9145 8.68478C15.0288 8.31346 16.3268 7.80171 17.7212 7.23741C21.711 5.66941 26.7431 3.70089 30.8771 3.70089C34.5773 3.70089 38.5963 5.26415 42.4946 6.77911C44.4244 7.51744 46.1948 8.22647 47.8786 8.70893C48.1935 8.80628 48.4946 8.9424 48.7759 9.11385C48.816 9.14271 48.8578 9.16812 48.9013 9.19138C51.4488 10.8123 53.8318 15.4874 53.7258 19.1446C53.6392 23.5393 49.0848 35.6252 48.1582 36.5946H48.1591Z" fill="#049FD9"/>
<path d="M41.3185 26.6897C41.2461 26.6897 34.0816 28.0018 30.878 28.0018C27.6744 28.0018 20.51 26.7043 20.4376 26.6897C19.913 26.5937 19.4094 26.9417 19.3138 27.4664C19.2177 27.9915 19.5654 28.4946 20.0905 28.5907C20.3942 28.6437 27.5009 29.9221 30.878 29.9221C34.2552 29.9221 41.3619 28.6341 41.6656 28.5807C42.1907 28.4851 42.5383 27.9816 42.4423 27.4569C42.3466 26.9318 41.8431 26.5842 41.3185 26.6803V26.6897Z" fill="#049FD9"/>
<path d="M41.3185 20.4183C41.2461 20.4183 34.0816 21.7303 30.878 21.7303C27.6744 21.7303 20.51 20.4328 20.4376 20.4183C19.913 20.3222 19.4094 20.6703 19.3138 21.1949C19.2177 21.72 19.5654 22.2232 20.0905 22.3192C20.3942 22.3722 27.5009 23.6506 30.878 23.6506C34.2552 23.6506 41.3619 22.3626 41.6656 22.3093C42.1907 22.2136 42.5383 21.7101 42.4423 21.1854C42.3466 20.6603 41.8431 20.3127 41.3185 20.4088V20.4183Z" fill="#049FD9"/>
<path d="M41.3185 14.1457C41.2461 14.1457 34.0816 15.4577 30.878 15.4577C27.6744 15.4577 20.51 14.1602 20.4376 14.1457C19.913 14.0496 19.4094 14.3977 19.3138 14.9223C19.2177 15.4474 19.5654 15.9506 20.0905 16.0466C20.3942 16.0996 27.5009 17.3781 30.878 17.3781C34.2552 17.3781 41.3619 16.09 41.6656 16.0367C42.1907 15.941 42.5383 15.4375 42.4423 14.9129C42.3466 14.3878 41.8431 14.0401 41.3185 14.1362V14.1457Z" fill="#049FD9"/>
</svg>
