<svg width="48" height="48" viewBox="0 0 48 48" fill="none" xmlns="http://www.w3.org/2000/svg">
<path d="M36.2222 11.7778H41.1111C42.4077 11.7778 43.6512 12.2929 44.5681 13.2097C45.4849 14.1265 46 15.3701 46 16.6667V31.3333C46 32.6299 45.4849 33.8735 44.5681 34.7903C43.6512 35.7071 42.4077 36.2222 41.1111 36.2222H36.2222V46L26.4444 36.2222H16.6667C16.0246 36.2229 15.3887 36.0967 14.7955 35.8509C14.2024 35.605 13.6636 35.2444 13.2102 34.7898M13.2102 34.7898L21.5556 26.4444H31.3333C32.6299 26.4444 33.8735 25.9294 34.7903 25.0125C35.7071 24.0957 36.2222 22.8522 36.2222 21.5556V6.88889C36.2222 5.59227 35.7071 4.34877 34.7903 3.43192C33.8735 2.51508 32.6299 2 31.3333 2H6.88889C5.59227 2 4.34877 2.51508 3.43192 3.43192C2.51508 4.34877 2 5.59227 2 6.88889V21.5556C2 22.8522 2.51508 24.0957 3.43192 25.0125C4.34877 25.9294 5.59227 26.4444 6.88889 26.4444H11.7778V36.2222L13.2102 34.7898Z" stroke="#43B85C" stroke-width="3" stroke-linecap="round" stroke-linejoin="round"/>
</svg>
