<svg width="50" height="48" viewBox="0 0 50 48" fill="none" xmlns="http://www.w3.org/2000/svg">
<path d="M22.6576 3.70187C23.3966 1.43271 26.6063 1.43271 27.3429 3.70187L31.0847 15.2177C31.2457 15.7116 31.5587 16.142 31.979 16.4474C32.3993 16.7527 32.9054 16.9173 33.4249 16.9177H45.5322C47.9191 16.9177 48.9094 19.9728 46.9806 21.3772L37.1864 28.4926C36.7657 28.7985 36.4525 29.2298 36.2919 29.7246C36.1313 30.2194 36.1314 30.7524 36.2922 31.2471L40.0315 42.7629C40.7705 45.0345 38.1717 46.9218 36.2429 45.5174L26.4487 38.402C26.0277 38.0959 25.5207 37.9311 25.0002 37.9311C24.4798 37.9311 23.9727 38.0959 23.5518 38.402L13.7575 45.5174C11.8287 46.9218 9.22993 45.0321 9.96893 42.7629L13.7083 31.2471C13.8691 30.7524 13.8692 30.2194 13.7085 29.7246C13.5479 29.2298 13.2348 28.7985 12.8141 28.4926L3.01985 21.3772C1.08859 19.9728 2.08378 16.9177 4.46829 16.9177H16.5731C17.093 16.9178 17.5996 16.7534 18.0204 16.4481C18.4412 16.1427 18.7546 15.712 18.9158 15.2177L22.6576 3.70187V3.70187Z" stroke="#F7B749" stroke-width="3" stroke-linecap="round" stroke-linejoin="round"/>
</svg>
