<svg width="53" height="48" viewBox="0 0 53 48" fill="none" xmlns="http://www.w3.org/2000/svg">
<path d="M15.6111 15.75L23.7778 24L15.6111 32.25M29.2222 32.25H37.3889M7.44444 46H45.5556C46.9995 46 48.3843 45.4205 49.4054 44.3891C50.4264 43.3576 51 41.9587 51 40.5V7.5C51 6.04131 50.4264 4.64236 49.4054 3.61091C48.3843 2.57946 46.9995 2 45.5556 2H7.44444C6.00049 2 4.61567 2.57946 3.59464 3.61091C2.57361 4.64236 2 6.04131 2 7.5V40.5C2 41.9587 2.57361 43.3576 3.59464 44.3891C4.61567 45.4205 6.00049 46 7.44444 46Z" stroke="black" stroke-width="3" stroke-linecap="round" stroke-linejoin="round"/>
</svg>
